<svg version="1.1" style="font-family:&quot;lucida grande&quot;, &quot;lucida sans unicode&quot;, arial, helvetica, sans-serif;font-size:12px;" xmlns="http://www.w3.org/2000/svg" width="584" height="400" viewBox="0 0 584 400"><desc>Created with Highcharts 4.1.0</desc><defs><clipPath id="highcharts-1"><rect x="0" y="0" width="503" height="317"></rect></clipPath><clipPath id="highcharts-2"><rect x="-99" y="-47" width="602" height="400"></rect></clipPath><clipPath id="highcharts-3"><rect x="0" y="0" width="503" height="317"></rect></clipPath></defs><rect x="0" y="0" width="584" height="400" strokeWidth="0" fill="#FFFFFF" class=" highcharts-background"></rect><path fill="none" d="M 71 364.5 L 574 364.5" stroke="#808080" stroke-width="1"></path><g class="highcharts-grid" ></g><g class="highcharts-grid" ><path fill="none" d="M 71 364.5 L 574 364.5" stroke="#D8D8D8" stroke-width="1"  opacity="1"></path><path fill="none" d="M 71 301.5 L 574 301.5" stroke="#D8D8D8" stroke-width="1"  opacity="1"></path><path fill="none" d="M 71 237.5 L 574 237.5" stroke="#D8D8D8" stroke-width="1"  opacity="1"></path><path fill="none" d="M 71 174.5 L 574 174.5" stroke="#D8D8D8" stroke-width="1"  opacity="1"></path><path fill="none" d="M 71 110.5 L 574 110.5" stroke="#D8D8D8" stroke-width="1"  opacity="1"></path><path fill="none" d="M 71 46.5 L 574 46.5" stroke="#D8D8D8" stroke-width="1"  opacity="1"></path></g><g class="highcharts-axis" ><path fill="none" d="M 186.5 364 L 186.5 374" stroke="#C0D0E0" stroke-width="1" opacity="1"></path><path fill="none" d="M 316.5 364 L 316.5 374" stroke="#C0D0E0" stroke-width="1" opacity="1"></path><path fill="none" d="M 445.5 364 L 445.5 374" stroke="#C0D0E0" stroke-width="1" opacity="1"></path><path fill="none" d="M 71 364.5 L 574 364.5" stroke="#C0D0E0" stroke-width="1"  visibility="visible"></path></g><g class="highcharts-axis" ><text x="24"  text-anchor="middle" transform="translate(0,0) rotate(270 24 205.5)" class=" highcharts-yaxis-title" style="color:#707070;fill:#707070;" visibility="visible" y="205.5">Value</text></g><g class="highcharts-series-group" ><g class="highcharts-series" visibility="visible"  transform="translate(71,47) scale(1 1)" clip-path="url(#highcharts-3)"><path fill="none" d="M 4.9 299.0 C 4.9 299.0 20.5 65.2 30.8 65.2 C 41.2 65.2 46.4 65.2 56.8 72.4 C 67.2 79.5 72.4 234.2 82.7 234.2 C 93.1 234.2 98.3 190.7 108.7 190.7 C 119.1 190.7 124.3 297.6 134.7 297.6 C 145.0 297.6 150.2 297.6 160.6 285.7 C 171.0 273.9 176.2 166.3 186.6 166.3 C 196.9 166.3 202.1 227.7 212.5 227.7 C 222.9 227.7 228.1 219.1 238.5 201.2 C 248.9 183.3 254.0 138.3 264.4 138.3 C 274.8 138.3 280.0 231.1 290.4 231.1 C 300.8 231.1 306.0 162.7 316.3 144.5 C 326.7 126.4 331.9 142.3 342.3 126.4 C 352.7 110.4 357.9 64.9 368.2 64.9 C 378.6 64.9 383.8 139.3 394.2 139.3 C 404.6 139.3 409.8 64.4 420.2 64.4 C 430.5 64.4 435.7 112.2 446.1 153.1 C 456.5 193.9 461.7 268.7 472.1 268.7 C 482.4 268.7 498.0 182.3 498.0 182.3" stroke="#7cb5ec" stroke-width="2"  stroke-linejoin="round" stroke-linecap="round"></path><path fill="none" d="M -5.0 299.0 L 4.9 299.0 C 4.9 299.0 20.5 65.2 30.8 65.2 C 41.2 65.2 46.4 65.2 56.8 72.4 C 67.2 79.5 72.4 234.2 82.7 234.2 C 93.1 234.2 98.3 190.7 108.7 190.7 C 119.1 190.7 124.3 297.6 134.7 297.6 C 145.0 297.6 150.2 297.6 160.6 285.7 C 171.0 273.9 176.2 166.3 186.6 166.3 C 196.9 166.3 202.1 227.7 212.5 227.7 C 222.9 227.7 228.1 219.1 238.5 201.2 C 248.9 183.3 254.0 138.3 264.4 138.3 C 274.8 138.3 280.0 231.1 290.4 231.1 C 300.8 231.1 306.0 162.7 316.3 144.5 C 326.7 126.4 331.9 142.3 342.3 126.4 C 352.7 110.4 357.9 64.9 368.2 64.9 C 378.6 64.9 383.8 139.3 394.2 139.3 C 404.6 139.3 409.8 64.4 420.2 64.4 C 430.5 64.4 435.7 112.2 446.1 153.1 C 456.5 193.9 461.7 268.7 472.1 268.7 C 482.4 268.7 498.0 182.3 498.0 182.3 L 508.0 182.3" stroke-linejoin="round" visibility="visible" stroke="rgb(192,192,192)" stroke-opacity="0.0" stroke-width="22"  class=" highcharts-tracker" style=""></path></g><g class="highcharts-markers highcharts-tracker" visibility="visible"  transform="translate(71,47) scale(1 1)" clip-path="url(#highcharts-2)" style=""><path fill="#7cb5ec" d="M 498 178.3 C 503.3 178.3 503.3 186.3 498 186.3 C 492.6 186.3 492.6 178.3 498 178.3 Z"></path><path fill="#7cb5ec" d="M 472 264.7 C 477.3 264.7 477.3 272.7 472 272.7 C 466.6 272.7 466.6 264.7 472 264.7 Z"></path><path fill="#7cb5ec" d="M 446 149.1 C 451.3 149.1 451.3 157.1 446 157.1 C 440.6 157.1 440.6 149.1 446 149.1 Z"></path><path fill="#7cb5ec" d="M 420 60.4 C 425.3 60.4 425.3 68.4 420 68.4 C 414.6 68.4 414.6 60.4 420 60.4 Z"></path><path fill="#7cb5ec" d="M 394 135.3 C 399.3 135.3 399.3 143.3 394 143.3 C 388.6 143.3 388.6 135.3 394 135.3 Z"></path><path fill="#7cb5ec" d="M 368 60.9 C 373.3 60.9 373.3 68.9 368 68.9 C 362.6 68.9 362.6 60.9 368 60.9 Z"></path><path fill="#7cb5ec" d="M 342 122.4 C 347.3 122.4 347.3 130.4 342 130.4 C 336.6 130.4 336.6 122.4 342 122.4 Z"></path><path fill="#7cb5ec" d="M 316 140.5 C 321.3 140.5 321.3 148.5 316 148.5 C 310.6 148.5 310.6 140.5 316 140.5 Z"></path><path fill="#7cb5ec" d="M 290 227.1 C 295.3 227.1 295.3 235.1 290 235.1 C 284.6 235.1 284.6 227.1 290 227.1 Z"></path><path fill="#7cb5ec" d="M 264 134.3 C 269.3 134.3 269.3 142.3 264 142.3 C 258.6 142.3 258.6 134.3 264 134.3 Z"></path><path fill="#7cb5ec" d="M 238 197.2 C 243.3 197.2 243.3 205.2 238 205.2 C 232.6 205.2 232.6 197.2 238 197.2 Z"></path><path fill="#7cb5ec" d="M 212 223.7 C 217.3 223.7 217.3 231.7 212 231.7 C 206.6 231.7 206.6 223.7 212 223.7 Z"></path><path fill="#7cb5ec" d="M 186 162.3 C 191.3 162.3 191.3 170.3 186 170.3 C 180.6 170.3 180.6 162.3 186 162.3 Z"></path><path fill="#7cb5ec" d="M 160 281.7 C 165.3 281.7 165.3 289.7 160 289.7 C 154.6 289.7 154.6 281.7 160 281.7 Z"></path><path fill="#7cb5ec" d="M 134 293.6 C 139.3 293.6 139.3 301.6 134 301.6 C 128.6 301.6 128.6 293.6 134 293.6 Z"></path><path fill="#7cb5ec" d="M 108 186.7 C 113.3 186.7 113.3 194.7 108 194.7 C 102.6 194.7 102.6 186.7 108 186.7 Z"></path><path fill="#7cb5ec" d="M 82 230.2 C 87.3 230.2 87.3 238.2 82 238.2 C 76.6 238.2 76.6 230.2 82 230.2 Z"></path><path fill="#7cb5ec" d="M 56 68.4 C 61.3 68.4 61.3 76.4 56 76.4 C 50.6 76.4 50.6 68.4 56 68.4 Z"></path><path fill="#7cb5ec" d="M 30 61.2 C 35.3 61.2 35.3 69.2 30 69.2 C 24.6 69.2 24.6 61.2 30 61.2 Z"></path><path fill="#7cb5ec" d="M 4 295.0 C 9.3 295.0 9.3 303.0 4 303.0 C -1.3 303.0 -1.3 295.0 4 295.0 Z"></path></g></g><text x="292" text-anchor="middle" class="highcharts-title"  style="color:#333333;font-size:18px;fill:#333333;width:520px;" y="24"><tspan>Live random data</tspan></text><g class="highcharts-axis-labels highcharts-xaxis-labels" ><text x="186.9" style="color:#606060;cursor:default;font-size:11px;fill:#606060;width:178px;text-overflow:clip;" text-anchor="middle" transform="translate(0,0)" y="383" opacity="1">14:44:20</text><text x="316.7" style="color:#606060;cursor:default;font-size:11px;fill:#606060;width:178px;text-overflow:clip;" text-anchor="middle" transform="translate(0,0)" y="383" opacity="1">14:44:25</text><text x="446.4" style="color:#606060;cursor:default;font-size:11px;fill:#606060;width:178px;text-overflow:clip;" text-anchor="middle" transform="translate(0,0)" y="383" opacity="1">14:44:30</text></g><g class="highcharts-axis-labels highcharts-yaxis-labels" ><text x="56" style="color:#606060;cursor:default;font-size:11px;fill:#606060;width:183px;text-overflow:clip;" text-anchor="end" transform="translate(0,0)" y="369" opacity="1">0</text><text x="56" style="color:#606060;cursor:default;font-size:11px;fill:#606060;width:183px;text-overflow:clip;" text-anchor="end" transform="translate(0,0)" y="305" opacity="1">0.2</text><text x="56" style="color:#606060;cursor:default;font-size:11px;fill:#606060;width:183px;text-overflow:clip;" text-anchor="end" transform="translate(0,0)" y="242" opacity="1">0.5</text><text x="56" style="color:#606060;cursor:default;font-size:11px;fill:#606060;width:183px;text-overflow:clip;" text-anchor="end" transform="translate(0,0)" y="178" opacity="1">0.7</text><text x="56" style="color:#606060;cursor:default;font-size:11px;fill:#606060;width:183px;text-overflow:clip;" text-anchor="end" transform="translate(0,0)" y="115" opacity="1">1</text><text x="56" style="color:#606060;cursor:default;font-size:11px;fill:#606060;width:183px;text-overflow:clip;" text-anchor="end" transform="translate(0,0)" y="52" opacity="1">1.2</text></g><g class="highcharts-tooltip"  style="cursor:default;padding:0;white-space:nowrap;" transform="translate(0,-9999)"><path fill="none" d="M 3 0 L 13 0 C 16 0 16 0 16 3 L 16 13 C 16 16 16 16 13 16 L 3 16 C 0 16 0 16 0 13 L 0 3 C 0 0 0 0 3 0"  stroke="black" stroke-opacity="0.0" stroke-width="5" transform="translate(1, 1)"></path><path fill="none" d="M 3 0 L 13 0 C 16 0 16 0 16 3 L 16 13 C 16 16 16 16 13 16 L 3 16 C 0 16 0 16 0 13 L 0 3 C 0 0 0 0 3 0"  stroke="black" stroke-opacity="0.0" stroke-width="3" transform="translate(1, 1)"></path><path fill="none" d="M 3 0 L 13 0 C 16 0 16 0 16 3 L 16 13 C 16 16 16 16 13 16 L 3 16 C 0 16 0 16 0 13 L 0 3 C 0 0 0 0 3 0"  stroke="black" stroke-opacity="0.1" stroke-width="1" transform="translate(1, 1)"></path><path fill="rgb(249, 249, 249)" fill-opacity=" .85" d="M 3 0 L 13 0 C 16 0 16 0 16 3 L 16 13 C 16 16 16 16 13 16 L 3 16 C 0 16 0 16 0 13 L 0 3 C 0 0 0 0 3 0"></path><text x="8"  style="font-size:12px;color:#333333;fill:#333333;" y="20"></text></g></svg>