<svg version="1.1" style="font-family:&quot;lucida grande&quot;, &quot;lucida sans unicode&quot;, arial, helvetica, sans-serif;font-size:12px;" xmlns="http://www.w3.org/2000/svg" width="584" height="400" viewBox="0 0 584 400"><desc>Created with Highcharts 4.1.0</desc><defs><linearGradient x1="0" y1="0" x2="0" y2="1" id="highcharts-1"><stop offset="0" stop-color="#FFFFFF" stop-opacity="1"></stop><stop offset="1" stop-color="#7cb5ec" stop-opacity="1"></stop></linearGradient><clipPath id="highcharts-2"><rect x="0" y="0" width="426" height="280"></rect></clipPath></defs><rect x="0" y="0" width="584" height="400" strokeWidth="0" fill="#FFFFFF" class=" highcharts-background" stroke="transparent"></rect><g class="highcharts-grid" ></g><g class="highcharts-grid" ><path fill="none" d="M 82 264.5 L 508 264.5" stroke="#D8D8D8" stroke-width="1"  opacity="1"></path><path fill="none" d="M 82 208.5 L 508 208.5" stroke="#D8D8D8" stroke-width="1"  opacity="1"></path><path fill="none" d="M 82 152.5 L 508 152.5" stroke="#D8D8D8" stroke-width="1"  opacity="1"></path><path fill="none" d="M 82 96.5 L 508 96.5" stroke="#D8D8D8" stroke-width="1"  opacity="1"></path><path fill="none" d="M 82 39.5 L 508 39.5" stroke="#D8D8D8" stroke-width="1"  opacity="1"></path><path fill="none" d="M 82 320.5 L 508 320.5" stroke="#D8D8D8" stroke-width="1"  opacity="1"></path></g><g class="highcharts-axis" ><path fill="none" d="M 124.5 320 L 124.5 330" stroke="#C0D0E0" stroke-width="1" opacity="1"></path><path fill="none" d="M 166.5 320 L 166.5 330" stroke="#C0D0E0" stroke-width="1" opacity="1"></path><path fill="none" d="M 209.5 320 L 209.5 330" stroke="#C0D0E0" stroke-width="1" opacity="1"></path><path fill="none" d="M 251.5 320 L 251.5 330" stroke="#C0D0E0" stroke-width="1" opacity="1"></path><path fill="none" d="M 294.5 320 L 294.5 330" stroke="#C0D0E0" stroke-width="1" opacity="1"></path><path fill="none" d="M 337.5 320 L 337.5 330" stroke="#C0D0E0" stroke-width="1" opacity="1"></path><path fill="none" d="M 379.5 320 L 379.5 330" stroke="#C0D0E0" stroke-width="1" opacity="1"></path><path fill="none" d="M 422.5 320 L 422.5 330" stroke="#C0D0E0" stroke-width="1" opacity="1"></path><path fill="none" d="M 464.5 320 L 464.5 330" stroke="#C0D0E0" stroke-width="1" opacity="1"></path><path fill="none" d="M 508.5 320 L 508.5 330" stroke="#C0D0E0" stroke-width="1" opacity="1"></path><path fill="none" d="M 81.5 320 L 81.5 330" stroke="#C0D0E0" stroke-width="1" opacity="1"></path><path fill="none" d="M 82 320.5 L 508 320.5" stroke="#C0D0E0" stroke-width="1"  visibility="visible"></path></g><g class="highcharts-axis" ></g><g class="highcharts-series-group" ><g class="highcharts-series highcharts-tracker" visibility="visible"  transform="translate(82,40) scale(1 1)" style="" clip-path="url(#highcharts-2)"><rect x="0" y="224" width="43" height="56" stroke="#7cb5ec" stroke-width="1" fill="rgb(246,250,254)"></rect><rect x="0" y="168" width="43" height="56" stroke="#7cb5ec" stroke-width="1" fill="rgb(238,246,253)"></rect><rect x="0" y="112" width="43" height="56" stroke="#7cb5ec" stroke-width="1" fill="rgb(248,251,254)"></rect><rect x="0" y="56" width="43" height="56" stroke="#7cb5ec" stroke-width="1" fill="rgb(234,243,252)"></rect><rect x="0" y="0" width="43" height="56" stroke="#7cb5ec" stroke-width="1" fill="rgb(196,222,247)"></rect><rect x="43" y="224" width="42" height="56" stroke="#7cb5ec" stroke-width="1" fill="rgb(175,210,243)"></rect><rect x="43" y="168" width="42" height="56" stroke="#7cb5ec" stroke-width="1" fill="rgb(204,226,248)"></rect><rect x="43" y="112" width="42" height="56" stroke="#7cb5ec" stroke-width="1" fill="rgb(187,217,245)"></rect><rect x="43" y="56" width="42" height="56" stroke="#7cb5ec" stroke-width="1" fill="rgb(153,197,240)"></rect><rect x="43" y="0" width="42" height="56" stroke="#7cb5ec" stroke-width="1" fill="rgb(213,231,249)"></rect><rect x="85" y="224" width="43" height="56" stroke="#7cb5ec" stroke-width="1" fill="rgb(224,238,251)"></rect><rect x="85" y="168" width="43" height="56" stroke="#7cb5ec" stroke-width="1" fill="rgb(242,248,253)"></rect><rect x="85" y="112" width="43" height="56" stroke="#7cb5ec" stroke-width="1" fill="rgb(148,194,239)"></rect><rect x="85" y="56" width="43" height="56" stroke="#7cb5ec" stroke-width="1" fill="rgb(199,223,247)"></rect><rect x="85" y="0" width="43" height="56" stroke="#7cb5ec" stroke-width="1" fill="rgb(210,229,248)"></rect><rect x="128" y="224" width="42" height="56" stroke="#7cb5ec" stroke-width="1" fill="rgb(192,219,246)"></rect><rect x="128" y="168" width="42" height="56" stroke="#7cb5ec" stroke-width="1" fill="rgb(140,190,238)"></rect><rect x="128" y="112" width="42" height="56" stroke="#7cb5ec" stroke-width="1" fill="rgb(155,199,241)"></rect><rect x="128" y="56" width="42" height="56" stroke="#7cb5ec" stroke-width="1" fill="rgb(238,246,253)"></rect><rect x="128" y="0" width="42" height="56" stroke="#7cb5ec" stroke-width="1" fill="rgb(241,247,253)"></rect><rect x="170" y="224" width="43" height="56" stroke="#7cb5ec" stroke-width="1" fill="rgb(222,236,250)"></rect><rect x="170" y="168" width="43" height="56" stroke="#7cb5ec" stroke-width="1" fill="rgb(251,253,254)"></rect><rect x="170" y="112" width="43" height="56" stroke="#7cb5ec" stroke-width="1" fill="rgb(248,251,254)"></rect><rect x="170" y="56" width="43" height="56" stroke="#7cb5ec" stroke-width="1" fill="rgb(153,197,240)"></rect><rect x="170" y="0" width="43" height="56" stroke="#7cb5ec" stroke-width="1" fill="rgb(155,198,240)"></rect><rect x="213" y="224" width="43" height="56" stroke="#7cb5ec" stroke-width="1" fill="rgb(178,212,244)"></rect><rect x="213" y="168" width="43" height="56" stroke="#7cb5ec" stroke-width="1" fill="rgb(227,239,251)"></rect><rect x="213" y="112" width="43" height="56" stroke="#7cb5ec" stroke-width="1" fill="rgb(245,249,253)"></rect><rect x="213" y="56" width="43" height="56" stroke="#7cb5ec" stroke-width="1" fill="rgb(250,252,254)"></rect><rect x="213" y="0" width="43" height="56" stroke="#7cb5ec" stroke-width="1" fill="rgb(150,196,240)"></rect><rect x="256" y="224" width="42" height="56" stroke="#7cb5ec" stroke-width="1" fill="rgb(244,249,253)"></rect><rect x="256" y="168" width="42" height="56" stroke="#7cb5ec" stroke-width="1" fill="rgb(217,233,249)"></rect><rect x="256" y="112" width="42" height="56" stroke="#7cb5ec" stroke-width="1" fill="rgb(178,212,244)"></rect><rect x="256" y="56" width="42" height="56" stroke="#7cb5ec" stroke-width="1" fill="rgb(169,207,243)"></rect><rect x="256" y="0" width="42" height="56" stroke="#7cb5ec" stroke-width="1" fill="rgb(171,208,243)"></rect><rect x="298" y="224" width="43" height="56" stroke="#7cb5ec" stroke-width="1" fill="rgb(228,240,251)"></rect><rect x="298" y="168" width="43" height="56" stroke="#7cb5ec" stroke-width="1" fill="rgb(254,255,255)"></rect><rect x="298" y="112" width="43" height="56" stroke="#7cb5ec" stroke-width="1" fill="rgb(183,215,245)"></rect><rect x="298" y="56" width="43" height="56" stroke="#7cb5ec" stroke-width="1" fill="rgb(227,239,251)"></rect><rect x="298" y="0" width="43" height="56" stroke="#7cb5ec" stroke-width="1" fill="rgb(229,240,251)"></rect><rect x="341" y="224" width="42" height="56" stroke="#7cb5ec" stroke-width="1" fill="rgb(181,213,244)"></rect><rect x="341" y="168" width="42" height="56" stroke="#7cb5ec" stroke-width="1" fill="rgb(170,207,243)"></rect><rect x="341" y="112" width="42" height="56" stroke="#7cb5ec" stroke-width="1" fill="rgb(148,194,239)"></rect><rect x="341" y="56" width="42" height="56" stroke="#7cb5ec" stroke-width="1" fill="rgb(199,223,247)"></rect><rect x="341" y="0" width="42" height="56" stroke="#7cb5ec" stroke-width="1" fill="rgb(182,214,244)"></rect><rect x="383" y="224" width="43" height="56" stroke="#7cb5ec" stroke-width="1" fill="rgb(214,232,249)"></rect><rect x="383" y="168" width="43" height="56" stroke="#7cb5ec" stroke-width="1" fill="rgb(155,199,241)"></rect><rect x="383" y="112" width="43" height="56" stroke="#7cb5ec" stroke-width="1" fill="rgb(228,240,251)"></rect><rect x="383" y="56" width="43" height="56" stroke="#7cb5ec" stroke-width="1" fill="rgb(213,231,249)"></rect><rect x="383" y="0" width="43" height="56" stroke="#7cb5ec" stroke-width="1" fill="rgb(176,210,243)"></rect></g><g class="highcharts-markers highcharts-tracker" visibility="visible"  transform="translate(82,40) scale(1 1)" style="" clip-path="none"></g></g><text x="292" text-anchor="middle" class="highcharts-title"  style="color:#333333;font-size:18px;fill:#333333;width:520px;" y="24"><tspan>Sales per employee per weekday</tspan></text><g class="highcharts-data-labels highcharts-tracker" visibility="visible"  transform="translate(82,40) scale(1 1)" style=""><g  style="" transform="translate(11,241)"><text x="5"  style="font-size:11px;font-weight:bold;color:#000000;text-shadow:0 0 6px contrast, 0 0 3px contrast;fill:#000000;" y="16"><tspan x="5" y="16" stroke="#FFF" stroke-opacity="0.3" stroke-width="3px" stroke-linejoin="round">10</tspan><tspan x="5" y="16" stroke="#FFF" stroke-opacity="0.1" stroke-width="6px" stroke-linejoin="round">10</tspan><tspan x="5" y="16">10</tspan></text></g><g  style="" transform="translate(11,185)"><text x="5"  style="font-size:11px;font-weight:bold;color:#000000;text-shadow:0 0 6px contrast, 0 0 3px contrast;fill:#000000;" y="16"><tspan x="5" y="16" stroke="#FFF" stroke-opacity="0.3" stroke-width="3px" stroke-linejoin="round">19</tspan><tspan x="5" y="16" stroke="#FFF" stroke-opacity="0.1" stroke-width="6px" stroke-linejoin="round">19</tspan><tspan x="5" y="16">19</tspan></text></g><g  style="" transform="translate(14,129)"><text x="5"  style="font-size:11px;font-weight:bold;color:#000000;text-shadow:0 0 6px contrast, 0 0 3px contrast;fill:#000000;" y="16"><tspan x="5" y="16" stroke="#FFF" stroke-opacity="0.3" stroke-width="3px" stroke-linejoin="round">8</tspan><tspan x="5" y="16" stroke="#FFF" stroke-opacity="0.1" stroke-width="6px" stroke-linejoin="round">8</tspan><tspan x="5" y="16">8</tspan></text></g><g  style="" transform="translate(11,73)"><text x="5"  style="font-size:11px;font-weight:bold;color:#000000;text-shadow:0 0 6px contrast, 0 0 3px contrast;fill:#000000;" y="16"><tspan x="5" y="16" stroke="#FFF" stroke-opacity="0.3" stroke-width="3px" stroke-linejoin="round">24</tspan><tspan x="5" y="16" stroke="#FFF" stroke-opacity="0.1" stroke-width="6px" stroke-linejoin="round">24</tspan><tspan x="5" y="16">24</tspan></text></g><g  style="" transform="translate(11,17)"><text x="5"  style="font-size:11px;font-weight:bold;color:#000000;text-shadow:0 0 6px contrast, 0 0 3px contrast;fill:#000000;" y="16"><tspan x="5" y="16" stroke="#FFF" stroke-opacity="0.3" stroke-width="3px" stroke-linejoin="round">67</tspan><tspan x="5" y="16" stroke="#FFF" stroke-opacity="0.1" stroke-width="6px" stroke-linejoin="round">67</tspan><tspan x="5" y="16">67</tspan></text></g><g  style="" transform="translate(53,241)"><text x="5"  style="font-size:11px;font-weight:bold;color:#000000;text-shadow:0 0 6px contrast, 0 0 3px contrast;fill:#000000;" y="16"><tspan x="5" y="16" stroke="#FFF" stroke-opacity="0.3" stroke-width="3px" stroke-linejoin="round">92</tspan><tspan x="5" y="16" stroke="#FFF" stroke-opacity="0.1" stroke-width="6px" stroke-linejoin="round">92</tspan><tspan x="5" y="16">92</tspan></text></g><g  style="" transform="translate(53,185)"><text x="5"  style="font-size:11px;font-weight:bold;color:#000000;text-shadow:0 0 6px contrast, 0 0 3px contrast;fill:#000000;" y="16"><tspan x="5" y="16" stroke="#FFF" stroke-opacity="0.3" stroke-width="3px" stroke-linejoin="round">58</tspan><tspan x="5" y="16" stroke="#FFF" stroke-opacity="0.1" stroke-width="6px" stroke-linejoin="round">58</tspan><tspan x="5" y="16">58</tspan></text></g><g  style="" transform="translate(53,129)"><text x="5"  style="font-size:11px;font-weight:bold;color:#000000;text-shadow:0 0 6px contrast, 0 0 3px contrast;fill:#000000;" y="16"><tspan x="5" y="16" stroke="#FFF" stroke-opacity="0.3" stroke-width="3px" stroke-linejoin="round">78</tspan><tspan x="5" y="16" stroke="#FFF" stroke-opacity="0.1" stroke-width="6px" stroke-linejoin="round">78</tspan><tspan x="5" y="16">78</tspan></text></g><g  style="" transform="translate(50,73)"><text x="5"  style="font-size:11px;font-weight:bold;color:#000000;text-shadow:0 0 6px contrast, 0 0 3px contrast;fill:#000000;" y="16"><tspan x="5" y="16" stroke="#FFF" stroke-opacity="0.3" stroke-width="3px" stroke-linejoin="round">117</tspan><tspan x="5" y="16" stroke="#FFF" stroke-opacity="0.1" stroke-width="6px" stroke-linejoin="round">117</tspan><tspan x="5" y="16">117</tspan></text></g><g  style="" transform="translate(53,17)"><text x="5"  style="font-size:11px;font-weight:bold;color:#000000;text-shadow:0 0 6px contrast, 0 0 3px contrast;fill:#000000;" y="16"><tspan x="5" y="16" stroke="#FFF" stroke-opacity="0.3" stroke-width="3px" stroke-linejoin="round">48</tspan><tspan x="5" y="16" stroke="#FFF" stroke-opacity="0.1" stroke-width="6px" stroke-linejoin="round">48</tspan><tspan x="5" y="16">48</tspan></text></g><g  style="" transform="translate(96,241)"><text x="5"  style="font-size:11px;font-weight:bold;color:#000000;text-shadow:0 0 6px contrast, 0 0 3px contrast;fill:#000000;" y="16"><tspan x="5" y="16" stroke="#FFF" stroke-opacity="0.3" stroke-width="3px" stroke-linejoin="round">35</tspan><tspan x="5" y="16" stroke="#FFF" stroke-opacity="0.1" stroke-width="6px" stroke-linejoin="round">35</tspan><tspan x="5" y="16">35</tspan></text></g><g  style="" transform="translate(96,185)"><text x="5"  style="font-size:11px;font-weight:bold;color:#000000;text-shadow:0 0 6px contrast, 0 0 3px contrast;fill:#000000;" y="16"><tspan x="5" y="16" stroke="#FFF" stroke-opacity="0.3" stroke-width="3px" stroke-linejoin="round">15</tspan><tspan x="5" y="16" stroke="#FFF" stroke-opacity="0.1" stroke-width="6px" stroke-linejoin="round">15</tspan><tspan x="5" y="16">15</tspan></text></g><g  style="" transform="translate(93,129)"><text x="5"  style="font-size:11px;font-weight:bold;color:#000000;text-shadow:0 0 6px contrast, 0 0 3px contrast;fill:#000000;" y="16"><tspan x="5" y="16" stroke="#FFF" stroke-opacity="0.3" stroke-width="3px" stroke-linejoin="round">123</tspan><tspan x="5" y="16" stroke="#FFF" stroke-opacity="0.1" stroke-width="6px" stroke-linejoin="round">123</tspan><tspan x="5" y="16">123</tspan></text></g><g  style="" transform="translate(96,73)"><text x="5"  style="font-size:11px;font-weight:bold;color:#000000;text-shadow:0 0 6px contrast, 0 0 3px contrast;fill:#000000;" y="16"><tspan x="5" y="16" stroke="#FFF" stroke-opacity="0.3" stroke-width="3px" stroke-linejoin="round">64</tspan><tspan x="5" y="16" stroke="#FFF" stroke-opacity="0.1" stroke-width="6px" stroke-linejoin="round">64</tspan><tspan x="5" y="16">64</tspan></text></g><g  style="" transform="translate(96,17)"><text x="5"  style="font-size:11px;font-weight:bold;color:#000000;text-shadow:0 0 6px contrast, 0 0 3px contrast;fill:#000000;" y="16"><tspan x="5" y="16" stroke="#FFF" stroke-opacity="0.3" stroke-width="3px" stroke-linejoin="round">52</tspan><tspan x="5" y="16" stroke="#FFF" stroke-opacity="0.1" stroke-width="6px" stroke-linejoin="round">52</tspan><tspan x="5" y="16">52</tspan></text></g><g  style="" transform="translate(138,241)"><text x="5"  style="font-size:11px;font-weight:bold;color:#000000;text-shadow:0 0 6px contrast, 0 0 3px contrast;fill:#000000;" y="16"><tspan x="5" y="16" stroke="#FFF" stroke-opacity="0.3" stroke-width="3px" stroke-linejoin="round">72</tspan><tspan x="5" y="16" stroke="#FFF" stroke-opacity="0.1" stroke-width="6px" stroke-linejoin="round">72</tspan><tspan x="5" y="16">72</tspan></text></g><g  style="" transform="translate(135,185)"><text x="5"  style="font-size:11px;font-weight:bold;color:#000000;text-shadow:0 0 6px contrast, 0 0 3px contrast;fill:#000000;" y="16"><tspan x="5" y="16" stroke="#FFF" stroke-opacity="0.3" stroke-width="3px" stroke-linejoin="round">132</tspan><tspan x="5" y="16" stroke="#FFF" stroke-opacity="0.1" stroke-width="6px" stroke-linejoin="round">132</tspan><tspan x="5" y="16">132</tspan></text></g><g  style="" transform="translate(135,129)"><text x="5"  style="font-size:11px;font-weight:bold;color:#000000;text-shadow:0 0 6px contrast, 0 0 3px contrast;fill:#000000;" y="16"><tspan x="5" y="16" stroke="#FFF" stroke-opacity="0.3" stroke-width="3px" stroke-linejoin="round">114</tspan><tspan x="5" y="16" stroke="#FFF" stroke-opacity="0.1" stroke-width="6px" stroke-linejoin="round">114</tspan><tspan x="5" y="16">114</tspan></text></g><g  style="" transform="translate(138,73)"><text x="5"  style="font-size:11px;font-weight:bold;color:#000000;text-shadow:0 0 6px contrast, 0 0 3px contrast;fill:#000000;" y="16"><tspan x="5" y="16" stroke="#FFF" stroke-opacity="0.3" stroke-width="3px" stroke-linejoin="round">19</tspan><tspan x="5" y="16" stroke="#FFF" stroke-opacity="0.1" stroke-width="6px" stroke-linejoin="round">19</tspan><tspan x="5" y="16">19</tspan></text></g><g  style="" transform="translate(138,17)"><text x="5"  style="font-size:11px;font-weight:bold;color:#000000;text-shadow:0 0 6px contrast, 0 0 3px contrast;fill:#000000;" y="16"><tspan x="5" y="16" stroke="#FFF" stroke-opacity="0.3" stroke-width="3px" stroke-linejoin="round">16</tspan><tspan x="5" y="16" stroke="#FFF" stroke-opacity="0.1" stroke-width="6px" stroke-linejoin="round">16</tspan><tspan x="5" y="16">16</tspan></text></g><g  style="" transform="translate(181,241)"><text x="5"  style="font-size:11px;font-weight:bold;color:#000000;text-shadow:0 0 6px contrast, 0 0 3px contrast;fill:#000000;" y="16"><tspan x="5" y="16" stroke="#FFF" stroke-opacity="0.3" stroke-width="3px" stroke-linejoin="round">38</tspan><tspan x="5" y="16" stroke="#FFF" stroke-opacity="0.1" stroke-width="6px" stroke-linejoin="round">38</tspan><tspan x="5" y="16">38</tspan></text></g><g  style="" transform="translate(184,185)"><text x="5"  style="font-size:11px;font-weight:bold;color:#000000;text-shadow:0 0 6px contrast, 0 0 3px contrast;fill:#000000;" y="16"><tspan x="5" y="16" stroke="#FFF" stroke-opacity="0.3" stroke-width="3px" stroke-linejoin="round">5</tspan><tspan x="5" y="16" stroke="#FFF" stroke-opacity="0.1" stroke-width="6px" stroke-linejoin="round">5</tspan><tspan x="5" y="16">5</tspan></text></g><g  style="" transform="translate(184,129)"><text x="5"  style="font-size:11px;font-weight:bold;color:#000000;text-shadow:0 0 6px contrast, 0 0 3px contrast;fill:#000000;" y="16"><tspan x="5" y="16" stroke="#FFF" stroke-opacity="0.3" stroke-width="3px" stroke-linejoin="round">8</tspan><tspan x="5" y="16" stroke="#FFF" stroke-opacity="0.1" stroke-width="6px" stroke-linejoin="round">8</tspan><tspan x="5" y="16">8</tspan></text></g><g  style="" transform="translate(178,73)"><text x="5"  style="font-size:11px;font-weight:bold;color:#000000;text-shadow:0 0 6px contrast, 0 0 3px contrast;fill:#000000;" y="16"><tspan x="5" y="16" stroke="#FFF" stroke-opacity="0.3" stroke-width="3px" stroke-linejoin="round">117</tspan><tspan x="5" y="16" stroke="#FFF" stroke-opacity="0.1" stroke-width="6px" stroke-linejoin="round">117</tspan><tspan x="5" y="16">117</tspan></text></g><g  style="" transform="translate(178,17)"><text x="5"  style="font-size:11px;font-weight:bold;color:#000000;text-shadow:0 0 6px contrast, 0 0 3px contrast;fill:#000000;" y="16"><tspan x="5" y="16" stroke="#FFF" stroke-opacity="0.3" stroke-width="3px" stroke-linejoin="round">115</tspan><tspan x="5" y="16" stroke="#FFF" stroke-opacity="0.1" stroke-width="6px" stroke-linejoin="round">115</tspan><tspan x="5" y="16">115</tspan></text></g><g  style="" transform="translate(224,241)"><text x="5"  style="font-size:11px;font-weight:bold;color:#000000;text-shadow:0 0 6px contrast, 0 0 3px contrast;fill:#000000;" y="16"><tspan x="5" y="16" stroke="#FFF" stroke-opacity="0.3" stroke-width="3px" stroke-linejoin="round">88</tspan><tspan x="5" y="16" stroke="#FFF" stroke-opacity="0.1" stroke-width="6px" stroke-linejoin="round">88</tspan><tspan x="5" y="16">88</tspan></text></g><g  style="" transform="translate(224,185)"><text x="5"  style="font-size:11px;font-weight:bold;color:#000000;text-shadow:0 0 6px contrast, 0 0 3px contrast;fill:#000000;" y="16"><tspan x="5" y="16" stroke="#FFF" stroke-opacity="0.3" stroke-width="3px" stroke-linejoin="round">32</tspan><tspan x="5" y="16" stroke="#FFF" stroke-opacity="0.1" stroke-width="6px" stroke-linejoin="round">32</tspan><tspan x="5" y="16">32</tspan></text></g><g  style="" transform="translate(224,129)"><text x="5"  style="font-size:11px;font-weight:bold;color:#000000;text-shadow:0 0 6px contrast, 0 0 3px contrast;fill:#000000;" y="16"><tspan x="5" y="16" stroke="#FFF" stroke-opacity="0.3" stroke-width="3px" stroke-linejoin="round">12</tspan><tspan x="5" y="16" stroke="#FFF" stroke-opacity="0.1" stroke-width="6px" stroke-linejoin="round">12</tspan><tspan x="5" y="16">12</tspan></text></g><g  style="" transform="translate(227,73)"><text x="5"  style="font-size:11px;font-weight:bold;color:#000000;text-shadow:0 0 6px contrast, 0 0 3px contrast;fill:#000000;" y="16"><tspan x="5" y="16" stroke="#FFF" stroke-opacity="0.3" stroke-width="3px" stroke-linejoin="round">6</tspan><tspan x="5" y="16" stroke="#FFF" stroke-opacity="0.1" stroke-width="6px" stroke-linejoin="round">6</tspan><tspan x="5" y="16">6</tspan></text></g><g  style="" transform="translate(221,17)"><text x="5"  style="font-size:11px;font-weight:bold;color:#000000;text-shadow:0 0 6px contrast, 0 0 3px contrast;fill:#000000;" y="16"><tspan x="5" y="16" stroke="#FFF" stroke-opacity="0.3" stroke-width="3px" stroke-linejoin="round">120</tspan><tspan x="5" y="16" stroke="#FFF" stroke-opacity="0.1" stroke-width="6px" stroke-linejoin="round">120</tspan><tspan x="5" y="16">120</tspan></text></g><g  style="" transform="translate(266,241)"><text x="5"  style="font-size:11px;font-weight:bold;color:#000000;text-shadow:0 0 6px contrast, 0 0 3px contrast;fill:#000000;" y="16"><tspan x="5" y="16" stroke="#FFF" stroke-opacity="0.3" stroke-width="3px" stroke-linejoin="round">13</tspan><tspan x="5" y="16" stroke="#FFF" stroke-opacity="0.1" stroke-width="6px" stroke-linejoin="round">13</tspan><tspan x="5" y="16">13</tspan></text></g><g  style="" transform="translate(266,185)"><text x="5"  style="font-size:11px;font-weight:bold;color:#000000;text-shadow:0 0 6px contrast, 0 0 3px contrast;fill:#000000;" y="16"><tspan x="5" y="16" stroke="#FFF" stroke-opacity="0.3" stroke-width="3px" stroke-linejoin="round">44</tspan><tspan x="5" y="16" stroke="#FFF" stroke-opacity="0.1" stroke-width="6px" stroke-linejoin="round">44</tspan><tspan x="5" y="16">44</tspan></text></g><g  style="" transform="translate(266,129)"><text x="5"  style="font-size:11px;font-weight:bold;color:#000000;text-shadow:0 0 6px contrast, 0 0 3px contrast;fill:#000000;" y="16"><tspan x="5" y="16" stroke="#FFF" stroke-opacity="0.3" stroke-width="3px" stroke-linejoin="round">88</tspan><tspan x="5" y="16" stroke="#FFF" stroke-opacity="0.1" stroke-width="6px" stroke-linejoin="round">88</tspan><tspan x="5" y="16">88</tspan></text></g><g  style="" transform="translate(266,73)"><text x="5"  style="font-size:11px;font-weight:bold;color:#000000;text-shadow:0 0 6px contrast, 0 0 3px contrast;fill:#000000;" y="16"><tspan x="5" y="16" stroke="#FFF" stroke-opacity="0.3" stroke-width="3px" stroke-linejoin="round">98</tspan><tspan x="5" y="16" stroke="#FFF" stroke-opacity="0.1" stroke-width="6px" stroke-linejoin="round">98</tspan><tspan x="5" y="16">98</tspan></text></g><g  style="" transform="translate(266,17)"><text x="5"  style="font-size:11px;font-weight:bold;color:#000000;text-shadow:0 0 6px contrast, 0 0 3px contrast;fill:#000000;" y="16"><tspan x="5" y="16" stroke="#FFF" stroke-opacity="0.3" stroke-width="3px" stroke-linejoin="round">96</tspan><tspan x="5" y="16" stroke="#FFF" stroke-opacity="0.1" stroke-width="6px" stroke-linejoin="round">96</tspan><tspan x="5" y="16">96</tspan></text></g><g  style="" transform="translate(309,241)"><text x="5"  style="font-size:11px;font-weight:bold;color:#000000;text-shadow:0 0 6px contrast, 0 0 3px contrast;fill:#000000;" y="16"><tspan x="5" y="16" stroke="#FFF" stroke-opacity="0.3" stroke-width="3px" stroke-linejoin="round">31</tspan><tspan x="5" y="16" stroke="#FFF" stroke-opacity="0.1" stroke-width="6px" stroke-linejoin="round">31</tspan><tspan x="5" y="16">31</tspan></text></g><g  style="" transform="translate(312,185)"><text x="5"  style="font-size:11px;font-weight:bold;color:#000000;text-shadow:0 0 6px contrast, 0 0 3px contrast;fill:#000000;" y="16"><tspan x="5" y="16" stroke="#FFF" stroke-opacity="0.3" stroke-width="3px" stroke-linejoin="round">1</tspan><tspan x="5" y="16" stroke="#FFF" stroke-opacity="0.1" stroke-width="6px" stroke-linejoin="round">1</tspan><tspan x="5" y="16">1</tspan></text></g><g  style="" transform="translate(309,129)"><text x="5"  style="font-size:11px;font-weight:bold;color:#000000;text-shadow:0 0 6px contrast, 0 0 3px contrast;fill:#000000;" y="16"><tspan x="5" y="16" stroke="#FFF" stroke-opacity="0.3" stroke-width="3px" stroke-linejoin="round">82</tspan><tspan x="5" y="16" stroke="#FFF" stroke-opacity="0.1" stroke-width="6px" stroke-linejoin="round">82</tspan><tspan x="5" y="16">82</tspan></text></g><g  style="" transform="translate(309,73)"><text x="5"  style="font-size:11px;font-weight:bold;color:#000000;text-shadow:0 0 6px contrast, 0 0 3px contrast;fill:#000000;" y="16"><tspan x="5" y="16" stroke="#FFF" stroke-opacity="0.3" stroke-width="3px" stroke-linejoin="round">32</tspan><tspan x="5" y="16" stroke="#FFF" stroke-opacity="0.1" stroke-width="6px" stroke-linejoin="round">32</tspan><tspan x="5" y="16">32</tspan></text></g><g  style="" transform="translate(309,17)"><text x="5"  style="font-size:11px;font-weight:bold;color:#000000;text-shadow:0 0 6px contrast, 0 0 3px contrast;fill:#000000;" y="16"><tspan x="5" y="16" stroke="#FFF" stroke-opacity="0.3" stroke-width="3px" stroke-linejoin="round">30</tspan><tspan x="5" y="16" stroke="#FFF" stroke-opacity="0.1" stroke-width="6px" stroke-linejoin="round">30</tspan><tspan x="5" y="16">30</tspan></text></g><g  style="" transform="translate(351,241)"><text x="5"  style="font-size:11px;font-weight:bold;color:#000000;text-shadow:0 0 6px contrast, 0 0 3px contrast;fill:#000000;" y="16"><tspan x="5" y="16" stroke="#FFF" stroke-opacity="0.3" stroke-width="3px" stroke-linejoin="round">85</tspan><tspan x="5" y="16" stroke="#FFF" stroke-opacity="0.1" stroke-width="6px" stroke-linejoin="round">85</tspan><tspan x="5" y="16">85</tspan></text></g><g  style="" transform="translate(351,185)"><text x="5"  style="font-size:11px;font-weight:bold;color:#000000;text-shadow:0 0 6px contrast, 0 0 3px contrast;fill:#000000;" y="16"><tspan x="5" y="16" stroke="#FFF" stroke-opacity="0.3" stroke-width="3px" stroke-linejoin="round">97</tspan><tspan x="5" y="16" stroke="#FFF" stroke-opacity="0.1" stroke-width="6px" stroke-linejoin="round">97</tspan><tspan x="5" y="16">97</tspan></text></g><g  style="" transform="translate(348,129)"><text x="5"  style="font-size:11px;font-weight:bold;color:#000000;text-shadow:0 0 6px contrast, 0 0 3px contrast;fill:#000000;" y="16"><tspan x="5" y="16" stroke="#FFF" stroke-opacity="0.3" stroke-width="3px" stroke-linejoin="round">123</tspan><tspan x="5" y="16" stroke="#FFF" stroke-opacity="0.1" stroke-width="6px" stroke-linejoin="round">123</tspan><tspan x="5" y="16">123</tspan></text></g><g  style="" transform="translate(351,73)"><text x="5"  style="font-size:11px;font-weight:bold;color:#000000;text-shadow:0 0 6px contrast, 0 0 3px contrast;fill:#000000;" y="16"><tspan x="5" y="16" stroke="#FFF" stroke-opacity="0.3" stroke-width="3px" stroke-linejoin="round">64</tspan><tspan x="5" y="16" stroke="#FFF" stroke-opacity="0.1" stroke-width="6px" stroke-linejoin="round">64</tspan><tspan x="5" y="16">64</tspan></text></g><g  style="" transform="translate(351,17)"><text x="5"  style="font-size:11px;font-weight:bold;color:#000000;text-shadow:0 0 6px contrast, 0 0 3px contrast;fill:#000000;" y="16"><tspan x="5" y="16" stroke="#FFF" stroke-opacity="0.3" stroke-width="3px" stroke-linejoin="round">84</tspan><tspan x="5" y="16" stroke="#FFF" stroke-opacity="0.1" stroke-width="6px" stroke-linejoin="round">84</tspan><tspan x="5" y="16">84</tspan></text></g><g  style="" transform="translate(394,241)"><text x="5"  style="font-size:11px;font-weight:bold;color:#000000;text-shadow:0 0 6px contrast, 0 0 3px contrast;fill:#000000;" y="16"><tspan x="5" y="16" stroke="#FFF" stroke-opacity="0.3" stroke-width="3px" stroke-linejoin="round">47</tspan><tspan x="5" y="16" stroke="#FFF" stroke-opacity="0.1" stroke-width="6px" stroke-linejoin="round">47</tspan><tspan x="5" y="16">47</tspan></text></g><g  style="" transform="translate(391,185)"><text x="5"  style="font-size:11px;font-weight:bold;color:#000000;text-shadow:0 0 6px contrast, 0 0 3px contrast;fill:#000000;" y="16"><tspan x="5" y="16" stroke="#FFF" stroke-opacity="0.3" stroke-width="3px" stroke-linejoin="round">114</tspan><tspan x="5" y="16" stroke="#FFF" stroke-opacity="0.1" stroke-width="6px" stroke-linejoin="round">114</tspan><tspan x="5" y="16">114</tspan></text></g><g  style="" transform="translate(394,129)"><text x="5"  style="font-size:11px;font-weight:bold;color:#000000;text-shadow:0 0 6px contrast, 0 0 3px contrast;fill:#000000;" y="16"><tspan x="5" y="16" stroke="#FFF" stroke-opacity="0.3" stroke-width="3px" stroke-linejoin="round">31</tspan><tspan x="5" y="16" stroke="#FFF" stroke-opacity="0.1" stroke-width="6px" stroke-linejoin="round">31</tspan><tspan x="5" y="16">31</tspan></text></g><g  style="" transform="translate(394,73)"><text x="5"  style="font-size:11px;font-weight:bold;color:#000000;text-shadow:0 0 6px contrast, 0 0 3px contrast;fill:#000000;" y="16"><tspan x="5" y="16" stroke="#FFF" stroke-opacity="0.3" stroke-width="3px" stroke-linejoin="round">48</tspan><tspan x="5" y="16" stroke="#FFF" stroke-opacity="0.1" stroke-width="6px" stroke-linejoin="round">48</tspan><tspan x="5" y="16">48</tspan></text></g><g  style="" transform="translate(394,17)"><text x="5"  style="font-size:11px;font-weight:bold;color:#000000;text-shadow:0 0 6px contrast, 0 0 3px contrast;fill:#000000;" y="16"><tspan x="5" y="16" stroke="#FFF" stroke-opacity="0.3" stroke-width="3px" stroke-linejoin="round">91</tspan><tspan x="5" y="16" stroke="#FFF" stroke-opacity="0.1" stroke-width="6px" stroke-linejoin="round">91</tspan><tspan x="5" y="16">91</tspan></text></g></g><g class="highcharts-legend"  transform="translate(508,35)"><g ><g><g class="highcharts-legend-item"  transform="translate(8,3)"><rect x="0" y="4" width="12" height="280"  fill="url(#highcharts-1)"></rect><g class="highcharts-grid" ><path fill="none" d="M 0 5.5 L 12 5.5" stroke="#D8D8D8" stroke-width="1"  opacity="1"></path><path fill="none" d="M 0 51.5 L 12 51.5" stroke="#D8D8D8" stroke-width="1"  opacity="1"></path><path fill="none" d="M 0 98.5 L 12 98.5" stroke="#D8D8D8" stroke-width="1"  opacity="1"></path><path fill="none" d="M 0 144.5 L 12 144.5" stroke="#D8D8D8" stroke-width="1"  opacity="1"></path><path fill="none" d="M 0 190.5 L 12 190.5" stroke="#D8D8D8" stroke-width="1"  opacity="1"></path><path fill="none" d="M 0 237.5 L 12 237.5" stroke="#D8D8D8" stroke-width="1"  opacity="1"></path><path fill="none" d="M 0 283.5 L 12 283.5" stroke="#D8D8D8" stroke-width="1"  opacity="1"></path></g><text x="21" style="color:#333333;font-size:12px;font-weight:bold;cursor:pointer;fill:#333333;" text-anchor="start"  y="15"></text><g class="highcharts-axis" ></g><g class="highcharts-axis-labels highcharts-coloraxis-labels" ><text x="27" style="color:#606060;cursor:default;font-size:11px;fill:#606060;width:183px;text-overflow:clip;" text-anchor="start" transform="translate(0,0)" y="9" opacity="1">0</text><text x="27" style="color:#606060;cursor:default;font-size:11px;fill:#606060;width:183px;text-overflow:clip;" text-anchor="start" transform="translate(0,0)" y="56" opacity="1">25</text><text x="27" style="color:#606060;cursor:default;font-size:11px;fill:#606060;width:183px;text-overflow:clip;" text-anchor="start" transform="translate(0,0)" y="102" opacity="1">50</text><text x="27" style="color:#606060;cursor:default;font-size:11px;fill:#606060;width:183px;text-overflow:clip;" text-anchor="start" transform="translate(0,0)" y="149" opacity="1">75</text><text x="27" style="color:#606060;cursor:default;font-size:11px;fill:#606060;width:183px;text-overflow:clip;" text-anchor="start" transform="translate(0,0)" y="195" opacity="1">100</text><text x="27" style="color:#606060;cursor:default;font-size:11px;fill:#606060;width:183px;text-overflow:clip;" text-anchor="start" transform="translate(0,0)" y="241" opacity="1">125</text><text x="27" style="color:#606060;cursor:default;font-size:11px;fill:#606060;width:183px;text-overflow:clip;" text-anchor="start" transform="translate(0,0)" y="288" opacity="1">150</text></g></g></g></g></g><g class="highcharts-axis-labels highcharts-xaxis-labels" ><text x="105.8" style="color:#606060;cursor:default;font-size:11px;fill:#606060;width:400px;text-overflow:ellipsis;" text-anchor="end" transform="translate(0,0) rotate(-45 105.8 336)" y="336" opacity="1"><tspan>Alexander</tspan></text><text x="148.4" style="color:#606060;cursor:default;font-size:11px;fill:#606060;width:400px;text-overflow:ellipsis;" text-anchor="end" transform="translate(0,0) rotate(-45 148.4 336)" y="336" opacity="1"><tspan>Marie</tspan></text><text x="191.0" style="color:#606060;cursor:default;font-size:11px;fill:#606060;width:400px;text-overflow:ellipsis;" text-anchor="end" transform="translate(0,0) rotate(-45 191.0 336)" y="336" opacity="1"><tspan>Maximilian</tspan></text><text x="233.6" style="color:#606060;cursor:default;font-size:11px;fill:#606060;width:400px;text-overflow:ellipsis;" text-anchor="end" transform="translate(0,0) rotate(-45 233.6 336)" y="336" opacity="1"><tspan>Sophia</tspan></text><text x="276.2" style="color:#606060;cursor:default;font-size:11px;fill:#606060;width:400px;text-overflow:ellipsis;" text-anchor="end" transform="translate(0,0) rotate(-45 276.2 336)" y="336" opacity="1"><tspan>Lukas</tspan></text><text x="318.8" style="color:#606060;cursor:default;font-size:11px;fill:#606060;width:400px;text-overflow:ellipsis;" text-anchor="end" transform="translate(0,0) rotate(-45 318.8 336)" y="336" opacity="1"><tspan>Maria</tspan></text><text x="361.4" style="color:#606060;cursor:default;font-size:11px;fill:#606060;width:400px;text-overflow:ellipsis;" text-anchor="end" transform="translate(0,0) rotate(-45 361.4 336)" y="336" opacity="1"><tspan>Leon</tspan></text><text x="404.0" style="color:#606060;cursor:default;font-size:11px;fill:#606060;width:400px;text-overflow:ellipsis;" text-anchor="end" transform="translate(0,0) rotate(-45 404.0 336)" y="336" opacity="1"><tspan>Anna</tspan></text><text x="446.6" style="color:#606060;cursor:default;font-size:11px;fill:#606060;width:400px;text-overflow:ellipsis;" text-anchor="end" transform="translate(0,0) rotate(-45 446.6 336)" y="336" opacity="1"><tspan>Tim</tspan></text><text x="489.2" style="color:#606060;cursor:default;font-size:11px;fill:#606060;width:400px;text-overflow:ellipsis;" text-anchor="end" transform="translate(0,0) rotate(-45 489.2 336)" y="336" opacity="1"><tspan>Laura</tspan></text></g><g class="highcharts-axis-labels highcharts-yaxis-labels" ><text x="67" style="color:#606060;cursor:default;font-size:11px;fill:#606060;width:183px;text-overflow:clip;" text-anchor="end" transform="translate(0,0)" y="297" opacity="1">Monday</text><text x="67" style="color:#606060;cursor:default;font-size:11px;fill:#606060;width:183px;text-overflow:clip;" text-anchor="end" transform="translate(0,0)" y="241" opacity="1">Tuesday</text><text x="67" style="color:#606060;cursor:default;font-size:11px;fill:#606060;width:183px;text-overflow:clip;" text-anchor="end" transform="translate(0,0)" y="185" opacity="1">Wednesday</text><text x="67" style="color:#606060;cursor:default;font-size:11px;fill:#606060;width:183px;text-overflow:clip;" text-anchor="end" transform="translate(0,0)" y="129" opacity="1">Thursday</text><text x="67" style="color:#606060;cursor:default;font-size:11px;fill:#606060;width:183px;text-overflow:clip;" text-anchor="end" transform="translate(0,0)" y="73" opacity="1">Friday</text></g><g class="highcharts-tooltip"  style="cursor:default;padding:0;white-space:nowrap;" transform="translate(0,-9999)"><path fill="none" d="M 3 0 L 13 0 C 16 0 16 0 16 3 L 16 13 C 16 16 16 16 13 16 L 3 16 C 0 16 0 16 0 13 L 0 3 C 0 0 0 0 3 0"  stroke="black" stroke-opacity="0.0" stroke-width="5" transform="translate(1, 1)"></path><path fill="none" d="M 3 0 L 13 0 C 16 0 16 0 16 3 L 16 13 C 16 16 16 16 13 16 L 3 16 C 0 16 0 16 0 13 L 0 3 C 0 0 0 0 3 0"  stroke="black" stroke-opacity="0.0" stroke-width="3" transform="translate(1, 1)"></path><path fill="none" d="M 3 0 L 13 0 C 16 0 16 0 16 3 L 16 13 C 16 16 16 16 13 16 L 3 16 C 0 16 0 16 0 13 L 0 3 C 0 0 0 0 3 0"  stroke="black" stroke-opacity="0.1" stroke-width="1" transform="translate(1, 1)"></path><path fill="rgb(249, 249, 249)" fill-opacity=" .85" d="M 3 0 L 13 0 C 16 0 16 0 16 3 L 16 13 C 16 16 16 16 13 16 L 3 16 C 0 16 0 16 0 13 L 0 3 C 0 0 0 0 3 0"></path><text x="8"  style="font-size:12px;color:#333333;fill:#333333;" y="20"></text></g></svg>