<svg version="1.1" style="font-family:&quot;lucida grande&quot;, &quot;lucida sans unicode&quot;, arial, helvetica, sans-serif;font-size:12px;" xmlns="http://www.w3.org/2000/svg" width="600" height="400" viewBox="0 0 600 400"><desc>Created with Highcharts 4.1.0</desc><defs><clipPath id="highcharts-1"><rect x="0" y="0" width="580" height="338"></rect></clipPath></defs><rect x="0" y="0" width="600" height="400" strokeWidth="0" fill="#FFFFFF" class=" highcharts-background" stroke="transparent"></rect><g class="highcharts-series-group" ><g class="highcharts-series highcharts-tracker" visibility="visible"  transform="translate(10,47) scale(1 1)" style=""><path fill="#7cb5ec" d="M 289.9 69.6 A 99.4 99.4 0 1 1 252.0 260.8 L 290 169 A 0 0 0 1 0 290 169 Z" stroke="#FFFFFF" stroke-width="1" stroke-linejoin="round" transform="translate(0,0)"></path><path fill="#434348" d="M 251.9 260.8 A 99.4 99.4 0 0 1 192.7 148.4 L 290 169 A 0 0 0 0 0 290 169 Z" stroke="#FFFFFF" stroke-width="1" stroke-linejoin="round" transform="translate(0,0)"></path><path fill="#90ed7d" d="M 192.7 148.3 A 99.4 99.4 0 0 1 234.1 86.7 L 290 169 A 0 0 0 0 0 290 169 Z" stroke="#FFFFFF" stroke-width="1" stroke-linejoin="round" transform="translate(0,0)"></path><path fill="#f7a35c" d="M 234.2 86.7 A 99.4 99.4 0 0 1 276.2 70.5 L 290 169 A 0 0 0 0 0 290 169 Z" stroke="#FFFFFF" stroke-width="1" stroke-linejoin="round" transform="translate(0,0)"></path><path fill="#8085e9" d="M 276.3 70.5 A 99.4 99.4 0 0 1 289.8 69.6 L 290 169 A 0 0 0 0 0 290 169 Z" stroke="#FFFFFF" stroke-width="1" stroke-linejoin="round" transform="translate(0,0)"></path></g><g class="highcharts-markers" visibility="visible"  transform="translate(10,47) scale(1 1)"></g><g class="highcharts-series highcharts-tracker" visibility="visible"  transform="translate(10,47) scale(1 1)" style=""><path fill="rgb(175,232,255)" fill-opacity="1" d="M 289.9 39.8 A 129.2 129.2 0 0 1 374.0 70.9 L 348.1 101.1 A 89.4 89.4 0 0 0 289.9 79.6 Z" stroke="#FFFFFF" stroke-width="1" stroke-linejoin="round" transform="translate(0,0)"></path><path fill="rgb(162,219,255)" fill-opacity="1" d="M 374.1 71.0 A 129.2 129.2 0 0 1 409.9 120.9 L 372.9 135.7 A 89.4 89.4 0 0 0 348.2 101.1 Z" stroke="#FFFFFF" stroke-width="1" stroke-linejoin="round" transform="translate(0,0)"></path><path fill="rgb(149,206,255)" fill-opacity="1" d="M 409.9 121.0 A 129.2 129.2 0 0 1 263.0 295.3 L 271.3 256.4 A 89.4 89.4 0 0 0 373.0 135.8 Z" stroke="#FFFFFF" stroke-width="1" stroke-linejoin="round" transform="translate(0,0)"></path><path fill="rgb(136,193,248)" fill-opacity="1" d="M 262.9 295.3 A 129.2 129.2 0 0 1 240.3 288.2 L 255.6 251.5 A 89.4 89.4 0 0 0 271.2 256.4 Z" stroke="#FFFFFF" stroke-width="1" stroke-linejoin="round" transform="translate(0,0)"></path><path fill="rgb(118,118,123)" fill-opacity="1" d="M 240.2 288.2 A 129.2 129.2 0 0 1 238.8 287.6 L 254.5 251.0 A 89.4 89.4 0 0 0 255.5 251.5 Z" stroke="#FFFFFF" stroke-width="1" stroke-linejoin="round" transform="translate(0,0)"></path><path fill="rgb(107,107,112)" fill-opacity="1" d="M 238.7 287.5 A 129.2 129.2 0 0 1 232.3 284.6 L 250.1 249.0 A 89.4 89.4 0 0 0 254.5 251.0 Z" stroke="#FFFFFF" stroke-width="1" stroke-linejoin="round" transform="translate(0,0)"></path><path fill="rgb(97,97,102)" fill-opacity="1" d="M 232.2 284.5 A 129.2 129.2 0 0 1 220.8 278.1 L 242.1 244.4 A 89.4 89.4 0 0 0 250.0 248.9 Z" stroke="#FFFFFF" stroke-width="1" stroke-linejoin="round" transform="translate(0,0)"></path><path fill="rgb(87,87,92)" fill-opacity="1" d="M 220.6 278.0 A 129.2 129.2 0 0 1 162.2 187.9 L 201.5 182.1 A 89.4 89.4 0 0 0 242.0 244.4 Z" stroke="#FFFFFF" stroke-width="1" stroke-linejoin="round" transform="translate(0,0)"></path><path fill="rgb(77,77,82)" fill-opacity="1" d="M 162.1 187.8 A 129.2 129.2 0 0 1 163.5 142.3 L 202.5 150.5 A 89.4 89.4 0 0 0 201.5 182.0 Z" stroke="#FFFFFF" stroke-width="1" stroke-linejoin="round" transform="translate(0,0)"></path><path fill="rgb(195,255,176)" fill-opacity="1" d="M 163.5 142.2 A 129.2 129.2 0 0 1 163.7 141.3 L 202.6 149.8 A 89.4 89.4 0 0 0 202.5 150.5 Z" stroke="#FFFFFF" stroke-width="1" stroke-linejoin="round" transform="translate(0,0)"></path><path fill="rgb(188,255,169)" fill-opacity="1" d="M 163.8 141.2 A 129.2 129.2 0 0 1 164.1 139.7 L 202.9 148.7 A 89.4 89.4 0 0 0 202.6 149.8 Z" stroke="#FFFFFF" stroke-width="1" stroke-linejoin="round" transform="translate(0,0)"></path><path fill="rgb(182,255,163)" fill-opacity="1" d="M 164.1 139.6 A 129.2 129.2 0 0 1 164.3 138.7 L 203.0 148.0 A 89.4 89.4 0 0 0 202.9 148.6 Z" stroke="#FFFFFF" stroke-width="1" stroke-linejoin="round" transform="translate(0,0)"></path><path fill="rgb(175,255,156)" fill-opacity="1" d="M 164.4 138.6 A 129.2 129.2 0 0 1 165.1 135.8 L 203.5 146.0 A 89.4 89.4 0 0 0 203.1 147.9 Z" stroke="#FFFFFF" stroke-width="1" stroke-linejoin="round" transform="translate(0,0)"></path><path fill="rgb(169,255,150)" fill-opacity="1" d="M 165.1 135.7 A 129.2 129.2 0 0 1 165.8 133.2 L 204.0 144.2 A 89.4 89.4 0 0 0 203.6 145.9 Z" stroke="#FFFFFF" stroke-width="1" stroke-linejoin="round" transform="translate(0,0)"></path><path fill="rgb(163,255,144)" fill-opacity="1" d="M 165.8 133.1 A 129.2 129.2 0 0 1 212.5 65.5 L 236.4 97.4 A 89.4 89.4 0 0 0 204.1 144.1 Z" stroke="#FFFFFF" stroke-width="1" stroke-linejoin="round" transform="translate(0,0)"></path><path fill="rgb(156,249,137)" fill-opacity="1" d="M 212.6 65.4 A 129.2 129.2 0 0 1 216.0 63.0 L 238.8 95.6 A 89.4 89.4 0 0 0 236.5 97.3 Z" stroke="#FFFFFF" stroke-width="1" stroke-linejoin="round" transform="translate(0,0)"></path><path fill="rgb(150,243,131)" fill-opacity="1" d="M 216.1 62.9 A 129.2 129.2 0 0 1 217.5 62.0 L 239.8 94.9 A 89.4 89.4 0 0 0 238.9 95.6 Z" stroke="#FFFFFF" stroke-width="1" stroke-linejoin="round" transform="translate(0,0)"></path><path fill="rgb(255,214,143)" fill-opacity="1" d="M 217.6 61.9 A 129.2 129.2 0 0 1 252.1 45.4 L 263.8 83.5 A 89.4 89.4 0 0 0 239.9 94.9 Z" stroke="#FFFFFF" stroke-width="1" stroke-linejoin="round" transform="translate(0,0)"></path><path fill="rgb(255,206,135)" fill-opacity="1" d="M 252.2 45.4 A 129.2 129.2 0 0 1 263.7 42.4 L 271.8 81.4 A 89.4 89.4 0 0 0 263.8 83.4 Z" stroke="#FFFFFF" stroke-width="1" stroke-linejoin="round" transform="translate(0,0)"></path><path fill="rgb(255,199,128)" fill-opacity="1" d="M 263.9 42.4 A 129.2 129.2 0 0 1 265.6 42.1 L 273.1 81.1 A 89.4 89.4 0 0 0 271.9 81.4 Z" stroke="#FFFFFF" stroke-width="1" stroke-linejoin="round" transform="translate(0,0)"></path><path fill="rgb(255,192,121)" fill-opacity="1" d="M 265.8 42.0 A 129.2 129.2 0 0 1 267.4 41.7 L 274.4 80.9 A 89.4 89.4 0 0 0 273.2 81.1 Z" stroke="#FFFFFF" stroke-width="1" stroke-linejoin="round" transform="translate(0,0)"></path><path fill="rgb(255,184,113)" fill-opacity="1" d="M 267.5 41.7 A 129.2 129.2 0 0 1 269.1 41.4 L 275.5 80.7 A 89.4 89.4 0 0 0 274.4 80.9 Z" stroke="#FFFFFF" stroke-width="1" stroke-linejoin="round" transform="translate(0,0)"></path><path fill="rgb(255,177,106)" fill-opacity="1" d="M 269.2 41.4 A 129.2 129.2 0 0 1 270.6 41.2 L 276.6 80.6 A 89.4 89.4 0 0 0 275.6 80.7 Z" stroke="#FFFFFF" stroke-width="1" stroke-linejoin="round" transform="translate(0,0)"></path><path fill="rgb(254,170,99)" fill-opacity="1" d="M 270.7 41.2 A 129.2 129.2 0 0 1 271.7 41.0 L 277.4 80.4 A 89.4 89.4 0 0 0 276.6 80.5 Z" stroke="#FFFFFF" stroke-width="1" stroke-linejoin="round" transform="translate(0,0)"></path><path fill="rgb(179,184,255)" fill-opacity="1" d="M 271.9 41.0 A 129.2 129.2 0 0 1 272.8 40.9 L 278.1 80.3 A 89.4 89.4 0 0 0 277.4 80.4 Z" stroke="#FFFFFF" stroke-width="1" stroke-linejoin="round" transform="translate(0,0)"></path><path fill="rgb(162,167,255)" fill-opacity="1" d="M 272.9 40.9 A 129.2 129.2 0 0 1 275.8 40.5 L 280.2 80.1 A 89.4 89.4 0 0 0 278.1 80.3 Z" stroke="#FFFFFF" stroke-width="1" stroke-linejoin="round" transform="translate(0,0)"></path><path fill="rgb(145,150,250)" fill-opacity="1" d="M 276.0 40.5 A 129.2 129.2 0 0 1 289.8 39.8 L 289.8 79.6 A 89.4 89.4 0 0 0 280.3 80.1 Z" stroke="#FFFFFF" stroke-width="1" stroke-linejoin="round" transform="translate(0,0)"></path></g><g class="highcharts-markers" visibility="visible"  transform="translate(10,47) scale(1 1)"></g></g><text x="300" text-anchor="middle" class="highcharts-title"  style="color:#333333;font-size:18px;fill:#333333;width:536px;" y="24"><tspan>Browser market share, April, 2011</tspan></text><g class="highcharts-data-labels highcharts-tracker" visibility="visible"  transform="translate(10,47) scale(1 1)" style=""><g  style="" transform="translate(342,173)"><text x="5"  style="font-size:11px;font-weight:bold;color:white;text-shadow:0 0 6px contrast, 0 0 3px contrast;fill:white;" y="16"><tspan x="5" y="16" stroke="#000" stroke-opacity="0.3" stroke-width="3px" stroke-linejoin="round">MSIE</tspan><tspan x="5" y="16" stroke="#000" stroke-opacity="0.1" stroke-width="6px" stroke-linejoin="round">MSIE</tspan><tspan x="5" y="16">MSIE</tspan></text></g><g  style="" transform="translate(207,191)"><text x="5"  style="font-size:11px;font-weight:bold;color:white;text-shadow:0 0 6px contrast, 0 0 3px contrast;fill:white;" y="16"><tspan x="5" y="16" stroke="#000" stroke-opacity="0.3" stroke-width="3px" stroke-linejoin="round">Firefox</tspan><tspan x="5" y="16" stroke="#000" stroke-opacity="0.1" stroke-width="6px" stroke-linejoin="round">Firefox</tspan><tspan x="5" y="16">Firefox</tspan></text></g><g  style="" transform="translate(208,120)"><text x="5"  style="font-size:11px;font-weight:bold;color:white;text-shadow:0 0 6px contrast, 0 0 3px contrast;fill:white;" y="16"><tspan x="5" y="16" stroke="#000" stroke-opacity="0.3" stroke-width="3px" stroke-linejoin="round">Chrome</tspan><tspan x="5" y="16" stroke="#000" stroke-opacity="0.1" stroke-width="6px" stroke-linejoin="round">Chrome</tspan><tspan x="5" y="16">Chrome</tspan></text></g><g  style="" transform="translate(246,94)"><text x="5"  style="font-size:11px;font-weight:bold;color:white;text-shadow:0 0 6px contrast, 0 0 3px contrast;fill:white;" y="16"><tspan x="5" y="16" stroke="#000" stroke-opacity="0.3" stroke-width="3px" stroke-linejoin="round">Safari</tspan><tspan x="5" y="16" stroke="#000" stroke-opacity="0.1" stroke-width="6px" stroke-linejoin="round">Safari</tspan><tspan x="5" y="16">Safari</tspan></text></g></g><g class="highcharts-data-labels highcharts-tracker" visibility="visible"  transform="translate(10,47) scale(1 1)" style=""><path fill="none" d="M 350.3 19.7 C 345.3 19.7 342.5 27.2 338.7 37.5 L 334.8 47.8" stroke="rgb(175,232,255)" stroke-opacity="1" stroke-width="1"></path><path fill="none" d="M 424.5 76.4 C 419.5 76.4 413.0 81.0 404.0 87.4 L 395.1 93.8" stroke="rgb(162,219,255)" stroke-opacity="1" stroke-width="1"></path><path fill="none" d="M 416.6 271.6 C 411.6 271.6 405.5 266.5 397.1 259.4 L 388.7 252.3" stroke="rgb(149,206,255)" stroke-opacity="1" stroke-width="1"></path><path fill="none" d="M 237.4 320.9 C 242.4 320.9 244.8 313.2 248.0 302.7 L 251.3 292.2" stroke="rgb(136,193,248)" stroke-opacity="1" stroke-width="1"></path><path fill="none" d="M 176.8 285.8 C 181.8 285.8 215.5 300.6 221.0 291.0 L 226.4 281.4" stroke="rgb(97,97,102)" stroke-opacity="1" stroke-width="1"></path><path fill="none" d="M 151.4 255.6 C 156.4 255.6 163.1 251.2 172.3 245.3 L 181.6 239.3" stroke="rgb(87,87,92)" stroke-opacity="1" stroke-width="1"></path><path fill="none" d="M 125.8 164.0 C 130.8 164.0 138.8 164.2 149.8 164.6 L 160.8 164.9" stroke="rgb(77,77,82)" stroke-opacity="1" stroke-width="1"></path><path fill="none" d="M 153.8 78.8 C 158.8 78.8 165.6 82.9 174.7 89.1 L 183.7 95.4" stroke="rgb(163,255,144)" stroke-opacity="1" stroke-width="1"></path><path fill="none" d="M 173.0 55.8 C 178.0 55.8 224.8 32.5 229.6 42.4 L 234.3 52.3" stroke="rgb(255,214,143)" stroke-opacity="1" stroke-width="1"></path><path fill="none" d="M 202.5 32.8 C 207.5 32.8 252.6 22.4 255.3 33.1 L 258.0 43.8" stroke="rgb(255,206,135)" stroke-opacity="1" stroke-width="1"></path><path fill="none" d="M 276.4 9.8 C 281.4 9.8 281.8 18.0 282.4 29.0 L 283.0 39.9" stroke="rgb(145,150,250)" stroke-opacity="1" stroke-width="1"></path><g  style="" transform="translate(355,10)"><text x="5"  style="font-size:11px;font-weight:bold;color:#000000;text-shadow:0 0 6px contrast, 0 0 3px contrast;fill:#000000;" y="16"><tspan style="font-weight:bold" x="5" y="16" stroke="#FFF" stroke-opacity="0.3" stroke-width="3px" stroke-linejoin="round">MSIE 6.0:</tspan><tspan dx="0" stroke="#FFF" stroke-opacity="0.3" stroke-width="3px" stroke-linejoin="round"> 10.8%</tspan><tspan style="font-weight:bold" x="5" y="16" stroke="#FFF" stroke-opacity="0.1" stroke-width="6px" stroke-linejoin="round">MSIE 6.0:</tspan><tspan dx="0" stroke="#FFF" stroke-opacity="0.1" stroke-width="6px" stroke-linejoin="round"> 10.8%</tspan><tspan style="font-weight:bold" x="5" y="16">MSIE 6.0:</tspan><tspan dx="0"> 10.8%</tspan></text></g><g  style="" transform="translate(430,66)"><text x="5"  style="font-size:11px;font-weight:bold;color:#000000;text-shadow:0 0 6px contrast, 0 0 3px contrast;fill:#000000;" y="16"><tspan style="font-weight:bold" x="5" y="16" stroke="#FFF" stroke-opacity="0.3" stroke-width="3px" stroke-linejoin="round">MSIE 7.0:</tspan><tspan dx="0" stroke="#FFF" stroke-opacity="0.3" stroke-width="3px" stroke-linejoin="round"> 7.3%</tspan><tspan style="font-weight:bold" x="5" y="16" stroke="#FFF" stroke-opacity="0.1" stroke-width="6px" stroke-linejoin="round">MSIE 7.0:</tspan><tspan dx="0" stroke="#FFF" stroke-opacity="0.1" stroke-width="6px" stroke-linejoin="round"> 7.3%</tspan><tspan style="font-weight:bold" x="5" y="16">MSIE 7.0:</tspan><tspan dx="0"> 7.3%</tspan></text></g><g  style="" transform="translate(422,262)"><text x="5"  style="font-size:11px;font-weight:bold;color:#000000;text-shadow:0 0 6px contrast, 0 0 3px contrast;fill:#000000;" y="16"><tspan style="font-weight:bold" x="5" y="16" stroke="#FFF" stroke-opacity="0.3" stroke-width="3px" stroke-linejoin="round">MSIE 8.0:</tspan><tspan dx="0" stroke="#FFF" stroke-opacity="0.3" stroke-width="3px" stroke-linejoin="round"> 33.0%</tspan><tspan style="font-weight:bold" x="5" y="16" stroke="#FFF" stroke-opacity="0.1" stroke-width="6px" stroke-linejoin="round">MSIE 8.0:</tspan><tspan dx="0" stroke="#FFF" stroke-opacity="0.1" stroke-width="6px" stroke-linejoin="round"> 33.0%</tspan><tspan style="font-weight:bold" x="5" y="16">MSIE 8.0:</tspan><tspan dx="0"> 33.0%</tspan></text></g><g  style="" transform="translate(136,311)"><text x="5"  style="font-size:11px;font-weight:bold;color:#000000;text-shadow:0 0 6px contrast, 0 0 3px contrast;fill:#000000;" y="16"><tspan style="font-weight:bold" x="5" y="16" stroke="#FFF" stroke-opacity="0.3" stroke-width="3px" stroke-linejoin="round">MSIE 9.0:</tspan><tspan dx="0" stroke="#FFF" stroke-opacity="0.3" stroke-width="3px" stroke-linejoin="round"> 2.8%</tspan><tspan style="font-weight:bold" x="5" y="16" stroke="#FFF" stroke-opacity="0.1" stroke-width="6px" stroke-linejoin="round">MSIE 9.0:</tspan><tspan dx="0" stroke="#FFF" stroke-opacity="0.1" stroke-width="6px" stroke-linejoin="round"> 2.8%</tspan><tspan style="font-weight:bold" x="5" y="16">MSIE 9.0:</tspan><tspan dx="0"> 2.8%</tspan></text></g><g  style="" transform="translate(65,276)"><text x="5"  style="font-size:11px;font-weight:bold;color:#000000;text-shadow:0 0 6px contrast, 0 0 3px contrast;fill:#000000;" y="16"><tspan style="font-weight:bold" x="5" y="16" stroke="#FFF" stroke-opacity="0.3" stroke-width="3px" stroke-linejoin="round">Firefox 3.5:</tspan><tspan dx="0" stroke="#FFF" stroke-opacity="0.3" stroke-width="3px" stroke-linejoin="round"> 1.5%</tspan><tspan style="font-weight:bold" x="5" y="16" stroke="#FFF" stroke-opacity="0.1" stroke-width="6px" stroke-linejoin="round">Firefox 3.5:</tspan><tspan dx="0" stroke="#FFF" stroke-opacity="0.1" stroke-width="6px" stroke-linejoin="round"> 1.5%</tspan><tspan style="font-weight:bold" x="5" y="16">Firefox 3.5:</tspan><tspan dx="0"> 1.5%</tspan></text></g><g  style="" transform="translate(32,246)"><text x="5"  style="font-size:11px;font-weight:bold;color:#000000;text-shadow:0 0 6px contrast, 0 0 3px contrast;fill:#000000;" y="16"><tspan style="font-weight:bold" x="5" y="16" stroke="#FFF" stroke-opacity="0.3" stroke-width="3px" stroke-linejoin="round">Firefox 3.6:</tspan><tspan dx="0" stroke="#FFF" stroke-opacity="0.3" stroke-width="3px" stroke-linejoin="round"> 13.1%</tspan><tspan style="font-weight:bold" x="5" y="16" stroke="#FFF" stroke-opacity="0.1" stroke-width="6px" stroke-linejoin="round">Firefox 3.6:</tspan><tspan dx="0" stroke="#FFF" stroke-opacity="0.1" stroke-width="6px" stroke-linejoin="round"> 13.1%</tspan><tspan style="font-weight:bold" x="5" y="16">Firefox 3.6:</tspan><tspan dx="0"> 13.1%</tspan></text></g><g  style="" transform="translate(14,154)"><text x="5"  style="font-size:11px;font-weight:bold;color:#000000;text-shadow:0 0 6px contrast, 0 0 3px contrast;fill:#000000;" y="16"><tspan style="font-weight:bold" x="5" y="16" stroke="#FFF" stroke-opacity="0.3" stroke-width="3px" stroke-linejoin="round">Firefox 4.0:</tspan><tspan dx="0" stroke="#FFF" stroke-opacity="0.3" stroke-width="3px" stroke-linejoin="round"> 5.4%</tspan><tspan style="font-weight:bold" x="5" y="16" stroke="#FFF" stroke-opacity="0.1" stroke-width="6px" stroke-linejoin="round">Firefox 4.0:</tspan><tspan dx="0" stroke="#FFF" stroke-opacity="0.1" stroke-width="6px" stroke-linejoin="round"> 5.4%</tspan><tspan style="font-weight:bold" x="5" y="16">Firefox 4.0:</tspan><tspan dx="0"> 5.4%</tspan></text></g><g  style="" transform="translate(30,69)"><text x="5"  style="font-size:11px;font-weight:bold;color:#000000;text-shadow:0 0 6px contrast, 0 0 3px contrast;fill:#000000;" y="16"><tspan style="font-weight:bold" x="5" y="16" stroke="#FFF" stroke-opacity="0.3" stroke-width="3px" stroke-linejoin="round">Chrome 10.0:</tspan><tspan dx="0" stroke="#FFF" stroke-opacity="0.3" stroke-width="3px" stroke-linejoin="round"> 9.9%</tspan><tspan style="font-weight:bold" x="5" y="16" stroke="#FFF" stroke-opacity="0.1" stroke-width="6px" stroke-linejoin="round">Chrome 10.0:</tspan><tspan dx="0" stroke="#FFF" stroke-opacity="0.1" stroke-width="6px" stroke-linejoin="round"> 9.9%</tspan><tspan style="font-weight:bold" x="5" y="16">Chrome 10.0:</tspan><tspan dx="0"> 9.9%</tspan></text></g><g  style="" transform="translate(67,46)"><text x="5"  style="font-size:11px;font-weight:bold;color:#000000;text-shadow:0 0 6px contrast, 0 0 3px contrast;fill:#000000;" y="16"><tspan style="font-weight:bold" x="5" y="16" stroke="#FFF" stroke-opacity="0.3" stroke-width="3px" stroke-linejoin="round">Safari 5.0:</tspan><tspan dx="0" stroke="#FFF" stroke-opacity="0.3" stroke-width="3px" stroke-linejoin="round"> 4.5%</tspan><tspan style="font-weight:bold" x="5" y="16" stroke="#FFF" stroke-opacity="0.1" stroke-width="6px" stroke-linejoin="round">Safari 5.0:</tspan><tspan dx="0" stroke="#FFF" stroke-opacity="0.1" stroke-width="6px" stroke-linejoin="round"> 4.5%</tspan><tspan style="font-weight:bold" x="5" y="16">Safari 5.0:</tspan><tspan dx="0"> 4.5%</tspan></text></g><g  style="" transform="translate(97,23)"><text x="5"  style="font-size:11px;font-weight:bold;color:#000000;text-shadow:0 0 6px contrast, 0 0 3px contrast;fill:#000000;" y="16"><tspan style="font-weight:bold" x="5" y="16" stroke="#FFF" stroke-opacity="0.3" stroke-width="3px" stroke-linejoin="round">Safari 4.0:</tspan><tspan dx="0" stroke="#FFF" stroke-opacity="0.3" stroke-width="3px" stroke-linejoin="round"> 1.4%</tspan><tspan style="font-weight:bold" x="5" y="16" stroke="#FFF" stroke-opacity="0.1" stroke-width="6px" stroke-linejoin="round">Safari 4.0:</tspan><tspan dx="0" stroke="#FFF" stroke-opacity="0.1" stroke-width="6px" stroke-linejoin="round"> 1.4%</tspan><tspan style="font-weight:bold" x="5" y="16">Safari 4.0:</tspan><tspan dx="0"> 1.4%</tspan></text></g><g  style="" transform="translate(162,0)"><text x="5"  style="font-size:11px;font-weight:bold;color:#000000;text-shadow:0 0 6px contrast, 0 0 3px contrast;fill:#000000;" y="16"><tspan style="font-weight:bold" x="5" y="16" stroke="#FFF" stroke-opacity="0.3" stroke-width="3px" stroke-linejoin="round">Opera 11.x:</tspan><tspan dx="0" stroke="#FFF" stroke-opacity="0.3" stroke-width="3px" stroke-linejoin="round"> 1.6%</tspan><tspan style="font-weight:bold" x="5" y="16" stroke="#FFF" stroke-opacity="0.1" stroke-width="6px" stroke-linejoin="round">Opera 11.x:</tspan><tspan dx="0" stroke="#FFF" stroke-opacity="0.1" stroke-width="6px" stroke-linejoin="round"> 1.6%</tspan><tspan style="font-weight:bold" x="5" y="16">Opera 11.x:</tspan><tspan dx="0"> 1.6%</tspan></text></g></g><g class="highcharts-legend" ><g ><g></g></g></g><g class="highcharts-tooltip"  style="cursor:default;padding:0;white-space:nowrap;" transform="translate(0,-9999)"><path fill="none" d="M 3 0 L 13 0 C 16 0 16 0 16 3 L 16 13 C 16 16 16 16 13 16 L 3 16 C 0 16 0 16 0 13 L 0 3 C 0 0 0 0 3 0"  stroke="black" stroke-opacity="0.0" stroke-width="5" transform="translate(1, 1)"></path><path fill="none" d="M 3 0 L 13 0 C 16 0 16 0 16 3 L 16 13 C 16 16 16 16 13 16 L 3 16 C 0 16 0 16 0 13 L 0 3 C 0 0 0 0 3 0"  stroke="black" stroke-opacity="0.0" stroke-width="3" transform="translate(1, 1)"></path><path fill="none" d="M 3 0 L 13 0 C 16 0 16 0 16 3 L 16 13 C 16 16 16 16 13 16 L 3 16 C 0 16 0 16 0 13 L 0 3 C 0 0 0 0 3 0"  stroke="black" stroke-opacity="0.1" stroke-width="1" transform="translate(1, 1)"></path><path fill="rgb(249, 249, 249)" fill-opacity=" .85" d="M 3 0 L 13 0 C 16 0 16 0 16 3 L 16 13 C 16 16 16 16 13 16 L 3 16 C 0 16 0 16 0 13 L 0 3 C 0 0 0 0 3 0"></path><text x="8"  style="font-size:12px;color:#333333;fill:#333333;" y="20"></text></g></svg>