<svg version="1.1" style="font-family:&quot;lucida grande&quot;, &quot;lucida sans unicode&quot;, arial, helvetica, sans-serif;font-size:12px;" xmlns="http://www.w3.org/2000/svg" width="584" height="400" viewBox="0 0 584 400"><desc>Created with Highcharts 4.1.0</desc><defs><clipPath id="highcharts-1"><rect x="0" y="0" width="564" height="375"></rect></clipPath></defs><rect x="0" y="0" width="584" height="400" strokeWidth="0" fill="#FFFFFF" class=" highcharts-background" stroke="transparent"></rect><g class="highcharts-series-group" ><g class="highcharts-series highcharts-tracker" visibility="visible"  transform="translate(10,10) scale(1 1)" style=""><path fill="#7cb5ec" d="M 104.5 271.3 A 177.5 177.5 0 0 1 254.0 95.9 L 268.8 188.5 A 83.7 83.7 0 0 0 198.2 271.2 Z" stroke="#FFFFFF" stroke-width="1" stroke-linejoin="round" transform="translate(0,0)"></path><path fill="#434348" d="M 254.2 95.9 A 177.5 177.5 0 0 1 394.1 133.6 L 334.9 206.3 A 83.7 83.7 0 0 0 268.8 188.5 Z" stroke="#FFFFFF" stroke-width="1" stroke-linejoin="round" transform="translate(0,0)"></path><path fill="#90ed7d" d="M 394.2 133.7 A 177.5 177.5 0 0 1 439.0 188.4 L 356.0 232.2 A 83.7 83.7 0 0 0 334.9 206.3 Z" stroke="#FFFFFF" stroke-width="1" stroke-linejoin="round" transform="translate(0,0)"></path><path fill="#f7a35c" d="M 439.1 188.6 A 177.5 177.5 0 0 1 455.2 232.8 L 363.7 253.1 A 83.7 83.7 0 0 0 356.1 232.2 Z" stroke="#FFFFFF" stroke-width="1" stroke-linejoin="round" transform="translate(0,0)"></path><path fill="#8085e9" d="M 455.3 233.0 A 177.5 177.5 0 0 1 459.4 267.1 L 365.7 269.3 A 83.7 83.7 0 0 0 363.7 253.2 Z" stroke="#FFFFFF" stroke-width="1" stroke-linejoin="round" transform="translate(0,0)"></path><path fill="#f15c80" d="M 459.4 267.3 A 177.5 177.5 0 0 1 459.4 271.0 L 365.7 271.1 A 83.7 83.7 0 0 0 365.7 269.4 Z" stroke="#FFFFFF" stroke-width="1" stroke-linejoin="round" transform="translate(0,0)"></path></g><g class="highcharts-markers" visibility="visible"  transform="translate(10,10) scale(1 1)"></g></g><text x="292" text-anchor="middle" class="highcharts-title"  style="color:#333333;font-size:18px;fill:#333333;width:520px;" y="248"><tspan>Browser</tspan><tspan x="292" dy="21">shares</tspan></text><g class="highcharts-data-labels highcharts-tracker" visibility="visible"  transform="translate(10,10) scale(1 1)" style=""><g  style="" transform="translate(163,178)"><text x="5"  style="font-size:11px;font-weight:bold;color:white;text-shadow:0px 1px 2px black;fill:white;" y="16"><tspan x="5" y="16" stroke="black" stroke-opacity="0.3" stroke-width="2px" stroke-linejoin="round">Firefox</tspan><tspan x="5" y="16">Firefox</tspan></text></g><g  style="" transform="translate(307,138)"><text x="5"  style="font-size:11px;font-weight:bold;color:white;text-shadow:0px 1px 2px black;fill:white;" y="16"><tspan x="5" y="16" stroke="black" stroke-opacity="0.3" stroke-width="2px" stroke-linejoin="round">IE</tspan><tspan x="5" y="16">IE</tspan></text></g><g  style="" transform="translate(356,181)"><text x="5"  style="font-size:11px;font-weight:bold;color:white;text-shadow:0px 1px 2px black;fill:white;" y="16"><tspan x="5" y="16" stroke="black" stroke-opacity="0.3" stroke-width="2px" stroke-linejoin="round">Chrome</tspan><tspan x="5" y="16">Chrome</tspan></text></g><g  style="" transform="translate(383,217)"><text x="5"  style="font-size:11px;font-weight:bold;color:white;text-shadow:0px 1px 2px black;fill:white;" y="16"><tspan x="5" y="16" stroke="black" stroke-opacity="0.3" stroke-width="2px" stroke-linejoin="round">Safari</tspan><tspan x="5" y="16">Safari</tspan></text></g><g  style="" transform="translate(389,246)"><text x="5"  style="font-size:11px;font-weight:bold;color:white;text-shadow:0px 1px 2px black;fill:white;" y="16"><tspan x="5" y="16" stroke="black" stroke-opacity="0.3" stroke-width="2px" stroke-linejoin="round">Opera</tspan><tspan x="5" y="16">Opera</tspan></text></g></g><g class="highcharts-legend" ><g ><g></g></g></g><g class="highcharts-tooltip"  style="cursor:default;padding:0;white-space:nowrap;" transform="translate(0,-9999)"><path fill="none" d="M 3 0 L 13 0 C 16 0 16 0 16 3 L 16 13 C 16 16 16 16 13 16 L 3 16 C 0 16 0 16 0 13 L 0 3 C 0 0 0 0 3 0"  stroke="black" stroke-opacity="0.0" stroke-width="5" transform="translate(1, 1)"></path><path fill="none" d="M 3 0 L 13 0 C 16 0 16 0 16 3 L 16 13 C 16 16 16 16 13 16 L 3 16 C 0 16 0 16 0 13 L 0 3 C 0 0 0 0 3 0"  stroke="black" stroke-opacity="0.0" stroke-width="3" transform="translate(1, 1)"></path><path fill="none" d="M 3 0 L 13 0 C 16 0 16 0 16 3 L 16 13 C 16 16 16 16 13 16 L 3 16 C 0 16 0 16 0 13 L 0 3 C 0 0 0 0 3 0"  stroke="black" stroke-opacity="0.1" stroke-width="1" transform="translate(1, 1)"></path><path fill="rgb(249, 249, 249)" fill-opacity=" .85" d="M 3 0 L 13 0 C 16 0 16 0 16 3 L 16 13 C 16 16 16 16 13 16 L 3 16 C 0 16 0 16 0 13 L 0 3 C 0 0 0 0 3 0"></path><text x="8"  style="font-size:12px;color:#333333;fill:#333333;" y="20"></text></g></svg>