<svg version="1.1" style="font-family:&quot;lucida grande&quot;, &quot;lucida sans unicode&quot;, arial, helvetica, sans-serif;font-size:12px;" xmlns="http://www.w3.org/2000/svg" width="584" height="400" viewBox="0 0 584 400"><desc>Created with Highstock 2.1.0</desc><defs><clipPath id="highcharts-1"><rect x="0" y="0" width="564" height="206"></rect></clipPath><clipPath id="highcharts-3"><rect x="-99" y="-79" width="663" height="400"></rect></clipPath><clipPath id="highcharts-4"><rect x="0" y="0" width="564" height="40"></rect></clipPath></defs><rect x="0" y="0" width="584" height="400" strokeWidth="0" fill="#FFFFFF" class=" highcharts-background"></rect><g class="highcharts-scrollbar" transform="translate(10,372)"><rect x="0" y="-0.5" fill="#eeeeee" stroke="#eeeeee" stroke-width="1" rx="0" ry="0" height="14" width="564"></rect><rect y="-0.5" height="14" fill="#bfc8d1" stroke="#bfc8d1" stroke-width="1" rx="0" ry="0" x="531.5" width="18"></rect><path fill="none" stroke="#666" stroke-width="1" visibility="visible" d="M 537 3.5 L 537 9.3 M 540 3.5 L 540 9.3 M 543 3.5 L 543 9.3"></path><g><rect x="-0.5" y="-0.5" width="14" height="14" strokeWidth="1" stroke="#bbb" stroke-width="1" fill="#ebe7e8"></rect><path fill="#666" d="M 8 4 L 8 10 5 7"></path></g><g transform="translate(550,0)"><rect x="-0.5" y="-0.5" width="14" height="14" strokeWidth="1" stroke="#bbb" stroke-width="1" fill="#ebe7e8"></rect><path fill="#666" d="M 6 4 L 6 10 9 7"></path></g></g><g class="highcharts-range-selector-buttons"><text x="10" y="59" style="color:#666;fill:#666;">Zoom</text><g class="highcharts-button"  states="[object Object]" style="cursor:pointer;text-align:center;" transform="translate(46,44)"><rect x="0" y="0" width="32" height="22" strokeWidth="0" fill="#f7f7f7" rx="0" ry="0"></rect><text x="7.5"  style="font-weight:normal;color:#444;fill:#444;" y="14">1m</text></g><g class="highcharts-button"  states="[object Object]" style="cursor:pointer;text-align:center;" transform="translate(83,44)"><rect x="0" y="0" width="32" height="22" strokeWidth="0" fill="#e7f0f9" rx="0" ry="0"></rect><text x="7.5"  style="font-weight:bold;color:black;fill:black;" y="14">3m</text></g><g class="highcharts-button"  states="[object Object]" style="cursor:pointer;text-align:center;" transform="translate(120,44)"><rect x="0" y="0" width="32" height="22" strokeWidth="0" fill="#f7f7f7" rx="0" ry="0"></rect><text x="7.5"  style="font-weight:normal;color:#444;fill:#444;" y="14">6m</text></g><g class="highcharts-button"  states="[object Object]" style="cursor:pointer;text-align:center;" transform="translate(157,44)"><rect x="0" y="0" width="32" height="22" strokeWidth="0" fill="#f7f7f7" rx="0" ry="0"></rect><text x="4"  style="font-weight:normal;color:#444;fill:#444;" y="14">YTD</text></g><g class="highcharts-button"  states="[object Object]" style="cursor:pointer;text-align:center;" transform="translate(194,44)"><rect x="0" y="0" width="32" height="22" strokeWidth="0" fill="#f7f7f7" rx="0" ry="0"></rect><text x="9.5"  style="font-weight:normal;color:#444;fill:#444;" y="14">1y</text></g><g class="highcharts-button"  states="[object Object]" style="cursor:pointer;text-align:center;" transform="translate(231,44)"><rect x="0" y="0" width="32" height="22" strokeWidth="0" fill="#f7f7f7" rx="0" ry="0"></rect><text x="10"  style="font-weight:normal;color:#444;fill:#444;" y="14">All</text></g></g><g class="highcharts-input-group" transform="translate(316,44)" visibility="visible"><g style="fill:#666;" transform="translate(0,0)"><text x="2"  style="font-size:12px;font-family:&quot;lucida grande&quot;, &quot;lucida sans unicode&quot;, arial, helvetica, sans-serif;color:#666;fill:#666;" y="14">From</text></g><g style="text-align:center;" transform="translate(36,0)"><rect x="0.5" y="0.5" width="94" height="21" strokeWidth="1" fill="none" stroke="silver" stroke-width="1"></rect><text x="13.5"  style="font-size:12px;font-family:&quot;lucida grande&quot;, &quot;lucida sans unicode&quot;, arial, helvetica, sans-serif;color:#444;fill:#444;" y="14"><tspan>Feb 9, 2013</tspan></text></g><g style="fill:#666;" transform="translate(140,0)"><text x="2"  style="font-size:12px;font-family:&quot;lucida grande&quot;, &quot;lucida sans unicode&quot;, arial, helvetica, sans-serif;color:#666;fill:#666;" y="14">To</text></g><g style="text-align:center;" transform="translate(164,0)"><rect x="0.5" y="0.5" width="94" height="21" strokeWidth="1" fill="none" stroke="silver" stroke-width="1"></rect><text x="9.5"  style="font-size:12px;font-family:&quot;lucida grande&quot;, &quot;lucida sans unicode&quot;, arial, helvetica, sans-serif;color:#444;fill:#444;" y="14"><tspan>May 10, 2013</tspan></text></g></g><g class="highcharts-grid" ></g><g class="highcharts-grid" ><path fill="none" d="M 148.5 331 L 148.5 371" stroke="#EEE" stroke-width="1"  opacity="1"></path><path fill="none" d="M 302.5 331 L 302.5 371" stroke="#EEE" stroke-width="1"  opacity="1"></path><path fill="none" d="M 455.5 331 L 455.5 371" stroke="#EEE" stroke-width="1"  opacity="1"></path></g><g class="highcharts-grid" ><path fill="none" d="M 10 285.5 L 574 285.5" stroke="#D8D8D8" stroke-width="1"  opacity="1"></path><path fill="none" d="M 10 244.5 L 574 244.5" stroke="#D8D8D8" stroke-width="1"  opacity="1"></path><path fill="none" d="M 10 203.5 L 574 203.5" stroke="#D8D8D8" stroke-width="1"  opacity="1"></path><path fill="none" d="M 10 161.5 L 574 161.5" stroke="#D8D8D8" stroke-width="1"  opacity="1"></path><path fill="none" d="M 10 120.5 L 574 120.5" stroke="#D8D8D8" stroke-width="1"  opacity="1"></path><path fill="none" d="M 10 78.5 L 574 78.5" stroke="#D8D8D8" stroke-width="1"  opacity="1"></path></g><g class="highcharts-grid" ></g><g class="highcharts-axis" ><path fill="none" d="M 82.5 285 L 82.5 295" stroke="#C0D0E0" stroke-width="1" opacity="1"></path><path fill="none" d="M 163.5 285 L 163.5 295" stroke="#C0D0E0" stroke-width="1" opacity="1"></path><path fill="none" d="M 244.5 285 L 244.5 295" stroke="#C0D0E0" stroke-width="1" opacity="1"></path><path fill="none" d="M 326.5 285 L 326.5 295" stroke="#C0D0E0" stroke-width="1" opacity="1"></path><path fill="none" d="M 407.5 285 L 407.5 295" stroke="#C0D0E0" stroke-width="1" opacity="1"></path><path fill="none" d="M 489.5 285 L 489.5 295" stroke="#C0D0E0" stroke-width="1" opacity="1"></path><path fill="none" d="M 570.5 285 L 570.5 295" stroke="#C0D0E0" stroke-width="1" opacity="1"></path><path fill="none" d="M 10 285.5 L 574 285.5" stroke="#C0D0E0" stroke-width="1"  visibility="visible"></path></g><g class="highcharts-axis" ></g><g class="highcharts-axis" ></g><g class="highcharts-axis" ></g><g class="highcharts-series-group" ><g class="highcharts-series highcharts-tracker" visibility="visible"  transform="translate(10,79) scale(1 1)" style="" clip-path="url(#highcharts-1)"><path fill="#7cb5ec" d="M 21.5 66.5 L 21.5 39.5 L 41.5 39.5 L 41.5 66.5 Z M 31.5 39.5 L 31.5 25 M 31.5 66.5 L 31.5 66" stroke="black" stroke-width="1"></path><path fill="#7cb5ec" d="M 62.5 81.5 L 62.5 64.5 L 82.5 64.5 L 82.5 81.5 Z M 72.5 64.5 L 72.5 61 M 72.5 81.5 L 72.5 94" stroke="black" stroke-width="1"></path><path fill="#7cb5ec" d="M 102.5 115.5 L 102.5 76.5 L 122.5 76.5 L 122.5 115.5 Z M 112.5 76.5 L 112.5 74 M 112.5 115.5 L 112.5 115" stroke="black" stroke-width="1"></path><path fill="white" d="M 143.5 119.5 L 143.5 113.5 L 163.5 113.5 L 163.5 119.5 Z M 153.5 113.5 L 153.5 106 M 153.5 119.5 L 153.5 133" stroke="black" stroke-width="1"></path><path fill="white" d="M 184.5 116.5 L 184.5 93.5 L 204.5 93.5 L 204.5 116.5 Z M 194.5 93.5 L 194.5 92 M 194.5 116.5 L 194.5 123" stroke="black" stroke-width="1"></path><path fill="white" d="M 224.5 96.5 L 224.5 63.5 L 244.5 63.5 L 244.5 96.5 Z M 234.5 63.5 L 234.5 62 M 234.5 96.5 L 234.5 97" stroke="black" stroke-width="1"></path><path fill="#7cb5ec" d="M 265.5 94.5 L 265.5 58.5 L 285.5 58.5 L 285.5 94.5 Z M 275.5 58.5 L 275.5 50 M 275.5 94.5 L 275.5 96" stroke="black" stroke-width="1"></path><path fill="#7cb5ec" d="M 306.5 127.5 L 306.5 96.5 L 326.5 96.5 L 326.5 127.5 Z M 316.5 96.5 L 316.5 93 M 316.5 127.5 L 316.5 132" stroke="black" stroke-width="1"></path><path fill="white" d="M 347.5 124.5 L 347.5 116.5 L 367.5 116.5 L 367.5 124.5 Z M 357.5 116.5 L 357.5 102 M 357.5 124.5 L 357.5 128" stroke="black" stroke-width="1"></path><path fill="#7cb5ec" d="M 387.5 180.5 L 387.5 120.5 L 407.5 120.5 L 407.5 180.5 Z M 397.5 120.5 L 397.5 119 M 397.5 180.5 L 397.5 189" stroke="black" stroke-width="1"></path><path fill="white" d="M 428.5 177.5 L 428.5 136.5 L 448.5 136.5 L 448.5 177.5 Z M 438.5 136.5 L 438.5 134 M 438.5 177.5 L 438.5 179" stroke="black" stroke-width="1"></path><path fill="white" d="M 469.5 131.5 L 469.5 82.5 L 489.5 82.5 L 489.5 131.5 Z M 479.5 82.5 L 479.5 77 M 479.5 131.5 L 479.5 132" stroke="black" stroke-width="1"></path><path fill="#7cb5ec" d="M 509.5 78.5 L 509.5 73.5 L 529.5 73.5 L 529.5 78.5 Z M 519.5 73.5 L 519.5 56 M 519.5 78.5 L 519.5 82" stroke="black" stroke-width="1"></path></g><g class="highcharts-markers" visibility="visible"  transform="translate(10,79) scale(1 1)" clip-path="none"></g><g class="highcharts-series" visibility="visible"  transform="translate(24,331) scale(1 1)" clip-path="url(#highcharts-4)"><path fill="rgb(69,114,167)" fill-opacity="0.0" d="M 0 36.0 C 0 36.0 1.2 36.1 2.1 36.1 C 2.7 36.1 3.0 36.2 3.6 36.2 C 4.1 36.3 4.4 36.3 5.0 36.3 C 5.6 36.3 5.9 36.4 6.5 36.4 C 7.1 36.4 7.4 36.4 8.0 36.4 C 8.5 36.4 8.8 36.4 9.4 36.4 C 10.0 36.4 10.3 36.4 10.9 36.5 C 11.5 36.5 11.8 36.6 12.4 36.6 C 13.0 36.6 13.3 36.6 13.8 36.5 C 14.4 36.4 14.7 36.3 15.3 36.2 C 15.9 36.1 16.2 35.9 16.8 35.9 C 17.4 35.9 17.7 36.0 18.3 36.0 C 18.8 36.0 19.1 36.0 19.7 36.0 C 20.3 36.0 20.6 35.9 21.2 35.9 C 21.8 35.9 22.1 35.9 22.7 35.9 C 23.3 35.9 23.5 35.8 24.1 35.7 C 24.7 35.7 25.0 35.7 25.6 35.6 C 26.2 35.6 26.5 35.6 27.1 35.6 C 27.7 35.5 28.0 35.5 28.5 35.5 C 29.1 35.5 29.4 35.5 30.0 35.6 C 30.6 35.6 30.9 35.6 31.5 35.6 C 32.1 35.6 32.4 35.5 33.0 35.5 C 33.5 35.4 33.8 35.2 34.4 35.2 C 35.0 35.2 35.3 35.3 35.9 35.3 C 36.5 35.3 36.8 35.3 37.4 35.2 C 38.0 35.2 38.2 35.1 38.8 35.0 C 39.4 35.0 39.7 35.0 40.3 34.9 C 40.9 34.8 41.2 34.7 41.8 34.7 C 42.4 34.7 42.7 34.7 43.2 34.7 C 43.8 34.8 44.1 34.8 44.7 34.8 C 45.3 34.9 45.6 34.9 46.2 35.0 C 46.8 35.1 47.1 35.2 47.7 35.2 C 48.2 35.2 48.5 35.1 49.1 35.0 C 49.7 34.9 50.0 34.8 50.6 34.7 C 51.2 34.6 51.5 34.6 52.1 34.6 C 52.7 34.6 53.0 34.8 53.5 34.9 C 54.1 35.0 54.4 35.0 55.0 35.0 C 55.6 35.0 55.9 35.0 56.5 35.0 C 57.1 35.0 57.4 35.0 57.9 35.0 C 58.5 35.0 58.8 34.9 59.4 34.9 C 60.0 34.9 60.3 35.0 60.9 35.0 C 61.5 35.0 61.8 34.9 62.4 34.9 C 62.9 34.8 63.2 34.9 63.8 34.8 C 64.4 34.8 64.7 34.7 65.3 34.7 C 65.9 34.6 66.2 34.5 66.8 34.5 C 67.4 34.5 67.7 34.5 68.2 34.5 C 68.8 34.6 69.1 34.6 69.7 34.6 C 70.3 34.6 70.6 34.7 71.2 34.7 C 71.8 34.7 72.1 34.6 72.7 34.5 C 73.2 34.4 73.5 34.3 74.1 34.2 C 74.7 34.1 75.0 34.1 75.6 34.0 C 76.2 33.9 76.5 33.9 77.1 33.8 C 77.7 33.7 77.9 33.7 78.5 33.6 C 79.1 33.5 79.4 33.5 80.0 33.3 C 80.6 33.2 80.9 33.1 81.5 33.1 C 82.1 33.1 82.4 33.2 82.9 33.2 C 83.5 33.2 83.8 33.0 84.4 33.0 C 85.0 33.0 85.3 33.1 85.9 33.1 C 86.5 33.1 86.8 33.0 87.4 32.9 C 87.9 32.8 88.2 32.7 88.8 32.6 C 89.4 32.4 89.7 32.3 90.3 32.2 C 90.9 32.1 91.2 32.1 91.8 32.1 C 92.4 32.1 92.6 32.1 93.2 32.3 C 93.8 32.4 94.1 32.5 94.7 32.6 C 95.3 32.8 95.6 33.0 96.2 33.0 C 96.8 33.0 97.1 32.9 97.6 32.8 C 98.2 32.7 98.5 32.6 99.1 32.5 C 99.7 32.4 100.0 32.3 100.6 32.3 C 101.2 32.3 101.5 32.3 102.1 32.3 C 102.6 32.3 102.9 32.3 103.5 32.2 C 104.1 32.0 104.4 31.8 105.0 31.6 C 105.6 31.4 105.9 31.5 106.5 31.3 C 107.1 31.1 107.3 30.9 107.9 30.8 C 108.5 30.7 108.8 30.8 109.4 30.6 C 110.0 30.4 110.3 30.1 110.9 30.0 C 111.5 29.8 111.8 29.7 112.3 29.7 C 112.9 29.7 113.2 29.7 113.8 29.9 C 114.4 30.1 114.7 30.8 115.3 30.8 C 115.9 30.8 116.2 30.8 116.8 30.8 C 117.3 30.8 117.6 30.4 118.2 30.2 C 118.8 30.0 119.1 30.1 119.7 29.9 C 120.3 29.8 120.6 29.5 121.2 29.5 C 121.8 29.5 122.1 29.8 122.6 29.8 C 123.2 29.8 123.5 29.2 124.1 29.2 C 124.7 29.2 125.0 29.2 125.6 29.3 C 126.2 29.4 126.5 30.0 127.0 30.3 C 127.6 30.5 127.9 30.3 128.5 30.7 C 129.1 31.1 129.4 31.8 130.0 32.1 C 130.6 32.5 130.9 32.5 131.5 32.6 C 132.0 32.8 132.3 32.8 132.9 32.8 C 133.5 32.8 133.8 32.8 134.4 32.8 C 135.0 32.8 135.3 32.9 135.9 33.0 C 136.5 33.1 136.8 33.1 137.3 33.1 C 137.9 33.1 138.2 33.1 138.8 33.1 C 139.4 33.0 139.7 33.0 140.3 32.9 C 140.9 32.9 141.2 32.9 141.8 32.8 C 142.3 32.6 142.6 32.4 143.2 32.2 C 143.8 32.0 144.1 31.9 144.7 31.8 C 145.3 31.7 145.6 31.5 146.2 31.5 C 146.8 31.5 147.0 31.6 147.6 31.6 C 148.2 31.6 148.5 31.1 149.1 30.8 C 149.7 30.6 150.0 30.6 150.6 30.4 C 151.2 30.2 151.5 30.1 152.0 29.9 C 152.6 29.8 152.9 29.7 153.5 29.7 C 154.1 29.7 154.4 30.0 155.0 30.0 C 155.6 30.0 155.9 29.8 156.5 29.8 C 157.0 29.8 157.3 29.8 157.9 29.8 C 158.5 29.8 158.8 30.0 159.4 30.1 C 160.0 30.2 160.3 30.2 160.9 30.2 C 161.5 30.3 161.7 30.4 162.3 30.5 C 162.9 30.6 163.2 30.6 163.8 30.6 C 164.4 30.6 164.7 30.3 165.3 30.3 C 165.9 30.3 166.2 30.3 166.7 30.5 C 167.3 30.6 167.6 31.0 168.2 31.1 C 168.8 31.2 169.1 31.2 169.7 31.2 C 170.3 31.2 170.6 31.2 171.2 31.2 C 171.7 31.1 172.0 30.3 172.6 30.3 C 173.2 30.3 173.5 30.4 174.1 30.4 C 174.7 30.4 175.0 30.4 175.6 30.4 C 176.2 30.5 176.4 30.6 177.0 30.8 C 177.6 31.0 177.9 31.1 178.5 31.4 C 179.1 31.7 179.4 32.1 180.0 32.3 C 180.6 32.6 180.9 32.4 181.4 32.7 C 182.0 32.9 182.3 33.3 182.9 33.7 C 183.5 34.1 183.8 34.7 184.4 34.7 C 185.0 34.7 185.3 34.0 185.9 34.0 C 186.4 34.0 186.7 34.4 187.3 34.4 C 187.9 34.4 188.2 34.3 188.8 34.2 C 189.4 34.1 189.7 34.0 190.3 34.0 C 190.9 34.0 191.2 34.4 191.7 34.5 C 192.3 34.7 192.6 34.9 193.2 34.9 C 193.8 34.9 194.1 34.7 194.7 34.7 C 195.3 34.7 195.6 34.7 196.1 34.7 C 196.7 34.7 197.0 34.4 197.6 34.4 C 198.2 34.4 198.5 34.6 199.1 34.7 C 199.7 34.8 200.0 34.8 200.6 34.9 C 201.1 34.9 201.4 34.9 202.0 34.9 C 202.6 34.9 202.9 34.6 203.5 34.6 C 204.1 34.6 204.4 34.9 205.0 35.0 C 205.6 35.1 205.9 35.1 206.4 35.1 C 207.0 35.1 207.3 34.8 207.9 34.7 C 208.5 34.6 208.8 34.7 209.4 34.6 C 210.0 34.5 210.3 34.3 210.9 34.3 C 211.4 34.3 211.7 34.5 212.3 34.6 C 212.9 34.7 213.2 34.7 213.8 34.8 C 214.4 34.8 214.7 34.8 215.3 34.8 C 215.9 34.8 216.1 34.8 216.7 34.8 C 217.3 34.8 217.6 34.5 218.2 34.3 C 218.8 34.1 219.1 34.0 219.7 33.9 C 220.3 33.9 220.6 33.9 221.1 33.9 C 221.7 33.8 222.0 33.5 222.6 33.4 C 223.2 33.3 223.5 33.3 224.1 33.2 C 224.7 33.2 225.0 33.1 225.6 33.1 C 226.1 33.0 226.4 33.1 227.0 33.0 C 227.6 32.9 227.9 32.7 228.5 32.7 C 229.1 32.7 229.4 33.0 230.0 33.0 C 230.6 33.0 230.8 33.0 231.4 32.9 C 232.0 32.9 232.3 32.8 232.9 32.6 C 233.5 32.5 233.8 32.3 234.4 32.2 C 235.0 32.1 235.3 32.1 235.8 32.1 C 236.4 32.1 236.7 32.4 237.3 32.4 C 237.9 32.4 238.2 32.4 238.8 32.3 C 239.4 32.3 239.7 32.0 240.3 32.0 C 240.8 32.0 241.1 32.3 241.7 32.3 C 242.3 32.3 242.6 32.2 243.2 32.0 C 243.8 31.8 244.1 31.5 244.7 31.4 C 245.3 31.2 245.5 31.2 246.1 31.1 C 246.7 31.0 247.0 30.9 247.6 30.9 C 248.2 30.9 248.5 30.9 249.1 30.9 C 249.7 30.9 250.0 30.9 250.5 30.9 C 251.1 30.9 251.4 30.6 252.0 30.6 C 252.6 30.6 252.9 30.8 253.5 30.8 C 254.1 30.8 254.4 30.6 255.0 30.5 C 255.5 30.4 255.8 30.3 256.4 30.2 C 257.0 30.1 257.3 29.9 257.9 29.9 C 258.5 29.9 258.8 29.9 259.4 29.9 C 260.0 29.9 260.3 29.7 260.8 29.7 C 261.4 29.6 261.7 29.7 262.3 29.6 C 262.9 29.5 263.2 29.1 263.8 29.1 C 264.4 29.1 264.7 29.1 265.3 29.2 C 265.8 29.2 266.1 29.6 266.7 29.6 C 267.3 29.6 267.6 29.1 268.2 29.0 C 268.8 28.9 269.1 28.9 269.7 28.9 C 270.2 28.9 270.5 28.9 271.1 28.9 C 271.7 29.0 272.0 29.0 272.6 29.1 C 273.2 29.2 273.5 29.4 274.1 29.4 C 274.7 29.4 275.0 29.4 275.5 29.4 C 276.1 29.3 276.4 29.3 277.0 29.1 C 277.6 28.9 277.9 28.6 278.5 28.5 C 279.1 28.4 279.4 28.4 280.0 28.4 C 280.5 28.4 280.8 28.6 281.4 28.6 C 282.0 28.6 282.3 28.5 282.9 28.5 C 283.5 28.5 283.8 28.7 284.4 28.9 C 285.0 29.0 285.2 29.4 285.8 29.4 C 286.4 29.4 286.7 29.4 287.3 29.3 C 287.9 29.2 288.2 29.0 288.8 29.0 C 289.4 29.0 289.7 29.1 290.2 29.1 C 290.8 29.1 291.1 28.8 291.7 28.6 C 292.3 28.4 292.6 28.0 293.2 27.9 C 293.8 27.8 294.1 27.9 294.7 27.8 C 295.2 27.8 295.5 27.8 296.1 27.7 C 296.7 27.6 297.0 27.4 297.6 27.3 C 298.2 27.1 298.5 27.2 299.1 27.1 C 299.7 27.0 299.9 27.0 300.5 26.8 C 301.1 26.6 301.4 26.4 302.0 26.2 C 302.6 26.0 302.9 25.6 303.5 25.6 C 304.1 25.6 304.4 26.2 304.9 26.2 C 305.5 26.2 305.8 26.2 306.4 26.2 C 307.0 26.2 307.3 26.7 307.9 26.7 C 308.5 26.7 308.8 26.7 309.4 26.5 C 309.9 26.4 310.2 25.9 310.8 25.9 C 311.4 25.9 311.7 26.4 312.3 26.4 C 312.9 26.4 313.2 26.1 313.8 25.8 C 314.4 25.6 314.6 25.3 315.2 25.3 C 315.8 25.3 316.1 25.9 316.7 26.1 C 317.3 26.2 317.6 26.2 318.2 26.2 C 318.8 26.3 319.1 26.3 319.6 26.3 C 320.2 26.3 320.5 26.3 321.1 26.3 C 321.7 26.2 322.0 26.0 322.6 26.0 C 323.2 25.9 323.5 25.9 324.1 25.9 C 324.6 25.9 324.9 26.1 325.5 26.3 C 326.1 26.4 326.4 26.4 327.0 26.5 C 327.6 26.6 327.9 26.8 328.5 26.8 C 329.1 26.8 329.4 26.8 329.9 26.7 C 330.5 26.5 330.8 26.2 331.4 25.9 C 332.0 25.7 332.3 25.7 332.9 25.5 C 333.5 25.3 333.8 25.0 334.4 24.7 C 334.9 24.5 335.2 24.5 335.8 24.5 C 336.4 24.5 336.7 24.6 337.3 24.6 C 337.9 24.6 338.2 24.2 338.8 23.9 C 339.3 23.7 339.6 23.4 340.2 23.4 C 340.8 23.4 341.1 23.6 341.7 23.6 C 342.3 23.6 342.6 23.5 343.2 23.4 C 343.8 23.3 344.1 23.0 344.6 23.0 C 345.2 23.0 345.5 23.6 346.1 23.6 C 346.7 23.6 347.0 23.5 347.6 23.4 C 348.2 23.3 348.5 23.2 349.1 23.1 C 349.6 23.0 349.9 22.9 350.5 22.9 C 351.1 22.8 351.4 22.8 352.0 22.8 C 352.6 22.8 352.9 22.7 353.5 22.7 C 354.1 22.7 354.3 22.7 354.9 22.7 C 355.5 22.6 355.8 22.5 356.4 22.3 C 357.0 22.1 357.3 21.7 357.9 21.7 C 358.5 21.7 358.8 22.0 359.3 22.0 C 359.9 22.0 360.2 22.0 360.8 21.9 C 361.4 21.9 361.7 21.9 362.3 21.8 C 362.9 21.6 363.2 21.3 363.8 21.2 C 364.3 21.0 364.6 20.9 365.2 20.9 C 365.8 20.9 366.1 21.7 366.7 21.7 C 367.3 21.7 367.6 21.1 368.2 21.1 C 368.8 21.1 369.0 21.1 369.6 21.2 C 370.2 21.3 370.5 21.7 371.1 21.8 C 371.7 21.8 372.0 21.8 372.6 21.8 C 373.2 21.8 373.5 21.4 374.0 21.4 C 374.6 21.4 374.9 21.7 375.5 21.9 C 376.1 22.0 376.4 22.2 377.0 22.2 C 377.6 22.2 377.9 22.1 378.5 21.9 C 379.0 21.7 379.3 21.4 379.9 21.4 C 380.5 21.4 380.8 21.4 381.4 21.4 C 382.0 21.4 382.3 21.4 382.9 21.5 C 383.5 21.5 383.7 21.8 384.3 22.0 C 384.9 22.1 385.2 22.2 385.8 22.2 C 386.4 22.2 386.7 21.6 387.3 21.6 C 387.9 21.6 388.2 21.9 388.7 22.1 C 389.3 22.2 389.6 22.3 390.2 22.5 C 390.8 22.6 391.1 22.8 391.7 22.8 C 392.3 22.8 392.6 22.5 393.2 22.2 C 393.7 21.9 394.0 21.6 394.6 21.4 C 395.2 21.1 395.5 21.3 396.1 20.9 C 396.7 20.6 397.0 20.0 397.6 19.7 C 398.2 19.3 398.5 19.1 399.0 19.1 C 399.6 19.1 399.9 19.1 400.5 19.3 C 401.1 19.4 401.4 20.4 402.0 20.4 C 402.6 20.4 402.9 20.0 403.5 20.0 C 404.0 20.0 404.3 20.5 404.9 20.5 C 405.5 20.5 405.8 19.5 406.4 19.5 C 407.0 19.5 407.3 19.8 407.9 19.8 C 408.4 19.8 408.7 19.8 409.3 19.5 C 409.9 19.2 410.2 18.4 410.8 18.4 C 411.4 18.4 411.7 18.5 412.3 18.8 C 412.9 19.1 413.2 20.1 413.7 20.1 C 414.3 20.1 414.6 19.1 415.2 18.8 C 415.8 18.4 416.1 18.3 416.7 18.3 C 417.3 18.3 417.6 18.5 418.2 18.6 C 418.7 18.7 419.0 18.7 419.6 18.8 C 420.2 18.8 420.5 18.8 421.1 18.9 C 421.7 19.1 422.0 19.4 422.6 19.6 C 423.2 19.9 423.4 20.3 424.0 20.3 C 424.6 20.3 424.9 20.0 425.5 19.8 C 426.1 19.6 426.4 19.2 427.0 19.2 C 427.6 19.2 427.9 19.4 428.4 19.4 C 429.0 19.4 429.3 19.3 429.9 19.1 C 430.5 19.0 430.8 18.8 431.4 18.6 C 432.0 18.3 432.3 18.3 432.9 18.1 C 433.4 17.9 433.7 17.7 434.3 17.6 C 434.9 17.4 435.2 17.5 435.8 17.4 C 436.4 17.2 436.7 17.0 437.3 16.8 C 437.9 16.5 438.1 16.3 438.7 16.0 C 439.3 15.6 439.6 15.5 440.2 15.0 C 440.8 14.5 441.1 13.9 441.7 13.5 C 442.3 13.1 442.6 13.3 443.1 12.9 C 443.7 12.6 444.0 11.7 444.6 11.7 C 445.2 11.7 445.5 11.7 446.1 11.7 C 446.7 11.7 447.0 10.5 447.6 9.8 C 448.1 9.2 448.4 8.8 449.0 8.5 C 449.6 8.1 449.9 8.2 450.5 8.0 C 451.1 7.8 451.4 7.6 452.0 7.4 C 452.6 7.2 452.9 6.9 453.4 6.9 C 454.0 6.9 454.3 8.2 454.9 8.5 C 455.5 8.8 455.8 8.6 456.4 8.8 C 457.0 8.9 457.3 8.9 457.8 9.2 C 458.4 9.4 458.7 9.8 459.3 10.2 C 459.9 10.5 460.2 11.0 460.8 11.0 C 461.4 11.0 461.7 10.7 462.3 10.5 C 462.8 10.3 463.1 9.9 463.7 9.9 C 464.3 9.9 464.6 10.1 465.2 10.1 C 465.8 10.1 466.1 9.8 466.7 9.7 C 467.3 9.6 467.6 9.4 468.1 9.4 C 468.7 9.4 469.0 9.8 469.6 9.8 C 470.2 9.8 470.5 8.9 471.1 8.6 C 471.7 8.3 472.0 8.2 472.6 8.1 C 473.1 8.0 473.4 8.0 474.0 8.0 C 474.6 8.0 474.9 9.2 475.5 9.2 C 476.1 9.2 476.4 8.5 477.0 8.2 C 477.5 7.8 477.8 7.7 478.4 7.5 C 479.0 7.2 479.3 7.2 479.9 6.8 C 480.5 6.4 480.8 5.8 481.4 5.3 C 482.0 4.9 482.3 4.7 482.8 4.7 C 483.4 4.7 483.7 4.7 484.3 4.7 C 484.9 4.7 485.2 4.7 485.8 4.5 C 486.4 4.4 486.7 3.3 487.3 3.3 C 487.8 3.3 488.1 4.1 488.7 4.5 C 489.3 4.8 489.6 4.6 490.2 5.0 C 490.8 5.4 491.1 6.2 491.7 6.4 C 492.3 6.5 492.5 6.4 493.1 6.5 C 493.7 6.7 494.0 7.1 494.6 7.5 C 495.2 7.9 495.5 8.1 496.1 8.6 C 496.7 9.1 497.0 9.4 497.5 10.0 C 498.1 10.6 498.4 11.5 499.0 11.5 C 499.6 11.5 499.9 10.9 500.5 10.5 C 501.1 10.0 501.4 9.3 502.0 9.3 C 502.5 9.3 502.8 9.7 503.4 10.2 C 504.0 10.8 504.3 11.5 504.9 12.0 C 505.5 12.4 505.8 12.3 506.4 12.5 C 507.0 12.7 507.2 12.8 507.8 12.8 C 508.4 12.8 508.7 11.7 509.3 11.7 C 509.9 11.7 510.2 12.0 510.8 12.3 C 511.4 12.7 511.7 13.1 512.2 13.6 C 512.8 14.0 513.1 14.1 513.7 14.6 C 514.3 15.1 514.6 16.0 515.2 16.0 C 515.8 16.0 516.1 15.9 516.7 15.8 C 517.2 15.6 517.5 15.1 518.1 15.1 C 518.7 15.1 519.0 15.7 519.6 16.0 C 520.2 16.3 520.5 16.2 521.1 16.4 C 521.7 16.7 522.0 17.3 522.5 17.3 C 523.1 17.3 523.4 17.3 524.0 17.1 C 524.6 16.8 524.9 16.3 525.5 16.1 C 526.1 15.8 526.4 15.7 526.9 15.7 C 527.5 15.7 527.8 17.0 528.4 17.1 C 529.0 17.3 529.3 17.1 529.9 17.3 C 530.5 17.4 530.8 17.9 531.4 18.1 C 531.9 18.4 532.2 18.7 532.8 18.7 C 533.4 18.7 533.7 17.3 534.3 16.8 C 535.0 16.2 536 15.7 536 15.7 L 536 40 L 0 40" ></path><path fill="none" d="M 0 36.0 C 0 36.0 1.2 36.1 2.1 36.1 C 2.7 36.1 3.0 36.2 3.6 36.2 C 4.1 36.3 4.4 36.3 5.0 36.3 C 5.6 36.3 5.9 36.4 6.5 36.4 C 7.1 36.4 7.4 36.4 8.0 36.4 C 8.5 36.4 8.8 36.4 9.4 36.4 C 10.0 36.4 10.3 36.4 10.9 36.5 C 11.5 36.5 11.8 36.6 12.4 36.6 C 13.0 36.6 13.3 36.6 13.8 36.5 C 14.4 36.4 14.7 36.3 15.3 36.2 C 15.9 36.1 16.2 35.9 16.8 35.9 C 17.4 35.9 17.7 36.0 18.3 36.0 C 18.8 36.0 19.1 36.0 19.7 36.0 C 20.3 36.0 20.6 35.9 21.2 35.9 C 21.8 35.9 22.1 35.9 22.7 35.9 C 23.3 35.9 23.5 35.8 24.1 35.7 C 24.7 35.7 25.0 35.7 25.6 35.6 C 26.2 35.6 26.5 35.6 27.1 35.6 C 27.7 35.5 28.0 35.5 28.5 35.5 C 29.1 35.5 29.4 35.5 30.0 35.6 C 30.6 35.6 30.9 35.6 31.5 35.6 C 32.1 35.6 32.4 35.5 33.0 35.5 C 33.5 35.4 33.8 35.2 34.4 35.2 C 35.0 35.2 35.3 35.3 35.9 35.3 C 36.5 35.3 36.8 35.3 37.4 35.2 C 38.0 35.2 38.2 35.1 38.8 35.0 C 39.4 35.0 39.7 35.0 40.3 34.9 C 40.9 34.8 41.2 34.7 41.8 34.7 C 42.4 34.7 42.7 34.7 43.2 34.7 C 43.8 34.8 44.1 34.8 44.7 34.8 C 45.3 34.9 45.6 34.9 46.2 35.0 C 46.8 35.1 47.1 35.2 47.7 35.2 C 48.2 35.2 48.5 35.1 49.1 35.0 C 49.7 34.9 50.0 34.8 50.6 34.7 C 51.2 34.6 51.5 34.6 52.1 34.6 C 52.7 34.6 53.0 34.8 53.5 34.9 C 54.1 35.0 54.4 35.0 55.0 35.0 C 55.6 35.0 55.9 35.0 56.5 35.0 C 57.1 35.0 57.4 35.0 57.9 35.0 C 58.5 35.0 58.8 34.9 59.4 34.9 C 60.0 34.9 60.3 35.0 60.9 35.0 C 61.5 35.0 61.8 34.9 62.4 34.9 C 62.9 34.8 63.2 34.9 63.8 34.8 C 64.4 34.8 64.7 34.7 65.3 34.7 C 65.9 34.6 66.2 34.5 66.8 34.5 C 67.4 34.5 67.7 34.5 68.2 34.5 C 68.8 34.6 69.1 34.6 69.7 34.6 C 70.3 34.6 70.6 34.7 71.2 34.7 C 71.8 34.7 72.1 34.6 72.7 34.5 C 73.2 34.4 73.5 34.3 74.1 34.2 C 74.7 34.1 75.0 34.1 75.6 34.0 C 76.2 33.9 76.5 33.9 77.1 33.8 C 77.7 33.7 77.9 33.7 78.5 33.6 C 79.1 33.5 79.4 33.5 80.0 33.3 C 80.6 33.2 80.9 33.1 81.5 33.1 C 82.1 33.1 82.4 33.2 82.9 33.2 C 83.5 33.2 83.8 33.0 84.4 33.0 C 85.0 33.0 85.3 33.1 85.9 33.1 C 86.5 33.1 86.8 33.0 87.4 32.9 C 87.9 32.8 88.2 32.7 88.8 32.6 C 89.4 32.4 89.7 32.3 90.3 32.2 C 90.9 32.1 91.2 32.1 91.8 32.1 C 92.4 32.1 92.6 32.1 93.2 32.3 C 93.8 32.4 94.1 32.5 94.7 32.6 C 95.3 32.8 95.6 33.0 96.2 33.0 C 96.8 33.0 97.1 32.9 97.6 32.8 C 98.2 32.7 98.5 32.6 99.1 32.5 C 99.7 32.4 100.0 32.3 100.6 32.3 C 101.2 32.3 101.5 32.3 102.1 32.3 C 102.6 32.3 102.9 32.3 103.5 32.2 C 104.1 32.0 104.4 31.8 105.0 31.6 C 105.6 31.4 105.9 31.5 106.5 31.3 C 107.1 31.1 107.3 30.9 107.9 30.8 C 108.5 30.7 108.8 30.8 109.4 30.6 C 110.0 30.4 110.3 30.1 110.9 30.0 C 111.5 29.8 111.8 29.7 112.3 29.7 C 112.9 29.7 113.2 29.7 113.8 29.9 C 114.4 30.1 114.7 30.8 115.3 30.8 C 115.9 30.8 116.2 30.8 116.8 30.8 C 117.3 30.8 117.6 30.4 118.2 30.2 C 118.8 30.0 119.1 30.1 119.7 29.9 C 120.3 29.8 120.6 29.5 121.2 29.5 C 121.8 29.5 122.1 29.8 122.6 29.8 C 123.2 29.8 123.5 29.2 124.1 29.2 C 124.7 29.2 125.0 29.2 125.6 29.3 C 126.2 29.4 126.5 30.0 127.0 30.3 C 127.6 30.5 127.9 30.3 128.5 30.7 C 129.1 31.1 129.4 31.8 130.0 32.1 C 130.6 32.5 130.9 32.5 131.5 32.6 C 132.0 32.8 132.3 32.8 132.9 32.8 C 133.5 32.8 133.8 32.8 134.4 32.8 C 135.0 32.8 135.3 32.9 135.9 33.0 C 136.5 33.1 136.8 33.1 137.3 33.1 C 137.9 33.1 138.2 33.1 138.8 33.1 C 139.4 33.0 139.7 33.0 140.3 32.9 C 140.9 32.9 141.2 32.9 141.8 32.8 C 142.3 32.6 142.6 32.4 143.2 32.2 C 143.8 32.0 144.1 31.9 144.7 31.8 C 145.3 31.7 145.6 31.5 146.2 31.5 C 146.8 31.5 147.0 31.6 147.6 31.6 C 148.2 31.6 148.5 31.1 149.1 30.8 C 149.7 30.6 150.0 30.6 150.6 30.4 C 151.2 30.2 151.5 30.1 152.0 29.9 C 152.6 29.8 152.9 29.7 153.5 29.7 C 154.1 29.7 154.4 30.0 155.0 30.0 C 155.6 30.0 155.9 29.8 156.5 29.8 C 157.0 29.8 157.3 29.8 157.9 29.8 C 158.5 29.8 158.8 30.0 159.4 30.1 C 160.0 30.2 160.3 30.2 160.9 30.2 C 161.5 30.3 161.7 30.4 162.3 30.5 C 162.9 30.6 163.2 30.6 163.8 30.6 C 164.4 30.6 164.7 30.3 165.3 30.3 C 165.9 30.3 166.2 30.3 166.7 30.5 C 167.3 30.6 167.6 31.0 168.2 31.1 C 168.8 31.2 169.1 31.2 169.7 31.2 C 170.3 31.2 170.6 31.2 171.2 31.2 C 171.7 31.1 172.0 30.3 172.6 30.3 C 173.2 30.3 173.5 30.4 174.1 30.4 C 174.7 30.4 175.0 30.4 175.6 30.4 C 176.2 30.5 176.4 30.6 177.0 30.8 C 177.6 31.0 177.9 31.1 178.5 31.4 C 179.1 31.7 179.4 32.1 180.0 32.3 C 180.6 32.6 180.9 32.4 181.4 32.7 C 182.0 32.9 182.3 33.3 182.9 33.7 C 183.5 34.1 183.8 34.7 184.4 34.7 C 185.0 34.7 185.3 34.0 185.9 34.0 C 186.4 34.0 186.7 34.4 187.3 34.4 C 187.9 34.4 188.2 34.3 188.8 34.2 C 189.4 34.1 189.7 34.0 190.3 34.0 C 190.9 34.0 191.2 34.4 191.7 34.5 C 192.3 34.7 192.6 34.9 193.2 34.9 C 193.8 34.9 194.1 34.7 194.7 34.7 C 195.3 34.7 195.6 34.7 196.1 34.7 C 196.7 34.7 197.0 34.4 197.6 34.4 C 198.2 34.4 198.5 34.6 199.1 34.7 C 199.7 34.8 200.0 34.8 200.6 34.9 C 201.1 34.9 201.4 34.9 202.0 34.9 C 202.6 34.9 202.9 34.6 203.5 34.6 C 204.1 34.6 204.4 34.9 205.0 35.0 C 205.6 35.1 205.9 35.1 206.4 35.1 C 207.0 35.1 207.3 34.8 207.9 34.7 C 208.5 34.6 208.8 34.7 209.4 34.6 C 210.0 34.5 210.3 34.3 210.9 34.3 C 211.4 34.3 211.7 34.5 212.3 34.6 C 212.9 34.7 213.2 34.7 213.8 34.8 C 214.4 34.8 214.7 34.8 215.3 34.8 C 215.9 34.8 216.1 34.8 216.7 34.8 C 217.3 34.8 217.6 34.5 218.2 34.3 C 218.8 34.1 219.1 34.0 219.7 33.9 C 220.3 33.9 220.6 33.9 221.1 33.9 C 221.7 33.8 222.0 33.5 222.6 33.4 C 223.2 33.3 223.5 33.3 224.1 33.2 C 224.7 33.2 225.0 33.1 225.6 33.1 C 226.1 33.0 226.4 33.1 227.0 33.0 C 227.6 32.9 227.9 32.7 228.5 32.7 C 229.1 32.7 229.4 33.0 230.0 33.0 C 230.6 33.0 230.8 33.0 231.4 32.9 C 232.0 32.9 232.3 32.8 232.9 32.6 C 233.5 32.5 233.8 32.3 234.4 32.2 C 235.0 32.1 235.3 32.1 235.8 32.1 C 236.4 32.1 236.7 32.4 237.3 32.4 C 237.9 32.4 238.2 32.4 238.8 32.3 C 239.4 32.3 239.7 32.0 240.3 32.0 C 240.8 32.0 241.1 32.3 241.7 32.3 C 242.3 32.3 242.6 32.2 243.2 32.0 C 243.8 31.8 244.1 31.5 244.7 31.4 C 245.3 31.2 245.5 31.2 246.1 31.1 C 246.7 31.0 247.0 30.9 247.6 30.9 C 248.2 30.9 248.5 30.9 249.1 30.9 C 249.7 30.9 250.0 30.9 250.5 30.9 C 251.1 30.9 251.4 30.6 252.0 30.6 C 252.6 30.6 252.9 30.8 253.5 30.8 C 254.1 30.8 254.4 30.6 255.0 30.5 C 255.5 30.4 255.8 30.3 256.4 30.2 C 257.0 30.1 257.3 29.9 257.9 29.9 C 258.5 29.9 258.8 29.9 259.4 29.9 C 260.0 29.9 260.3 29.7 260.8 29.7 C 261.4 29.6 261.7 29.7 262.3 29.6 C 262.9 29.5 263.2 29.1 263.8 29.1 C 264.4 29.1 264.7 29.1 265.3 29.2 C 265.8 29.2 266.1 29.6 266.7 29.6 C 267.3 29.6 267.6 29.1 268.2 29.0 C 268.8 28.9 269.1 28.9 269.7 28.9 C 270.2 28.9 270.5 28.9 271.1 28.9 C 271.7 29.0 272.0 29.0 272.6 29.1 C 273.2 29.2 273.5 29.4 274.1 29.4 C 274.7 29.4 275.0 29.4 275.5 29.4 C 276.1 29.3 276.4 29.3 277.0 29.1 C 277.6 28.9 277.9 28.6 278.5 28.5 C 279.1 28.4 279.4 28.4 280.0 28.4 C 280.5 28.4 280.8 28.6 281.4 28.6 C 282.0 28.6 282.3 28.5 282.9 28.5 C 283.5 28.5 283.8 28.7 284.4 28.9 C 285.0 29.0 285.2 29.4 285.8 29.4 C 286.4 29.4 286.7 29.4 287.3 29.3 C 287.9 29.2 288.2 29.0 288.8 29.0 C 289.4 29.0 289.7 29.1 290.2 29.1 C 290.8 29.1 291.1 28.8 291.7 28.6 C 292.3 28.4 292.6 28.0 293.2 27.9 C 293.8 27.8 294.1 27.9 294.7 27.8 C 295.2 27.8 295.5 27.8 296.1 27.7 C 296.7 27.6 297.0 27.4 297.6 27.3 C 298.2 27.1 298.5 27.2 299.1 27.1 C 299.7 27.0 299.9 27.0 300.5 26.8 C 301.1 26.6 301.4 26.4 302.0 26.2 C 302.6 26.0 302.9 25.6 303.5 25.6 C 304.1 25.6 304.4 26.2 304.9 26.2 C 305.5 26.2 305.8 26.2 306.4 26.2 C 307.0 26.2 307.3 26.7 307.9 26.7 C 308.5 26.7 308.8 26.7 309.4 26.5 C 309.9 26.4 310.2 25.9 310.8 25.9 C 311.4 25.9 311.7 26.4 312.3 26.4 C 312.9 26.4 313.2 26.1 313.8 25.8 C 314.4 25.6 314.6 25.3 315.2 25.3 C 315.8 25.3 316.1 25.9 316.7 26.1 C 317.3 26.2 317.6 26.2 318.2 26.2 C 318.8 26.3 319.1 26.3 319.6 26.3 C 320.2 26.3 320.5 26.3 321.1 26.3 C 321.7 26.2 322.0 26.0 322.6 26.0 C 323.2 25.9 323.5 25.9 324.1 25.9 C 324.6 25.9 324.9 26.1 325.5 26.3 C 326.1 26.4 326.4 26.4 327.0 26.5 C 327.6 26.6 327.9 26.8 328.5 26.8 C 329.1 26.8 329.4 26.8 329.9 26.7 C 330.5 26.5 330.8 26.2 331.4 25.9 C 332.0 25.7 332.3 25.7 332.9 25.5 C 333.5 25.3 333.8 25.0 334.4 24.7 C 334.9 24.5 335.2 24.5 335.8 24.5 C 336.4 24.5 336.7 24.6 337.3 24.6 C 337.9 24.6 338.2 24.2 338.8 23.9 C 339.3 23.7 339.6 23.4 340.2 23.4 C 340.8 23.4 341.1 23.6 341.7 23.6 C 342.3 23.6 342.6 23.5 343.2 23.4 C 343.8 23.3 344.1 23.0 344.6 23.0 C 345.2 23.0 345.5 23.6 346.1 23.6 C 346.7 23.6 347.0 23.5 347.6 23.4 C 348.2 23.3 348.5 23.2 349.1 23.1 C 349.6 23.0 349.9 22.9 350.5 22.9 C 351.1 22.8 351.4 22.8 352.0 22.8 C 352.6 22.8 352.9 22.7 353.5 22.7 C 354.1 22.7 354.3 22.7 354.9 22.7 C 355.5 22.6 355.8 22.5 356.4 22.3 C 357.0 22.1 357.3 21.7 357.9 21.7 C 358.5 21.7 358.8 22.0 359.3 22.0 C 359.9 22.0 360.2 22.0 360.8 21.9 C 361.4 21.9 361.7 21.9 362.3 21.8 C 362.9 21.6 363.2 21.3 363.8 21.2 C 364.3 21.0 364.6 20.9 365.2 20.9 C 365.8 20.9 366.1 21.7 366.7 21.7 C 367.3 21.7 367.6 21.1 368.2 21.1 C 368.8 21.1 369.0 21.1 369.6 21.2 C 370.2 21.3 370.5 21.7 371.1 21.8 C 371.7 21.8 372.0 21.8 372.6 21.8 C 373.2 21.8 373.5 21.4 374.0 21.4 C 374.6 21.4 374.9 21.7 375.5 21.9 C 376.1 22.0 376.4 22.2 377.0 22.2 C 377.6 22.2 377.9 22.1 378.5 21.9 C 379.0 21.7 379.3 21.4 379.9 21.4 C 380.5 21.4 380.8 21.4 381.4 21.4 C 382.0 21.4 382.3 21.4 382.9 21.5 C 383.5 21.5 383.7 21.8 384.3 22.0 C 384.9 22.1 385.2 22.2 385.8 22.2 C 386.4 22.2 386.7 21.6 387.3 21.6 C 387.9 21.6 388.2 21.9 388.7 22.1 C 389.3 22.2 389.6 22.3 390.2 22.5 C 390.8 22.6 391.1 22.8 391.7 22.8 C 392.3 22.8 392.6 22.5 393.2 22.2 C 393.7 21.9 394.0 21.6 394.6 21.4 C 395.2 21.1 395.5 21.3 396.1 20.9 C 396.7 20.6 397.0 20.0 397.6 19.7 C 398.2 19.3 398.5 19.1 399.0 19.1 C 399.6 19.1 399.9 19.1 400.5 19.3 C 401.1 19.4 401.4 20.4 402.0 20.4 C 402.6 20.4 402.9 20.0 403.5 20.0 C 404.0 20.0 404.3 20.5 404.9 20.5 C 405.5 20.5 405.8 19.5 406.4 19.5 C 407.0 19.5 407.3 19.8 407.9 19.8 C 408.4 19.8 408.7 19.8 409.3 19.5 C 409.9 19.2 410.2 18.4 410.8 18.4 C 411.4 18.4 411.7 18.5 412.3 18.8 C 412.9 19.1 413.2 20.1 413.7 20.1 C 414.3 20.1 414.6 19.1 415.2 18.8 C 415.8 18.4 416.1 18.3 416.7 18.3 C 417.3 18.3 417.6 18.5 418.2 18.6 C 418.7 18.7 419.0 18.7 419.6 18.8 C 420.2 18.8 420.5 18.8 421.1 18.9 C 421.7 19.1 422.0 19.4 422.6 19.6 C 423.2 19.9 423.4 20.3 424.0 20.3 C 424.6 20.3 424.9 20.0 425.5 19.8 C 426.1 19.6 426.4 19.2 427.0 19.2 C 427.6 19.2 427.9 19.4 428.4 19.4 C 429.0 19.4 429.3 19.3 429.9 19.1 C 430.5 19.0 430.8 18.8 431.4 18.6 C 432.0 18.3 432.3 18.3 432.9 18.1 C 433.4 17.9 433.7 17.7 434.3 17.6 C 434.9 17.4 435.2 17.5 435.8 17.4 C 436.4 17.2 436.7 17.0 437.3 16.8 C 437.9 16.5 438.1 16.3 438.7 16.0 C 439.3 15.6 439.6 15.5 440.2 15.0 C 440.8 14.5 441.1 13.9 441.7 13.5 C 442.3 13.1 442.6 13.3 443.1 12.9 C 443.7 12.6 444.0 11.7 444.6 11.7 C 445.2 11.7 445.5 11.7 446.1 11.7 C 446.7 11.7 447.0 10.5 447.6 9.8 C 448.1 9.2 448.4 8.8 449.0 8.5 C 449.6 8.1 449.9 8.2 450.5 8.0 C 451.1 7.8 451.4 7.6 452.0 7.4 C 452.6 7.2 452.9 6.9 453.4 6.9 C 454.0 6.9 454.3 8.2 454.9 8.5 C 455.5 8.8 455.8 8.6 456.4 8.8 C 457.0 8.9 457.3 8.9 457.8 9.2 C 458.4 9.4 458.7 9.8 459.3 10.2 C 459.9 10.5 460.2 11.0 460.8 11.0 C 461.4 11.0 461.7 10.7 462.3 10.5 C 462.8 10.3 463.1 9.9 463.7 9.9 C 464.3 9.9 464.6 10.1 465.2 10.1 C 465.8 10.1 466.1 9.8 466.7 9.7 C 467.3 9.6 467.6 9.4 468.1 9.4 C 468.7 9.4 469.0 9.8 469.6 9.8 C 470.2 9.8 470.5 8.9 471.1 8.6 C 471.7 8.3 472.0 8.2 472.6 8.1 C 473.1 8.0 473.4 8.0 474.0 8.0 C 474.6 8.0 474.9 9.2 475.5 9.2 C 476.1 9.2 476.4 8.5 477.0 8.2 C 477.5 7.8 477.8 7.7 478.4 7.5 C 479.0 7.2 479.3 7.2 479.9 6.8 C 480.5 6.4 480.8 5.8 481.4 5.3 C 482.0 4.9 482.3 4.7 482.8 4.7 C 483.4 4.7 483.7 4.7 484.3 4.7 C 484.9 4.7 485.2 4.7 485.8 4.5 C 486.4 4.4 486.7 3.3 487.3 3.3 C 487.8 3.3 488.1 4.1 488.7 4.5 C 489.3 4.8 489.6 4.6 490.2 5.0 C 490.8 5.4 491.1 6.2 491.7 6.4 C 492.3 6.5 492.5 6.4 493.1 6.5 C 493.7 6.7 494.0 7.1 494.6 7.5 C 495.2 7.9 495.5 8.1 496.1 8.6 C 496.7 9.1 497.0 9.4 497.5 10.0 C 498.1 10.6 498.4 11.5 499.0 11.5 C 499.6 11.5 499.9 10.9 500.5 10.5 C 501.1 10.0 501.4 9.3 502.0 9.3 C 502.5 9.3 502.8 9.7 503.4 10.2 C 504.0 10.8 504.3 11.5 504.9 12.0 C 505.5 12.4 505.8 12.3 506.4 12.5 C 507.0 12.7 507.2 12.8 507.8 12.8 C 508.4 12.8 508.7 11.7 509.3 11.7 C 509.9 11.7 510.2 12.0 510.8 12.3 C 511.4 12.7 511.7 13.1 512.2 13.6 C 512.8 14.0 513.1 14.1 513.7 14.6 C 514.3 15.1 514.6 16.0 515.2 16.0 C 515.8 16.0 516.1 15.9 516.7 15.8 C 517.2 15.6 517.5 15.1 518.1 15.1 C 518.7 15.1 519.0 15.7 519.6 16.0 C 520.2 16.3 520.5 16.2 521.1 16.4 C 521.7 16.7 522.0 17.3 522.5 17.3 C 523.1 17.3 523.4 17.3 524.0 17.1 C 524.6 16.8 524.9 16.3 525.5 16.1 C 526.1 15.8 526.4 15.7 526.9 15.7 C 527.5 15.7 527.8 17.0 528.4 17.1 C 529.0 17.3 529.3 17.1 529.9 17.3 C 530.5 17.4 530.8 17.9 531.4 18.1 C 531.9 18.4 532.2 18.7 532.8 18.7 C 533.4 18.7 533.7 17.3 534.3 16.8 C 535.0 16.2 536 15.7 536 15.7" stroke="#4572A7" stroke-width="1"  stroke-linejoin="round" stroke-linecap="round"></path></g><g class="highcharts-markers" visibility="visible"  transform="translate(24,331) scale(1 1)" clip-path="url(#highcharts-3)"></g></g><g class="highcharts-navigator" ><rect fill="rgb(128,179,236)" fill-opacity="0.3" style="cursor:ew-resize ;" x="541" y="331" width="19" height="40"></rect><path fill="none" stroke="#b2b1b6" stroke-width="1" d="M 10 331.5 L 540.5 331.5 540.5 385.5 L 559.5 385.5 L 559.5 331.5 574 331.5 M 541.5 331.5 L 559.5 331.5"></path></g><g class="highcharts-navigator-handle-right" style="cursor:ew-resize;"  transform="translate(560,343)"><rect x="-4.5" y="0.5" width="8" height="15" strokeWidth="1" fill="#ebe7e8" stroke="#b2b1b6" stroke-width="1"></rect><path fill="#ebe7e8" d="M -1.5 4 L -1.5 12 M 0.5 4 L 0.5 12" stroke="#b2b1b6" stroke-width="1"></path></g><text x="292" text-anchor="middle" class="highcharts-title"  style="color:#333333;font-size:16px;fill:#333333;width:520px;" y="22"><tspan>AAPL Stock Price</tspan></text><g class="highcharts-navigator-handle-left" style="cursor:ew-resize;"  transform="translate(541,343)"><rect x="-4.5" y="0.5" width="8" height="15" strokeWidth="1" fill="#ebe7e8" stroke="#b2b1b6" stroke-width="1"></rect><path fill="#ebe7e8" d="M -1.5 4 L -1.5 12 M 0.5 4 L 0.5 12" stroke="#b2b1b6" stroke-width="1"></path></g><g class="highcharts-axis-labels highcharts-xaxis-labels" ><text x="82.6" style="color:#606060;cursor:default;font-size:11px;fill:#606060;width:71px;text-overflow:clip;" text-anchor="middle" transform="translate(0,0)" y="304" opacity="1"><tspan>18. Feb</tspan></text><text x="164.0" style="color:#606060;cursor:default;font-size:11px;fill:#606060;width:71px;text-overflow:clip;" text-anchor="middle" transform="translate(0,0)" y="304" opacity="1"><tspan>4. Mar</tspan></text><text x="245.4" style="color:#606060;cursor:default;font-size:11px;fill:#606060;width:71px;text-overflow:clip;" text-anchor="middle" transform="translate(0,0)" y="304" opacity="1"><tspan>18. Mar</tspan></text><text x="326.8" style="color:#606060;cursor:default;font-size:11px;fill:#606060;width:71px;text-overflow:clip;" text-anchor="middle" transform="translate(0,0)" y="304" opacity="1"><tspan>1. Apr</tspan></text><text x="408.2" style="color:#606060;cursor:default;font-size:11px;fill:#606060;width:71px;text-overflow:clip;" text-anchor="middle" transform="translate(0,0)" y="304" opacity="1"><tspan>15. Apr</tspan></text><text x="489.6" style="color:#606060;cursor:default;font-size:11px;fill:#606060;width:71px;text-overflow:clip;" text-anchor="middle" transform="translate(0,0)" y="304" opacity="1"><tspan>29. Apr</tspan></text><text x="574" style="color:#606060;cursor:default;font-size:11px;fill:#606060;width:71px;text-overflow:clip;" text-anchor="end" transform="translate(0,0)" y="304" opacity="1"><tspan>13. May</tspan></text></g><g class="highcharts-axis-labels highcharts-xaxis-labels" ><text x="152.1" style="color:#888;cursor:default;font-size:11px;fill:#888;width:178px;text-overflow:clip;" text-anchor="start" transform="translate(0,0)" y="367" opacity="1">2008</text><text x="305.7" style="color:#888;cursor:default;font-size:11px;fill:#888;width:178px;text-overflow:clip;" text-anchor="start" transform="translate(0,0)" y="367" opacity="1">2010</text><text x="459.0" style="color:#888;cursor:default;font-size:11px;fill:#888;width:178px;text-overflow:clip;" text-anchor="start" transform="translate(0,0)" y="367" opacity="1">2012</text></g><g class="highcharts-axis-labels highcharts-yaxis-labels" ><text x="574" style="color:#606060;cursor:default;font-size:11px;fill:#606060;width:183px;text-overflow:clip;" text-anchor="end" transform="translate(0,0)" y="283" opacity="1">375</text><text x="574" style="color:#606060;cursor:default;font-size:11px;fill:#606060;width:183px;text-overflow:clip;" text-anchor="end" transform="translate(0,0)" y="242" opacity="1">400</text><text x="574" style="color:#606060;cursor:default;font-size:11px;fill:#606060;width:183px;text-overflow:clip;" text-anchor="end" transform="translate(0,0)" y="201" opacity="1">425</text><text x="574" style="color:#606060;cursor:default;font-size:11px;fill:#606060;width:183px;text-overflow:clip;" text-anchor="end" transform="translate(0,0)" y="159" opacity="1">450</text><text x="574" style="color:#606060;cursor:default;font-size:11px;fill:#606060;width:183px;text-overflow:clip;" text-anchor="end" transform="translate(0,0)" y="118" opacity="1">475</text><text x="0" style="color:#606060;cursor:default;font-size:11px;fill:#606060;width:183px;text-overflow:clip;" text-anchor="end" transform="translate(0,0)" y="-9999">500</text></g><g class="highcharts-axis-labels highcharts-yaxis-labels" ></g><g class="highcharts-tooltip"  style="cursor:default;padding:0;white-space:nowrap;" transform="translate(0,-9999)"><path fill="none" d="M 3 0 L 13 0 C 16 0 16 0 16 3 L 16 13 C 16 16 16 16 13 16 L 3 16 C 0 16 0 16 0 13 L 0 3 C 0 0 0 0 3 0"  stroke="black" stroke-opacity="0.0" stroke-width="5" transform="translate(1, 1)"></path><path fill="none" d="M 3 0 L 13 0 C 16 0 16 0 16 3 L 16 13 C 16 16 16 16 13 16 L 3 16 C 0 16 0 16 0 13 L 0 3 C 0 0 0 0 3 0"  stroke="black" stroke-opacity="0.0" stroke-width="3" transform="translate(1, 1)"></path><path fill="none" d="M 3 0 L 13 0 C 16 0 16 0 16 3 L 16 13 C 16 16 16 16 13 16 L 3 16 C 0 16 0 16 0 13 L 0 3 C 0 0 0 0 3 0"  stroke="black" stroke-opacity="0.1" stroke-width="1" transform="translate(1, 1)"></path><path fill="rgb(249, 249, 249)" fill-opacity=" .85" d="M 3 0 L 13 0 C 16 0 16 0 16 3 L 16 13 C 16 16 16 16 13 16 L 3 16 C 0 16 0 16 0 13 L 0 3 C 0 0 0 0 3 0"></path><text x="8"  style="font-size:12px;color:#333333;fill:#333333;" y="20"></text></g></svg>