<svg version="1.1" style="font-family:&quot;lucida grande&quot;, &quot;lucida sans unicode&quot;, arial, helvetica, sans-serif;font-size:12px;" xmlns="http://www.w3.org/2000/svg" width="584" height="400" viewBox="0 0 584 400"><desc>Created with Highstock 2.1.0</desc><defs><clipPath id="highcharts-1"><rect x="0" y="0" width="539" height="206"></rect></clipPath><clipPath id="highcharts-3"><rect x="-99" y="-79" width="639" height="400"></rect></clipPath><clipPath id="highcharts-4"><rect x="0" y="0" width="540" height="40"></rect></clipPath></defs><rect x="0" y="0" width="584" height="400" strokeWidth="0" fill="#FFFFFF" class=" highcharts-background"></rect><g class="highcharts-scrollbar" transform="translate(10,372)"><rect x="0" y="-0.5" fill="#eeeeee" stroke="#eeeeee" stroke-width="1" rx="0" ry="0" height="14" width="540"></rect><rect y="-0.5" height="14" fill="#bfc8d1" stroke="#bfc8d1" stroke-width="1" rx="0" ry="0" x="508.5" width="17"></rect><path fill="none" stroke="#666" stroke-width="1" visibility="visible" d="M 513.5 3.5 L 513.5 9.3 M 516.5 3.5 L 516.5 9.3 M 519.5 3.5 L 519.5 9.3"></path><g><rect x="-0.5" y="-0.5" width="14" height="14" strokeWidth="1" stroke="#bbb" stroke-width="1" fill="#ebe7e8"></rect><path fill="#666" d="M 8 4 L 8 10 5 7"></path></g><g transform="translate(526,0)"><rect x="-0.5" y="-0.5" width="14" height="14" strokeWidth="1" stroke="#bbb" stroke-width="1" fill="#ebe7e8"></rect><path fill="#666" d="M 6 4 L 6 10 9 7"></path></g></g><g class="highcharts-range-selector-buttons"><text x="10" y="59" style="color:#666;fill:#666;">Zoom</text><g class="highcharts-button"  states="[object Object]" style="cursor:pointer;text-align:center;" transform="translate(46,44)"><rect x="0" y="0" width="32" height="22" strokeWidth="0" fill="#f7f7f7" rx="0" ry="0"></rect><text x="7.5"  style="font-weight:normal;color:#444;fill:#444;" y="14">1m</text></g><g class="highcharts-button"  states="[object Object]" style="cursor:pointer;text-align:center;" transform="translate(83,44)"><rect x="0" y="0" width="32" height="22" strokeWidth="0" fill="#e7f0f9" rx="0" ry="0"></rect><text x="7.5"  style="font-weight:bold;color:black;fill:black;" y="14">3m</text></g><g class="highcharts-button"  states="[object Object]" style="cursor:pointer;text-align:center;" transform="translate(120,44)"><rect x="0" y="0" width="32" height="22" strokeWidth="0" fill="#f7f7f7" rx="0" ry="0"></rect><text x="7.5"  style="font-weight:normal;color:#444;fill:#444;" y="14">6m</text></g><g class="highcharts-button"  states="[object Object]" style="cursor:pointer;text-align:center;" transform="translate(157,44)"><rect x="0" y="0" width="32" height="22" strokeWidth="0" fill="#f7f7f7" rx="0" ry="0"></rect><text x="4"  style="font-weight:normal;color:#444;fill:#444;" y="14">YTD</text></g><g class="highcharts-button"  states="[object Object]" style="cursor:pointer;text-align:center;" transform="translate(194,44)"><rect x="0" y="0" width="32" height="22" strokeWidth="0" fill="#f7f7f7" rx="0" ry="0"></rect><text x="9.5"  style="font-weight:normal;color:#444;fill:#444;" y="14">1y</text></g><g class="highcharts-button"  states="[object Object]" style="cursor:pointer;text-align:center;" transform="translate(231,44)"><rect x="0" y="0" width="32" height="22" strokeWidth="0" fill="#f7f7f7" rx="0" ry="0"></rect><text x="10"  style="font-weight:normal;color:#444;fill:#444;" y="14">All</text></g></g><g class="highcharts-input-group" transform="translate(316,44)" visibility="visible"><g style="fill:#666;" transform="translate(0,0)"><text x="2"  style="font-size:12px;font-family:&quot;lucida grande&quot;, &quot;lucida sans unicode&quot;, arial, helvetica, sans-serif;color:#666;fill:#666;" y="14">From</text></g><g style="text-align:center;" transform="translate(36,0)"><rect x="0.5" y="0.5" width="94" height="21" strokeWidth="1" fill="none" stroke="silver" stroke-width="1"></rect><text x="13.5"  style="font-size:12px;font-family:&quot;lucida grande&quot;, &quot;lucida sans unicode&quot;, arial, helvetica, sans-serif;color:#444;fill:#444;" y="14"><tspan>Feb 9, 2013</tspan></text></g><g style="fill:#666;" transform="translate(140,0)"><text x="2"  style="font-size:12px;font-family:&quot;lucida grande&quot;, &quot;lucida sans unicode&quot;, arial, helvetica, sans-serif;color:#666;fill:#666;" y="14">To</text></g><g style="text-align:center;" transform="translate(164,0)"><rect x="0.5" y="0.5" width="94" height="21" strokeWidth="1" fill="none" stroke="silver" stroke-width="1"></rect><text x="9.5"  style="font-size:12px;font-family:&quot;lucida grande&quot;, &quot;lucida sans unicode&quot;, arial, helvetica, sans-serif;color:#444;fill:#444;" y="14"><tspan>May 10, 2013</tspan></text></g></g><g class="highcharts-grid" ></g><g class="highcharts-grid" ><path fill="none" d="M 143.5 331 L 143.5 371" stroke="#EEE" stroke-width="1"  opacity="1"></path><path fill="none" d="M 289.5 331 L 289.5 371" stroke="#EEE" stroke-width="1"  opacity="1"></path><path fill="none" d="M 436.5 331 L 436.5 371" stroke="#EEE" stroke-width="1"  opacity="1"></path></g><g class="highcharts-grid" ><path fill="none" d="M 10 203.5 L 550 203.5" stroke="#D8D8D8" stroke-width="1"  opacity="1"></path><path fill="none" d="M 10 161.5 L 550 161.5" stroke="#D8D8D8" stroke-width="1"  opacity="1"></path><path fill="none" d="M 10 120.5 L 550 120.5" stroke="#D8D8D8" stroke-width="1"  opacity="1"></path><path fill="none" d="M 10 78.5 L 550 78.5" stroke="#D8D8D8" stroke-width="1"  opacity="1"></path></g><g class="highcharts-grid" ><path fill="none" d="M 10 285.5 L 550 285.5" stroke="#D8D8D8" stroke-width="1"  opacity="1"></path><path fill="none" d="M 10 249.5 L 550 249.5" stroke="#D8D8D8" stroke-width="1"  opacity="1"></path><path fill="none" d="M 10 212.5 L 550 212.5" stroke="#D8D8D8" stroke-width="1"  opacity="1"></path></g><g class="highcharts-grid" ></g><g class="highcharts-axis" ><path fill="none" d="M 79.5 285 L 79.5 295" stroke="#C0D0E0" stroke-width="1" opacity="1"></path><path fill="none" d="M 157.5 285 L 157.5 295" stroke="#C0D0E0" stroke-width="1" opacity="1"></path><path fill="none" d="M 234.5 285 L 234.5 295" stroke="#C0D0E0" stroke-width="1" opacity="1"></path><path fill="none" d="M 312.5 285 L 312.5 295" stroke="#C0D0E0" stroke-width="1" opacity="1"></path><path fill="none" d="M 390.5 285 L 390.5 295" stroke="#C0D0E0" stroke-width="1" opacity="1"></path><path fill="none" d="M 468.5 285 L 468.5 295" stroke="#C0D0E0" stroke-width="1" opacity="1"></path><path fill="none" d="M 546.5 285 L 546.5 295" stroke="#C0D0E0" stroke-width="1" opacity="1"></path><path fill="none" d="M 10 285.5 L 550 285.5" stroke="#C0D0E0" stroke-width="1"  visibility="visible"></path></g><g class="highcharts-axis" ></g><g class="highcharts-axis" ><text x="560"  text-anchor="middle" transform="translate(0,0) rotate(90 560 140.8)" class=" highcharts-yaxis-title" style="color:#707070;fill:#707070;" visibility="visible" y="140.8">OHLC</text><path fill="none" d="M 550 79 L 550 202.6" stroke="#C0D0E0" stroke-width="2"  visibility="visible"></path></g><g class="highcharts-axis" ><text x="560"  text-anchor="middle" transform="translate(0,0) rotate(90 560 248.9)" class=" highcharts-yaxis-title" style="color:#707070;fill:#707070;" visibility="visible" y="248.9">Volume</text><path fill="none" d="M 550 212.9 L 550 285" stroke="#C0D0E0" stroke-width="2"  visibility="visible"></path></g><g class="highcharts-axis" ></g><g class="highcharts-series-group" ><g class="highcharts-series highcharts-tracker" visibility="visible"  transform="translate(10,79) scale(1 1)" style="" clip-path="url(#highcharts-1)"><path fill="#7cb5ec" d="M 20.5 33.5 L 20.5 19.5 L 40.5 19.5 L 40.5 33.5 Z M 30.5 19.5 L 30.5 12 M 30.5 33.5 L 30.5 33" stroke="black" stroke-width="1"></path><path fill="#7cb5ec" d="M 59.5 41.5 L 59.5 32.5 L 79.5 32.5 L 79.5 41.5 Z M 69.5 32.5 L 69.5 31 M 69.5 41.5 L 69.5 47" stroke="black" stroke-width="1"></path><path fill="#7cb5ec" d="M 98.5 57.5 L 98.5 38.5 L 118.5 38.5 L 118.5 57.5 Z M 108.5 38.5 L 108.5 37 M 108.5 57.5 L 108.5 58" stroke="black" stroke-width="1"></path><path fill="white" d="M 137.5 59.5 L 137.5 56.5 L 157.5 56.5 L 157.5 59.5 Z M 147.5 56.5 L 147.5 53 M 147.5 59.5 L 147.5 67" stroke="black" stroke-width="1"></path><path fill="white" d="M 175.5 58.5 L 175.5 46.5 L 195.5 46.5 L 195.5 58.5 Z M 185.5 46.5 L 185.5 46.5 M 185.5 58.5 L 185.5 62" stroke="black" stroke-width="1"></path><path fill="white" d="M 214.5 48.5 L 214.5 31.5 L 234.5 31.5 L 234.5 48.5 Z M 224.5 31.5 L 224.5 31.5 M 224.5 48.5 L 224.5 48" stroke="black" stroke-width="1"></path><path fill="#7cb5ec" d="M 253.5 47.5 L 253.5 29.5 L 273.5 29.5 L 273.5 47.5 Z M 263.5 29.5 L 263.5 25 M 263.5 47.5 L 263.5 48" stroke="black" stroke-width="1"></path><path fill="#7cb5ec" d="M 292.5 63.5 L 292.5 48.5 L 312.5 48.5 L 312.5 63.5 Z M 302.5 48.5 L 302.5 46 M 302.5 63.5 L 302.5 66" stroke="black" stroke-width="1"></path><path fill="white" d="M 331.5 62.5 L 331.5 58.5 L 351.5 58.5 L 351.5 62.5 Z M 341.5 58.5 L 341.5 51 M 341.5 62.5 L 341.5 64" stroke="black" stroke-width="1"></path><path fill="#7cb5ec" d="M 370.5 90.5 L 370.5 60.5 L 390.5 60.5 L 390.5 90.5 Z M 380.5 60.5 L 380.5 59 M 380.5 90.5 L 380.5 95" stroke="black" stroke-width="1"></path><path fill="white" d="M 409.5 88.5 L 409.5 68.5 L 429.5 68.5 L 429.5 88.5 Z M 419.5 68.5 L 419.5 67 M 419.5 88.5 L 419.5 90" stroke="black" stroke-width="1"></path><path fill="white" d="M 448.5 66.5 L 448.5 41.5 L 468.5 41.5 L 468.5 66.5 Z M 458.5 41.5 L 458.5 39 M 458.5 66.5 L 458.5 66" stroke="black" stroke-width="1"></path><path fill="#7cb5ec" d="M 487.5 39.5 L 487.5 36.5 L 507.5 36.5 L 507.5 39.5 Z M 497.5 36.5 L 497.5 28 M 497.5 39.5 L 497.5 41" stroke="black" stroke-width="1"></path></g><g class="highcharts-markers" visibility="visible"  transform="translate(10,79) scale(1 1)" clip-path="none"></g><g class="highcharts-series highcharts-tracker" visibility="visible"  transform="translate(10,212.9) scale(1 1)" style=""><rect x="21" y="43" width="19" height="30" fill="#434348" rx="0" ry="0"></rect><rect x="60" y="51" width="19" height="22" fill="#434348" rx="0" ry="0"></rect><rect x="99" y="43" width="19" height="30" fill="#434348" rx="0" ry="0"></rect><rect x="138" y="40" width="19" height="33" fill="#434348" rx="0" ry="0"></rect><rect x="177" y="44" width="19" height="29" fill="#434348" rx="0" ry="0"></rect><rect x="216" y="45" width="19" height="28" fill="#434348" rx="0" ry="0"></rect><rect x="255" y="53" width="19" height="20" fill="#434348" rx="0" ry="0"></rect><rect x="294" y="47" width="19" height="26" fill="#434348" rx="0" ry="0"></rect><rect x="333" y="53" width="19" height="20" fill="#434348" rx="0" ry="0"></rect><rect x="372" y="36" width="19" height="37" fill="#434348" rx="0" ry="0"></rect><rect x="411" y="32" width="19" height="41" fill="#434348" rx="0" ry="0"></rect><rect x="450" y="39" width="19" height="34" fill="#434348" rx="0" ry="0"></rect><rect x="489" y="45" width="19" height="28" fill="#434348" rx="0" ry="0"></rect></g><g class="highcharts-markers" visibility="visible"  transform="translate(10,212.9) scale(1 1)"></g><g class="highcharts-series" visibility="visible"  transform="translate(24,331) scale(1 1)" clip-path="url(#highcharts-4)"><path fill="rgb(69,114,167)" fill-opacity="0.0" d="M 0 36.0 C 0 36.0 1.2 36.1 2.0 36.1 C 2.5 36.1 2.8 36.2 3.4 36.2 C 4.0 36.3 4.2 36.3 4.8 36.3 C 5.4 36.3 5.6 36.4 6.2 36.4 C 6.8 36.4 7.0 36.4 7.6 36.4 C 8.2 36.4 8.4 36.4 9.0 36.4 C 9.6 36.4 9.9 36.4 10.4 36.5 C 11.0 36.5 11.3 36.6 11.8 36.6 C 12.4 36.6 12.7 36.6 13.2 36.5 C 13.8 36.4 14.1 36.3 14.6 36.2 C 15.2 36.1 15.5 35.9 16.0 35.9 C 16.6 35.9 16.9 36.0 17.4 36.0 C 18.0 36.0 18.3 36.0 18.8 36.0 C 19.4 36.0 19.7 35.9 20.2 35.9 C 20.8 35.9 21.1 35.9 21.6 35.9 C 22.2 35.9 22.5 35.8 23.1 35.7 C 23.6 35.7 23.9 35.7 24.5 35.6 C 25.0 35.6 25.3 35.6 25.9 35.6 C 26.4 35.5 26.7 35.5 27.3 35.5 C 27.8 35.5 28.1 35.5 28.7 35.6 C 29.2 35.6 29.5 35.6 30.1 35.6 C 30.6 35.6 30.9 35.5 31.5 35.5 C 32.0 35.4 32.3 35.2 32.9 35.2 C 33.4 35.2 33.7 35.3 34.3 35.3 C 34.8 35.3 35.1 35.3 35.7 35.2 C 36.3 35.2 36.5 35.1 37.1 35.0 C 37.7 35.0 37.9 35.0 38.5 34.9 C 39.1 34.8 39.3 34.7 39.9 34.7 C 40.5 34.7 40.7 34.7 41.3 34.7 C 41.9 34.8 42.2 34.8 42.7 34.8 C 43.3 34.9 43.6 34.9 44.1 35.0 C 44.7 35.1 45.0 35.2 45.5 35.2 C 46.1 35.2 46.4 35.1 46.9 35.0 C 47.5 34.9 47.8 34.8 48.3 34.7 C 48.9 34.6 49.2 34.6 49.7 34.6 C 50.3 34.6 50.6 34.8 51.1 34.9 C 51.7 35.0 52.0 35.0 52.5 35.0 C 53.1 35.0 53.4 35.0 53.9 35.0 C 54.5 35.0 54.8 35.0 55.4 35.0 C 55.9 35.0 56.2 34.9 56.8 34.9 C 57.3 34.9 57.6 35.0 58.2 35.0 C 58.7 35.0 59.0 34.9 59.6 34.9 C 60.1 34.8 60.4 34.9 61.0 34.8 C 61.5 34.8 61.8 34.7 62.4 34.7 C 62.9 34.6 63.2 34.5 63.8 34.5 C 64.3 34.5 64.6 34.5 65.2 34.5 C 65.7 34.6 66.0 34.6 66.6 34.6 C 67.1 34.6 67.4 34.7 68.0 34.7 C 68.6 34.7 68.8 34.6 69.4 34.5 C 70.0 34.4 70.2 34.3 70.8 34.2 C 71.4 34.1 71.6 34.1 72.2 34.0 C 72.8 33.9 73.0 33.9 73.6 33.8 C 74.2 33.7 74.5 33.7 75.0 33.6 C 75.6 33.5 75.9 33.5 76.4 33.3 C 77.0 33.2 77.3 33.1 77.8 33.1 C 78.4 33.1 78.7 33.2 79.2 33.2 C 79.8 33.2 80.1 33.0 80.6 33.0 C 81.2 33.0 81.5 33.1 82.0 33.1 C 82.6 33.1 82.9 33.0 83.4 32.9 C 84.0 32.8 84.3 32.7 84.8 32.6 C 85.4 32.4 85.7 32.3 86.2 32.2 C 86.8 32.1 87.1 32.1 87.7 32.1 C 88.2 32.1 88.5 32.1 89.1 32.3 C 89.6 32.4 89.9 32.5 90.5 32.6 C 91.0 32.8 91.3 33.0 91.9 33.0 C 92.4 33.0 92.7 32.9 93.3 32.8 C 93.8 32.7 94.1 32.6 94.7 32.5 C 95.2 32.4 95.5 32.3 96.1 32.3 C 96.6 32.3 96.9 32.3 97.5 32.3 C 98.0 32.3 98.3 32.3 98.9 32.2 C 99.5 32.0 99.7 31.8 100.3 31.6 C 100.9 31.4 101.1 31.5 101.7 31.3 C 102.3 31.1 102.5 30.9 103.1 30.8 C 103.7 30.7 103.9 30.8 104.5 30.6 C 105.1 30.4 105.3 30.1 105.9 30.0 C 106.5 29.8 106.8 29.7 107.3 29.7 C 107.9 29.7 108.2 29.7 108.7 29.9 C 109.3 30.1 109.6 30.8 110.1 30.8 C 110.7 30.8 111.0 30.8 111.5 30.8 C 112.1 30.8 112.4 30.4 112.9 30.2 C 113.5 30.0 113.8 30.1 114.3 29.9 C 114.9 29.8 115.2 29.5 115.7 29.5 C 116.3 29.5 116.6 29.8 117.1 29.8 C 117.7 29.8 118.0 29.2 118.5 29.2 C 119.1 29.2 119.4 29.2 120.0 29.3 C 120.5 29.4 120.8 30.0 121.4 30.3 C 121.9 30.5 122.2 30.3 122.8 30.7 C 123.3 31.1 123.6 31.8 124.2 32.1 C 124.7 32.5 125.0 32.5 125.6 32.6 C 126.1 32.8 126.4 32.8 127.0 32.8 C 127.5 32.8 127.8 32.8 128.4 32.8 C 128.9 32.8 129.2 32.9 129.8 33.0 C 130.3 33.1 130.6 33.1 131.2 33.1 C 131.8 33.1 132.0 33.1 132.6 33.1 C 133.2 33.0 133.4 33.0 134.0 32.9 C 134.6 32.9 134.8 32.9 135.4 32.8 C 136.0 32.6 136.2 32.4 136.8 32.2 C 137.4 32.0 137.6 31.9 138.2 31.8 C 138.8 31.7 139.1 31.5 139.6 31.5 C 140.2 31.5 140.5 31.6 141.0 31.6 C 141.6 31.6 141.9 31.1 142.4 30.8 C 143.0 30.6 143.3 30.6 143.8 30.4 C 144.4 30.2 144.7 30.1 145.2 29.9 C 145.8 29.8 146.1 29.7 146.6 29.7 C 147.2 29.7 147.5 30.0 148.0 30.0 C 148.6 30.0 148.9 29.8 149.4 29.8 C 150.0 29.8 150.3 29.8 150.9 29.8 C 151.4 29.8 151.7 30.0 152.3 30.1 C 152.8 30.2 153.1 30.2 153.7 30.2 C 154.2 30.3 154.5 30.4 155.1 30.5 C 155.6 30.6 155.9 30.6 156.5 30.6 C 157.0 30.6 157.3 30.3 157.9 30.3 C 158.4 30.3 158.7 30.3 159.3 30.5 C 159.8 30.6 160.1 31.0 160.7 31.1 C 161.2 31.2 161.5 31.2 162.1 31.2 C 162.6 31.2 162.9 31.2 163.5 31.2 C 164.1 31.1 164.3 30.3 164.9 30.3 C 165.5 30.3 165.7 30.4 166.3 30.4 C 166.9 30.4 167.1 30.4 167.7 30.4 C 168.3 30.5 168.5 30.6 169.1 30.8 C 169.7 31.0 170.0 31.1 170.5 31.4 C 171.1 31.7 171.4 32.1 171.9 32.3 C 172.5 32.6 172.8 32.4 173.3 32.7 C 173.9 32.9 174.2 33.3 174.7 33.7 C 175.3 34.1 175.6 34.7 176.1 34.7 C 176.7 34.7 177.0 34.0 177.5 34.0 C 178.1 34.0 178.4 34.4 178.9 34.4 C 179.5 34.4 179.8 34.3 180.3 34.2 C 180.9 34.1 181.2 34.0 181.7 34.0 C 182.3 34.0 182.6 34.4 183.2 34.5 C 183.7 34.7 184.0 34.9 184.6 34.9 C 185.1 34.9 185.4 34.7 186.0 34.7 C 186.5 34.7 186.8 34.7 187.4 34.7 C 187.9 34.7 188.2 34.4 188.8 34.4 C 189.3 34.4 189.6 34.6 190.2 34.7 C 190.7 34.8 191.0 34.8 191.6 34.9 C 192.1 34.9 192.4 34.9 193.0 34.9 C 193.5 34.9 193.8 34.6 194.4 34.6 C 194.9 34.6 195.2 34.9 195.8 35.0 C 196.4 35.1 196.6 35.1 197.2 35.1 C 197.8 35.1 198.0 34.8 198.6 34.7 C 199.2 34.6 199.4 34.7 200.0 34.6 C 200.6 34.5 200.8 34.3 201.4 34.3 C 202.0 34.3 202.3 34.5 202.8 34.6 C 203.4 34.7 203.7 34.7 204.2 34.8 C 204.8 34.8 205.1 34.8 205.6 34.8 C 206.2 34.8 206.5 34.8 207.0 34.8 C 207.6 34.8 207.9 34.5 208.4 34.3 C 209.0 34.1 209.3 34.0 209.8 33.9 C 210.4 33.9 210.7 33.9 211.2 33.9 C 211.8 33.8 212.1 33.5 212.6 33.4 C 213.2 33.3 213.5 33.3 214.0 33.2 C 214.6 33.2 214.9 33.1 215.5 33.1 C 216.0 33.0 216.3 33.1 216.9 33.0 C 217.4 32.9 217.7 32.7 218.3 32.7 C 218.8 32.7 219.1 33.0 219.7 33.0 C 220.2 33.0 220.5 33.0 221.1 32.9 C 221.6 32.9 221.9 32.8 222.5 32.6 C 223.0 32.5 223.3 32.3 223.9 32.2 C 224.4 32.1 224.7 32.1 225.3 32.1 C 225.8 32.1 226.1 32.4 226.7 32.4 C 227.2 32.4 227.5 32.4 228.1 32.3 C 228.7 32.3 228.9 32.0 229.5 32.0 C 230.1 32.0 230.3 32.3 230.9 32.3 C 231.5 32.3 231.7 32.2 232.3 32.0 C 232.9 31.8 233.1 31.5 233.7 31.4 C 234.3 31.2 234.6 31.2 235.1 31.1 C 235.7 31.0 236.0 30.9 236.5 30.9 C 237.1 30.9 237.4 30.9 237.9 30.9 C 238.5 30.9 238.8 30.9 239.3 30.9 C 239.9 30.9 240.2 30.6 240.7 30.6 C 241.3 30.6 241.6 30.8 242.1 30.8 C 242.7 30.8 243.0 30.6 243.5 30.5 C 244.1 30.4 244.4 30.3 244.9 30.2 C 245.5 30.1 245.8 29.9 246.3 29.9 C 246.9 29.9 247.2 29.9 247.8 29.9 C 248.3 29.9 248.6 29.7 249.2 29.7 C 249.7 29.6 250.0 29.7 250.6 29.6 C 251.1 29.5 251.4 29.1 252.0 29.1 C 252.5 29.1 252.8 29.1 253.4 29.2 C 253.9 29.2 254.2 29.6 254.8 29.6 C 255.3 29.6 255.6 29.1 256.2 29.0 C 256.7 28.9 257.0 28.9 257.6 28.9 C 258.1 28.9 258.4 28.9 259.0 28.9 C 259.6 29.0 259.8 29.0 260.4 29.1 C 261.0 29.2 261.2 29.4 261.8 29.4 C 262.4 29.4 262.6 29.4 263.2 29.4 C 263.8 29.3 264.0 29.3 264.6 29.1 C 265.2 28.9 265.4 28.6 266.0 28.5 C 266.6 28.4 266.9 28.4 267.4 28.4 C 268.0 28.4 268.3 28.6 268.8 28.6 C 269.4 28.6 269.7 28.5 270.2 28.5 C 270.8 28.5 271.1 28.7 271.6 28.9 C 272.2 29.0 272.5 29.4 273.0 29.4 C 273.6 29.4 273.9 29.4 274.4 29.3 C 275.0 29.2 275.3 29.0 275.8 29.0 C 276.4 29.0 276.7 29.1 277.2 29.1 C 277.8 29.1 278.1 28.8 278.7 28.6 C 279.2 28.4 279.5 28.0 280.1 27.9 C 280.6 27.8 280.9 27.9 281.5 27.8 C 282.0 27.8 282.3 27.8 282.9 27.7 C 283.4 27.6 283.7 27.4 284.3 27.3 C 284.8 27.1 285.1 27.2 285.7 27.1 C 286.2 27.0 286.5 27.0 287.1 26.8 C 287.6 26.6 287.9 26.4 288.5 26.2 C 289.0 26.0 289.3 25.6 289.9 25.6 C 290.4 25.6 290.7 26.2 291.3 26.2 C 291.9 26.2 292.1 26.2 292.7 26.2 C 293.3 26.2 293.5 26.7 294.1 26.7 C 294.7 26.7 294.9 26.7 295.5 26.5 C 296.1 26.4 296.3 25.9 296.9 25.9 C 297.5 25.9 297.7 26.4 298.3 26.4 C 298.9 26.4 299.2 26.1 299.7 25.8 C 300.3 25.6 300.6 25.3 301.1 25.3 C 301.7 25.3 302.0 25.9 302.5 26.1 C 303.1 26.2 303.4 26.2 303.9 26.2 C 304.5 26.3 304.8 26.3 305.3 26.3 C 305.9 26.3 306.2 26.3 306.7 26.3 C 307.3 26.2 307.6 26.0 308.1 26.0 C 308.7 25.9 309.0 25.9 309.5 25.9 C 310.1 25.9 310.4 26.1 311.0 26.3 C 311.5 26.4 311.8 26.4 312.4 26.5 C 312.9 26.6 313.2 26.8 313.8 26.8 C 314.3 26.8 314.6 26.8 315.2 26.7 C 315.7 26.5 316.0 26.2 316.6 25.9 C 317.1 25.7 317.4 25.7 318.0 25.5 C 318.5 25.3 318.8 25.0 319.4 24.7 C 319.9 24.5 320.2 24.5 320.8 24.5 C 321.3 24.5 321.6 24.6 322.2 24.6 C 322.7 24.6 323.0 24.2 323.6 23.9 C 324.2 23.7 324.4 23.4 325.0 23.4 C 325.6 23.4 325.8 23.6 326.4 23.6 C 327.0 23.6 327.2 23.5 327.8 23.4 C 328.4 23.3 328.6 23.0 329.2 23.0 C 329.8 23.0 330.1 23.6 330.6 23.6 C 331.2 23.6 331.5 23.5 332.0 23.4 C 332.6 23.3 332.9 23.2 333.4 23.1 C 334.0 23.0 334.3 22.9 334.8 22.9 C 335.4 22.8 335.7 22.8 336.2 22.8 C 336.8 22.8 337.1 22.7 337.6 22.7 C 338.2 22.7 338.5 22.7 339.0 22.7 C 339.6 22.6 339.9 22.5 340.4 22.3 C 341.0 22.1 341.3 21.7 341.8 21.7 C 342.4 21.7 342.7 22.0 343.3 22.0 C 343.8 22.0 344.1 22.0 344.7 21.9 C 345.2 21.9 345.5 21.9 346.1 21.8 C 346.6 21.6 346.9 21.3 347.5 21.2 C 348.0 21.0 348.3 20.9 348.9 20.9 C 349.4 20.9 349.7 21.7 350.3 21.7 C 350.8 21.7 351.1 21.1 351.7 21.1 C 352.2 21.1 352.5 21.1 353.1 21.2 C 353.6 21.3 353.9 21.7 354.5 21.8 C 355.0 21.8 355.3 21.8 355.9 21.8 C 356.5 21.8 356.7 21.4 357.3 21.4 C 357.9 21.4 358.1 21.7 358.7 21.9 C 359.3 22.0 359.5 22.2 360.1 22.2 C 360.7 22.2 360.9 22.1 361.5 21.9 C 362.1 21.7 362.4 21.4 362.9 21.4 C 363.5 21.4 363.8 21.4 364.3 21.4 C 364.9 21.4 365.2 21.4 365.7 21.5 C 366.3 21.5 366.6 21.8 367.1 22.0 C 367.7 22.1 368.0 22.2 368.5 22.2 C 369.1 22.2 369.4 21.6 369.9 21.6 C 370.5 21.6 370.8 21.9 371.3 22.1 C 371.9 22.2 372.2 22.3 372.7 22.5 C 373.3 22.6 373.6 22.8 374.1 22.8 C 374.7 22.8 375.0 22.5 375.6 22.2 C 376.1 21.9 376.4 21.6 377.0 21.4 C 377.5 21.1 377.8 21.3 378.4 20.9 C 378.9 20.6 379.2 20.0 379.8 19.7 C 380.3 19.3 380.6 19.1 381.2 19.1 C 381.7 19.1 382.0 19.1 382.6 19.3 C 383.1 19.4 383.4 20.4 384.0 20.4 C 384.5 20.4 384.8 20.0 385.4 20.0 C 385.9 20.0 386.2 20.5 386.8 20.5 C 387.3 20.5 387.6 19.5 388.2 19.5 C 388.8 19.5 389.0 19.8 389.6 19.8 C 390.2 19.8 390.4 19.8 391.0 19.5 C 391.6 19.2 391.8 18.4 392.4 18.4 C 393.0 18.4 393.2 18.5 393.8 18.8 C 394.4 19.1 394.7 20.1 395.2 20.1 C 395.8 20.1 396.1 19.1 396.6 18.8 C 397.2 18.4 397.5 18.3 398.0 18.3 C 398.6 18.3 398.9 18.5 399.4 18.6 C 400.0 18.7 400.3 18.7 400.8 18.8 C 401.4 18.8 401.7 18.8 402.2 18.9 C 402.8 19.1 403.1 19.4 403.6 19.6 C 404.2 19.9 404.5 20.3 405.0 20.3 C 405.6 20.3 405.9 20.0 406.4 19.8 C 407.0 19.6 407.3 19.2 407.9 19.2 C 408.4 19.2 408.7 19.4 409.3 19.4 C 409.8 19.4 410.1 19.3 410.7 19.1 C 411.2 19.0 411.5 18.8 412.1 18.6 C 412.6 18.3 412.9 18.3 413.5 18.1 C 414.0 17.9 414.3 17.7 414.9 17.6 C 415.4 17.4 415.7 17.5 416.3 17.4 C 416.8 17.2 417.1 17.0 417.7 16.8 C 418.2 16.5 418.5 16.3 419.1 16.0 C 419.7 15.6 419.9 15.5 420.5 15.0 C 421.1 14.5 421.3 13.9 421.9 13.5 C 422.5 13.1 422.7 13.3 423.3 12.9 C 423.9 12.6 424.1 11.7 424.7 11.7 C 425.3 11.7 425.5 11.7 426.1 11.7 C 426.7 11.7 427.0 10.5 427.5 9.8 C 428.1 9.2 428.4 8.8 428.9 8.5 C 429.5 8.1 429.8 8.2 430.3 8.0 C 430.9 7.8 431.2 7.6 431.7 7.4 C 432.3 7.2 432.6 6.9 433.1 6.9 C 433.7 6.9 434.0 8.2 434.5 8.5 C 435.1 8.8 435.4 8.6 435.9 8.8 C 436.5 8.9 436.8 8.9 437.3 9.2 C 437.9 9.4 438.2 9.8 438.8 10.2 C 439.3 10.5 439.6 11.0 440.2 11.0 C 440.7 11.0 441.0 10.7 441.6 10.5 C 442.1 10.3 442.4 9.9 443.0 9.9 C 443.5 9.9 443.8 10.1 444.4 10.1 C 444.9 10.1 445.2 9.8 445.8 9.7 C 446.3 9.6 446.6 9.4 447.2 9.4 C 447.7 9.4 448.0 9.8 448.6 9.8 C 449.1 9.8 449.4 8.9 450.0 8.6 C 450.5 8.3 450.8 8.2 451.4 8.1 C 452.0 8.0 452.2 8.0 452.8 8.0 C 453.4 8.0 453.6 9.2 454.2 9.2 C 454.8 9.2 455.0 8.5 455.6 8.2 C 456.2 7.8 456.4 7.7 457.0 7.5 C 457.6 7.2 457.9 7.2 458.4 6.8 C 459.0 6.4 459.3 5.8 459.8 5.3 C 460.4 4.9 460.7 4.7 461.2 4.7 C 461.8 4.7 462.1 4.7 462.6 4.7 C 463.2 4.7 463.5 4.7 464.0 4.5 C 464.6 4.4 464.9 3.3 465.4 3.3 C 466.0 3.3 466.3 4.1 466.8 4.5 C 467.4 4.8 467.7 4.6 468.2 5.0 C 468.8 5.4 469.1 6.2 469.6 6.4 C 470.2 6.5 470.5 6.4 471.1 6.5 C 471.6 6.7 471.9 7.1 472.5 7.5 C 473.0 7.9 473.3 8.1 473.9 8.6 C 474.4 9.1 474.7 9.4 475.3 10.0 C 475.8 10.6 476.1 11.5 476.7 11.5 C 477.2 11.5 477.5 10.9 478.1 10.5 C 478.6 10.0 478.9 9.3 479.5 9.3 C 480.0 9.3 480.3 9.7 480.9 10.2 C 481.4 10.8 481.7 11.5 482.3 12.0 C 482.8 12.4 483.1 12.3 483.7 12.5 C 484.3 12.7 484.5 12.8 485.1 12.8 C 485.7 12.8 485.9 11.7 486.5 11.7 C 487.1 11.7 487.3 12.0 487.9 12.3 C 488.5 12.7 488.7 13.1 489.3 13.6 C 489.9 14.0 490.2 14.1 490.7 14.6 C 491.3 15.1 491.6 16.0 492.1 16.0 C 492.7 16.0 493.0 15.9 493.5 15.8 C 494.1 15.6 494.4 15.1 494.9 15.1 C 495.5 15.1 495.8 15.7 496.3 16.0 C 496.9 16.3 497.2 16.2 497.7 16.4 C 498.3 16.7 498.6 17.3 499.1 17.3 C 499.7 17.3 500.0 17.3 500.5 17.1 C 501.1 16.8 501.4 16.3 501.9 16.1 C 502.5 15.8 502.8 15.7 503.4 15.7 C 503.9 15.7 504.2 17.0 504.8 17.1 C 505.3 17.3 505.6 17.1 506.2 17.3 C 506.7 17.4 507.0 17.9 507.6 18.1 C 508.1 18.4 508.4 18.7 509.0 18.7 C 509.5 18.7 509.8 17.3 510.4 16.8 C 511.0 16.2 511.9 15.7 511.9 15.7 L 511.9 40 L 0 40" ></path><path fill="none" d="M 0 36.0 C 0 36.0 1.2 36.1 2.0 36.1 C 2.5 36.1 2.8 36.2 3.4 36.2 C 4.0 36.3 4.2 36.3 4.8 36.3 C 5.4 36.3 5.6 36.4 6.2 36.4 C 6.8 36.4 7.0 36.4 7.6 36.4 C 8.2 36.4 8.4 36.4 9.0 36.4 C 9.6 36.4 9.9 36.4 10.4 36.5 C 11.0 36.5 11.3 36.6 11.8 36.6 C 12.4 36.6 12.7 36.6 13.2 36.5 C 13.8 36.4 14.1 36.3 14.6 36.2 C 15.2 36.1 15.5 35.9 16.0 35.9 C 16.6 35.9 16.9 36.0 17.4 36.0 C 18.0 36.0 18.3 36.0 18.8 36.0 C 19.4 36.0 19.7 35.9 20.2 35.9 C 20.8 35.9 21.1 35.9 21.6 35.9 C 22.2 35.9 22.5 35.8 23.1 35.7 C 23.6 35.7 23.9 35.7 24.5 35.6 C 25.0 35.6 25.3 35.6 25.9 35.6 C 26.4 35.5 26.7 35.5 27.3 35.5 C 27.8 35.5 28.1 35.5 28.7 35.6 C 29.2 35.6 29.5 35.6 30.1 35.6 C 30.6 35.6 30.9 35.5 31.5 35.5 C 32.0 35.4 32.3 35.2 32.9 35.2 C 33.4 35.2 33.7 35.3 34.3 35.3 C 34.8 35.3 35.1 35.3 35.7 35.2 C 36.3 35.2 36.5 35.1 37.1 35.0 C 37.7 35.0 37.9 35.0 38.5 34.9 C 39.1 34.8 39.3 34.7 39.9 34.7 C 40.5 34.7 40.7 34.7 41.3 34.7 C 41.9 34.8 42.2 34.8 42.7 34.8 C 43.3 34.9 43.6 34.9 44.1 35.0 C 44.7 35.1 45.0 35.2 45.5 35.2 C 46.1 35.2 46.4 35.1 46.9 35.0 C 47.5 34.9 47.8 34.8 48.3 34.7 C 48.9 34.6 49.2 34.6 49.7 34.6 C 50.3 34.6 50.6 34.8 51.1 34.9 C 51.7 35.0 52.0 35.0 52.5 35.0 C 53.1 35.0 53.4 35.0 53.9 35.0 C 54.5 35.0 54.8 35.0 55.4 35.0 C 55.9 35.0 56.2 34.9 56.8 34.9 C 57.3 34.9 57.6 35.0 58.2 35.0 C 58.7 35.0 59.0 34.9 59.6 34.9 C 60.1 34.8 60.4 34.9 61.0 34.8 C 61.5 34.8 61.8 34.7 62.4 34.7 C 62.9 34.6 63.2 34.5 63.8 34.5 C 64.3 34.5 64.6 34.5 65.2 34.5 C 65.7 34.6 66.0 34.6 66.6 34.6 C 67.1 34.6 67.4 34.7 68.0 34.7 C 68.6 34.7 68.8 34.6 69.4 34.5 C 70.0 34.4 70.2 34.3 70.8 34.2 C 71.4 34.1 71.6 34.1 72.2 34.0 C 72.8 33.9 73.0 33.9 73.6 33.8 C 74.2 33.7 74.5 33.7 75.0 33.6 C 75.6 33.5 75.9 33.5 76.4 33.3 C 77.0 33.2 77.3 33.1 77.8 33.1 C 78.4 33.1 78.7 33.2 79.2 33.2 C 79.8 33.2 80.1 33.0 80.6 33.0 C 81.2 33.0 81.5 33.1 82.0 33.1 C 82.6 33.1 82.9 33.0 83.4 32.9 C 84.0 32.8 84.3 32.7 84.8 32.6 C 85.4 32.4 85.7 32.3 86.2 32.2 C 86.8 32.1 87.1 32.1 87.7 32.1 C 88.2 32.1 88.5 32.1 89.1 32.3 C 89.6 32.4 89.9 32.5 90.5 32.6 C 91.0 32.8 91.3 33.0 91.9 33.0 C 92.4 33.0 92.7 32.9 93.3 32.8 C 93.8 32.7 94.1 32.6 94.7 32.5 C 95.2 32.4 95.5 32.3 96.1 32.3 C 96.6 32.3 96.9 32.3 97.5 32.3 C 98.0 32.3 98.3 32.3 98.9 32.2 C 99.5 32.0 99.7 31.8 100.3 31.6 C 100.9 31.4 101.1 31.5 101.7 31.3 C 102.3 31.1 102.5 30.9 103.1 30.8 C 103.7 30.7 103.9 30.8 104.5 30.6 C 105.1 30.4 105.3 30.1 105.9 30.0 C 106.5 29.8 106.8 29.7 107.3 29.7 C 107.9 29.7 108.2 29.7 108.7 29.9 C 109.3 30.1 109.6 30.8 110.1 30.8 C 110.7 30.8 111.0 30.8 111.5 30.8 C 112.1 30.8 112.4 30.4 112.9 30.2 C 113.5 30.0 113.8 30.1 114.3 29.9 C 114.9 29.8 115.2 29.5 115.7 29.5 C 116.3 29.5 116.6 29.8 117.1 29.8 C 117.7 29.8 118.0 29.2 118.5 29.2 C 119.1 29.2 119.4 29.2 120.0 29.3 C 120.5 29.4 120.8 30.0 121.4 30.3 C 121.9 30.5 122.2 30.3 122.8 30.7 C 123.3 31.1 123.6 31.8 124.2 32.1 C 124.7 32.5 125.0 32.5 125.6 32.6 C 126.1 32.8 126.4 32.8 127.0 32.8 C 127.5 32.8 127.8 32.8 128.4 32.8 C 128.9 32.8 129.2 32.9 129.8 33.0 C 130.3 33.1 130.6 33.1 131.2 33.1 C 131.8 33.1 132.0 33.1 132.6 33.1 C 133.2 33.0 133.4 33.0 134.0 32.9 C 134.6 32.9 134.8 32.9 135.4 32.8 C 136.0 32.6 136.2 32.4 136.8 32.2 C 137.4 32.0 137.6 31.9 138.2 31.8 C 138.8 31.7 139.1 31.5 139.6 31.5 C 140.2 31.5 140.5 31.6 141.0 31.6 C 141.6 31.6 141.9 31.1 142.4 30.8 C 143.0 30.6 143.3 30.6 143.8 30.4 C 144.4 30.2 144.7 30.1 145.2 29.9 C 145.8 29.8 146.1 29.7 146.6 29.7 C 147.2 29.7 147.5 30.0 148.0 30.0 C 148.6 30.0 148.9 29.8 149.4 29.8 C 150.0 29.8 150.3 29.8 150.9 29.8 C 151.4 29.8 151.7 30.0 152.3 30.1 C 152.8 30.2 153.1 30.2 153.7 30.2 C 154.2 30.3 154.5 30.4 155.1 30.5 C 155.6 30.6 155.9 30.6 156.5 30.6 C 157.0 30.6 157.3 30.3 157.9 30.3 C 158.4 30.3 158.7 30.3 159.3 30.5 C 159.8 30.6 160.1 31.0 160.7 31.1 C 161.2 31.2 161.5 31.2 162.1 31.2 C 162.6 31.2 162.9 31.2 163.5 31.2 C 164.1 31.1 164.3 30.3 164.9 30.3 C 165.5 30.3 165.7 30.4 166.3 30.4 C 166.9 30.4 167.1 30.4 167.7 30.4 C 168.3 30.5 168.5 30.6 169.1 30.8 C 169.7 31.0 170.0 31.1 170.5 31.4 C 171.1 31.7 171.4 32.1 171.9 32.3 C 172.5 32.6 172.8 32.4 173.3 32.7 C 173.9 32.9 174.2 33.3 174.7 33.7 C 175.3 34.1 175.6 34.7 176.1 34.7 C 176.7 34.7 177.0 34.0 177.5 34.0 C 178.1 34.0 178.4 34.4 178.9 34.4 C 179.5 34.4 179.8 34.3 180.3 34.2 C 180.9 34.1 181.2 34.0 181.7 34.0 C 182.3 34.0 182.6 34.4 183.2 34.5 C 183.7 34.7 184.0 34.9 184.6 34.9 C 185.1 34.9 185.4 34.7 186.0 34.7 C 186.5 34.7 186.8 34.7 187.4 34.7 C 187.9 34.7 188.2 34.4 188.8 34.4 C 189.3 34.4 189.6 34.6 190.2 34.7 C 190.7 34.8 191.0 34.8 191.6 34.9 C 192.1 34.9 192.4 34.9 193.0 34.9 C 193.5 34.9 193.8 34.6 194.4 34.6 C 194.9 34.6 195.2 34.9 195.8 35.0 C 196.4 35.1 196.6 35.1 197.2 35.1 C 197.8 35.1 198.0 34.8 198.6 34.7 C 199.2 34.6 199.4 34.7 200.0 34.6 C 200.6 34.5 200.8 34.3 201.4 34.3 C 202.0 34.3 202.3 34.5 202.8 34.6 C 203.4 34.7 203.7 34.7 204.2 34.8 C 204.8 34.8 205.1 34.8 205.6 34.8 C 206.2 34.8 206.5 34.8 207.0 34.8 C 207.6 34.8 207.9 34.5 208.4 34.3 C 209.0 34.1 209.3 34.0 209.8 33.9 C 210.4 33.9 210.7 33.9 211.2 33.9 C 211.8 33.8 212.1 33.5 212.6 33.4 C 213.2 33.3 213.5 33.3 214.0 33.2 C 214.6 33.2 214.9 33.1 215.5 33.1 C 216.0 33.0 216.3 33.1 216.9 33.0 C 217.4 32.9 217.7 32.7 218.3 32.7 C 218.8 32.7 219.1 33.0 219.7 33.0 C 220.2 33.0 220.5 33.0 221.1 32.9 C 221.6 32.9 221.9 32.8 222.5 32.6 C 223.0 32.5 223.3 32.3 223.9 32.2 C 224.4 32.1 224.7 32.1 225.3 32.1 C 225.8 32.1 226.1 32.4 226.7 32.4 C 227.2 32.4 227.5 32.4 228.1 32.3 C 228.7 32.3 228.9 32.0 229.5 32.0 C 230.1 32.0 230.3 32.3 230.9 32.3 C 231.5 32.3 231.7 32.2 232.3 32.0 C 232.9 31.8 233.1 31.5 233.7 31.4 C 234.3 31.2 234.6 31.2 235.1 31.1 C 235.7 31.0 236.0 30.9 236.5 30.9 C 237.1 30.9 237.4 30.9 237.9 30.9 C 238.5 30.9 238.8 30.9 239.3 30.9 C 239.9 30.9 240.2 30.6 240.7 30.6 C 241.3 30.6 241.6 30.8 242.1 30.8 C 242.7 30.8 243.0 30.6 243.5 30.5 C 244.1 30.4 244.4 30.3 244.9 30.2 C 245.5 30.1 245.8 29.9 246.3 29.9 C 246.9 29.9 247.2 29.9 247.8 29.9 C 248.3 29.9 248.6 29.7 249.2 29.7 C 249.7 29.6 250.0 29.7 250.6 29.6 C 251.1 29.5 251.4 29.1 252.0 29.1 C 252.5 29.1 252.8 29.1 253.4 29.2 C 253.9 29.2 254.2 29.6 254.8 29.6 C 255.3 29.6 255.6 29.1 256.2 29.0 C 256.7 28.9 257.0 28.9 257.6 28.9 C 258.1 28.9 258.4 28.9 259.0 28.9 C 259.6 29.0 259.8 29.0 260.4 29.1 C 261.0 29.2 261.2 29.4 261.8 29.4 C 262.4 29.4 262.6 29.4 263.2 29.4 C 263.8 29.3 264.0 29.3 264.6 29.1 C 265.2 28.9 265.4 28.6 266.0 28.5 C 266.6 28.4 266.9 28.4 267.4 28.4 C 268.0 28.4 268.3 28.6 268.8 28.6 C 269.4 28.6 269.7 28.5 270.2 28.5 C 270.8 28.5 271.1 28.7 271.6 28.9 C 272.2 29.0 272.5 29.4 273.0 29.4 C 273.6 29.4 273.9 29.4 274.4 29.3 C 275.0 29.2 275.3 29.0 275.8 29.0 C 276.4 29.0 276.7 29.1 277.2 29.1 C 277.8 29.1 278.1 28.8 278.7 28.6 C 279.2 28.4 279.5 28.0 280.1 27.9 C 280.6 27.8 280.9 27.9 281.5 27.8 C 282.0 27.8 282.3 27.8 282.9 27.7 C 283.4 27.6 283.7 27.4 284.3 27.3 C 284.8 27.1 285.1 27.2 285.7 27.1 C 286.2 27.0 286.5 27.0 287.1 26.8 C 287.6 26.6 287.9 26.4 288.5 26.2 C 289.0 26.0 289.3 25.6 289.9 25.6 C 290.4 25.6 290.7 26.2 291.3 26.2 C 291.9 26.2 292.1 26.2 292.7 26.2 C 293.3 26.2 293.5 26.7 294.1 26.7 C 294.7 26.7 294.9 26.7 295.5 26.5 C 296.1 26.4 296.3 25.9 296.9 25.9 C 297.5 25.9 297.7 26.4 298.3 26.4 C 298.9 26.4 299.2 26.1 299.7 25.8 C 300.3 25.6 300.6 25.3 301.1 25.3 C 301.7 25.3 302.0 25.9 302.5 26.1 C 303.1 26.2 303.4 26.2 303.9 26.2 C 304.5 26.3 304.8 26.3 305.3 26.3 C 305.9 26.3 306.2 26.3 306.7 26.3 C 307.3 26.2 307.6 26.0 308.1 26.0 C 308.7 25.9 309.0 25.9 309.5 25.9 C 310.1 25.9 310.4 26.1 311.0 26.3 C 311.5 26.4 311.8 26.4 312.4 26.5 C 312.9 26.6 313.2 26.8 313.8 26.8 C 314.3 26.8 314.6 26.8 315.2 26.7 C 315.7 26.5 316.0 26.2 316.6 25.9 C 317.1 25.7 317.4 25.7 318.0 25.5 C 318.5 25.3 318.8 25.0 319.4 24.7 C 319.9 24.5 320.2 24.5 320.8 24.5 C 321.3 24.5 321.6 24.6 322.2 24.6 C 322.7 24.6 323.0 24.2 323.6 23.9 C 324.2 23.7 324.4 23.4 325.0 23.4 C 325.6 23.4 325.8 23.6 326.4 23.6 C 327.0 23.6 327.2 23.5 327.8 23.4 C 328.4 23.3 328.6 23.0 329.2 23.0 C 329.8 23.0 330.1 23.6 330.6 23.6 C 331.2 23.6 331.5 23.5 332.0 23.4 C 332.6 23.3 332.9 23.2 333.4 23.1 C 334.0 23.0 334.3 22.9 334.8 22.9 C 335.4 22.8 335.7 22.8 336.2 22.8 C 336.8 22.8 337.1 22.7 337.6 22.7 C 338.2 22.7 338.5 22.7 339.0 22.7 C 339.6 22.6 339.9 22.5 340.4 22.3 C 341.0 22.1 341.3 21.7 341.8 21.7 C 342.4 21.7 342.7 22.0 343.3 22.0 C 343.8 22.0 344.1 22.0 344.7 21.9 C 345.2 21.9 345.5 21.9 346.1 21.8 C 346.6 21.6 346.9 21.3 347.5 21.2 C 348.0 21.0 348.3 20.9 348.9 20.9 C 349.4 20.9 349.7 21.7 350.3 21.7 C 350.8 21.7 351.1 21.1 351.7 21.1 C 352.2 21.1 352.5 21.1 353.1 21.2 C 353.6 21.3 353.9 21.7 354.5 21.8 C 355.0 21.8 355.3 21.8 355.9 21.8 C 356.5 21.8 356.7 21.4 357.3 21.4 C 357.9 21.4 358.1 21.7 358.7 21.9 C 359.3 22.0 359.5 22.2 360.1 22.2 C 360.7 22.2 360.9 22.1 361.5 21.9 C 362.1 21.7 362.4 21.4 362.9 21.4 C 363.5 21.4 363.8 21.4 364.3 21.4 C 364.9 21.4 365.2 21.4 365.7 21.5 C 366.3 21.5 366.6 21.8 367.1 22.0 C 367.7 22.1 368.0 22.2 368.5 22.2 C 369.1 22.2 369.4 21.6 369.9 21.6 C 370.5 21.6 370.8 21.9 371.3 22.1 C 371.9 22.2 372.2 22.3 372.7 22.5 C 373.3 22.6 373.6 22.8 374.1 22.8 C 374.7 22.8 375.0 22.5 375.6 22.2 C 376.1 21.9 376.4 21.6 377.0 21.4 C 377.5 21.1 377.8 21.3 378.4 20.9 C 378.9 20.6 379.2 20.0 379.8 19.7 C 380.3 19.3 380.6 19.1 381.2 19.1 C 381.7 19.1 382.0 19.1 382.6 19.3 C 383.1 19.4 383.4 20.4 384.0 20.4 C 384.5 20.4 384.8 20.0 385.4 20.0 C 385.9 20.0 386.2 20.5 386.8 20.5 C 387.3 20.5 387.6 19.5 388.2 19.5 C 388.8 19.5 389.0 19.8 389.6 19.8 C 390.2 19.8 390.4 19.8 391.0 19.5 C 391.6 19.2 391.8 18.4 392.4 18.4 C 393.0 18.4 393.2 18.5 393.8 18.8 C 394.4 19.1 394.7 20.1 395.2 20.1 C 395.8 20.1 396.1 19.1 396.6 18.8 C 397.2 18.4 397.5 18.3 398.0 18.3 C 398.6 18.3 398.9 18.5 399.4 18.6 C 400.0 18.7 400.3 18.7 400.8 18.8 C 401.4 18.8 401.7 18.8 402.2 18.9 C 402.8 19.1 403.1 19.4 403.6 19.6 C 404.2 19.9 404.5 20.3 405.0 20.3 C 405.6 20.3 405.9 20.0 406.4 19.8 C 407.0 19.6 407.3 19.2 407.9 19.2 C 408.4 19.2 408.7 19.4 409.3 19.4 C 409.8 19.4 410.1 19.3 410.7 19.1 C 411.2 19.0 411.5 18.8 412.1 18.6 C 412.6 18.3 412.9 18.3 413.5 18.1 C 414.0 17.9 414.3 17.7 414.9 17.6 C 415.4 17.4 415.7 17.5 416.3 17.4 C 416.8 17.2 417.1 17.0 417.7 16.8 C 418.2 16.5 418.5 16.3 419.1 16.0 C 419.7 15.6 419.9 15.5 420.5 15.0 C 421.1 14.5 421.3 13.9 421.9 13.5 C 422.5 13.1 422.7 13.3 423.3 12.9 C 423.9 12.6 424.1 11.7 424.7 11.7 C 425.3 11.7 425.5 11.7 426.1 11.7 C 426.7 11.7 427.0 10.5 427.5 9.8 C 428.1 9.2 428.4 8.8 428.9 8.5 C 429.5 8.1 429.8 8.2 430.3 8.0 C 430.9 7.8 431.2 7.6 431.7 7.4 C 432.3 7.2 432.6 6.9 433.1 6.9 C 433.7 6.9 434.0 8.2 434.5 8.5 C 435.1 8.8 435.4 8.6 435.9 8.8 C 436.5 8.9 436.8 8.9 437.3 9.2 C 437.9 9.4 438.2 9.8 438.8 10.2 C 439.3 10.5 439.6 11.0 440.2 11.0 C 440.7 11.0 441.0 10.7 441.6 10.5 C 442.1 10.3 442.4 9.9 443.0 9.9 C 443.5 9.9 443.8 10.1 444.4 10.1 C 444.9 10.1 445.2 9.8 445.8 9.7 C 446.3 9.6 446.6 9.4 447.2 9.4 C 447.7 9.4 448.0 9.8 448.6 9.8 C 449.1 9.8 449.4 8.9 450.0 8.6 C 450.5 8.3 450.8 8.2 451.4 8.1 C 452.0 8.0 452.2 8.0 452.8 8.0 C 453.4 8.0 453.6 9.2 454.2 9.2 C 454.8 9.2 455.0 8.5 455.6 8.2 C 456.2 7.8 456.4 7.7 457.0 7.5 C 457.6 7.2 457.9 7.2 458.4 6.8 C 459.0 6.4 459.3 5.8 459.8 5.3 C 460.4 4.9 460.7 4.7 461.2 4.7 C 461.8 4.7 462.1 4.7 462.6 4.7 C 463.2 4.7 463.5 4.7 464.0 4.5 C 464.6 4.4 464.9 3.3 465.4 3.3 C 466.0 3.3 466.3 4.1 466.8 4.5 C 467.4 4.8 467.7 4.6 468.2 5.0 C 468.8 5.4 469.1 6.2 469.6 6.4 C 470.2 6.5 470.5 6.4 471.1 6.5 C 471.6 6.7 471.9 7.1 472.5 7.5 C 473.0 7.9 473.3 8.1 473.9 8.6 C 474.4 9.1 474.7 9.4 475.3 10.0 C 475.8 10.6 476.1 11.5 476.7 11.5 C 477.2 11.5 477.5 10.9 478.1 10.5 C 478.6 10.0 478.9 9.3 479.5 9.3 C 480.0 9.3 480.3 9.7 480.9 10.2 C 481.4 10.8 481.7 11.5 482.3 12.0 C 482.8 12.4 483.1 12.3 483.7 12.5 C 484.3 12.7 484.5 12.8 485.1 12.8 C 485.7 12.8 485.9 11.7 486.5 11.7 C 487.1 11.7 487.3 12.0 487.9 12.3 C 488.5 12.7 488.7 13.1 489.3 13.6 C 489.9 14.0 490.2 14.1 490.7 14.6 C 491.3 15.1 491.6 16.0 492.1 16.0 C 492.7 16.0 493.0 15.9 493.5 15.8 C 494.1 15.6 494.4 15.1 494.9 15.1 C 495.5 15.1 495.8 15.7 496.3 16.0 C 496.9 16.3 497.2 16.2 497.7 16.4 C 498.3 16.7 498.6 17.3 499.1 17.3 C 499.7 17.3 500.0 17.3 500.5 17.1 C 501.1 16.8 501.4 16.3 501.9 16.1 C 502.5 15.8 502.8 15.7 503.4 15.7 C 503.9 15.7 504.2 17.0 504.8 17.1 C 505.3 17.3 505.6 17.1 506.2 17.3 C 506.7 17.4 507.0 17.9 507.6 18.1 C 508.1 18.4 508.4 18.7 509.0 18.7 C 509.5 18.7 509.8 17.3 510.4 16.8 C 511.0 16.2 511.9 15.7 511.9 15.7" stroke="#4572A7" stroke-width="1"  stroke-linejoin="round" stroke-linecap="round"></path></g><g class="highcharts-markers" visibility="visible"  transform="translate(24,331) scale(1 1)" clip-path="url(#highcharts-3)"></g></g><g class="highcharts-navigator" ><rect fill="rgb(128,179,236)" fill-opacity="0.3" style="cursor:ew-resize ;" x="518" y="331" width="18" height="40"></rect><path fill="none" stroke="#b2b1b6" stroke-width="1" d="M 10 331.5 L 517.5 331.5 517.5 385.5 L 535.5 385.5 L 535.5 331.5 550 331.5 M 518.5 331.5 L 535.5 331.5"></path></g><g class="highcharts-navigator-handle-right" style="cursor:ew-resize;"  transform="translate(536,343)"><rect x="-4.5" y="0.5" width="8" height="15" strokeWidth="1" fill="#ebe7e8" stroke="#b2b1b6" stroke-width="1"></rect><path fill="#ebe7e8" d="M -1.5 4 L -1.5 12 M 0.5 4 L 0.5 12" stroke="#b2b1b6" stroke-width="1"></path></g><text x="292" text-anchor="middle" class="highcharts-title"  style="color:#333333;font-size:16px;fill:#333333;width:520px;" y="22"><tspan>AAPL Historical</tspan></text><g class="highcharts-navigator-handle-left" style="cursor:ew-resize;"  transform="translate(518,343)"><rect x="-4.5" y="0.5" width="8" height="15" strokeWidth="1" fill="#ebe7e8" stroke="#b2b1b6" stroke-width="1"></rect><path fill="#ebe7e8" d="M -1.5 4 L -1.5 12 M 0.5 4 L 0.5 12" stroke="#b2b1b6" stroke-width="1"></path></g><g class="highcharts-axis-labels highcharts-xaxis-labels" ><text x="79.5" style="color:#606060;cursor:default;font-size:11px;fill:#606060;width:71px;text-overflow:clip;" text-anchor="middle" transform="translate(0,0)" y="304" opacity="1"><tspan>18. Feb</tspan></text><text x="157.5" style="color:#606060;cursor:default;font-size:11px;fill:#606060;width:71px;text-overflow:clip;" text-anchor="middle" transform="translate(0,0)" y="304" opacity="1"><tspan>4. Mar</tspan></text><text x="235.4" style="color:#606060;cursor:default;font-size:11px;fill:#606060;width:71px;text-overflow:clip;" text-anchor="middle" transform="translate(0,0)" y="304" opacity="1"><tspan>18. Mar</tspan></text><text x="313.4" style="color:#606060;cursor:default;font-size:11px;fill:#606060;width:71px;text-overflow:clip;" text-anchor="middle" transform="translate(0,0)" y="304" opacity="1"><tspan>1. Apr</tspan></text><text x="391.3" style="color:#606060;cursor:default;font-size:11px;fill:#606060;width:71px;text-overflow:clip;" text-anchor="middle" transform="translate(0,0)" y="304" opacity="1"><tspan>15. Apr</tspan></text><text x="469.2" style="color:#606060;cursor:default;font-size:11px;fill:#606060;width:71px;text-overflow:clip;" text-anchor="middle" transform="translate(0,0)" y="304" opacity="1"><tspan>29. Apr</tspan></text><text x="547.2" style="color:#606060;cursor:default;font-size:11px;fill:#606060;width:71px;text-overflow:clip;" text-anchor="middle" transform="translate(0,0)" y="304" opacity="1"><tspan>13. May</tspan></text></g><g class="highcharts-axis-labels highcharts-xaxis-labels" ><text x="146.5" style="color:#888;cursor:default;font-size:11px;fill:#888;width:178px;text-overflow:clip;" text-anchor="start" transform="translate(0,0)" y="367" opacity="1">2008</text><text x="293.2" style="color:#888;cursor:default;font-size:11px;fill:#888;width:178px;text-overflow:clip;" text-anchor="start" transform="translate(0,0)" y="367" opacity="1">2010</text><text x="439.6" style="color:#888;cursor:default;font-size:11px;fill:#888;width:178px;text-overflow:clip;" text-anchor="start" transform="translate(0,0)" y="367" opacity="1">2012</text></g><g class="highcharts-axis-labels highcharts-yaxis-labels" ><text x="547" style="color:#606060;cursor:default;font-size:11px;fill:#606060;width:183px;text-overflow:clip;" text-anchor="end" transform="translate(0,0)" y="201" opacity="1">350</text><text x="547" style="color:#606060;cursor:default;font-size:11px;fill:#606060;width:183px;text-overflow:clip;" text-anchor="end" transform="translate(0,0)" y="159" opacity="1">400</text><text x="547" style="color:#606060;cursor:default;font-size:11px;fill:#606060;width:183px;text-overflow:clip;" text-anchor="end" transform="translate(0,0)" y="118" opacity="1">450</text><text x="0" style="color:#606060;cursor:default;font-size:11px;fill:#606060;width:183px;text-overflow:clip;" text-anchor="end" transform="translate(0,0)" y="-9999">500</text></g><g class="highcharts-axis-labels highcharts-yaxis-labels" ><text x="547" style="color:#606060;cursor:default;font-size:11px;fill:#606060;width:183px;text-overflow:clip;" text-anchor="end" transform="translate(0,0)" y="283" opacity="1">0M</text><text x="547" style="color:#606060;cursor:default;font-size:11px;fill:#606060;width:183px;text-overflow:clip;" text-anchor="end" transform="translate(0,0)" y="247" opacity="1">100M</text><text x="0" style="color:#606060;cursor:default;font-size:11px;fill:#606060;width:183px;text-overflow:clip;" text-anchor="end" transform="translate(0,0)" y="-9999">200M</text></g><g class="highcharts-axis-labels highcharts-yaxis-labels" ></g><g class="highcharts-tooltip"  style="cursor:default;padding:0;white-space:nowrap;" transform="translate(0,-9999)"><path fill="none" d="M 3 0 L 13 0 C 16 0 16 0 16 3 L 16 13 C 16 16 16 16 13 16 L 3 16 C 0 16 0 16 0 13 L 0 3 C 0 0 0 0 3 0"  stroke="black" stroke-opacity="0.0" stroke-width="5" transform="translate(1, 1)"></path><path fill="none" d="M 3 0 L 13 0 C 16 0 16 0 16 3 L 16 13 C 16 16 16 16 13 16 L 3 16 C 0 16 0 16 0 13 L 0 3 C 0 0 0 0 3 0"  stroke="black" stroke-opacity="0.0" stroke-width="3" transform="translate(1, 1)"></path><path fill="none" d="M 3 0 L 13 0 C 16 0 16 0 16 3 L 16 13 C 16 16 16 16 13 16 L 3 16 C 0 16 0 16 0 13 L 0 3 C 0 0 0 0 3 0"  stroke="black" stroke-opacity="0.1" stroke-width="1" transform="translate(1, 1)"></path><path fill="rgb(249, 249, 249)" fill-opacity=" .85" d="M 3 0 L 13 0 C 16 0 16 0 16 3 L 16 13 C 16 16 16 16 13 16 L 3 16 C 0 16 0 16 0 13 L 0 3 C 0 0 0 0 3 0"></path><text x="8"  style="font-size:12px;color:#333333;fill:#333333;" y="20"></text></g></svg>