<svg version="1.1" style="font-family:&quot;lucida grande&quot;, &quot;lucida sans unicode&quot;, arial, helvetica, sans-serif;font-size:12px;" xmlns="http://www.w3.org/2000/svg" width="584" height="400" viewBox="0 0 584 400"><desc>Created with Highstock 2.1.0</desc><defs><clipPath id="highcharts-1"><rect x="0" y="0" width="564" height="206"></rect></clipPath><clipPath id="highcharts-2"><rect x="-99" y="-79" width="663" height="400"></rect></clipPath><clipPath id="highcharts-3"><rect x="0" y="0" width="564" height="206"></rect></clipPath></defs><rect x="0" y="0" width="584" height="400" strokeWidth="0" fill="#FFFFFF" class=" highcharts-background"></rect><g class="highcharts-scrollbar" transform="translate(10,372)"><rect x="0" y="-0.5" fill="#eeeeee" stroke="#eeeeee" stroke-width="1" rx="0" ry="0" height="14" width="564"></rect><rect y="-0.5" height="14" fill="#bfc8d1" stroke="#bfc8d1" stroke-width="1" rx="0" ry="0" x="285.5" width="264"></rect><path fill="none" stroke="#666" stroke-width="1" visibility="visible" d="M 414 3.5 L 414 9.3 M 417 3.5 L 417 9.3 M 420 3.5 L 420 9.3"></path><g><rect x="-0.5" y="-0.5" width="14" height="14" strokeWidth="1" stroke="#bbb" stroke-width="1" fill="#ebe7e8"></rect><path fill="#666" d="M 8 4 L 8 10 5 7"></path></g><g transform="translate(550,0)"><rect x="-0.5" y="-0.5" width="14" height="14" strokeWidth="1" stroke="#bbb" stroke-width="1" fill="#ebe7e8"></rect><path fill="#666" d="M 6 4 L 6 10 9 7"></path></g></g><g class="highcharts-range-selector-buttons"><text x="10" y="59" style="color:#666;fill:#666;">Zoom</text><g class="highcharts-button"  states="[object Object]" style="cursor:pointer;text-align:center;" transform="translate(46,44)"><rect x="0" y="0" width="32" height="22" strokeWidth="0" fill="#f7f7f7" rx="0" ry="0"></rect><text x="7.5"  style="font-weight:normal;color:#444;fill:#444;" y="14">1m</text></g><g class="highcharts-button"  states="[object Object]" style="cursor:pointer;text-align:center;" transform="translate(83,44)"><rect x="0" y="0" width="32" height="22" strokeWidth="0" fill="#f7f7f7" rx="0" ry="0"></rect><text x="7.5"  style="font-weight:normal;color:#444;fill:#444;" y="14">3m</text></g><g class="highcharts-button"  states="[object Object]" style="cursor:pointer;text-align:center;" transform="translate(120,44)"><rect x="0" y="0" width="32" height="22" strokeWidth="0" fill="#e7f0f9" rx="0" ry="0"></rect><text x="7.5"  style="font-weight:bold;color:black;fill:black;" y="14">6m</text></g><g class="highcharts-button"  states="[object Object]" style="cursor:pointer;text-align:center;" transform="translate(231,44)"><rect x="0" y="0" width="32" height="22" strokeWidth="0" fill="#f7f7f7" rx="0" ry="0"></rect><text x="10"  style="font-weight:normal;color:#444;fill:#444;" y="14">All</text></g><g class="highcharts-button"  states="[object Object]" style="cursor:pointer;text-align:center;" transform="translate(157,44)"><rect x="0" y="0" width="32" height="22" strokeWidth="0" fill="#f7f7f7" rx="0" ry="0"></rect><text x="4"  style="font-weight:normal;color:#ccc;fill:#ccc;" y="14">YTD</text></g><g class="highcharts-button"  states="[object Object]" style="cursor:pointer;text-align:center;" transform="translate(194,44)"><rect x="0" y="0" width="32" height="22" strokeWidth="0" fill="#f7f7f7" rx="0" ry="0"></rect><text x="9.5"  style="font-weight:normal;color:#ccc;fill:#ccc;" y="14">1y</text></g></g><g class="highcharts-input-group" transform="translate(316,44)" visibility="visible"><g style="fill:#666;" transform="translate(0,0)"><text x="2"  style="font-size:12px;font-family:&quot;lucida grande&quot;, &quot;lucida sans unicode&quot;, arial, helvetica, sans-serif;color:#666;fill:#666;" y="14">From</text></g><g style="text-align:center;" transform="translate(36,0)"><rect x="0.5" y="0.5" width="94" height="21" strokeWidth="1" fill="none" stroke="silver" stroke-width="1"></rect><text x="16.5"  style="font-size:12px;font-family:&quot;lucida grande&quot;, &quot;lucida sans unicode&quot;, arial, helvetica, sans-serif;color:#444;fill:#444;" y="14"><tspan>Jul 4, 2009</tspan></text></g><g style="fill:#666;" transform="translate(140,0)"><text x="2"  style="font-size:12px;font-family:&quot;lucida grande&quot;, &quot;lucida sans unicode&quot;, arial, helvetica, sans-serif;color:#666;fill:#666;" y="14">To</text></g><g style="text-align:center;" transform="translate(164,0)"><rect x="0.5" y="0.5" width="94" height="21" strokeWidth="1" fill="none" stroke="silver" stroke-width="1"></rect><text x="9.5"  style="font-size:12px;font-family:&quot;lucida grande&quot;, &quot;lucida sans unicode&quot;, arial, helvetica, sans-serif;color:#444;fill:#444;" y="14"><tspan>Dec 31, 2009</tspan></text></g></g><g class="highcharts-grid" ></g><g class="highcharts-grid" ><path fill="none" d="M 200.5 331 L 200.5 371" stroke="#EEE" stroke-width="1"  opacity="1"></path><path fill="none" d="M 381.5 331 L 381.5 371" stroke="#EEE" stroke-width="1"  opacity="1"></path></g><g class="highcharts-grid" ><path fill="none" d="M 10 285.5 L 574 285.5" stroke="#D8D8D8" stroke-width="1"  opacity="1"></path><path fill="none" d="M 10 216.5 L 574 216.5" stroke="#D8D8D8" stroke-width="1"  opacity="1"></path><path fill="none" d="M 10 148.5 L 574 148.5" stroke="#D8D8D8" stroke-width="1"  opacity="1"></path><path fill="none" d="M 10 78.5 L 574 78.5" stroke="#D8D8D8" stroke-width="1"  opacity="1"></path></g><g class="highcharts-grid" ></g><g class="highcharts-axis" ><path fill="none" d="M 98.5 285 L 98.5 295" stroke="#C0D0E0" stroke-width="1" opacity="1"></path><path fill="none" d="M 194.5 285 L 194.5 295" stroke="#C0D0E0" stroke-width="1" opacity="1"></path><path fill="none" d="M 288.5 285 L 288.5 295" stroke="#C0D0E0" stroke-width="1" opacity="1"></path><path fill="none" d="M 384.5 285 L 384.5 295" stroke="#C0D0E0" stroke-width="1" opacity="1"></path><path fill="none" d="M 478.5 285 L 478.5 295" stroke="#C0D0E0" stroke-width="1" opacity="1"></path><path fill="none" d="M 10 285.5 L 574 285.5" stroke="#C0D0E0" stroke-width="1"  visibility="visible"></path></g><g class="highcharts-axis" ></g><g class="highcharts-axis" ></g><g class="highcharts-axis" ></g><g class="highcharts-series-group" ><g class="highcharts-series highcharts-tracker" visibility="visible"  transform="translate(10,79) scale(1 1)" style=""><rect x="1" y="31.9" width="2" height="48.0" fill="#7cb5ec" rx="0" ry="0"></rect><rect x="4" y="51.5" width="2" height="29.1" fill="#7cb5ec" rx="0" ry="0"></rect><rect x="7" y="49.0" width="2" height="27.1" fill="#7cb5ec" rx="0" ry="0"></rect><rect x="10" y="52.1" width="2" height="38.7" fill="#7cb5ec" rx="0" ry="0"></rect><rect x="13" y="63.8" width="2" height="37.4" fill="#7cb5ec" rx="0" ry="0"></rect><rect x="16" y="55.6" width="2" height="50.1" fill="#7cb5ec" rx="0" ry="0"></rect><rect x="19" y="62.4" width="2" height="35.0" fill="#7cb5ec" rx="0" ry="0"></rect><rect x="23" y="55.9" width="2" height="44.6" fill="#7cb5ec" rx="0" ry="0"></rect><rect x="26" y="57.3" width="2" height="42.2" fill="#7cb5ec" rx="0" ry="0"></rect><rect x="29" y="55.9" width="2" height="41.5" fill="#7cb5ec" rx="0" ry="0"></rect><rect x="32" y="66.2" width="2" height="30.5" fill="#7cb5ec" rx="0" ry="0"></rect><rect x="35" y="60.4" width="2" height="33.6" fill="#7cb5ec" rx="0" ry="0"></rect><rect x="38" y="70.0" width="2" height="20.6" fill="#7cb5ec" rx="0" ry="0"></rect><rect x="41" y="59.7" width="2" height="38.4" fill="#7cb5ec" rx="0" ry="0"></rect><rect x="44" y="51.5" width="2" height="40.5" fill="#7cb5ec" rx="0" ry="0"></rect><rect x="47" y="63.1" width="2" height="25.4" fill="#7cb5ec" rx="0" ry="0"></rect><rect x="51" y="78.6" width="2" height="13.7" fill="#7cb5ec" rx="0" ry="0"></rect><rect x="54" y="84.1" width="2" height="11.3" fill="#7cb5ec" rx="0" ry="0"></rect><rect x="57" y="65.9" width="2" height="30.2" fill="#7cb5ec" rx="0" ry="0"></rect><rect x="60" y="78.6" width="2" height="17.5" fill="#7cb5ec" rx="0" ry="0"></rect><rect x="63" y="74.5" width="2" height="19.2" fill="#7cb5ec" rx="0" ry="0"></rect><rect x="66" y="70.7" width="2" height="24.0" fill="#7cb5ec" rx="0" ry="0"></rect><rect x="69" y="69.0" width="2" height="25.0" fill="#7cb5ec" rx="0" ry="0"></rect><rect x="72" y="67.9" width="2" height="28.4" fill="#7cb5ec" rx="0" ry="0"></rect><rect x="75" y="71.0" width="2" height="28.4" fill="#7cb5ec" rx="0" ry="0"></rect><rect x="79" y="76.2" width="2" height="24.0" fill="#7cb5ec" rx="0" ry="0"></rect><rect x="82" y="73.8" width="2" height="23.0" fill="#7cb5ec" rx="0" ry="0"></rect><rect x="85" y="82.0" width="2" height="18.1" fill="#7cb5ec" rx="0" ry="0"></rect><rect x="88" y="69.0" width="2" height="37.4" fill="#7cb5ec" rx="0" ry="0"></rect><rect x="91" y="67.9" width="2" height="31.5" fill="#7cb5ec" rx="0" ry="0"></rect><rect x="94" y="60.0" width="2" height="33.9" fill="#7cb5ec" rx="0" ry="0"></rect><rect x="97" y="59.3" width="2" height="28.1" fill="#7cb5ec" rx="0" ry="0"></rect><rect x="100" y="54.9" width="2" height="41.5" fill="#7cb5ec" rx="0" ry="0"></rect><rect x="104" y="63.5" width="2" height="18.8" fill="#7cb5ec" rx="0" ry="0"></rect><rect x="107" y="52.1" width="2" height="37.7" fill="#7cb5ec" rx="0" ry="0"></rect><rect x="110" y="63.5" width="2" height="26.7" fill="#7cb5ec" rx="0" ry="0"></rect><rect x="113" y="61.4" width="2" height="29.1" fill="#7cb5ec" rx="0" ry="0"></rect><rect x="116" y="60.7" width="2" height="40.5" fill="#7cb5ec" rx="0" ry="0"></rect><rect x="119" y="74.1" width="2" height="19.2" fill="#7cb5ec" rx="0" ry="0"></rect><rect x="122" y="74.1" width="2" height="22.3" fill="#7cb5ec" rx="0" ry="0"></rect><rect x="125" y="81.0" width="2" height="18.8" fill="#7cb5ec" rx="0" ry="0"></rect><rect x="128" y="79.6" width="2" height="27.4" fill="#7cb5ec" rx="0" ry="0"></rect><rect x="132" y="90.6" width="2" height="21.6" fill="#7cb5ec" rx="0" ry="0"></rect><rect x="135" y="89.2" width="2" height="11.3" fill="#7cb5ec" rx="0" ry="0"></rect><rect x="138" y="77.2" width="2" height="17.8" fill="#7cb5ec" rx="0" ry="0"></rect><rect x="141" y="74.1" width="2" height="29.1" fill="#7cb5ec" rx="0" ry="0"></rect><rect x="144" y="82.4" width="2" height="28.4" fill="#7cb5ec" rx="0" ry="0"></rect><rect x="147" y="46.3" width="2" height="47.3" fill="#7cb5ec" rx="0" ry="0"></rect><rect x="150" y="67.6" width="2" height="25.7" fill="#7cb5ec" rx="0" ry="0"></rect><rect x="153" y="76.5" width="2" height="24.3" fill="#7cb5ec" rx="0" ry="0"></rect><rect x="156" y="73.8" width="2" height="24.7" fill="#7cb5ec" rx="0" ry="0"></rect><rect x="160" y="89.9" width="2" height="8.5" fill="#7cb5ec" rx="0" ry="0"></rect><rect x="166" y="85.4" width="2" height="17.5" fill="#7cb5ec" rx="0" ry="0"></rect><rect x="169" y="80.6" width="2" height="23.6" fill="#7cb5ec" rx="0" ry="0"></rect><rect x="172" y="89.9" width="2" height="3.7" fill="#7cb5ec" rx="0" ry="0"></rect><rect x="175" y="78.6" width="2" height="20.5" fill="#7cb5ec" rx="0" ry="0"></rect><rect x="178" y="84.8" width="2" height="11.6" fill="#7cb5ec" rx="0" ry="0"></rect><rect x="181" y="94.0" width="2" height="6.1" fill="#7cb5ec" rx="0" ry="0"></rect><rect x="185" y="86.5" width="2" height="11.3" fill="#7cb5ec" rx="0" ry="0"></rect><rect x="188" y="90.2" width="2" height="12.7" fill="#7cb5ec" rx="0" ry="0"></rect><rect x="191" y="79.6" width="2" height="25.7" fill="#7cb5ec" rx="0" ry="0"></rect><rect x="194" y="75.5" width="2" height="23.6" fill="#7cb5ec" rx="0" ry="0"></rect><rect x="197" y="96.8" width="2" height="4.8" fill="#7cb5ec" rx="0" ry="0"></rect><rect x="203" y="86.8" width="2" height="13.3" fill="#7cb5ec" rx="0" ry="0"></rect><rect x="206" y="92.3" width="2" height="14.0" fill="#7cb5ec" rx="0" ry="0"></rect><rect x="209" y="80.3" width="2" height="17.8" fill="#7cb5ec" rx="0" ry="0"></rect><rect x="213" y="83.7" width="2" height="20.2" fill="#7cb5ec" rx="0" ry="0"></rect><rect x="216" y="89.2" width="2" height="12.3" fill="#7cb5ec" rx="0" ry="0"></rect><rect x="219" y="90.6" width="2" height="12.3" fill="#7cb5ec" rx="0" ry="0"></rect><rect x="222" y="77.2" width="2" height="31.5" fill="#7cb5ec" rx="0" ry="0"></rect><rect x="225" y="83.4" width="2" height="32.9" fill="#7cb5ec" rx="0" ry="0"></rect><rect x="228" y="87.8" width="2" height="30.5" fill="#7cb5ec" rx="0" ry="0"></rect><rect x="231" y="90.6" width="2" height="17.5" fill="#7cb5ec" rx="0" ry="0"></rect><rect x="234" y="93.3" width="2" height="13.7" fill="#7cb5ec" rx="0" ry="0"></rect><rect x="237" y="83.7" width="2" height="21.2" fill="#7cb5ec" rx="0" ry="0"></rect><rect x="241" y="78.6" width="2" height="35.7" fill="#7cb5ec" rx="0" ry="0"></rect><rect x="244" y="86.1" width="2" height="19.2" fill="#7cb5ec" rx="0" ry="0"></rect><rect x="247" y="85.8" width="2" height="22.6" fill="#7cb5ec" rx="0" ry="0"></rect><rect x="250" y="85.1" width="2" height="19.5" fill="#7cb5ec" rx="0" ry="0"></rect><rect x="253" y="99.2" width="2" height="11.6" fill="#7cb5ec" rx="0" ry="0"></rect><rect x="256" y="96.4" width="2" height="16.4" fill="#7cb5ec" rx="0" ry="0"></rect><rect x="259" y="83.0" width="2" height="19.9" fill="#7cb5ec" rx="0" ry="0"></rect><rect x="262" y="82.4" width="2" height="7.2" fill="#7cb5ec" rx="0" ry="0"></rect><rect x="266" y="85.4" width="2" height="24.3" fill="#7cb5ec" rx="0" ry="0"></rect><rect x="269" y="106.7" width="2" height="15.4" fill="#7cb5ec" rx="0" ry="0"></rect><rect x="272" y="113.6" width="2" height="7.5" fill="#7cb5ec" rx="0" ry="0"></rect><rect x="281" y="124.9" width="2" height="0" fill="#7cb5ec" rx="0" ry="0"></rect><rect x="284" y="113.9" width="2" height="13.0" fill="#7cb5ec" rx="0" ry="0"></rect><rect x="287" y="106.4" width="2" height="21.2" fill="#7cb5ec" rx="0" ry="0"></rect><rect x="290" y="111.5" width="2" height="20.5" fill="#7cb5ec" rx="0" ry="0"></rect><rect x="294" y="117.4" width="2" height="18.1" fill="#7cb5ec" rx="0" ry="0"></rect><rect x="297" y="106.0" width="2" height="19.9" fill="#7cb5ec" rx="0" ry="0"></rect><rect x="300" y="119.1" width="2" height="6.5" fill="#7cb5ec" rx="0" ry="0"></rect><rect x="303" y="114.3" width="2" height="20.5" fill="#7cb5ec" rx="0" ry="0"></rect><rect x="306" y="116.0" width="2" height="29.8" fill="#7cb5ec" rx="0" ry="0"></rect><rect x="309" y="108.1" width="2" height="27.8" fill="#7cb5ec" rx="0" ry="0"></rect><rect x="312" y="104.3" width="2" height="32.2" fill="#7cb5ec" rx="0" ry="0"></rect><rect x="315" y="119.1" width="2" height="26.7" fill="#7cb5ec" rx="0" ry="0"></rect><rect x="318" y="118.7" width="2" height="29.1" fill="#7cb5ec" rx="0" ry="0"></rect><rect x="322" y="108.1" width="2" height="21.2" fill="#7cb5ec" rx="0" ry="0"></rect><rect x="325" y="100.2" width="2" height="21.9" fill="#7cb5ec" rx="0" ry="0"></rect><rect x="328" y="110.5" width="2" height="26.0" fill="#7cb5ec" rx="0" ry="0"></rect><rect x="331" y="112.6" width="2" height="28.8" fill="#7cb5ec" rx="0" ry="0"></rect><rect x="334" y="115.3" width="2" height="12.3" fill="#7cb5ec" rx="0" ry="0"></rect><rect x="337" y="112.6" width="2" height="27.4" fill="#7cb5ec" rx="0" ry="0"></rect><rect x="340" y="104.0" width="2" height="29.8" fill="#7cb5ec" rx="0" ry="0"></rect><rect x="343" y="122.9" width="2" height="9.9" fill="#7cb5ec" rx="0" ry="0"></rect><rect x="347" y="98.1" width="2" height="29.1" fill="#7cb5ec" rx="0" ry="0"></rect><rect x="350" y="106.4" width="2" height="14.7" fill="#7cb5ec" rx="0" ry="0"></rect><rect x="353" y="100.2" width="2" height="25.7" fill="#7cb5ec" rx="0" ry="0"></rect><rect x="356" y="112.9" width="2" height="24.3" fill="#7cb5ec" rx="0" ry="0"></rect><rect x="359" y="130.4" width="2" height="6.8" fill="#7cb5ec" rx="0" ry="0"></rect><rect x="362" y="118.7" width="2" height="22.3" fill="#7cb5ec" rx="0" ry="0"></rect><rect x="365" y="121.8" width="2" height="19.9" fill="#7cb5ec" rx="0" ry="0"></rect><rect x="368" y="122.5" width="2" height="13.7" fill="#7cb5ec" rx="0" ry="0"></rect><rect x="371" y="120.5" width="2" height="19.2" fill="#7cb5ec" rx="0" ry="0"></rect><rect x="375" y="112.2" width="2" height="9.6" fill="#7cb5ec" rx="0" ry="0"></rect><rect x="378" y="122.2" width="2" height="15.1" fill="#7cb5ec" rx="0" ry="0"></rect><rect x="381" y="137.3" width="2" height="0" fill="#7cb5ec" rx="0" ry="0"></rect><rect x="384" y="114.3" width="2" height="23.0" fill="#7cb5ec" rx="0" ry="0"></rect><rect x="387" y="119.4" width="2" height="25.4" fill="#7cb5ec" rx="0" ry="0"></rect><rect x="390" y="131.4" width="2" height="14.7" fill="#7cb5ec" rx="0" ry="0"></rect><rect x="393" y="101.9" width="2" height="41.2" fill="#7cb5ec" rx="0" ry="0"></rect><rect x="396" y="119.4" width="2" height="17.8" fill="#7cb5ec" rx="0" ry="0"></rect><rect x="399" y="134.5" width="2" height="9.2" fill="#7cb5ec" rx="0" ry="0"></rect><rect x="403" y="138.0" width="2" height="8.2" fill="#7cb5ec" rx="0" ry="0"></rect><rect x="406" y="133.2" width="2" height="13.0" fill="#7cb5ec" rx="0" ry="0"></rect><rect x="409" y="143.1" width="2" height="9.2" fill="#7cb5ec" rx="0" ry="0"></rect><rect x="412" y="136.6" width="2" height="18.5" fill="#7cb5ec" rx="0" ry="0"></rect><rect x="418" y="106.7" width="2" height="26.0" fill="#7cb5ec" rx="0" ry="0"></rect><rect x="421" y="123.9" width="2" height="13.7" fill="#7cb5ec" rx="0" ry="0"></rect><rect x="424" y="117.0" width="2" height="14.4" fill="#7cb5ec" rx="0" ry="0"></rect><rect x="428" y="115.7" width="2" height="6.1" fill="#7cb5ec" rx="0" ry="0"></rect><rect x="431" y="117.0" width="2" height="3.7" fill="#7cb5ec" rx="0" ry="0"></rect><rect x="434" y="101.6" width="2" height="18.8" fill="#7cb5ec" rx="0" ry="0"></rect><rect x="437" y="107.8" width="2" height="21.2" fill="#7cb5ec" rx="0" ry="0"></rect><rect x="440" y="121.5" width="2" height="7.5" fill="#7cb5ec" rx="0" ry="0"></rect><rect x="443" y="119.4" width="2" height="11.3" fill="#7cb5ec" rx="0" ry="0"></rect><rect x="446" y="117.7" width="2" height="9.6" fill="#7cb5ec" rx="0" ry="0"></rect><rect x="449" y="120.5" width="2" height="6.8" fill="#7cb5ec" rx="0" ry="0"></rect><rect x="452" y="111.2" width="2" height="12.7" fill="#7cb5ec" rx="0" ry="0"></rect><rect x="456" y="117.7" width="2" height="16.8" fill="#7cb5ec" rx="0" ry="0"></rect><rect x="459" y="120.8" width="2" height="16.4" fill="#7cb5ec" rx="0" ry="0"></rect><rect x="462" y="125.6" width="2" height="6.5" fill="#7cb5ec" rx="0" ry="0"></rect><rect x="465" y="132.1" width="2" height="18.1" fill="#7cb5ec" rx="0" ry="0"></rect><rect x="468" y="131.4" width="2" height="17.1" fill="#7cb5ec" rx="0" ry="0"></rect><rect x="471" y="139.7" width="2" height="7.2" fill="#7cb5ec" rx="0" ry="0"></rect><rect x="474" y="124.2" width="2" height="22.3" fill="#7cb5ec" rx="0" ry="0"></rect><rect x="477" y="122.9" width="2" height="16.8" fill="#7cb5ec" rx="0" ry="0"></rect><rect x="480" y="116.3" width="2" height="19.9" fill="#7cb5ec" rx="0" ry="0"></rect><rect x="484" y="103.6" width="2" height="23.6" fill="#7cb5ec" rx="0" ry="0"></rect><rect x="487" y="113.9" width="2" height="23.3" fill="#7cb5ec" rx="0" ry="0"></rect><rect x="490" y="127.7" width="2" height="7.5" fill="#7cb5ec" rx="0" ry="0"></rect><rect x="493" y="119.8" width="2" height="17.1" fill="#7cb5ec" rx="0" ry="0"></rect><rect x="496" y="123.9" width="2" height="3.7" fill="#7cb5ec" rx="0" ry="0"></rect><rect x="499" y="129.7" width="2" height="11.6" fill="#7cb5ec" rx="0" ry="0"></rect><rect x="502" y="138.7" width="2" height="12.3" fill="#7cb5ec" rx="0" ry="0"></rect><rect x="505" y="134.9" width="2" height="4.8" fill="#7cb5ec" rx="0" ry="0"></rect><rect x="509" y="131.8" width="2" height="3.7" fill="#7cb5ec" rx="0" ry="0"></rect><rect x="512" y="132.1" width="2" height="8.5" fill="#7cb5ec" rx="0" ry="0"></rect><rect x="515" y="140.7" width="2" height="23.3" fill="#7cb5ec" rx="0" ry="0"></rect><rect x="518" y="164.4" width="2" height="13.7" fill="#7cb5ec" rx="0" ry="0"></rect><rect x="521" y="164.4" width="2" height="19.2" fill="#7cb5ec" rx="0" ry="0"></rect><rect x="524" y="143.1" width="2" height="20.9" fill="#7cb5ec" rx="0" ry="0"></rect><rect x="527" y="139.3" width="2" height="36.3" fill="#7cb5ec" rx="0" ry="0"></rect><rect x="530" y="162.0" width="2" height="20.2" fill="#7cb5ec" rx="0" ry="0"></rect><rect x="533" y="155.1" width="2" height="27.4" fill="#7cb5ec" rx="0" ry="0"></rect><rect x="537" y="163.7" width="2" height="10.9" fill="#7cb5ec" rx="0" ry="0"></rect><rect x="540" y="142.4" width="2" height="23.6" fill="#7cb5ec" rx="0" ry="0"></rect><rect x="543" y="141.4" width="2" height="16.8" fill="#7cb5ec" rx="0" ry="0"></rect><rect x="546" y="141.4" width="2" height="4.8" fill="#7cb5ec" rx="0" ry="0"></rect><rect x="549" y="134.9" width="2" height="12.3" fill="#7cb5ec" rx="0" ry="0"></rect><rect x="552" y="134.9" width="2" height="11.6" fill="#7cb5ec" rx="0" ry="0"></rect><rect x="555" y="141.7" width="2" height="32.6" fill="#7cb5ec" rx="0" ry="0"></rect><rect x="558" y="164.8" width="2" height="10.6" fill="#7cb5ec" rx="0" ry="0"></rect><rect x="561" y="159.6" width="2" height="19.5" fill="#7cb5ec" rx="0" ry="0"></rect></g><g class="highcharts-markers" visibility="visible"  transform="translate(10,79) scale(1 1)"></g><g class="highcharts-series" visibility="visible"  transform="translate(24,331) scale(1 1)" clip-path="url(#highcharts-3)"><path fill="rgb(69,114,167)" fill-opacity="0.0" d="M 0 28.4 C 0 28.4 1.4 28.0 2.3 26.6 C 2.9 25.7 3.2 22.8 3.8 22.8 C 4.4 22.8 4.7 30.9 5.3 31.7 C 5.8 32.6 6.1 32.6 6.7 32.6 C 7.3 32.6 7.6 25.9 8.2 25.9 C 8.8 25.9 9.1 26.4 9.7 26.4 C 10.3 26.4 10.6 26.4 11.1 24.8 C 11.7 23.2 12.0 18.2 12.6 18.2 C 13.2 18.2 13.5 18.2 14.1 18.9 C 14.7 19.7 15.0 22.2 15.6 22.2 C 16.2 22.2 16.5 16.3 17.0 16.3 C 17.6 16.3 17.9 16.4 18.5 18.4 C 19.1 20.4 19.4 24.0 20.0 26.1 C 20.6 28.1 20.9 28.6 21.5 28.6 C 22.0 28.6 22.3 27.9 22.9 26.3 C 23.5 24.7 23.8 20.6 24.4 20.6 C 25.0 20.6 25.3 21.7 25.9 22.2 C 26.5 22.8 26.8 23.4 27.3 23.4 C 27.9 23.4 28.2 21.7 28.8 21.7 C 29.4 21.7 29.7 22.0 30.3 22.2 C 30.9 22.5 31.2 22.9 31.8 22.9 C 32.4 22.9 32.6 21.4 33.2 21.4 C 33.8 21.4 34.1 21.4 34.7 21.6 C 35.3 21.8 35.6 26.0 36.2 26.4 C 36.8 26.8 37.1 26.4 37.7 26.8 C 38.2 27.2 38.5 28.7 39.1 28.7 C 39.7 28.7 40.0 22.6 40.6 22.6 C 41.2 22.6 41.5 24.5 42.1 25.3 C 42.7 26.1 43.0 26.2 43.5 26.5 C 44.1 26.8 44.4 26.7 45.0 26.9 C 45.6 27.1 45.9 27.4 46.5 27.6 C 47.1 27.7 47.4 27.6 48.0 27.8 C 48.6 28.0 48.8 28.9 49.4 28.9 C 50.0 28.9 50.3 28.9 50.9 28.0 C 51.5 27.1 51.8 24.5 52.4 24.5 C 53.0 24.5 53.3 26.4 53.9 27.1 C 54.4 27.8 54.7 27.1 55.3 28.0 C 55.9 28.8 56.2 31.5 56.8 31.5 C 57.4 31.5 57.7 27.8 58.3 27.8 C 58.9 27.8 59.2 31.4 59.7 31.4 C 60.3 31.4 60.6 31.4 61.2 31.3 C 61.8 31.2 62.1 27.4 62.7 27.4 C 63.3 27.4 63.6 30.8 64.2 31.1 C 64.7 31.4 65.0 31.4 65.6 31.4 C 66.2 31.4 66.5 27.3 67.1 25.6 C 67.7 24.0 68.0 23.7 68.6 23.0 C 69.2 22.3 69.5 22.0 70.1 22.0 C 70.6 22.0 70.9 22.2 71.5 22.2 C 72.1 22.2 72.4 21.1 73.0 21.0 C 73.6 20.9 73.9 20.9 74.5 20.9 C 75.1 20.9 75.4 21.2 75.9 21.2 C 76.5 21.2 76.8 21.1 77.4 21.1 C 78.0 21.1 78.3 21.1 78.9 21.2 C 79.5 21.2 79.8 21.3 80.4 21.3 C 80.9 21.3 81.2 20.6 81.8 20.6 C 82.4 20.6 82.7 20.6 83.3 21.7 C 83.9 22.8 84.2 26.9 84.8 27.5 C 85.4 28.0 85.7 28.0 86.2 28.0 C 86.8 28.0 87.1 25.6 87.7 24.3 C 88.3 22.9 88.6 22.0 89.2 21.3 C 89.8 20.5 90.1 20.4 90.7 20.4 C 91.3 20.4 91.5 22.2 92.1 22.2 C 92.7 22.2 93.0 19.6 93.6 19.6 C 94.2 19.6 94.5 19.8 95.1 20.0 C 95.7 20.2 96.0 20.3 96.6 20.6 C 97.1 21.0 97.4 21.6 98.0 21.6 C 98.6 21.6 98.9 20.2 99.5 20.2 C 100.1 20.2 100.4 20.2 101.0 20.3 C 101.6 20.4 101.9 21.6 102.4 22.0 C 103.0 22.5 103.3 22.6 103.9 22.6 C 104.5 22.6 104.8 20.5 105.4 20.5 C 106.0 20.5 106.3 21.9 106.9 22.7 C 107.5 23.4 107.7 24.4 108.3 24.4 C 108.9 24.4 109.2 19.9 109.8 19.9 C 110.4 19.9 110.7 22.2 111.3 22.2 C 111.9 22.2 112.2 21.4 112.8 21.4 C 113.3 21.4 113.6 23.7 114.2 24.1 C 114.8 24.4 115.1 24.4 115.7 24.4 C 116.3 24.4 116.6 23.3 117.2 22.6 C 117.8 21.8 118.1 20.4 118.6 20.4 C 119.2 20.4 119.5 22.0 120.1 23.1 C 120.7 24.2 121.0 26.0 121.6 26.0 C 122.2 26.0 122.5 25.6 123.1 25.0 C 123.7 24.4 123.9 23.0 124.5 23.0 C 125.1 23.0 125.4 25.1 126.0 25.2 C 126.6 25.3 126.9 25.3 127.5 25.3 C 128.1 25.3 128.4 22.1 129.0 21.9 C 129.5 21.7 129.8 21.9 130.4 21.7 C 131.0 21.5 131.3 20.5 131.9 20.5 C 132.5 20.5 132.8 23.7 133.4 23.7 C 134.0 23.7 134.3 19.9 134.8 19.3 C 135.4 18.6 135.7 18.6 136.3 18.6 C 136.9 18.6 137.2 21.6 137.8 21.6 C 138.4 21.6 138.7 16.4 139.3 16.4 C 139.8 16.4 140.1 17.7 140.7 18.7 C 141.3 19.8 141.6 21.6 142.2 21.6 C 142.8 21.6 143.1 20.3 143.7 19.0 C 144.3 17.8 144.6 15.2 145.1 15.2 C 145.7 15.2 146.0 16.3 146.6 16.3 C 147.2 16.3 147.5 16.3 148.1 16.3 C 148.7 16.3 149.0 16.8 149.6 17.9 C 150.2 19.0 150.5 21.8 151.0 21.8 C 151.6 21.8 151.9 21.8 152.5 21.7 C 153.1 21.6 153.4 19.4 154.0 18.2 C 154.6 17.0 154.9 15.8 155.5 15.8 C 156.0 15.8 156.3 17.0 156.9 18.1 C 157.5 19.2 157.8 21.4 158.4 21.4 C 159.0 21.4 159.3 20.5 159.9 19.2 C 160.5 17.8 160.8 14.7 161.3 14.7 C 161.9 14.7 162.2 19.7 162.8 19.7 C 163.4 19.7 163.7 17.2 164.3 17.2 C 164.9 17.2 165.2 20.1 165.8 20.1 C 166.4 20.1 166.6 12.1 167.2 12.1 C 167.8 12.1 168.1 18.6 168.7 18.6 C 169.3 18.6 169.6 15.1 170.2 15.1 C 170.8 15.1 171.1 17.0 171.7 17.0 C 172.2 17.0 172.5 13.3 173.1 13.3 C 173.7 13.3 174.0 17.9 174.6 17.9 C 175.2 17.9 175.5 16.2 176.1 15.2 C 176.7 14.2 177.0 13.5 177.5 13.0 C 178.1 12.4 178.4 12.4 179.0 12.4 C 179.6 12.4 179.9 13.7 180.5 15.6 C 181.1 17.6 181.4 22.2 182.0 22.2 C 182.6 22.2 182.8 17.4 183.4 17.4 C 184.0 17.4 184.3 18.7 184.9 18.8 C 185.5 18.9 185.8 18.9 186.4 18.9 C 187.0 18.9 187.3 15.4 187.9 15.4 C 188.4 15.4 188.7 16.7 189.3 16.9 C 189.9 17.1 190.2 16.9 190.8 17.1 C 191.4 17.3 191.7 18.5 192.3 18.5 C 192.9 18.5 193.2 17.4 193.7 17.4 C 194.3 17.4 194.6 20.1 195.2 20.1 C 195.8 20.1 196.1 17.9 196.7 17.7 C 197.3 17.4 197.6 17.7 198.2 17.4 C 198.7 17.2 199.0 13.7 199.6 13.7 C 200.2 13.7 200.5 14.4 201.1 14.4 C 201.7 14.4 202.0 13.3 202.6 13.3 C 203.2 13.3 203.5 13.4 204.1 13.4 C 204.6 13.4 204.9 13.4 205.5 13.4 C 206.1 13.4 206.4 15.1 207.0 15.1 C 207.6 15.1 207.9 14.1 208.5 14.1 C 209.1 14.1 209.4 15.2 209.9 15.2 C 210.5 15.2 210.8 13.2 211.4 13.0 C 212.0 12.8 212.3 12.8 212.9 12.8 C 213.5 12.8 213.8 12.8 214.4 13.3 C 214.9 13.8 215.2 15.3 215.8 16.0 C 216.4 16.7 216.7 16.8 217.3 16.8 C 217.9 16.8 218.2 13.4 218.8 13.4 C 219.4 13.4 219.7 15.6 220.2 15.6 C 220.8 15.6 221.1 13.9 221.7 13.9 C 222.3 13.9 222.6 14.5 223.2 14.5 C 223.8 14.5 224.1 13.0 224.7 13.0 C 225.3 13.0 225.5 13.4 226.1 14.5 C 226.7 15.5 227.0 18.1 227.6 18.1 C 228.2 18.1 228.5 15.4 229.1 15.4 C 229.7 15.4 230.0 19.2 230.6 19.2 C 231.1 19.2 231.4 18.9 232.0 18.1 C 232.6 17.3 232.9 16.2 233.5 15.3 C 234.1 14.4 234.4 13.7 235.0 13.7 C 235.6 13.7 235.9 13.9 236.4 13.9 C 237.0 13.9 237.3 13.1 237.9 13.1 C 238.5 13.1 238.8 13.5 239.4 13.5 C 240.0 13.5 240.3 12.1 240.9 12.1 C 241.5 12.1 241.7 16.2 242.3 16.2 C 242.9 16.2 243.2 14.8 243.8 14.8 C 244.4 14.8 244.7 16.9 245.3 17.7 C 245.9 18.4 246.2 18.4 246.8 18.4 C 247.3 18.4 247.6 10.7 248.2 10.7 C 248.8 10.7 249.1 13.1 249.7 13.1 C 250.3 13.1 250.6 10.8 251.2 10.8 C 251.8 10.8 252.1 11.9 252.6 11.9 C 253.2 11.9 253.5 11.9 254.1 11.8 C 254.7 11.7 255.0 8.6 255.6 8.6 C 256.2 8.6 256.5 13.1 257.1 13.1 C 257.7 13.1 257.9 11.7 258.5 10.6 C 259.1 9.6 259.4 7.9 260.0 7.9 C 260.6 7.9 260.9 8.9 261.5 8.9 C 262.1 8.9 262.4 7.8 263.0 7.3 C 263.5 6.8 263.8 7.0 264.4 6.4 C 265.0 5.8 265.3 4.2 265.9 4.2 C 266.5 4.2 266.8 7.0 267.4 7.0 C 268.0 7.0 268.3 7.0 268.8 6.8 C 269.4 6.6 269.7 6.2 270.3 5.7 C 270.9 5.3 271.2 4.5 271.8 4.5 C 272.4 4.5 272.7 4.7 273.3 4.7 C 273.8 4.7 274.1 3.3 274.7 3.3 C 275.3 3.3 275.6 6.3 276.2 7.9 C 276.8 9.4 277.1 10.1 277.7 11.1 C 278.3 12.0 278.6 12.4 279.1 12.4 C 279.7 12.4 280.0 9.9 280.6 9.9 C 281.2 9.9 281.5 10.8 282.1 10.8 C 282.7 10.8 283.0 10.7 283.6 10.5 C 284.2 10.3 284.5 10.1 285.0 9.9 C 285.6 9.7 285.9 9.9 286.5 9.7 C 287.1 9.5 287.4 9.2 288.0 8.8 C 288.6 8.4 288.9 7.8 289.5 7.8 C 290.0 7.8 290.3 10.1 290.9 10.1 C 291.5 10.1 291.8 8.8 292.4 8.2 C 293.0 7.6 293.3 7.1 293.9 7.1 C 294.5 7.1 294.8 7.9 295.3 8.3 C 295.9 8.7 296.2 9.0 296.8 9.2 C 297.4 9.5 297.7 9.5 298.3 9.5 C 298.9 9.5 299.2 9.5 299.8 9.5 C 300.4 9.5 300.6 8.7 301.2 8.7 C 301.8 8.7 302.1 9.0 302.7 9.0 C 303.3 9.0 303.6 8.8 304.2 8.8 C 304.8 8.8 305.1 9.2 305.7 9.6 C 306.2 9.9 306.5 10.3 307.1 10.5 C 307.7 10.7 308.0 10.7 308.6 10.7 C 309.2 10.7 309.5 9.7 310.1 9.7 C 310.7 9.7 311.0 10.1 311.5 10.7 C 312.1 11.3 312.4 12.7 313.0 12.7 C 313.6 12.7 313.9 11.3 314.5 10.5 C 315.1 9.8 315.4 9.6 316.0 8.8 C 316.6 8.1 316.8 6.8 317.4 6.8 C 318.0 6.8 318.3 9.6 318.9 9.6 C 319.5 9.6 319.8 5.2 320.4 5.2 C 321.0 5.2 321.3 7.4 321.9 7.5 C 322.4 7.6 322.7 7.6 323.3 7.6 C 323.9 7.7 324.2 7.6 324.8 7.8 C 325.4 7.9 325.7 11.1 326.3 11.1 C 326.9 11.1 327.2 8.6 327.7 8.6 C 328.3 8.6 328.6 9.2 329.2 9.6 C 329.8 10.0 330.1 10.0 330.7 10.6 C 331.3 11.3 331.6 12.1 332.2 12.9 C 332.7 13.6 333.0 14.5 333.6 14.5 C 334.2 14.5 334.5 11.9 335.1 10.8 C 335.7 9.8 336.0 9.1 336.6 9.1 C 337.2 9.1 337.5 10.7 338.1 11.7 C 338.6 12.7 338.9 14.0 339.5 14.0 C 340.1 14.0 340.4 8.8 341.0 8.7 C 341.6 8.6 341.9 8.6 342.5 8.6 C 343.1 8.6 343.4 11.0 343.9 11.0 C 344.5 11.0 344.8 10.2 345.4 10.2 C 346.0 10.2 346.9 10.2 346.9 10.2 L 346.9 40 L 0 40 M 349.8 11.6 C 349.8 11.6 350.7 12.0 351.3 12.0 C 351.9 12.0 352.2 8.7 352.8 8.7 C 353.4 8.7 353.7 10.4 354.2 10.4 C 354.8 10.4 355.1 9.6 355.7 9.6 C 356.3 9.6 356.6 10.7 357.2 10.7 C 357.8 10.7 358.1 10.0 358.7 10.0 C 359.3 10.0 359.5 11.1 360.1 11.6 C 360.7 12.1 361.0 12.3 361.6 12.3 C 362.2 12.3 362.5 10.4 363.1 10.4 C 363.7 10.4 364.6 11.2 364.6 11.2 L 364.6 40 L 349.8 40 M 367.5 10.7 C 367.5 10.7 368.4 12.7 369.0 12.7 C 369.6 12.7 369.9 10.1 370.4 10.1 C 371.0 10.1 371.3 11.9 371.9 11.9 C 372.5 11.9 372.8 11.2 373.4 11.2 C 374.0 11.2 374.3 11.2 374.9 11.6 C 375.5 12.0 375.7 12.6 376.3 13.4 C 376.9 14.2 377.2 15.1 377.8 15.7 C 378.4 16.3 378.7 16.4 379.3 16.4 C 379.9 16.4 380.2 13.5 380.8 13.2 C 381.3 12.9 381.6 13.1 382.2 12.9 C 382.8 12.7 383.1 12.2 383.7 12.2 C 384.3 12.2 384.6 15.1 385.2 15.1 C 385.8 15.1 386.1 12.3 386.6 12.3 C 387.2 12.3 387.5 13.3 388.1 13.3 C 388.7 13.3 389.0 12.1 389.6 12.1 C 390.2 12.1 390.5 13.5 391.1 14.0 C 391.7 14.6 391.9 14.7 392.5 14.7 C 393.1 14.7 393.4 13.0 394.0 11.6 C 394.6 10.1 394.9 7.4 395.5 7.4 C 396.1 7.4 396.4 11.7 397.0 13.7 C 397.5 15.7 397.8 17.6 398.4 17.6 C 399.0 17.6 399.9 17.2 399.9 17.2 L 399.9 40 L 367.5 40 M 404.3 18.4 C 404.3 18.4 405.2 18.9 405.8 19.0 C 406.4 19.2 406.7 19.0 407.3 19.3 C 407.8 19.5 408.1 20.2 408.7 20.6 C 409.3 21.1 409.6 21.7 410.2 21.7 C 410.8 21.7 411.1 18.8 411.7 18.7 C 412.3 18.6 412.6 18.6 413.1 18.6 C 413.7 18.6 414.0 20.2 414.6 21.5 C 415.2 22.8 415.5 24.9 416.1 24.9 C 416.7 24.9 417.0 21.8 417.6 21.8 C 418.2 21.8 418.5 21.8 419.0 22.0 C 419.6 22.2 419.9 24.3 420.5 24.9 C 421.1 25.5 421.4 25.5 422.0 25.5 C 422.6 25.5 422.9 21.4 423.5 19.8 C 424.0 18.2 424.3 17.6 424.9 17.6 C 425.5 17.6 425.8 20.8 426.4 22.0 C 427.0 23.2 427.3 23.5 427.9 23.5 C 428.5 23.5 428.8 19.3 429.3 19.3 C 429.9 19.3 430.2 23.1 430.8 23.1 C 431.4 23.1 431.7 21.5 432.3 21.2 C 432.9 20.9 433.2 21.2 433.8 20.9 C 434.4 20.5 434.6 19.9 435.2 19.2 C 435.8 18.4 436.1 17.2 436.7 17.2 C 437.3 17.2 437.6 17.7 438.2 18.7 C 438.8 19.7 439.1 22.2 439.7 22.2 C 440.2 22.2 440.5 22.2 441.1 22.2 C 441.7 22.2 442.0 23.2 442.6 23.4 C 443.2 23.6 443.5 23.6 444.1 23.6 C 444.7 23.6 445.0 21.9 445.5 21.9 C 446.1 21.9 446.4 23.0 447.0 23.0 C 447.6 23.0 447.9 17.4 448.5 17.4 C 449.1 17.4 449.4 22.2 450.0 22.2 C 450.6 22.2 450.8 22.2 451.4 22.2 C 452.0 22.2 452.3 22.2 452.9 22.2 C 453.5 22.2 453.8 24.2 454.4 24.6 C 455.0 25.0 455.3 25.0 455.9 25.0 C 456.4 25.0 456.7 24.6 457.3 24.1 C 457.9 23.5 458.2 22.2 458.8 22.2 C 459.4 22.2 459.7 23.7 460.3 24.3 C 460.9 24.8 461.2 25.0 461.7 25.0 C 462.3 25.0 462.6 25.0 463.2 25.0 C 463.8 25.0 464.1 26.4 464.7 26.9 C 465.3 27.5 466.2 27.8 466.2 27.8 L 466.2 40 L 404.3 40 M 469.1 20.9 C 469.1 20.9 470.0 22.3 470.6 22.3 C 471.2 22.3 471.5 21.4 472.1 20.4 C 472.6 19.4 472.9 17.8 473.5 17.4 C 474.1 17.1 474.4 17.2 475.0 17.1 C 475.6 17.0 475.9 17.0 476.5 17.0 C 477.1 17.0 477.4 19.7 477.9 19.7 C 478.5 19.7 478.8 19.7 479.4 19.7 C 480.0 19.7 480.3 20.2 480.9 20.2 C 481.5 20.2 481.8 19.2 482.4 19.2 C 482.9 19.2 483.2 19.2 483.8 19.2 C 484.4 19.2 484.7 18.1 485.3 18.1 C 485.9 18.1 486.2 20.6 486.8 21.4 C 487.4 22.2 487.7 22.2 488.2 22.2 C 488.8 22.2 489.1 20.6 489.7 20.6 C 490.3 20.6 490.6 26.3 491.2 26.3 C 491.8 26.3 492.1 26.0 492.7 25.8 C 493.3 25.5 493.5 25.3 494.1 25.2 C 494.7 25.1 495.0 25.2 495.6 25.1 C 496.2 25.0 496.5 23.6 497.1 23.0 C 497.7 22.3 498.0 22.7 498.6 21.9 C 499.1 21.2 499.4 19.2 500.0 19.2 C 500.6 19.2 500.9 22.2 501.5 22.2 C 502.1 22.2 502.4 21.6 503.0 21.6 C 503.6 21.6 503.9 22.1 504.4 22.1 C 505.0 22.1 505.3 19.3 505.9 19.3 C 506.5 19.3 506.8 22.1 507.4 23.5 C 508.0 25.0 508.3 26.5 508.9 26.5 C 509.5 26.5 509.7 23.9 510.3 23.0 C 510.9 22.0 511.2 21.7 511.8 21.7 C 512.4 21.7 512.7 21.7 513.3 23.3 C 513.9 24.9 514.2 28.2 514.8 30.5 C 515.3 32.9 515.6 33.7 516.2 34.9 C 516.8 36.1 517.1 36.6 517.7 36.6 C 518.3 36.6 518.6 30.5 519.2 30.5 C 519.8 30.5 520.1 33.0 520.6 34.2 C 521.2 35.3 521.5 36.1 522.1 36.2 C 522.7 36.3 523.0 36.3 523.6 36.3 C 524.2 36.3 524.5 34.9 525.1 33.8 C 525.7 32.8 525.9 32.2 526.5 31.2 C 527.1 30.2 527.4 30.0 528.0 28.7 C 528.6 27.5 528.9 25.0 529.5 25.0 C 530.1 25.0 530.4 25.3 531.0 25.3 C 531.5 25.3 531.8 25.1 532.4 25.1 C 533.0 25.1 533.3 33.4 533.9 33.7 C 534.5 34.1 534.8 33.7 535.4 34.1 C 535.6 34.4 536 35.2 536 35.2 L 536 40 L 469.1 40" ></path><path fill="none" d="M 0 28.4 C 0 28.4 1.4 28.0 2.3 26.6 C 2.9 25.7 3.2 22.8 3.8 22.8 C 4.4 22.8 4.7 30.9 5.3 31.7 C 5.8 32.6 6.1 32.6 6.7 32.6 C 7.3 32.6 7.6 25.9 8.2 25.9 C 8.8 25.9 9.1 26.4 9.7 26.4 C 10.3 26.4 10.6 26.4 11.1 24.8 C 11.7 23.2 12.0 18.2 12.6 18.2 C 13.2 18.2 13.5 18.2 14.1 18.9 C 14.7 19.7 15.0 22.2 15.6 22.2 C 16.2 22.2 16.5 16.3 17.0 16.3 C 17.6 16.3 17.9 16.4 18.5 18.4 C 19.1 20.4 19.4 24.0 20.0 26.1 C 20.6 28.1 20.9 28.6 21.5 28.6 C 22.0 28.6 22.3 27.9 22.9 26.3 C 23.5 24.7 23.8 20.6 24.4 20.6 C 25.0 20.6 25.3 21.7 25.9 22.2 C 26.5 22.8 26.8 23.4 27.3 23.4 C 27.9 23.4 28.2 21.7 28.8 21.7 C 29.4 21.7 29.7 22.0 30.3 22.2 C 30.9 22.5 31.2 22.9 31.8 22.9 C 32.4 22.9 32.6 21.4 33.2 21.4 C 33.8 21.4 34.1 21.4 34.7 21.6 C 35.3 21.8 35.6 26.0 36.2 26.4 C 36.8 26.8 37.1 26.4 37.7 26.8 C 38.2 27.2 38.5 28.7 39.1 28.7 C 39.7 28.7 40.0 22.6 40.6 22.6 C 41.2 22.6 41.5 24.5 42.1 25.3 C 42.7 26.1 43.0 26.2 43.5 26.5 C 44.1 26.8 44.4 26.7 45.0 26.9 C 45.6 27.1 45.9 27.4 46.5 27.6 C 47.1 27.7 47.4 27.6 48.0 27.8 C 48.6 28.0 48.8 28.9 49.4 28.9 C 50.0 28.9 50.3 28.9 50.9 28.0 C 51.5 27.1 51.8 24.5 52.4 24.5 C 53.0 24.5 53.3 26.4 53.9 27.1 C 54.4 27.8 54.7 27.1 55.3 28.0 C 55.9 28.8 56.2 31.5 56.8 31.5 C 57.4 31.5 57.7 27.8 58.3 27.8 C 58.9 27.8 59.2 31.4 59.7 31.4 C 60.3 31.4 60.6 31.4 61.2 31.3 C 61.8 31.2 62.1 27.4 62.7 27.4 C 63.3 27.4 63.6 30.8 64.2 31.1 C 64.7 31.4 65.0 31.4 65.6 31.4 C 66.2 31.4 66.5 27.3 67.1 25.6 C 67.7 24.0 68.0 23.7 68.6 23.0 C 69.2 22.3 69.5 22.0 70.1 22.0 C 70.6 22.0 70.9 22.2 71.5 22.2 C 72.1 22.2 72.4 21.1 73.0 21.0 C 73.6 20.9 73.9 20.9 74.5 20.9 C 75.1 20.9 75.4 21.2 75.9 21.2 C 76.5 21.2 76.8 21.1 77.4 21.1 C 78.0 21.1 78.3 21.1 78.9 21.2 C 79.5 21.2 79.8 21.3 80.4 21.3 C 80.9 21.3 81.2 20.6 81.8 20.6 C 82.4 20.6 82.7 20.6 83.3 21.7 C 83.9 22.8 84.2 26.9 84.8 27.5 C 85.4 28.0 85.7 28.0 86.2 28.0 C 86.8 28.0 87.1 25.6 87.7 24.3 C 88.3 22.9 88.6 22.0 89.2 21.3 C 89.8 20.5 90.1 20.4 90.7 20.4 C 91.3 20.4 91.5 22.2 92.1 22.2 C 92.7 22.2 93.0 19.6 93.6 19.6 C 94.2 19.6 94.5 19.8 95.1 20.0 C 95.7 20.2 96.0 20.3 96.6 20.6 C 97.1 21.0 97.4 21.6 98.0 21.6 C 98.6 21.6 98.9 20.2 99.5 20.2 C 100.1 20.2 100.4 20.2 101.0 20.3 C 101.6 20.4 101.9 21.6 102.4 22.0 C 103.0 22.5 103.3 22.6 103.9 22.6 C 104.5 22.6 104.8 20.5 105.4 20.5 C 106.0 20.5 106.3 21.9 106.9 22.7 C 107.5 23.4 107.7 24.4 108.3 24.4 C 108.9 24.4 109.2 19.9 109.8 19.9 C 110.4 19.9 110.7 22.2 111.3 22.2 C 111.9 22.2 112.2 21.4 112.8 21.4 C 113.3 21.4 113.6 23.7 114.2 24.1 C 114.8 24.4 115.1 24.4 115.7 24.4 C 116.3 24.4 116.6 23.3 117.2 22.6 C 117.8 21.8 118.1 20.4 118.6 20.4 C 119.2 20.4 119.5 22.0 120.1 23.1 C 120.7 24.2 121.0 26.0 121.6 26.0 C 122.2 26.0 122.5 25.6 123.1 25.0 C 123.7 24.4 123.9 23.0 124.5 23.0 C 125.1 23.0 125.4 25.1 126.0 25.2 C 126.6 25.3 126.9 25.3 127.5 25.3 C 128.1 25.3 128.4 22.1 129.0 21.9 C 129.5 21.7 129.8 21.9 130.4 21.7 C 131.0 21.5 131.3 20.5 131.9 20.5 C 132.5 20.5 132.8 23.7 133.4 23.7 C 134.0 23.7 134.3 19.9 134.8 19.3 C 135.4 18.6 135.7 18.6 136.3 18.6 C 136.9 18.6 137.2 21.6 137.8 21.6 C 138.4 21.6 138.7 16.4 139.3 16.4 C 139.8 16.4 140.1 17.7 140.7 18.7 C 141.3 19.8 141.6 21.6 142.2 21.6 C 142.8 21.6 143.1 20.3 143.7 19.0 C 144.3 17.8 144.6 15.2 145.1 15.2 C 145.7 15.2 146.0 16.3 146.6 16.3 C 147.2 16.3 147.5 16.3 148.1 16.3 C 148.7 16.3 149.0 16.8 149.6 17.9 C 150.2 19.0 150.5 21.8 151.0 21.8 C 151.6 21.8 151.9 21.8 152.5 21.7 C 153.1 21.6 153.4 19.4 154.0 18.2 C 154.6 17.0 154.9 15.8 155.5 15.8 C 156.0 15.8 156.3 17.0 156.9 18.1 C 157.5 19.2 157.8 21.4 158.4 21.4 C 159.0 21.4 159.3 20.5 159.9 19.2 C 160.5 17.8 160.8 14.7 161.3 14.7 C 161.9 14.7 162.2 19.7 162.8 19.7 C 163.4 19.7 163.7 17.2 164.3 17.2 C 164.9 17.2 165.2 20.1 165.8 20.1 C 166.4 20.1 166.6 12.1 167.2 12.1 C 167.8 12.1 168.1 18.6 168.7 18.6 C 169.3 18.6 169.6 15.1 170.2 15.1 C 170.8 15.1 171.1 17.0 171.7 17.0 C 172.2 17.0 172.5 13.3 173.1 13.3 C 173.7 13.3 174.0 17.9 174.6 17.9 C 175.2 17.9 175.5 16.2 176.1 15.2 C 176.7 14.2 177.0 13.5 177.5 13.0 C 178.1 12.4 178.4 12.4 179.0 12.4 C 179.6 12.4 179.9 13.7 180.5 15.6 C 181.1 17.6 181.4 22.2 182.0 22.2 C 182.6 22.2 182.8 17.4 183.4 17.4 C 184.0 17.4 184.3 18.7 184.9 18.8 C 185.5 18.9 185.8 18.9 186.4 18.9 C 187.0 18.9 187.3 15.4 187.9 15.4 C 188.4 15.4 188.7 16.7 189.3 16.9 C 189.9 17.1 190.2 16.9 190.8 17.1 C 191.4 17.3 191.7 18.5 192.3 18.5 C 192.9 18.5 193.2 17.4 193.7 17.4 C 194.3 17.4 194.6 20.1 195.2 20.1 C 195.8 20.1 196.1 17.9 196.7 17.7 C 197.3 17.4 197.6 17.7 198.2 17.4 C 198.7 17.2 199.0 13.7 199.6 13.7 C 200.2 13.7 200.5 14.4 201.1 14.4 C 201.7 14.4 202.0 13.3 202.6 13.3 C 203.2 13.3 203.5 13.4 204.1 13.4 C 204.6 13.4 204.9 13.4 205.5 13.4 C 206.1 13.4 206.4 15.1 207.0 15.1 C 207.6 15.1 207.9 14.1 208.5 14.1 C 209.1 14.1 209.4 15.2 209.9 15.2 C 210.5 15.2 210.8 13.2 211.4 13.0 C 212.0 12.8 212.3 12.8 212.9 12.8 C 213.5 12.8 213.8 12.8 214.4 13.3 C 214.9 13.8 215.2 15.3 215.8 16.0 C 216.4 16.7 216.7 16.8 217.3 16.8 C 217.9 16.8 218.2 13.4 218.8 13.4 C 219.4 13.4 219.7 15.6 220.2 15.6 C 220.8 15.6 221.1 13.9 221.7 13.9 C 222.3 13.9 222.6 14.5 223.2 14.5 C 223.8 14.5 224.1 13.0 224.7 13.0 C 225.3 13.0 225.5 13.4 226.1 14.5 C 226.7 15.5 227.0 18.1 227.6 18.1 C 228.2 18.1 228.5 15.4 229.1 15.4 C 229.7 15.4 230.0 19.2 230.6 19.2 C 231.1 19.2 231.4 18.9 232.0 18.1 C 232.6 17.3 232.9 16.2 233.5 15.3 C 234.1 14.4 234.4 13.7 235.0 13.7 C 235.6 13.7 235.9 13.9 236.4 13.9 C 237.0 13.9 237.3 13.1 237.9 13.1 C 238.5 13.1 238.8 13.5 239.4 13.5 C 240.0 13.5 240.3 12.1 240.9 12.1 C 241.5 12.1 241.7 16.2 242.3 16.2 C 242.9 16.2 243.2 14.8 243.8 14.8 C 244.4 14.8 244.7 16.9 245.3 17.7 C 245.9 18.4 246.2 18.4 246.8 18.4 C 247.3 18.4 247.6 10.7 248.2 10.7 C 248.8 10.7 249.1 13.1 249.7 13.1 C 250.3 13.1 250.6 10.8 251.2 10.8 C 251.8 10.8 252.1 11.9 252.6 11.9 C 253.2 11.9 253.5 11.9 254.1 11.8 C 254.7 11.7 255.0 8.6 255.6 8.6 C 256.2 8.6 256.5 13.1 257.1 13.1 C 257.7 13.1 257.9 11.7 258.5 10.6 C 259.1 9.6 259.4 7.9 260.0 7.9 C 260.6 7.9 260.9 8.9 261.5 8.9 C 262.1 8.9 262.4 7.8 263.0 7.3 C 263.5 6.8 263.8 7.0 264.4 6.4 C 265.0 5.8 265.3 4.2 265.9 4.2 C 266.5 4.2 266.8 7.0 267.4 7.0 C 268.0 7.0 268.3 7.0 268.8 6.8 C 269.4 6.6 269.7 6.2 270.3 5.7 C 270.9 5.3 271.2 4.5 271.8 4.5 C 272.4 4.5 272.7 4.7 273.3 4.7 C 273.8 4.7 274.1 3.3 274.7 3.3 C 275.3 3.3 275.6 6.3 276.2 7.9 C 276.8 9.4 277.1 10.1 277.7 11.1 C 278.3 12.0 278.6 12.4 279.1 12.4 C 279.7 12.4 280.0 9.9 280.6 9.9 C 281.2 9.9 281.5 10.8 282.1 10.8 C 282.7 10.8 283.0 10.7 283.6 10.5 C 284.2 10.3 284.5 10.1 285.0 9.9 C 285.6 9.7 285.9 9.9 286.5 9.7 C 287.1 9.5 287.4 9.2 288.0 8.8 C 288.6 8.4 288.9 7.8 289.5 7.8 C 290.0 7.8 290.3 10.1 290.9 10.1 C 291.5 10.1 291.8 8.8 292.4 8.2 C 293.0 7.6 293.3 7.1 293.9 7.1 C 294.5 7.1 294.8 7.9 295.3 8.3 C 295.9 8.7 296.2 9.0 296.8 9.2 C 297.4 9.5 297.7 9.5 298.3 9.5 C 298.9 9.5 299.2 9.5 299.8 9.5 C 300.4 9.5 300.6 8.7 301.2 8.7 C 301.8 8.7 302.1 9.0 302.7 9.0 C 303.3 9.0 303.6 8.8 304.2 8.8 C 304.8 8.8 305.1 9.2 305.7 9.6 C 306.2 9.9 306.5 10.3 307.1 10.5 C 307.7 10.7 308.0 10.7 308.6 10.7 C 309.2 10.7 309.5 9.7 310.1 9.7 C 310.7 9.7 311.0 10.1 311.5 10.7 C 312.1 11.3 312.4 12.7 313.0 12.7 C 313.6 12.7 313.9 11.3 314.5 10.5 C 315.1 9.8 315.4 9.6 316.0 8.8 C 316.6 8.1 316.8 6.8 317.4 6.8 C 318.0 6.8 318.3 9.6 318.9 9.6 C 319.5 9.6 319.8 5.2 320.4 5.2 C 321.0 5.2 321.3 7.4 321.9 7.5 C 322.4 7.6 322.7 7.6 323.3 7.6 C 323.9 7.7 324.2 7.6 324.8 7.8 C 325.4 7.9 325.7 11.1 326.3 11.1 C 326.9 11.1 327.2 8.6 327.7 8.6 C 328.3 8.6 328.6 9.2 329.2 9.6 C 329.8 10.0 330.1 10.0 330.7 10.6 C 331.3 11.3 331.6 12.1 332.2 12.9 C 332.7 13.6 333.0 14.5 333.6 14.5 C 334.2 14.5 334.5 11.9 335.1 10.8 C 335.7 9.8 336.0 9.1 336.6 9.1 C 337.2 9.1 337.5 10.7 338.1 11.7 C 338.6 12.7 338.9 14.0 339.5 14.0 C 340.1 14.0 340.4 8.8 341.0 8.7 C 341.6 8.6 341.9 8.6 342.5 8.6 C 343.1 8.6 343.4 11.0 343.9 11.0 C 344.5 11.0 344.8 10.2 345.4 10.2 C 346.0 10.2 346.9 10.2 346.9 10.2 M 349.8 11.6 C 349.8 11.6 350.7 12.0 351.3 12.0 C 351.9 12.0 352.2 8.7 352.8 8.7 C 353.4 8.7 353.7 10.4 354.2 10.4 C 354.8 10.4 355.1 9.6 355.7 9.6 C 356.3 9.6 356.6 10.7 357.2 10.7 C 357.8 10.7 358.1 10.0 358.7 10.0 C 359.3 10.0 359.5 11.1 360.1 11.6 C 360.7 12.1 361.0 12.3 361.6 12.3 C 362.2 12.3 362.5 10.4 363.1 10.4 C 363.7 10.4 364.6 11.2 364.6 11.2 M 367.5 10.7 C 367.5 10.7 368.4 12.7 369.0 12.7 C 369.6 12.7 369.9 10.1 370.4 10.1 C 371.0 10.1 371.3 11.9 371.9 11.9 C 372.5 11.9 372.8 11.2 373.4 11.2 C 374.0 11.2 374.3 11.2 374.9 11.6 C 375.5 12.0 375.7 12.6 376.3 13.4 C 376.9 14.2 377.2 15.1 377.8 15.7 C 378.4 16.3 378.7 16.4 379.3 16.4 C 379.9 16.4 380.2 13.5 380.8 13.2 C 381.3 12.9 381.6 13.1 382.2 12.9 C 382.8 12.7 383.1 12.2 383.7 12.2 C 384.3 12.2 384.6 15.1 385.2 15.1 C 385.8 15.1 386.1 12.3 386.6 12.3 C 387.2 12.3 387.5 13.3 388.1 13.3 C 388.7 13.3 389.0 12.1 389.6 12.1 C 390.2 12.1 390.5 13.5 391.1 14.0 C 391.7 14.6 391.9 14.7 392.5 14.7 C 393.1 14.7 393.4 13.0 394.0 11.6 C 394.6 10.1 394.9 7.4 395.5 7.4 C 396.1 7.4 396.4 11.7 397.0 13.7 C 397.5 15.7 397.8 17.6 398.4 17.6 C 399.0 17.6 399.9 17.2 399.9 17.2 M 404.3 18.4 C 404.3 18.4 405.2 18.9 405.8 19.0 C 406.4 19.2 406.7 19.0 407.3 19.3 C 407.8 19.5 408.1 20.2 408.7 20.6 C 409.3 21.1 409.6 21.7 410.2 21.7 C 410.8 21.7 411.1 18.8 411.7 18.7 C 412.3 18.6 412.6 18.6 413.1 18.6 C 413.7 18.6 414.0 20.2 414.6 21.5 C 415.2 22.8 415.5 24.9 416.1 24.9 C 416.7 24.9 417.0 21.8 417.6 21.8 C 418.2 21.8 418.5 21.8 419.0 22.0 C 419.6 22.2 419.9 24.3 420.5 24.9 C 421.1 25.5 421.4 25.5 422.0 25.5 C 422.6 25.5 422.9 21.4 423.5 19.8 C 424.0 18.2 424.3 17.6 424.9 17.6 C 425.5 17.6 425.8 20.8 426.4 22.0 C 427.0 23.2 427.3 23.5 427.9 23.5 C 428.5 23.5 428.8 19.3 429.3 19.3 C 429.9 19.3 430.2 23.1 430.8 23.1 C 431.4 23.1 431.7 21.5 432.3 21.2 C 432.9 20.9 433.2 21.2 433.8 20.9 C 434.4 20.5 434.6 19.9 435.2 19.2 C 435.8 18.4 436.1 17.2 436.7 17.2 C 437.3 17.2 437.6 17.7 438.2 18.7 C 438.8 19.7 439.1 22.2 439.7 22.2 C 440.2 22.2 440.5 22.2 441.1 22.2 C 441.7 22.2 442.0 23.2 442.6 23.4 C 443.2 23.6 443.5 23.6 444.1 23.6 C 444.7 23.6 445.0 21.9 445.5 21.9 C 446.1 21.9 446.4 23.0 447.0 23.0 C 447.6 23.0 447.9 17.4 448.5 17.4 C 449.1 17.4 449.4 22.2 450.0 22.2 C 450.6 22.2 450.8 22.2 451.4 22.2 C 452.0 22.2 452.3 22.2 452.9 22.2 C 453.5 22.2 453.8 24.2 454.4 24.6 C 455.0 25.0 455.3 25.0 455.9 25.0 C 456.4 25.0 456.7 24.6 457.3 24.1 C 457.9 23.5 458.2 22.2 458.8 22.2 C 459.4 22.2 459.7 23.7 460.3 24.3 C 460.9 24.8 461.2 25.0 461.7 25.0 C 462.3 25.0 462.6 25.0 463.2 25.0 C 463.8 25.0 464.1 26.4 464.7 26.9 C 465.3 27.5 466.2 27.8 466.2 27.8 M 469.1 20.9 C 469.1 20.9 470.0 22.3 470.6 22.3 C 471.2 22.3 471.5 21.4 472.1 20.4 C 472.6 19.4 472.9 17.8 473.5 17.4 C 474.1 17.1 474.4 17.2 475.0 17.1 C 475.6 17.0 475.9 17.0 476.5 17.0 C 477.1 17.0 477.4 19.7 477.9 19.7 C 478.5 19.7 478.8 19.7 479.4 19.7 C 480.0 19.7 480.3 20.2 480.9 20.2 C 481.5 20.2 481.8 19.2 482.4 19.2 C 482.9 19.2 483.2 19.2 483.8 19.2 C 484.4 19.2 484.7 18.1 485.3 18.1 C 485.9 18.1 486.2 20.6 486.8 21.4 C 487.4 22.2 487.7 22.2 488.2 22.2 C 488.8 22.2 489.1 20.6 489.7 20.6 C 490.3 20.6 490.6 26.3 491.2 26.3 C 491.8 26.3 492.1 26.0 492.7 25.8 C 493.3 25.5 493.5 25.3 494.1 25.2 C 494.7 25.1 495.0 25.2 495.6 25.1 C 496.2 25.0 496.5 23.6 497.1 23.0 C 497.7 22.3 498.0 22.7 498.6 21.9 C 499.1 21.2 499.4 19.2 500.0 19.2 C 500.6 19.2 500.9 22.2 501.5 22.2 C 502.1 22.2 502.4 21.6 503.0 21.6 C 503.6 21.6 503.9 22.1 504.4 22.1 C 505.0 22.1 505.3 19.3 505.9 19.3 C 506.5 19.3 506.8 22.1 507.4 23.5 C 508.0 25.0 508.3 26.5 508.9 26.5 C 509.5 26.5 509.7 23.9 510.3 23.0 C 510.9 22.0 511.2 21.7 511.8 21.7 C 512.4 21.7 512.7 21.7 513.3 23.3 C 513.9 24.9 514.2 28.2 514.8 30.5 C 515.3 32.9 515.6 33.7 516.2 34.9 C 516.8 36.1 517.1 36.6 517.7 36.6 C 518.3 36.6 518.6 30.5 519.2 30.5 C 519.8 30.5 520.1 33.0 520.6 34.2 C 521.2 35.3 521.5 36.1 522.1 36.2 C 522.7 36.3 523.0 36.3 523.6 36.3 C 524.2 36.3 524.5 34.9 525.1 33.8 C 525.7 32.8 525.9 32.2 526.5 31.2 C 527.1 30.2 527.4 30.0 528.0 28.7 C 528.6 27.5 528.9 25.0 529.5 25.0 C 530.1 25.0 530.4 25.3 531.0 25.3 C 531.5 25.3 531.8 25.1 532.4 25.1 C 533.0 25.1 533.3 33.4 533.9 33.7 C 534.5 34.1 534.8 33.7 535.4 34.1 C 535.6 34.4 536 35.2 536 35.2" stroke="#4572A7" stroke-width="1"  stroke-linejoin="round" stroke-linecap="round"></path></g><g class="highcharts-markers" visibility="visible"  transform="translate(24,331) scale(1 1)" clip-path="url(#highcharts-2)"></g></g><g class="highcharts-navigator" ><rect fill="rgb(128,179,236)" fill-opacity="0.3" style="cursor:ew-resize ;" x="295" y="331" width="265" height="40"></rect><path fill="none" stroke="#b2b1b6" stroke-width="1" d="M 10 331.5 L 294.5 331.5 294.5 385.5 L 559.5 385.5 L 559.5 331.5 574 331.5 M 295.5 331.5 L 559.5 331.5"></path></g><g class="highcharts-navigator-handle-right" style="cursor:ew-resize;"  transform="translate(560,343)"><rect x="-4.5" y="0.5" width="8" height="15" strokeWidth="1" fill="#ebe7e8" stroke="#b2b1b6" stroke-width="1"></rect><path fill="#ebe7e8" d="M -1.5 4 L -1.5 12 M 0.5 4 L 0.5 12" stroke="#b2b1b6" stroke-width="1"></path></g><text x="292" text-anchor="middle" class="highcharts-title"  style="color:#333333;font-size:16px;fill:#333333;width:520px;" y="22"><tspan>Temperature variation by day</tspan></text><g class="highcharts-navigator-handle-left" style="cursor:ew-resize;"  transform="translate(295,343)"><rect x="-4.5" y="0.5" width="8" height="15" strokeWidth="1" fill="#ebe7e8" stroke="#b2b1b6" stroke-width="1"></rect><path fill="#ebe7e8" d="M -1.5 4 L -1.5 12 M 0.5 4 L 0.5 12" stroke="#b2b1b6" stroke-width="1"></path></g><g class="highcharts-axis-labels highcharts-xaxis-labels" ><text x="98.7" style="color:#606060;cursor:default;font-size:11px;fill:#606060;width:103px;text-overflow:clip;" text-anchor="middle" transform="translate(0,0)" y="304" opacity="1"><tspan>Aug '09</tspan></text><text x="195.2" style="color:#606060;cursor:default;font-size:11px;fill:#606060;width:103px;text-overflow:clip;" text-anchor="middle" transform="translate(0,0)" y="304" opacity="1"><tspan>Sep '09</tspan></text><text x="288.7" style="color:#606060;cursor:default;font-size:11px;fill:#606060;width:103px;text-overflow:clip;" text-anchor="middle" transform="translate(0,0)" y="304" opacity="1"><tspan>Oct '09</tspan></text><text x="385.3" style="color:#606060;cursor:default;font-size:11px;fill:#606060;width:103px;text-overflow:clip;" text-anchor="middle" transform="translate(0,0)" y="304" opacity="1"><tspan>Nov '09</tspan></text><text x="478.8" style="color:#606060;cursor:default;font-size:11px;fill:#606060;width:103px;text-overflow:clip;" text-anchor="middle" transform="translate(0,0)" y="304" opacity="1"><tspan>Dec '09</tspan></text></g><g class="highcharts-axis-labels highcharts-xaxis-labels" ><text x="203.6" style="color:#888;cursor:default;font-size:11px;fill:#888;width:272px;text-overflow:clip;" text-anchor="start" transform="translate(0,0)" y="367" opacity="1"><tspan>May '09</tspan></text><text x="384.7" style="color:#888;cursor:default;font-size:11px;fill:#888;width:272px;text-overflow:clip;" text-anchor="start" transform="translate(0,0)" y="367" opacity="1"><tspan>Sep '09</tspan></text></g><g class="highcharts-axis-labels highcharts-yaxis-labels" ><text x="574" style="color:#606060;cursor:default;font-size:11px;fill:#606060;width:183px;text-overflow:clip;" text-anchor="end" transform="translate(0,0)" y="283" opacity="1">-20</text><text x="574" style="color:#606060;cursor:default;font-size:11px;fill:#606060;width:183px;text-overflow:clip;" text-anchor="end" transform="translate(0,0)" y="214" opacity="1">0</text><text x="574" style="color:#606060;cursor:default;font-size:11px;fill:#606060;width:183px;text-overflow:clip;" text-anchor="end" transform="translate(0,0)" y="146" opacity="1">20</text><text x="0" style="color:#606060;cursor:default;font-size:11px;fill:#606060;width:183px;text-overflow:clip;" text-anchor="end" transform="translate(0,0)" y="-9999">40</text></g><g class="highcharts-axis-labels highcharts-yaxis-labels" ></g><g class="highcharts-tooltip"  style="cursor:default;padding:0;white-space:nowrap;" transform="translate(0,-9999)"><path fill="none" d="M 3 0 L 13 0 C 16 0 16 0 16 3 L 16 13 C 16 16 16 16 13 16 L 3 16 C 0 16 0 16 0 13 L 0 3 C 0 0 0 0 3 0"  stroke="black" stroke-opacity="0.0" stroke-width="5" transform="translate(1, 1)"></path><path fill="none" d="M 3 0 L 13 0 C 16 0 16 0 16 3 L 16 13 C 16 16 16 16 13 16 L 3 16 C 0 16 0 16 0 13 L 0 3 C 0 0 0 0 3 0"  stroke="black" stroke-opacity="0.0" stroke-width="3" transform="translate(1, 1)"></path><path fill="none" d="M 3 0 L 13 0 C 16 0 16 0 16 3 L 16 13 C 16 16 16 16 13 16 L 3 16 C 0 16 0 16 0 13 L 0 3 C 0 0 0 0 3 0"  stroke="black" stroke-opacity="0.1" stroke-width="1" transform="translate(1, 1)"></path><path fill="rgb(249, 249, 249)" fill-opacity=" .85" d="M 3 0 L 13 0 C 16 0 16 0 16 3 L 16 13 C 16 16 16 16 13 16 L 3 16 C 0 16 0 16 0 13 L 0 3 C 0 0 0 0 3 0"></path><text x="8"  style="font-size:12px;color:#333333;fill:#333333;" y="20"></text></g></svg>