<svg version="1.1" style="font-family:&quot;lucida grande&quot;, &quot;lucida sans unicode&quot;, arial, helvetica, sans-serif;font-size:12px;" xmlns="http://www.w3.org/2000/svg" width="584" height="400" viewBox="0 0 584 400"><desc>Created with Highstock 2.1.0</desc><defs><clipPath id="highcharts-1"><rect x="0" y="0" width="564" height="206"></rect></clipPath><clipPath id="highcharts-2"><rect x="-99" y="-79" width="663" height="400"></rect></clipPath><clipPath id="highcharts-3"><rect x="0" y="0" width="564" height="40"></rect></clipPath></defs><rect x="0" y="0" width="584" height="400" strokeWidth="0" fill="#FFFFFF" class=" highcharts-background"></rect><g class="highcharts-scrollbar" transform="translate(10,372)"><rect x="0" y="-0.5" fill="#eeeeee" stroke="#eeeeee" stroke-width="1" rx="0" ry="0" height="14" width="564"></rect><rect y="-0.5" height="14" fill="#bfc8d1" stroke="#bfc8d1" stroke-width="1" rx="0" ry="0" x="531.5" width="18"></rect><path fill="none" stroke="#666" stroke-width="1" visibility="visible" d="M 537 3.5 L 537 9.3 M 540 3.5 L 540 9.3 M 543 3.5 L 543 9.3"></path><g><rect x="-0.5" y="-0.5" width="14" height="14" strokeWidth="1" stroke="#bbb" stroke-width="1" fill="#ebe7e8"></rect><path fill="#666" d="M 8 4 L 8 10 5 7"></path></g><g transform="translate(550,0)"><rect x="-0.5" y="-0.5" width="14" height="14" strokeWidth="1" stroke="#bbb" stroke-width="1" fill="#ebe7e8"></rect><path fill="#666" d="M 6 4 L 6 10 9 7"></path></g></g><g class="highcharts-range-selector-buttons"><text x="10" y="59" style="color:#666;fill:#666;">Zoom</text><g class="highcharts-button"  states="[object Object]" style="cursor:pointer;text-align:center;" transform="translate(46,44)"><rect x="0" y="0" width="32" height="22" strokeWidth="0" fill="#f7f7f7" rx="0" ry="0"></rect><text x="7.5"  style="font-weight:normal;color:#444;fill:#444;" y="14">1m</text></g><g class="highcharts-button"  states="[object Object]" style="cursor:pointer;text-align:center;" transform="translate(83,44)"><rect x="0" y="0" width="32" height="22" strokeWidth="0" fill="#e7f0f9" rx="0" ry="0"></rect><text x="7.5"  style="font-weight:bold;color:black;fill:black;" y="14">3m</text></g><g class="highcharts-button"  states="[object Object]" style="cursor:pointer;text-align:center;" transform="translate(120,44)"><rect x="0" y="0" width="32" height="22" strokeWidth="0" fill="#f7f7f7" rx="0" ry="0"></rect><text x="7.5"  style="font-weight:normal;color:#444;fill:#444;" y="14">6m</text></g><g class="highcharts-button"  states="[object Object]" style="cursor:pointer;text-align:center;" transform="translate(157,44)"><rect x="0" y="0" width="32" height="22" strokeWidth="0" fill="#f7f7f7" rx="0" ry="0"></rect><text x="4"  style="font-weight:normal;color:#444;fill:#444;" y="14">YTD</text></g><g class="highcharts-button"  states="[object Object]" style="cursor:pointer;text-align:center;" transform="translate(194,44)"><rect x="0" y="0" width="32" height="22" strokeWidth="0" fill="#f7f7f7" rx="0" ry="0"></rect><text x="9.5"  style="font-weight:normal;color:#444;fill:#444;" y="14">1y</text></g><g class="highcharts-button"  states="[object Object]" style="cursor:pointer;text-align:center;" transform="translate(231,44)"><rect x="0" y="0" width="32" height="22" strokeWidth="0" fill="#f7f7f7" rx="0" ry="0"></rect><text x="10"  style="font-weight:normal;color:#444;fill:#444;" y="14">All</text></g></g><g class="highcharts-input-group" transform="translate(316,44)" visibility="visible"><g style="fill:#666;" transform="translate(0,0)"><text x="2"  style="font-size:12px;font-family:&quot;lucida grande&quot;, &quot;lucida sans unicode&quot;, arial, helvetica, sans-serif;color:#666;fill:#666;" y="14">From</text></g><g style="text-align:center;" transform="translate(36,0)"><rect x="0.5" y="0.5" width="94" height="21" strokeWidth="1" fill="none" stroke="silver" stroke-width="1"></rect><text x="13.5"  style="font-size:12px;font-family:&quot;lucida grande&quot;, &quot;lucida sans unicode&quot;, arial, helvetica, sans-serif;color:#444;fill:#444;" y="14"><tspan>Feb 9, 2013</tspan></text></g><g style="fill:#666;" transform="translate(140,0)"><text x="2"  style="font-size:12px;font-family:&quot;lucida grande&quot;, &quot;lucida sans unicode&quot;, arial, helvetica, sans-serif;color:#666;fill:#666;" y="14">To</text></g><g style="text-align:center;" transform="translate(164,0)"><rect x="0.5" y="0.5" width="94" height="21" strokeWidth="1" fill="none" stroke="silver" stroke-width="1"></rect><text x="9.5"  style="font-size:12px;font-family:&quot;lucida grande&quot;, &quot;lucida sans unicode&quot;, arial, helvetica, sans-serif;color:#444;fill:#444;" y="14"><tspan>May 10, 2013</tspan></text></g></g><g class="highcharts-grid" ></g><g class="highcharts-grid" ><path fill="none" d="M 148.5 331 L 148.5 371" stroke="#EEE" stroke-width="1"  opacity="1"></path><path fill="none" d="M 302.5 331 L 302.5 371" stroke="#EEE" stroke-width="1"  opacity="1"></path><path fill="none" d="M 455.5 331 L 455.5 371" stroke="#EEE" stroke-width="1"  opacity="1"></path></g><g class="highcharts-grid" ><path fill="none" d="M 10 285.5 L 574 285.5" stroke="#D8D8D8" stroke-width="1"  opacity="1"></path><path fill="none" d="M 10 216.5 L 574 216.5" stroke="#D8D8D8" stroke-width="1"  opacity="1"></path><path fill="none" d="M 10 148.5 L 574 148.5" stroke="#D8D8D8" stroke-width="1"  opacity="1"></path><path fill="none" d="M 10 78.5 L 574 78.5" stroke="#D8D8D8" stroke-width="1"  opacity="1"></path></g><g class="highcharts-grid" ></g><g class="highcharts-axis" ><path fill="none" d="M 82.5 285 L 82.5 295" stroke="#C0D0E0" stroke-width="1" opacity="1"></path><path fill="none" d="M 163.5 285 L 163.5 295" stroke="#C0D0E0" stroke-width="1" opacity="1"></path><path fill="none" d="M 244.5 285 L 244.5 295" stroke="#C0D0E0" stroke-width="1" opacity="1"></path><path fill="none" d="M 326.5 285 L 326.5 295" stroke="#C0D0E0" stroke-width="1" opacity="1"></path><path fill="none" d="M 407.5 285 L 407.5 295" stroke="#C0D0E0" stroke-width="1" opacity="1"></path><path fill="none" d="M 489.5 285 L 489.5 295" stroke="#C0D0E0" stroke-width="1" opacity="1"></path><path fill="none" d="M 570.5 285 L 570.5 295" stroke="#C0D0E0" stroke-width="1" opacity="1"></path><path fill="none" d="M 10 285.5 L 574 285.5" stroke="#C0D0E0" stroke-width="1"  visibility="visible"></path></g><g class="highcharts-axis" ></g><g class="highcharts-axis" ></g><g class="highcharts-axis" ></g><g class="highcharts-series-group" ><g class="highcharts-series highcharts-tracker" visibility="visible"  transform="translate(10,79) scale(1 1)" style=""><rect x="22" y="92" width="20" height="115" fill="#7cb5ec" rx="0" ry="0"></rect><rect x="63" y="124" width="20" height="83" fill="#7cb5ec" rx="0" ry="0"></rect><rect x="104" y="92" width="20" height="115" fill="#7cb5ec" rx="0" ry="0"></rect><rect x="144" y="82" width="20" height="125" fill="#7cb5ec" rx="0" ry="0"></rect><rect x="185" y="94" width="20" height="113" fill="#7cb5ec" rx="0" ry="0"></rect><rect x="226" y="98" width="20" height="109" fill="#7cb5ec" rx="0" ry="0"></rect><rect x="266" y="130" width="20" height="77" fill="#7cb5ec" rx="0" ry="0"></rect><rect x="307" y="108" width="20" height="99" fill="#7cb5ec" rx="0" ry="0"></rect><rect x="348" y="131" width="20" height="76" fill="#7cb5ec" rx="0" ry="0"></rect><rect x="389" y="68" width="20" height="139" fill="#7cb5ec" rx="0" ry="0"></rect><rect x="429" y="49" width="20" height="158" fill="#7cb5ec" rx="0" ry="0"></rect><rect x="470" y="78" width="20" height="129" fill="#7cb5ec" rx="0" ry="0"></rect><rect x="511" y="100" width="20" height="107" fill="#7cb5ec" rx="0" ry="0"></rect></g><g class="highcharts-markers" visibility="visible"  transform="translate(10,79) scale(1 1)"></g><g class="highcharts-series" visibility="visible"  transform="translate(24,331) scale(1 1)" clip-path="url(#highcharts-3)"><path fill="rgb(69,114,167)" fill-opacity="0.0" d="M 0 27.6 C 0 27.6 1.2 29.5 2.1 29.5 C 2.7 29.5 3.0 26.1 3.6 26.1 C 4.1 26.1 4.4 26.4 5.0 26.4 C 5.6 26.4 5.9 25.0 6.5 25.0 C 7.1 25.0 7.4 26.7 8.0 27.5 C 8.5 28.3 8.8 28.0 9.4 28.7 C 10.0 29.5 10.3 31.2 10.9 31.2 C 11.5 31.2 11.8 27.8 12.4 25.5 C 13.0 23.3 13.3 20.0 13.8 20.0 C 14.4 20.0 14.7 28.3 15.3 28.3 C 15.9 28.3 16.2 24.5 16.8 24.5 C 17.4 24.5 17.7 24.5 18.3 25.0 C 18.8 25.5 19.1 27.6 19.7 28.8 C 20.3 29.9 20.6 30.7 21.2 30.7 C 21.8 30.7 22.1 30.6 22.7 29.2 C 23.3 27.7 23.5 24.6 24.1 23.5 C 24.7 22.3 25.0 22.3 25.6 22.3 C 26.2 22.3 26.5 28.1 27.1 28.1 C 27.7 28.1 28.0 27.4 28.5 27.4 C 29.1 27.4 29.4 28.0 30.0 28.7 C 30.6 29.4 30.9 30.8 31.5 30.8 C 32.1 30.8 32.4 26.2 33.0 26.2 C 33.5 26.2 33.8 29.9 34.4 30.8 C 35.0 31.8 35.3 31.8 35.9 31.8 C 36.5 31.8 36.8 30.4 37.4 30.4 C 38.0 30.4 38.2 30.7 38.8 30.7 C 39.4 30.7 39.7 30.7 40.3 30.3 C 40.9 29.9 41.2 24.2 41.8 24.2 C 42.4 24.2 42.7 27.8 43.2 27.8 C 43.8 27.8 44.1 27.3 44.7 27.3 C 45.3 27.3 45.6 28.0 46.2 28.0 C 46.8 28.0 47.1 21.5 47.7 21.5 C 48.2 21.5 48.5 24.4 49.1 24.4 C 49.7 24.4 50.0 9.0 50.6 9.0 C 51.2 9.0 51.5 11.1 52.1 13.8 C 52.7 16.5 53.0 19.6 53.5 22.5 C 54.1 25.5 54.4 28.3 55.0 28.3 C 55.6 28.3 55.9 27.0 56.5 27.0 C 57.1 27.0 57.4 31.5 57.9 31.5 C 58.5 31.5 58.8 28.9 59.4 27.4 C 60.0 25.9 60.3 24.2 60.9 24.2 C 61.5 24.2 61.8 29.8 62.4 29.8 C 62.9 29.8 63.2 28.6 63.8 28.6 C 64.4 28.6 64.7 30.5 65.3 30.5 C 65.9 30.5 66.2 26.9 66.8 26.9 C 67.4 26.9 67.7 32.1 68.2 32.1 C 68.8 32.1 69.1 31.4 69.7 31.2 C 70.3 30.9 70.6 31.2 71.2 30.9 C 71.8 30.7 72.1 22.5 72.7 22.5 C 73.2 22.5 73.5 31.4 74.1 31.4 C 74.7 31.4 75.0 26.5 75.6 26.5 C 76.2 26.5 76.5 26.5 77.1 26.9 C 77.7 27.2 77.9 28.2 78.5 28.2 C 79.1 28.2 79.4 24.3 80.0 22.8 C 80.6 21.3 80.9 21.6 81.5 20.7 C 82.1 19.8 82.4 18.4 82.9 18.4 C 83.5 18.4 83.8 26.3 84.4 26.3 C 85.0 26.3 85.3 24.1 85.9 23.2 C 86.5 22.4 86.8 22.2 87.4 22.2 C 87.9 22.2 88.2 24.2 88.8 25.0 C 89.4 25.8 89.7 26.2 90.3 26.2 C 90.9 26.2 91.2 15.3 91.8 15.3 C 92.4 15.3 92.6 18.8 93.2 20.5 C 93.8 22.1 94.1 23.4 94.7 23.4 C 95.3 23.4 95.6 22.4 96.2 22.4 C 96.8 22.4 97.1 24.2 97.6 24.2 C 98.2 24.2 98.5 24.2 99.1 22.9 C 99.7 21.6 100.0 12.5 100.6 12.5 C 101.2 12.5 101.5 24.7 102.1 24.8 C 102.6 24.9 102.9 24.8 103.5 24.9 C 104.1 25.0 104.4 25.1 105.0 25.6 C 105.6 26.1 105.9 27.4 106.5 27.4 C 107.1 27.4 107.3 23.8 107.9 23.3 C 108.5 22.8 108.8 23.3 109.4 22.8 C 110.0 22.4 110.3 19.7 110.9 19.7 C 111.5 19.7 111.8 26.8 112.3 26.8 C 112.9 26.8 113.2 22.7 113.8 20.4 C 114.4 18.1 114.7 15.3 115.3 15.3 C 115.9 15.3 116.2 22.6 116.8 22.6 C 117.3 22.6 117.6 20.9 118.2 20.9 C 118.8 20.9 119.1 25.3 119.7 25.3 C 120.3 25.3 120.6 25.3 121.2 25.3 C 121.8 25.3 122.1 24.5 122.6 24.5 C 123.2 24.5 123.5 29.2 124.1 29.2 C 124.7 29.2 125.0 27.3 125.6 24.4 C 126.2 21.4 126.5 17.0 127.0 14.4 C 127.6 11.7 127.9 13.4 128.5 11.2 C 129.1 9.0 129.4 3.3 130.0 3.3 C 130.6 3.3 130.9 20.4 131.5 20.4 C 132.0 20.4 132.3 17.7 132.9 17.7 C 133.5 17.7 133.8 23.3 134.4 23.3 C 135.0 23.3 135.3 23.3 135.9 22.4 C 136.5 21.4 136.8 18.1 137.3 17.5 C 137.9 16.9 138.2 16.9 138.8 16.9 C 139.4 16.9 139.7 20.8 140.3 22.1 C 140.9 23.3 141.2 22.9 141.8 23.3 C 142.3 23.7 142.6 23.7 143.2 24.0 C 143.8 24.3 144.1 24.8 144.7 24.8 C 145.3 24.8 145.6 23.4 146.2 23.4 C 146.8 23.4 147.0 26.9 147.6 26.9 C 148.2 26.9 148.5 18.9 149.1 18.9 C 149.7 18.9 150.0 24.0 150.6 24.8 C 151.2 25.6 151.5 25.2 152.0 25.6 C 152.6 25.9 152.9 26.5 153.5 26.5 C 154.1 26.5 154.4 23.5 155.0 23.5 C 155.6 23.5 155.9 28.7 156.5 28.7 C 157.0 28.7 157.3 28.7 157.9 27.5 C 158.5 26.3 158.8 19.0 159.4 19.0 C 160.0 19.0 160.3 24.0 160.9 25.8 C 161.5 27.5 161.7 27.7 162.3 27.7 C 162.9 27.7 163.2 27.7 163.8 27.3 C 164.4 27.0 164.7 26.0 165.3 26.0 C 165.9 26.0 166.2 26.2 166.7 26.2 C 167.3 26.2 167.6 21.7 168.2 21.7 C 168.8 21.7 169.1 29.1 169.7 29.1 C 170.3 29.1 170.6 29.1 171.2 28.8 C 171.7 28.6 172.0 27.2 172.6 27.2 C 173.2 27.2 173.5 30.6 174.1 31.3 C 174.7 32.0 175.0 32.0 175.6 32.0 C 176.2 32.0 176.4 29.3 177.0 27.7 C 177.6 26.1 177.9 25.6 178.5 24.0 C 179.1 22.3 179.4 19.6 180.0 19.6 C 180.6 19.6 180.9 23.1 181.4 23.1 C 182.0 23.1 182.3 12.1 182.9 10.3 C 183.5 8.5 183.8 8.5 184.4 8.5 C 185.0 8.5 185.3 12.1 185.9 12.1 C 186.4 12.1 186.7 10.9 187.3 10.9 C 187.9 10.9 188.2 12.5 188.8 14.5 C 189.4 16.4 189.7 20.6 190.3 20.6 C 190.9 20.6 191.2 18.6 191.7 18.5 C 192.3 18.4 192.6 18.4 193.2 18.4 C 193.8 18.4 194.1 27.5 194.7 27.5 C 195.3 27.5 195.6 22.4 196.1 22.4 C 196.7 22.4 197.0 22.4 197.6 22.8 C 198.2 23.1 198.5 22.8 199.1 24.1 C 199.7 25.4 200.0 33.1 200.6 33.1 C 201.1 33.1 201.4 31.7 202.0 30.2 C 202.6 28.7 202.9 27.2 203.5 25.7 C 204.1 24.3 204.4 22.9 205.0 22.9 C 205.6 22.9 205.9 22.9 206.4 23.3 C 207.0 23.7 207.3 28.8 207.9 28.9 C 208.5 29.0 208.8 29.0 209.4 29.0 C 210.0 29.0 210.3 28.4 210.9 28.2 C 211.4 27.9 211.7 27.8 212.3 27.8 C 212.9 27.8 213.2 27.9 213.8 27.9 C 214.4 27.9 214.7 27.3 215.3 27.3 C 215.9 27.3 216.1 27.7 216.7 27.9 C 217.3 28.1 217.6 28.0 218.2 28.5 C 218.8 28.9 219.1 30.0 219.7 30.0 C 220.3 30.0 220.6 29.9 221.1 29.9 C 221.7 29.9 222.0 32.8 222.6 32.8 C 223.2 32.8 223.5 32.8 224.1 32.3 C 224.7 31.7 225.0 29.1 225.6 29.1 C 226.1 29.1 226.4 32.4 227.0 32.4 C 227.6 32.4 227.9 31.8 228.5 31.8 C 229.1 31.8 229.4 31.8 230.0 32.0 C 230.6 32.2 230.8 33.6 231.4 33.6 C 232.0 33.6 232.3 30.9 232.9 30.9 C 233.5 30.9 233.8 31.3 234.4 31.3 C 235.0 31.3 235.3 29.0 235.8 29.0 C 236.4 29.0 236.7 30.9 237.3 30.9 C 237.9 30.9 238.2 30.7 238.8 30.7 C 239.4 30.7 239.7 34.0 240.3 34.0 C 240.8 34.0 241.1 32.3 241.7 32.3 C 242.3 32.3 242.6 32.4 243.2 32.4 C 243.8 32.4 244.1 28.9 244.7 28.9 C 245.3 28.9 245.5 32.7 246.1 33.1 C 246.7 33.5 247.0 33.4 247.6 33.5 C 248.2 33.7 248.5 33.8 249.1 33.8 C 249.7 33.8 250.0 32.9 250.5 32.9 C 251.1 32.9 251.4 33.3 252.0 33.5 C 252.6 33.7 252.9 33.9 253.5 33.9 C 254.1 33.9 254.4 32.6 255.0 31.9 C 255.5 31.2 255.8 30.5 256.4 30.5 C 257.0 30.5 257.3 31.9 257.9 32.1 C 258.5 32.4 258.8 32.3 259.4 32.4 C 260.0 32.5 260.3 32.4 260.8 32.6 C 261.4 32.9 261.7 33.9 262.3 33.9 C 262.9 33.9 263.2 25.6 263.8 25.6 C 264.4 25.6 264.7 27.9 265.3 29.2 C 265.8 30.5 266.1 31.4 266.7 32.2 C 267.3 33.0 267.6 33.1 268.2 33.1 C 268.8 33.1 269.1 32.7 269.7 32.7 C 270.2 32.7 270.5 35.3 271.1 35.3 C 271.7 35.3 272.0 31.0 272.6 30.6 C 273.2 30.2 273.5 30.2 274.1 30.2 C 274.7 30.2 275.0 31.8 275.5 32.5 C 276.1 33.3 276.4 33.9 277.0 33.9 C 277.6 33.9 277.9 33.9 278.5 33.8 C 279.1 33.6 279.4 31.9 280.0 31.6 C 280.5 31.2 280.8 31.4 281.4 31.2 C 282.0 31.0 282.3 31.2 282.9 30.8 C 283.5 30.3 283.8 17.6 284.4 17.6 C 285.0 17.6 285.2 25.4 285.8 28.2 C 286.4 30.9 286.7 30.1 287.3 31.2 C 287.9 32.4 288.2 33.9 288.8 33.9 C 289.4 33.9 289.7 32.0 290.2 31.5 C 290.8 31.0 291.1 31.0 291.7 31.0 C 292.3 31.0 292.6 31.0 293.2 31.0 C 293.8 31.0 294.1 32.4 294.7 32.4 C 295.2 32.4 295.5 30.7 296.1 30.7 C 296.7 30.7 297.0 33.0 297.6 33.0 C 298.2 33.0 298.5 31.3 299.1 31.3 C 299.7 31.3 299.9 32.8 300.5 32.8 C 301.1 32.8 301.4 27.5 302.0 27.5 C 302.6 27.5 302.9 30.1 303.5 30.1 C 304.1 30.1 304.4 24.0 304.9 24.0 C 305.5 24.0 305.8 27.6 306.4 27.6 C 307.0 27.6 307.3 23.8 307.9 23.8 C 308.5 23.8 308.8 25.4 309.4 26.7 C 309.9 28.0 310.2 30.3 310.8 30.3 C 311.4 30.3 311.7 26.9 312.3 26.9 C 312.9 26.9 313.2 28.0 313.8 28.3 C 314.4 28.6 314.6 28.6 315.2 28.6 C 315.8 28.6 316.1 26.6 316.7 26.6 C 317.3 26.6 317.6 32.0 318.2 32.0 C 318.8 32.0 319.1 25.9 319.6 25.8 C 320.2 25.7 320.5 25.7 321.1 25.7 C 321.7 25.7 322.0 29.9 322.6 31.4 C 323.2 33.0 323.5 33.3 324.1 33.3 C 324.6 33.3 324.9 32.5 325.5 32.5 C 326.1 32.5 326.4 33.7 327.0 33.7 C 327.6 33.7 327.9 31.4 328.5 31.4 C 329.1 31.4 329.4 31.4 329.9 32.0 C 330.5 32.6 330.8 34.3 331.4 34.3 C 332.0 34.3 332.3 32.8 332.9 31.7 C 333.5 30.7 333.8 29.2 334.4 29.2 C 334.9 29.2 335.2 29.5 335.8 29.9 C 336.4 30.3 336.7 31.2 337.3 31.2 C 337.9 31.2 338.2 31.1 338.8 30.3 C 339.3 29.5 339.6 27.2 340.2 27.2 C 340.8 27.2 341.1 32.8 341.7 32.8 C 342.3 32.8 342.6 32.2 343.2 32.2 C 343.8 32.2 344.1 32.7 344.6 32.7 C 345.2 32.7 345.5 32.0 346.1 32.0 C 346.7 32.0 347.0 33.5 347.6 33.5 C 348.2 33.5 348.5 32.7 349.1 32.7 C 349.6 32.7 349.9 34.2 350.5 34.2 C 351.1 34.2 351.4 33.6 352.0 33.6 C 352.6 33.6 352.9 34.5 353.5 35.1 C 354.1 35.8 354.3 36.6 354.9 36.6 C 355.5 36.6 355.8 35.0 356.4 34.5 C 357.0 34.0 357.3 34.5 357.9 33.9 C 358.5 33.4 358.8 22.0 359.3 22.0 C 359.9 22.0 360.2 29.5 360.8 31.8 C 361.4 34.0 361.7 34.0 362.3 34.0 C 362.9 34.0 363.2 31.3 363.8 31.3 C 364.3 31.3 364.6 32.0 365.2 32.0 C 365.8 32.0 366.1 30.1 366.7 30.1 C 367.3 30.1 367.6 31.8 368.2 32.1 C 368.8 32.3 369.0 32.3 369.6 32.3 C 370.2 32.3 370.5 28.0 371.1 28.0 C 371.7 28.0 372.0 32.6 372.6 33.5 C 373.2 34.3 373.5 34.3 374.0 34.3 C 374.6 34.3 374.9 33.0 375.5 33.0 C 376.1 33.0 376.4 33.6 377.0 33.6 C 377.6 33.6 377.9 29.9 378.5 29.9 C 379.0 29.9 379.3 31.5 379.9 32.3 C 380.5 33.2 380.8 33.5 381.4 34.1 C 382.0 34.6 382.3 35.0 382.9 35.0 C 383.5 35.0 383.7 33.8 384.3 33.8 C 384.9 33.8 385.2 35.1 385.8 35.1 C 386.4 35.1 386.7 33.3 387.3 33.2 C 387.9 33.2 388.2 33.2 388.7 33.2 C 389.3 33.2 389.6 33.1 390.2 32.7 C 390.8 32.4 391.1 31.7 391.7 31.7 C 392.3 31.7 392.6 34.1 393.2 34.1 C 393.7 34.1 394.0 33.3 394.6 33.0 C 395.2 32.7 395.5 33.0 396.1 32.7 C 396.7 32.4 397.0 29.1 397.6 29.1 C 398.2 29.1 398.5 30.4 399.0 30.4 C 399.6 30.4 399.9 25.8 400.5 25.8 C 401.1 25.8 401.4 25.8 402.0 26.0 C 402.6 26.1 402.9 30.2 403.5 30.2 C 404.0 30.2 404.3 29.2 404.9 29.2 C 405.5 29.2 405.8 32.9 406.4 32.9 C 407.0 32.9 407.3 32.7 407.9 32.4 C 408.4 32.1 408.7 32.4 409.3 31.6 C 409.9 30.8 410.2 28.0 410.8 28.0 C 411.4 28.0 411.7 30.0 412.3 30.0 C 412.9 30.0 413.2 27.0 413.7 27.0 C 414.3 27.0 414.6 31.3 415.2 31.3 C 415.8 31.3 416.1 27.6 416.7 27.6 C 417.3 27.6 417.6 32.0 418.2 32.7 C 418.7 33.4 419.0 33.4 419.6 33.4 C 420.2 33.4 420.5 31.4 421.1 31.4 C 421.7 31.4 422.0 32.7 422.6 33.1 C 423.2 33.6 423.4 33.5 424.0 33.6 C 424.6 33.7 424.9 33.6 425.5 33.7 C 426.1 33.8 426.4 34.5 427.0 34.5 C 427.6 34.5 427.9 34.2 428.4 34.2 C 429.0 34.2 429.3 35.1 429.9 35.5 C 430.5 35.9 430.8 36.1 431.4 36.1 C 432.0 36.1 432.3 35.1 432.9 35.1 C 433.4 35.1 433.7 35.5 434.3 35.5 C 434.9 35.5 435.2 35.5 435.8 34.9 C 436.4 34.3 436.7 32.0 437.3 32.0 C 437.9 32.0 438.1 34.8 438.7 34.8 C 439.3 34.8 439.6 33.3 440.2 31.8 C 440.8 30.3 441.1 27.3 441.7 27.3 C 442.3 27.3 442.6 31.5 443.1 31.5 C 443.7 31.5 444.0 30.0 444.6 29.6 C 445.2 29.1 445.5 29.6 446.1 29.1 C 446.7 28.7 447.0 25.6 447.6 25.6 C 448.1 25.6 448.4 28.3 449.0 29.0 C 449.6 29.6 449.9 29.6 450.5 29.6 C 451.1 29.6 451.4 29.6 452.0 29.3 C 452.6 29.0 452.9 29.2 453.4 28.2 C 454.0 27.2 454.3 24.4 454.9 24.4 C 455.5 24.4 455.8 26.0 456.4 27.5 C 457.0 29.0 457.3 31.0 457.8 31.9 C 458.4 32.8 458.7 32.8 459.3 32.8 C 459.9 32.8 460.2 30.7 460.8 30.7 C 461.4 30.7 461.7 30.8 462.3 31.1 C 462.8 31.3 463.1 31.7 463.7 32.1 C 464.3 32.5 464.6 32.9 465.2 33.1 C 465.8 33.3 466.1 33.1 466.7 33.3 C 467.3 33.5 467.6 33.7 468.1 34.0 C 468.7 34.4 469.0 34.9 469.6 34.9 C 470.2 34.9 470.5 33.9 471.1 33.5 C 471.7 33.2 472.0 33.0 472.6 33.0 C 473.1 33.0 473.4 34.3 474.0 34.3 C 474.6 34.3 474.9 31.0 475.5 31.0 C 476.1 31.0 476.4 32.7 477.0 33.6 C 477.5 34.6 477.8 35.6 478.4 35.6 C 479.0 35.6 479.3 35.6 479.9 34.7 C 480.5 33.7 480.8 30.7 481.4 30.7 C 482.0 30.7 482.3 34.8 482.8 34.8 C 483.4 34.8 483.7 34.8 484.3 34.0 C 484.9 33.3 485.2 30.5 485.8 30.5 C 486.4 30.5 486.7 33.3 487.3 33.3 C 487.8 33.3 488.1 30.7 488.7 30.7 C 489.3 30.7 489.6 31.6 490.2 31.6 C 490.8 31.6 491.1 30.3 491.7 30.3 C 492.3 30.3 492.5 31.5 493.1 31.5 C 493.7 31.5 494.0 28.7 494.6 28.7 C 495.2 28.7 495.5 31.9 496.1 31.9 C 496.7 31.9 497.0 28.1 497.5 28.1 C 498.1 28.1 498.4 28.1 499.0 28.4 C 499.6 28.8 499.9 31.2 500.5 31.4 C 501.1 31.5 501.4 31.5 502.0 31.5 C 502.5 31.5 502.8 27.4 503.4 27.4 C 504.0 27.4 504.3 28.5 504.9 29.2 C 505.5 29.8 505.8 29.4 506.4 30.5 C 507.0 31.6 507.2 34.5 507.8 34.5 C 508.4 34.5 508.7 31.1 509.3 31.1 C 509.9 31.1 510.2 32.4 510.8 32.4 C 511.4 32.4 511.7 31.2 512.2 29.5 C 512.8 27.9 513.1 24.1 513.7 24.1 C 514.3 24.1 514.6 31.4 515.2 31.4 C 515.8 31.4 516.1 30.3 516.7 30.3 C 517.2 30.3 517.5 31.7 518.1 32.3 C 518.7 32.8 519.0 33.0 519.6 33.0 C 520.2 33.0 520.5 32.6 521.1 32.3 C 521.7 32.0 522.0 31.7 522.5 31.7 C 523.1 31.7 523.4 32.2 524.0 32.4 C 524.6 32.6 524.9 32.5 525.5 32.7 C 526.1 32.9 526.4 33.5 526.9 33.5 C 527.5 33.5 527.8 33.3 528.4 33.3 C 529.0 33.3 529.3 34.7 529.9 34.7 C 530.5 34.7 530.8 31.8 531.4 30.7 C 531.9 29.7 532.2 29.6 532.8 29.6 C 533.4 29.6 533.7 30.8 534.3 31.4 C 535.0 32.1 536 32.8 536 32.8 L 536 40 L 0 40" ></path><path fill="none" d="M 0 27.6 C 0 27.6 1.2 29.5 2.1 29.5 C 2.7 29.5 3.0 26.1 3.6 26.1 C 4.1 26.1 4.4 26.4 5.0 26.4 C 5.6 26.4 5.9 25.0 6.5 25.0 C 7.1 25.0 7.4 26.7 8.0 27.5 C 8.5 28.3 8.8 28.0 9.4 28.7 C 10.0 29.5 10.3 31.2 10.9 31.2 C 11.5 31.2 11.8 27.8 12.4 25.5 C 13.0 23.3 13.3 20.0 13.8 20.0 C 14.4 20.0 14.7 28.3 15.3 28.3 C 15.9 28.3 16.2 24.5 16.8 24.5 C 17.4 24.5 17.7 24.5 18.3 25.0 C 18.8 25.5 19.1 27.6 19.7 28.8 C 20.3 29.9 20.6 30.7 21.2 30.7 C 21.8 30.7 22.1 30.6 22.7 29.2 C 23.3 27.7 23.5 24.6 24.1 23.5 C 24.7 22.3 25.0 22.3 25.6 22.3 C 26.2 22.3 26.5 28.1 27.1 28.1 C 27.7 28.1 28.0 27.4 28.5 27.4 C 29.1 27.4 29.4 28.0 30.0 28.7 C 30.6 29.4 30.9 30.8 31.5 30.8 C 32.1 30.8 32.4 26.2 33.0 26.2 C 33.5 26.2 33.8 29.9 34.4 30.8 C 35.0 31.8 35.3 31.8 35.9 31.8 C 36.5 31.8 36.8 30.4 37.4 30.4 C 38.0 30.4 38.2 30.7 38.8 30.7 C 39.4 30.7 39.7 30.7 40.3 30.3 C 40.9 29.9 41.2 24.2 41.8 24.2 C 42.4 24.2 42.7 27.8 43.2 27.8 C 43.8 27.8 44.1 27.3 44.7 27.3 C 45.3 27.3 45.6 28.0 46.2 28.0 C 46.8 28.0 47.1 21.5 47.7 21.5 C 48.2 21.5 48.5 24.4 49.1 24.4 C 49.7 24.4 50.0 9.0 50.6 9.0 C 51.2 9.0 51.5 11.1 52.1 13.8 C 52.7 16.5 53.0 19.6 53.5 22.5 C 54.1 25.5 54.4 28.3 55.0 28.3 C 55.6 28.3 55.9 27.0 56.5 27.0 C 57.1 27.0 57.4 31.5 57.9 31.5 C 58.5 31.5 58.8 28.9 59.4 27.4 C 60.0 25.9 60.3 24.2 60.9 24.2 C 61.5 24.2 61.8 29.8 62.4 29.8 C 62.9 29.8 63.2 28.6 63.8 28.6 C 64.4 28.6 64.7 30.5 65.3 30.5 C 65.9 30.5 66.2 26.9 66.8 26.9 C 67.4 26.9 67.7 32.1 68.2 32.1 C 68.8 32.1 69.1 31.4 69.7 31.2 C 70.3 30.9 70.6 31.2 71.2 30.9 C 71.8 30.7 72.1 22.5 72.7 22.5 C 73.2 22.5 73.5 31.4 74.1 31.4 C 74.7 31.4 75.0 26.5 75.6 26.5 C 76.2 26.5 76.5 26.5 77.1 26.9 C 77.7 27.2 77.9 28.2 78.5 28.2 C 79.1 28.2 79.4 24.3 80.0 22.8 C 80.6 21.3 80.9 21.6 81.5 20.7 C 82.1 19.8 82.4 18.4 82.9 18.4 C 83.5 18.4 83.8 26.3 84.4 26.3 C 85.0 26.3 85.3 24.1 85.9 23.2 C 86.5 22.4 86.8 22.2 87.4 22.2 C 87.9 22.2 88.2 24.2 88.8 25.0 C 89.4 25.8 89.7 26.2 90.3 26.2 C 90.9 26.2 91.2 15.3 91.8 15.3 C 92.4 15.3 92.6 18.8 93.2 20.5 C 93.8 22.1 94.1 23.4 94.7 23.4 C 95.3 23.4 95.6 22.4 96.2 22.4 C 96.8 22.4 97.1 24.2 97.6 24.2 C 98.2 24.2 98.5 24.2 99.1 22.9 C 99.7 21.6 100.0 12.5 100.6 12.5 C 101.2 12.5 101.5 24.7 102.1 24.8 C 102.6 24.9 102.9 24.8 103.5 24.9 C 104.1 25.0 104.4 25.1 105.0 25.6 C 105.6 26.1 105.9 27.4 106.5 27.4 C 107.1 27.4 107.3 23.8 107.9 23.3 C 108.5 22.8 108.8 23.3 109.4 22.8 C 110.0 22.4 110.3 19.7 110.9 19.7 C 111.5 19.7 111.8 26.8 112.3 26.8 C 112.9 26.8 113.2 22.7 113.8 20.4 C 114.4 18.1 114.7 15.3 115.3 15.3 C 115.9 15.3 116.2 22.6 116.8 22.6 C 117.3 22.6 117.6 20.9 118.2 20.9 C 118.8 20.9 119.1 25.3 119.7 25.3 C 120.3 25.3 120.6 25.3 121.2 25.3 C 121.8 25.3 122.1 24.5 122.6 24.5 C 123.2 24.5 123.5 29.2 124.1 29.2 C 124.7 29.2 125.0 27.3 125.6 24.4 C 126.2 21.4 126.5 17.0 127.0 14.4 C 127.6 11.7 127.9 13.4 128.5 11.2 C 129.1 9.0 129.4 3.3 130.0 3.3 C 130.6 3.3 130.9 20.4 131.5 20.4 C 132.0 20.4 132.3 17.7 132.9 17.7 C 133.5 17.7 133.8 23.3 134.4 23.3 C 135.0 23.3 135.3 23.3 135.9 22.4 C 136.5 21.4 136.8 18.1 137.3 17.5 C 137.9 16.9 138.2 16.9 138.8 16.9 C 139.4 16.9 139.7 20.8 140.3 22.1 C 140.9 23.3 141.2 22.9 141.8 23.3 C 142.3 23.7 142.6 23.7 143.2 24.0 C 143.8 24.3 144.1 24.8 144.7 24.8 C 145.3 24.8 145.6 23.4 146.2 23.4 C 146.8 23.4 147.0 26.9 147.6 26.9 C 148.2 26.9 148.5 18.9 149.1 18.9 C 149.7 18.9 150.0 24.0 150.6 24.8 C 151.2 25.6 151.5 25.2 152.0 25.6 C 152.6 25.9 152.9 26.5 153.5 26.5 C 154.1 26.5 154.4 23.5 155.0 23.5 C 155.6 23.5 155.9 28.7 156.5 28.7 C 157.0 28.7 157.3 28.7 157.9 27.5 C 158.5 26.3 158.8 19.0 159.4 19.0 C 160.0 19.0 160.3 24.0 160.9 25.8 C 161.5 27.5 161.7 27.7 162.3 27.7 C 162.9 27.7 163.2 27.7 163.8 27.3 C 164.4 27.0 164.7 26.0 165.3 26.0 C 165.9 26.0 166.2 26.2 166.7 26.2 C 167.3 26.2 167.6 21.7 168.2 21.7 C 168.8 21.7 169.1 29.1 169.7 29.1 C 170.3 29.1 170.6 29.1 171.2 28.8 C 171.7 28.6 172.0 27.2 172.6 27.2 C 173.2 27.2 173.5 30.6 174.1 31.3 C 174.7 32.0 175.0 32.0 175.6 32.0 C 176.2 32.0 176.4 29.3 177.0 27.7 C 177.6 26.1 177.9 25.6 178.5 24.0 C 179.1 22.3 179.4 19.6 180.0 19.6 C 180.6 19.6 180.9 23.1 181.4 23.1 C 182.0 23.1 182.3 12.1 182.9 10.3 C 183.5 8.5 183.8 8.5 184.4 8.5 C 185.0 8.5 185.3 12.1 185.9 12.1 C 186.4 12.1 186.7 10.9 187.3 10.9 C 187.9 10.9 188.2 12.5 188.8 14.5 C 189.4 16.4 189.7 20.6 190.3 20.6 C 190.9 20.6 191.2 18.6 191.7 18.5 C 192.3 18.4 192.6 18.4 193.2 18.4 C 193.8 18.4 194.1 27.5 194.7 27.5 C 195.3 27.5 195.6 22.4 196.1 22.4 C 196.7 22.4 197.0 22.4 197.6 22.8 C 198.2 23.1 198.5 22.8 199.1 24.1 C 199.7 25.4 200.0 33.1 200.6 33.1 C 201.1 33.1 201.4 31.7 202.0 30.2 C 202.6 28.7 202.9 27.2 203.5 25.7 C 204.1 24.3 204.4 22.9 205.0 22.9 C 205.6 22.9 205.9 22.9 206.4 23.3 C 207.0 23.7 207.3 28.8 207.9 28.9 C 208.5 29.0 208.8 29.0 209.4 29.0 C 210.0 29.0 210.3 28.4 210.9 28.2 C 211.4 27.9 211.7 27.8 212.3 27.8 C 212.9 27.8 213.2 27.9 213.8 27.9 C 214.4 27.9 214.7 27.3 215.3 27.3 C 215.9 27.3 216.1 27.7 216.7 27.9 C 217.3 28.1 217.6 28.0 218.2 28.5 C 218.8 28.9 219.1 30.0 219.7 30.0 C 220.3 30.0 220.6 29.9 221.1 29.9 C 221.7 29.9 222.0 32.8 222.6 32.8 C 223.2 32.8 223.5 32.8 224.1 32.3 C 224.7 31.7 225.0 29.1 225.6 29.1 C 226.1 29.1 226.4 32.4 227.0 32.4 C 227.6 32.4 227.9 31.8 228.5 31.8 C 229.1 31.8 229.4 31.8 230.0 32.0 C 230.6 32.2 230.8 33.6 231.4 33.6 C 232.0 33.6 232.3 30.9 232.9 30.9 C 233.5 30.9 233.8 31.3 234.4 31.3 C 235.0 31.3 235.3 29.0 235.8 29.0 C 236.4 29.0 236.7 30.9 237.3 30.9 C 237.9 30.9 238.2 30.7 238.8 30.7 C 239.4 30.7 239.7 34.0 240.3 34.0 C 240.8 34.0 241.1 32.3 241.7 32.3 C 242.3 32.3 242.6 32.4 243.2 32.4 C 243.8 32.4 244.1 28.9 244.7 28.9 C 245.3 28.9 245.5 32.7 246.1 33.1 C 246.7 33.5 247.0 33.4 247.6 33.5 C 248.2 33.7 248.5 33.8 249.1 33.8 C 249.7 33.8 250.0 32.9 250.5 32.9 C 251.1 32.9 251.4 33.3 252.0 33.5 C 252.6 33.7 252.9 33.9 253.5 33.9 C 254.1 33.9 254.4 32.6 255.0 31.9 C 255.5 31.2 255.8 30.5 256.4 30.5 C 257.0 30.5 257.3 31.9 257.9 32.1 C 258.5 32.4 258.8 32.3 259.4 32.4 C 260.0 32.5 260.3 32.4 260.8 32.6 C 261.4 32.9 261.7 33.9 262.3 33.9 C 262.9 33.9 263.2 25.6 263.8 25.6 C 264.4 25.6 264.7 27.9 265.3 29.2 C 265.8 30.5 266.1 31.4 266.7 32.2 C 267.3 33.0 267.6 33.1 268.2 33.1 C 268.8 33.1 269.1 32.7 269.7 32.7 C 270.2 32.7 270.5 35.3 271.1 35.3 C 271.7 35.3 272.0 31.0 272.6 30.6 C 273.2 30.2 273.5 30.2 274.1 30.2 C 274.7 30.2 275.0 31.8 275.5 32.5 C 276.1 33.3 276.4 33.9 277.0 33.9 C 277.6 33.9 277.9 33.9 278.5 33.8 C 279.1 33.6 279.4 31.9 280.0 31.6 C 280.5 31.2 280.8 31.4 281.4 31.2 C 282.0 31.0 282.3 31.2 282.9 30.8 C 283.5 30.3 283.8 17.6 284.4 17.6 C 285.0 17.6 285.2 25.4 285.8 28.2 C 286.4 30.9 286.7 30.1 287.3 31.2 C 287.9 32.4 288.2 33.9 288.8 33.9 C 289.4 33.9 289.7 32.0 290.2 31.5 C 290.8 31.0 291.1 31.0 291.7 31.0 C 292.3 31.0 292.6 31.0 293.2 31.0 C 293.8 31.0 294.1 32.4 294.7 32.4 C 295.2 32.4 295.5 30.7 296.1 30.7 C 296.7 30.7 297.0 33.0 297.6 33.0 C 298.2 33.0 298.5 31.3 299.1 31.3 C 299.7 31.3 299.9 32.8 300.5 32.8 C 301.1 32.8 301.4 27.5 302.0 27.5 C 302.6 27.5 302.9 30.1 303.5 30.1 C 304.1 30.1 304.4 24.0 304.9 24.0 C 305.5 24.0 305.8 27.6 306.4 27.6 C 307.0 27.6 307.3 23.8 307.9 23.8 C 308.5 23.8 308.8 25.4 309.4 26.7 C 309.9 28.0 310.2 30.3 310.8 30.3 C 311.4 30.3 311.7 26.9 312.3 26.9 C 312.9 26.9 313.2 28.0 313.8 28.3 C 314.4 28.6 314.6 28.6 315.2 28.6 C 315.8 28.6 316.1 26.6 316.7 26.6 C 317.3 26.6 317.6 32.0 318.2 32.0 C 318.8 32.0 319.1 25.9 319.6 25.8 C 320.2 25.7 320.5 25.7 321.1 25.7 C 321.7 25.7 322.0 29.9 322.6 31.4 C 323.2 33.0 323.5 33.3 324.1 33.3 C 324.6 33.3 324.9 32.5 325.5 32.5 C 326.1 32.5 326.4 33.7 327.0 33.7 C 327.6 33.7 327.9 31.4 328.5 31.4 C 329.1 31.4 329.4 31.4 329.9 32.0 C 330.5 32.6 330.8 34.3 331.4 34.3 C 332.0 34.3 332.3 32.8 332.9 31.7 C 333.5 30.7 333.8 29.2 334.4 29.2 C 334.9 29.2 335.2 29.5 335.8 29.9 C 336.4 30.3 336.7 31.2 337.3 31.2 C 337.9 31.2 338.2 31.1 338.8 30.3 C 339.3 29.5 339.6 27.2 340.2 27.2 C 340.8 27.2 341.1 32.8 341.7 32.8 C 342.3 32.8 342.6 32.2 343.2 32.2 C 343.8 32.2 344.1 32.7 344.6 32.7 C 345.2 32.7 345.5 32.0 346.1 32.0 C 346.7 32.0 347.0 33.5 347.6 33.5 C 348.2 33.5 348.5 32.7 349.1 32.7 C 349.6 32.7 349.9 34.2 350.5 34.2 C 351.1 34.2 351.4 33.6 352.0 33.6 C 352.6 33.6 352.9 34.5 353.5 35.1 C 354.1 35.8 354.3 36.6 354.9 36.6 C 355.5 36.6 355.8 35.0 356.4 34.5 C 357.0 34.0 357.3 34.5 357.9 33.9 C 358.5 33.4 358.8 22.0 359.3 22.0 C 359.9 22.0 360.2 29.5 360.8 31.8 C 361.4 34.0 361.7 34.0 362.3 34.0 C 362.9 34.0 363.2 31.3 363.8 31.3 C 364.3 31.3 364.6 32.0 365.2 32.0 C 365.8 32.0 366.1 30.1 366.7 30.1 C 367.3 30.1 367.6 31.8 368.2 32.1 C 368.8 32.3 369.0 32.3 369.6 32.3 C 370.2 32.3 370.5 28.0 371.1 28.0 C 371.7 28.0 372.0 32.6 372.6 33.5 C 373.2 34.3 373.5 34.3 374.0 34.3 C 374.6 34.3 374.9 33.0 375.5 33.0 C 376.1 33.0 376.4 33.6 377.0 33.6 C 377.6 33.6 377.9 29.9 378.5 29.9 C 379.0 29.9 379.3 31.5 379.9 32.3 C 380.5 33.2 380.8 33.5 381.4 34.1 C 382.0 34.6 382.3 35.0 382.9 35.0 C 383.5 35.0 383.7 33.8 384.3 33.8 C 384.9 33.8 385.2 35.1 385.8 35.1 C 386.4 35.1 386.7 33.3 387.3 33.2 C 387.9 33.2 388.2 33.2 388.7 33.2 C 389.3 33.2 389.6 33.1 390.2 32.7 C 390.8 32.4 391.1 31.7 391.7 31.7 C 392.3 31.7 392.6 34.1 393.2 34.1 C 393.7 34.1 394.0 33.3 394.6 33.0 C 395.2 32.7 395.5 33.0 396.1 32.7 C 396.7 32.4 397.0 29.1 397.6 29.1 C 398.2 29.1 398.5 30.4 399.0 30.4 C 399.6 30.4 399.9 25.8 400.5 25.8 C 401.1 25.8 401.4 25.8 402.0 26.0 C 402.6 26.1 402.9 30.2 403.5 30.2 C 404.0 30.2 404.3 29.2 404.9 29.2 C 405.5 29.2 405.8 32.9 406.4 32.9 C 407.0 32.9 407.3 32.7 407.9 32.4 C 408.4 32.1 408.7 32.4 409.3 31.6 C 409.9 30.8 410.2 28.0 410.8 28.0 C 411.4 28.0 411.7 30.0 412.3 30.0 C 412.9 30.0 413.2 27.0 413.7 27.0 C 414.3 27.0 414.6 31.3 415.2 31.3 C 415.8 31.3 416.1 27.6 416.7 27.6 C 417.3 27.6 417.6 32.0 418.2 32.7 C 418.7 33.4 419.0 33.4 419.6 33.4 C 420.2 33.4 420.5 31.4 421.1 31.4 C 421.7 31.4 422.0 32.7 422.6 33.1 C 423.2 33.6 423.4 33.5 424.0 33.6 C 424.6 33.7 424.9 33.6 425.5 33.7 C 426.1 33.8 426.4 34.5 427.0 34.5 C 427.6 34.5 427.9 34.2 428.4 34.2 C 429.0 34.2 429.3 35.1 429.9 35.5 C 430.5 35.9 430.8 36.1 431.4 36.1 C 432.0 36.1 432.3 35.1 432.9 35.1 C 433.4 35.1 433.7 35.5 434.3 35.5 C 434.9 35.5 435.2 35.5 435.8 34.9 C 436.4 34.3 436.7 32.0 437.3 32.0 C 437.9 32.0 438.1 34.8 438.7 34.8 C 439.3 34.8 439.6 33.3 440.2 31.8 C 440.8 30.3 441.1 27.3 441.7 27.3 C 442.3 27.3 442.6 31.5 443.1 31.5 C 443.7 31.5 444.0 30.0 444.6 29.6 C 445.2 29.1 445.5 29.6 446.1 29.1 C 446.7 28.7 447.0 25.6 447.6 25.6 C 448.1 25.6 448.4 28.3 449.0 29.0 C 449.6 29.6 449.9 29.6 450.5 29.6 C 451.1 29.6 451.4 29.6 452.0 29.3 C 452.6 29.0 452.9 29.2 453.4 28.2 C 454.0 27.2 454.3 24.4 454.9 24.4 C 455.5 24.4 455.8 26.0 456.4 27.5 C 457.0 29.0 457.3 31.0 457.8 31.9 C 458.4 32.8 458.7 32.8 459.3 32.8 C 459.9 32.8 460.2 30.7 460.8 30.7 C 461.4 30.7 461.7 30.8 462.3 31.1 C 462.8 31.3 463.1 31.7 463.7 32.1 C 464.3 32.5 464.6 32.9 465.2 33.1 C 465.8 33.3 466.1 33.1 466.7 33.3 C 467.3 33.5 467.6 33.7 468.1 34.0 C 468.7 34.4 469.0 34.9 469.6 34.9 C 470.2 34.9 470.5 33.9 471.1 33.5 C 471.7 33.2 472.0 33.0 472.6 33.0 C 473.1 33.0 473.4 34.3 474.0 34.3 C 474.6 34.3 474.9 31.0 475.5 31.0 C 476.1 31.0 476.4 32.7 477.0 33.6 C 477.5 34.6 477.8 35.6 478.4 35.6 C 479.0 35.6 479.3 35.6 479.9 34.7 C 480.5 33.7 480.8 30.7 481.4 30.7 C 482.0 30.7 482.3 34.8 482.8 34.8 C 483.4 34.8 483.7 34.8 484.3 34.0 C 484.9 33.3 485.2 30.5 485.8 30.5 C 486.4 30.5 486.7 33.3 487.3 33.3 C 487.8 33.3 488.1 30.7 488.7 30.7 C 489.3 30.7 489.6 31.6 490.2 31.6 C 490.8 31.6 491.1 30.3 491.7 30.3 C 492.3 30.3 492.5 31.5 493.1 31.5 C 493.7 31.5 494.0 28.7 494.6 28.7 C 495.2 28.7 495.5 31.9 496.1 31.9 C 496.7 31.9 497.0 28.1 497.5 28.1 C 498.1 28.1 498.4 28.1 499.0 28.4 C 499.6 28.8 499.9 31.2 500.5 31.4 C 501.1 31.5 501.4 31.5 502.0 31.5 C 502.5 31.5 502.8 27.4 503.4 27.4 C 504.0 27.4 504.3 28.5 504.9 29.2 C 505.5 29.8 505.8 29.4 506.4 30.5 C 507.0 31.6 507.2 34.5 507.8 34.5 C 508.4 34.5 508.7 31.1 509.3 31.1 C 509.9 31.1 510.2 32.4 510.8 32.4 C 511.4 32.4 511.7 31.2 512.2 29.5 C 512.8 27.9 513.1 24.1 513.7 24.1 C 514.3 24.1 514.6 31.4 515.2 31.4 C 515.8 31.4 516.1 30.3 516.7 30.3 C 517.2 30.3 517.5 31.7 518.1 32.3 C 518.7 32.8 519.0 33.0 519.6 33.0 C 520.2 33.0 520.5 32.6 521.1 32.3 C 521.7 32.0 522.0 31.7 522.5 31.7 C 523.1 31.7 523.4 32.2 524.0 32.4 C 524.6 32.6 524.9 32.5 525.5 32.7 C 526.1 32.9 526.4 33.5 526.9 33.5 C 527.5 33.5 527.8 33.3 528.4 33.3 C 529.0 33.3 529.3 34.7 529.9 34.7 C 530.5 34.7 530.8 31.8 531.4 30.7 C 531.9 29.7 532.2 29.6 532.8 29.6 C 533.4 29.6 533.7 30.8 534.3 31.4 C 535.0 32.1 536 32.8 536 32.8" stroke="#4572A7" stroke-width="1"  stroke-linejoin="round" stroke-linecap="round"></path></g><g class="highcharts-markers" visibility="visible"  transform="translate(24,331) scale(1 1)" clip-path="url(#highcharts-2)"></g></g><g class="highcharts-navigator" ><rect fill="rgb(128,179,236)" fill-opacity="0.3" style="cursor:ew-resize ;" x="541" y="331" width="19" height="40"></rect><path fill="none" stroke="#b2b1b6" stroke-width="1" d="M 10 331.5 L 540.5 331.5 540.5 385.5 L 559.5 385.5 L 559.5 331.5 574 331.5 M 541.5 331.5 L 559.5 331.5"></path></g><g class="highcharts-navigator-handle-right" style="cursor:ew-resize;"  transform="translate(560,343)"><rect x="-4.5" y="0.5" width="8" height="15" strokeWidth="1" fill="#ebe7e8" stroke="#b2b1b6" stroke-width="1"></rect><path fill="#ebe7e8" d="M -1.5 4 L -1.5 12 M 0.5 4 L 0.5 12" stroke="#b2b1b6" stroke-width="1"></path></g><text x="292" text-anchor="middle" class="highcharts-title"  style="color:#333333;font-size:16px;fill:#333333;width:520px;" y="22"><tspan>AAPL Stock Volume</tspan></text><g class="highcharts-navigator-handle-left" style="cursor:ew-resize;"  transform="translate(541,343)"><rect x="-4.5" y="0.5" width="8" height="15" strokeWidth="1" fill="#ebe7e8" stroke="#b2b1b6" stroke-width="1"></rect><path fill="#ebe7e8" d="M -1.5 4 L -1.5 12 M 0.5 4 L 0.5 12" stroke="#b2b1b6" stroke-width="1"></path></g><g class="highcharts-axis-labels highcharts-xaxis-labels" ><text x="82.6" style="color:#606060;cursor:default;font-size:11px;fill:#606060;width:71px;text-overflow:clip;" text-anchor="middle" transform="translate(0,0)" y="304" opacity="1"><tspan>18. Feb</tspan></text><text x="164.0" style="color:#606060;cursor:default;font-size:11px;fill:#606060;width:71px;text-overflow:clip;" text-anchor="middle" transform="translate(0,0)" y="304" opacity="1"><tspan>4. Mar</tspan></text><text x="245.4" style="color:#606060;cursor:default;font-size:11px;fill:#606060;width:71px;text-overflow:clip;" text-anchor="middle" transform="translate(0,0)" y="304" opacity="1"><tspan>18. Mar</tspan></text><text x="326.8" style="color:#606060;cursor:default;font-size:11px;fill:#606060;width:71px;text-overflow:clip;" text-anchor="middle" transform="translate(0,0)" y="304" opacity="1"><tspan>1. Apr</tspan></text><text x="408.2" style="color:#606060;cursor:default;font-size:11px;fill:#606060;width:71px;text-overflow:clip;" text-anchor="middle" transform="translate(0,0)" y="304" opacity="1"><tspan>15. Apr</tspan></text><text x="489.6" style="color:#606060;cursor:default;font-size:11px;fill:#606060;width:71px;text-overflow:clip;" text-anchor="middle" transform="translate(0,0)" y="304" opacity="1"><tspan>29. Apr</tspan></text><text x="574" style="color:#606060;cursor:default;font-size:11px;fill:#606060;width:71px;text-overflow:clip;" text-anchor="end" transform="translate(0,0)" y="304" opacity="1"><tspan>13. May</tspan></text></g><g class="highcharts-axis-labels highcharts-xaxis-labels" ><text x="152.1" style="color:#888;cursor:default;font-size:11px;fill:#888;width:178px;text-overflow:clip;" text-anchor="start" transform="translate(0,0)" y="367" opacity="1">2008</text><text x="305.7" style="color:#888;cursor:default;font-size:11px;fill:#888;width:178px;text-overflow:clip;" text-anchor="start" transform="translate(0,0)" y="367" opacity="1">2010</text><text x="459.0" style="color:#888;cursor:default;font-size:11px;fill:#888;width:178px;text-overflow:clip;" text-anchor="start" transform="translate(0,0)" y="367" opacity="1">2012</text></g><g class="highcharts-axis-labels highcharts-yaxis-labels" ><text x="574" style="color:#606060;cursor:default;font-size:11px;fill:#606060;width:183px;text-overflow:clip;" text-anchor="end" transform="translate(0,0)" y="283" opacity="1">0M</text><text x="574" style="color:#606060;cursor:default;font-size:11px;fill:#606060;width:183px;text-overflow:clip;" text-anchor="end" transform="translate(0,0)" y="214" opacity="1">50M</text><text x="574" style="color:#606060;cursor:default;font-size:11px;fill:#606060;width:183px;text-overflow:clip;" text-anchor="end" transform="translate(0,0)" y="146" opacity="1">100M</text><text x="0" style="color:#606060;cursor:default;font-size:11px;fill:#606060;width:183px;text-overflow:clip;" text-anchor="end" transform="translate(0,0)" y="-9999">150M</text></g><g class="highcharts-axis-labels highcharts-yaxis-labels" ></g><g class="highcharts-tooltip"  style="cursor:default;padding:0;white-space:nowrap;" transform="translate(0,-9999)"><path fill="none" d="M 3 0 L 13 0 C 16 0 16 0 16 3 L 16 13 C 16 16 16 16 13 16 L 3 16 C 0 16 0 16 0 13 L 0 3 C 0 0 0 0 3 0"  stroke="black" stroke-opacity="0.0" stroke-width="5" transform="translate(1, 1)"></path><path fill="none" d="M 3 0 L 13 0 C 16 0 16 0 16 3 L 16 13 C 16 16 16 16 13 16 L 3 16 C 0 16 0 16 0 13 L 0 3 C 0 0 0 0 3 0"  stroke="black" stroke-opacity="0.0" stroke-width="3" transform="translate(1, 1)"></path><path fill="none" d="M 3 0 L 13 0 C 16 0 16 0 16 3 L 16 13 C 16 16 16 16 13 16 L 3 16 C 0 16 0 16 0 13 L 0 3 C 0 0 0 0 3 0"  stroke="black" stroke-opacity="0.1" stroke-width="1" transform="translate(1, 1)"></path><path fill="rgb(249, 249, 249)" fill-opacity=" .85" d="M 3 0 L 13 0 C 16 0 16 0 16 3 L 16 13 C 16 16 16 16 13 16 L 3 16 C 0 16 0 16 0 13 L 0 3 C 0 0 0 0 3 0"></path><text x="8"  style="font-size:12px;color:#333333;fill:#333333;" y="20"></text></g></svg>