<svg version="1.1" style="font-family:&quot;lucida grande&quot;, &quot;lucida sans unicode&quot;, arial, helvetica, sans-serif;font-size:12px;" xmlns="http://www.w3.org/2000/svg" width="584" height="400" viewBox="0 0 584 400"><desc>Created with Highstock 2.1.0</desc><defs><clipPath id="highcharts-1"><rect x="0" y="0" width="564" height="240"></rect></clipPath><clipPath id="highcharts-2"><rect x="-99" y="-45" width="663" height="400"></rect></clipPath><clipPath id="highcharts-3"><rect x="0" y="0" width="564" height="240"></rect></clipPath><clipPath id="highcharts-4"><rect x="-99" y="-45" width="663" height="400"></rect></clipPath><clipPath id="highcharts-5"><rect x="0" y="0" width="564" height="40"></rect></clipPath></defs><rect x="0" y="0" width="584" height="400" strokeWidth="0" fill="#FFFFFF" class=" highcharts-background"></rect><path fill="none" d="M 10 165 L 574 165" stroke="silver" stroke-width="2"></path><g class="highcharts-scrollbar" transform="translate(10,372)"><rect x="0" y="-0.5" fill="#eeeeee" stroke="#eeeeee" stroke-width="1" rx="0" ry="0" height="14" width="564"></rect><rect y="-0.5" height="14" fill="#bfc8d1" stroke="#bfc8d1" stroke-width="1" rx="0" ry="0" x="473.5" width="76"></rect><path fill="none" stroke="#666" stroke-width="1" visibility="visible" d="M 508 3.5 L 508 9.3 M 511 3.5 L 511 9.3 M 514 3.5 L 514 9.3"></path><g><rect x="-0.5" y="-0.5" width="14" height="14" strokeWidth="1" stroke="#bbb" stroke-width="1" fill="#ebe7e8"></rect><path fill="#666" d="M 8 4 L 8 10 5 7"></path></g><g transform="translate(550,0)"><rect x="-0.5" y="-0.5" width="14" height="14" strokeWidth="1" stroke="#bbb" stroke-width="1" fill="#ebe7e8"></rect><path fill="#666" d="M 6 4 L 6 10 9 7"></path></g></g><g class="highcharts-range-selector-buttons"><text x="10" y="25" style="color:#666;fill:#666;">Zoom</text><g class="highcharts-button"  states="[object Object]" style="cursor:pointer;text-align:center;" transform="translate(46,10)"><rect x="0" y="0" width="32" height="22" strokeWidth="0" fill="#f7f7f7" rx="0" ry="0"></rect><text x="7.5"  style="font-weight:normal;color:#444;fill:#444;" y="14">1m</text></g><g class="highcharts-button"  states="[object Object]" style="cursor:pointer;text-align:center;" transform="translate(83,10)"><rect x="0" y="0" width="32" height="22" strokeWidth="0" fill="#f7f7f7" rx="0" ry="0"></rect><text x="7.5"  style="font-weight:normal;color:#444;fill:#444;" y="14">3m</text></g><g class="highcharts-button"  states="[object Object]" style="cursor:pointer;text-align:center;" transform="translate(120,10)"><rect x="0" y="0" width="32" height="22" strokeWidth="0" fill="#f7f7f7" rx="0" ry="0"></rect><text x="7.5"  style="font-weight:normal;color:#444;fill:#444;" y="14">6m</text></g><g class="highcharts-button"  states="[object Object]" style="cursor:pointer;text-align:center;" transform="translate(157,10)"><rect x="0" y="0" width="32" height="22" strokeWidth="0" fill="#f7f7f7" rx="0" ry="0"></rect><text x="4"  style="font-weight:normal;color:#444;fill:#444;" y="14">YTD</text></g><g class="highcharts-button"  states="[object Object]" style="cursor:pointer;text-align:center;" transform="translate(194,10)"><rect x="0" y="0" width="32" height="22" strokeWidth="0" fill="#e7f0f9" rx="0" ry="0"></rect><text x="9.5"  style="font-weight:bold;color:black;fill:black;" y="14">1y</text></g><g class="highcharts-button"  states="[object Object]" style="cursor:pointer;text-align:center;" transform="translate(231,10)"><rect x="0" y="0" width="32" height="22" strokeWidth="0" fill="#f7f7f7" rx="0" ry="0"></rect><text x="10"  style="font-weight:normal;color:#444;fill:#444;" y="14">All</text></g></g><g class="highcharts-input-group" transform="translate(276,10)" visibility="visible"><g style="fill:#666;" transform="translate(0,0)"><text x="2"  style="font-size:12px;font-family:&quot;lucida grande&quot;, &quot;lucida sans unicode&quot;, arial, helvetica, sans-serif;color:#666;fill:#666;" y="14">From</text></g><g style="text-align:center;" transform="translate(36,0)"><rect x="0.5" y="0.5" width="94" height="21" strokeWidth="1" fill="none" stroke="silver" stroke-width="1"></rect><text x="9.5"  style="font-size:12px;font-family:&quot;lucida grande&quot;, &quot;lucida sans unicode&quot;, arial, helvetica, sans-serif;color:#444;fill:#444;" y="14"><tspan>May 10, 2012</tspan></text></g><g style="fill:#666;" transform="translate(140,0)"><text x="2"  style="font-size:12px;font-family:&quot;lucida grande&quot;, &quot;lucida sans unicode&quot;, arial, helvetica, sans-serif;color:#666;fill:#666;" y="14">To</text></g><g style="text-align:center;" transform="translate(164,0)"><rect x="0.5" y="0.5" width="94" height="21" strokeWidth="1" fill="none" stroke="silver" stroke-width="1"></rect><text x="9.5"  style="font-size:12px;font-family:&quot;lucida grande&quot;, &quot;lucida sans unicode&quot;, arial, helvetica, sans-serif;color:#444;fill:#444;" y="14"><tspan>May 10, 2013</tspan></text></g></g><g class="highcharts-grid" ></g><g class="highcharts-grid" ><path fill="none" d="M 148.5 331 L 148.5 371" stroke="#EEE" stroke-width="1"  opacity="1"></path><path fill="none" d="M 302.5 331 L 302.5 371" stroke="#EEE" stroke-width="1"  opacity="1"></path><path fill="none" d="M 455.5 331 L 455.5 371" stroke="#EEE" stroke-width="1"  opacity="1"></path></g><g class="highcharts-grid" ><path fill="none" d="M 10 285.5 L 574 285.5" stroke="#D8D8D8" stroke-width="1"  opacity="1"></path><path fill="none" d="M 10 225.5 L 574 225.5" stroke="#D8D8D8" stroke-width="1"  opacity="1"></path><path fill="none" d="M 10 165.5 L 574 165.5" stroke="#D8D8D8" stroke-width="1"  opacity="1"></path><path fill="none" d="M 10 105.5 L 574 105.5" stroke="#D8D8D8" stroke-width="1"  opacity="1"></path><path fill="none" d="M 10 44.5 L 574 44.5" stroke="#D8D8D8" stroke-width="1"  opacity="1"></path></g><g class="highcharts-grid" ></g><g class="highcharts-axis" ><path fill="none" d="M 89.5 285 L 89.5 295" stroke="#C0D0E0" stroke-width="1" opacity="1"></path><path fill="none" d="M 185.5 285 L 185.5 295" stroke="#C0D0E0" stroke-width="1" opacity="1"></path><path fill="none" d="M 279.5 285 L 279.5 295" stroke="#C0D0E0" stroke-width="1" opacity="1"></path><path fill="none" d="M 374.5 285 L 374.5 295" stroke="#C0D0E0" stroke-width="1" opacity="1"></path><path fill="none" d="M 465.5 285 L 465.5 295" stroke="#C0D0E0" stroke-width="1" opacity="1"></path><path fill="none" d="M 559.5 285 L 559.5 295" stroke="#C0D0E0" stroke-width="1" opacity="1"></path><path fill="none" d="M 10 285.5 L 574 285.5" stroke="#C0D0E0" stroke-width="1"  visibility="visible"></path></g><g class="highcharts-axis" ></g><g class="highcharts-axis" ></g><g class="highcharts-axis" ></g><g class="highcharts-series-group" ><g class="highcharts-series" visibility="visible"  transform="translate(10,45) scale(1 1)" clip-path="url(#highcharts-3)"><path fill="none" d="M -1.5 119.8 L 0 120 L 1.5 116.7 L 6.1 120.4 L 7.7 124.1 L 9.2 126.5 L 10.8 127.9 L 12.3 131.4 L 16.9 127.7 L 18.5 127.6 L 20.0 132.7 L 21.6 133.0 L 23.1 133.1 L 29.3 129.2 L 30.9 130.9 L 32.4 132.1 L 33.9 137.8 L 38.6 137.0 L 40.1 137.4 L 41.7 130.8 L 43.2 131.7 L 44.8 128.5 L 49.4 134.3 L 50.9 131.3 L 52.5 132.5 L 54.0 130.9 L 55.6 125.6 L 60.2 127.0 L 61.8 120.3 L 63.3 118.5 L 64.8 124.6 L 66.4 120.3 L 71.0 126.8 L 72.6 125.6 L 74.1 124.4 L 75.7 126.4 L 77.2 121.1 L 81.8 121.4 L 83.4 119.8 L 86.5 120.3 L 88.0 124.3 L 92.7 125.7 L 94.2 127.8 L 95.8 131.2 L 97.3 136.4 L 98.8 130.5 L 103.5 130.1 L 105.0 128.4 L 106.6 122.2 L 108.1 120.6 L 109.7 124.8 L 114.3 131.3 L 115.8 132.4 L 117.4 134.9 L 118.9 132.3 L 120.5 127.6 L 125.1 128.5 L 126.7 129.9 L 128.2 130.3 L 129.7 132.1 L 131.3 127.7 L 135.9 126.1 L 137.5 123.7 L 139.0 123.2 L 140.6 121.8 L 142.1 122.4 L 146.7 122.7 L 148.3 124.7 L 149.8 124.2 L 151.4 119.6 L 152.9 118.7 L 157.6 120 L 159.1 119.5 L 160.7 121.5 L 162.2 123.7 L 163.7 121.4 L 168.4 120.3 L 169.9 120.8 L 171.5 120.7 L 173.0 123.2 L 174.6 119.3 L 180.7 122.8 L 182.3 122.7 L 183.8 115.3 L 185.4 118.3 L 190.0 120.1 L 191.6 119.6 L 193.1 119.6 L 194.6 118.4 L 196.2 116.3 L 200.8 116.3 L 202.4 116.5 L 203.9 117.5 L 205.5 114.4 L 207.0 116.4 L 211.6 119.6 L 213.2 122.7 L 214.7 124.5 L 216.3 124.5 L 217.8 127.6 L 222.5 129.7 L 224.0 128.4 L 225.6 126.8 L 227.1 125.5 L 228.6 126.9 L 233.3 127.4 L 234.8 131.3 L 236.4 133.7 L 237.9 133.9 L 239.5 132.0 L 244.1 129.6 L 245.6 129.7 L 247.2 128.9 L 248.7 129.6 L 250.3 136.3 L 254.9 141.3 L 256.5 141.0 L 258.0 142.1 L 259.5 142.3 L 261.1 139.7 L 268.8 137.1 L 270.4 129.5 L 271.9 129.6 L 276.5 128.6 L 278.1 126.8 L 279.6 132.9 L 281.2 135.0 L 282.7 134.9 L 287.4 139.6 L 288.9 148.4 L 290.4 150.4 L 292.0 151.8 L 293.5 152.9 L 298.2 151.3 L 299.7 151.4 L 301.3 149.5 L 304.4 143.7 L 309.0 146.2 L 310.5 148.5 L 312.1 146.3 L 313.6 149.5 L 315.2 152.1 L 319.8 153.6 L 321.4 154.1 L 322.9 151.7 L 324.4 151.3 L 326.0 153.4 L 330.6 149.6 L 332.2 146.7 L 333.7 147.3 L 335.3 148.3 L 336.8 150.6 L 341.4 148.4 L 343.0 144.8 L 344.5 146.7 L 346.1 143.8 L 347.6 145.6 L 352.3 148.7 L 355.3 150.2 L 356.9 149.5 L 358.4 152.7 L 363.1 151.4 L 366.2 144.3 L 367.7 147.2 L 369.3 151.2 L 373.9 151.6 L 375.4 152.7 L 377.0 151.5 L 378.5 153.4 L 380.1 150.5 L 384.7 150.0 L 386.3 147.5 L 387.8 148.8 L 389.3 147.2 L 390.9 147.2 L 397.1 148.0 L 398.6 144.4 L 400.2 144.2 L 401.7 142.3 L 406.3 142.0 L 407.9 141.3 L 409.4 142.5 L 411.0 145.6 L 412.5 141.9 L 417.2 145.7 L 418.7 145.2 L 420.2 146.5 L 421.8 147.0 L 423.3 144.9 L 428.0 142.4 L 429.5 142.3 L 431.1 141.1 L 432.6 141.0 L 434.2 141.3 L 440.3 141.0 L 441.9 142.4 L 443.4 145.3 L 445.0 143.2 L 449.6 146.3 L 451.2 146.3 L 452.7 142.8 L 454.2 142.9 L 455.8 141.7 L 460.4 140.2 L 462.0 138.6 L 463.5 140.6 L 465.1 140.2 L 466.6 141.3 L 471.2 142.4 L 472.8 142.0 L 474.3 142.0 L 475.9 140.2 L 477.4 141.0 L 482.1 140.6 L 483.6 139.9 L 485.1 138.8 L 486.7 140.5 L 488.2 139.4 L 492.9 140.1 L 494.4 140.1 L 496.0 138.5 L 497.5 136.7 L 503.7 136.6 L 505.2 135.1 L 506.8 137.0 L 508.3 136.7 L 509.9 135.9 L 514.5 136.7 L 516.0 128.8 L 517.6 123.5 L 519.1 134.0 L 520.7 135.2 L 525.3 136.0 L 526.9 133.8 L 528.4 134.9 L 530.0 135.2 L 531.5 127.6 L 536.1 119.2 L 537.7 121.0 L 539.2 112.0 L 540.8 110.6 L 542.3 111.8 L 547.0 105.4 L 548.5 101.5 L 550.0 104.5 L 551.6 101.1 L 553.1 98.5 L 557.8 96.4 L 559.3 99.9 L 560.9 102.4 L 562.4 105.0 L 564 104.7" stroke="#7cb5ec" stroke-width="2"  stroke-linejoin="round" stroke-linecap="round"></path><path fill="none" d="M -11.5 119.8 L -1.5 119.8 L 0 120 L 1.5 116.7 L 6.1 120.4 L 7.7 124.1 L 9.2 126.5 L 10.8 127.9 L 12.3 131.4 L 16.9 127.7 L 18.5 127.6 L 20.0 132.7 L 21.6 133.0 L 23.1 133.1 L 29.3 129.2 L 30.9 130.9 L 32.4 132.1 L 33.9 137.8 L 38.6 137.0 L 40.1 137.4 L 41.7 130.8 L 43.2 131.7 L 44.8 128.5 L 49.4 134.3 L 50.9 131.3 L 52.5 132.5 L 54.0 130.9 L 55.6 125.6 L 60.2 127.0 L 61.8 120.3 L 63.3 118.5 L 64.8 124.6 L 66.4 120.3 L 71.0 126.8 L 72.6 125.6 L 74.1 124.4 L 75.7 126.4 L 77.2 121.1 L 81.8 121.4 L 83.4 119.8 L 86.5 120.3 L 88.0 124.3 L 92.7 125.7 L 94.2 127.8 L 95.8 131.2 L 97.3 136.4 L 98.8 130.5 L 103.5 130.1 L 105.0 128.4 L 106.6 122.2 L 108.1 120.6 L 109.7 124.8 L 114.3 131.3 L 115.8 132.4 L 117.4 134.9 L 118.9 132.3 L 120.5 127.6 L 125.1 128.5 L 126.7 129.9 L 128.2 130.3 L 129.7 132.1 L 131.3 127.7 L 135.9 126.1 L 137.5 123.7 L 139.0 123.2 L 140.6 121.8 L 142.1 122.4 L 146.7 122.7 L 148.3 124.7 L 149.8 124.2 L 151.4 119.6 L 152.9 118.7 L 157.6 120 L 159.1 119.5 L 160.7 121.5 L 162.2 123.7 L 163.7 121.4 L 168.4 120.3 L 169.9 120.8 L 171.5 120.7 L 173.0 123.2 L 174.6 119.3 L 180.7 122.8 L 182.3 122.7 L 183.8 115.3 L 185.4 118.3 L 190.0 120.1 L 191.6 119.6 L 193.1 119.6 L 194.6 118.4 L 196.2 116.3 L 200.8 116.3 L 202.4 116.5 L 203.9 117.5 L 205.5 114.4 L 207.0 116.4 L 211.6 119.6 L 213.2 122.7 L 214.7 124.5 L 216.3 124.5 L 217.8 127.6 L 222.5 129.7 L 224.0 128.4 L 225.6 126.8 L 227.1 125.5 L 228.6 126.9 L 233.3 127.4 L 234.8 131.3 L 236.4 133.7 L 237.9 133.9 L 239.5 132.0 L 244.1 129.6 L 245.6 129.7 L 247.2 128.9 L 248.7 129.6 L 250.3 136.3 L 254.9 141.3 L 256.5 141.0 L 258.0 142.1 L 259.5 142.3 L 261.1 139.7 L 268.8 137.1 L 270.4 129.5 L 271.9 129.6 L 276.5 128.6 L 278.1 126.8 L 279.6 132.9 L 281.2 135.0 L 282.7 134.9 L 287.4 139.6 L 288.9 148.4 L 290.4 150.4 L 292.0 151.8 L 293.5 152.9 L 298.2 151.3 L 299.7 151.4 L 301.3 149.5 L 304.4 143.7 L 309.0 146.2 L 310.5 148.5 L 312.1 146.3 L 313.6 149.5 L 315.2 152.1 L 319.8 153.6 L 321.4 154.1 L 322.9 151.7 L 324.4 151.3 L 326.0 153.4 L 330.6 149.6 L 332.2 146.7 L 333.7 147.3 L 335.3 148.3 L 336.8 150.6 L 341.4 148.4 L 343.0 144.8 L 344.5 146.7 L 346.1 143.8 L 347.6 145.6 L 352.3 148.7 L 355.3 150.2 L 356.9 149.5 L 358.4 152.7 L 363.1 151.4 L 366.2 144.3 L 367.7 147.2 L 369.3 151.2 L 373.9 151.6 L 375.4 152.7 L 377.0 151.5 L 378.5 153.4 L 380.1 150.5 L 384.7 150.0 L 386.3 147.5 L 387.8 148.8 L 389.3 147.2 L 390.9 147.2 L 397.1 148.0 L 398.6 144.4 L 400.2 144.2 L 401.7 142.3 L 406.3 142.0 L 407.9 141.3 L 409.4 142.5 L 411.0 145.6 L 412.5 141.9 L 417.2 145.7 L 418.7 145.2 L 420.2 146.5 L 421.8 147.0 L 423.3 144.9 L 428.0 142.4 L 429.5 142.3 L 431.1 141.1 L 432.6 141.0 L 434.2 141.3 L 440.3 141.0 L 441.9 142.4 L 443.4 145.3 L 445.0 143.2 L 449.6 146.3 L 451.2 146.3 L 452.7 142.8 L 454.2 142.9 L 455.8 141.7 L 460.4 140.2 L 462.0 138.6 L 463.5 140.6 L 465.1 140.2 L 466.6 141.3 L 471.2 142.4 L 472.8 142.0 L 474.3 142.0 L 475.9 140.2 L 477.4 141.0 L 482.1 140.6 L 483.6 139.9 L 485.1 138.8 L 486.7 140.5 L 488.2 139.4 L 492.9 140.1 L 494.4 140.1 L 496.0 138.5 L 497.5 136.7 L 503.7 136.6 L 505.2 135.1 L 506.8 137.0 L 508.3 136.7 L 509.9 135.9 L 514.5 136.7 L 516.0 128.8 L 517.6 123.5 L 519.1 134.0 L 520.7 135.2 L 525.3 136.0 L 526.9 133.8 L 528.4 134.9 L 530.0 135.2 L 531.5 127.6 L 536.1 119.2 L 537.7 121.0 L 539.2 112.0 L 540.8 110.6 L 542.3 111.8 L 547.0 105.4 L 548.5 101.5 L 550.0 104.5 L 551.6 101.1 L 553.1 98.5 L 557.8 96.4 L 559.3 99.9 L 560.9 102.4 L 562.4 105.0 L 564 104.7 L 574 104.7" stroke-linejoin="round" visibility="visible" stroke="rgb(192,192,192)" stroke-opacity="0.0" stroke-width="22"  class=" highcharts-tracker" style=""></path></g><g class="highcharts-markers highcharts-tracker" visibility="visible"  transform="translate(10,45) scale(1 1)" clip-path="url(#highcharts-2)" style=""></g><g class="highcharts-series" visibility="visible"  transform="translate(10,45) scale(1 1)" clip-path="url(#highcharts-3)"><path fill="none" d="M -1.5 120.5 L 0 120 L 1.5 121.6 L 6.1 125.1 L 7.7 127.2 L 9.2 130.2 L 10.8 136.9 L 12.3 136.8 L 16.9 123.8 L 18.5 125.7 L 20.0 119.9 L 21.6 122.1 L 23.1 123.4 L 29.3 119.2 L 30.9 116.3 L 32.4 116.9 L 33.9 124.0 L 38.6 122.6 L 40.1 123.2 L 41.7 119.6 L 43.2 119.4 L 44.8 115.8 L 49.4 119.7 L 50.9 117.6 L 52.5 119.3 L 54.0 119.5 L 55.6 118.4 L 60.2 113.5 L 61.8 112.8 L 63.3 113.5 L 64.8 116.9 L 66.4 115.1 L 71.0 119.8 L 72.6 119.3 L 74.1 118.3 L 75.7 120.6 L 77.2 114.3 L 81.8 110.7 L 83.4 107.8 L 86.5 103.4 L 88.0 105.1 L 92.7 101.7 L 94.2 104.1 L 95.8 105.7 L 97.3 108.0 L 98.8 105.5 L 103.5 104.6 L 105.0 104.6 L 106.6 104.9 L 108.1 101.5 L 109.7 105.7 L 114.3 105.9 L 115.8 107.2 L 117.4 118.1 L 118.9 118.1 L 120.5 113.8 L 125.1 109.6 L 126.7 103.0 L 128.2 104.7 L 129.7 104.3 L 131.3 100.9 L 135.9 98.1 L 137.5 98.8 L 139.0 99.2 L 140.6 98.8 L 142.1 98.4 L 146.7 94.9 L 148.3 94.2 L 149.8 94.6 L 151.4 92.3 L 152.9 87.3 L 157.6 80.1 L 159.1 84.0 L 160.7 78.6 L 162.2 81.2 L 163.7 81.0 L 168.4 75.7 L 169.9 76.1 L 171.5 76.6 L 173.0 80.7 L 174.6 80.1 L 180.7 76.0 L 182.3 78.0 L 183.8 75.5 L 185.4 73.7 L 190.0 81.2 L 191.6 82.1 L 193.1 78.2 L 194.6 72.6 L 196.2 69.2 L 200.8 65.6 L 202.4 64.7 L 203.9 64.6 L 205.5 66.0 L 207.0 65.4 L 211.6 69.4 L 213.2 76.6 L 214.7 80.1 L 216.3 73.3 L 217.8 79.3 L 222.5 82.6 L 224.0 81.8 L 225.6 77.5 L 227.1 79.4 L 228.6 85.4 L 233.3 91.5 L 234.8 92.5 L 236.4 90.3 L 237.9 95.7 L 239.5 95.1 L 244.1 92.9 L 245.6 86.6 L 247.2 88.8 L 248.7 93.8 L 250.3 103.4 L 254.9 93.2 L 256.5 101.9 L 258.0 100.5 L 259.5 103.5 L 261.1 105.9 L 268.8 109.5 L 270.4 109.0 L 271.9 117.3 L 276.5 114.0 L 278.1 114.8 L 279.6 125.2 L 281.2 133.7 L 282.7 129.8 L 287.4 131.6 L 288.9 131.6 L 290.4 134.1 L 292.0 138.8 L 293.5 138.0 L 298.2 122.0 L 299.7 124.0 L 301.3 123.7 L 304.4 119.5 L 309.0 112.0 L 310.5 114.0 L 312.1 114.7 L 313.6 112.0 L 315.2 113.7 L 319.8 113.4 L 321.4 117.7 L 322.9 133.3 L 324.4 129.7 L 326.0 135.6 L 330.6 137.1 L 332.2 132.2 L 333.7 133.2 L 335.3 137.1 L 336.8 145.5 L 341.4 141.7 L 343.0 135.4 L 344.5 138.5 L 346.1 140.5 L 347.6 141.5 L 352.3 141.1 L 355.3 144.1 L 356.9 143.3 L 358.4 145.6 L 363.1 136.1 L 366.2 129.0 L 367.7 131.9 L 369.3 138.3 L 373.9 139.6 L 375.4 139.0 L 377.0 142.4 L 378.5 139.7 L 380.1 141.1 L 384.7 148.9 L 386.3 155.5 L 387.8 147.1 L 389.3 148.5 L 390.9 149.6 L 397.1 147.6 L 398.6 143.7 L 400.2 170.4 L 401.7 174.9 L 406.3 170.7 L 407.9 167.2 L 409.4 167.8 L 411.0 168.3 L 412.5 169.1 L 417.2 173.9 L 418.7 167.4 L 420.2 167.6 L 421.8 163.0 L 423.3 160.1 L 428.0 158.1 L 429.5 163.1 L 431.1 163.5 L 432.6 163.7 L 434.2 166.4 L 440.3 166.4 L 441.9 171.1 L 443.4 172.3 L 445.0 170.3 L 449.6 173.7 L 451.2 171.1 L 452.7 172.9 L 454.2 174.3 L 455.8 178.9 L 460.4 183.2 L 462.0 178.6 L 463.5 180.9 L 465.1 178.8 L 466.6 178.3 L 471.2 175.8 L 472.8 179.7 L 474.3 179.8 L 475.9 178.0 L 477.4 173.3 L 482.1 168.2 L 483.6 168.8 L 485.1 169.8 L 486.7 169.5 L 488.2 165.6 L 492.9 164.9 L 494.4 166.0 L 496.0 169.8 L 497.5 173.7 L 503.7 179.5 L 505.2 179.2 L 506.8 178.2 L 508.3 180.0 L 509.9 181.9 L 514.5 180.7 L 516.0 180.3 L 517.6 176.7 L 519.1 177.2 L 520.7 179.1 L 525.3 183.3 L 526.9 180.6 L 528.4 190.5 L 530.0 195.0 L 531.5 195.7 L 536.1 192.2 L 537.7 189.1 L 539.2 189.4 L 540.8 188.2 L 542.3 184.4 L 547.0 179.0 L 548.5 173.7 L 550.0 175.2 L 551.6 172.5 L 553.1 170.7 L 557.8 166.1 L 559.3 167.0 L 560.9 164.8 L 562.4 167.8 L 564 169.4" stroke="#434348" stroke-width="2"  stroke-linejoin="round" stroke-linecap="round"></path><path fill="none" d="M -11.5 120.5 L -1.5 120.5 L 0 120 L 1.5 121.6 L 6.1 125.1 L 7.7 127.2 L 9.2 130.2 L 10.8 136.9 L 12.3 136.8 L 16.9 123.8 L 18.5 125.7 L 20.0 119.9 L 21.6 122.1 L 23.1 123.4 L 29.3 119.2 L 30.9 116.3 L 32.4 116.9 L 33.9 124.0 L 38.6 122.6 L 40.1 123.2 L 41.7 119.6 L 43.2 119.4 L 44.8 115.8 L 49.4 119.7 L 50.9 117.6 L 52.5 119.3 L 54.0 119.5 L 55.6 118.4 L 60.2 113.5 L 61.8 112.8 L 63.3 113.5 L 64.8 116.9 L 66.4 115.1 L 71.0 119.8 L 72.6 119.3 L 74.1 118.3 L 75.7 120.6 L 77.2 114.3 L 81.8 110.7 L 83.4 107.8 L 86.5 103.4 L 88.0 105.1 L 92.7 101.7 L 94.2 104.1 L 95.8 105.7 L 97.3 108.0 L 98.8 105.5 L 103.5 104.6 L 105.0 104.6 L 106.6 104.9 L 108.1 101.5 L 109.7 105.7 L 114.3 105.9 L 115.8 107.2 L 117.4 118.1 L 118.9 118.1 L 120.5 113.8 L 125.1 109.6 L 126.7 103.0 L 128.2 104.7 L 129.7 104.3 L 131.3 100.9 L 135.9 98.1 L 137.5 98.8 L 139.0 99.2 L 140.6 98.8 L 142.1 98.4 L 146.7 94.9 L 148.3 94.2 L 149.8 94.6 L 151.4 92.3 L 152.9 87.3 L 157.6 80.1 L 159.1 84.0 L 160.7 78.6 L 162.2 81.2 L 163.7 81.0 L 168.4 75.7 L 169.9 76.1 L 171.5 76.6 L 173.0 80.7 L 174.6 80.1 L 180.7 76.0 L 182.3 78.0 L 183.8 75.5 L 185.4 73.7 L 190.0 81.2 L 191.6 82.1 L 193.1 78.2 L 194.6 72.6 L 196.2 69.2 L 200.8 65.6 L 202.4 64.7 L 203.9 64.6 L 205.5 66.0 L 207.0 65.4 L 211.6 69.4 L 213.2 76.6 L 214.7 80.1 L 216.3 73.3 L 217.8 79.3 L 222.5 82.6 L 224.0 81.8 L 225.6 77.5 L 227.1 79.4 L 228.6 85.4 L 233.3 91.5 L 234.8 92.5 L 236.4 90.3 L 237.9 95.7 L 239.5 95.1 L 244.1 92.9 L 245.6 86.6 L 247.2 88.8 L 248.7 93.8 L 250.3 103.4 L 254.9 93.2 L 256.5 101.9 L 258.0 100.5 L 259.5 103.5 L 261.1 105.9 L 268.8 109.5 L 270.4 109.0 L 271.9 117.3 L 276.5 114.0 L 278.1 114.8 L 279.6 125.2 L 281.2 133.7 L 282.7 129.8 L 287.4 131.6 L 288.9 131.6 L 290.4 134.1 L 292.0 138.8 L 293.5 138.0 L 298.2 122.0 L 299.7 124.0 L 301.3 123.7 L 304.4 119.5 L 309.0 112.0 L 310.5 114.0 L 312.1 114.7 L 313.6 112.0 L 315.2 113.7 L 319.8 113.4 L 321.4 117.7 L 322.9 133.3 L 324.4 129.7 L 326.0 135.6 L 330.6 137.1 L 332.2 132.2 L 333.7 133.2 L 335.3 137.1 L 336.8 145.5 L 341.4 141.7 L 343.0 135.4 L 344.5 138.5 L 346.1 140.5 L 347.6 141.5 L 352.3 141.1 L 355.3 144.1 L 356.9 143.3 L 358.4 145.6 L 363.1 136.1 L 366.2 129.0 L 367.7 131.9 L 369.3 138.3 L 373.9 139.6 L 375.4 139.0 L 377.0 142.4 L 378.5 139.7 L 380.1 141.1 L 384.7 148.9 L 386.3 155.5 L 387.8 147.1 L 389.3 148.5 L 390.9 149.6 L 397.1 147.6 L 398.6 143.7 L 400.2 170.4 L 401.7 174.9 L 406.3 170.7 L 407.9 167.2 L 409.4 167.8 L 411.0 168.3 L 412.5 169.1 L 417.2 173.9 L 418.7 167.4 L 420.2 167.6 L 421.8 163.0 L 423.3 160.1 L 428.0 158.1 L 429.5 163.1 L 431.1 163.5 L 432.6 163.7 L 434.2 166.4 L 440.3 166.4 L 441.9 171.1 L 443.4 172.3 L 445.0 170.3 L 449.6 173.7 L 451.2 171.1 L 452.7 172.9 L 454.2 174.3 L 455.8 178.9 L 460.4 183.2 L 462.0 178.6 L 463.5 180.9 L 465.1 178.8 L 466.6 178.3 L 471.2 175.8 L 472.8 179.7 L 474.3 179.8 L 475.9 178.0 L 477.4 173.3 L 482.1 168.2 L 483.6 168.8 L 485.1 169.8 L 486.7 169.5 L 488.2 165.6 L 492.9 164.9 L 494.4 166.0 L 496.0 169.8 L 497.5 173.7 L 503.7 179.5 L 505.2 179.2 L 506.8 178.2 L 508.3 180.0 L 509.9 181.9 L 514.5 180.7 L 516.0 180.3 L 517.6 176.7 L 519.1 177.2 L 520.7 179.1 L 525.3 183.3 L 526.9 180.6 L 528.4 190.5 L 530.0 195.0 L 531.5 195.7 L 536.1 192.2 L 537.7 189.1 L 539.2 189.4 L 540.8 188.2 L 542.3 184.4 L 547.0 179.0 L 548.5 173.7 L 550.0 175.2 L 551.6 172.5 L 553.1 170.7 L 557.8 166.1 L 559.3 167.0 L 560.9 164.8 L 562.4 167.8 L 564 169.4 L 574 169.4" stroke-linejoin="round" visibility="visible" stroke="rgb(192,192,192)" stroke-opacity="0.0" stroke-width="22"  class=" highcharts-tracker" style=""></path></g><g class="highcharts-markers highcharts-tracker" visibility="visible"  transform="translate(10,45) scale(1 1)" clip-path="url(#highcharts-2)" style=""></g><g class="highcharts-series" visibility="visible"  transform="translate(10,45) scale(1 1)" clip-path="url(#highcharts-3)"><path fill="none" d="M -1.5 121.7 L 0 120 L 1.5 123.2 L 6.1 123.7 L 7.7 120.9 L 9.2 114.0 L 10.8 116.3 L 12.3 125.1 L 16.9 119.8 L 18.5 125.0 L 20.0 121.6 L 21.6 123.9 L 23.1 128.6 L 29.3 127.5 L 30.9 129.9 L 32.4 132.8 L 33.9 136.6 L 38.6 133.7 L 40.1 136.9 L 41.7 132.9 L 43.2 133.8 L 44.8 132.9 L 49.4 137.6 L 50.9 138.9 L 52.5 140.5 L 54.0 141.3 L 55.6 139.2 L 60.2 136.7 L 61.8 132.5 L 63.3 134.1 L 64.8 138.9 L 66.4 136.4 L 71.0 140.7 L 72.6 139.1 L 74.1 137.3 L 75.7 139.3 L 77.2 133.1 L 81.8 132.9 L 83.4 130.1 L 86.5 126.9 L 88.0 130.8 L 92.7 130.8 L 94.2 132.4 L 95.8 136.6 L 97.3 136.8 L 98.8 134.5 L 103.5 135.1 L 105.0 134.4 L 106.6 132.8 L 108.1 128.0 L 109.7 121.1 L 114.3 119.2 L 115.8 122.3 L 117.4 122.2 L 118.9 120.1 L 120.5 111.6 L 125.1 112.7 L 126.7 112.4 L 128.2 112.5 L 129.7 114.0 L 131.3 109.1 L 135.9 108.5 L 137.5 109.4 L 139.0 108.8 L 140.6 108.7 L 142.1 108.9 L 146.7 101.8 L 148.3 98.4 L 149.8 98.9 L 151.4 96.8 L 152.9 95.1 L 157.6 95.7 L 159.1 98.1 L 160.7 95.1 L 162.2 95.3 L 163.7 94.5 L 168.4 98.2 L 169.9 95.1 L 171.5 90.9 L 173.0 93.3 L 174.6 92.0 L 180.7 93.6 L 182.3 93.7 L 183.8 86.4 L 185.4 83.8 L 190.0 85.9 L 191.6 89.2 L 193.1 89.7 L 194.6 83.8 L 196.2 82.4 L 200.8 82.3 L 202.4 79.0 L 203.9 75.4 L 205.5 75.2 L 207.0 72.9 L 211.6 66.9 L 213.2 67.0 L 214.7 65.3 L 216.3 64.1 L 217.8 64.9 L 222.5 62.0 L 224.0 63.9 L 225.6 61.7 L 227.1 59.6 L 228.6 59.7 L 233.3 63.6 L 234.8 68.9 L 236.4 68.8 L 237.9 66.0 L 239.5 68.7 L 244.1 70.2 L 245.6 68.7 L 247.2 64.5 L 248.7 88.1 L 250.3 93.3 L 254.9 94.5 L 256.5 93.9 L 258.0 95.1 L 259.5 94.9 L 261.1 95.9 L 268.8 93.9 L 270.4 91.0 L 271.9 90.9 L 276.5 92.8 L 278.1 93.3 L 279.6 99.0 L 281.2 104.8 L 282.7 100.6 L 287.4 99.5 L 288.9 102.2 L 290.4 104.7 L 292.0 106.8 L 293.5 106.8 L 298.2 98.6 L 299.7 97.9 L 301.3 99.5 L 304.4 98.7 L 309.0 101.4 L 310.5 97.6 L 312.1 92.6 L 313.6 89.4 L 315.2 86.8 L 319.8 88.0 L 321.4 89.7 L 322.9 90.9 L 324.4 89.7 L 326.0 92.4 L 330.6 91.9 L 332.2 87.4 L 333.7 87.1 L 335.3 85.1 L 336.8 85.4 L 341.4 78.1 L 343.0 77.9 L 344.5 78.3 L 346.1 77.4 L 347.6 80.1 L 352.3 82.5 L 355.3 82.7 L 356.9 83.7 L 358.4 86.2 L 363.1 83.3 L 366.2 77.1 L 367.7 76.9 L 369.3 71.3 L 373.9 72.6 L 375.4 73.2 L 377.0 71.3 L 378.5 70.0 L 380.1 70.5 L 384.7 77.1 L 386.3 76.4 L 387.8 80.2 L 389.3 81.8 L 390.9 84.4 L 397.1 85.1 L 398.6 70.0 L 400.2 65.1 L 401.7 65.2 L 406.3 66.3 L 407.9 65.2 L 409.4 65.1 L 411.0 64.4 L 412.5 56.6 L 417.2 63.1 L 418.7 60.5 L 420.2 58.7 L 421.8 57.3 L 423.3 52.8 L 428.0 53.9 L 429.5 54.6 L 431.1 53.8 L 432.6 51.8 L 434.2 49.9 L 440.3 44.4 L 441.9 50.0 L 443.4 48.8 L 445.0 47.2 L 449.6 50.7 L 451.2 50.9 L 452.7 47.2 L 454.2 46.6 L 455.8 44.7 L 460.4 38.7 L 462.0 32.0 L 463.5 34.8 L 465.1 34.3 L 466.6 34.7 L 471.2 33.5 L 472.8 36.3 L 474.3 37.2 L 475.9 38.6 L 477.4 41.5 L 482.1 44.0 L 483.6 42.6 L 485.1 41.3 L 486.7 42.7 L 488.2 43.0 L 492.9 43.3 L 494.4 42.2 L 496.0 46.0 L 497.5 49.3 L 503.7 46.6 L 505.2 42.0 L 506.8 44.6 L 508.3 49.0 L 509.9 53.7 L 514.5 56.9 L 516.0 55.8 L 517.6 50.9 L 519.1 50.8 L 520.7 51.0 L 525.3 54.1 L 526.9 49.7 L 528.4 53.9 L 530.0 60.4 L 531.5 47.1 L 536.1 47.0 L 537.7 44.0 L 539.2 41.8 L 540.8 43.5 L 542.3 46.5 L 547.0 39.6 L 548.5 37.5 L 550.0 39.1 L 551.6 35.5 L 553.1 29.2 L 557.8 23.0 L 559.3 24.7 L 560.9 18.3 L 562.4 19.1 L 564 15.7" stroke="#90ed7d" stroke-width="2"  stroke-linejoin="round" stroke-linecap="round"></path><path fill="none" d="M -11.5 121.7 L -1.5 121.7 L 0 120 L 1.5 123.2 L 6.1 123.7 L 7.7 120.9 L 9.2 114.0 L 10.8 116.3 L 12.3 125.1 L 16.9 119.8 L 18.5 125.0 L 20.0 121.6 L 21.6 123.9 L 23.1 128.6 L 29.3 127.5 L 30.9 129.9 L 32.4 132.8 L 33.9 136.6 L 38.6 133.7 L 40.1 136.9 L 41.7 132.9 L 43.2 133.8 L 44.8 132.9 L 49.4 137.6 L 50.9 138.9 L 52.5 140.5 L 54.0 141.3 L 55.6 139.2 L 60.2 136.7 L 61.8 132.5 L 63.3 134.1 L 64.8 138.9 L 66.4 136.4 L 71.0 140.7 L 72.6 139.1 L 74.1 137.3 L 75.7 139.3 L 77.2 133.1 L 81.8 132.9 L 83.4 130.1 L 86.5 126.9 L 88.0 130.8 L 92.7 130.8 L 94.2 132.4 L 95.8 136.6 L 97.3 136.8 L 98.8 134.5 L 103.5 135.1 L 105.0 134.4 L 106.6 132.8 L 108.1 128.0 L 109.7 121.1 L 114.3 119.2 L 115.8 122.3 L 117.4 122.2 L 118.9 120.1 L 120.5 111.6 L 125.1 112.7 L 126.7 112.4 L 128.2 112.5 L 129.7 114.0 L 131.3 109.1 L 135.9 108.5 L 137.5 109.4 L 139.0 108.8 L 140.6 108.7 L 142.1 108.9 L 146.7 101.8 L 148.3 98.4 L 149.8 98.9 L 151.4 96.8 L 152.9 95.1 L 157.6 95.7 L 159.1 98.1 L 160.7 95.1 L 162.2 95.3 L 163.7 94.5 L 168.4 98.2 L 169.9 95.1 L 171.5 90.9 L 173.0 93.3 L 174.6 92.0 L 180.7 93.6 L 182.3 93.7 L 183.8 86.4 L 185.4 83.8 L 190.0 85.9 L 191.6 89.2 L 193.1 89.7 L 194.6 83.8 L 196.2 82.4 L 200.8 82.3 L 202.4 79.0 L 203.9 75.4 L 205.5 75.2 L 207.0 72.9 L 211.6 66.9 L 213.2 67.0 L 214.7 65.3 L 216.3 64.1 L 217.8 64.9 L 222.5 62.0 L 224.0 63.9 L 225.6 61.7 L 227.1 59.6 L 228.6 59.7 L 233.3 63.6 L 234.8 68.9 L 236.4 68.8 L 237.9 66.0 L 239.5 68.7 L 244.1 70.2 L 245.6 68.7 L 247.2 64.5 L 248.7 88.1 L 250.3 93.3 L 254.9 94.5 L 256.5 93.9 L 258.0 95.1 L 259.5 94.9 L 261.1 95.9 L 268.8 93.9 L 270.4 91.0 L 271.9 90.9 L 276.5 92.8 L 278.1 93.3 L 279.6 99.0 L 281.2 104.8 L 282.7 100.6 L 287.4 99.5 L 288.9 102.2 L 290.4 104.7 L 292.0 106.8 L 293.5 106.8 L 298.2 98.6 L 299.7 97.9 L 301.3 99.5 L 304.4 98.7 L 309.0 101.4 L 310.5 97.6 L 312.1 92.6 L 313.6 89.4 L 315.2 86.8 L 319.8 88.0 L 321.4 89.7 L 322.9 90.9 L 324.4 89.7 L 326.0 92.4 L 330.6 91.9 L 332.2 87.4 L 333.7 87.1 L 335.3 85.1 L 336.8 85.4 L 341.4 78.1 L 343.0 77.9 L 344.5 78.3 L 346.1 77.4 L 347.6 80.1 L 352.3 82.5 L 355.3 82.7 L 356.9 83.7 L 358.4 86.2 L 363.1 83.3 L 366.2 77.1 L 367.7 76.9 L 369.3 71.3 L 373.9 72.6 L 375.4 73.2 L 377.0 71.3 L 378.5 70.0 L 380.1 70.5 L 384.7 77.1 L 386.3 76.4 L 387.8 80.2 L 389.3 81.8 L 390.9 84.4 L 397.1 85.1 L 398.6 70.0 L 400.2 65.1 L 401.7 65.2 L 406.3 66.3 L 407.9 65.2 L 409.4 65.1 L 411.0 64.4 L 412.5 56.6 L 417.2 63.1 L 418.7 60.5 L 420.2 58.7 L 421.8 57.3 L 423.3 52.8 L 428.0 53.9 L 429.5 54.6 L 431.1 53.8 L 432.6 51.8 L 434.2 49.9 L 440.3 44.4 L 441.9 50.0 L 443.4 48.8 L 445.0 47.2 L 449.6 50.7 L 451.2 50.9 L 452.7 47.2 L 454.2 46.6 L 455.8 44.7 L 460.4 38.7 L 462.0 32.0 L 463.5 34.8 L 465.1 34.3 L 466.6 34.7 L 471.2 33.5 L 472.8 36.3 L 474.3 37.2 L 475.9 38.6 L 477.4 41.5 L 482.1 44.0 L 483.6 42.6 L 485.1 41.3 L 486.7 42.7 L 488.2 43.0 L 492.9 43.3 L 494.4 42.2 L 496.0 46.0 L 497.5 49.3 L 503.7 46.6 L 505.2 42.0 L 506.8 44.6 L 508.3 49.0 L 509.9 53.7 L 514.5 56.9 L 516.0 55.8 L 517.6 50.9 L 519.1 50.8 L 520.7 51.0 L 525.3 54.1 L 526.9 49.7 L 528.4 53.9 L 530.0 60.4 L 531.5 47.1 L 536.1 47.0 L 537.7 44.0 L 539.2 41.8 L 540.8 43.5 L 542.3 46.5 L 547.0 39.6 L 548.5 37.5 L 550.0 39.1 L 551.6 35.5 L 553.1 29.2 L 557.8 23.0 L 559.3 24.7 L 560.9 18.3 L 562.4 19.1 L 564 15.7 L 574 15.7" stroke-linejoin="round" visibility="visible" stroke="rgb(192,192,192)" stroke-opacity="0.0" stroke-width="22"  class=" highcharts-tracker" style=""></path></g><g class="highcharts-markers highcharts-tracker" visibility="visible"  transform="translate(10,45) scale(1 1)" clip-path="url(#highcharts-2)" style=""></g><g class="highcharts-series" visibility="visible"  transform="translate(24,331) scale(1 1)" clip-path="url(#highcharts-5)"><path fill="rgb(69,114,167)" fill-opacity="0.0" d="M 0 25.0 C 0 25.0 1.2 24.3 2.1 24.3 C 2.7 24.3 3.0 24.6 3.6 25.0 C 4.1 25.4 4.4 25.9 5.0 26.2 C 5.6 26.5 5.9 26.6 6.5 26.6 C 7.1 26.6 7.4 25.7 8.0 25.2 C 8.5 24.8 8.8 24.8 9.4 24.6 C 10.0 24.3 10.3 24.0 10.9 24.0 C 11.5 24.0 11.8 25.2 12.4 25.2 C 13.0 25.2 13.3 25.1 13.8 24.7 C 14.4 24.2 14.7 23.0 15.3 22.9 C 15.9 22.9 16.2 22.9 16.8 22.9 C 17.4 22.8 17.7 22.8 18.3 22.6 C 18.8 22.3 19.1 22.2 19.7 21.8 C 20.3 21.3 20.6 20.3 21.2 20.3 C 21.8 20.2 22.1 20.2 22.7 20.2 C 23.3 20.2 23.5 20.6 24.1 20.6 C 24.7 20.6 25.0 20.0 25.6 19.6 C 26.2 19.2 26.5 18.9 27.1 18.5 C 27.7 18.2 28.0 18.2 28.5 17.9 C 29.1 17.6 29.4 17.4 30.0 17.2 C 30.6 17.0 30.9 17.1 31.5 16.9 C 32.1 16.6 32.4 16.0 33.0 16.0 C 33.5 16.0 33.8 16.2 34.4 16.2 C 35.0 16.2 35.3 15.8 35.9 15.6 C 36.5 15.3 36.8 15.2 37.4 15.0 C 38.0 14.8 38.2 14.9 38.8 14.6 C 39.4 14.3 39.7 13.7 40.3 13.7 C 40.9 13.7 41.2 14.2 41.8 14.5 C 42.4 14.7 42.7 14.9 43.2 14.9 C 43.8 14.9 44.1 14.1 44.7 13.9 C 45.3 13.6 45.6 13.7 46.2 13.6 C 46.8 13.5 47.1 13.5 47.7 13.5 C 48.2 13.5 48.5 13.9 49.1 13.9 C 49.7 13.9 50.0 13.4 50.6 13.0 C 51.2 12.6 51.5 11.7 52.1 11.7 C 52.7 11.7 53.0 12.1 53.5 12.3 C 54.1 12.5 54.4 12.3 55.0 12.6 C 55.6 13.0 55.9 14.2 56.5 14.5 C 57.1 14.9 57.4 14.9 57.9 14.9 C 58.5 14.9 58.8 14.9 59.4 14.9 C 60.0 14.9 60.3 15.9 60.9 16.4 C 61.5 16.9 61.8 17.2 62.4 17.5 C 62.9 17.8 63.2 17.9 63.8 17.9 C 64.4 17.9 64.7 16.6 65.3 16.6 C 65.9 16.6 66.2 17.0 66.8 17.0 C 67.4 17.0 67.7 16.6 68.2 16.4 C 68.8 16.3 69.1 16.2 69.7 16.0 C 70.3 15.8 70.6 15.7 71.2 15.5 C 71.8 15.2 72.1 15.4 72.7 14.8 C 73.2 14.3 73.5 13.1 74.1 12.7 C 74.7 12.3 75.0 12.4 75.6 12.3 C 76.2 12.1 76.5 12.0 77.1 12.0 C 77.7 12.0 77.9 12.5 78.5 12.5 C 79.1 12.5 79.4 12.2 80.0 12.2 C 80.6 12.2 80.9 13.1 81.5 13.1 C 82.1 13.1 82.4 13.1 82.9 13.1 C 83.5 13.1 83.8 13.1 84.4 13.3 C 85.0 13.4 85.3 14.1 85.9 14.1 C 86.5 14.1 86.8 13.6 87.4 13.6 C 87.9 13.6 88.2 13.9 88.8 13.9 C 89.4 13.9 89.7 12.1 90.3 12.1 C 90.9 12.1 91.2 12.3 91.8 12.8 C 92.4 13.3 92.6 14.7 93.2 14.7 C 93.8 14.7 94.1 14.4 94.7 14.4 C 95.3 14.4 95.6 16.4 96.2 16.4 C 96.8 16.4 97.1 16.2 97.6 16.2 C 98.2 16.1 98.5 16.1 99.1 16.0 C 99.7 15.9 100.0 15.8 100.6 15.6 C 101.2 15.5 101.5 15.2 102.1 15.2 C 102.6 15.2 102.9 15.6 103.5 15.6 C 104.1 15.6 104.4 14.8 105.0 14.4 C 105.6 14.1 105.9 14.2 106.5 14.0 C 107.1 13.8 107.3 13.7 107.9 13.4 C 108.5 13.1 108.8 13.2 109.4 12.6 C 110.0 12.0 110.3 12.2 110.9 10.4 C 111.5 8.5 111.8 3.5 112.3 3.5 C 112.9 3.5 113.2 4.0 113.8 4.7 C 114.4 5.5 114.7 7.2 115.3 7.2 C 115.9 7.2 116.2 6.7 116.8 6.7 C 117.3 6.7 117.6 8.0 118.2 8.0 C 118.8 8.0 119.1 7.8 119.7 7.4 C 120.3 6.9 120.6 6.2 121.2 5.8 C 121.8 5.4 122.1 5.8 122.6 5.3 C 123.2 4.8 123.5 3.3 124.1 3.3 C 124.7 3.3 125.0 4.5 125.6 5.2 C 126.2 5.9 126.5 6.3 127.0 6.8 C 127.6 7.3 127.9 7.2 128.5 7.8 C 129.1 8.3 129.4 8.9 130.0 9.4 C 130.6 9.9 130.9 9.4 131.5 10.1 C 132.0 10.7 132.3 14.6 132.9 15.3 C 133.5 15.9 133.8 15.7 134.4 15.9 C 135.0 16.2 135.3 16.5 135.9 16.6 C 136.5 16.8 136.8 16.7 137.3 16.8 C 137.9 17.0 138.2 17.3 138.8 17.3 C 139.4 17.3 139.7 16.3 140.3 15.9 C 140.9 15.5 141.2 15.3 141.8 15.3 C 142.3 15.3 142.6 15.8 143.2 15.8 C 143.8 15.8 144.1 15.0 144.7 15.0 C 145.3 15.0 145.6 15.4 146.2 15.4 C 146.8 15.4 147.0 15.4 147.6 15.3 C 148.2 15.2 148.5 12.3 149.1 12.3 C 149.7 12.3 150.0 15.2 150.6 15.2 C 151.2 15.2 151.5 14.9 152.0 14.6 C 152.6 14.2 152.9 13.4 153.5 13.4 C 154.1 13.4 154.4 15.3 155.0 15.7 C 155.6 16.2 155.9 15.9 156.5 16.2 C 157.0 16.5 157.3 17.2 157.9 17.2 C 158.5 17.2 158.8 17.0 159.4 16.7 C 160.0 16.4 160.3 15.6 160.9 15.6 C 161.5 15.6 161.7 16.2 162.3 16.9 C 162.9 17.6 163.2 18.3 163.8 19.0 C 164.4 19.8 164.7 20.6 165.3 20.6 C 165.9 20.6 166.2 19.3 166.7 19.3 C 167.3 19.3 167.6 20.0 168.2 20.1 C 168.8 20.3 169.1 20.3 169.7 20.3 C 170.3 20.3 170.6 19.3 171.2 18.6 C 171.7 18.0 172.0 16.8 172.6 16.8 C 173.2 16.8 173.5 17.6 174.1 17.6 C 174.7 17.6 175.0 17.4 175.6 17.4 C 176.2 17.4 176.4 19.1 177.0 19.1 C 177.6 19.1 177.9 18.8 178.5 18.8 C 179.1 18.8 179.4 20.7 180.0 20.7 C 180.6 20.7 180.9 19.8 181.4 19.8 C 182.0 19.7 182.3 19.7 182.9 19.7 C 183.5 19.7 183.8 24.8 184.4 24.8 C 185.0 24.8 185.3 23.0 185.9 23.0 C 186.4 23.0 186.7 24.6 187.3 25.1 C 187.9 25.7 188.2 25.5 188.8 25.7 C 189.4 25.9 189.7 25.7 190.3 26.2 C 190.9 26.7 191.2 27.3 191.7 28.3 C 192.3 29.3 192.6 31.4 193.2 31.4 C 193.8 31.4 194.1 29.0 194.7 29.0 C 195.3 29.0 195.6 30.7 196.1 30.7 C 196.7 30.7 197.0 29.3 197.6 29.3 C 198.2 29.3 198.5 30.2 199.1 30.5 C 199.7 30.8 200.0 30.9 200.6 30.9 C 201.1 30.9 201.4 30.7 202.0 30.4 C 202.6 30.1 202.9 29.5 203.5 29.5 C 204.1 29.5 204.4 29.8 205.0 30.5 C 205.6 31.1 205.9 32.2 206.4 32.8 C 207.0 33.4 207.3 33.5 207.9 33.5 C 208.5 33.5 208.8 32.2 209.4 31.7 C 210.0 31.2 210.3 31.0 210.9 31.0 C 211.4 31.0 211.7 32.0 212.3 32.8 C 212.9 33.6 213.2 34.1 213.8 34.8 C 214.4 35.6 214.7 36.6 215.3 36.6 C 215.9 36.6 216.1 35.7 216.7 35.3 C 217.3 34.9 217.6 35.3 218.2 34.7 C 218.8 34.1 219.1 33.1 219.7 32.5 C 220.3 31.9 220.6 32.1 221.1 31.8 C 221.7 31.5 222.0 31.1 222.6 30.9 C 223.2 30.7 223.5 30.7 224.1 30.7 C 224.7 30.7 225.0 30.9 225.6 30.9 C 226.1 30.9 226.4 29.3 227.0 29.3 C 227.6 29.3 227.9 30.1 228.5 30.1 C 229.1 30.1 229.4 30.0 230.0 29.9 C 230.6 29.7 230.8 29.5 231.4 29.3 C 232.0 29.2 232.3 29.3 232.9 28.9 C 233.5 28.4 233.8 27.6 234.4 26.9 C 235.0 26.2 235.3 26.1 235.8 25.5 C 236.4 24.9 236.7 23.8 237.3 23.8 C 237.9 23.8 238.2 24.1 238.8 24.1 C 239.4 24.1 239.7 23.7 240.3 23.7 C 240.8 23.7 241.1 25.4 241.7 25.4 C 242.3 25.4 242.6 24.1 243.2 23.4 C 243.8 22.8 244.1 22.1 244.7 22.1 C 245.3 22.1 245.5 23.9 246.1 23.9 C 246.7 23.9 247.0 23.7 247.6 23.7 C 248.2 23.7 248.5 24.0 249.1 24.0 C 249.7 24.0 250.0 24.0 250.5 23.6 C 251.1 23.3 251.4 22.1 252.0 22.1 C 252.6 22.1 252.9 22.8 253.5 22.8 C 254.1 22.8 254.4 22.1 255.0 21.8 C 255.5 21.5 255.8 21.5 256.4 21.2 C 257.0 21.0 257.3 20.5 257.9 20.5 C 258.5 20.5 258.8 20.7 259.4 20.9 C 260.0 21.0 260.3 21.2 260.8 21.2 C 261.4 21.2 261.7 20.2 262.3 19.7 C 262.9 19.2 263.2 19.4 263.8 18.7 C 264.4 18.0 264.7 16.3 265.3 16.3 C 265.8 16.3 266.1 16.6 266.7 16.6 C 267.3 16.6 267.6 15.3 268.2 14.7 C 268.8 14.2 269.1 13.8 269.7 13.8 C 270.2 13.8 270.5 13.9 271.1 13.9 C 271.7 13.9 272.0 13.8 272.6 13.8 C 273.2 13.8 273.5 13.9 274.1 13.9 C 274.7 13.9 275.0 13.8 275.5 13.4 C 276.1 13.1 276.4 12.2 277.0 12.1 C 277.6 12.0 277.9 12.0 278.5 12.0 C 279.1 12.0 279.4 12.1 280.0 12.3 C 280.5 12.4 280.8 12.5 281.4 12.7 C 282.0 12.8 282.3 12.7 282.9 13.0 C 283.5 13.3 283.8 14.2 284.4 14.8 C 285.0 15.5 285.2 15.9 285.8 16.3 C 286.4 16.7 286.7 16.8 287.3 16.8 C 287.9 16.8 288.2 16.0 288.8 15.9 C 289.4 15.8 289.7 15.8 290.2 15.8 C 290.8 15.7 291.1 15.8 291.7 15.7 C 292.3 15.6 292.6 15.4 293.2 15.1 C 293.8 14.9 294.1 14.5 294.7 14.3 C 295.2 14.0 295.5 13.9 296.1 13.9 C 296.7 13.9 297.0 14.5 297.6 14.5 C 298.2 14.5 298.5 14.5 299.1 14.1 C 299.7 13.7 299.9 13.0 300.5 12.5 C 301.1 12.0 301.4 11.5 302.0 11.5 C 302.6 11.5 302.9 11.5 303.5 12.1 C 304.1 12.6 304.4 13.5 304.9 14.1 C 305.5 14.7 305.8 14.4 306.4 15.0 C 307.0 15.5 307.3 15.7 307.9 16.8 C 308.5 17.9 308.8 20.2 309.4 20.2 C 309.9 20.2 310.2 19.7 310.8 19.7 C 311.4 19.7 311.7 21.3 312.3 21.3 C 312.9 21.3 313.2 19.5 313.8 19.5 C 314.4 19.5 314.6 20.1 315.2 21.1 C 315.8 22.0 316.1 24.1 316.7 24.1 C 317.3 24.1 317.6 23.7 318.2 23.1 C 318.8 22.6 319.1 21.8 319.6 21.3 C 320.2 20.8 320.5 21.0 321.1 20.8 C 321.7 20.5 322.0 19.9 322.6 19.9 C 323.2 19.9 323.5 19.9 324.1 20.2 C 324.6 20.5 324.9 21.3 325.5 21.7 C 326.1 22.2 326.4 22.0 327.0 22.3 C 327.6 22.6 327.9 22.9 328.5 23.1 C 329.1 23.3 329.4 23.4 329.9 23.4 C 330.5 23.4 330.8 23.4 331.4 23.2 C 332.0 22.9 332.3 21.3 332.9 21.3 C 333.5 21.3 333.8 21.6 334.4 21.7 C 334.9 21.9 335.2 22.1 335.8 22.3 C 336.4 22.4 336.7 22.6 337.3 22.6 C 337.9 22.6 338.2 21.7 338.8 21.4 C 339.3 21.0 339.6 21.2 340.2 20.9 C 340.8 20.6 341.1 20.5 341.7 19.9 C 342.3 19.4 342.6 18.2 343.2 18.2 C 343.8 18.2 344.1 18.4 344.6 18.8 C 345.2 19.2 345.5 19.8 346.1 20.2 C 346.7 20.7 347.0 21.0 347.6 21.0 C 348.2 21.0 348.5 20.3 349.1 19.8 C 349.6 19.2 349.9 18.7 350.5 18.2 C 351.1 17.7 351.4 17.5 352.0 17.2 C 352.6 16.8 352.9 16.6 353.5 16.6 C 354.1 16.6 354.3 16.8 354.9 16.8 C 355.5 16.8 355.8 16.2 356.4 16.2 C 357.0 16.2 357.3 16.3 357.9 16.3 C 358.5 16.3 358.8 16.2 359.3 16.1 C 359.9 16.1 360.2 16.0 360.8 16.0 C 361.4 16.0 361.7 17.0 362.3 17.0 C 362.9 17.0 363.2 17.0 363.8 17.0 C 364.3 17.0 364.6 17.8 365.2 18.2 C 365.8 18.6 366.1 18.6 366.7 18.9 C 367.3 19.2 367.6 19.3 368.2 19.6 C 368.8 19.9 369.0 20.0 369.6 20.4 C 370.2 20.7 370.5 21.4 371.1 21.4 C 371.7 21.4 372.0 20.7 372.6 20.7 C 373.2 20.7 373.5 20.8 374.0 20.8 C 374.6 20.8 374.9 20.0 375.5 20.0 C 376.1 20.0 376.4 20.4 377.0 20.6 C 377.6 20.8 377.9 20.9 378.5 20.9 C 379.0 20.9 379.3 19.7 379.9 19.7 C 380.5 19.7 380.8 20.0 381.4 20.2 C 382.0 20.4 382.3 20.4 382.9 20.8 C 383.5 21.2 383.7 21.9 384.3 22.2 C 384.9 22.5 385.2 22.5 385.8 22.5 C 386.4 22.5 386.7 22.5 387.3 22.5 C 387.9 22.5 388.2 23.3 388.7 23.3 C 389.3 23.3 389.6 23.3 390.2 23.1 C 390.8 22.9 391.1 22.8 391.7 22.3 C 392.3 21.7 392.6 21.0 393.2 20.4 C 393.7 19.7 394.0 19.3 394.6 19.1 C 395.2 19.0 395.5 19.1 396.1 19.0 C 396.7 18.8 397.0 18.4 397.6 18.1 C 398.2 17.7 398.5 17.2 399.0 17.2 C 399.6 17.2 399.9 18.3 400.5 19.1 C 401.1 20.0 401.4 21.7 402.0 21.7 C 402.6 21.7 402.9 21.6 403.5 21.6 C 404.0 21.6 404.3 22.1 404.9 22.1 C 405.5 22.1 405.8 19.7 406.4 19.7 C 407.0 19.7 407.3 20.2 407.9 20.2 C 408.4 20.2 408.7 19.1 409.3 19.1 C 409.9 19.1 410.2 19.5 410.8 19.8 C 411.4 20.2 411.7 20.9 412.3 20.9 C 412.9 20.9 413.2 20.9 413.7 20.5 C 414.3 20.0 414.6 18.3 415.2 18.2 C 415.8 18.1 416.1 18.1 416.7 18.1 C 417.3 18.1 417.6 18.1 418.2 18.4 C 418.7 18.6 419.0 19.5 419.6 19.5 C 420.2 19.5 420.5 18.9 421.1 18.9 C 421.7 18.9 422.0 19.2 422.6 19.8 C 423.2 20.5 423.4 22.1 424.0 22.1 C 424.6 22.1 424.9 21.6 425.5 21.3 C 426.1 21.0 426.4 20.7 427.0 20.6 C 427.6 20.5 427.9 20.5 428.4 20.5 C 429.0 20.4 429.3 20.3 429.9 20.2 C 430.5 20.1 430.8 20.2 431.4 20.0 C 432.0 19.8 432.3 18.2 432.9 17.5 C 433.4 16.9 433.7 17.2 434.3 16.9 C 434.9 16.5 435.2 16.3 435.8 15.8 C 436.4 15.3 436.7 14.7 437.3 14.3 C 437.9 13.9 438.1 14.1 438.7 13.7 C 439.3 13.4 439.6 13.0 440.2 12.7 C 440.8 12.4 441.1 12.7 441.7 12.4 C 442.3 12.1 442.6 11.6 443.1 11.2 C 443.7 10.9 444.0 10.5 444.6 10.5 C 445.2 10.5 445.5 10.5 446.1 10.5 C 446.7 10.5 447.0 9.3 447.6 9.3 C 448.1 9.3 448.4 10.2 449.0 10.2 C 449.6 10.2 449.9 9.7 450.5 9.7 C 451.1 9.7 451.4 10.2 452.0 10.7 C 452.6 11.2 452.9 12.3 453.4 12.3 C 454.0 12.3 454.3 11.6 454.9 11.2 C 455.5 10.8 455.8 10.1 456.4 10.1 C 457.0 10.1 457.3 10.3 457.8 10.7 C 458.4 11.1 458.7 11.7 459.3 12.3 C 459.9 12.8 460.2 13.1 460.8 13.6 C 461.4 14.0 461.7 14.3 462.3 14.5 C 462.8 14.8 463.1 14.8 463.7 14.9 C 464.3 15.0 464.6 15.0 465.2 15.0 C 465.8 15.0 466.1 15.0 466.7 14.6 C 467.3 14.1 467.6 12.7 468.1 12.7 C 468.7 12.7 469.0 13.3 469.6 13.3 C 470.2 13.3 470.5 12.6 471.1 12.6 C 471.7 12.6 472.0 14.4 472.6 14.4 C 473.1 14.4 473.4 13.4 474.0 13.4 C 474.6 13.4 474.9 14.7 475.5 14.7 C 476.1 14.7 476.4 14.6 477.0 14.3 C 477.5 14.0 477.8 13.3 478.4 13.0 C 479.0 12.7 479.3 12.8 479.9 12.7 C 480.5 12.6 480.8 12.6 481.4 12.5 C 482.0 12.5 482.3 12.5 482.8 12.5 C 483.4 12.4 483.7 12.3 484.3 12.2 C 484.9 12.2 485.2 12.2 485.8 12.1 C 486.4 11.9 486.7 11.5 487.3 11.5 C 487.8 11.5 488.1 12.6 488.7 13.1 C 489.3 13.5 489.6 13.5 490.2 13.8 C 490.8 14.2 491.1 14.7 491.7 14.7 C 492.3 14.7 492.5 14.5 493.1 14.5 C 493.7 14.5 494.0 16.7 494.6 16.7 C 495.2 16.7 495.5 14.9 496.1 14.8 C 496.7 14.7 497.0 14.7 497.5 14.7 C 498.1 14.7 498.4 18.1 499.0 18.2 C 499.6 18.3 499.9 18.3 500.5 18.3 C 501.1 18.3 501.4 18.2 502.0 18.2 C 502.5 18.2 502.8 19.1 503.4 19.1 C 504.0 19.1 504.3 18.5 504.9 18.2 C 505.5 17.9 505.8 17.6 506.4 17.6 C 507.0 17.6 507.2 18.6 507.8 18.6 C 508.4 18.6 508.7 18.2 509.3 18.2 C 509.9 18.2 510.2 18.9 510.8 18.9 C 511.4 18.9 511.7 18.4 512.2 18.1 C 512.8 17.8 513.1 17.6 513.7 17.4 C 514.3 17.2 514.6 17.0 515.2 17.0 C 515.8 17.0 516.1 17.6 516.7 17.6 C 517.2 17.6 517.5 16.8 518.1 16.8 C 518.7 16.8 519.0 17.0 519.6 17.1 C 520.2 17.1 520.5 17.3 521.1 17.3 C 521.7 17.3 522.0 16.5 522.5 16.5 C 523.1 16.5 523.4 16.8 524.0 16.8 C 524.6 16.8 524.9 16.5 525.5 16.4 C 526.1 16.3 526.4 16.3 526.9 16.2 C 527.5 16.0 527.8 16.0 528.4 15.7 C 529.0 15.4 529.3 14.7 529.9 14.7 C 530.5 14.7 530.8 15.1 531.4 15.1 C 531.9 15.1 532.2 12.5 532.8 11.3 C 533.4 10.0 533.7 8.7 534.3 8.6 C 535.0 8.5 536 8.5 536 8.5 L 536 40 L 0 40" ></path><path fill="none" d="M 0 25.0 C 0 25.0 1.2 24.3 2.1 24.3 C 2.7 24.3 3.0 24.6 3.6 25.0 C 4.1 25.4 4.4 25.9 5.0 26.2 C 5.6 26.5 5.9 26.6 6.5 26.6 C 7.1 26.6 7.4 25.7 8.0 25.2 C 8.5 24.8 8.8 24.8 9.4 24.6 C 10.0 24.3 10.3 24.0 10.9 24.0 C 11.5 24.0 11.8 25.2 12.4 25.2 C 13.0 25.2 13.3 25.1 13.8 24.7 C 14.4 24.2 14.7 23.0 15.3 22.9 C 15.9 22.9 16.2 22.9 16.8 22.9 C 17.4 22.8 17.7 22.8 18.3 22.6 C 18.8 22.3 19.1 22.2 19.7 21.8 C 20.3 21.3 20.6 20.3 21.2 20.3 C 21.8 20.2 22.1 20.2 22.7 20.2 C 23.3 20.2 23.5 20.6 24.1 20.6 C 24.7 20.6 25.0 20.0 25.6 19.6 C 26.2 19.2 26.5 18.9 27.1 18.5 C 27.7 18.2 28.0 18.2 28.5 17.9 C 29.1 17.6 29.4 17.4 30.0 17.2 C 30.6 17.0 30.9 17.1 31.5 16.9 C 32.1 16.6 32.4 16.0 33.0 16.0 C 33.5 16.0 33.8 16.2 34.4 16.2 C 35.0 16.2 35.3 15.8 35.9 15.6 C 36.5 15.3 36.8 15.2 37.4 15.0 C 38.0 14.8 38.2 14.9 38.8 14.6 C 39.4 14.3 39.7 13.7 40.3 13.7 C 40.9 13.7 41.2 14.2 41.8 14.5 C 42.4 14.7 42.7 14.9 43.2 14.9 C 43.8 14.9 44.1 14.1 44.7 13.9 C 45.3 13.6 45.6 13.7 46.2 13.6 C 46.8 13.5 47.1 13.5 47.7 13.5 C 48.2 13.5 48.5 13.9 49.1 13.9 C 49.7 13.9 50.0 13.4 50.6 13.0 C 51.2 12.6 51.5 11.7 52.1 11.7 C 52.7 11.7 53.0 12.1 53.5 12.3 C 54.1 12.5 54.4 12.3 55.0 12.6 C 55.6 13.0 55.9 14.2 56.5 14.5 C 57.1 14.9 57.4 14.9 57.9 14.9 C 58.5 14.9 58.8 14.9 59.4 14.9 C 60.0 14.9 60.3 15.9 60.9 16.4 C 61.5 16.9 61.8 17.2 62.4 17.5 C 62.9 17.8 63.2 17.9 63.8 17.9 C 64.4 17.9 64.7 16.6 65.3 16.6 C 65.9 16.6 66.2 17.0 66.8 17.0 C 67.4 17.0 67.7 16.6 68.2 16.4 C 68.8 16.3 69.1 16.2 69.7 16.0 C 70.3 15.8 70.6 15.7 71.2 15.5 C 71.8 15.2 72.1 15.4 72.7 14.8 C 73.2 14.3 73.5 13.1 74.1 12.7 C 74.7 12.3 75.0 12.4 75.6 12.3 C 76.2 12.1 76.5 12.0 77.1 12.0 C 77.7 12.0 77.9 12.5 78.5 12.5 C 79.1 12.5 79.4 12.2 80.0 12.2 C 80.6 12.2 80.9 13.1 81.5 13.1 C 82.1 13.1 82.4 13.1 82.9 13.1 C 83.5 13.1 83.8 13.1 84.4 13.3 C 85.0 13.4 85.3 14.1 85.9 14.1 C 86.5 14.1 86.8 13.6 87.4 13.6 C 87.9 13.6 88.2 13.9 88.8 13.9 C 89.4 13.9 89.7 12.1 90.3 12.1 C 90.9 12.1 91.2 12.3 91.8 12.8 C 92.4 13.3 92.6 14.7 93.2 14.7 C 93.8 14.7 94.1 14.4 94.7 14.4 C 95.3 14.4 95.6 16.4 96.2 16.4 C 96.8 16.4 97.1 16.2 97.6 16.2 C 98.2 16.1 98.5 16.1 99.1 16.0 C 99.7 15.9 100.0 15.8 100.6 15.6 C 101.2 15.5 101.5 15.2 102.1 15.2 C 102.6 15.2 102.9 15.6 103.5 15.6 C 104.1 15.6 104.4 14.8 105.0 14.4 C 105.6 14.1 105.9 14.2 106.5 14.0 C 107.1 13.8 107.3 13.7 107.9 13.4 C 108.5 13.1 108.8 13.2 109.4 12.6 C 110.0 12.0 110.3 12.2 110.9 10.4 C 111.5 8.5 111.8 3.5 112.3 3.5 C 112.9 3.5 113.2 4.0 113.8 4.7 C 114.4 5.5 114.7 7.2 115.3 7.2 C 115.9 7.2 116.2 6.7 116.8 6.7 C 117.3 6.7 117.6 8.0 118.2 8.0 C 118.8 8.0 119.1 7.8 119.7 7.4 C 120.3 6.9 120.6 6.2 121.2 5.8 C 121.8 5.4 122.1 5.8 122.6 5.3 C 123.2 4.8 123.5 3.3 124.1 3.3 C 124.7 3.3 125.0 4.5 125.6 5.2 C 126.2 5.9 126.5 6.3 127.0 6.8 C 127.6 7.3 127.9 7.2 128.5 7.8 C 129.1 8.3 129.4 8.9 130.0 9.4 C 130.6 9.9 130.9 9.4 131.5 10.1 C 132.0 10.7 132.3 14.6 132.9 15.3 C 133.5 15.9 133.8 15.7 134.4 15.9 C 135.0 16.2 135.3 16.5 135.9 16.6 C 136.5 16.8 136.8 16.7 137.3 16.8 C 137.9 17.0 138.2 17.3 138.8 17.3 C 139.4 17.3 139.7 16.3 140.3 15.9 C 140.9 15.5 141.2 15.3 141.8 15.3 C 142.3 15.3 142.6 15.8 143.2 15.8 C 143.8 15.8 144.1 15.0 144.7 15.0 C 145.3 15.0 145.6 15.4 146.2 15.4 C 146.8 15.4 147.0 15.4 147.6 15.3 C 148.2 15.2 148.5 12.3 149.1 12.3 C 149.7 12.3 150.0 15.2 150.6 15.2 C 151.2 15.2 151.5 14.9 152.0 14.6 C 152.6 14.2 152.9 13.4 153.5 13.4 C 154.1 13.4 154.4 15.3 155.0 15.7 C 155.6 16.2 155.9 15.9 156.5 16.2 C 157.0 16.5 157.3 17.2 157.9 17.2 C 158.5 17.2 158.8 17.0 159.4 16.7 C 160.0 16.4 160.3 15.6 160.9 15.6 C 161.5 15.6 161.7 16.2 162.3 16.9 C 162.9 17.6 163.2 18.3 163.8 19.0 C 164.4 19.8 164.7 20.6 165.3 20.6 C 165.9 20.6 166.2 19.3 166.7 19.3 C 167.3 19.3 167.6 20.0 168.2 20.1 C 168.8 20.3 169.1 20.3 169.7 20.3 C 170.3 20.3 170.6 19.3 171.2 18.6 C 171.7 18.0 172.0 16.8 172.6 16.8 C 173.2 16.8 173.5 17.6 174.1 17.6 C 174.7 17.6 175.0 17.4 175.6 17.4 C 176.2 17.4 176.4 19.1 177.0 19.1 C 177.6 19.1 177.9 18.8 178.5 18.8 C 179.1 18.8 179.4 20.7 180.0 20.7 C 180.6 20.7 180.9 19.8 181.4 19.8 C 182.0 19.7 182.3 19.7 182.9 19.7 C 183.5 19.7 183.8 24.8 184.4 24.8 C 185.0 24.8 185.3 23.0 185.9 23.0 C 186.4 23.0 186.7 24.6 187.3 25.1 C 187.9 25.7 188.2 25.5 188.8 25.7 C 189.4 25.9 189.7 25.7 190.3 26.2 C 190.9 26.7 191.2 27.3 191.7 28.3 C 192.3 29.3 192.6 31.4 193.2 31.4 C 193.8 31.4 194.1 29.0 194.7 29.0 C 195.3 29.0 195.6 30.7 196.1 30.7 C 196.7 30.7 197.0 29.3 197.6 29.3 C 198.2 29.3 198.5 30.2 199.1 30.5 C 199.7 30.8 200.0 30.9 200.6 30.9 C 201.1 30.9 201.4 30.7 202.0 30.4 C 202.6 30.1 202.9 29.5 203.5 29.5 C 204.1 29.5 204.4 29.8 205.0 30.5 C 205.6 31.1 205.9 32.2 206.4 32.8 C 207.0 33.4 207.3 33.5 207.9 33.5 C 208.5 33.5 208.8 32.2 209.4 31.7 C 210.0 31.2 210.3 31.0 210.9 31.0 C 211.4 31.0 211.7 32.0 212.3 32.8 C 212.9 33.6 213.2 34.1 213.8 34.8 C 214.4 35.6 214.7 36.6 215.3 36.6 C 215.9 36.6 216.1 35.7 216.7 35.3 C 217.3 34.9 217.6 35.3 218.2 34.7 C 218.8 34.1 219.1 33.1 219.7 32.5 C 220.3 31.9 220.6 32.1 221.1 31.8 C 221.7 31.5 222.0 31.1 222.6 30.9 C 223.2 30.7 223.5 30.7 224.1 30.7 C 224.7 30.7 225.0 30.9 225.6 30.9 C 226.1 30.9 226.4 29.3 227.0 29.3 C 227.6 29.3 227.9 30.1 228.5 30.1 C 229.1 30.1 229.4 30.0 230.0 29.9 C 230.6 29.7 230.8 29.5 231.4 29.3 C 232.0 29.2 232.3 29.3 232.9 28.9 C 233.5 28.4 233.8 27.6 234.4 26.9 C 235.0 26.2 235.3 26.1 235.8 25.5 C 236.4 24.9 236.7 23.8 237.3 23.8 C 237.9 23.8 238.2 24.1 238.8 24.1 C 239.4 24.1 239.7 23.7 240.3 23.7 C 240.8 23.7 241.1 25.4 241.7 25.4 C 242.3 25.4 242.6 24.1 243.2 23.4 C 243.8 22.8 244.1 22.1 244.7 22.1 C 245.3 22.1 245.5 23.9 246.1 23.9 C 246.7 23.9 247.0 23.7 247.6 23.7 C 248.2 23.7 248.5 24.0 249.1 24.0 C 249.7 24.0 250.0 24.0 250.5 23.6 C 251.1 23.3 251.4 22.1 252.0 22.1 C 252.6 22.1 252.9 22.8 253.5 22.8 C 254.1 22.8 254.4 22.1 255.0 21.8 C 255.5 21.5 255.8 21.5 256.4 21.2 C 257.0 21.0 257.3 20.5 257.9 20.5 C 258.5 20.5 258.8 20.7 259.4 20.9 C 260.0 21.0 260.3 21.2 260.8 21.2 C 261.4 21.2 261.7 20.2 262.3 19.7 C 262.9 19.2 263.2 19.4 263.8 18.7 C 264.4 18.0 264.7 16.3 265.3 16.3 C 265.8 16.3 266.1 16.6 266.7 16.6 C 267.3 16.6 267.6 15.3 268.2 14.7 C 268.8 14.2 269.1 13.8 269.7 13.8 C 270.2 13.8 270.5 13.9 271.1 13.9 C 271.7 13.9 272.0 13.8 272.6 13.8 C 273.2 13.8 273.5 13.9 274.1 13.9 C 274.7 13.9 275.0 13.8 275.5 13.4 C 276.1 13.1 276.4 12.2 277.0 12.1 C 277.6 12.0 277.9 12.0 278.5 12.0 C 279.1 12.0 279.4 12.1 280.0 12.3 C 280.5 12.4 280.8 12.5 281.4 12.7 C 282.0 12.8 282.3 12.7 282.9 13.0 C 283.5 13.3 283.8 14.2 284.4 14.8 C 285.0 15.5 285.2 15.9 285.8 16.3 C 286.4 16.7 286.7 16.8 287.3 16.8 C 287.9 16.8 288.2 16.0 288.8 15.9 C 289.4 15.8 289.7 15.8 290.2 15.8 C 290.8 15.7 291.1 15.8 291.7 15.7 C 292.3 15.6 292.6 15.4 293.2 15.1 C 293.8 14.9 294.1 14.5 294.7 14.3 C 295.2 14.0 295.5 13.9 296.1 13.9 C 296.7 13.9 297.0 14.5 297.6 14.5 C 298.2 14.5 298.5 14.5 299.1 14.1 C 299.7 13.7 299.9 13.0 300.5 12.5 C 301.1 12.0 301.4 11.5 302.0 11.5 C 302.6 11.5 302.9 11.5 303.5 12.1 C 304.1 12.6 304.4 13.5 304.9 14.1 C 305.5 14.7 305.8 14.4 306.4 15.0 C 307.0 15.5 307.3 15.7 307.9 16.8 C 308.5 17.9 308.8 20.2 309.4 20.2 C 309.9 20.2 310.2 19.7 310.8 19.7 C 311.4 19.7 311.7 21.3 312.3 21.3 C 312.9 21.3 313.2 19.5 313.8 19.5 C 314.4 19.5 314.6 20.1 315.2 21.1 C 315.8 22.0 316.1 24.1 316.7 24.1 C 317.3 24.1 317.6 23.7 318.2 23.1 C 318.8 22.6 319.1 21.8 319.6 21.3 C 320.2 20.8 320.5 21.0 321.1 20.8 C 321.7 20.5 322.0 19.9 322.6 19.9 C 323.2 19.9 323.5 19.9 324.1 20.2 C 324.6 20.5 324.9 21.3 325.5 21.7 C 326.1 22.2 326.4 22.0 327.0 22.3 C 327.6 22.6 327.9 22.9 328.5 23.1 C 329.1 23.3 329.4 23.4 329.9 23.4 C 330.5 23.4 330.8 23.4 331.4 23.2 C 332.0 22.9 332.3 21.3 332.9 21.3 C 333.5 21.3 333.8 21.6 334.4 21.7 C 334.9 21.9 335.2 22.1 335.8 22.3 C 336.4 22.4 336.7 22.6 337.3 22.6 C 337.9 22.6 338.2 21.7 338.8 21.4 C 339.3 21.0 339.6 21.2 340.2 20.9 C 340.8 20.6 341.1 20.5 341.7 19.9 C 342.3 19.4 342.6 18.2 343.2 18.2 C 343.8 18.2 344.1 18.4 344.6 18.8 C 345.2 19.2 345.5 19.8 346.1 20.2 C 346.7 20.7 347.0 21.0 347.6 21.0 C 348.2 21.0 348.5 20.3 349.1 19.8 C 349.6 19.2 349.9 18.7 350.5 18.2 C 351.1 17.7 351.4 17.5 352.0 17.2 C 352.6 16.8 352.9 16.6 353.5 16.6 C 354.1 16.6 354.3 16.8 354.9 16.8 C 355.5 16.8 355.8 16.2 356.4 16.2 C 357.0 16.2 357.3 16.3 357.9 16.3 C 358.5 16.3 358.8 16.2 359.3 16.1 C 359.9 16.1 360.2 16.0 360.8 16.0 C 361.4 16.0 361.7 17.0 362.3 17.0 C 362.9 17.0 363.2 17.0 363.8 17.0 C 364.3 17.0 364.6 17.8 365.2 18.2 C 365.8 18.6 366.1 18.6 366.7 18.9 C 367.3 19.2 367.6 19.3 368.2 19.6 C 368.8 19.9 369.0 20.0 369.6 20.4 C 370.2 20.7 370.5 21.4 371.1 21.4 C 371.7 21.4 372.0 20.7 372.6 20.7 C 373.2 20.7 373.5 20.8 374.0 20.8 C 374.6 20.8 374.9 20.0 375.5 20.0 C 376.1 20.0 376.4 20.4 377.0 20.6 C 377.6 20.8 377.9 20.9 378.5 20.9 C 379.0 20.9 379.3 19.7 379.9 19.7 C 380.5 19.7 380.8 20.0 381.4 20.2 C 382.0 20.4 382.3 20.4 382.9 20.8 C 383.5 21.2 383.7 21.9 384.3 22.2 C 384.9 22.5 385.2 22.5 385.8 22.5 C 386.4 22.5 386.7 22.5 387.3 22.5 C 387.9 22.5 388.2 23.3 388.7 23.3 C 389.3 23.3 389.6 23.3 390.2 23.1 C 390.8 22.9 391.1 22.8 391.7 22.3 C 392.3 21.7 392.6 21.0 393.2 20.4 C 393.7 19.7 394.0 19.3 394.6 19.1 C 395.2 19.0 395.5 19.1 396.1 19.0 C 396.7 18.8 397.0 18.4 397.6 18.1 C 398.2 17.7 398.5 17.2 399.0 17.2 C 399.6 17.2 399.9 18.3 400.5 19.1 C 401.1 20.0 401.4 21.7 402.0 21.7 C 402.6 21.7 402.9 21.6 403.5 21.6 C 404.0 21.6 404.3 22.1 404.9 22.1 C 405.5 22.1 405.8 19.7 406.4 19.7 C 407.0 19.7 407.3 20.2 407.9 20.2 C 408.4 20.2 408.7 19.1 409.3 19.1 C 409.9 19.1 410.2 19.5 410.8 19.8 C 411.4 20.2 411.7 20.9 412.3 20.9 C 412.9 20.9 413.2 20.9 413.7 20.5 C 414.3 20.0 414.6 18.3 415.2 18.2 C 415.8 18.1 416.1 18.1 416.7 18.1 C 417.3 18.1 417.6 18.1 418.2 18.4 C 418.7 18.6 419.0 19.5 419.6 19.5 C 420.2 19.5 420.5 18.9 421.1 18.9 C 421.7 18.9 422.0 19.2 422.6 19.8 C 423.2 20.5 423.4 22.1 424.0 22.1 C 424.6 22.1 424.9 21.6 425.5 21.3 C 426.1 21.0 426.4 20.7 427.0 20.6 C 427.6 20.5 427.9 20.5 428.4 20.5 C 429.0 20.4 429.3 20.3 429.9 20.2 C 430.5 20.1 430.8 20.2 431.4 20.0 C 432.0 19.8 432.3 18.2 432.9 17.5 C 433.4 16.9 433.7 17.2 434.3 16.9 C 434.9 16.5 435.2 16.3 435.8 15.8 C 436.4 15.3 436.7 14.7 437.3 14.3 C 437.9 13.9 438.1 14.1 438.7 13.7 C 439.3 13.4 439.6 13.0 440.2 12.7 C 440.8 12.4 441.1 12.7 441.7 12.4 C 442.3 12.1 442.6 11.6 443.1 11.2 C 443.7 10.9 444.0 10.5 444.6 10.5 C 445.2 10.5 445.5 10.5 446.1 10.5 C 446.7 10.5 447.0 9.3 447.6 9.3 C 448.1 9.3 448.4 10.2 449.0 10.2 C 449.6 10.2 449.9 9.7 450.5 9.7 C 451.1 9.7 451.4 10.2 452.0 10.7 C 452.6 11.2 452.9 12.3 453.4 12.3 C 454.0 12.3 454.3 11.6 454.9 11.2 C 455.5 10.8 455.8 10.1 456.4 10.1 C 457.0 10.1 457.3 10.3 457.8 10.7 C 458.4 11.1 458.7 11.7 459.3 12.3 C 459.9 12.8 460.2 13.1 460.8 13.6 C 461.4 14.0 461.7 14.3 462.3 14.5 C 462.8 14.8 463.1 14.8 463.7 14.9 C 464.3 15.0 464.6 15.0 465.2 15.0 C 465.8 15.0 466.1 15.0 466.7 14.6 C 467.3 14.1 467.6 12.7 468.1 12.7 C 468.7 12.7 469.0 13.3 469.6 13.3 C 470.2 13.3 470.5 12.6 471.1 12.6 C 471.7 12.6 472.0 14.4 472.6 14.4 C 473.1 14.4 473.4 13.4 474.0 13.4 C 474.6 13.4 474.9 14.7 475.5 14.7 C 476.1 14.7 476.4 14.6 477.0 14.3 C 477.5 14.0 477.8 13.3 478.4 13.0 C 479.0 12.7 479.3 12.8 479.9 12.7 C 480.5 12.6 480.8 12.6 481.4 12.5 C 482.0 12.5 482.3 12.5 482.8 12.5 C 483.4 12.4 483.7 12.3 484.3 12.2 C 484.9 12.2 485.2 12.2 485.8 12.1 C 486.4 11.9 486.7 11.5 487.3 11.5 C 487.8 11.5 488.1 12.6 488.7 13.1 C 489.3 13.5 489.6 13.5 490.2 13.8 C 490.8 14.2 491.1 14.7 491.7 14.7 C 492.3 14.7 492.5 14.5 493.1 14.5 C 493.7 14.5 494.0 16.7 494.6 16.7 C 495.2 16.7 495.5 14.9 496.1 14.8 C 496.7 14.7 497.0 14.7 497.5 14.7 C 498.1 14.7 498.4 18.1 499.0 18.2 C 499.6 18.3 499.9 18.3 500.5 18.3 C 501.1 18.3 501.4 18.2 502.0 18.2 C 502.5 18.2 502.8 19.1 503.4 19.1 C 504.0 19.1 504.3 18.5 504.9 18.2 C 505.5 17.9 505.8 17.6 506.4 17.6 C 507.0 17.6 507.2 18.6 507.8 18.6 C 508.4 18.6 508.7 18.2 509.3 18.2 C 509.9 18.2 510.2 18.9 510.8 18.9 C 511.4 18.9 511.7 18.4 512.2 18.1 C 512.8 17.8 513.1 17.6 513.7 17.4 C 514.3 17.2 514.6 17.0 515.2 17.0 C 515.8 17.0 516.1 17.6 516.7 17.6 C 517.2 17.6 517.5 16.8 518.1 16.8 C 518.7 16.8 519.0 17.0 519.6 17.1 C 520.2 17.1 520.5 17.3 521.1 17.3 C 521.7 17.3 522.0 16.5 522.5 16.5 C 523.1 16.5 523.4 16.8 524.0 16.8 C 524.6 16.8 524.9 16.5 525.5 16.4 C 526.1 16.3 526.4 16.3 526.9 16.2 C 527.5 16.0 527.8 16.0 528.4 15.7 C 529.0 15.4 529.3 14.7 529.9 14.7 C 530.5 14.7 530.8 15.1 531.4 15.1 C 531.9 15.1 532.2 12.5 532.8 11.3 C 533.4 10.0 533.7 8.7 534.3 8.6 C 535.0 8.5 536 8.5 536 8.5" stroke="#4572A7" stroke-width="1"  stroke-linejoin="round" stroke-linecap="round"></path></g><g class="highcharts-markers" visibility="visible"  transform="translate(24,331) scale(1 1)" clip-path="url(#highcharts-4)"></g></g><g class="highcharts-navigator" ><rect fill="rgb(128,179,236)" fill-opacity="0.3" style="cursor:ew-resize ;" x="483" y="331" width="77" height="40"></rect><path fill="none" stroke="#b2b1b6" stroke-width="1" d="M 10 331.5 L 482.5 331.5 482.5 385.5 L 559.5 385.5 L 559.5 331.5 574 331.5 M 483.5 331.5 L 559.5 331.5"></path></g><g class="highcharts-navigator-handle-right" style="cursor:ew-resize;"  transform="translate(560,343)"><rect x="-4.5" y="0.5" width="8" height="15" strokeWidth="1" fill="#ebe7e8" stroke="#b2b1b6" stroke-width="1"></rect><path fill="#ebe7e8" d="M -1.5 4 L -1.5 12 M 0.5 4 L 0.5 12" stroke="#b2b1b6" stroke-width="1"></path></g><g class="highcharts-navigator-handle-left" style="cursor:ew-resize;"  transform="translate(483,343)"><rect x="-4.5" y="0.5" width="8" height="15" strokeWidth="1" fill="#ebe7e8" stroke="#b2b1b6" stroke-width="1"></rect><path fill="#ebe7e8" d="M -1.5 4 L -1.5 12 M 0.5 4 L 0.5 12" stroke="#b2b1b6" stroke-width="1"></path></g><g class="highcharts-axis-labels highcharts-xaxis-labels" ><text x="90.3" style="color:#606060;cursor:default;font-size:11px;fill:#606060;" text-anchor="middle" transform="translate(0,0)" y="304" opacity="1"><tspan>Jul '12</tspan></text><text x="186.1" style="color:#606060;cursor:default;font-size:11px;fill:#606060;" text-anchor="middle" transform="translate(0,0)" y="304" opacity="1"><tspan>Sep '12</tspan></text><text x="280.4" style="color:#606060;cursor:default;font-size:11px;fill:#606060;" text-anchor="middle" transform="translate(0,0)" y="304" opacity="1"><tspan>Nov '12</tspan></text><text x="374.6" style="color:#606060;cursor:default;font-size:11px;fill:#606060;" text-anchor="middle" transform="translate(0,0)" y="304" opacity="1"><tspan>Jan '13</tspan></text><text x="465.8" style="color:#606060;cursor:default;font-size:11px;fill:#606060;" text-anchor="middle" transform="translate(0,0)" y="304" opacity="1"><tspan>Mar '13</tspan></text><text x="574" style="color:#606060;cursor:default;font-size:11px;fill:#606060;" text-anchor="end" transform="translate(0,0)" y="304" opacity="1"><tspan>May '13</tspan></text></g><g class="highcharts-axis-labels highcharts-xaxis-labels" ><text x="152.1" style="color:#888;cursor:default;font-size:11px;fill:#888;width:178px;text-overflow:clip;" text-anchor="start" transform="translate(0,0)" y="367" opacity="1">2008</text><text x="305.7" style="color:#888;cursor:default;font-size:11px;fill:#888;width:178px;text-overflow:clip;" text-anchor="start" transform="translate(0,0)" y="367" opacity="1">2010</text><text x="459.0" style="color:#888;cursor:default;font-size:11px;fill:#888;width:178px;text-overflow:clip;" text-anchor="start" transform="translate(0,0)" y="367" opacity="1">2012</text></g><g class="highcharts-axis-labels highcharts-yaxis-labels" ><text x="574" style="color:#606060;cursor:default;font-size:11px;fill:#606060;width:183px;text-overflow:clip;" text-anchor="end" transform="translate(0,0)" y="283" opacity="1">-50%</text><text x="574" style="color:#606060;cursor:default;font-size:11px;fill:#606060;width:183px;text-overflow:clip;" text-anchor="end" transform="translate(0,0)" y="223" opacity="1">-25%</text><text x="574" style="color:#606060;cursor:default;font-size:11px;fill:#606060;width:183px;text-overflow:clip;" text-anchor="end" transform="translate(0,0)" y="163" opacity="1">0%</text><text x="574" style="color:#606060;cursor:default;font-size:11px;fill:#606060;width:183px;text-overflow:clip;" text-anchor="end" transform="translate(0,0)" y="103" opacity="1"><tspan> + 25%</tspan></text><text x="0" style="color:#606060;cursor:default;font-size:11px;fill:#606060;width:183px;text-overflow:clip;" text-anchor="end" transform="translate(0,0)" y="-9999"><tspan> + 50%</tspan></text></g><g class="highcharts-axis-labels highcharts-yaxis-labels" ></g><g class="highcharts-tooltip"  style="cursor:default;padding:0;white-space:nowrap;" transform="translate(0,-9999)"><path fill="none" d="M 3 0 L 13 0 C 16 0 16 0 16 3 L 16 13 C 16 16 16 16 13 16 L 3 16 C 0 16 0 16 0 13 L 0 3 C 0 0 0 0 3 0"  stroke="black" stroke-opacity="0.0" stroke-width="5" transform="translate(1, 1)"></path><path fill="none" d="M 3 0 L 13 0 C 16 0 16 0 16 3 L 16 13 C 16 16 16 16 13 16 L 3 16 C 0 16 0 16 0 13 L 0 3 C 0 0 0 0 3 0"  stroke="black" stroke-opacity="0.0" stroke-width="3" transform="translate(1, 1)"></path><path fill="none" d="M 3 0 L 13 0 C 16 0 16 0 16 3 L 16 13 C 16 16 16 16 13 16 L 3 16 C 0 16 0 16 0 13 L 0 3 C 0 0 0 0 3 0"  stroke="black" stroke-opacity="0.1" stroke-width="1" transform="translate(1, 1)"></path><path fill="rgb(249, 249, 249)" fill-opacity=" .85" d="M 3 0 L 13 0 C 16 0 16 0 16 3 L 16 13 C 16 16 16 16 13 16 L 3 16 C 0 16 0 16 0 13 L 0 3 C 0 0 0 0 3 0"></path><text x="8"  style="font-size:12px;color:#333333;fill:#333333;" y="20"></text></g></svg>