<svg version="1.1" style="font-family:&quot;lucida grande&quot;, &quot;lucida sans unicode&quot;, arial, helvetica, sans-serif;font-size:12px;" xmlns="http://www.w3.org/2000/svg" width="584" height="400" viewBox="0 0 584 400"><desc>Created with Highstock 2.1.0</desc><defs><clipPath id="highcharts-1"><rect x="0" y="0" width="540" height="192"></rect></clipPath><clipPath id="highcharts-2"><rect x="-99" y="-93" width="639" height="400"></rect></clipPath><clipPath id="highcharts-3"><rect x="0" y="0" width="540" height="192"></rect></clipPath><clipPath id="highcharts-4"><rect x="-99" y="-93" width="639" height="400"></rect></clipPath><clipPath id="highcharts-5"><rect x="0" y="0" width="540" height="40"></rect></clipPath></defs><rect x="0" y="0" width="584" height="400" strokeWidth="0" fill="#FFFFFF" class=" highcharts-background"></rect><g class="highcharts-scrollbar" transform="translate(10,372)"><rect x="0" y="-0.5" fill="#eeeeee" stroke="#eeeeee" stroke-width="1" rx="0" ry="0" height="14" width="540"></rect><rect y="-0.5" height="14" fill="#bfc8d1" stroke="#bfc8d1" stroke-width="1" rx="0" ry="0" x="484.5" width="41"></rect><path fill="none" stroke="#666" stroke-width="1" visibility="visible" d="M 501.5 3.5 L 501.5 9.3 M 504.5 3.5 L 504.5 9.3 M 507.5 3.5 L 507.5 9.3"></path><g><rect x="-0.5" y="-0.5" width="14" height="14" strokeWidth="1" stroke="#bbb" stroke-width="1" fill="#ebe7e8"></rect><path fill="#666" d="M 8 4 L 8 10 5 7"></path></g><g transform="translate(526,0)"><rect x="-0.5" y="-0.5" width="14" height="14" strokeWidth="1" stroke="#bbb" stroke-width="1" fill="#ebe7e8"></rect><path fill="#666" d="M 6 4 L 6 10 9 7"></path></g></g><g class="highcharts-range-selector-buttons"><text x="10" y="73" style="color:#666;fill:#666;">Zoom</text><g class="highcharts-button"  states="[object Object]" style="cursor:pointer;text-align:center;" transform="translate(46,58)"><rect x="0" y="0" width="32" height="22" strokeWidth="0" fill="#f7f7f7" rx="0" ry="0"></rect><text x="9"  style="font-weight:normal;color:#444;fill:#444;" y="14">3d</text></g><g class="highcharts-button"  states="[object Object]" style="cursor:pointer;text-align:center;" transform="translate(83,58)"><rect x="0" y="0" width="32" height="22" strokeWidth="0" fill="#f7f7f7" rx="0" ry="0"></rect><text x="7.5"  style="font-weight:normal;color:#444;fill:#444;" y="14">1w</text></g><g class="highcharts-button"  states="[object Object]" style="cursor:pointer;text-align:center;" transform="translate(120,58)"><rect x="0" y="0" width="32" height="22" strokeWidth="0" fill="#f7f7f7" rx="0" ry="0"></rect><text x="7.5"  style="font-weight:normal;color:#444;fill:#444;" y="14">1m</text></g><g class="highcharts-button"  states="[object Object]" style="cursor:pointer;text-align:center;" transform="translate(157,58)"><rect x="0" y="0" width="32" height="22" strokeWidth="0" fill="#e7f0f9" rx="0" ry="0"></rect><text x="7.5"  style="font-weight:bold;color:black;fill:black;" y="14">6m</text></g><g class="highcharts-button"  states="[object Object]" style="cursor:pointer;text-align:center;" transform="translate(194,58)"><rect x="0" y="0" width="32" height="22" strokeWidth="0" fill="#f7f7f7" rx="0" ry="0"></rect><text x="9.5"  style="font-weight:normal;color:#444;fill:#444;" y="14">1y</text></g><g class="highcharts-button"  states="[object Object]" style="cursor:pointer;text-align:center;" transform="translate(231,58)"><rect x="0" y="0" width="32" height="22" strokeWidth="0" fill="#f7f7f7" rx="0" ry="0"></rect><text x="10"  style="font-weight:normal;color:#444;fill:#444;" y="14">All</text></g></g><g class="highcharts-input-group" transform="translate(316,58)" visibility="visible"><g style="fill:#666;" transform="translate(0,0)"><text x="2"  style="font-size:12px;font-family:&quot;lucida grande&quot;, &quot;lucida sans unicode&quot;, arial, helvetica, sans-serif;color:#666;fill:#666;" y="14">From</text></g><g style="text-align:center;" transform="translate(36,0)"><rect x="0.5" y="0.5" width="94" height="21" strokeWidth="1" fill="none" stroke="silver" stroke-width="1"></rect><text x="13.5"  style="font-size:12px;font-family:&quot;lucida grande&quot;, &quot;lucida sans unicode&quot;, arial, helvetica, sans-serif;color:#444;fill:#444;" y="14"><tspan>Oct 2, 2009</tspan></text></g><g style="fill:#666;" transform="translate(140,0)"><text x="2"  style="font-size:12px;font-family:&quot;lucida grande&quot;, &quot;lucida sans unicode&quot;, arial, helvetica, sans-serif;color:#666;fill:#666;" y="14">To</text></g><g style="text-align:center;" transform="translate(164,0)"><rect x="0.5" y="0.5" width="94" height="21" strokeWidth="1" fill="none" stroke="silver" stroke-width="1"></rect><text x="10.5"  style="font-size:12px;font-family:&quot;lucida grande&quot;, &quot;lucida sans unicode&quot;, arial, helvetica, sans-serif;color:#444;fill:#444;" y="14"><tspan>Mar 31, 2010</tspan></text></g></g><g class="highcharts-grid" ></g><g class="highcharts-grid" ><path fill="none" d="M 173.5 331 L 173.5 371" stroke="#EEE" stroke-width="1"  opacity="1"></path><path fill="none" d="M 343.5 331 L 343.5 371" stroke="#EEE" stroke-width="1"  opacity="1"></path><path fill="none" d="M 514.5 331 L 514.5 371" stroke="#EEE" stroke-width="1"  opacity="1"></path></g><g class="highcharts-grid" ><path fill="none" d="M 10 285.5 L 550 285.5" stroke="#D8D8D8" stroke-width="1"  opacity="1"></path><path fill="none" d="M 10 221.5 L 550 221.5" stroke="#D8D8D8" stroke-width="1"  opacity="1"></path><path fill="none" d="M 10 157.5 L 550 157.5" stroke="#D8D8D8" stroke-width="1"  opacity="1"></path><path fill="none" d="M 10 92.5 L 550 92.5" stroke="#D8D8D8" stroke-width="1"  opacity="1"></path></g><g class="highcharts-grid" ></g><g class="highcharts-axis" ><path fill="none" d="M 97.5 285 L 97.5 295" stroke="#C0D0E0" stroke-width="1" opacity="1"></path><path fill="none" d="M 187.5 285 L 187.5 295" stroke="#C0D0E0" stroke-width="1" opacity="1"></path><path fill="none" d="M 280.5 285 L 280.5 295" stroke="#C0D0E0" stroke-width="1" opacity="1"></path><path fill="none" d="M 373.5 285 L 373.5 295" stroke="#C0D0E0" stroke-width="1" opacity="1"></path><path fill="none" d="M 457.5 285 L 457.5 295" stroke="#C0D0E0" stroke-width="1" opacity="1"></path><path fill="none" d="M 10 285.5 L 550 285.5" stroke="#C0D0E0" stroke-width="1"  visibility="visible"></path></g><g class="highcharts-axis" ></g><g class="highcharts-axis" ><text x="560"  text-anchor="middle" transform="translate(0,0) rotate(90 560 189)" class=" highcharts-yaxis-title" style="color:#707070;fill:#707070;" visibility="visible" y="189"><tspan>Temperature (°C)</tspan></text></g><g class="highcharts-axis" ></g><g class="highcharts-series-group" ><g class="highcharts-series" visibility="visible"  transform="translate(10,93) scale(1 1)" clip-path="url(#highcharts-3)"><path fill="none" d="M -0.6 42.7 L 0.8 36 L 2.3 33.5 L 3.8 23.8 L 5.3 15.6 L 6.8 25.9 L 8.3 47.5 L 9.8 40.4 L 11.3 36.6 L 12.8 11.7 L 14.3 31.6 L 15.8 36.3 L 17.3 32.6 L 18.8 41.5 L 20.3 54.1 L 21.8 58.5 L 23.3 51.1 L 24.8 33.4 L 26.3 37.4 L 27.8 35.5 L 29.3 52.3 L 30.8 61.6 L 32.3 65.0 L 33.8 64.7 L 35.3 47.8 L 36.8 26.9 L 38.3 25.3 L 39.8 11.8 L 41.3 16.2 L 42.8 31.6 L 44.3 54.1 L 45.8 54.2 L 47.3 39.0 L 48.8 35.8 L 50.3 43.1 L 51.8 44.9 L 53.3 45.2 L 54.8 34.2 L 56.3 41.2 L 57.8 54.2 L 59.3 43.3 L 60.8 20.7 L 62.3 20.6 L 63.8 20.2 L 65.3 29.8 L 66.8 9.1 L 68.3 29.2 L 69.8 25.0 L 71.3 58.0 L 72.8 64 L 74.3 61.9 L 75.8 52.4 L 77.3 66.8 L 78.8 55.6 L 80.3 47.6 L 81.8 50.1 L 83.3 59.7 L 84.8 53.4 L 86.3 36 L 87.8 27.8 L 89.3 37.7 L 90.8 64 L 92.3 64 L 93.8 64 L 95.3 64 L 96.8 43.8 L 98.3 41.3 L 99.8 38.0 L 101.3 74.3 L 102.8 65.3 L 104.3 68.7 L 105.8 34.2 L 107.3 32.7 L 108.8 51.8 L 110.3 64 L 111.8 63.1 L 113.3 74.6 L 114.8 74.3 L 116.3 77.3 L 117.8 70.6 L 119.3 75.9 L 120.8 85.5 L 122.3 91.3 L 123.8 85.3 L 125.3 64 L 126.8 64 L 128.3 64 L 129.8 30.6 L 131.3 48 L 132.8 52.3 L 134.3 51.3 L 135.8 32.0 L 137.3 31.8 L 138.8 30.8 M 141.8 29.0 L 143.3 31.7 L 144.8 24.3 L 146.3 9.7 L 147.8 14.1 L 149.3 38.5 L 150.8 38.5 L 152.3 40.2 L 153.8 39.3 L 155.3 43.6 L 156.8 33.3 L 158.3 40.9 L 159.8 35.4 L 161.3 39.1 L 162.8 24.6 L 164.3 37.6 L 165.8 39.0 L 167.3 42.6 L 168.8 46.0 L 170.3 49.1 L 171.8 45.3 L 173.3 51.3 L 174.8 81.3 L 176.3 73.2 L 177.8 59.5 L 179.3 78.2 L 180.8 76.6 L 182.3 79.1 L 183.8 57.2 L 185.3 49.2 L 186.8 52 L 188.3 62.6 L 189.8 38.0 L 191.3 40.5 L 192.8 14.9 L 194.3 17.9 L 195.8 40.0 L 197.3 54.8 L 198.8 49.7 L 200.3 59.5 L 201.8 40.8 L 203.3 39.3 L 204.8 42.2 L 206.3 47.6 L 207.8 66.1 L 209.3 70.2 L 210.8 81.3 L 212.3 68.1 L 213.8 62.6 L 215.3 60.3 L 216.8 57.7 L 218.3 56.0 L 219.8 56.3 L 221.3 71.3 L 222.8 87.1 L 224.3 111.7 L 225.8 122.0 L 227.3 139.0 L 228.8 145.2 L 230.3 115.7 L 231.8 103.2 L 233.3 78.2 L 234.8 86.6 L 236.3 131.0 L 237.8 118.9 L 239.3 140.3 L 240.8 115.3 L 242.3 129.0 L 243.8 126.9 L 245.3 116.0 L 246.8 81.4 L 248.3 98.3 L 249.8 94.6 L 251.3 73.1 L 252.8 74.6 L 254.3 79.7 L 255.8 72.7 L 257.3 63.5 L 258.8 68.8 L 260.3 73.9 L 261.8 97.4 L 263.3 129.2 L 264.8 125.9 L 266.3 129.1 L 267.8 128.8 L 269.3 121.6 L 270.8 108.5 L 272.3 130.2 L 273.8 146.0 L 275.3 139.8 L 276.8 106.5 L 278.3 99.0 L 279.8 85.5 L 281.3 93.6 L 282.8 102.7 L 284.3 143.3 L 285.8 155.6 L 287.3 154.0 L 288.8 164.3 L 290.3 169.0 L 291.8 170.1 L 293.3 167.5 L 294.8 157.4 L 296.3 148.6 L 297.8 144.9 L 299.3 137.9 L 300.8 131.5 L 302.3 126.8 L 303.8 117.3 L 305.3 107.0 L 306.8 102.4 L 308.3 104.8 L 309.8 101.1 L 311.3 99.3 L 312.8 103.0 L 314.3 97.2 L 315.8 94.5 M 318.8 61.3 L 320.3 75.7 L 321.8 91.8 M 324.8 70.7 L 326.3 92.8 L 327.8 87.7 L 329.3 87.4 L 330.8 100.4 L 332.3 94.1 L 333.8 97.3 L 335.3 95.1 L 336.8 81.1 L 338.3 81.6 L 339.8 73.8 L 341.3 77.0 L 342.8 87.5 L 344.3 103.7 L 345.8 81.3 L 347.3 74.0 L 348.8 55.6 L 350.3 48.0 L 351.8 54.6 L 353.3 70.7 L 354.8 93.1 L 356.3 103.7 L 357.8 86.2 L 359.3 88.2 L 360.8 127.5 L 362.3 149.6 L 363.8 126.2 L 365.3 112.0 L 366.8 126.8 L 368.3 132.5 L 369.8 128 L 371.3 126.6 L 372.8 121.4 L 374.3 92.1 L 375.8 79.6 L 377.3 77.6 L 378.8 60.5 L 380.3 78.2 L 381.8 103.1 L 383.3 86.9 L 384.8 73.7 L 386.3 73.7 L 387.8 72.8 L 389.3 113.3 L 390.8 108.3 L 392.3 93.7 L 393.8 79.5 L 395.3 95.6 L 396.8 86.2 L 398.3 102.9 L 399.8 104.2 L 401.3 104.4 L 402.8 91.7 L 404.3 71.5 L 405.8 72.2 L 407.3 75.9 L 408.8 66.8 L 410.3 82.0 L 411.8 90.7 L 413.3 96.4 L 414.8 88.9 L 416.3 88.6 L 417.8 97.7 L 419.3 129.8 L 420.8 114.5 L 422.3 119.7 L 423.8 125.7 L 425.3 135.5 L 426.8 112.2 L 428.3 98.2 L 429.8 80.3 L 431.3 110.6 L 432.8 78.5 L 434.3 99.5 L 435.8 85.0 L 437.3 81.6 L 438.8 84.1 L 440.3 93.4 L 441.8 71.4 L 443.3 102.6 L 444.8 97.0 L 446.3 114.0 L 447.8 108.6 L 449.3 101.4 L 450.8 96 L 452.3 79.6 L 453.8 75.1 L 455.3 99.1 L 456.8 88.2 L 458.3 93.2 L 459.8 64.6 L 461.3 86.1 L 462.8 64.7 L 464.3 67.8 L 465.8 51.7 L 467.3 56 L 468.8 40.5 L 470.3 33.9 L 471.8 37.1 L 473.3 47.6 L 474.8 35.7 L 476.3 41.8 L 477.8 36.4 L 479.3 37.8 L 480.8 35.7 L 482.3 51.5 L 483.8 45.3 L 485.3 51.8 L 486.8 48.9 L 488.3 55.1 L 489.8 51.4 L 491.3 56.9 L 492.8 45.2 L 494.3 51.7 L 495.8 36.5 L 497.3 44.0 L 498.8 36.5 L 500.3 26.9 L 501.8 27.6 L 503.3 29.4 L 504.8 27.6 L 506.3 35.3 L 507.8 29.5 L 509.3 38.9 L 510.8 35.4 L 512.3 44 L 513.8 42.8 L 515.3 43.0 L 516.8 37.5 L 518.3 42.3 L 519.8 39.3 L 521.3 52.1 L 522.8 44.8 L 524.3 36.1 L 525.8 28.8 L 527.3 28.4 L 528.8 23.3 L 530.3 38.4 L 531.8 29.8 L 533.3 40.1 L 534.8 45.2 L 536.3 52.5 L 537.8 27.3 L 539.3 26.5" stroke="#7cb5ec" stroke-width="2"  stroke-linejoin="round" stroke-linecap="round"></path><path fill="none" d="M -10.6 42.7 L -0.6 42.7 L 0.8 36 L 2.3 33.5 L 3.8 23.8 L 5.3 15.6 L 6.8 25.9 L 8.3 47.5 L 9.8 40.4 L 11.3 36.6 L 12.8 11.7 L 14.3 31.6 L 15.8 36.3 L 17.3 32.6 L 18.8 41.5 L 20.3 54.1 L 21.8 58.5 L 23.3 51.1 L 24.8 33.4 L 26.3 37.4 L 27.8 35.5 L 29.3 52.3 L 30.8 61.6 L 32.3 65.0 L 33.8 64.7 L 35.3 47.8 L 36.8 26.9 L 38.3 25.3 L 39.8 11.8 L 41.3 16.2 L 42.8 31.6 L 44.3 54.1 L 45.8 54.2 L 47.3 39.0 L 48.8 35.8 L 50.3 43.1 L 51.8 44.9 L 53.3 45.2 L 54.8 34.2 L 56.3 41.2 L 57.8 54.2 L 59.3 43.3 L 60.8 20.7 L 62.3 20.6 L 63.8 20.2 L 65.3 29.8 L 66.8 9.1 L 68.3 29.2 L 69.8 25.0 L 71.3 58.0 L 72.8 64 L 74.3 61.9 L 75.8 52.4 L 77.3 66.8 L 78.8 55.6 L 80.3 47.6 L 81.8 50.1 L 83.3 59.7 L 84.8 53.4 L 86.3 36 L 87.8 27.8 L 89.3 37.7 L 90.8 64 L 92.3 64 L 93.8 64 L 95.3 64 L 96.8 43.8 L 98.3 41.3 L 99.8 38.0 L 101.3 74.3 L 102.8 65.3 L 104.3 68.7 L 105.8 34.2 L 107.3 32.7 L 108.8 51.8 L 110.3 64 L 111.8 63.1 L 113.3 74.6 L 114.8 74.3 L 116.3 77.3 L 117.8 70.6 L 119.3 75.9 L 120.8 85.5 L 122.3 91.3 L 123.8 85.3 L 125.3 64 L 126.8 64 L 128.3 64 L 129.8 30.6 L 131.3 48 L 132.8 52.3 L 134.3 51.3 L 135.8 32.0 L 137.3 31.8 L 138.8 30.8 L 148.8 30.8 M 131.8 29.0 L 141.8 29.0 L 143.3 31.7 L 144.8 24.3 L 146.3 9.7 L 147.8 14.1 L 149.3 38.5 L 150.8 38.5 L 152.3 40.2 L 153.8 39.3 L 155.3 43.6 L 156.8 33.3 L 158.3 40.9 L 159.8 35.4 L 161.3 39.1 L 162.8 24.6 L 164.3 37.6 L 165.8 39.0 L 167.3 42.6 L 168.8 46.0 L 170.3 49.1 L 171.8 45.3 L 173.3 51.3 L 174.8 81.3 L 176.3 73.2 L 177.8 59.5 L 179.3 78.2 L 180.8 76.6 L 182.3 79.1 L 183.8 57.2 L 185.3 49.2 L 186.8 52 L 188.3 62.6 L 189.8 38.0 L 191.3 40.5 L 192.8 14.9 L 194.3 17.9 L 195.8 40.0 L 197.3 54.8 L 198.8 49.7 L 200.3 59.5 L 201.8 40.8 L 203.3 39.3 L 204.8 42.2 L 206.3 47.6 L 207.8 66.1 L 209.3 70.2 L 210.8 81.3 L 212.3 68.1 L 213.8 62.6 L 215.3 60.3 L 216.8 57.7 L 218.3 56.0 L 219.8 56.3 L 221.3 71.3 L 222.8 87.1 L 224.3 111.7 L 225.8 122.0 L 227.3 139.0 L 228.8 145.2 L 230.3 115.7 L 231.8 103.2 L 233.3 78.2 L 234.8 86.6 L 236.3 131.0 L 237.8 118.9 L 239.3 140.3 L 240.8 115.3 L 242.3 129.0 L 243.8 126.9 L 245.3 116.0 L 246.8 81.4 L 248.3 98.3 L 249.8 94.6 L 251.3 73.1 L 252.8 74.6 L 254.3 79.7 L 255.8 72.7 L 257.3 63.5 L 258.8 68.8 L 260.3 73.9 L 261.8 97.4 L 263.3 129.2 L 264.8 125.9 L 266.3 129.1 L 267.8 128.8 L 269.3 121.6 L 270.8 108.5 L 272.3 130.2 L 273.8 146.0 L 275.3 139.8 L 276.8 106.5 L 278.3 99.0 L 279.8 85.5 L 281.3 93.6 L 282.8 102.7 L 284.3 143.3 L 285.8 155.6 L 287.3 154.0 L 288.8 164.3 L 290.3 169.0 L 291.8 170.1 L 293.3 167.5 L 294.8 157.4 L 296.3 148.6 L 297.8 144.9 L 299.3 137.9 L 300.8 131.5 L 302.3 126.8 L 303.8 117.3 L 305.3 107.0 L 306.8 102.4 L 308.3 104.8 L 309.8 101.1 L 311.3 99.3 L 312.8 103.0 L 314.3 97.2 L 315.8 94.5 L 325.8 94.5 M 308.8 61.3 L 318.8 61.3 L 320.3 75.7 L 321.8 91.8 L 331.8 91.8 M 314.8 70.7 L 324.8 70.7 L 326.3 92.8 L 327.8 87.7 L 329.3 87.4 L 330.8 100.4 L 332.3 94.1 L 333.8 97.3 L 335.3 95.1 L 336.8 81.1 L 338.3 81.6 L 339.8 73.8 L 341.3 77.0 L 342.8 87.5 L 344.3 103.7 L 345.8 81.3 L 347.3 74.0 L 348.8 55.6 L 350.3 48.0 L 351.8 54.6 L 353.3 70.7 L 354.8 93.1 L 356.3 103.7 L 357.8 86.2 L 359.3 88.2 L 360.8 127.5 L 362.3 149.6 L 363.8 126.2 L 365.3 112.0 L 366.8 126.8 L 368.3 132.5 L 369.8 128 L 371.3 126.6 L 372.8 121.4 L 374.3 92.1 L 375.8 79.6 L 377.3 77.6 L 378.8 60.5 L 380.3 78.2 L 381.8 103.1 L 383.3 86.9 L 384.8 73.7 L 386.3 73.7 L 387.8 72.8 L 389.3 113.3 L 390.8 108.3 L 392.3 93.7 L 393.8 79.5 L 395.3 95.6 L 396.8 86.2 L 398.3 102.9 L 399.8 104.2 L 401.3 104.4 L 402.8 91.7 L 404.3 71.5 L 405.8 72.2 L 407.3 75.9 L 408.8 66.8 L 410.3 82.0 L 411.8 90.7 L 413.3 96.4 L 414.8 88.9 L 416.3 88.6 L 417.8 97.7 L 419.3 129.8 L 420.8 114.5 L 422.3 119.7 L 423.8 125.7 L 425.3 135.5 L 426.8 112.2 L 428.3 98.2 L 429.8 80.3 L 431.3 110.6 L 432.8 78.5 L 434.3 99.5 L 435.8 85.0 L 437.3 81.6 L 438.8 84.1 L 440.3 93.4 L 441.8 71.4 L 443.3 102.6 L 444.8 97.0 L 446.3 114.0 L 447.8 108.6 L 449.3 101.4 L 450.8 96 L 452.3 79.6 L 453.8 75.1 L 455.3 99.1 L 456.8 88.2 L 458.3 93.2 L 459.8 64.6 L 461.3 86.1 L 462.8 64.7 L 464.3 67.8 L 465.8 51.7 L 467.3 56 L 468.8 40.5 L 470.3 33.9 L 471.8 37.1 L 473.3 47.6 L 474.8 35.7 L 476.3 41.8 L 477.8 36.4 L 479.3 37.8 L 480.8 35.7 L 482.3 51.5 L 483.8 45.3 L 485.3 51.8 L 486.8 48.9 L 488.3 55.1 L 489.8 51.4 L 491.3 56.9 L 492.8 45.2 L 494.3 51.7 L 495.8 36.5 L 497.3 44.0 L 498.8 36.5 L 500.3 26.9 L 501.8 27.6 L 503.3 29.4 L 504.8 27.6 L 506.3 35.3 L 507.8 29.5 L 509.3 38.9 L 510.8 35.4 L 512.3 44 L 513.8 42.8 L 515.3 43.0 L 516.8 37.5 L 518.3 42.3 L 519.8 39.3 L 521.3 52.1 L 522.8 44.8 L 524.3 36.1 L 525.8 28.8 L 527.3 28.4 L 528.8 23.3 L 530.3 38.4 L 531.8 29.8 L 533.3 40.1 L 534.8 45.2 L 536.3 52.5 L 537.8 27.3 L 539.3 26.5 L 549.3 26.5" stroke-linejoin="round" visibility="visible" stroke="rgb(192,192,192)" stroke-opacity="0.0" stroke-width="22"  class=" highcharts-tracker" style=""></path></g><g class="highcharts-markers highcharts-tracker" visibility="visible"  transform="translate(10,93) scale(1 1)" clip-path="url(#highcharts-2)" style=""></g><g class="highcharts-series" visibility="visible"  transform="translate(24,331) scale(1 1)" clip-path="url(#highcharts-5)"><path fill="rgb(69,114,167)" fill-opacity="0.0" d="M 0 20.9 C 0 20.9 1.1 20.4 1.8 19.6 C 2.4 18.9 2.8 18.1 3.4 17.3 C 4.1 16.5 4.4 16.1 5.1 15.5 C 5.7 14.9 6.0 15.0 6.7 14.4 C 7.4 13.9 7.7 12.6 8.3 12.6 C 9.0 12.6 9.3 14.7 10.0 15.6 C 10.6 16.6 11.0 17.3 11.6 17.3 C 12.3 17.3 12.6 14.9 13.2 13.5 C 13.9 12.2 14.2 10.4 14.9 10.4 C 15.5 10.4 15.9 10.7 16.5 11.3 C 17.2 11.9 17.5 13.3 18.2 13.3 C 18.8 13.3 19.1 10.3 19.8 10.3 C 20.4 10.3 20.8 11.1 21.4 11.1 C 22.1 11.1 22.4 9.7 23.1 9.7 C 23.7 9.7 24.0 11.6 24.7 11.6 C 25.4 11.6 25.7 10.5 26.3 9.9 C 27.0 9.3 27.3 9.4 28.0 8.5 C 28.6 7.6 29.0 5.4 29.6 5.4 C 30.3 5.4 30.6 5.4 31.2 6.0 C 31.9 6.6 32.2 9.0 32.9 10.3 C 33.5 11.6 33.9 12.5 34.5 12.5 C 35.2 12.5 35.5 11.5 36.1 11.5 C 36.8 11.5 37.1 12.9 37.8 13.6 C 38.4 14.3 38.8 14.8 39.4 14.8 C 40.1 14.8 40.4 14.6 41.1 14.6 C 41.7 14.6 42.0 16.3 42.7 16.9 C 43.3 17.5 43.7 17.2 44.3 17.7 C 45.0 18.2 45.3 19.5 46.0 19.5 C 46.6 19.5 46.9 18.2 47.6 18.2 C 48.3 18.2 48.6 19.8 49.2 20.3 C 49.9 20.9 50.2 21.1 50.9 21.1 C 51.5 21.1 51.9 20.7 52.5 20.7 C 53.2 20.7 53.5 23.6 54.1 24.2 C 54.8 24.8 55.1 24.8 55.8 24.8 C 56.4 24.8 56.8 21.8 57.4 21.1 C 58.1 20.3 58.4 20.3 59.1 20.3 C 59.7 20.3 60.0 20.3 60.7 21.2 C 61.3 22.1 61.7 27.8 62.3 27.8 C 63.0 27.8 63.3 23.3 64.0 22.6 C 64.6 22.0 64.9 22.3 65.6 22.0 C 66.3 21.7 66.6 21.1 67.2 21.1 C 67.9 21.1 68.2 22.7 68.9 23.5 C 69.5 24.4 69.9 25.3 70.5 25.3 C 71.2 25.3 71.5 21.0 72.1 21.0 C 72.8 21.0 73.1 21.9 73.8 23.0 C 74.4 24.1 74.8 25.4 75.4 26.6 C 76.1 27.8 76.4 28.8 77.0 28.8 C 77.7 28.8 78.0 28.6 78.7 27.5 C 79.3 26.3 79.7 23.1 80.3 23.1 C 81.0 23.1 81.3 23.9 82.0 23.9 C 82.6 23.9 82.9 19.9 83.6 19.9 C 84.2 19.9 84.6 20.2 85.2 20.3 C 85.9 20.4 86.2 20.4 86.9 20.4 C 87.5 20.4 87.8 19.0 88.5 18.5 C 89.2 18.1 89.5 18.5 90.1 18.1 C 90.8 17.7 91.1 16.2 91.8 16.2 C 92.4 16.2 92.8 16.8 93.4 16.8 C 94.1 16.8 94.4 16.2 95.0 16.2 C 95.7 16.2 96.0 16.6 96.7 16.6 C 97.3 16.6 97.7 14.9 98.3 14.3 C 99.0 13.6 99.3 13.4 100.0 13.4 C 100.6 13.4 100.9 14.7 101.6 14.7 C 102.2 14.7 102.6 10.9 103.2 10.9 C 103.9 10.9 104.2 11.5 104.9 11.5 C 105.5 11.5 105.8 10.4 106.5 9.5 C 107.2 8.6 107.5 7.0 108.1 7.0 C 108.8 7.0 109.1 8.8 109.8 8.8 C 110.4 8.8 110.8 6.8 111.4 6.8 C 112.1 6.8 112.4 7.2 113.0 8.0 C 113.7 8.7 114.0 10.6 114.7 10.6 C 115.3 10.6 115.7 9.6 116.3 9.6 C 117.0 9.6 117.3 10.2 117.9 10.7 C 118.6 11.2 118.9 11.9 119.6 12.3 C 120.2 12.7 120.6 12.5 121.2 12.8 C 121.9 13.1 122.2 13.3 122.9 13.8 C 123.5 14.2 123.8 15.2 124.5 15.2 C 125.1 15.2 126.1 12.5 126.1 12.5 L 126.1 40 L 0 40 M 134.3 13.5 C 134.3 13.5 135.3 15.1 135.9 16.0 C 136.6 17.0 136.9 17.1 137.6 18.4 C 138.2 19.7 138.6 21.9 139.2 22.6 C 139.9 23.3 140.2 22.7 140.9 23.3 C 141.5 24.0 141.8 25.9 142.5 25.9 C 143.1 25.9 143.5 24.4 144.1 23.6 C 144.8 22.8 145.1 22.0 145.8 22.0 C 146.4 22.0 146.7 22.4 147.4 23.9 C 148.1 25.4 148.4 29.4 149.0 29.4 C 149.7 29.4 150.0 29.4 150.7 28.2 C 151.3 26.9 151.7 21.3 152.3 21.3 C 153.0 21.3 153.3 25.0 153.9 25.7 C 154.6 26.3 154.9 26.3 155.6 26.3 C 156.2 26.3 156.6 22.8 157.2 22.8 C 157.9 22.8 158.2 25.5 158.8 25.5 C 159.5 25.5 159.8 24.6 160.5 24.6 C 161.1 24.6 161.5 24.6 162.1 25.1 C 162.8 25.7 163.1 27.6 163.8 28.5 C 164.4 29.4 164.7 29.5 165.4 29.5 C 166.0 29.5 166.4 25.7 167.0 25.4 C 167.7 25.1 168.0 25.4 168.7 25.1 C 169.3 24.8 169.6 21.5 170.3 21.5 C 171.0 21.5 171.3 21.6 171.9 21.6 C 172.6 21.6 172.9 19.7 173.6 19.6 C 174.2 19.6 174.6 19.6 175.2 19.6 C 175.9 19.6 176.2 18.6 176.8 17.0 C 177.5 15.5 177.8 11.9 178.5 11.9 C 179.1 11.9 179.5 13.9 180.1 14.4 C 180.8 14.9 181.1 14.7 181.8 14.9 C 182.4 15.2 182.7 15.7 183.4 15.7 C 184.0 15.7 184.4 15.7 185.0 14.7 C 185.7 13.8 186.0 11.7 186.7 10.5 C 187.3 9.4 187.6 8.9 188.3 8.9 C 189.0 8.9 189.3 11.8 189.9 11.8 C 190.6 11.8 190.9 9.2 191.6 8.2 C 192.2 7.2 192.6 6.8 193.2 6.8 C 193.9 6.8 194.2 10.4 194.8 10.4 C 195.5 10.4 195.8 7.8 196.5 6.7 C 197.1 5.6 197.5 4.8 198.1 4.8 C 198.8 4.8 199.1 5.5 199.7 6.2 C 200.4 6.8 200.7 7.8 201.4 8.0 C 202.0 8.2 202.4 8.2 203.0 8.2 C 203.7 8.2 204.0 8.1 204.7 8.1 C 205.3 8.1 205.6 9.9 206.3 10.8 C 206.9 11.6 207.3 12.3 207.9 12.3 C 208.6 12.3 208.9 12.0 209.6 11.8 C 210.2 11.6 210.5 11.3 211.2 11.3 C 211.9 11.3 212.2 11.7 212.8 12.4 C 213.5 13.2 213.8 14.4 214.5 15.1 C 215.1 15.8 215.5 15.4 216.1 15.9 C 216.8 16.3 217.1 16.4 217.7 17.3 C 218.4 18.1 218.7 19.2 219.4 20.1 C 220.0 20.9 220.4 21.4 221.0 21.4 C 221.7 21.4 222.0 20.3 222.7 20.3 C 223.3 20.3 223.6 20.9 224.3 20.9 C 224.9 20.9 225.3 20.1 225.9 19.7 C 226.6 19.2 226.9 18.8 227.6 18.8 C 228.2 18.8 228.5 19.1 229.2 19.5 C 229.9 19.8 230.2 20.5 230.8 20.5 C 231.5 20.5 231.8 19.6 232.5 19.6 C 233.1 19.6 233.5 20.8 234.1 21.2 C 234.8 21.6 235.1 21.4 235.7 21.7 C 236.4 22.0 236.7 22.2 237.4 22.6 C 238.0 23.1 238.4 23.3 239.0 24.2 C 239.7 25.0 240.0 26.9 240.6 26.9 C 241.3 26.9 241.6 21.5 242.3 21.5 C 242.9 21.5 243.3 32.2 243.9 32.2 C 244.6 32.2 244.9 24.1 245.6 24.1 C 246.2 24.1 246.5 26.2 247.2 26.2 C 247.8 26.2 248.2 23.3 248.8 22.1 C 249.5 20.9 249.8 20.5 250.5 20.2 C 251.1 19.8 251.4 19.8 252.1 19.8 C 252.8 19.8 253.1 21.0 253.7 21.0 C 254.4 21.0 254.7 20.1 255.4 20.1 C 256.0 20.1 256.4 20.9 257.0 20.9 C 257.7 20.9 258.0 17.8 258.6 17.8 C 259.3 17.8 259.6 20.0 260.3 20.0 C 260.9 20.0 261.3 17.0 261.9 15.8 C 262.6 14.7 262.9 14.4 263.6 14.4 C 264.2 14.4 264.5 16.9 265.2 16.9 C 265.8 16.9 266.2 16.9 266.8 16.5 C 267.5 16.2 267.8 16.4 268.5 15.0 C 269.1 13.6 269.4 11.5 270.1 9.7 C 270.8 7.9 271.1 6.0 271.7 6.0 C 272.4 6.0 272.7 9.7 273.4 9.7 C 274.0 9.7 274.4 8.2 275.0 8.2 C 275.7 8.2 276.0 8.6 276.6 8.6 C 277.3 8.6 277.6 6.9 278.3 6.9 C 278.9 6.9 279.3 10.5 279.9 10.5 C 280.6 10.5 280.9 9.0 281.5 9.0 C 282.2 9.0 282.5 9.3 283.2 9.9 C 283.8 10.5 284.2 12.0 284.8 12.0 C 285.5 12.0 285.8 7.6 286.5 7.6 C 287.1 7.6 287.4 10.9 288.1 10.9 C 288.7 10.9 289.1 10.7 289.7 10.7 C 290.4 10.7 290.7 15.0 291.4 15.0 C 292.0 15.0 292.3 13.8 293.0 13.8 C 293.7 13.8 294.0 14.9 294.6 15.5 C 295.3 16.0 295.6 16.6 296.3 16.6 C 296.9 16.6 297.3 16.1 297.9 16.1 C 298.6 16.1 298.9 16.3 299.5 16.8 C 300.2 17.2 300.5 18.4 301.2 18.4 C 301.8 18.4 302.2 18.4 302.8 18.2 C 303.5 18.1 303.8 17.3 304.5 17.3 C 305.1 17.3 305.4 19.8 306.1 20.7 C 306.7 21.6 307.1 21.3 307.7 22.0 C 308.4 22.6 308.7 24.1 309.4 24.1 C 310.0 24.1 310.3 24.0 311.0 23.9 C 311.7 23.8 312.0 23.7 312.6 23.7 C 313.3 23.7 313.6 23.8 314.3 24.5 C 314.9 25.2 315.3 26.3 315.9 27.1 C 316.6 27.8 316.9 28.4 317.5 28.4 C 318.2 28.4 318.5 21.5 319.2 21.5 C 319.8 21.5 320.2 26.0 320.8 26.0 C 321.5 26.0 321.8 23.9 322.4 23.2 C 323.1 22.4 323.4 22.2 324.1 22.2 C 324.7 22.2 325.1 22.6 325.7 22.9 C 326.4 23.3 326.7 23.7 327.4 23.7 C 328.0 23.7 328.3 22.2 329.0 22.2 C 329.6 22.2 330.0 25.0 330.6 25.0 C 331.3 25.0 331.6 20.0 332.3 20.0 C 332.9 20.0 333.2 21.3 333.9 21.9 C 334.6 22.5 334.9 23.1 335.5 23.1 C 336.2 23.1 336.5 20.6 337.2 20.6 C 337.8 20.6 338.2 23.9 338.8 24.5 C 339.5 25.1 339.8 25.1 340.4 25.1 C 341.1 25.1 341.4 18.9 342.1 18.9 C 342.7 18.9 343.1 19.4 343.7 19.6 C 344.4 19.7 344.7 19.8 345.4 19.8 C 346.0 19.8 346.3 18.4 347.0 17.2 C 347.6 16.0 348.0 14.8 348.6 13.8 C 349.3 12.8 349.6 12.4 350.3 12.4 C 350.9 12.4 351.2 14.4 351.9 14.8 C 352.6 15.2 352.9 15.2 353.5 15.2 C 354.2 15.2 354.5 10.9 355.2 9.2 C 355.8 7.5 356.2 6.8 356.8 6.8 C 357.5 6.8 357.8 12.9 358.4 12.9 C 359.1 12.9 359.4 12.3 360.1 12.1 C 360.7 11.9 361.1 12.1 361.7 11.8 C 362.4 11.5 362.7 5.5 363.3 5.5 C 364.0 5.5 364.3 6.8 365.0 8.0 C 365.6 9.1 366.0 11.3 366.6 11.3 C 367.3 11.3 367.6 7.0 368.3 5.5 C 368.9 4.0 369.2 3.7 369.9 3.7 C 370.5 3.7 370.9 7.1 371.5 8.6 C 372.2 10.1 372.5 11.1 373.2 11.1 C 373.8 11.1 374.1 9.3 374.8 9.3 C 375.5 9.3 375.8 10.5 376.4 11.2 C 377.1 11.9 377.4 12.9 378.1 13.0 C 378.7 13.1 379.1 13.0 379.7 13.1 C 380.4 13.2 380.7 14.7 381.3 14.7 C 382.0 14.7 382.3 14.3 383.0 14.3 C 383.6 14.3 384.0 17.8 384.6 17.8 C 385.3 17.8 385.6 15.7 386.3 15.7 C 386.9 15.7 387.2 17.9 387.9 17.9 C 388.5 17.9 388.9 17.9 389.5 17.9 C 390.2 17.9 390.5 24.8 391.2 24.8 C 391.8 24.8 392.1 21.0 392.8 21.0 C 393.5 21.0 393.8 22.5 394.4 23.2 C 395.1 23.8 395.4 24.3 396.1 24.3 C 396.7 24.3 397.1 23.0 397.7 23.0 C 398.4 23.0 398.7 26.5 399.3 26.5 C 400.0 26.5 400.3 26.5 401.0 26.3 C 401.6 26.0 402.0 22.7 402.6 22.7 C 403.3 22.7 403.6 23.7 404.2 24.3 C 404.9 24.9 405.2 25.7 405.9 25.7 C 406.5 25.7 406.9 23.5 407.5 23.0 C 408.2 22.6 408.5 22.6 409.2 22.6 C 409.8 22.6 410.1 22.6 410.8 23.4 C 411.4 24.2 411.8 25.7 412.4 26.6 C 413.1 27.5 413.4 27.9 414.1 27.9 C 414.7 27.9 415.0 27.9 415.7 27.7 C 416.4 27.5 416.7 22.6 417.3 22.6 C 418.0 22.6 418.3 23.3 419.0 23.3 C 419.6 23.3 420.0 21.0 420.6 21.0 C 421.3 21.0 421.6 21.0 422.2 21.2 C 422.9 21.3 423.2 21.4 423.9 21.7 C 424.5 22.1 424.9 22.8 425.5 22.8 C 426.2 22.8 426.5 21.0 427.2 20.0 C 427.8 18.9 428.1 18.2 428.8 17.5 C 429.4 16.9 429.8 17.4 430.4 16.9 C 431.1 16.4 431.4 15.7 432.1 15.0 C 432.7 14.3 433.0 13.5 433.7 13.5 C 434.4 13.5 434.7 16.8 435.3 16.8 C 436.0 16.8 436.3 14.3 437.0 13.4 C 437.6 12.6 438.0 12.4 438.6 12.4 C 439.3 12.4 439.6 13.0 440.2 13.0 C 440.9 13.0 441.2 13.0 441.9 12.9 C 442.5 12.8 442.9 12.8 443.5 12.6 C 444.2 12.5 444.5 12.6 445.1 12.1 C 445.8 11.6 446.1 10.7 446.8 8.9 C 447.4 7.2 447.8 3.3 448.4 3.3 C 449.1 3.3 449.4 9.7 450.1 9.7 C 450.7 9.7 451.0 7.9 451.7 7.9 C 452.3 7.9 452.7 9.5 453.3 10.2 C 454.0 10.9 454.3 11.4 455.0 11.4 C 455.6 11.4 455.9 7.5 456.6 7.5 C 457.3 7.5 457.6 11.5 458.2 11.5 C 458.9 11.5 459.2 10.4 459.9 10.4 C 460.5 10.4 460.9 11.4 461.5 11.8 C 462.2 12.3 462.5 12.2 463.1 12.4 C 463.8 12.7 464.1 12.8 464.8 13.1 C 465.4 13.4 465.8 13.3 466.4 14.0 C 467.1 14.8 467.4 15.6 468.1 17.0 C 468.7 18.4 469.0 21.0 469.7 21.0 C 470.3 21.0 470.7 20.8 471.3 20.8 C 472.0 20.8 472.3 21.3 473.0 21.3 C 473.6 21.3 473.9 20.0 474.6 20.0 C 475.3 20.0 475.6 21.8 476.2 22.5 C 476.9 23.1 477.2 22.7 477.9 23.3 C 478.5 23.9 478.9 25.5 479.5 25.5 C 480.2 25.5 480.5 19.9 481.1 19.9 C 481.8 19.9 482.1 20.4 482.8 21.1 C 483.4 21.8 483.8 23.2 484.4 23.3 C 485.1 23.5 485.4 23.3 486.0 23.5 C 486.7 23.6 487.0 29.5 487.7 29.7 C 488.3 30.0 488.7 29.7 489.3 30.0 C 490.0 30.2 490.3 31.1 491.0 32.4 C 491.6 33.7 491.9 36.6 492.6 36.6 C 493.2 36.6 493.6 32.2 494.2 30.6 C 494.9 28.9 495.2 28.2 495.9 28.2 C 496.5 28.2 496.8 28.2 497.5 28.2 C 498.2 28.2 498.5 30.7 499.1 30.7 C 499.8 30.7 500.1 28.8 500.8 28.8 C 501.4 28.8 501.8 30.0 502.4 30.0 C 503.1 30.0 503.4 29.7 504.0 29.2 C 504.7 28.6 505.0 28.8 505.7 27.3 C 506.3 25.7 506.7 22.1 507.3 21.5 C 508.0 20.8 508.3 20.8 509.0 20.8 C 509.6 20.8 509.9 20.8 510.6 20.8 C 511.1 20.8 511.9 20.7 511.9 20.7 L 511.9 40 L 134.3 40" ></path><path fill="none" d="M 0 20.9 C 0 20.9 1.1 20.4 1.8 19.6 C 2.4 18.9 2.8 18.1 3.4 17.3 C 4.1 16.5 4.4 16.1 5.1 15.5 C 5.7 14.9 6.0 15.0 6.7 14.4 C 7.4 13.9 7.7 12.6 8.3 12.6 C 9.0 12.6 9.3 14.7 10.0 15.6 C 10.6 16.6 11.0 17.3 11.6 17.3 C 12.3 17.3 12.6 14.9 13.2 13.5 C 13.9 12.2 14.2 10.4 14.9 10.4 C 15.5 10.4 15.9 10.7 16.5 11.3 C 17.2 11.9 17.5 13.3 18.2 13.3 C 18.8 13.3 19.1 10.3 19.8 10.3 C 20.4 10.3 20.8 11.1 21.4 11.1 C 22.1 11.1 22.4 9.7 23.1 9.7 C 23.7 9.7 24.0 11.6 24.7 11.6 C 25.4 11.6 25.7 10.5 26.3 9.9 C 27.0 9.3 27.3 9.4 28.0 8.5 C 28.6 7.6 29.0 5.4 29.6 5.4 C 30.3 5.4 30.6 5.4 31.2 6.0 C 31.9 6.6 32.2 9.0 32.9 10.3 C 33.5 11.6 33.9 12.5 34.5 12.5 C 35.2 12.5 35.5 11.5 36.1 11.5 C 36.8 11.5 37.1 12.9 37.8 13.6 C 38.4 14.3 38.8 14.8 39.4 14.8 C 40.1 14.8 40.4 14.6 41.1 14.6 C 41.7 14.6 42.0 16.3 42.7 16.9 C 43.3 17.5 43.7 17.2 44.3 17.7 C 45.0 18.2 45.3 19.5 46.0 19.5 C 46.6 19.5 46.9 18.2 47.6 18.2 C 48.3 18.2 48.6 19.8 49.2 20.3 C 49.9 20.9 50.2 21.1 50.9 21.1 C 51.5 21.1 51.9 20.7 52.5 20.7 C 53.2 20.7 53.5 23.6 54.1 24.2 C 54.8 24.8 55.1 24.8 55.8 24.8 C 56.4 24.8 56.8 21.8 57.4 21.1 C 58.1 20.3 58.4 20.3 59.1 20.3 C 59.7 20.3 60.0 20.3 60.7 21.2 C 61.3 22.1 61.7 27.8 62.3 27.8 C 63.0 27.8 63.3 23.3 64.0 22.6 C 64.6 22.0 64.9 22.3 65.6 22.0 C 66.3 21.7 66.6 21.1 67.2 21.1 C 67.9 21.1 68.2 22.7 68.9 23.5 C 69.5 24.4 69.9 25.3 70.5 25.3 C 71.2 25.3 71.5 21.0 72.1 21.0 C 72.8 21.0 73.1 21.9 73.8 23.0 C 74.4 24.1 74.8 25.4 75.4 26.6 C 76.1 27.8 76.4 28.8 77.0 28.8 C 77.7 28.8 78.0 28.6 78.7 27.5 C 79.3 26.3 79.7 23.1 80.3 23.1 C 81.0 23.1 81.3 23.9 82.0 23.9 C 82.6 23.9 82.9 19.9 83.6 19.9 C 84.2 19.9 84.6 20.2 85.2 20.3 C 85.9 20.4 86.2 20.4 86.9 20.4 C 87.5 20.4 87.8 19.0 88.5 18.5 C 89.2 18.1 89.5 18.5 90.1 18.1 C 90.8 17.7 91.1 16.2 91.8 16.2 C 92.4 16.2 92.8 16.8 93.4 16.8 C 94.1 16.8 94.4 16.2 95.0 16.2 C 95.7 16.2 96.0 16.6 96.7 16.6 C 97.3 16.6 97.7 14.9 98.3 14.3 C 99.0 13.6 99.3 13.4 100.0 13.4 C 100.6 13.4 100.9 14.7 101.6 14.7 C 102.2 14.7 102.6 10.9 103.2 10.9 C 103.9 10.9 104.2 11.5 104.9 11.5 C 105.5 11.5 105.8 10.4 106.5 9.5 C 107.2 8.6 107.5 7.0 108.1 7.0 C 108.8 7.0 109.1 8.8 109.8 8.8 C 110.4 8.8 110.8 6.8 111.4 6.8 C 112.1 6.8 112.4 7.2 113.0 8.0 C 113.7 8.7 114.0 10.6 114.7 10.6 C 115.3 10.6 115.7 9.6 116.3 9.6 C 117.0 9.6 117.3 10.2 117.9 10.7 C 118.6 11.2 118.9 11.9 119.6 12.3 C 120.2 12.7 120.6 12.5 121.2 12.8 C 121.9 13.1 122.2 13.3 122.9 13.8 C 123.5 14.2 123.8 15.2 124.5 15.2 C 125.1 15.2 126.1 12.5 126.1 12.5 M 134.3 13.5 C 134.3 13.5 135.3 15.1 135.9 16.0 C 136.6 17.0 136.9 17.1 137.6 18.4 C 138.2 19.7 138.6 21.9 139.2 22.6 C 139.9 23.3 140.2 22.7 140.9 23.3 C 141.5 24.0 141.8 25.9 142.5 25.9 C 143.1 25.9 143.5 24.4 144.1 23.6 C 144.8 22.8 145.1 22.0 145.8 22.0 C 146.4 22.0 146.7 22.4 147.4 23.9 C 148.1 25.4 148.4 29.4 149.0 29.4 C 149.7 29.4 150.0 29.4 150.7 28.2 C 151.3 26.9 151.7 21.3 152.3 21.3 C 153.0 21.3 153.3 25.0 153.9 25.7 C 154.6 26.3 154.9 26.3 155.6 26.3 C 156.2 26.3 156.6 22.8 157.2 22.8 C 157.9 22.8 158.2 25.5 158.8 25.5 C 159.5 25.5 159.8 24.6 160.5 24.6 C 161.1 24.6 161.5 24.6 162.1 25.1 C 162.8 25.7 163.1 27.6 163.8 28.5 C 164.4 29.4 164.7 29.5 165.4 29.5 C 166.0 29.5 166.4 25.7 167.0 25.4 C 167.7 25.1 168.0 25.4 168.7 25.1 C 169.3 24.8 169.6 21.5 170.3 21.5 C 171.0 21.5 171.3 21.6 171.9 21.6 C 172.6 21.6 172.9 19.7 173.6 19.6 C 174.2 19.6 174.6 19.6 175.2 19.6 C 175.9 19.6 176.2 18.6 176.8 17.0 C 177.5 15.5 177.8 11.9 178.5 11.9 C 179.1 11.9 179.5 13.9 180.1 14.4 C 180.8 14.9 181.1 14.7 181.8 14.9 C 182.4 15.2 182.7 15.7 183.4 15.7 C 184.0 15.7 184.4 15.7 185.0 14.7 C 185.7 13.8 186.0 11.7 186.7 10.5 C 187.3 9.4 187.6 8.9 188.3 8.9 C 189.0 8.9 189.3 11.8 189.9 11.8 C 190.6 11.8 190.9 9.2 191.6 8.2 C 192.2 7.2 192.6 6.8 193.2 6.8 C 193.9 6.8 194.2 10.4 194.8 10.4 C 195.5 10.4 195.8 7.8 196.5 6.7 C 197.1 5.6 197.5 4.8 198.1 4.8 C 198.8 4.8 199.1 5.5 199.7 6.2 C 200.4 6.8 200.7 7.8 201.4 8.0 C 202.0 8.2 202.4 8.2 203.0 8.2 C 203.7 8.2 204.0 8.1 204.7 8.1 C 205.3 8.1 205.6 9.9 206.3 10.8 C 206.9 11.6 207.3 12.3 207.9 12.3 C 208.6 12.3 208.9 12.0 209.6 11.8 C 210.2 11.6 210.5 11.3 211.2 11.3 C 211.9 11.3 212.2 11.7 212.8 12.4 C 213.5 13.2 213.8 14.4 214.5 15.1 C 215.1 15.8 215.5 15.4 216.1 15.9 C 216.8 16.3 217.1 16.4 217.7 17.3 C 218.4 18.1 218.7 19.2 219.4 20.1 C 220.0 20.9 220.4 21.4 221.0 21.4 C 221.7 21.4 222.0 20.3 222.7 20.3 C 223.3 20.3 223.6 20.9 224.3 20.9 C 224.9 20.9 225.3 20.1 225.9 19.7 C 226.6 19.2 226.9 18.8 227.6 18.8 C 228.2 18.8 228.5 19.1 229.2 19.5 C 229.9 19.8 230.2 20.5 230.8 20.5 C 231.5 20.5 231.8 19.6 232.5 19.6 C 233.1 19.6 233.5 20.8 234.1 21.2 C 234.8 21.6 235.1 21.4 235.7 21.7 C 236.4 22.0 236.7 22.2 237.4 22.6 C 238.0 23.1 238.4 23.3 239.0 24.2 C 239.7 25.0 240.0 26.9 240.6 26.9 C 241.3 26.9 241.6 21.5 242.3 21.5 C 242.9 21.5 243.3 32.2 243.9 32.2 C 244.6 32.2 244.9 24.1 245.6 24.1 C 246.2 24.1 246.5 26.2 247.2 26.2 C 247.8 26.2 248.2 23.3 248.8 22.1 C 249.5 20.9 249.8 20.5 250.5 20.2 C 251.1 19.8 251.4 19.8 252.1 19.8 C 252.8 19.8 253.1 21.0 253.7 21.0 C 254.4 21.0 254.7 20.1 255.4 20.1 C 256.0 20.1 256.4 20.9 257.0 20.9 C 257.7 20.9 258.0 17.8 258.6 17.8 C 259.3 17.8 259.6 20.0 260.3 20.0 C 260.9 20.0 261.3 17.0 261.9 15.8 C 262.6 14.7 262.9 14.4 263.6 14.4 C 264.2 14.4 264.5 16.9 265.2 16.9 C 265.8 16.9 266.2 16.9 266.8 16.5 C 267.5 16.2 267.8 16.4 268.5 15.0 C 269.1 13.6 269.4 11.5 270.1 9.7 C 270.8 7.9 271.1 6.0 271.7 6.0 C 272.4 6.0 272.7 9.7 273.4 9.7 C 274.0 9.7 274.4 8.2 275.0 8.2 C 275.7 8.2 276.0 8.6 276.6 8.6 C 277.3 8.6 277.6 6.9 278.3 6.9 C 278.9 6.9 279.3 10.5 279.9 10.5 C 280.6 10.5 280.9 9.0 281.5 9.0 C 282.2 9.0 282.5 9.3 283.2 9.9 C 283.8 10.5 284.2 12.0 284.8 12.0 C 285.5 12.0 285.8 7.6 286.5 7.6 C 287.1 7.6 287.4 10.9 288.1 10.9 C 288.7 10.9 289.1 10.7 289.7 10.7 C 290.4 10.7 290.7 15.0 291.4 15.0 C 292.0 15.0 292.3 13.8 293.0 13.8 C 293.7 13.8 294.0 14.9 294.6 15.5 C 295.3 16.0 295.6 16.6 296.3 16.6 C 296.9 16.6 297.3 16.1 297.9 16.1 C 298.6 16.1 298.9 16.3 299.5 16.8 C 300.2 17.2 300.5 18.4 301.2 18.4 C 301.8 18.4 302.2 18.4 302.8 18.2 C 303.5 18.1 303.8 17.3 304.5 17.3 C 305.1 17.3 305.4 19.8 306.1 20.7 C 306.7 21.6 307.1 21.3 307.7 22.0 C 308.4 22.6 308.7 24.1 309.4 24.1 C 310.0 24.1 310.3 24.0 311.0 23.9 C 311.7 23.8 312.0 23.7 312.6 23.7 C 313.3 23.7 313.6 23.8 314.3 24.5 C 314.9 25.2 315.3 26.3 315.9 27.1 C 316.6 27.8 316.9 28.4 317.5 28.4 C 318.2 28.4 318.5 21.5 319.2 21.5 C 319.8 21.5 320.2 26.0 320.8 26.0 C 321.5 26.0 321.8 23.9 322.4 23.2 C 323.1 22.4 323.4 22.2 324.1 22.2 C 324.7 22.2 325.1 22.6 325.7 22.9 C 326.4 23.3 326.7 23.7 327.4 23.7 C 328.0 23.7 328.3 22.2 329.0 22.2 C 329.6 22.2 330.0 25.0 330.6 25.0 C 331.3 25.0 331.6 20.0 332.3 20.0 C 332.9 20.0 333.2 21.3 333.9 21.9 C 334.6 22.5 334.9 23.1 335.5 23.1 C 336.2 23.1 336.5 20.6 337.2 20.6 C 337.8 20.6 338.2 23.9 338.8 24.5 C 339.5 25.1 339.8 25.1 340.4 25.1 C 341.1 25.1 341.4 18.9 342.1 18.9 C 342.7 18.9 343.1 19.4 343.7 19.6 C 344.4 19.7 344.7 19.8 345.4 19.8 C 346.0 19.8 346.3 18.4 347.0 17.2 C 347.6 16.0 348.0 14.8 348.6 13.8 C 349.3 12.8 349.6 12.4 350.3 12.4 C 350.9 12.4 351.2 14.4 351.9 14.8 C 352.6 15.2 352.9 15.2 353.5 15.2 C 354.2 15.2 354.5 10.9 355.2 9.2 C 355.8 7.5 356.2 6.8 356.8 6.8 C 357.5 6.8 357.8 12.9 358.4 12.9 C 359.1 12.9 359.4 12.3 360.1 12.1 C 360.7 11.9 361.1 12.1 361.7 11.8 C 362.4 11.5 362.7 5.5 363.3 5.5 C 364.0 5.5 364.3 6.8 365.0 8.0 C 365.6 9.1 366.0 11.3 366.6 11.3 C 367.3 11.3 367.6 7.0 368.3 5.5 C 368.9 4.0 369.2 3.7 369.9 3.7 C 370.5 3.7 370.9 7.1 371.5 8.6 C 372.2 10.1 372.5 11.1 373.2 11.1 C 373.8 11.1 374.1 9.3 374.8 9.3 C 375.5 9.3 375.8 10.5 376.4 11.2 C 377.1 11.9 377.4 12.9 378.1 13.0 C 378.7 13.1 379.1 13.0 379.7 13.1 C 380.4 13.2 380.7 14.7 381.3 14.7 C 382.0 14.7 382.3 14.3 383.0 14.3 C 383.6 14.3 384.0 17.8 384.6 17.8 C 385.3 17.8 385.6 15.7 386.3 15.7 C 386.9 15.7 387.2 17.9 387.9 17.9 C 388.5 17.9 388.9 17.9 389.5 17.9 C 390.2 17.9 390.5 24.8 391.2 24.8 C 391.8 24.8 392.1 21.0 392.8 21.0 C 393.5 21.0 393.8 22.5 394.4 23.2 C 395.1 23.8 395.4 24.3 396.1 24.3 C 396.7 24.3 397.1 23.0 397.7 23.0 C 398.4 23.0 398.7 26.5 399.3 26.5 C 400.0 26.5 400.3 26.5 401.0 26.3 C 401.6 26.0 402.0 22.7 402.6 22.7 C 403.3 22.7 403.6 23.7 404.2 24.3 C 404.9 24.9 405.2 25.7 405.9 25.7 C 406.5 25.7 406.9 23.5 407.5 23.0 C 408.2 22.6 408.5 22.6 409.2 22.6 C 409.8 22.6 410.1 22.6 410.8 23.4 C 411.4 24.2 411.8 25.7 412.4 26.6 C 413.1 27.5 413.4 27.9 414.1 27.9 C 414.7 27.9 415.0 27.9 415.7 27.7 C 416.4 27.5 416.7 22.6 417.3 22.6 C 418.0 22.6 418.3 23.3 419.0 23.3 C 419.6 23.3 420.0 21.0 420.6 21.0 C 421.3 21.0 421.6 21.0 422.2 21.2 C 422.9 21.3 423.2 21.4 423.9 21.7 C 424.5 22.1 424.9 22.8 425.5 22.8 C 426.2 22.8 426.5 21.0 427.2 20.0 C 427.8 18.9 428.1 18.2 428.8 17.5 C 429.4 16.9 429.8 17.4 430.4 16.9 C 431.1 16.4 431.4 15.7 432.1 15.0 C 432.7 14.3 433.0 13.5 433.7 13.5 C 434.4 13.5 434.7 16.8 435.3 16.8 C 436.0 16.8 436.3 14.3 437.0 13.4 C 437.6 12.6 438.0 12.4 438.6 12.4 C 439.3 12.4 439.6 13.0 440.2 13.0 C 440.9 13.0 441.2 13.0 441.9 12.9 C 442.5 12.8 442.9 12.8 443.5 12.6 C 444.2 12.5 444.5 12.6 445.1 12.1 C 445.8 11.6 446.1 10.7 446.8 8.9 C 447.4 7.2 447.8 3.3 448.4 3.3 C 449.1 3.3 449.4 9.7 450.1 9.7 C 450.7 9.7 451.0 7.9 451.7 7.9 C 452.3 7.9 452.7 9.5 453.3 10.2 C 454.0 10.9 454.3 11.4 455.0 11.4 C 455.6 11.4 455.9 7.5 456.6 7.5 C 457.3 7.5 457.6 11.5 458.2 11.5 C 458.9 11.5 459.2 10.4 459.9 10.4 C 460.5 10.4 460.9 11.4 461.5 11.8 C 462.2 12.3 462.5 12.2 463.1 12.4 C 463.8 12.7 464.1 12.8 464.8 13.1 C 465.4 13.4 465.8 13.3 466.4 14.0 C 467.1 14.8 467.4 15.6 468.1 17.0 C 468.7 18.4 469.0 21.0 469.7 21.0 C 470.3 21.0 470.7 20.8 471.3 20.8 C 472.0 20.8 472.3 21.3 473.0 21.3 C 473.6 21.3 473.9 20.0 474.6 20.0 C 475.3 20.0 475.6 21.8 476.2 22.5 C 476.9 23.1 477.2 22.7 477.9 23.3 C 478.5 23.9 478.9 25.5 479.5 25.5 C 480.2 25.5 480.5 19.9 481.1 19.9 C 481.8 19.9 482.1 20.4 482.8 21.1 C 483.4 21.8 483.8 23.2 484.4 23.3 C 485.1 23.5 485.4 23.3 486.0 23.5 C 486.7 23.6 487.0 29.5 487.7 29.7 C 488.3 30.0 488.7 29.7 489.3 30.0 C 490.0 30.2 490.3 31.1 491.0 32.4 C 491.6 33.7 491.9 36.6 492.6 36.6 C 493.2 36.6 493.6 32.2 494.2 30.6 C 494.9 28.9 495.2 28.2 495.9 28.2 C 496.5 28.2 496.8 28.2 497.5 28.2 C 498.2 28.2 498.5 30.7 499.1 30.7 C 499.8 30.7 500.1 28.8 500.8 28.8 C 501.4 28.8 501.8 30.0 502.4 30.0 C 503.1 30.0 503.4 29.7 504.0 29.2 C 504.7 28.6 505.0 28.8 505.7 27.3 C 506.3 25.7 506.7 22.1 507.3 21.5 C 508.0 20.8 508.3 20.8 509.0 20.8 C 509.6 20.8 509.9 20.8 510.6 20.8 C 511.1 20.8 511.9 20.7 511.9 20.7" stroke="#4572A7" stroke-width="1"  stroke-linejoin="round" stroke-linecap="round"></path></g><g class="highcharts-markers" visibility="visible"  transform="translate(24,331) scale(1 1)" clip-path="url(#highcharts-4)"></g></g><g class="highcharts-navigator" ><rect fill="rgb(128,179,236)" fill-opacity="0.3" style="cursor:ew-resize ;" x="494" y="331" width="42" height="40"></rect><path fill="none" stroke="#b2b1b6" stroke-width="1" d="M 10 331.5 L 493.5 331.5 493.5 385.5 L 535.5 385.5 L 535.5 331.5 550 331.5 M 494.5 331.5 L 535.5 331.5"></path></g><g class="highcharts-navigator-handle-right" style="cursor:ew-resize;"  transform="translate(536,343)"><rect x="-4.5" y="0.5" width="8" height="15" strokeWidth="1" fill="#ebe7e8" stroke="#b2b1b6" stroke-width="1"></rect><path fill="#ebe7e8" d="M -1.5 4 L -1.5 12 M 0.5 4 L 0.5 12" stroke="#b2b1b6" stroke-width="1"></path></g><text x="292" text-anchor="middle" class="highcharts-title"  style="color:#333333;font-size:16px;fill:#333333;width:520px;" y="22"><tspan>Hourly temperatures in Vik i Sogn, Norway, 2004-2010</tspan></text><g class="highcharts-navigator-handle-left" style="cursor:ew-resize;"  transform="translate(494,343)"><rect x="-4.5" y="0.5" width="8" height="15" strokeWidth="1" fill="#ebe7e8" stroke="#b2b1b6" stroke-width="1"></rect><path fill="#ebe7e8" d="M -1.5 4 L -1.5 12 M 0.5 4 L 0.5 12" stroke="#b2b1b6" stroke-width="1"></path></g><text x="292" text-anchor="middle" class="highcharts-subtitle"  style="color:#555555;fill:#555555;width:520px;" y="43"><tspan>Built chart in 95ms</tspan></text><g class="highcharts-axis-labels highcharts-xaxis-labels" ><text x="97.8" style="color:#606060;cursor:default;font-size:11px;fill:#606060;width:103px;text-overflow:clip;" text-anchor="middle" transform="translate(0,0)" y="304" opacity="1"><tspan>Nov '09</tspan></text><text x="187.8" style="color:#606060;cursor:default;font-size:11px;fill:#606060;width:103px;text-overflow:clip;" text-anchor="middle" transform="translate(0,0)" y="304" opacity="1"><tspan>Dec '09</tspan></text><text x="280.8" style="color:#606060;cursor:default;font-size:11px;fill:#606060;width:103px;text-overflow:clip;" text-anchor="middle" transform="translate(0,0)" y="304" opacity="1"><tspan>Jan '10</tspan></text><text x="373.8" style="color:#606060;cursor:default;font-size:11px;fill:#606060;width:103px;text-overflow:clip;" text-anchor="middle" transform="translate(0,0)" y="304" opacity="1"><tspan>Feb '10</tspan></text><text x="457.8" style="color:#606060;cursor:default;font-size:11px;fill:#606060;width:103px;text-overflow:clip;" text-anchor="middle" transform="translate(0,0)" y="304" opacity="1"><tspan>Mar '10</tspan></text></g><g class="highcharts-axis-labels highcharts-xaxis-labels" ><text x="176.5" style="color:#888;cursor:default;font-size:11px;fill:#888;width:178px;text-overflow:clip;" text-anchor="start" transform="translate(0,0)" y="367" opacity="1">2006</text><text x="347.1" style="color:#888;cursor:default;font-size:11px;fill:#888;width:178px;text-overflow:clip;" text-anchor="start" transform="translate(0,0)" y="367" opacity="1">2008</text><text x="518.0" style="color:#888;cursor:default;font-size:11px;fill:#888;width:178px;text-overflow:clip;" text-anchor="start" transform="translate(0,0)" y="367" opacity="1">2010</text></g><g class="highcharts-axis-labels highcharts-yaxis-labels" ><text x="550" style="color:#606060;cursor:default;font-size:11px;fill:#606060;width:183px;text-overflow:clip;" text-anchor="end" transform="translate(0,0)" y="283" opacity="1">-20</text><text x="550" style="color:#606060;cursor:default;font-size:11px;fill:#606060;width:183px;text-overflow:clip;" text-anchor="end" transform="translate(0,0)" y="219" opacity="1">-10</text><text x="550" style="color:#606060;cursor:default;font-size:11px;fill:#606060;width:183px;text-overflow:clip;" text-anchor="end" transform="translate(0,0)" y="155" opacity="1">0</text><text x="0" style="color:#606060;cursor:default;font-size:11px;fill:#606060;width:183px;text-overflow:clip;" text-anchor="end" transform="translate(0,0)" y="-9999">10</text></g><g class="highcharts-axis-labels highcharts-yaxis-labels" ></g><g class="highcharts-tooltip"  style="cursor:default;padding:0;white-space:nowrap;" transform="translate(0,-9999)"><path fill="none" d="M 3 0 L 13 0 C 16 0 16 0 16 3 L 16 13 C 16 16 16 16 13 16 L 3 16 C 0 16 0 16 0 13 L 0 3 C 0 0 0 0 3 0"  stroke="black" stroke-opacity="0.0" stroke-width="5" transform="translate(1, 1)"></path><path fill="none" d="M 3 0 L 13 0 C 16 0 16 0 16 3 L 16 13 C 16 16 16 16 13 16 L 3 16 C 0 16 0 16 0 13 L 0 3 C 0 0 0 0 3 0"  stroke="black" stroke-opacity="0.0" stroke-width="3" transform="translate(1, 1)"></path><path fill="none" d="M 3 0 L 13 0 C 16 0 16 0 16 3 L 16 13 C 16 16 16 16 13 16 L 3 16 C 0 16 0 16 0 13 L 0 3 C 0 0 0 0 3 0"  stroke="black" stroke-opacity="0.1" stroke-width="1" transform="translate(1, 1)"></path><path fill="rgb(249, 249, 249)" fill-opacity=" .85" d="M 3 0 L 13 0 C 16 0 16 0 16 3 L 16 13 C 16 16 16 16 13 16 L 3 16 C 0 16 0 16 0 13 L 0 3 C 0 0 0 0 3 0"></path><text x="8"  style="font-size:12px;color:#333333;fill:#333333;" y="20"></text></g></svg>