<svg version="1.1" style="font-family:&quot;lucida grande&quot;, &quot;lucida sans unicode&quot;, arial, helvetica, sans-serif;font-size:12px;" xmlns="http://www.w3.org/2000/svg" width="584" height="400" viewBox="0 0 584 400"><desc>Created with Highstock 2.1.0</desc><defs><clipPath id="highcharts-1"><rect x="0" y="0" width="564" height="206"></rect></clipPath><clipPath id="highcharts-2"><rect x="-99" y="-79" width="663" height="400"></rect></clipPath><clipPath id="highcharts-3"><rect x="0" y="0" width="564" height="206"></rect></clipPath><clipPath id="highcharts-4"><rect x="-99" y="-79" width="663" height="400"></rect></clipPath><clipPath id="highcharts-5"><rect x="0" y="0" width="564" height="40"></rect></clipPath></defs><rect x="0" y="0" width="584" height="400" strokeWidth="0" fill="#FFFFFF" class=" highcharts-background" stroke="transparent"></rect><g class="highcharts-scrollbar" transform="translate(10,372)"><rect x="0" y="-0.5" fill="#eeeeee" stroke="#eeeeee" stroke-width="1" rx="0" ry="0" height="14" width="564"></rect><rect y="-0.5" height="14" fill="#bfc8d1" stroke="#bfc8d1" stroke-width="1" rx="0" ry="0" x="518.5" width="31"></rect><path fill="none" stroke="#666" stroke-width="1" visibility="visible" d="M 530.5 3.5 L 530.5 9.3 M 533.5 3.5 L 533.5 9.3 M 536.5 3.5 L 536.5 9.3"></path><g><rect x="-0.5" y="-0.5" width="14" height="14" strokeWidth="1" stroke="#bbb" stroke-width="1" fill="#ebe7e8"></rect><path fill="#666" d="M 8 4 L 8 10 5 7"></path></g><g transform="translate(550,0)"><rect x="-0.5" y="-0.5" width="14" height="14" strokeWidth="1" stroke="#bbb" stroke-width="1" fill="#ebe7e8"></rect><path fill="#666" d="M 6 4 L 6 10 9 7"></path></g></g><g class="highcharts-range-selector-buttons"><text x="10" y="59" style="color:#666;fill:#666;">Zoom</text><g class="highcharts-button"  states="[object Object]" style="cursor:pointer;text-align:center;" transform="translate(46,44)"><rect x="0" y="0" width="32" height="22" strokeWidth="0" fill="#e7f0f9" rx="0" ry="0"></rect><text x="8"  style="font-weight:bold;color:black;fill:black;" y="14">1M</text></g><g class="highcharts-button"  states="[object Object]" style="cursor:pointer;text-align:center;" transform="translate(83,44)"><rect x="0" y="0" width="32" height="22" strokeWidth="0" fill="#f7f7f7" rx="0" ry="0"></rect><text x="8"  style="font-weight:normal;color:#444;fill:#444;" y="14">5M</text></g><g class="highcharts-button"  states="[object Object]" style="cursor:pointer;text-align:center;" transform="translate(120,44)"><rect x="0" y="0" width="32" height="22" strokeWidth="0" fill="#f7f7f7" rx="0" ry="0"></rect><text x="10"  style="font-weight:normal;color:#444;fill:#444;" y="14">All</text></g></g><g class="highcharts-grid" ></g><g class="highcharts-grid" ><path fill="none" d="M 59.5 331 L 59.5 371" stroke="#EEE" stroke-width="1"  opacity="1"></path><path fill="none" d="M 220.5 331 L 220.5 371" stroke="#EEE" stroke-width="1"  opacity="1"></path><path fill="none" d="M 381.5 331 L 381.5 371" stroke="#EEE" stroke-width="1"  opacity="1"></path><path fill="none" d="M 542.5 331 L 542.5 371" stroke="#EEE" stroke-width="1"  opacity="1"></path></g><g class="highcharts-grid" ><path fill="none" d="M 10 285.5 L 574 285.5" stroke="#D8D8D8" stroke-width="1"  opacity="1"></path><path fill="none" d="M 10 251.5 L 574 251.5" stroke="#D8D8D8" stroke-width="1"  opacity="1"></path><path fill="none" d="M 10 216.5 L 574 216.5" stroke="#D8D8D8" stroke-width="1"  opacity="1"></path><path fill="none" d="M 10 182.5 L 574 182.5" stroke="#D8D8D8" stroke-width="1"  opacity="1"></path><path fill="none" d="M 10 148.5 L 574 148.5" stroke="#D8D8D8" stroke-width="1"  opacity="1"></path><path fill="none" d="M 10 113.5 L 574 113.5" stroke="#D8D8D8" stroke-width="1"  opacity="1"></path><path fill="none" d="M 10 78.5 L 574 78.5" stroke="#D8D8D8" stroke-width="1"  opacity="1"></path></g><g class="highcharts-grid" ></g><g class="highcharts-axis" ><path fill="none" d="M 93.5 285 L 93.5 295" stroke="#C0D0E0" stroke-width="1" opacity="1"></path><path fill="none" d="M 187.5 285 L 187.5 295" stroke="#C0D0E0" stroke-width="1" opacity="1"></path><path fill="none" d="M 281.5 285 L 281.5 295" stroke="#C0D0E0" stroke-width="1" opacity="1"></path><path fill="none" d="M 375.5 285 L 375.5 295" stroke="#C0D0E0" stroke-width="1" opacity="1"></path><path fill="none" d="M 469.5 285 L 469.5 295" stroke="#C0D0E0" stroke-width="1" opacity="1"></path><path fill="none" d="M 563.5 285 L 563.5 295" stroke="#C0D0E0" stroke-width="1" opacity="1"></path><path fill="none" d="M 10 285.5 L 574 285.5" stroke="#C0D0E0" stroke-width="1"  visibility="visible"></path></g><g class="highcharts-axis" ></g><g class="highcharts-axis" ></g><g class="highcharts-axis" ></g><g class="highcharts-series-group" ><g class="highcharts-series" visibility="visible"  transform="translate(10,79) scale(1 1)" clip-path="url(#highcharts-3)"><path fill="none" d="M -9.4 159.3 L 0 120.8 L 9.4 89.2 L 18.8 103 L 28.2 97.5 L 37.6 56.3 L 47 123.6 L 56.4 131.8 L 65.8 37.0 L 75.2 144.2 L 84.6 86.5 L 94 142.8 L 103.4 92.0 L 112.8 81.0 L 122.2 162.0 L 131.6 122.2 L 141 107.1 L 150.4 124.9 L 159.8 129.0 L 169.2 86.5 L 178.6 126.3 L 188 142.8 L 197.4 48.0 L 206.8 42.5 L 216.2 38.4 L 225.6 109.8 L 235 46.6 L 244.4 127.7 L 253.8 87.8 L 263.2 156.5 L 272.6 50.8 L 282 131.8 L 291.4 50.8 L 300.8 167.5 L 310.2 65.9 L 319.6 101.6 L 329 96.1 L 338.4 145.5 L 347.8 54.9 L 357.2 140.0 L 366.6 97.5 L 376 35.7 L 385.4 74.1 L 394.8 167.5 L 404.2 96.1 L 413.6 81.0 L 423 79.6 L 432.4 85.1 L 441.8 70.0 L 451.2 120.8 L 460.6 79.6 L 470 71.4 L 479.4 45.3 L 488.8 98.8 L 498.2 93.3 L 507.6 96.1 L 517 124.9 L 526.4 155.1 L 535.8 42.5 L 545.2 133.2 L 554.6 120.8 L 564 48.0" stroke="#7cb5ec" stroke-width="2"  stroke-linejoin="round" stroke-linecap="round"></path><path fill="none" d="M -19.4 159.3 L -9.4 159.3 L 0 120.8 L 9.4 89.2 L 18.8 103 L 28.2 97.5 L 37.6 56.3 L 47 123.6 L 56.4 131.8 L 65.8 37.0 L 75.2 144.2 L 84.6 86.5 L 94 142.8 L 103.4 92.0 L 112.8 81.0 L 122.2 162.0 L 131.6 122.2 L 141 107.1 L 150.4 124.9 L 159.8 129.0 L 169.2 86.5 L 178.6 126.3 L 188 142.8 L 197.4 48.0 L 206.8 42.5 L 216.2 38.4 L 225.6 109.8 L 235 46.6 L 244.4 127.7 L 253.8 87.8 L 263.2 156.5 L 272.6 50.8 L 282 131.8 L 291.4 50.8 L 300.8 167.5 L 310.2 65.9 L 319.6 101.6 L 329 96.1 L 338.4 145.5 L 347.8 54.9 L 357.2 140.0 L 366.6 97.5 L 376 35.7 L 385.4 74.1 L 394.8 167.5 L 404.2 96.1 L 413.6 81.0 L 423 79.6 L 432.4 85.1 L 441.8 70.0 L 451.2 120.8 L 460.6 79.6 L 470 71.4 L 479.4 45.3 L 488.8 98.8 L 498.2 93.3 L 507.6 96.1 L 517 124.9 L 526.4 155.1 L 535.8 42.5 L 545.2 133.2 L 554.6 120.8 L 564 48.0 L 574 48.0" stroke-linejoin="round" visibility="visible" stroke="rgb(192,192,192)" stroke-opacity="0.0" stroke-width="22"  class=" highcharts-tracker" style=""></path></g><g class="highcharts-markers highcharts-tracker" visibility="visible"  transform="translate(10,79) scale(1 1)" clip-path="url(#highcharts-2)" style=""></g><g class="highcharts-series" visibility="visible"  transform="translate(24,331) scale(1 1)" clip-path="url(#highcharts-5)"><path fill="rgb(69,114,167)" fill-opacity="0.0" d="M 0 33.8 C 0 33.8 1.4 26.8 2.4 24.5 C 3.5 21.9 4.1 22.9 5.1 21.6 C 6.2 20.2 6.7 21.4 7.8 17.8 C 8.9 14.1 9.4 3.3 10.5 3.3 C 11.6 3.3 12.1 19.7 13.2 19.7 C 14.3 19.7 14.8 19.7 15.9 18.7 C 16.9 17.8 17.5 7.2 18.5 7.2 C 19.6 7.2 20.2 17.0 21.2 17.9 C 22.3 18.7 22.8 17.9 23.9 18.7 C 25.0 19.6 25.5 33.1 26.6 33.1 C 27.7 33.1 28.2 17.6 29.3 17.1 C 30.3 16.7 30.9 16.7 32.0 16.7 C 33.0 16.7 33.6 16.7 34.6 18.5 C 35.7 20.4 36.3 24.9 37.3 27.6 C 38.4 30.2 38.9 31.8 40.0 31.8 C 41.1 31.8 41.6 24.4 42.7 21.2 C 43.8 17.9 44.3 16.5 45.4 15.5 C 46.4 14.6 47.0 14.6 48.1 14.6 C 49.1 14.6 49.7 22.3 50.7 22.3 C 51.8 22.3 52.3 16.5 53.4 16.5 C 54.5 16.5 55.0 30.0 56.1 30.0 C 57.2 30.0 57.7 23.2 58.8 23.2 C 59.9 23.2 60.4 28.7 61.5 28.7 C 62.5 28.7 63.1 15.3 64.2 15.3 C 65.2 15.3 65.8 15.5 66.8 15.8 C 67.9 16.1 68.4 16.0 69.5 17.0 C 70.6 18.1 71.1 21.2 72.2 21.2 C 73.3 21.2 73.8 6.5 74.9 6.5 C 76.0 6.5 76.5 25.3 77.6 25.3 C 78.6 25.3 79.2 25.3 80.2 25.1 C 81.3 24.9 81.9 24.3 82.9 22.1 C 84.0 19.9 84.5 16.4 85.6 14.2 C 86.7 12.0 87.2 10.9 88.3 10.9 C 89.4 10.9 89.9 25.4 91.0 25.4 C 92.1 25.4 92.6 13.5 93.7 12.9 C 94.7 12.3 95.3 12.7 96.3 12.3 C 97.4 11.9 98.0 10.8 99.0 10.8 C 100.1 10.8 100.6 13.4 101.7 14.7 C 102.8 16.0 103.3 15.6 104.4 17.4 C 105.5 19.2 106.0 23.7 107.1 23.7 C 108.1 23.7 108.7 15.0 109.8 15.0 C 110.8 15.0 111.4 24.9 112.4 24.9 C 113.5 24.9 114.0 22.4 115.1 22.4 C 116.2 22.4 116.7 23.8 117.8 23.8 C 118.9 23.8 119.4 10.3 120.5 10.3 C 121.6 10.3 122.1 28.0 123.2 28.0 C 124.2 28.0 124.8 14.9 125.9 14.9 C 126.9 14.9 127.5 14.9 128.5 16.9 C 129.6 19.0 130.1 36.6 131.2 36.6 C 132.3 36.6 132.8 33.0 133.9 28.2 C 135.0 23.5 135.5 12.8 136.6 12.8 C 137.7 12.8 138.2 14.1 139.3 15.1 C 140.3 16.2 140.9 17.9 141.9 17.9 C 143.0 17.9 143.6 13.7 144.6 13.7 C 145.7 13.7 146.2 25.7 147.3 25.7 C 148.4 25.7 148.9 14.2 150.0 14.2 C 151.1 14.2 151.6 15.2 152.7 15.2 C 153.8 15.2 154.3 11.1 155.4 10.5 C 156.4 10.0 157.0 10.0 158.0 10.0 C 159.1 10.0 159.7 22.7 160.7 22.7 C 161.8 22.7 162.3 4.5 163.4 4.5 C 164.5 4.5 165.0 17.4 166.1 19.9 C 167.2 22.3 167.7 19.9 168.8 22.3 C 169.8 24.8 170.4 33.2 171.5 33.2 C 172.5 33.2 173.1 7.2 174.1 7.2 C 175.2 7.2 175.8 22.4 176.8 22.4 C 177.9 22.4 178.4 21.4 179.5 21.4 C 180.6 21.4 181.1 26.4 182.2 26.4 C 183.3 26.4 183.8 13.0 184.9 13.0 C 185.9 13.0 186.5 13.0 187.6 15.1 C 188.6 17.1 189.2 29.8 190.2 29.8 C 191.3 29.8 191.8 29.8 192.9 28.8 C 194.0 27.8 194.5 25.9 195.6 24.0 C 196.7 22.1 197.2 19.2 198.3 19.2 C 199.4 19.2 199.9 23.2 201.0 23.2 C 202.0 23.2 202.6 18.5 203.7 18.5 C 204.7 18.5 205.3 18.9 206.3 19.5 C 207.4 20.1 207.9 21.6 209.0 21.6 C 210.1 21.6 210.6 6.5 211.7 6.5 C 212.8 6.5 213.3 25.5 214.4 25.5 C 215.5 25.5 216.0 21.2 217.1 21.2 C 218.1 21.2 218.7 25.9 219.7 25.9 C 220.8 25.9 221.4 24.2 222.4 23.5 C 223.5 22.8 224.0 22.8 225.1 22.3 C 226.2 21.8 226.7 22.3 227.8 20.9 C 228.9 19.5 229.4 12.6 230.5 12.6 C 231.6 12.6 232.1 23.4 233.2 23.4 C 234.2 23.4 234.8 20.9 235.8 20.9 C 236.9 20.9 237.5 29.1 238.5 29.1 C 239.6 29.1 240.1 10.9 241.2 10.9 C 242.3 10.9 242.8 22.9 243.9 22.9 C 245.0 22.9 245.5 20.1 246.6 18.7 C 247.6 17.3 248.2 16.7 249.3 15.8 C 250.3 14.9 250.9 14.1 251.9 14.1 C 253.0 14.1 253.5 22.2 254.6 22.2 C 255.7 22.2 256.2 22.0 257.3 22.0 C 258.4 22.0 258.9 22.0 260.0 22.1 C 261.1 22.2 261.6 25.0 262.7 25.0 C 263.7 25.0 264.3 16.7 265.4 14.3 C 266.4 11.9 267.0 11.9 268.0 11.9 C 269.1 11.9 269.6 22.7 270.7 22.7 C 271.8 22.7 272.3 13.8 273.4 13.8 C 274.5 13.8 275.0 34.2 276.1 34.2 C 277.2 34.2 277.7 20.4 278.8 20.4 C 279.8 20.4 280.4 24.1 281.4 24.1 C 282.5 24.1 283.1 14.2 284.1 14.2 C 285.2 14.2 285.7 20.3 286.8 23.1 C 287.9 25.9 288.4 28.2 289.5 28.2 C 290.6 28.2 291.1 17.1 292.2 17.1 C 293.3 17.1 293.8 28.3 294.9 28.3 C 295.9 28.3 296.5 23.4 297.5 23.4 C 298.6 23.4 299.2 26.4 300.2 26.4 C 301.3 26.4 301.8 14.1 302.9 14.1 C 304.0 14.1 304.5 14.1 305.6 15.1 C 306.7 16.0 307.2 22.7 308.3 22.7 C 309.3 22.7 309.9 11.0 311.0 11.0 C 312.0 11.0 312.6 19.4 313.6 22.6 C 314.7 25.8 315.3 27.0 316.3 27.0 C 317.4 27.0 317.9 22.1 319.0 20.0 C 320.1 18.0 320.6 16.8 321.7 16.8 C 322.8 16.8 323.3 28.8 324.4 28.8 C 325.4 28.8 326.0 16.1 327.1 16.1 C 328.1 16.1 328.7 35.8 329.7 35.8 C 330.8 35.8 331.3 31.5 332.4 31.1 C 333.5 30.6 334.0 31.1 335.1 30.6 C 336.2 30.1 336.7 30.6 337.8 28.7 C 338.9 26.8 339.4 12.9 340.5 12.9 C 341.5 12.9 342.1 30.8 343.1 30.8 C 344.2 30.8 344.8 21.7 345.8 17.6 C 346.9 13.5 347.4 10.1 348.5 10.1 C 349.6 10.1 350.1 22.3 351.2 22.3 C 352.3 22.3 352.8 22.3 353.9 22.3 C 355.0 22.3 355.5 15.7 356.6 15.7 C 357.6 15.7 358.2 22.5 359.2 22.5 C 360.3 22.5 360.9 12.2 361.9 12.2 C 363.0 12.2 363.5 21.3 364.6 24.4 C 365.7 27.4 366.2 25.9 367.3 27.5 C 368.4 29.1 368.9 32.3 370.0 32.3 C 371.0 32.3 371.6 29.2 372.7 26.3 C 373.7 23.3 374.3 20.5 375.3 17.4 C 376.4 14.4 377.0 11.0 378.0 11.0 C 379.1 11.0 379.6 27.2 380.7 27.2 C 381.8 27.2 382.3 16.3 383.4 16.3 C 384.5 16.3 385.0 23.3 386.1 23.3 C 387.1 23.3 387.7 15.3 388.8 15.3 C 389.8 15.3 390.4 29.4 391.4 29.4 C 392.5 29.4 393.0 16.0 394.1 16.0 C 395.2 16.0 395.7 26.1 396.8 26.1 C 397.9 26.1 398.4 23.2 399.5 23.2 C 400.6 23.2 401.1 26.3 402.2 26.3 C 403.2 26.3 403.8 21.4 404.9 21.4 C 405.9 21.4 406.5 28.6 407.5 28.6 C 408.6 28.6 409.1 12.2 410.2 12.2 C 411.3 12.2 411.8 26.1 412.9 26.1 C 414.0 26.1 414.5 23.4 415.6 23.4 C 416.7 23.4 417.2 31.9 418.3 31.9 C 419.3 31.9 419.9 24.2 420.9 24.2 C 422.0 24.2 422.6 24.9 423.6 24.9 C 424.7 24.9 425.2 19.5 426.3 19.5 C 427.4 19.5 427.9 24.9 429.0 24.9 C 430.1 24.9 430.6 24.9 431.7 23.8 C 432.8 22.7 433.3 19.7 434.4 18.4 C 435.4 17.2 436.0 18.4 437.0 17.2 C 438.1 16.0 438.7 5.3 439.7 5.3 C 440.8 5.3 441.3 14.7 442.4 19.5 C 443.5 24.3 444.0 29.2 445.1 29.2 C 446.2 29.2 446.7 16.7 447.8 16.7 C 448.8 16.7 449.4 17.7 450.5 18.3 C 451.5 18.8 452.1 18.9 453.1 19.6 C 454.2 20.3 454.7 19.6 455.8 21.8 C 456.9 24.1 457.4 32.0 458.5 32.0 C 459.6 32.0 460.1 17.2 461.2 17.2 C 462.3 17.2 462.8 19.9 463.9 20.2 C 464.9 20.6 465.5 20.6 466.6 20.6 C 467.6 20.6 468.2 15.9 469.2 15.9 C 470.3 15.9 470.8 20.5 471.9 20.5 C 473.0 20.5 473.5 18.3 474.6 17.2 C 475.7 16.1 476.2 15.1 477.3 15.1 C 478.4 15.1 478.9 16.4 480.0 16.4 C 481.0 16.4 481.6 11.8 482.6 11.8 C 483.7 11.8 484.3 31.2 485.3 31.2 C 486.4 31.2 486.9 8.7 488.0 8.7 C 489.1 8.7 489.6 20.8 490.7 20.8 C 491.8 20.8 492.3 17.7 493.4 16.4 C 494.5 15.0 495.0 14.0 496.1 14.0 C 497.1 14.0 497.7 28.7 498.7 28.7 C 499.8 28.7 500.4 26.4 501.4 25.5 C 502.5 24.6 503.0 25.5 504.1 24.2 C 505.2 22.9 505.7 18.9 506.8 18.9 C 507.9 18.9 508.4 23.4 509.5 23.8 C 510.5 24.2 511.1 24.2 512.2 24.2 C 513.2 24.2 513.8 12.4 514.8 12.4 C 515.9 12.4 516.5 21.4 517.5 21.4 C 518.6 21.4 519.1 17.1 520.2 17.1 C 521.3 17.1 521.8 22.0 522.9 22.0 C 524.0 22.0 524.5 18.8 525.6 17.4 C 526.6 16.0 527.2 16.2 528.3 15.1 C 529.3 13.9 529.9 11.8 530.9 11.8 C 532.0 11.8 532.5 23.0 533.6 23.0 C 534.6 23.0 536 14.1 536 14.1 L 536 40 L 0 40" ></path><path fill="none" d="M 0 33.8 C 0 33.8 1.4 26.8 2.4 24.5 C 3.5 21.9 4.1 22.9 5.1 21.6 C 6.2 20.2 6.7 21.4 7.8 17.8 C 8.9 14.1 9.4 3.3 10.5 3.3 C 11.6 3.3 12.1 19.7 13.2 19.7 C 14.3 19.7 14.8 19.7 15.9 18.7 C 16.9 17.8 17.5 7.2 18.5 7.2 C 19.6 7.2 20.2 17.0 21.2 17.9 C 22.3 18.7 22.8 17.9 23.9 18.7 C 25.0 19.6 25.5 33.1 26.6 33.1 C 27.7 33.1 28.2 17.6 29.3 17.1 C 30.3 16.7 30.9 16.7 32.0 16.7 C 33.0 16.7 33.6 16.7 34.6 18.5 C 35.7 20.4 36.3 24.9 37.3 27.6 C 38.4 30.2 38.9 31.8 40.0 31.8 C 41.1 31.8 41.6 24.4 42.7 21.2 C 43.8 17.9 44.3 16.5 45.4 15.5 C 46.4 14.6 47.0 14.6 48.1 14.6 C 49.1 14.6 49.7 22.3 50.7 22.3 C 51.8 22.3 52.3 16.5 53.4 16.5 C 54.5 16.5 55.0 30.0 56.1 30.0 C 57.2 30.0 57.7 23.2 58.8 23.2 C 59.9 23.2 60.4 28.7 61.5 28.7 C 62.5 28.7 63.1 15.3 64.2 15.3 C 65.2 15.3 65.8 15.5 66.8 15.8 C 67.9 16.1 68.4 16.0 69.5 17.0 C 70.6 18.1 71.1 21.2 72.2 21.2 C 73.3 21.2 73.8 6.5 74.9 6.5 C 76.0 6.5 76.5 25.3 77.6 25.3 C 78.6 25.3 79.2 25.3 80.2 25.1 C 81.3 24.9 81.9 24.3 82.9 22.1 C 84.0 19.9 84.5 16.4 85.6 14.2 C 86.7 12.0 87.2 10.9 88.3 10.9 C 89.4 10.9 89.9 25.4 91.0 25.4 C 92.1 25.4 92.6 13.5 93.7 12.9 C 94.7 12.3 95.3 12.7 96.3 12.3 C 97.4 11.9 98.0 10.8 99.0 10.8 C 100.1 10.8 100.6 13.4 101.7 14.7 C 102.8 16.0 103.3 15.6 104.4 17.4 C 105.5 19.2 106.0 23.7 107.1 23.7 C 108.1 23.7 108.7 15.0 109.8 15.0 C 110.8 15.0 111.4 24.9 112.4 24.9 C 113.5 24.9 114.0 22.4 115.1 22.4 C 116.2 22.4 116.7 23.8 117.8 23.8 C 118.9 23.8 119.4 10.3 120.5 10.3 C 121.6 10.3 122.1 28.0 123.2 28.0 C 124.2 28.0 124.8 14.9 125.9 14.9 C 126.9 14.9 127.5 14.9 128.5 16.9 C 129.6 19.0 130.1 36.6 131.2 36.6 C 132.3 36.6 132.8 33.0 133.9 28.2 C 135.0 23.5 135.5 12.8 136.6 12.8 C 137.7 12.8 138.2 14.1 139.3 15.1 C 140.3 16.2 140.9 17.9 141.9 17.9 C 143.0 17.9 143.6 13.7 144.6 13.7 C 145.7 13.7 146.2 25.7 147.3 25.7 C 148.4 25.7 148.9 14.2 150.0 14.2 C 151.1 14.2 151.6 15.2 152.7 15.2 C 153.8 15.2 154.3 11.1 155.4 10.5 C 156.4 10.0 157.0 10.0 158.0 10.0 C 159.1 10.0 159.7 22.7 160.7 22.7 C 161.8 22.7 162.3 4.5 163.4 4.5 C 164.5 4.5 165.0 17.4 166.1 19.9 C 167.2 22.3 167.7 19.9 168.8 22.3 C 169.8 24.8 170.4 33.2 171.5 33.2 C 172.5 33.2 173.1 7.2 174.1 7.2 C 175.2 7.2 175.8 22.4 176.8 22.4 C 177.9 22.4 178.4 21.4 179.5 21.4 C 180.6 21.4 181.1 26.4 182.2 26.4 C 183.3 26.4 183.8 13.0 184.9 13.0 C 185.9 13.0 186.5 13.0 187.6 15.1 C 188.6 17.1 189.2 29.8 190.2 29.8 C 191.3 29.8 191.8 29.8 192.9 28.8 C 194.0 27.8 194.5 25.9 195.6 24.0 C 196.7 22.1 197.2 19.2 198.3 19.2 C 199.4 19.2 199.9 23.2 201.0 23.2 C 202.0 23.2 202.6 18.5 203.7 18.5 C 204.7 18.5 205.3 18.9 206.3 19.5 C 207.4 20.1 207.9 21.6 209.0 21.6 C 210.1 21.6 210.6 6.5 211.7 6.5 C 212.8 6.5 213.3 25.5 214.4 25.5 C 215.5 25.5 216.0 21.2 217.1 21.2 C 218.1 21.2 218.7 25.9 219.7 25.9 C 220.8 25.9 221.4 24.2 222.4 23.5 C 223.5 22.8 224.0 22.8 225.1 22.3 C 226.2 21.8 226.7 22.3 227.8 20.9 C 228.9 19.5 229.4 12.6 230.5 12.6 C 231.6 12.6 232.1 23.4 233.2 23.4 C 234.2 23.4 234.8 20.9 235.8 20.9 C 236.9 20.9 237.5 29.1 238.5 29.1 C 239.6 29.1 240.1 10.9 241.2 10.9 C 242.3 10.9 242.8 22.9 243.9 22.9 C 245.0 22.9 245.5 20.1 246.6 18.7 C 247.6 17.3 248.2 16.7 249.3 15.8 C 250.3 14.9 250.9 14.1 251.9 14.1 C 253.0 14.1 253.5 22.2 254.6 22.2 C 255.7 22.2 256.2 22.0 257.3 22.0 C 258.4 22.0 258.9 22.0 260.0 22.1 C 261.1 22.2 261.6 25.0 262.7 25.0 C 263.7 25.0 264.3 16.7 265.4 14.3 C 266.4 11.9 267.0 11.9 268.0 11.9 C 269.1 11.9 269.6 22.7 270.7 22.7 C 271.8 22.7 272.3 13.8 273.4 13.8 C 274.5 13.8 275.0 34.2 276.1 34.2 C 277.2 34.2 277.7 20.4 278.8 20.4 C 279.8 20.4 280.4 24.1 281.4 24.1 C 282.5 24.1 283.1 14.2 284.1 14.2 C 285.2 14.2 285.7 20.3 286.8 23.1 C 287.9 25.9 288.4 28.2 289.5 28.2 C 290.6 28.2 291.1 17.1 292.2 17.1 C 293.3 17.1 293.8 28.3 294.9 28.3 C 295.9 28.3 296.5 23.4 297.5 23.4 C 298.6 23.4 299.2 26.4 300.2 26.4 C 301.3 26.4 301.8 14.1 302.9 14.1 C 304.0 14.1 304.5 14.1 305.6 15.1 C 306.7 16.0 307.2 22.7 308.3 22.7 C 309.3 22.7 309.9 11.0 311.0 11.0 C 312.0 11.0 312.6 19.4 313.6 22.6 C 314.7 25.8 315.3 27.0 316.3 27.0 C 317.4 27.0 317.9 22.1 319.0 20.0 C 320.1 18.0 320.6 16.8 321.7 16.8 C 322.8 16.8 323.3 28.8 324.4 28.8 C 325.4 28.8 326.0 16.1 327.1 16.1 C 328.1 16.1 328.7 35.8 329.7 35.8 C 330.8 35.8 331.3 31.5 332.4 31.1 C 333.5 30.6 334.0 31.1 335.1 30.6 C 336.2 30.1 336.7 30.6 337.8 28.7 C 338.9 26.8 339.4 12.9 340.5 12.9 C 341.5 12.9 342.1 30.8 343.1 30.8 C 344.2 30.8 344.8 21.7 345.8 17.6 C 346.9 13.5 347.4 10.1 348.5 10.1 C 349.6 10.1 350.1 22.3 351.2 22.3 C 352.3 22.3 352.8 22.3 353.9 22.3 C 355.0 22.3 355.5 15.7 356.6 15.7 C 357.6 15.7 358.2 22.5 359.2 22.5 C 360.3 22.5 360.9 12.2 361.9 12.2 C 363.0 12.2 363.5 21.3 364.6 24.4 C 365.7 27.4 366.2 25.9 367.3 27.5 C 368.4 29.1 368.9 32.3 370.0 32.3 C 371.0 32.3 371.6 29.2 372.7 26.3 C 373.7 23.3 374.3 20.5 375.3 17.4 C 376.4 14.4 377.0 11.0 378.0 11.0 C 379.1 11.0 379.6 27.2 380.7 27.2 C 381.8 27.2 382.3 16.3 383.4 16.3 C 384.5 16.3 385.0 23.3 386.1 23.3 C 387.1 23.3 387.7 15.3 388.8 15.3 C 389.8 15.3 390.4 29.4 391.4 29.4 C 392.5 29.4 393.0 16.0 394.1 16.0 C 395.2 16.0 395.7 26.1 396.8 26.1 C 397.9 26.1 398.4 23.2 399.5 23.2 C 400.6 23.2 401.1 26.3 402.2 26.3 C 403.2 26.3 403.8 21.4 404.9 21.4 C 405.9 21.4 406.5 28.6 407.5 28.6 C 408.6 28.6 409.1 12.2 410.2 12.2 C 411.3 12.2 411.8 26.1 412.9 26.1 C 414.0 26.1 414.5 23.4 415.6 23.4 C 416.7 23.4 417.2 31.9 418.3 31.9 C 419.3 31.9 419.9 24.2 420.9 24.2 C 422.0 24.2 422.6 24.9 423.6 24.9 C 424.7 24.9 425.2 19.5 426.3 19.5 C 427.4 19.5 427.9 24.9 429.0 24.9 C 430.1 24.9 430.6 24.9 431.7 23.8 C 432.8 22.7 433.3 19.7 434.4 18.4 C 435.4 17.2 436.0 18.4 437.0 17.2 C 438.1 16.0 438.7 5.3 439.7 5.3 C 440.8 5.3 441.3 14.7 442.4 19.5 C 443.5 24.3 444.0 29.2 445.1 29.2 C 446.2 29.2 446.7 16.7 447.8 16.7 C 448.8 16.7 449.4 17.7 450.5 18.3 C 451.5 18.8 452.1 18.9 453.1 19.6 C 454.2 20.3 454.7 19.6 455.8 21.8 C 456.9 24.1 457.4 32.0 458.5 32.0 C 459.6 32.0 460.1 17.2 461.2 17.2 C 462.3 17.2 462.8 19.9 463.9 20.2 C 464.9 20.6 465.5 20.6 466.6 20.6 C 467.6 20.6 468.2 15.9 469.2 15.9 C 470.3 15.9 470.8 20.5 471.9 20.5 C 473.0 20.5 473.5 18.3 474.6 17.2 C 475.7 16.1 476.2 15.1 477.3 15.1 C 478.4 15.1 478.9 16.4 480.0 16.4 C 481.0 16.4 481.6 11.8 482.6 11.8 C 483.7 11.8 484.3 31.2 485.3 31.2 C 486.4 31.2 486.9 8.7 488.0 8.7 C 489.1 8.7 489.6 20.8 490.7 20.8 C 491.8 20.8 492.3 17.7 493.4 16.4 C 494.5 15.0 495.0 14.0 496.1 14.0 C 497.1 14.0 497.7 28.7 498.7 28.7 C 499.8 28.7 500.4 26.4 501.4 25.5 C 502.5 24.6 503.0 25.5 504.1 24.2 C 505.2 22.9 505.7 18.9 506.8 18.9 C 507.9 18.9 508.4 23.4 509.5 23.8 C 510.5 24.2 511.1 24.2 512.2 24.2 C 513.2 24.2 513.8 12.4 514.8 12.4 C 515.9 12.4 516.5 21.4 517.5 21.4 C 518.6 21.4 519.1 17.1 520.2 17.1 C 521.3 17.1 521.8 22.0 522.9 22.0 C 524.0 22.0 524.5 18.8 525.6 17.4 C 526.6 16.0 527.2 16.2 528.3 15.1 C 529.3 13.9 529.9 11.8 530.9 11.8 C 532.0 11.8 532.5 23.0 533.6 23.0 C 534.6 23.0 536 14.1 536 14.1" stroke="#4572A7" stroke-width="1"  stroke-linejoin="round" stroke-linecap="round"></path></g><g class="highcharts-markers" visibility="visible"  transform="translate(24,331) scale(1 1)" clip-path="url(#highcharts-4)"></g></g><g class="highcharts-navigator" ><rect fill="rgb(128,179,236)" fill-opacity="0.3" style="cursor:ew-resize ;" x="528" y="331" width="32" height="40"></rect><path fill="none" stroke="#b2b1b6" stroke-width="1" d="M 10 331.5 L 527.5 331.5 527.5 385.5 L 559.5 385.5 L 559.5 331.5 574 331.5 M 528.5 331.5 L 559.5 331.5"></path></g><g class="highcharts-navigator-handle-right" style="cursor:ew-resize;"  transform="translate(560,343)"><rect x="-4.5" y="0.5" width="8" height="15" strokeWidth="1" fill="#ebe7e8" stroke="#b2b1b6" stroke-width="1"></rect><path fill="#ebe7e8" d="M -1.5 4 L -1.5 12 M 0.5 4 L 0.5 12" stroke="#b2b1b6" stroke-width="1"></path></g><text x="292" text-anchor="middle" class="highcharts-title"  style="color:#333333;font-size:16px;fill:#333333;width:520px;" y="22"><tspan>Live random data</tspan></text><g class="highcharts-navigator-handle-left" style="cursor:ew-resize;"  transform="translate(528,343)"><rect x="-4.5" y="0.5" width="8" height="15" strokeWidth="1" fill="#ebe7e8" stroke="#b2b1b6" stroke-width="1"></rect><path fill="#ebe7e8" d="M -1.5 4 L -1.5 12 M 0.5 4 L 0.5 12" stroke="#b2b1b6" stroke-width="1"></path></g><g class="highcharts-axis-labels highcharts-xaxis-labels" ><text x="93.5" style="color:#606060;cursor:default;font-size:11px;fill:#606060;width:84px;text-overflow:clip;" text-anchor="middle" transform="translate(0,0)" y="304" opacity="1">14:44:40</text><text x="187.5" style="color:#606060;cursor:default;font-size:11px;fill:#606060;width:84px;text-overflow:clip;" text-anchor="middle" transform="translate(0,0)" y="304" opacity="1">14:44:50</text><text x="281.5" style="color:#606060;cursor:default;font-size:11px;fill:#606060;width:84px;text-overflow:clip;" text-anchor="middle" transform="translate(0,0)" y="304" opacity="1">14:45:00</text><text x="375.5" style="color:#606060;cursor:default;font-size:11px;fill:#606060;width:84px;text-overflow:clip;" text-anchor="middle" transform="translate(0,0)" y="304" opacity="1">14:45:10</text><text x="469.5" style="color:#606060;cursor:default;font-size:11px;fill:#606060;width:84px;text-overflow:clip;" text-anchor="middle" transform="translate(0,0)" y="304" opacity="1">14:45:20</text><text x="574" style="color:#606060;cursor:default;font-size:11px;fill:#606060;width:84px;text-overflow:clip;" text-anchor="end" transform="translate(0,0)" y="304" opacity="1">14:45:30</text></g><g class="highcharts-axis-labels highcharts-xaxis-labels" ><text x="63.4" style="color:#888;cursor:default;font-size:11px;fill:#888;width:131px;text-overflow:clip;" text-anchor="start" transform="translate(0,0)" y="367" opacity="1">14:30</text><text x="224.3" style="color:#888;cursor:default;font-size:11px;fill:#888;width:131px;text-overflow:clip;" text-anchor="start" transform="translate(0,0)" y="367" opacity="1">14:35</text><text x="385.3" style="color:#888;cursor:default;font-size:11px;fill:#888;width:131px;text-overflow:clip;" text-anchor="start" transform="translate(0,0)" y="367" opacity="1">14:40</text><text x="546.3" style="color:#888;cursor:default;font-size:11px;fill:#888;width:131px;text-overflow:clip;" text-anchor="start" transform="translate(0,0)" y="367" opacity="1">14:45</text></g><g class="highcharts-axis-labels highcharts-yaxis-labels" ><text x="574" style="color:#606060;cursor:default;font-size:11px;fill:#606060;width:183px;text-overflow:clip;" text-anchor="end" transform="translate(0,0)" y="283" opacity="1">-25</text><text x="574" style="color:#606060;cursor:default;font-size:11px;fill:#606060;width:183px;text-overflow:clip;" text-anchor="end" transform="translate(0,0)" y="249" opacity="1">0</text><text x="574" style="color:#606060;cursor:default;font-size:11px;fill:#606060;width:183px;text-overflow:clip;" text-anchor="end" transform="translate(0,0)" y="214" opacity="1">25</text><text x="574" style="color:#606060;cursor:default;font-size:11px;fill:#606060;width:183px;text-overflow:clip;" text-anchor="end" transform="translate(0,0)" y="180" opacity="1">50</text><text x="574" style="color:#606060;cursor:default;font-size:11px;fill:#606060;width:183px;text-overflow:clip;" text-anchor="end" transform="translate(0,0)" y="146" opacity="1">75</text><text x="574" style="color:#606060;cursor:default;font-size:11px;fill:#606060;width:183px;text-overflow:clip;" text-anchor="end" transform="translate(0,0)" y="111" opacity="1">100</text><text x="0" style="color:#606060;cursor:default;font-size:11px;fill:#606060;width:183px;text-overflow:clip;" text-anchor="end" transform="translate(0,0)" y="-9999">125</text></g><g class="highcharts-axis-labels highcharts-yaxis-labels" ></g><g class="highcharts-tooltip"  style="cursor:default;padding:0;white-space:nowrap;" transform="translate(0,-9999)"><path fill="none" d="M 3 0 L 13 0 C 16 0 16 0 16 3 L 16 13 C 16 16 16 16 13 16 L 3 16 C 0 16 0 16 0 13 L 0 3 C 0 0 0 0 3 0"  stroke="black" stroke-opacity="0.0" stroke-width="5" transform="translate(1, 1)"></path><path fill="none" d="M 3 0 L 13 0 C 16 0 16 0 16 3 L 16 13 C 16 16 16 16 13 16 L 3 16 C 0 16 0 16 0 13 L 0 3 C 0 0 0 0 3 0"  stroke="black" stroke-opacity="0.0" stroke-width="3" transform="translate(1, 1)"></path><path fill="none" d="M 3 0 L 13 0 C 16 0 16 0 16 3 L 16 13 C 16 16 16 16 13 16 L 3 16 C 0 16 0 16 0 13 L 0 3 C 0 0 0 0 3 0"  stroke="black" stroke-opacity="0.1" stroke-width="1" transform="translate(1, 1)"></path><path fill="rgb(249, 249, 249)" fill-opacity=" .85" d="M 3 0 L 13 0 C 16 0 16 0 16 3 L 16 13 C 16 16 16 16 13 16 L 3 16 C 0 16 0 16 0 13 L 0 3 C 0 0 0 0 3 0"></path><text x="8"  style="font-size:12px;color:#333333;fill:#333333;" y="20"></text></g></svg>