<svg version="1.1" style="font-family:&quot;lucida grande&quot;, &quot;lucida sans unicode&quot;, arial, helvetica, sans-serif;font-size:12px;" xmlns="http://www.w3.org/2000/svg" width="584" height="400" viewBox="0 0 584 400"><desc>Created with Highstock 2.1.0</desc><defs><clipPath id="highcharts-1"><rect x="0" y="0" width="540" height="206"></rect></clipPath><clipPath id="highcharts-2"><rect x="-99" y="-79" width="639" height="400"></rect></clipPath><clipPath id="highcharts-3"><rect x="0" y="0" width="540" height="206"></rect></clipPath><clipPath id="highcharts-4"><rect x="-99" y="-79" width="639" height="400"></rect></clipPath><clipPath id="highcharts-5"><rect x="0" y="0" width="540" height="40"></rect></clipPath></defs><rect x="0" y="0" width="584" height="400" strokeWidth="0" fill="#FFFFFF" class=" highcharts-background"></rect><g class="highcharts-scrollbar" transform="translate(10,372)"><rect x="0" y="-0.5" fill="#eeeeee" stroke="#eeeeee" stroke-width="1" rx="0" ry="0" height="14" width="540"></rect><rect y="-0.5" height="14" fill="#bfc8d1" stroke="#bfc8d1" stroke-width="1" rx="0" ry="0" x="509.5" width="16"></rect><path fill="none" stroke="#666" stroke-width="1" visibility="visible" d="M 514 3.5 L 514 9.3 M 517 3.5 L 517 9.3 M 520 3.5 L 520 9.3"></path><g><rect x="-0.5" y="-0.5" width="14" height="14" strokeWidth="1" stroke="#bbb" stroke-width="1" fill="#ebe7e8"></rect><path fill="#666" d="M 8 4 L 8 10 5 7"></path></g><g transform="translate(526,0)"><rect x="-0.5" y="-0.5" width="14" height="14" strokeWidth="1" stroke="#bbb" stroke-width="1" fill="#ebe7e8"></rect><path fill="#666" d="M 6 4 L 6 10 9 7"></path></g></g><g class="highcharts-range-selector-buttons"><text x="10" y="59" style="color:#666;fill:#666;">Zoom</text><g class="highcharts-button"  states="[object Object]" style="cursor:pointer;text-align:center;" transform="translate(46,44)"><rect x="0" y="0" width="32" height="22" strokeWidth="0" fill="#f7f7f7" rx="0" ry="0"></rect><text x="7.5"  style="font-weight:normal;color:#444;fill:#444;" y="14">1m</text></g><g class="highcharts-button"  states="[object Object]" style="cursor:pointer;text-align:center;" transform="translate(83,44)"><rect x="0" y="0" width="32" height="22" strokeWidth="0" fill="#e7f0f9" rx="0" ry="0"></rect><text x="7.5"  style="font-weight:bold;color:black;fill:black;" y="14">3m</text></g><g class="highcharts-button"  states="[object Object]" style="cursor:pointer;text-align:center;" transform="translate(120,44)"><rect x="0" y="0" width="32" height="22" strokeWidth="0" fill="#f7f7f7" rx="0" ry="0"></rect><text x="7.5"  style="font-weight:normal;color:#444;fill:#444;" y="14">6m</text></g><g class="highcharts-button"  states="[object Object]" style="cursor:pointer;text-align:center;" transform="translate(157,44)"><rect x="0" y="0" width="32" height="22" strokeWidth="0" fill="#f7f7f7" rx="0" ry="0"></rect><text x="4"  style="font-weight:normal;color:#444;fill:#444;" y="14">YTD</text></g><g class="highcharts-button"  states="[object Object]" style="cursor:pointer;text-align:center;" transform="translate(194,44)"><rect x="0" y="0" width="32" height="22" strokeWidth="0" fill="#f7f7f7" rx="0" ry="0"></rect><text x="9.5"  style="font-weight:normal;color:#444;fill:#444;" y="14">1y</text></g><g class="highcharts-button"  states="[object Object]" style="cursor:pointer;text-align:center;" transform="translate(231,44)"><rect x="0" y="0" width="32" height="22" strokeWidth="0" fill="#f7f7f7" rx="0" ry="0"></rect><text x="10"  style="font-weight:normal;color:#444;fill:#444;" y="14">All</text></g></g><g class="highcharts-input-group" transform="translate(316,44)" visibility="visible"><g style="fill:#666;" transform="translate(0,0)"><text x="2"  style="font-size:12px;font-family:&quot;lucida grande&quot;, &quot;lucida sans unicode&quot;, arial, helvetica, sans-serif;color:#666;fill:#666;" y="14">From</text></g><g style="text-align:center;" transform="translate(36,0)"><rect x="0.5" y="0.5" width="94" height="21" strokeWidth="1" fill="none" stroke="silver" stroke-width="1"></rect><text x="13.5"  style="font-size:12px;font-family:&quot;lucida grande&quot;, &quot;lucida sans unicode&quot;, arial, helvetica, sans-serif;color:#444;fill:#444;" y="14"><tspan>Feb 9, 2011</tspan></text></g><g style="fill:#666;" transform="translate(140,0)"><text x="2"  style="font-size:12px;font-family:&quot;lucida grande&quot;, &quot;lucida sans unicode&quot;, arial, helvetica, sans-serif;color:#666;fill:#666;" y="14">To</text></g><g style="text-align:center;" transform="translate(164,0)"><rect x="0.5" y="0.5" width="94" height="21" strokeWidth="1" fill="none" stroke="silver" stroke-width="1"></rect><text x="9.5"  style="font-size:12px;font-family:&quot;lucida grande&quot;, &quot;lucida sans unicode&quot;, arial, helvetica, sans-serif;color:#444;fill:#444;" y="14"><tspan>May 10, 2011</tspan></text></g></g><g class="highcharts-grid" ></g><g class="highcharts-grid" ><path fill="none" d="M 41.5 331 L 41.5 371" stroke="#EEE" stroke-width="1"  opacity="1"></path><path fill="none" d="M 176.5 331 L 176.5 371" stroke="#EEE" stroke-width="1"  opacity="1"></path><path fill="none" d="M 310.5 331 L 310.5 371" stroke="#EEE" stroke-width="1"  opacity="1"></path><path fill="none" d="M 444.5 331 L 444.5 371" stroke="#EEE" stroke-width="1"  opacity="1"></path></g><g class="highcharts-grid" ><path fill="none" d="M 10 285.5 L 550 285.5" stroke="#D8D8D8" stroke-width="1"  opacity="1"></path><path fill="none" d="M 10 233.5 L 550 233.5" stroke="#D8D8D8" stroke-width="1"  opacity="1"></path><path fill="none" d="M 10 182.5 L 550 182.5" stroke="#D8D8D8" stroke-width="1"  opacity="1"></path><path fill="none" d="M 10 131.5 L 550 131.5" stroke="#D8D8D8" stroke-width="1"  opacity="1"></path><path fill="none" d="M 10 78.5 L 550 78.5" stroke="#D8D8D8" stroke-width="1"  opacity="1"></path></g><g class="highcharts-grid" ></g><g class="highcharts-axis" ><path fill="none" d="M 81.5 285 L 81.5 295" stroke="#C0D0E0" stroke-width="1" opacity="1"></path><path fill="none" d="M 165.5 285 L 165.5 295" stroke="#C0D0E0" stroke-width="1" opacity="1"></path><path fill="none" d="M 249.5 285 L 249.5 295" stroke="#C0D0E0" stroke-width="1" opacity="1"></path><path fill="none" d="M 333.5 285 L 333.5 295" stroke="#C0D0E0" stroke-width="1" opacity="1"></path><path fill="none" d="M 417.5 285 L 417.5 295" stroke="#C0D0E0" stroke-width="1" opacity="1"></path><path fill="none" d="M 501.5 285 L 501.5 295" stroke="#C0D0E0" stroke-width="1" opacity="1"></path><path fill="none" d="M 10 285.5 L 550 285.5" stroke="#C0D0E0" stroke-width="1"  visibility="visible"></path></g><g class="highcharts-axis" ></g><g class="highcharts-axis" ><text x="560"  text-anchor="middle" transform="translate(0,0) rotate(90 560 182)" class=" highcharts-yaxis-title" style="color:#707070;fill:#707070;" visibility="visible" y="182"><tspan>Exchange rate</tspan></text></g><g class="highcharts-axis" ></g><g class="highcharts-series-group" ><g class="highcharts-series" visibility="visible"  transform="translate(10,79) scale(1 1)" clip-path="url(#highcharts-3)"><path fill="none" d="M -6 32.9 L 0 43.4 L 6 30.6 L 12 25.3 L 29.9 16.6 L 36 18.7 L 42 27.3 L 48 32.7 L 53.9 40.3 L 72 39.1 L 78 38.1 L 84 47.7 L 90 54.3 L 96 47.1 L 113.9 54.5 L 119.9 48.8 L 125.9 59.1 L 132 69.0 L 138 72.1 L 156 69.6 L 162 62.2 L 168 63.4 L 174 52.3 L 180 63.0 L 198 72.5 L 204 72.1 L 210 61.1 L 215.9 76.6 L 221.9 92.2 L 239.9 95.5 L 245.9 91.0 L 251.9 84.2 L 258 91.0 L 264 82.4 L 282 80.9 L 288 86.1 L 294 86.7 L 300 89.8 L 306 97.6 L 324 94.7 L 330 97.6 L 336 106.7 L 342 103.8 L 348 122.1 L 366 116.5 L 372 122.3 L 378 119.4 L 384 124.4 L 390 117.2 L 408 98.0 L 414 111.0 L 420 126.0 L 426 129.9 L 431.9 129.9 L 449.9 128.9 L 455.9 143.9 L 461.9 151.8 L 467.9 156.9 L 473.9 153.8 L 491.9 152.6 L 497.9 156.5 L 503.9 155.7 L 509.9 129.7 L 516 106.5 L 528 111.2 L 540 114.3" stroke="#7cb5ec" stroke-width="2"  stroke-linejoin="round" stroke-linecap="round"></path><path fill="none" d="M -16 32.9 L -6 32.9 L 0 43.4 L 6 30.6 L 12 25.3 L 29.9 16.6 L 36 18.7 L 42 27.3 L 48 32.7 L 53.9 40.3 L 72 39.1 L 78 38.1 L 84 47.7 L 90 54.3 L 96 47.1 L 113.9 54.5 L 119.9 48.8 L 125.9 59.1 L 132 69.0 L 138 72.1 L 156 69.6 L 162 62.2 L 168 63.4 L 174 52.3 L 180 63.0 L 198 72.5 L 204 72.1 L 210 61.1 L 215.9 76.6 L 221.9 92.2 L 239.9 95.5 L 245.9 91.0 L 251.9 84.2 L 258 91.0 L 264 82.4 L 282 80.9 L 288 86.1 L 294 86.7 L 300 89.8 L 306 97.6 L 324 94.7 L 330 97.6 L 336 106.7 L 342 103.8 L 348 122.1 L 366 116.5 L 372 122.3 L 378 119.4 L 384 124.4 L 390 117.2 L 408 98.0 L 414 111.0 L 420 126.0 L 426 129.9 L 431.9 129.9 L 449.9 128.9 L 455.9 143.9 L 461.9 151.8 L 467.9 156.9 L 473.9 153.8 L 491.9 152.6 L 497.9 156.5 L 503.9 155.7 L 509.9 129.7 L 516 106.5 L 528 111.2 L 540 114.3 L 550 114.3" stroke-linejoin="round" visibility="visible" stroke="rgb(192,192,192)" stroke-opacity="0.0" stroke-width="22"  class=" highcharts-tracker" style=""></path></g><g class="highcharts-markers highcharts-tracker" visibility="visible"  transform="translate(10,79) scale(1 1)" clip-path="url(#highcharts-2)" style=""></g><g class="highcharts-series" visibility="visible"  transform="translate(10,79) scale(1 1)"></g><g class="highcharts-markers highcharts-tracker" visibility="visible"  transform="translate(10,79) scale(1 1)" style=""><g style="text-align:center;" transform="translate(458,127)"><path fill="white" d="M -1 0 L 21 0 21 19 -1 19 Z M 10.9 19 L 10.9 29.9" stroke="#434348" stroke-width="1"></path><text x="5.5"  style="font-size:11px;font-weight:bold;" y="14">A</text></g><g style="text-align:center;" transform="translate(68,9)"><path fill="white" d="M -1 0 L 21 0 21 19 -1 19 Z M 11 19 L 11 29.1" stroke="#434348" stroke-width="1"></path><text x="5.5"  style="font-size:11px;font-weight:bold;" y="14">A</text></g></g><g class="highcharts-series" visibility="visible"  transform="translate(10,79) scale(1 1)"></g><g class="highcharts-markers highcharts-tracker" visibility="visible"  transform="translate(10,79) scale(1 1)" style=""><g style="text-align:center;" transform="translate(296,177)"><path fill="white" d="M 10 0 C 24.6 0 24.6 19 10 19 C -4.6 19 -4.6 0 10 0 Z M 11 19 L 11 29" stroke="#90ed7d" stroke-width="1"></path><text x="6"  style="font-size:11px;font-weight:bold;" y="14">B</text></g><g style="text-align:center;" transform="translate(110,177)"><path fill="white" d="M 10 0 C 24.6 0 24.6 19 10 19 C -4.6 19 -4.6 0 10 0 Z M 10.9 19 L 10.9 29" stroke="#90ed7d" stroke-width="1"></path><text x="6"  style="font-size:11px;font-weight:bold;" y="14">B</text></g></g><g class="highcharts-series" visibility="visible"  transform="translate(10,79) scale(1 1)"></g><g class="highcharts-markers highcharts-tracker" visibility="visible"  transform="translate(10,79) scale(1 1)" style=""><g style="text-align:center;" transform="translate(366,87)"><path fill="#7cb5ec" d="M 1 29.5 L 0 19 0 0 22 0 22 19 0 19 M 1 29.5 Z" stroke="#7cb5ec" stroke-width="1"></path><text x="7.5"  style="font-size:11px;font-weight:bold;color:white;fill:white;" y="14">C</text></g><g style="text-align:center;" transform="translate(174,23)"><path fill="#7cb5ec" d="M 1 29.3 L 0 19 0 0 22 0 22 19 0 19 M 1 29.3 Z" stroke="#7cb5ec" stroke-width="1"></path><text x="7.5"  style="font-size:11px;font-weight:bold;color:white;fill:white;" y="14">C</text></g></g><g class="highcharts-series" visibility="visible"  transform="translate(24,331) scale(1 1)" clip-path="url(#highcharts-5)"><path fill="rgb(69,114,167)" fill-opacity="0.0" d="M 0 3.5 C 0 3.5 0.9 4.5 1.5 5.2 C 2.0 5.7 2.3 6.5 2.8 6.5 C 3.3 6.5 3.6 5.3 4.1 5.3 C 4.6 5.3 4.9 6.2 5.4 6.2 C 5.9 6.2 6.2 5.9 6.7 5.3 C 7.2 4.7 7.4 3.3 8.0 3.3 C 8.5 3.3 8.7 4.1 9.2 5.0 C 9.8 5.8 10.0 7.6 10.5 7.6 C 11.0 7.6 11.3 7.5 11.8 7.5 C 12.3 7.5 12.6 8.8 13.1 9.5 C 13.6 10.1 13.9 10.3 14.4 10.8 C 14.9 11.4 15.2 11.7 15.7 12.1 C 16.2 12.4 16.4 12.3 17.0 12.6 C 17.5 12.9 17.7 13.2 18.3 13.8 C 18.8 14.3 19.0 15.2 19.5 15.2 C 20.1 15.2 20.3 14.7 20.8 14.4 C 21.3 14.2 21.6 14.2 22.1 13.9 C 22.6 13.7 22.9 13.2 23.4 13.2 C 23.9 13.2 24.2 13.3 24.7 13.8 C 25.2 14.2 25.5 15.4 26.0 15.4 C 26.5 15.4 26.7 15.4 27.3 15.2 C 27.8 15.0 28.0 14.4 28.5 13.6 C 29.1 12.8 29.3 11.3 29.8 11.3 C 30.3 11.3 30.6 11.5 31.1 11.5 C 31.6 11.5 31.9 11.5 32.4 11.3 C 32.9 11.2 33.2 10.7 33.7 10.7 C 34.2 10.7 34.5 10.8 35.0 10.8 C 35.5 10.8 35.8 10.0 36.3 9.6 C 36.8 9.1 37.0 8.9 37.6 8.5 C 38.1 8.1 38.3 7.5 38.8 7.5 C 39.4 7.5 39.6 7.5 40.1 7.8 C 40.6 8.1 40.9 9.0 41.4 9.0 C 41.9 9.0 42.2 7.4 42.7 7.4 C 43.2 7.4 43.5 8.0 44.0 8.5 C 44.5 9.0 44.8 9.6 45.3 10.0 C 45.8 10.5 46.0 10.8 46.6 10.8 C 47.1 10.8 47.3 10.3 47.8 10.0 C 48.4 9.8 48.6 9.4 49.1 9.4 C 49.7 9.4 49.9 9.7 50.4 9.9 C 50.9 10.1 51.2 10.1 51.7 10.5 C 52.2 10.9 52.5 11.8 53.0 12.0 C 53.5 12.2 53.8 12.2 54.3 12.2 C 54.8 12.2 55.1 11.8 55.6 11.2 C 56.1 10.6 56.3 9.2 56.9 9.2 C 57.4 9.2 57.6 9.2 58.1 9.6 C 58.7 10.0 58.9 10.7 59.4 11.2 C 59.9 11.7 60.2 11.9 60.7 11.9 C 61.2 11.9 61.5 9.5 62.0 9.5 C 62.5 9.5 62.8 9.7 63.3 9.9 C 63.8 10.1 64.1 10.1 64.6 10.3 C 65.1 10.4 65.4 10.5 65.9 10.6 C 66.4 10.8 66.6 10.9 67.2 11.2 C 67.7 11.4 67.9 12.0 68.4 12.0 C 69.0 12.0 69.2 11.7 69.7 11.7 C 70.2 11.7 70.5 11.8 71.0 12.2 C 71.5 12.7 71.8 13.3 72.3 13.9 C 72.8 14.6 73.1 15.0 73.6 15.5 C 74.1 15.9 74.4 15.8 74.9 16.0 C 75.4 16.3 75.6 16.5 76.2 16.8 C 76.7 17.0 76.9 16.9 77.4 17.3 C 78.0 17.8 78.2 18.3 78.7 18.9 C 79.2 19.4 79.5 19.9 80.0 20.1 C 80.5 20.2 80.8 20.2 81.3 20.2 C 81.8 20.2 82.1 20.0 82.6 20.0 C 83.1 20.0 83.4 20.5 83.9 21.0 C 84.4 21.4 84.7 22.2 85.2 22.2 C 85.7 22.2 85.9 20.2 86.5 19.5 C 87.0 18.8 87.2 19.2 87.7 18.8 C 88.3 18.4 88.5 17.6 89.0 17.6 C 89.5 17.6 89.8 17.8 90.3 17.8 C 90.8 17.8 91.1 17.6 91.6 17.3 C 92.1 16.9 92.4 16.0 92.9 16.0 C 93.4 16.0 93.7 17.1 94.2 17.8 C 94.7 18.4 94.9 19.0 95.5 19.0 C 96.0 19.0 96.2 18.9 96.8 18.9 C 97.3 18.9 97.5 20.4 98.0 20.4 C 98.6 20.4 98.8 20.4 99.3 20.3 C 99.8 20.3 100.1 18.4 100.6 17.7 C 101.1 17.0 101.4 17.1 101.9 16.9 C 102.4 16.6 102.7 16.5 103.2 16.5 C 103.7 16.5 104.0 16.5 104.5 16.8 C 105.0 17.0 105.2 17.9 105.8 17.9 C 106.3 17.9 106.5 17.2 107.0 17.0 C 107.6 16.7 107.8 16.9 108.3 16.6 C 108.8 16.3 109.1 15.9 109.6 15.4 C 110.1 14.9 110.4 14.6 110.9 14.3 C 111.4 14.0 111.7 14.3 112.2 13.9 C 112.7 13.4 113.0 12.1 113.5 11.5 C 114.0 10.8 114.3 11.1 114.8 10.8 C 115.3 10.5 115.5 10.0 116.1 9.9 C 116.6 9.7 116.8 9.8 117.3 9.7 C 117.9 9.7 118.1 9.7 118.6 9.4 C 119.1 9.1 119.4 8.1 119.9 8.1 C 120.4 8.1 120.7 9.6 121.2 9.6 C 121.7 9.6 122.0 9.6 122.5 9.5 C 123.0 9.5 123.3 9.4 123.8 9.4 C 124.3 9.4 124.5 10.8 125.1 11.4 C 125.6 12.0 125.8 12.4 126.3 12.4 C 126.9 12.4 127.1 11.2 127.6 11.1 C 128.2 11.1 128.4 11.1 128.9 11.1 C 129.4 11.1 129.7 11.6 130.2 12.0 C 130.7 12.3 131.0 12.8 131.5 12.8 C 132.0 12.8 132.3 11.7 132.8 11.2 C 133.3 10.6 133.6 10.4 134.1 10.0 C 134.6 9.6 134.8 9.1 135.4 9.1 C 135.9 9.1 136.1 9.1 136.6 9.1 C 137.2 9.1 137.4 9.1 137.9 8.9 C 138.4 8.8 138.7 8.5 139.2 8.5 C 139.7 8.5 140.0 9.3 140.5 9.3 C 141.0 9.3 141.3 9.0 141.8 8.4 C 142.3 7.8 142.6 6.5 143.1 6.2 C 143.6 6.0 143.9 6.0 144.4 6.0 C 144.9 6.0 145.1 6.5 145.7 6.5 C 146.2 6.5 146.4 6.5 146.9 6.5 C 147.5 6.5 147.7 6.5 148.2 6.6 C 148.7 6.7 149.0 8.4 149.5 8.4 C 150.0 8.4 150.3 7.9 150.8 7.6 C 151.3 7.4 151.6 7.2 152.1 7.2 C 152.6 7.2 152.9 8.1 153.4 8.5 C 153.9 9.0 154.1 9.4 154.7 9.6 C 155.2 9.7 155.4 9.6 155.9 9.7 C 156.5 9.9 156.7 10.8 157.2 10.8 C 157.8 10.8 158.0 9.9 158.5 9.4 C 159.0 9.0 159.3 8.8 159.8 8.5 C 160.3 8.1 160.6 7.8 161.1 7.8 C 161.6 7.8 161.9 7.8 162.4 7.8 C 162.9 7.9 163.2 8.2 163.7 8.2 C 164.2 8.2 164.4 8.0 165.0 8.0 C 165.5 8.0 165.7 9.5 166.2 9.5 C 166.8 9.5 167.0 9.4 167.5 9.3 C 168.0 9.3 168.3 9.3 168.8 9.3 C 169.3 9.3 169.6 10.5 170.1 10.5 C 170.6 10.5 170.9 9.8 171.4 9.8 C 171.9 9.8 172.2 11.0 172.7 11.7 C 173.2 12.4 173.5 12.6 174.0 13.1 C 174.5 13.7 174.7 14.0 175.3 14.5 C 175.8 15.1 176.0 15.8 176.5 15.8 C 177.1 15.9 177.3 15.9 177.8 15.9 C 178.3 15.9 178.6 15.8 179.1 15.8 C 179.6 15.8 179.9 16.1 180.4 16.1 C 180.9 16.1 181.2 15.9 181.7 15.5 C 182.2 15.1 182.5 14.4 183.0 14.2 C 183.5 14.0 183.7 14.0 184.3 14.0 C 184.8 14.0 185.0 14.1 185.5 14.4 C 186.1 14.8 186.3 15.7 186.8 15.7 C 187.3 15.7 187.6 15.4 188.1 15.1 C 188.6 14.8 188.9 14.1 189.4 14.1 C 189.9 14.1 190.2 14.4 190.7 14.8 C 191.2 15.1 191.5 15.9 192.0 15.9 C 192.5 15.9 192.8 15.9 193.3 15.9 C 193.8 15.9 194.0 15.9 194.6 15.9 C 195.1 15.9 195.3 15.8 195.8 15.8 C 196.4 15.8 196.6 16.0 197.1 16.0 C 197.6 16.0 197.9 15.9 198.4 15.7 C 198.9 15.5 199.2 14.9 199.7 14.9 C 200.2 14.9 200.5 15.2 201.0 15.2 C 201.5 15.2 201.8 15.1 202.3 15.1 C 202.8 15.0 203.0 15.1 203.6 15.0 C 204.1 14.9 204.3 13.7 204.9 13.7 C 205.4 13.7 205.6 13.8 206.1 13.9 C 206.7 14.0 206.9 14.1 207.4 14.4 C 207.9 14.7 208.2 15.1 208.7 15.4 C 209.2 15.7 209.5 15.6 210.0 15.8 C 210.5 15.9 210.8 15.8 211.3 16.0 C 211.8 16.2 212.1 16.3 212.6 16.9 C 213.1 17.6 213.3 18.6 213.9 19.2 C 214.4 19.8 214.6 19.8 215.1 19.8 C 215.7 19.8 215.9 19.3 216.4 19.1 C 216.9 18.9 217.2 18.9 217.7 18.8 C 218.2 18.7 218.5 18.6 219.0 18.6 C 219.5 18.6 219.8 18.7 220.3 18.7 C 220.8 18.7 221.1 17.3 221.6 17.2 C 222.1 17.0 222.4 17.0 222.9 17.0 C 223.4 17.0 223.6 17.1 224.2 17.2 C 224.7 17.2 224.9 17.3 225.4 17.4 C 226.0 17.5 226.2 17.4 226.7 17.5 C 227.2 17.6 227.5 17.9 228.0 18.2 C 228.5 18.4 228.8 18.5 229.3 18.7 C 229.8 18.9 230.1 19.1 230.6 19.1 C 231.1 19.1 231.4 18.6 231.9 18.6 C 232.4 18.6 232.6 19.1 233.2 19.4 C 233.7 19.8 233.9 20.2 234.4 20.2 C 235.0 20.2 235.2 20.1 235.7 20.1 C 236.3 20.1 236.5 20.3 237.0 20.5 C 237.5 20.7 237.8 20.7 238.3 21.0 C 238.8 21.3 239.1 21.8 239.6 22.1 C 240.1 22.3 240.4 22.3 240.9 22.3 C 241.4 22.3 241.7 22.3 242.2 22.2 C 242.7 22.0 242.9 21.7 243.5 21.7 C 244.0 21.7 244.2 21.7 244.7 21.7 C 245.3 21.7 245.5 21.0 246.0 21.0 C 246.5 21.0 246.8 21.0 247.3 21.0 C 247.8 21.0 248.1 21.1 248.6 21.1 C 249.1 21.1 249.4 20.1 249.9 20.1 C 250.4 20.1 250.7 20.6 251.2 20.8 C 251.7 21.0 252.0 20.9 252.5 21.2 C 253.0 21.5 253.2 21.9 253.8 22.3 C 254.3 22.7 254.5 22.9 255.0 23.2 C 255.6 23.5 255.8 23.7 256.3 23.7 C 256.8 23.7 257.1 23.4 257.6 23.3 C 258.1 23.1 258.4 23.0 258.9 23.0 C 259.4 23.0 259.7 23.2 260.2 23.2 C 260.7 23.2 261.0 21.4 261.5 21.4 C 262.0 21.4 262.2 21.6 262.8 21.8 C 263.3 22.0 263.5 22.3 264.0 22.4 C 264.6 22.6 264.8 22.4 265.3 22.7 C 265.8 22.9 266.1 23.6 266.6 24.0 C 267.1 24.5 267.4 24.6 267.9 25.0 C 268.4 25.5 268.7 26.1 269.2 26.1 C 269.7 26.1 270.0 26.1 270.5 26.1 C 271.0 26.1 271.3 26.0 271.8 26.0 C 272.3 26.0 272.5 26.5 273.1 26.7 C 273.6 26.9 273.8 26.7 274.3 27.0 C 274.9 27.3 275.1 27.7 275.6 28.1 C 276.1 28.5 276.4 29.0 276.9 29.1 C 277.4 29.2 277.7 29.1 278.2 29.2 C 278.7 29.3 279.0 30.4 279.5 30.4 C 280.0 30.4 280.3 30.4 280.8 30.3 C 281.3 30.2 281.5 29.7 282.1 29.5 C 282.6 29.3 282.8 29.5 283.4 29.3 C 283.9 29.0 284.1 27.7 284.6 27.7 C 285.2 27.7 285.4 28.2 285.9 28.6 C 286.4 29.0 286.7 29.4 287.2 29.6 C 287.7 29.9 288.0 29.9 288.5 29.9 C 289.0 29.9 289.3 29.8 289.8 29.7 C 290.3 29.6 290.6 29.3 291.1 29.3 C 291.6 29.3 291.8 30.4 292.4 30.4 C 292.9 30.4 293.1 29.1 293.6 29.1 C 294.2 29.1 294.4 29.1 294.9 29.1 C 295.4 29.2 295.7 29.5 296.2 30.1 C 296.7 30.7 297.0 31.5 297.5 32.1 C 298.0 32.8 298.3 32.9 298.8 33.4 C 299.3 33.9 299.6 34.5 300.1 34.8 C 300.6 35.0 300.9 34.8 301.4 35.0 C 301.9 35.2 302.1 35.7 302.7 35.7 C 303.2 35.7 303.4 35.6 303.9 35.6 C 304.5 35.6 304.7 35.8 305.2 36.0 C 305.7 36.2 306.0 36.6 306.5 36.6 C 307.0 36.6 307.3 36.6 307.8 36.3 C 308.3 36.1 308.6 35.3 309.1 34.9 C 309.6 34.5 309.9 34.3 310.4 34.3 C 310.9 34.3 311.1 34.3 311.7 34.6 C 312.2 34.8 312.4 35.6 312.9 35.6 C 313.5 35.6 313.7 35.5 314.2 35.4 C 314.8 35.2 315.0 35.1 315.5 34.9 C 316.0 34.8 316.3 34.6 316.8 34.6 C 317.3 34.6 317.6 34.6 318.1 34.7 C 318.6 34.9 318.9 35.2 319.4 35.5 C 319.9 35.7 320.2 36.0 320.7 36.1 C 321.2 36.1 321.4 36.1 322.0 36.1 C 322.5 36.1 322.7 36.6 323.2 36.6 C 323.8 36.6 324.0 36.3 324.5 36.0 C 325.0 35.7 325.3 35.7 325.8 35.2 C 326.3 34.8 326.6 34.6 327.1 33.7 C 327.6 32.8 327.9 30.9 328.4 30.6 C 328.9 30.3 329.2 30.4 329.7 30.3 C 330.2 30.1 330.5 30.2 331.0 29.7 C 331.5 29.3 331.7 28.7 332.3 27.9 C 332.8 27.1 333.0 25.6 333.5 25.6 C 334.1 25.6 334.3 26.3 334.8 27.1 C 335.3 27.9 335.6 29.6 336.1 29.6 C 336.6 29.6 336.9 26.7 337.4 25.1 C 337.9 23.5 338.2 21.8 338.7 21.7 C 339.2 21.5 339.5 21.7 340.0 21.5 C 340.5 21.4 340.7 18.1 341.3 16.9 C 341.8 15.7 342.0 15.6 342.5 15.6 C 343.1 15.6 343.3 15.7 343.8 15.7 C 344.3 15.7 344.6 14.7 345.1 14.3 C 345.6 14.0 345.9 13.8 346.4 13.8 C 346.9 13.8 347.2 16.6 347.7 16.6 C 348.2 16.6 348.5 15.0 349.0 15.0 C 349.5 15.0 349.8 16.3 350.3 18.4 C 350.8 20.5 351.0 25.6 351.6 25.6 C 352.1 25.6 352.3 25.0 352.8 25.0 C 353.4 25.0 353.6 25.2 354.1 25.2 C 354.6 25.2 354.9 23.2 355.4 22.1 C 355.9 20.9 356.2 20.3 356.7 19.4 C 357.2 18.5 357.5 17.4 358.0 17.4 C 358.5 17.4 358.8 18.0 359.3 18.0 C 359.8 18.0 360.0 16.5 360.6 16.5 C 361.1 16.5 361.3 16.7 361.9 16.7 C 362.4 16.7 362.6 14.9 363.1 14.9 C 363.7 14.9 363.9 15.2 364.4 15.2 C 364.9 15.2 365.2 14.0 365.7 14.0 C 366.2 14.0 366.5 14.6 367.0 15.8 C 367.5 17.0 367.8 19.1 368.3 20.2 C 368.8 21.3 369.1 21.4 369.6 21.4 C 370.1 21.4 370.3 20.5 370.9 20.1 C 371.4 19.7 371.6 19.4 372.1 19.3 C 372.7 19.3 372.9 19.3 373.4 19.3 C 373.9 19.2 374.2 17.9 374.7 17.9 C 375.2 17.9 375.5 18.4 376.0 19.0 C 376.5 19.6 376.8 20.1 377.3 20.7 C 377.8 21.3 378.1 21.5 378.6 22.1 C 379.1 22.6 379.4 22.9 379.9 23.5 C 380.4 24.1 380.6 24.5 381.2 25.0 C 381.7 25.5 381.9 26.1 382.4 26.1 C 383.0 26.1 383.2 25.5 383.7 25.2 C 384.2 24.8 384.5 24.3 385.0 24.3 C 385.5 24.3 385.8 24.7 386.3 24.9 C 386.8 25.1 387.1 25.4 387.6 25.4 C 388.1 25.4 388.4 24.6 388.9 24.6 C 389.4 24.6 389.6 25.1 390.2 25.5 C 390.7 25.8 390.9 26.4 391.5 26.4 C 392.0 26.4 392.2 26.1 392.7 26.1 C 393.3 26.1 393.5 27.5 394.0 27.5 C 394.5 27.5 394.8 26.4 395.3 26.4 C 395.8 26.4 396.1 26.5 396.6 26.7 C 397.1 26.8 397.4 27.1 397.9 27.1 C 398.4 27.1 398.7 26.9 399.2 26.9 C 399.7 26.9 399.9 27.9 400.5 28.5 C 401.0 29.0 401.2 29.6 401.7 29.7 C 402.3 29.8 402.5 29.8 403.0 29.8 C 403.5 29.8 403.8 29.0 404.3 29.0 C 404.8 29.0 405.1 29.5 405.6 29.9 C 406.1 30.2 406.4 30.6 406.9 30.9 C 407.4 31.3 407.7 31.6 408.2 31.6 C 408.7 31.6 409.0 30.3 409.5 30.3 C 410.0 30.3 410.2 30.3 410.8 30.5 C 411.3 30.7 411.5 31.3 412.0 31.3 C 412.6 31.3 412.8 31.1 413.3 31.1 C 413.8 31.1 414.1 31.5 414.6 31.6 C 415.1 31.7 415.4 31.7 415.9 31.7 C 416.4 31.7 416.7 30.6 417.2 29.9 C 417.7 29.2 418.0 28.8 418.5 28.3 C 419.0 27.8 419.2 27.3 419.8 27.3 C 420.3 27.3 420.5 27.3 421.0 27.4 C 421.6 27.5 421.8 27.5 422.3 27.7 C 422.9 27.9 423.1 28.3 423.6 28.3 C 424.1 28.3 424.4 27.1 424.9 26.5 C 425.4 25.9 425.7 25.7 426.2 25.2 C 426.7 24.7 427.0 24.4 427.5 23.9 C 428.0 23.5 428.3 23.3 428.8 22.9 C 429.3 22.6 429.5 22.4 430.1 22.2 C 430.6 22.0 430.8 21.9 431.3 21.9 C 431.9 21.9 432.1 22.2 432.6 22.3 C 433.1 22.4 433.4 22.6 433.9 22.6 C 434.4 22.6 434.7 22.6 435.2 22.6 C 435.7 22.6 436.0 20.8 436.5 20.8 C 437.0 20.8 437.3 21.5 437.8 21.5 C 438.3 21.5 438.6 20.8 439.1 20.8 C 439.6 20.8 439.8 22.1 440.4 22.1 C 440.9 22.1 441.1 21.0 441.6 20.5 C 442.2 20.0 442.4 20.4 442.9 19.6 C 443.4 18.8 443.7 17.6 444.2 16.5 C 444.7 15.4 445.0 14.8 445.5 14.0 C 446.0 13.2 446.3 12.9 446.8 12.4 C 447.3 11.9 447.6 11.9 448.1 11.5 C 448.6 11.1 448.8 10.9 449.4 10.4 C 449.9 9.9 450.1 8.9 450.6 8.9 C 451.2 8.9 451.4 11.7 451.9 11.7 C 452.4 11.7 452.7 11.7 453.2 11.7 C 453.7 11.7 454.0 11.7 454.5 12.0 C 455.0 12.2 455.3 13.6 455.8 14.3 C 456.3 15.1 456.6 15.2 457.1 15.7 C 457.6 16.1 457.9 16.2 458.4 16.6 C 458.9 16.9 459.1 17.1 459.7 17.7 C 460.2 18.2 460.4 19.1 460.9 19.1 C 461.5 19.1 461.7 17.3 462.2 16.7 C 462.7 16.0 463.0 16.2 463.5 15.8 C 464.0 15.5 464.3 14.9 464.8 14.9 C 465.3 14.9 465.6 15.6 466.1 15.6 C 466.6 15.6 466.9 15.2 467.4 15.2 C 467.9 15.2 468.1 16.5 468.7 17.5 C 469.2 18.4 469.4 19.0 470.0 19.9 C 470.5 20.9 470.7 21.4 471.2 22.2 C 471.8 23.1 472.0 23.5 472.5 24.0 C 473.0 24.5 473.3 24.7 473.8 24.7 C 474.3 24.7 474.6 24.4 475.1 24.4 C 475.6 24.3 475.9 24.3 476.4 24.3 C 476.9 24.3 477.2 25.5 477.7 25.5 C 478.2 25.5 478.4 23.9 479.0 23.2 C 479.5 22.5 479.7 22.6 480.2 22.1 C 480.8 21.6 481.0 21.2 481.5 20.5 C 482.0 19.9 482.3 18.9 482.8 18.9 C 483.3 18.9 483.6 19.3 484.1 19.5 C 484.6 19.7 484.9 19.7 485.4 19.7 C 485.9 19.7 486.2 18.4 486.7 18.4 C 487.2 18.4 487.5 19.4 488.0 19.4 C 488.5 19.4 488.7 18.6 489.3 18.6 C 489.8 18.6 490.0 18.6 490.5 18.7 C 491.1 18.8 491.3 20.2 491.8 21.0 C 492.3 21.8 492.6 22.4 493.1 22.7 C 493.6 23.0 493.9 23.0 494.4 23.0 C 494.9 23.0 495.2 22.5 495.7 22.3 C 496.2 22.1 496.5 22.0 497.0 22.0 C 497.5 22.0 497.7 22.7 498.3 23.2 C 498.8 23.6 499.0 24.1 499.5 24.2 C 500.1 24.3 500.3 24.2 500.8 24.3 C 501.4 24.4 501.6 24.8 502.1 25.2 C 502.6 25.5 502.9 26.1 503.4 26.1 C 503.9 26.1 504.2 26.1 504.7 26.1 C 505.2 26.1 505.5 26.7 506.0 27.2 C 506.5 27.6 506.8 28.2 507.3 28.2 C 507.8 28.2 508.0 28.1 508.6 28.1 C 509.1 28.1 509.3 30.0 509.8 30.0 C 510.4 30.0 510.6 29.7 511.1 29.2 C 511.5 28.9 512 27.8 512 27.8 L 512 40 L 0 40" ></path><path fill="none" d="M 0 3.5 C 0 3.5 0.9 4.5 1.5 5.2 C 2.0 5.7 2.3 6.5 2.8 6.5 C 3.3 6.5 3.6 5.3 4.1 5.3 C 4.6 5.3 4.9 6.2 5.4 6.2 C 5.9 6.2 6.2 5.9 6.7 5.3 C 7.2 4.7 7.4 3.3 8.0 3.3 C 8.5 3.3 8.7 4.1 9.2 5.0 C 9.8 5.8 10.0 7.6 10.5 7.6 C 11.0 7.6 11.3 7.5 11.8 7.5 C 12.3 7.5 12.6 8.8 13.1 9.5 C 13.6 10.1 13.9 10.3 14.4 10.8 C 14.9 11.4 15.2 11.7 15.7 12.1 C 16.2 12.4 16.4 12.3 17.0 12.6 C 17.5 12.9 17.7 13.2 18.3 13.8 C 18.8 14.3 19.0 15.2 19.5 15.2 C 20.1 15.2 20.3 14.7 20.8 14.4 C 21.3 14.2 21.6 14.2 22.1 13.9 C 22.6 13.7 22.9 13.2 23.4 13.2 C 23.9 13.2 24.2 13.3 24.7 13.8 C 25.2 14.2 25.5 15.4 26.0 15.4 C 26.5 15.4 26.7 15.4 27.3 15.2 C 27.8 15.0 28.0 14.4 28.5 13.6 C 29.1 12.8 29.3 11.3 29.8 11.3 C 30.3 11.3 30.6 11.5 31.1 11.5 C 31.6 11.5 31.9 11.5 32.4 11.3 C 32.9 11.2 33.2 10.7 33.7 10.7 C 34.2 10.7 34.5 10.8 35.0 10.8 C 35.5 10.8 35.8 10.0 36.3 9.6 C 36.8 9.1 37.0 8.9 37.6 8.5 C 38.1 8.1 38.3 7.5 38.8 7.5 C 39.4 7.5 39.6 7.5 40.1 7.8 C 40.6 8.1 40.9 9.0 41.4 9.0 C 41.9 9.0 42.2 7.4 42.7 7.4 C 43.2 7.4 43.5 8.0 44.0 8.5 C 44.5 9.0 44.8 9.6 45.3 10.0 C 45.8 10.5 46.0 10.8 46.6 10.8 C 47.1 10.8 47.3 10.3 47.8 10.0 C 48.4 9.8 48.6 9.4 49.1 9.4 C 49.7 9.4 49.9 9.7 50.4 9.9 C 50.9 10.1 51.2 10.1 51.7 10.5 C 52.2 10.9 52.5 11.8 53.0 12.0 C 53.5 12.2 53.8 12.2 54.3 12.2 C 54.8 12.2 55.1 11.8 55.6 11.2 C 56.1 10.6 56.3 9.2 56.9 9.2 C 57.4 9.2 57.6 9.2 58.1 9.6 C 58.7 10.0 58.9 10.7 59.4 11.2 C 59.9 11.7 60.2 11.9 60.7 11.9 C 61.2 11.9 61.5 9.5 62.0 9.5 C 62.5 9.5 62.8 9.7 63.3 9.9 C 63.8 10.1 64.1 10.1 64.6 10.3 C 65.1 10.4 65.4 10.5 65.9 10.6 C 66.4 10.8 66.6 10.9 67.2 11.2 C 67.7 11.4 67.9 12.0 68.4 12.0 C 69.0 12.0 69.2 11.7 69.7 11.7 C 70.2 11.7 70.5 11.8 71.0 12.2 C 71.5 12.7 71.8 13.3 72.3 13.9 C 72.8 14.6 73.1 15.0 73.6 15.5 C 74.1 15.9 74.4 15.8 74.9 16.0 C 75.4 16.3 75.6 16.5 76.2 16.8 C 76.7 17.0 76.9 16.9 77.4 17.3 C 78.0 17.8 78.2 18.3 78.7 18.9 C 79.2 19.4 79.5 19.9 80.0 20.1 C 80.5 20.2 80.8 20.2 81.3 20.2 C 81.8 20.2 82.1 20.0 82.6 20.0 C 83.1 20.0 83.4 20.5 83.9 21.0 C 84.4 21.4 84.7 22.2 85.2 22.2 C 85.7 22.2 85.9 20.2 86.5 19.5 C 87.0 18.8 87.2 19.2 87.7 18.8 C 88.3 18.4 88.5 17.6 89.0 17.6 C 89.5 17.6 89.8 17.8 90.3 17.8 C 90.8 17.8 91.1 17.6 91.6 17.3 C 92.1 16.9 92.4 16.0 92.9 16.0 C 93.4 16.0 93.7 17.1 94.2 17.8 C 94.7 18.4 94.9 19.0 95.5 19.0 C 96.0 19.0 96.2 18.9 96.8 18.9 C 97.3 18.9 97.5 20.4 98.0 20.4 C 98.6 20.4 98.8 20.4 99.3 20.3 C 99.8 20.3 100.1 18.4 100.6 17.7 C 101.1 17.0 101.4 17.1 101.9 16.9 C 102.4 16.6 102.7 16.5 103.2 16.5 C 103.7 16.5 104.0 16.5 104.5 16.8 C 105.0 17.0 105.2 17.9 105.8 17.9 C 106.3 17.9 106.5 17.2 107.0 17.0 C 107.6 16.7 107.8 16.9 108.3 16.6 C 108.8 16.3 109.1 15.9 109.6 15.4 C 110.1 14.9 110.4 14.6 110.9 14.3 C 111.4 14.0 111.7 14.3 112.2 13.9 C 112.7 13.4 113.0 12.1 113.5 11.5 C 114.0 10.8 114.3 11.1 114.8 10.8 C 115.3 10.5 115.5 10.0 116.1 9.9 C 116.6 9.7 116.8 9.8 117.3 9.7 C 117.9 9.7 118.1 9.7 118.6 9.4 C 119.1 9.1 119.4 8.1 119.9 8.1 C 120.4 8.1 120.7 9.6 121.2 9.6 C 121.7 9.6 122.0 9.6 122.5 9.5 C 123.0 9.5 123.3 9.4 123.8 9.4 C 124.3 9.4 124.5 10.8 125.1 11.4 C 125.6 12.0 125.8 12.4 126.3 12.4 C 126.9 12.4 127.1 11.2 127.6 11.1 C 128.2 11.1 128.4 11.1 128.9 11.1 C 129.4 11.1 129.7 11.6 130.2 12.0 C 130.7 12.3 131.0 12.8 131.5 12.8 C 132.0 12.8 132.3 11.7 132.8 11.2 C 133.3 10.6 133.6 10.4 134.1 10.0 C 134.6 9.6 134.8 9.1 135.4 9.1 C 135.9 9.1 136.1 9.1 136.6 9.1 C 137.2 9.1 137.4 9.1 137.9 8.9 C 138.4 8.8 138.7 8.5 139.2 8.5 C 139.7 8.5 140.0 9.3 140.5 9.3 C 141.0 9.3 141.3 9.0 141.8 8.4 C 142.3 7.8 142.6 6.5 143.1 6.2 C 143.6 6.0 143.9 6.0 144.4 6.0 C 144.9 6.0 145.1 6.5 145.7 6.5 C 146.2 6.5 146.4 6.5 146.9 6.5 C 147.5 6.5 147.7 6.5 148.2 6.6 C 148.7 6.7 149.0 8.4 149.5 8.4 C 150.0 8.4 150.3 7.9 150.8 7.6 C 151.3 7.4 151.6 7.2 152.1 7.2 C 152.6 7.2 152.9 8.1 153.4 8.5 C 153.9 9.0 154.1 9.4 154.7 9.6 C 155.2 9.7 155.4 9.6 155.9 9.7 C 156.5 9.9 156.7 10.8 157.2 10.8 C 157.8 10.8 158.0 9.9 158.5 9.4 C 159.0 9.0 159.3 8.8 159.8 8.5 C 160.3 8.1 160.6 7.8 161.1 7.8 C 161.6 7.8 161.9 7.8 162.4 7.8 C 162.9 7.9 163.2 8.2 163.7 8.2 C 164.2 8.2 164.4 8.0 165.0 8.0 C 165.5 8.0 165.7 9.5 166.2 9.5 C 166.8 9.5 167.0 9.4 167.5 9.3 C 168.0 9.3 168.3 9.3 168.8 9.3 C 169.3 9.3 169.6 10.5 170.1 10.5 C 170.6 10.5 170.9 9.8 171.4 9.8 C 171.9 9.8 172.2 11.0 172.7 11.7 C 173.2 12.4 173.5 12.6 174.0 13.1 C 174.5 13.7 174.7 14.0 175.3 14.5 C 175.8 15.1 176.0 15.8 176.5 15.8 C 177.1 15.9 177.3 15.9 177.8 15.9 C 178.3 15.9 178.6 15.8 179.1 15.8 C 179.6 15.8 179.9 16.1 180.4 16.1 C 180.9 16.1 181.2 15.9 181.7 15.5 C 182.2 15.1 182.5 14.4 183.0 14.2 C 183.5 14.0 183.7 14.0 184.3 14.0 C 184.8 14.0 185.0 14.1 185.5 14.4 C 186.1 14.8 186.3 15.7 186.8 15.7 C 187.3 15.7 187.6 15.4 188.1 15.1 C 188.6 14.8 188.9 14.1 189.4 14.1 C 189.9 14.1 190.2 14.4 190.7 14.8 C 191.2 15.1 191.5 15.9 192.0 15.9 C 192.5 15.9 192.8 15.9 193.3 15.9 C 193.8 15.9 194.0 15.9 194.6 15.9 C 195.1 15.9 195.3 15.8 195.8 15.8 C 196.4 15.8 196.6 16.0 197.1 16.0 C 197.6 16.0 197.9 15.9 198.4 15.7 C 198.9 15.5 199.2 14.9 199.7 14.9 C 200.2 14.9 200.5 15.2 201.0 15.2 C 201.5 15.2 201.8 15.1 202.3 15.1 C 202.8 15.0 203.0 15.1 203.6 15.0 C 204.1 14.9 204.3 13.7 204.9 13.7 C 205.4 13.7 205.6 13.8 206.1 13.9 C 206.7 14.0 206.9 14.1 207.4 14.4 C 207.9 14.7 208.2 15.1 208.7 15.4 C 209.2 15.7 209.5 15.6 210.0 15.8 C 210.5 15.9 210.8 15.8 211.3 16.0 C 211.8 16.2 212.1 16.3 212.6 16.9 C 213.1 17.6 213.3 18.6 213.9 19.2 C 214.4 19.8 214.6 19.8 215.1 19.8 C 215.7 19.8 215.9 19.3 216.4 19.1 C 216.9 18.9 217.2 18.9 217.7 18.8 C 218.2 18.7 218.5 18.6 219.0 18.6 C 219.5 18.6 219.8 18.7 220.3 18.7 C 220.8 18.7 221.1 17.3 221.6 17.2 C 222.1 17.0 222.4 17.0 222.9 17.0 C 223.4 17.0 223.6 17.1 224.2 17.2 C 224.7 17.2 224.9 17.3 225.4 17.4 C 226.0 17.5 226.2 17.4 226.7 17.5 C 227.2 17.6 227.5 17.9 228.0 18.2 C 228.5 18.4 228.8 18.5 229.3 18.7 C 229.8 18.9 230.1 19.1 230.6 19.1 C 231.1 19.1 231.4 18.6 231.9 18.6 C 232.4 18.6 232.6 19.1 233.2 19.4 C 233.7 19.8 233.9 20.2 234.4 20.2 C 235.0 20.2 235.2 20.1 235.7 20.1 C 236.3 20.1 236.5 20.3 237.0 20.5 C 237.5 20.7 237.8 20.7 238.3 21.0 C 238.8 21.3 239.1 21.8 239.6 22.1 C 240.1 22.3 240.4 22.3 240.9 22.3 C 241.4 22.3 241.7 22.3 242.2 22.2 C 242.7 22.0 242.9 21.7 243.5 21.7 C 244.0 21.7 244.2 21.7 244.7 21.7 C 245.3 21.7 245.5 21.0 246.0 21.0 C 246.5 21.0 246.8 21.0 247.3 21.0 C 247.8 21.0 248.1 21.1 248.6 21.1 C 249.1 21.1 249.4 20.1 249.9 20.1 C 250.4 20.1 250.7 20.6 251.2 20.8 C 251.7 21.0 252.0 20.9 252.5 21.2 C 253.0 21.5 253.2 21.9 253.8 22.3 C 254.3 22.7 254.5 22.9 255.0 23.2 C 255.6 23.5 255.8 23.7 256.3 23.7 C 256.8 23.7 257.1 23.4 257.6 23.3 C 258.1 23.1 258.4 23.0 258.9 23.0 C 259.4 23.0 259.7 23.2 260.2 23.2 C 260.7 23.2 261.0 21.4 261.5 21.4 C 262.0 21.4 262.2 21.6 262.8 21.8 C 263.3 22.0 263.5 22.3 264.0 22.4 C 264.6 22.6 264.8 22.4 265.3 22.7 C 265.8 22.9 266.1 23.6 266.6 24.0 C 267.1 24.5 267.4 24.6 267.9 25.0 C 268.4 25.5 268.7 26.1 269.2 26.1 C 269.7 26.1 270.0 26.1 270.5 26.1 C 271.0 26.1 271.3 26.0 271.8 26.0 C 272.3 26.0 272.5 26.5 273.1 26.7 C 273.6 26.9 273.8 26.7 274.3 27.0 C 274.9 27.3 275.1 27.7 275.6 28.1 C 276.1 28.5 276.4 29.0 276.9 29.1 C 277.4 29.2 277.7 29.1 278.2 29.2 C 278.7 29.3 279.0 30.4 279.5 30.4 C 280.0 30.4 280.3 30.4 280.8 30.3 C 281.3 30.2 281.5 29.7 282.1 29.5 C 282.6 29.3 282.8 29.5 283.4 29.3 C 283.9 29.0 284.1 27.7 284.6 27.7 C 285.2 27.7 285.4 28.2 285.9 28.6 C 286.4 29.0 286.7 29.4 287.2 29.6 C 287.7 29.9 288.0 29.9 288.5 29.9 C 289.0 29.9 289.3 29.8 289.8 29.7 C 290.3 29.6 290.6 29.3 291.1 29.3 C 291.6 29.3 291.8 30.4 292.4 30.4 C 292.9 30.4 293.1 29.1 293.6 29.1 C 294.2 29.1 294.4 29.1 294.9 29.1 C 295.4 29.2 295.7 29.5 296.2 30.1 C 296.7 30.7 297.0 31.5 297.5 32.1 C 298.0 32.8 298.3 32.9 298.8 33.4 C 299.3 33.9 299.6 34.5 300.1 34.8 C 300.6 35.0 300.9 34.8 301.4 35.0 C 301.9 35.2 302.1 35.7 302.7 35.7 C 303.2 35.7 303.4 35.6 303.9 35.6 C 304.5 35.6 304.7 35.8 305.2 36.0 C 305.7 36.2 306.0 36.6 306.5 36.6 C 307.0 36.6 307.3 36.6 307.8 36.3 C 308.3 36.1 308.6 35.3 309.1 34.9 C 309.6 34.5 309.9 34.3 310.4 34.3 C 310.9 34.3 311.1 34.3 311.7 34.6 C 312.2 34.8 312.4 35.6 312.9 35.6 C 313.5 35.6 313.7 35.5 314.2 35.4 C 314.8 35.2 315.0 35.1 315.5 34.9 C 316.0 34.8 316.3 34.6 316.8 34.6 C 317.3 34.6 317.6 34.6 318.1 34.7 C 318.6 34.9 318.9 35.2 319.4 35.5 C 319.9 35.7 320.2 36.0 320.7 36.1 C 321.2 36.1 321.4 36.1 322.0 36.1 C 322.5 36.1 322.7 36.6 323.2 36.6 C 323.8 36.6 324.0 36.3 324.5 36.0 C 325.0 35.7 325.3 35.7 325.8 35.2 C 326.3 34.8 326.6 34.6 327.1 33.7 C 327.6 32.8 327.9 30.9 328.4 30.6 C 328.9 30.3 329.2 30.4 329.7 30.3 C 330.2 30.1 330.5 30.2 331.0 29.7 C 331.5 29.3 331.7 28.7 332.3 27.9 C 332.8 27.1 333.0 25.6 333.5 25.6 C 334.1 25.6 334.3 26.3 334.8 27.1 C 335.3 27.9 335.6 29.6 336.1 29.6 C 336.6 29.6 336.9 26.7 337.4 25.1 C 337.9 23.5 338.2 21.8 338.7 21.7 C 339.2 21.5 339.5 21.7 340.0 21.5 C 340.5 21.4 340.7 18.1 341.3 16.9 C 341.8 15.7 342.0 15.6 342.5 15.6 C 343.1 15.6 343.3 15.7 343.8 15.7 C 344.3 15.7 344.6 14.7 345.1 14.3 C 345.6 14.0 345.9 13.8 346.4 13.8 C 346.9 13.8 347.2 16.6 347.7 16.6 C 348.2 16.6 348.5 15.0 349.0 15.0 C 349.5 15.0 349.8 16.3 350.3 18.4 C 350.8 20.5 351.0 25.6 351.6 25.6 C 352.1 25.6 352.3 25.0 352.8 25.0 C 353.4 25.0 353.6 25.2 354.1 25.2 C 354.6 25.2 354.9 23.2 355.4 22.1 C 355.9 20.9 356.2 20.3 356.7 19.4 C 357.2 18.5 357.5 17.4 358.0 17.4 C 358.5 17.4 358.8 18.0 359.3 18.0 C 359.8 18.0 360.0 16.5 360.6 16.5 C 361.1 16.5 361.3 16.7 361.9 16.7 C 362.4 16.7 362.6 14.9 363.1 14.9 C 363.7 14.9 363.9 15.2 364.4 15.2 C 364.9 15.2 365.2 14.0 365.7 14.0 C 366.2 14.0 366.5 14.6 367.0 15.8 C 367.5 17.0 367.8 19.1 368.3 20.2 C 368.8 21.3 369.1 21.4 369.6 21.4 C 370.1 21.4 370.3 20.5 370.9 20.1 C 371.4 19.7 371.6 19.4 372.1 19.3 C 372.7 19.3 372.9 19.3 373.4 19.3 C 373.9 19.2 374.2 17.9 374.7 17.9 C 375.2 17.9 375.5 18.4 376.0 19.0 C 376.5 19.6 376.8 20.1 377.3 20.7 C 377.8 21.3 378.1 21.5 378.6 22.1 C 379.1 22.6 379.4 22.9 379.9 23.5 C 380.4 24.1 380.6 24.5 381.2 25.0 C 381.7 25.5 381.9 26.1 382.4 26.1 C 383.0 26.1 383.2 25.5 383.7 25.2 C 384.2 24.8 384.5 24.3 385.0 24.3 C 385.5 24.3 385.8 24.7 386.3 24.9 C 386.8 25.1 387.1 25.4 387.6 25.4 C 388.1 25.4 388.4 24.6 388.9 24.6 C 389.4 24.6 389.6 25.1 390.2 25.5 C 390.7 25.8 390.9 26.4 391.5 26.4 C 392.0 26.4 392.2 26.1 392.7 26.1 C 393.3 26.1 393.5 27.5 394.0 27.5 C 394.5 27.5 394.8 26.4 395.3 26.4 C 395.8 26.4 396.1 26.5 396.6 26.7 C 397.1 26.8 397.4 27.1 397.9 27.1 C 398.4 27.1 398.7 26.9 399.2 26.9 C 399.7 26.9 399.9 27.9 400.5 28.5 C 401.0 29.0 401.2 29.6 401.7 29.7 C 402.3 29.8 402.5 29.8 403.0 29.8 C 403.5 29.8 403.8 29.0 404.3 29.0 C 404.8 29.0 405.1 29.5 405.6 29.9 C 406.1 30.2 406.4 30.6 406.9 30.9 C 407.4 31.3 407.7 31.6 408.2 31.6 C 408.7 31.6 409.0 30.3 409.5 30.3 C 410.0 30.3 410.2 30.3 410.8 30.5 C 411.3 30.7 411.5 31.3 412.0 31.3 C 412.6 31.3 412.8 31.1 413.3 31.1 C 413.8 31.1 414.1 31.5 414.6 31.6 C 415.1 31.7 415.4 31.7 415.9 31.7 C 416.4 31.7 416.7 30.6 417.2 29.9 C 417.7 29.2 418.0 28.8 418.5 28.3 C 419.0 27.8 419.2 27.3 419.8 27.3 C 420.3 27.3 420.5 27.3 421.0 27.4 C 421.6 27.5 421.8 27.5 422.3 27.7 C 422.9 27.9 423.1 28.3 423.6 28.3 C 424.1 28.3 424.4 27.1 424.9 26.5 C 425.4 25.9 425.7 25.7 426.2 25.2 C 426.7 24.7 427.0 24.4 427.5 23.9 C 428.0 23.5 428.3 23.3 428.8 22.9 C 429.3 22.6 429.5 22.4 430.1 22.2 C 430.6 22.0 430.8 21.9 431.3 21.9 C 431.9 21.9 432.1 22.2 432.6 22.3 C 433.1 22.4 433.4 22.6 433.9 22.6 C 434.4 22.6 434.7 22.6 435.2 22.6 C 435.7 22.6 436.0 20.8 436.5 20.8 C 437.0 20.8 437.3 21.5 437.8 21.5 C 438.3 21.5 438.6 20.8 439.1 20.8 C 439.6 20.8 439.8 22.1 440.4 22.1 C 440.9 22.1 441.1 21.0 441.6 20.5 C 442.2 20.0 442.4 20.4 442.9 19.6 C 443.4 18.8 443.7 17.6 444.2 16.5 C 444.7 15.4 445.0 14.8 445.5 14.0 C 446.0 13.2 446.3 12.9 446.8 12.4 C 447.3 11.9 447.6 11.9 448.1 11.5 C 448.6 11.1 448.8 10.9 449.4 10.4 C 449.9 9.9 450.1 8.9 450.6 8.9 C 451.2 8.9 451.4 11.7 451.9 11.7 C 452.4 11.7 452.7 11.7 453.2 11.7 C 453.7 11.7 454.0 11.7 454.5 12.0 C 455.0 12.2 455.3 13.6 455.8 14.3 C 456.3 15.1 456.6 15.2 457.1 15.7 C 457.6 16.1 457.9 16.2 458.4 16.6 C 458.9 16.9 459.1 17.1 459.7 17.7 C 460.2 18.2 460.4 19.1 460.9 19.1 C 461.5 19.1 461.7 17.3 462.2 16.7 C 462.7 16.0 463.0 16.2 463.5 15.8 C 464.0 15.5 464.3 14.9 464.8 14.9 C 465.3 14.9 465.6 15.6 466.1 15.6 C 466.6 15.6 466.9 15.2 467.4 15.2 C 467.9 15.2 468.1 16.5 468.7 17.5 C 469.2 18.4 469.4 19.0 470.0 19.9 C 470.5 20.9 470.7 21.4 471.2 22.2 C 471.8 23.1 472.0 23.5 472.5 24.0 C 473.0 24.5 473.3 24.7 473.8 24.7 C 474.3 24.7 474.6 24.4 475.1 24.4 C 475.6 24.3 475.9 24.3 476.4 24.3 C 476.9 24.3 477.2 25.5 477.7 25.5 C 478.2 25.5 478.4 23.9 479.0 23.2 C 479.5 22.5 479.7 22.6 480.2 22.1 C 480.8 21.6 481.0 21.2 481.5 20.5 C 482.0 19.9 482.3 18.9 482.8 18.9 C 483.3 18.9 483.6 19.3 484.1 19.5 C 484.6 19.7 484.9 19.7 485.4 19.7 C 485.9 19.7 486.2 18.4 486.7 18.4 C 487.2 18.4 487.5 19.4 488.0 19.4 C 488.5 19.4 488.7 18.6 489.3 18.6 C 489.8 18.6 490.0 18.6 490.5 18.7 C 491.1 18.8 491.3 20.2 491.8 21.0 C 492.3 21.8 492.6 22.4 493.1 22.7 C 493.6 23.0 493.9 23.0 494.4 23.0 C 494.9 23.0 495.2 22.5 495.7 22.3 C 496.2 22.1 496.5 22.0 497.0 22.0 C 497.5 22.0 497.7 22.7 498.3 23.2 C 498.8 23.6 499.0 24.1 499.5 24.2 C 500.1 24.3 500.3 24.2 500.8 24.3 C 501.4 24.4 501.6 24.8 502.1 25.2 C 502.6 25.5 502.9 26.1 503.4 26.1 C 503.9 26.1 504.2 26.1 504.7 26.1 C 505.2 26.1 505.5 26.7 506.0 27.2 C 506.5 27.6 506.8 28.2 507.3 28.2 C 507.8 28.2 508.0 28.1 508.6 28.1 C 509.1 28.1 509.3 30.0 509.8 30.0 C 510.4 30.0 510.6 29.7 511.1 29.2 C 511.5 28.9 512 27.8 512 27.8" stroke="#4572A7" stroke-width="1"  stroke-linejoin="round" stroke-linecap="round"></path></g><g class="highcharts-markers" visibility="visible"  transform="translate(24,331) scale(1 1)" clip-path="url(#highcharts-4)"></g></g><g class="highcharts-navigator" ><rect fill="rgb(128,179,236)" fill-opacity="0.3" style="cursor:ew-resize ;" x="519" y="331" width="17" height="40"></rect><path fill="none" stroke="#b2b1b6" stroke-width="1" d="M 10 331.5 L 518.5 331.5 518.5 385.5 L 535.5 385.5 L 535.5 331.5 550 331.5 M 519.5 331.5 L 535.5 331.5"></path></g><g class="highcharts-navigator-handle-right" style="cursor:ew-resize;"  transform="translate(536,343)"><rect x="-4.5" y="0.5" width="8" height="15" strokeWidth="1" fill="#ebe7e8" stroke="#b2b1b6" stroke-width="1"></rect><path fill="#ebe7e8" d="M -1.5 4 L -1.5 12 M 0.5 4 L 0.5 12" stroke="#b2b1b6" stroke-width="1"></path></g><text x="292" text-anchor="middle" class="highcharts-title"  style="color:#333333;font-size:16px;fill:#333333;width:520px;" y="22"><tspan>USD to EUR exchange rate</tspan></text><g class="highcharts-navigator-handle-left" style="cursor:ew-resize;"  transform="translate(519,343)"><rect x="-4.5" y="0.5" width="8" height="15" strokeWidth="1" fill="#ebe7e8" stroke="#b2b1b6" stroke-width="1"></rect><path fill="#ebe7e8" d="M -1.5 4 L -1.5 12 M 0.5 4 L 0.5 12" stroke="#b2b1b6" stroke-width="1"></path></g><g class="highcharts-axis-labels highcharts-xaxis-labels" ><text x="82" style="color:#606060;cursor:default;font-size:11px;fill:#606060;" text-anchor="middle" transform="translate(0,0)" y="304" opacity="1"><tspan>21. Feb</tspan></text><text x="166" style="color:#606060;cursor:default;font-size:11px;fill:#606060;" text-anchor="middle" transform="translate(0,0)" y="304" opacity="1"><tspan>7. Mar</tspan></text><text x="249.9" style="color:#606060;cursor:default;font-size:11px;fill:#606060;" text-anchor="middle" transform="translate(0,0)" y="304" opacity="1"><tspan>21. Mar</tspan></text><text x="334" style="color:#606060;cursor:default;font-size:11px;fill:#606060;" text-anchor="middle" transform="translate(0,0)" y="304" opacity="1"><tspan>4. Apr</tspan></text><text x="418" style="color:#606060;cursor:default;font-size:11px;fill:#606060;" text-anchor="middle" transform="translate(0,0)" y="304" opacity="1"><tspan>18. Apr</tspan></text><text x="501.9" style="color:#606060;cursor:default;font-size:11px;fill:#606060;" text-anchor="middle" transform="translate(0,0)" y="304" opacity="1"><tspan>2. May</tspan></text></g><g class="highcharts-axis-labels highcharts-xaxis-labels" ><text x="45.2" style="color:#888;cursor:default;font-size:11px;fill:#888;width:131px;text-overflow:clip;" text-anchor="start" transform="translate(0,0)" y="367" opacity="1">2004</text><text x="179.5" style="color:#888;cursor:default;font-size:11px;fill:#888;width:131px;text-overflow:clip;" text-anchor="start" transform="translate(0,0)" y="367" opacity="1">2006</text><text x="313.7" style="color:#888;cursor:default;font-size:11px;fill:#888;width:131px;text-overflow:clip;" text-anchor="start" transform="translate(0,0)" y="367" opacity="1">2008</text><text x="448.1" style="color:#888;cursor:default;font-size:11px;fill:#888;width:131px;text-overflow:clip;" text-anchor="start" transform="translate(0,0)" y="367" opacity="1">2010</text></g><g class="highcharts-axis-labels highcharts-yaxis-labels" ><text x="550" style="color:#606060;cursor:default;font-size:11px;fill:#606060;width:183px;text-overflow:clip;" text-anchor="end" transform="translate(0,0)" y="283" opacity="1">0.6</text><text x="550" style="color:#606060;cursor:default;font-size:11px;fill:#606060;width:183px;text-overflow:clip;" text-anchor="end" transform="translate(0,0)" y="231" opacity="1">0.6</text><text x="550" style="color:#606060;cursor:default;font-size:11px;fill:#606060;width:183px;text-overflow:clip;" text-anchor="end" transform="translate(0,0)" y="180" opacity="1">0.7</text><text x="550" style="color:#606060;cursor:default;font-size:11px;fill:#606060;width:183px;text-overflow:clip;" text-anchor="end" transform="translate(0,0)" y="129" opacity="1">0.7</text><text x="0" style="color:#606060;cursor:default;font-size:11px;fill:#606060;width:183px;text-overflow:clip;" text-anchor="end" transform="translate(0,0)" y="-9999">0.7</text></g><g class="highcharts-axis-labels highcharts-yaxis-labels" ></g><g class="highcharts-tooltip"  style="cursor:default;padding:0;white-space:nowrap;" transform="translate(0,-9999)"><path fill="none" d="M 3 0 L 13 0 C 16 0 16 0 16 3 L 16 13 C 16 16 16 16 13 16 L 3 16 C 0 16 0 16 0 13 L 0 3 C 0 0 0 0 3 0"  stroke="black" stroke-opacity="0.0" stroke-width="5" transform="translate(1, 1)"></path><path fill="none" d="M 3 0 L 13 0 C 16 0 16 0 16 3 L 16 13 C 16 16 16 16 13 16 L 3 16 C 0 16 0 16 0 13 L 0 3 C 0 0 0 0 3 0"  stroke="black" stroke-opacity="0.0" stroke-width="3" transform="translate(1, 1)"></path><path fill="none" d="M 3 0 L 13 0 C 16 0 16 0 16 3 L 16 13 C 16 16 16 16 13 16 L 3 16 C 0 16 0 16 0 13 L 0 3 C 0 0 0 0 3 0"  stroke="black" stroke-opacity="0.1" stroke-width="1" transform="translate(1, 1)"></path><path fill="rgb(249, 249, 249)" fill-opacity=" .85" d="M 3 0 L 13 0 C 16 0 16 0 16 3 L 16 13 C 16 16 16 16 13 16 L 3 16 C 0 16 0 16 0 13 L 0 3 C 0 0 0 0 3 0"></path><text x="8"  style="font-size:12px;color:#333333;fill:#333333;" y="20"></text></g></svg>