<svg version="1.1" style="font-family:&quot;lucida grande&quot;, &quot;lucida sans unicode&quot;, arial, helvetica, sans-serif;font-size:12px;" xmlns="http://www.w3.org/2000/svg" width="584" height="400" viewBox="0 0 584 400"><desc>Created with Highstock 2.1.0</desc><defs><clipPath id="highcharts-1"><rect x="0" y="0" width="564" height="192"></rect></clipPath><clipPath id="highcharts-2"><rect x="-99" y="-93" width="663" height="400"></rect></clipPath><clipPath id="highcharts-3"><rect x="0" y="0" width="564" height="192"></rect></clipPath><linearGradient x1="0" y1="0" x2="0" y2="1" id="highcharts-4"><stop offset="0" stop-color="#7cb5ec" stop-opacity="1"></stop><stop offset="1" stop-color="rgb(124,181,236)" stop-opacity="0"></stop></linearGradient><clipPath id="highcharts-5"><rect x="-99" y="-93" width="663" height="400"></rect></clipPath><clipPath id="highcharts-6"><rect x="0" y="0" width="564" height="40"></rect></clipPath></defs><rect x="0" y="0" width="584" height="400" strokeWidth="0" fill="#FFFFFF" class=" highcharts-background"></rect><g class="highcharts-scrollbar" transform="translate(10,372)"><rect x="0" y="-0.5" fill="#eeeeee" stroke="#eeeeee" stroke-width="1" rx="0" ry="0" height="14" width="564"></rect><rect y="-0.5" height="14" fill="#bfc8d1" stroke="#bfc8d1" stroke-width="1" rx="0" ry="0" x="486.5" width="63"></rect><path fill="none" stroke="#666" stroke-width="1" visibility="visible" d="M 514.5 3.5 L 514.5 9.3 M 517.5 3.5 L 517.5 9.3 M 520.5 3.5 L 520.5 9.3"></path><g><rect x="-0.5" y="-0.5" width="14" height="14" strokeWidth="1" stroke="#bbb" stroke-width="1" fill="#ebe7e8"></rect><path fill="#666" d="M 8 4 L 8 10 5 7"></path></g><g transform="translate(550,0)"><rect x="-0.5" y="-0.5" width="14" height="14" strokeWidth="1" stroke="#bbb" stroke-width="1" fill="#ebe7e8"></rect><path fill="#666" d="M 6 4 L 6 10 9 7"></path></g></g><g class="highcharts-range-selector-buttons"><text x="10" y="73" style="color:#666;fill:#666;">Zoom</text><g class="highcharts-button"  states="[object Object]" style="cursor:pointer;text-align:center;" transform="translate(46,58)"><rect x="0" y="0" width="32" height="22" strokeWidth="0" fill="#f7f7f7" rx="0" ry="0"></rect><text x="9"  style="font-weight:normal;color:#444;fill:#444;" y="14">1h</text></g><g class="highcharts-button"  states="[object Object]" style="cursor:pointer;text-align:center;" transform="translate(83,58)"><rect x="0" y="0" width="32" height="22" strokeWidth="0" fill="#e7f0f9" rx="0" ry="0"></rect><text x="8.5"  style="font-weight:bold;color:black;fill:black;" y="14">1D</text></g><g class="highcharts-button"  states="[object Object]" style="cursor:pointer;text-align:center;" transform="translate(120,58)"><rect x="0" y="0" width="32" height="22" strokeWidth="0" fill="#f7f7f7" rx="0" ry="0"></rect><text x="10"  style="font-weight:normal;color:#444;fill:#444;" y="14">All</text></g></g><g class="highcharts-grid" ></g><g class="highcharts-grid" ><path fill="none" d="M 130.5 331 L 130.5 371" stroke="#EEE" stroke-width="1"  opacity="1"></path><path fill="none" d="M 323.5 331 L 323.5 371" stroke="#EEE" stroke-width="1"  opacity="1"></path><path fill="none" d="M 516.5 331 L 516.5 371" stroke="#EEE" stroke-width="1"  opacity="1"></path></g><g class="highcharts-grid" ><path fill="none" d="M 10 285.5 L 574 285.5" stroke="#D8D8D8" stroke-width="1"  opacity="1"></path><path fill="none" d="M 10 237.5 L 574 237.5" stroke="#D8D8D8" stroke-width="1"  opacity="1"></path><path fill="none" d="M 10 189.5 L 574 189.5" stroke="#D8D8D8" stroke-width="1"  opacity="1"></path><path fill="none" d="M 10 141.5 L 574 141.5" stroke="#D8D8D8" stroke-width="1"  opacity="1"></path><path fill="none" d="M 10 92.5 L 574 92.5" stroke="#D8D8D8" stroke-width="1"  opacity="1"></path></g><g class="highcharts-grid" ></g><g class="highcharts-axis" ><path fill="none" d="M 385.5 285 L 385.5 295" stroke="#C0D0E0" stroke-width="1" opacity="1"></path><path fill="none" d="M 550.5 285 L 550.5 295" stroke="#C0D0E0" stroke-width="1" opacity="1"></path><path fill="none" d="M 10 285.5 L 574 285.5" stroke="#C0D0E0" stroke-width="1"  visibility="visible"></path></g><g class="highcharts-axis" ></g><g class="highcharts-axis" ></g><g class="highcharts-axis" ></g><g class="highcharts-series-group" ><g class="highcharts-series" visibility="visible"  transform="translate(10,93) scale(1 1)" clip-path="url(#highcharts-3)"><path fill="url(#highcharts-4)" d="M -0.3 162.0 L -0.3 162.0 L -0.3 192 L -0.3 192 M 376.3 87.6 L 377.1 85.9 L 377.9 79.1 L 378.7 70.3 L 379.5 70.4 L 380.3 72.5 L 381.0 74.2 L 381.8 73.1 L 382.6 75.0 L 383.4 74.7 L 384.2 76.5 L 385.0 74.4 L 385.7 76.1 L 386.5 75.7 L 387.3 74.7 L 388.1 74.4 L 388.9 76.8 L 389.7 77.4 L 390.4 74.2 L 391.2 72.4 L 392.0 71.5 L 392.8 72.5 L 393.6 72.9 L 394.4 75.2 L 395.1 76.2 L 395.9 74.6 L 396.7 70.4 L 397.5 68.9 L 398.3 65.1 L 399.1 67.0 L 399.8 67.3 L 400.6 67.0 L 401.4 66.9 L 402.2 65.5 L 403.0 66.8 L 403.8 68.2 L 404.5 67.4 L 405.3 68.6 L 406.1 68.6 L 406.9 69.0 L 407.7 67.5 L 408.5 69.5 L 409.2 69.3 L 410.0 70.7 L 410.8 74.9 L 411.6 79.5 L 412.4 73.4 L 413.2 61.4 L 413.9 65.1 L 414.7 73.3 L 415.5 74.4 L 416.3 85.7 L 417.1 81.2 L 417.9 80.2 L 418.6 78.1 L 419.4 79.2 L 420.2 80.5 L 421.0 84.4 L 421.8 84.0 L 422.6 81.2 L 423.3 86.3 L 424.1 87.0 L 424.9 86.4 L 425.7 84.4 L 426.5 79.6 L 427.3 80.3 L 428.0 79.7 L 428.8 76.1 L 429.6 79.3 L 430.4 78.2 L 431.2 77.0 L 432.0 78.5 L 432.7 79.2 L 433.5 83.0 L 434.3 82.6 L 435.1 81.1 L 435.9 79.1 L 436.7 78.1 L 437.4 79.5 L 438.2 80.5 L 439.0 81.1 L 439.8 81.9 L 440.6 79.1 L 441.4 76.6 L 442.1 78.3 L 442.9 77.1 L 443.7 78.0 L 444.5 79.4 L 445.3 77.2 L 446.1 77.4 L 446.8 78.8 L 447.6 78.8 L 448.4 77.0 L 449.2 76.8 L 450.0 78.8 L 450.8 75.8 L 451.5 77.8 L 452.3 80.9 L 453.1 79.7 L 453.9 79.2 L 454.7 78.5 L 455.5 81.3 L 456.2 85.9 L 457.0 83.6 L 457.8 86.7 L 458.6 87.2 L 459.4 87.7 L 460.2 87.6 L 460.9 89.6 L 461.7 87.9 L 462.5 87.5 L 463.3 87.2 L 464.1 87.5 L 464.9 86.3 L 465.6 84.1 L 466.4 85.1 L 467.2 84.6 L 468.0 83.8 L 468.8 83.0 L 469.6 84.1 L 470.3 84.6 L 471.1 85.4 L 471.9 85.9 L 472.7 86.5 L 473.5 85.1 L 474.3 83.7 L 475.0 82.8 L 475.8 84.3 L 476.6 85.1 L 477.4 84.2 L 478.2 83.4 L 479.0 81.3 L 479.7 79.9 L 480.5 80.2 L 481.3 81.4 L 482.1 81.1 L 482.9 77.7 L 483.7 76.8 L 484.4 75.7 L 485.2 75.2 L 486.0 73.2 L 486.8 72.8 L 487.6 73.2 L 488.4 72.6 L 489.1 73.8 L 489.9 73.8 L 490.7 75.7 L 491.5 74.7 L 492.3 76.6 L 493.1 77.3 L 493.8 75.1 L 494.6 74.0 L 495.4 72.9 L 496.2 71.4 L 497.0 69.7 L 497.8 68.9 L 498.5 69.5 L 499.3 68.4 L 500.1 67.0 L 500.9 66.5 L 501.7 67.8 L 502.5 67.5 L 503.2 67.6 L 504.0 67.8 L 504.8 69.0 L 505.6 70.2 L 506.4 68.8 L 507.2 67.9 L 507.9 68.2 L 508.7 68.8 L 509.5 69.3 L 510.3 68.5 L 511.1 66.8 L 511.9 64.5 L 512.6 63.0 L 513.4 64.0 L 514.2 64.0 L 515.0 62.7 L 515.8 59.1 L 516.6 56.2 L 517.3 57.1 L 518.1 55.1 L 518.9 55.8 L 519.7 54.0 L 520.5 52.7 L 521.3 53.7 L 522.0 56.1 L 522.8 57.4 L 523.6 58.3 L 524.4 54.7 L 525.2 53.4 L 526.0 51.7 L 526.7 51.1 L 527.5 52.1 L 528.3 52.0 L 529.1 52.7 L 529.9 53.7 L 530.7 54.1 L 531.4 52.4 L 532.2 52.1 L 533.0 51.6 L 533.8 50.2 L 534.6 50.6 L 535.4 50.4 L 536.1 49.5 L 536.9 48.9 L 537.7 48.8 L 538.5 49.2 L 539.3 49.0 L 540.1 46.7 L 540.8 46.9 L 541.6 51.0 L 542.4 54.0 L 543.2 51.1 L 544.0 51.2 L 544.8 55.1 L 545.5 55.6 L 546.3 54.3 L 547.1 56.8 L 547.9 57.2 L 548.7 54.1 L 549.5 53.1 L 550.2 53.0 L 551.0 51.5 L 551.8 48.1 L 552.6 45.3 L 553.4 43.7 L 554.2 42.1 L 554.9 43.9 L 555.7 44.5 L 556.5 47.3 L 557.3 46.9 L 558.1 46.7 L 558.9 45.6 L 559.6 44.8 L 560.4 47.1 L 561.2 45.8 L 562.0 43.7 L 562.8 35.8 L 563.6 30.5 L 563.6 192 L 376.3 192" ></path><path fill="none" d="M 376.3 87.6 L 377.1 85.9 L 377.9 79.1 L 378.7 70.3 L 379.5 70.4 L 380.3 72.5 L 381.0 74.2 L 381.8 73.1 L 382.6 75.0 L 383.4 74.7 L 384.2 76.5 L 385.0 74.4 L 385.7 76.1 L 386.5 75.7 L 387.3 74.7 L 388.1 74.4 L 388.9 76.8 L 389.7 77.4 L 390.4 74.2 L 391.2 72.4 L 392.0 71.5 L 392.8 72.5 L 393.6 72.9 L 394.4 75.2 L 395.1 76.2 L 395.9 74.6 L 396.7 70.4 L 397.5 68.9 L 398.3 65.1 L 399.1 67.0 L 399.8 67.3 L 400.6 67.0 L 401.4 66.9 L 402.2 65.5 L 403.0 66.8 L 403.8 68.2 L 404.5 67.4 L 405.3 68.6 L 406.1 68.6 L 406.9 69.0 L 407.7 67.5 L 408.5 69.5 L 409.2 69.3 L 410.0 70.7 L 410.8 74.9 L 411.6 79.5 L 412.4 73.4 L 413.2 61.4 L 413.9 65.1 L 414.7 73.3 L 415.5 74.4 L 416.3 85.7 L 417.1 81.2 L 417.9 80.2 L 418.6 78.1 L 419.4 79.2 L 420.2 80.5 L 421.0 84.4 L 421.8 84.0 L 422.6 81.2 L 423.3 86.3 L 424.1 87.0 L 424.9 86.4 L 425.7 84.4 L 426.5 79.6 L 427.3 80.3 L 428.0 79.7 L 428.8 76.1 L 429.6 79.3 L 430.4 78.2 L 431.2 77.0 L 432.0 78.5 L 432.7 79.2 L 433.5 83.0 L 434.3 82.6 L 435.1 81.1 L 435.9 79.1 L 436.7 78.1 L 437.4 79.5 L 438.2 80.5 L 439.0 81.1 L 439.8 81.9 L 440.6 79.1 L 441.4 76.6 L 442.1 78.3 L 442.9 77.1 L 443.7 78.0 L 444.5 79.4 L 445.3 77.2 L 446.1 77.4 L 446.8 78.8 L 447.6 78.8 L 448.4 77.0 L 449.2 76.8 L 450.0 78.8 L 450.8 75.8 L 451.5 77.8 L 452.3 80.9 L 453.1 79.7 L 453.9 79.2 L 454.7 78.5 L 455.5 81.3 L 456.2 85.9 L 457.0 83.6 L 457.8 86.7 L 458.6 87.2 L 459.4 87.7 L 460.2 87.6 L 460.9 89.6 L 461.7 87.9 L 462.5 87.5 L 463.3 87.2 L 464.1 87.5 L 464.9 86.3 L 465.6 84.1 L 466.4 85.1 L 467.2 84.6 L 468.0 83.8 L 468.8 83.0 L 469.6 84.1 L 470.3 84.6 L 471.1 85.4 L 471.9 85.9 L 472.7 86.5 L 473.5 85.1 L 474.3 83.7 L 475.0 82.8 L 475.8 84.3 L 476.6 85.1 L 477.4 84.2 L 478.2 83.4 L 479.0 81.3 L 479.7 79.9 L 480.5 80.2 L 481.3 81.4 L 482.1 81.1 L 482.9 77.7 L 483.7 76.8 L 484.4 75.7 L 485.2 75.2 L 486.0 73.2 L 486.8 72.8 L 487.6 73.2 L 488.4 72.6 L 489.1 73.8 L 489.9 73.8 L 490.7 75.7 L 491.5 74.7 L 492.3 76.6 L 493.1 77.3 L 493.8 75.1 L 494.6 74.0 L 495.4 72.9 L 496.2 71.4 L 497.0 69.7 L 497.8 68.9 L 498.5 69.5 L 499.3 68.4 L 500.1 67.0 L 500.9 66.5 L 501.7 67.8 L 502.5 67.5 L 503.2 67.6 L 504.0 67.8 L 504.8 69.0 L 505.6 70.2 L 506.4 68.8 L 507.2 67.9 L 507.9 68.2 L 508.7 68.8 L 509.5 69.3 L 510.3 68.5 L 511.1 66.8 L 511.9 64.5 L 512.6 63.0 L 513.4 64.0 L 514.2 64.0 L 515.0 62.7 L 515.8 59.1 L 516.6 56.2 L 517.3 57.1 L 518.1 55.1 L 518.9 55.8 L 519.7 54.0 L 520.5 52.7 L 521.3 53.7 L 522.0 56.1 L 522.8 57.4 L 523.6 58.3 L 524.4 54.7 L 525.2 53.4 L 526.0 51.7 L 526.7 51.1 L 527.5 52.1 L 528.3 52.0 L 529.1 52.7 L 529.9 53.7 L 530.7 54.1 L 531.4 52.4 L 532.2 52.1 L 533.0 51.6 L 533.8 50.2 L 534.6 50.6 L 535.4 50.4 L 536.1 49.5 L 536.9 48.9 L 537.7 48.8 L 538.5 49.2 L 539.3 49.0 L 540.1 46.7 L 540.8 46.9 L 541.6 51.0 L 542.4 54.0 L 543.2 51.1 L 544.0 51.2 L 544.8 55.1 L 545.5 55.6 L 546.3 54.3 L 547.1 56.8 L 547.9 57.2 L 548.7 54.1 L 549.5 53.1 L 550.2 53.0 L 551.0 51.5 L 551.8 48.1 L 552.6 45.3 L 553.4 43.7 L 554.2 42.1 L 554.9 43.9 L 555.7 44.5 L 556.5 47.3 L 557.3 46.9 L 558.1 46.7 L 558.9 45.6 L 559.6 44.8 L 560.4 47.1 L 561.2 45.8 L 562.0 43.7 L 562.8 35.8 L 563.6 30.5" stroke="#7cb5ec" stroke-width="2"  stroke-linejoin="round" stroke-linecap="round"></path><path fill="none" d="M 366.3 87.6 L 376.3 87.6 L 377.1 85.9 L 377.9 79.1 L 378.7 70.3 L 379.5 70.4 L 380.3 72.5 L 381.0 74.2 L 381.8 73.1 L 382.6 75.0 L 383.4 74.7 L 384.2 76.5 L 385.0 74.4 L 385.7 76.1 L 386.5 75.7 L 387.3 74.7 L 388.1 74.4 L 388.9 76.8 L 389.7 77.4 L 390.4 74.2 L 391.2 72.4 L 392.0 71.5 L 392.8 72.5 L 393.6 72.9 L 394.4 75.2 L 395.1 76.2 L 395.9 74.6 L 396.7 70.4 L 397.5 68.9 L 398.3 65.1 L 399.1 67.0 L 399.8 67.3 L 400.6 67.0 L 401.4 66.9 L 402.2 65.5 L 403.0 66.8 L 403.8 68.2 L 404.5 67.4 L 405.3 68.6 L 406.1 68.6 L 406.9 69.0 L 407.7 67.5 L 408.5 69.5 L 409.2 69.3 L 410.0 70.7 L 410.8 74.9 L 411.6 79.5 L 412.4 73.4 L 413.2 61.4 L 413.9 65.1 L 414.7 73.3 L 415.5 74.4 L 416.3 85.7 L 417.1 81.2 L 417.9 80.2 L 418.6 78.1 L 419.4 79.2 L 420.2 80.5 L 421.0 84.4 L 421.8 84.0 L 422.6 81.2 L 423.3 86.3 L 424.1 87.0 L 424.9 86.4 L 425.7 84.4 L 426.5 79.6 L 427.3 80.3 L 428.0 79.7 L 428.8 76.1 L 429.6 79.3 L 430.4 78.2 L 431.2 77.0 L 432.0 78.5 L 432.7 79.2 L 433.5 83.0 L 434.3 82.6 L 435.1 81.1 L 435.9 79.1 L 436.7 78.1 L 437.4 79.5 L 438.2 80.5 L 439.0 81.1 L 439.8 81.9 L 440.6 79.1 L 441.4 76.6 L 442.1 78.3 L 442.9 77.1 L 443.7 78.0 L 444.5 79.4 L 445.3 77.2 L 446.1 77.4 L 446.8 78.8 L 447.6 78.8 L 448.4 77.0 L 449.2 76.8 L 450.0 78.8 L 450.8 75.8 L 451.5 77.8 L 452.3 80.9 L 453.1 79.7 L 453.9 79.2 L 454.7 78.5 L 455.5 81.3 L 456.2 85.9 L 457.0 83.6 L 457.8 86.7 L 458.6 87.2 L 459.4 87.7 L 460.2 87.6 L 460.9 89.6 L 461.7 87.9 L 462.5 87.5 L 463.3 87.2 L 464.1 87.5 L 464.9 86.3 L 465.6 84.1 L 466.4 85.1 L 467.2 84.6 L 468.0 83.8 L 468.8 83.0 L 469.6 84.1 L 470.3 84.6 L 471.1 85.4 L 471.9 85.9 L 472.7 86.5 L 473.5 85.1 L 474.3 83.7 L 475.0 82.8 L 475.8 84.3 L 476.6 85.1 L 477.4 84.2 L 478.2 83.4 L 479.0 81.3 L 479.7 79.9 L 480.5 80.2 L 481.3 81.4 L 482.1 81.1 L 482.9 77.7 L 483.7 76.8 L 484.4 75.7 L 485.2 75.2 L 486.0 73.2 L 486.8 72.8 L 487.6 73.2 L 488.4 72.6 L 489.1 73.8 L 489.9 73.8 L 490.7 75.7 L 491.5 74.7 L 492.3 76.6 L 493.1 77.3 L 493.8 75.1 L 494.6 74.0 L 495.4 72.9 L 496.2 71.4 L 497.0 69.7 L 497.8 68.9 L 498.5 69.5 L 499.3 68.4 L 500.1 67.0 L 500.9 66.5 L 501.7 67.8 L 502.5 67.5 L 503.2 67.6 L 504.0 67.8 L 504.8 69.0 L 505.6 70.2 L 506.4 68.8 L 507.2 67.9 L 507.9 68.2 L 508.7 68.8 L 509.5 69.3 L 510.3 68.5 L 511.1 66.8 L 511.9 64.5 L 512.6 63.0 L 513.4 64.0 L 514.2 64.0 L 515.0 62.7 L 515.8 59.1 L 516.6 56.2 L 517.3 57.1 L 518.1 55.1 L 518.9 55.8 L 519.7 54.0 L 520.5 52.7 L 521.3 53.7 L 522.0 56.1 L 522.8 57.4 L 523.6 58.3 L 524.4 54.7 L 525.2 53.4 L 526.0 51.7 L 526.7 51.1 L 527.5 52.1 L 528.3 52.0 L 529.1 52.7 L 529.9 53.7 L 530.7 54.1 L 531.4 52.4 L 532.2 52.1 L 533.0 51.6 L 533.8 50.2 L 534.6 50.6 L 535.4 50.4 L 536.1 49.5 L 536.9 48.9 L 537.7 48.8 L 538.5 49.2 L 539.3 49.0 L 540.1 46.7 L 540.8 46.9 L 541.6 51.0 L 542.4 54.0 L 543.2 51.1 L 544.0 51.2 L 544.8 55.1 L 545.5 55.6 L 546.3 54.3 L 547.1 56.8 L 547.9 57.2 L 548.7 54.1 L 549.5 53.1 L 550.2 53.0 L 551.0 51.5 L 551.8 48.1 L 552.6 45.3 L 553.4 43.7 L 554.2 42.1 L 554.9 43.9 L 555.7 44.5 L 556.5 47.3 L 557.3 46.9 L 558.1 46.7 L 558.9 45.6 L 559.6 44.8 L 560.4 47.1 L 561.2 45.8 L 562.0 43.7 L 562.8 35.8 L 563.6 30.5 L 573.6 30.5 M -10.3 162.0 L 9.6 162.0" stroke-linejoin="round" visibility="visible" stroke="rgb(192,192,192)" stroke-opacity="0.0" stroke-width="22"  class=" highcharts-tracker" style=""></path></g><g class="highcharts-markers highcharts-tracker" visibility="visible"  transform="translate(10,93) scale(1 1)" clip-path="url(#highcharts-2)" style=""></g><g class="highcharts-series" visibility="visible"  transform="translate(24,331) scale(1 1)" clip-path="url(#highcharts-6)"><path fill="url(#highcharts-4)" d="M 0 35.0 C 0 35.0 0.4 33.6 0.7 33.5 C 0.8 33.4 0.9 33.4 1.1 33.4 C 1.3 33.4 1.4 33.4 1.6 33.3 C 1.7 33.1 1.8 32.2 2.0 32.2 C 2.2 32.2 2.3 32.5 2.4 32.5 C 2.6 32.5 2.7 32.3 2.9 32.3 C 3.1 32.3 3.2 32.9 3.3 33.1 C 3.5 33.3 3.6 33.3 3.8 33.3 C 4.0 33.3 4.1 33.0 4.2 32.7 C 4.4 32.5 4.5 32.1 4.7 32.1 C 4.9 32.1 5.0 32.6 5.1 32.6 C 5.3 32.6 5.4 32.2 5.6 31.8 C 5.8 31.5 5.8 31.4 6.0 30.8 C 6.2 30.3 6.3 29.7 6.5 29.1 C 6.6 28.4 6.7 27.7 6.9 27.7 C 7.1 27.7 7.2 27.7 7.4 27.7 C 7.5 27.7 7.6 28.3 7.8 28.5 C 8.0 28.7 8.1 28.8 8.3 28.8 C 8.4 28.8 8.5 27.8 8.7 27.8 C 8.9 27.8 9.0 28.5 9.1 28.5 C 9.3 28.5 9.4 28.1 9.6 28.1 C 9.8 28.1 9.9 28.1 10.0 28.2 C 10.2 28.4 10.3 28.8 10.5 28.8 C 10.7 28.8 10.8 28.8 10.9 28.8 C 11.1 28.8 11.2 28.8 11.4 28.7 C 11.6 28.6 11.7 28.3 11.8 28.3 C 12.0 28.3 12.1 28.3 12.3 28.4 C 12.5 28.6 12.5 29.2 12.7 29.8 C 12.9 30.4 13.0 30.9 13.2 31.4 C 13.3 31.8 13.4 32.0 13.6 32.0 C 13.8 32.0 13.9 31.6 14.1 31.6 C 14.2 31.6 14.3 32.0 14.5 32.4 C 14.7 32.8 14.8 33.0 15.0 33.5 C 15.1 33.9 15.2 34.6 15.4 34.6 C 15.6 34.6 15.7 33.9 15.8 33.5 C 16.0 33.2 16.1 33.3 16.3 33.0 C 16.5 32.7 16.6 32.1 16.7 32.0 C 16.9 32.0 17.0 32.0 17.2 32.0 C 17.4 32.0 17.5 32.5 17.6 32.8 C 17.8 33.1 17.9 33.4 18.1 33.4 C 18.3 33.4 18.4 33.4 18.5 33.3 C 18.7 33.1 18.8 32.5 19.0 32.5 C 19.2 32.5 19.2 32.5 19.4 32.5 C 19.6 32.5 19.7 33.2 19.9 33.2 C 20.0 33.2 20.1 33.0 20.3 32.8 C 20.5 32.5 20.6 32.2 20.8 32.1 C 20.9 32.0 21.2 32.0 21.2 32.0 L 21.2 40 L 0 40 M 64.5 32.6 C 64.5 32.6 64.8 32.6 65.0 32.6 C 65.2 32.6 65.3 32.6 65.4 32.4 C 65.6 32.3 65.7 31.6 65.9 31.3 C 66.1 31.0 66.1 30.9 66.3 30.9 C 66.5 30.9 66.6 31.1 66.8 31.2 C 67.0 31.3 67.0 31.4 67.2 31.5 C 67.4 31.6 67.5 31.7 67.7 31.8 C 67.8 32.0 67.9 31.9 68.1 32.1 C 68.3 32.4 68.4 32.8 68.6 33.0 C 68.7 33.2 68.8 33.2 69.0 33.2 C 69.2 33.2 69.3 32.1 69.5 32.1 C 69.6 32.1 69.7 32.6 69.9 32.6 C 70.1 32.6 70.2 32.6 70.3 32.6 C 70.5 32.6 70.6 32.7 70.8 32.7 C 71.0 32.8 71.1 32.8 71.2 33.0 C 71.4 33.2 71.5 33.5 71.7 33.8 C 71.9 34.1 72.0 34.1 72.1 34.3 C 72.3 34.5 72.4 34.5 72.6 34.8 C 72.8 35.0 72.8 35.4 73.0 35.6 C 73.2 35.9 73.3 35.8 73.5 36.0 C 73.7 36.2 73.7 36.5 73.9 36.5 C 74.1 36.5 74.2 36.5 74.4 36.5 C 74.5 36.4 74.6 36.4 74.8 36.4 C 75.0 36.4 75.1 36.4 75.3 36.4 C 75.4 36.4 75.5 36.0 75.7 36.0 C 75.9 36.0 76.0 36.6 76.2 36.6 C 76.3 36.6 76.4 36.1 76.6 36.1 C 76.8 36.1 76.9 36.3 77.0 36.3 C 77.2 36.4 77.3 36.3 77.5 36.4 C 77.7 36.4 77.8 36.4 77.9 36.4 C 78.1 36.4 78.2 36.3 78.4 36.2 C 78.6 36.2 78.7 36.0 78.8 36.0 C 79.0 36.0 79.1 36.1 79.3 36.2 C 79.5 36.2 79.5 36.4 79.7 36.4 C 79.9 36.4 80.0 36.2 80.2 35.9 C 80.4 35.6 80.4 35.1 80.6 35.1 C 80.8 35.1 80.9 35.4 81.1 35.4 C 81.2 35.4 81.3 34.9 81.5 34.9 C 81.7 34.9 81.8 35.4 82.0 35.6 C 82.1 35.8 82.2 35.9 82.4 35.9 C 82.6 35.9 82.7 35.9 82.9 35.8 C 83.0 35.8 83.1 35.7 83.3 35.6 C 83.5 35.5 83.6 35.6 83.7 35.4 C 83.9 35.2 84.0 35.0 84.2 34.8 C 84.4 34.6 84.5 34.6 84.6 34.6 C 84.8 34.6 84.9 34.7 85.1 35.1 C 85.3 35.4 85.5 36.4 85.5 36.4 L 85.5 40 L 64.5 40 M 257.5 33.3 C 257.5 33.3 257.8 33.7 258.0 33.7 C 258.1 33.7 258.2 33.7 258.4 33.5 C 258.6 33.3 258.7 32.6 258.9 32.2 C 259.0 31.8 259.1 31.9 259.3 31.6 C 259.5 31.3 259.6 31.0 259.8 30.9 C 259.9 30.7 260.0 30.7 260.2 30.7 C 260.4 30.6 260.5 30.6 260.6 30.6 C 260.8 30.6 260.9 30.6 261.1 30.5 C 261.3 30.4 261.4 30.3 261.5 30.3 C 261.7 30.3 261.8 30.4 262.0 30.4 C 262.2 30.4 262.3 30.3 262.4 29.9 C 262.6 29.5 262.7 29.0 262.9 28.5 C 263.1 28.0 263.1 27.5 263.3 27.5 C 263.5 27.5 263.6 27.5 263.8 27.5 C 263.9 27.6 264.0 27.6 264.2 27.6 C 264.4 27.7 264.5 27.8 264.7 27.9 C 264.8 28.0 264.9 28.2 265.1 28.2 C 265.3 28.2 265.4 28.2 265.6 28.2 C 265.7 28.2 265.8 28.3 266.0 28.3 C 266.2 28.3 266.3 28.1 266.5 28.0 C 266.6 27.8 266.7 27.7 266.9 27.6 C 267.1 27.5 267.2 27.4 267.3 27.3 C 267.5 27.3 267.6 27.3 267.8 27.2 C 268.0 27.2 268.1 26.9 268.2 26.9 C 268.4 26.9 268.5 27.0 268.7 27.1 C 268.9 27.1 269.0 27.1 269.1 27.1 C 269.3 27.1 269.4 27.0 269.6 27.0 C 269.8 27.0 269.8 27.0 270.0 27.0 C 270.2 27.1 270.3 27.2 270.5 27.3 C 270.6 27.4 270.7 27.4 270.9 27.4 C 271.1 27.4 271.2 27.4 271.4 27.4 C 271.5 27.4 271.6 27.0 271.8 27.0 C 272.0 27.0 272.1 27.1 272.3 27.1 C 272.4 27.1 272.5 27.1 272.7 27.1 C 272.9 27.1 273.0 27.1 273.2 27.1 C 273.3 27.2 273.4 27.1 273.6 27.2 C 273.8 27.2 273.9 27.4 274.0 27.4 C 274.2 27.4 274.3 27.3 274.5 27.1 C 274.7 26.9 274.8 26.4 274.9 26.4 C 275.1 26.4 275.2 26.5 275.4 26.6 C 275.6 26.6 275.7 26.6 275.8 26.7 C 276.0 26.7 276.1 27.1 276.3 27.1 C 276.5 27.1 276.5 27.0 276.7 27.0 C 276.9 27.0 277.0 27.1 277.2 27.1 C 277.4 27.1 277.4 27.1 277.6 26.8 C 277.8 26.6 277.9 26.5 278.1 26.1 C 278.2 25.7 278.5 24.9 278.5 24.9 L 278.5 40 L 257.5 40 M 321.8 23.1 C 321.8 23.1 322.1 22.1 322.3 22.0 C 322.5 21.9 322.6 21.9 322.7 21.9 C 322.9 21.9 323.0 22.0 323.2 22.1 C 323.4 22.3 323.5 22.4 323.6 22.5 C 323.8 22.5 323.9 22.5 324.1 22.5 C 324.3 22.5 324.3 22.5 324.5 22.6 C 324.7 22.6 324.8 22.6 325.0 22.6 C 325.1 22.6 325.2 22.6 325.4 22.5 C 325.6 22.5 325.7 21.9 325.9 21.2 C 326.0 20.6 326.1 19.9 326.3 19.4 C 326.5 18.8 326.6 18.6 326.8 18.6 C 326.9 18.6 327.0 19.0 327.2 19.0 C 327.4 19.0 327.5 18.2 327.6 17.9 C 327.8 17.6 327.9 17.5 328.1 17.4 C 328.3 17.3 328.4 17.4 328.5 17.2 C 328.7 17.1 328.8 16.7 329.0 16.7 C 329.2 16.7 329.3 17.1 329.4 17.2 C 329.6 17.3 329.7 17.3 329.9 17.4 C 330.1 17.5 330.2 17.5 330.3 17.6 C 330.5 17.7 330.6 17.8 330.8 17.8 C 331.0 17.8 331.0 17.4 331.2 17.3 C 331.4 17.2 331.5 17.1 331.7 17.0 C 331.8 16.9 331.9 16.8 332.1 16.8 C 332.3 16.8 332.4 17.0 332.6 17.0 C 332.7 17.0 332.8 16.7 333.0 16.7 C 333.2 16.7 333.3 16.8 333.5 16.8 C 333.6 16.9 333.7 16.9 333.9 17.1 C 334.1 17.3 334.2 17.7 334.3 17.9 C 334.5 18.1 334.6 18.2 334.8 18.2 C 335.0 18.2 335.1 18.1 335.2 18.1 C 335.4 18.1 335.5 18.3 335.7 18.3 C 335.9 18.3 336.0 18.3 336.1 18.1 C 336.3 17.9 336.4 17.5 336.6 17.5 C 336.8 17.5 336.9 17.5 337.0 17.5 C 337.2 17.5 337.3 17.4 337.5 17.3 C 337.7 17.1 337.7 16.9 337.9 16.9 C 338.1 16.9 338.2 16.9 338.4 16.9 C 338.5 16.9 338.6 17.1 338.8 17.1 C 339.0 17.1 339.1 17.0 339.3 17.0 C 339.4 17.0 339.5 17.2 339.7 17.2 C 339.9 17.2 340.0 16.9 340.2 16.6 C 340.3 16.3 340.4 15.8 340.6 15.6 C 340.8 15.3 340.9 15.1 341.1 15.1 C 341.2 15.1 341.3 16.0 341.5 16.3 C 341.7 16.7 341.8 16.8 341.9 16.8 C 342.1 16.8 342.2 16.6 342.4 16.5 C 342.6 16.5 342.8 16.5 342.8 16.5 L 342.8 40 L 321.8 40 M 386.2 14.6 C 386.2 14.6 386.4 14.3 386.6 14.2 C 386.8 14.1 386.9 14.0 387.1 13.9 C 387.2 13.8 387.3 13.9 387.5 13.8 C 387.7 13.7 387.8 13.5 388.0 13.3 C 388.1 13.0 388.2 12.7 388.4 12.4 C 388.6 12.2 388.7 12.2 388.8 12.0 C 389.0 11.9 389.1 11.7 389.3 11.7 C 389.5 11.7 389.6 12.1 389.7 12.1 C 389.9 12.1 390.0 11.4 390.2 11.4 C 390.4 11.4 390.5 11.5 390.6 11.5 C 390.8 11.5 390.9 11.5 391.1 11.6 C 391.3 11.7 391.3 11.8 391.5 11.8 C 391.7 11.8 391.8 11.7 392.0 11.7 C 392.2 11.7 392.2 12.9 392.4 12.9 C 392.6 12.9 392.7 12.6 392.9 12.5 C 393.0 12.3 393.1 12.3 393.3 12.3 C 393.5 12.3 393.6 12.3 393.8 12.4 C 393.9 12.4 394.0 12.5 394.2 12.5 C 394.4 12.5 394.5 12.1 394.7 12.0 C 394.8 11.9 394.9 12.0 395.1 11.9 C 395.3 11.8 395.4 11.6 395.5 11.6 C 395.7 11.6 395.8 11.6 396.0 11.7 C 396.2 11.8 396.3 11.8 396.4 12.0 C 396.6 12.1 396.7 12.2 396.9 12.4 C 397.1 12.6 397.2 12.9 397.3 12.9 C 397.5 12.9 397.6 12.6 397.8 12.6 C 398.0 12.6 398.0 12.6 398.2 12.7 C 398.4 12.8 398.5 13.0 398.7 13.0 C 398.9 13.0 398.9 12.9 399.1 12.7 C 399.3 12.6 399.4 12.4 399.6 12.4 C 399.7 12.4 399.8 12.5 400.0 12.5 C 400.2 12.5 400.3 12.2 400.5 12.2 C 400.6 12.2 400.7 12.2 400.9 12.2 C 401.1 12.2 401.2 12.2 401.4 12.2 C 401.5 12.3 401.6 12.8 401.8 12.8 C 402.0 12.8 402.1 12.7 402.2 12.7 C 402.4 12.7 402.5 12.8 402.7 13.0 C 402.9 13.2 403.0 13.7 403.1 13.7 C 403.3 13.7 403.4 13.6 403.6 13.6 C 403.8 13.6 403.9 14.2 404.0 14.6 C 404.2 15.0 404.3 15.3 404.5 15.6 C 404.7 15.9 404.8 16.0 404.9 16.0 C 405.1 16.0 405.2 15.6 405.4 15.4 C 405.6 15.2 405.6 15.1 405.8 14.9 C 406.0 14.8 406.1 14.5 406.3 14.5 C 406.4 14.5 406.5 14.8 406.7 14.9 C 406.9 15.1 407.2 15.3 407.2 15.3 L 407.2 40 L 386.2 40 M 450.5 16.0 C 450.5 16.0 450.8 16.1 450.9 16.1 C 451.1 16.1 451.2 15.3 451.4 14.9 C 451.6 14.5 451.7 14.3 451.8 14.1 C 452.0 13.8 452.1 13.5 452.3 13.5 C 452.5 13.5 452.5 13.6 452.7 13.6 C 452.9 13.6 453.0 13.6 453.2 13.5 C 453.4 13.5 453.4 13.4 453.6 13.4 C 453.8 13.4 453.9 13.5 454.1 13.6 C 454.2 13.8 454.3 14.0 454.5 14.1 C 454.7 14.2 454.8 14.2 455.0 14.2 C 455.1 14.2 455.2 14.2 455.4 14.1 C 455.6 14.1 455.7 13.8 455.9 13.6 C 456.0 13.4 456.1 13.2 456.3 13.1 C 456.5 12.9 456.6 13.0 456.7 12.9 C 456.9 12.9 457.0 12.7 457.2 12.7 C 457.4 12.7 457.5 12.9 457.6 13.1 C 457.8 13.3 457.9 13.6 458.1 13.6 C 458.3 13.6 458.4 13.6 458.5 13.6 C 458.7 13.6 458.8 13.3 459.0 13.2 C 459.2 13.1 459.2 13.2 459.4 13.1 C 459.6 13.0 459.7 12.8 459.9 12.7 C 460.1 12.5 460.1 12.6 460.3 12.5 C 460.5 12.4 460.6 12.2 460.8 12.2 C 460.9 12.2 461.0 12.3 461.2 12.3 C 461.4 12.4 461.5 12.4 461.7 12.5 C 461.8 12.6 461.9 12.7 462.1 12.8 C 462.3 12.8 462.4 12.8 462.6 12.8 C 462.7 12.8 462.8 12.6 463.0 12.6 C 463.2 12.6 463.3 12.6 463.4 12.6 C 463.6 12.6 463.7 13.1 463.9 13.1 C 464.1 13.1 464.2 13.0 464.3 13.0 C 464.5 13.0 464.6 13.5 464.8 13.5 C 465.0 13.5 465.1 13.2 465.2 13.1 C 465.4 13.1 465.5 13.1 465.7 13.1 C 465.9 13.1 465.9 13.1 466.1 13.2 C 466.3 13.2 466.4 13.3 466.6 13.4 C 466.8 13.4 466.8 13.5 467.0 13.5 C 467.2 13.5 467.3 13.4 467.5 13.3 C 467.6 13.3 467.7 13.3 467.9 13.2 C 468.1 13.1 468.2 13.2 468.4 13.0 C 468.5 12.9 468.6 12.6 468.8 12.4 C 469.0 12.2 469.1 12.2 469.3 12.1 C 469.4 11.9 469.5 11.8 469.7 11.8 C 469.9 11.8 470.0 11.9 470.1 12.0 C 470.3 12.1 470.4 12.4 470.6 12.4 C 470.8 12.4 470.9 12.3 471.0 12.2 C 471.2 12.1 471.5 11.8 471.5 11.8 L 471.5 40 L 450.5 40 M 514.8 5.9 C 514.8 5.9 515.1 5.6 515.3 5.6 C 515.4 5.6 515.5 5.7 515.7 5.7 C 515.9 5.7 516.0 5.7 516.2 5.6 C 516.3 5.6 516.4 5.6 516.6 5.5 C 516.8 5.5 516.9 5.3 517.1 5.2 C 517.2 5.1 517.3 5.1 517.5 5.1 C 517.7 5.1 517.8 5.1 517.9 5.2 C 518.1 5.2 518.2 5.3 518.4 5.3 C 518.6 5.3 518.7 5.3 518.8 5.3 C 519.0 5.3 519.1 5.8 519.3 6.0 C 519.5 6.1 519.6 6.0 519.7 6.1 C 519.9 6.2 520.0 6.3 520.2 6.3 C 520.4 6.3 520.4 5.9 520.6 5.9 C 520.8 5.9 520.9 6.0 521.1 6.0 C 521.3 6.0 521.3 6.0 521.5 6.0 C 521.7 5.9 521.8 6.0 522.0 5.9 C 522.1 5.9 522.2 5.8 522.4 5.8 C 522.6 5.8 522.7 5.8 522.9 5.8 C 523.0 5.9 523.1 5.8 523.3 5.9 C 523.5 5.9 523.6 6.1 523.8 6.2 C 523.9 6.3 524.0 6.5 524.2 6.5 C 524.4 6.5 524.5 6.5 524.6 6.4 C 524.8 6.4 524.9 6.3 525.1 6.3 C 525.3 6.3 525.4 6.4 525.5 6.4 C 525.7 6.4 525.8 6.3 526.0 6.2 C 526.2 6.2 526.3 6.2 526.4 6.1 C 526.6 6.0 526.7 5.9 526.9 5.8 C 527.1 5.7 527.1 5.5 527.3 5.5 C 527.5 5.5 527.6 5.7 527.8 5.7 C 528.0 5.7 528.0 5.6 528.2 5.5 C 528.4 5.4 528.5 5.2 528.7 5.2 C 528.8 5.2 528.9 5.2 529.1 5.2 C 529.3 5.2 529.4 5.2 529.6 5.2 C 529.7 5.2 529.8 5.2 530.0 5.0 C 530.2 4.9 530.3 4.8 530.5 4.7 C 530.6 4.5 530.7 4.3 530.9 4.3 C 531.1 4.3 531.2 4.3 531.3 4.3 C 531.5 4.3 531.6 4.1 531.8 4.1 C 532.0 4.1 532.1 4.1 532.2 4.1 C 532.4 4.1 532.5 4.0 532.7 4.0 C 532.9 3.9 533.0 3.8 533.1 3.8 C 533.3 3.8 533.4 3.9 533.6 4.0 C 533.8 4.1 533.8 4.3 534.0 4.3 C 534.2 4.3 534.3 4.2 534.5 4.1 C 534.7 3.9 534.7 3.5 534.9 3.5 C 535.1 3.5 535.2 3.7 535.4 3.7 C 535.6 3.7 536 3.3 536 3.3 L 536 40 L 514.8 40" ></path><path fill="none" d="M 0 35.0 C 0 35.0 0.4 33.6 0.7 33.5 C 0.8 33.4 0.9 33.4 1.1 33.4 C 1.3 33.4 1.4 33.4 1.6 33.3 C 1.7 33.1 1.8 32.2 2.0 32.2 C 2.2 32.2 2.3 32.5 2.4 32.5 C 2.6 32.5 2.7 32.3 2.9 32.3 C 3.1 32.3 3.2 32.9 3.3 33.1 C 3.5 33.3 3.6 33.3 3.8 33.3 C 4.0 33.3 4.1 33.0 4.2 32.7 C 4.4 32.5 4.5 32.1 4.7 32.1 C 4.9 32.1 5.0 32.6 5.1 32.6 C 5.3 32.6 5.4 32.2 5.6 31.8 C 5.8 31.5 5.8 31.4 6.0 30.8 C 6.2 30.3 6.3 29.7 6.5 29.1 C 6.6 28.4 6.7 27.7 6.9 27.7 C 7.1 27.7 7.2 27.7 7.4 27.7 C 7.5 27.7 7.6 28.3 7.8 28.5 C 8.0 28.7 8.1 28.8 8.3 28.8 C 8.4 28.8 8.5 27.8 8.7 27.8 C 8.9 27.8 9.0 28.5 9.1 28.5 C 9.3 28.5 9.4 28.1 9.6 28.1 C 9.8 28.1 9.9 28.1 10.0 28.2 C 10.2 28.4 10.3 28.8 10.5 28.8 C 10.7 28.8 10.8 28.8 10.9 28.8 C 11.1 28.8 11.2 28.8 11.4 28.7 C 11.6 28.6 11.7 28.3 11.8 28.3 C 12.0 28.3 12.1 28.3 12.3 28.4 C 12.5 28.6 12.5 29.2 12.7 29.8 C 12.9 30.4 13.0 30.9 13.2 31.4 C 13.3 31.8 13.4 32.0 13.6 32.0 C 13.8 32.0 13.9 31.6 14.1 31.6 C 14.2 31.6 14.3 32.0 14.5 32.4 C 14.7 32.8 14.8 33.0 15.0 33.5 C 15.1 33.9 15.2 34.6 15.4 34.6 C 15.6 34.6 15.7 33.9 15.8 33.5 C 16.0 33.2 16.1 33.3 16.3 33.0 C 16.5 32.7 16.6 32.1 16.7 32.0 C 16.9 32.0 17.0 32.0 17.2 32.0 C 17.4 32.0 17.5 32.5 17.6 32.8 C 17.8 33.1 17.9 33.4 18.1 33.4 C 18.3 33.4 18.4 33.4 18.5 33.3 C 18.7 33.1 18.8 32.5 19.0 32.5 C 19.2 32.5 19.2 32.5 19.4 32.5 C 19.6 32.5 19.7 33.2 19.9 33.2 C 20.0 33.2 20.1 33.0 20.3 32.8 C 20.5 32.5 20.6 32.2 20.8 32.1 C 20.9 32.0 21.2 32.0 21.2 32.0 M 64.5 32.6 C 64.5 32.6 64.8 32.6 65.0 32.6 C 65.2 32.6 65.3 32.6 65.4 32.4 C 65.6 32.3 65.7 31.6 65.9 31.3 C 66.1 31.0 66.1 30.9 66.3 30.9 C 66.5 30.9 66.6 31.1 66.8 31.2 C 67.0 31.3 67.0 31.4 67.2 31.5 C 67.4 31.6 67.5 31.7 67.7 31.8 C 67.8 32.0 67.9 31.9 68.1 32.1 C 68.3 32.4 68.4 32.8 68.6 33.0 C 68.7 33.2 68.8 33.2 69.0 33.2 C 69.2 33.2 69.3 32.1 69.5 32.1 C 69.6 32.1 69.7 32.6 69.9 32.6 C 70.1 32.6 70.2 32.6 70.3 32.6 C 70.5 32.6 70.6 32.7 70.8 32.7 C 71.0 32.8 71.1 32.8 71.2 33.0 C 71.4 33.2 71.5 33.5 71.7 33.8 C 71.9 34.1 72.0 34.1 72.1 34.3 C 72.3 34.5 72.4 34.5 72.6 34.8 C 72.8 35.0 72.8 35.4 73.0 35.6 C 73.2 35.9 73.3 35.8 73.5 36.0 C 73.7 36.2 73.7 36.5 73.9 36.5 C 74.1 36.5 74.2 36.5 74.4 36.5 C 74.5 36.4 74.6 36.4 74.8 36.4 C 75.0 36.4 75.1 36.4 75.3 36.4 C 75.4 36.4 75.5 36.0 75.7 36.0 C 75.9 36.0 76.0 36.6 76.2 36.6 C 76.3 36.6 76.4 36.1 76.6 36.1 C 76.8 36.1 76.9 36.3 77.0 36.3 C 77.2 36.4 77.3 36.3 77.5 36.4 C 77.7 36.4 77.8 36.4 77.9 36.4 C 78.1 36.4 78.2 36.3 78.4 36.2 C 78.6 36.2 78.7 36.0 78.8 36.0 C 79.0 36.0 79.1 36.1 79.3 36.2 C 79.5 36.2 79.5 36.4 79.7 36.4 C 79.9 36.4 80.0 36.2 80.2 35.9 C 80.4 35.6 80.4 35.1 80.6 35.1 C 80.8 35.1 80.9 35.4 81.1 35.4 C 81.2 35.4 81.3 34.9 81.5 34.9 C 81.7 34.9 81.8 35.4 82.0 35.6 C 82.1 35.8 82.2 35.9 82.4 35.9 C 82.6 35.9 82.7 35.9 82.9 35.8 C 83.0 35.8 83.1 35.7 83.3 35.6 C 83.5 35.5 83.6 35.6 83.7 35.4 C 83.9 35.2 84.0 35.0 84.2 34.8 C 84.4 34.6 84.5 34.6 84.6 34.6 C 84.8 34.6 84.9 34.7 85.1 35.1 C 85.3 35.4 85.5 36.4 85.5 36.4 M 257.5 33.3 C 257.5 33.3 257.8 33.7 258.0 33.7 C 258.1 33.7 258.2 33.7 258.4 33.5 C 258.6 33.3 258.7 32.6 258.9 32.2 C 259.0 31.8 259.1 31.9 259.3 31.6 C 259.5 31.3 259.6 31.0 259.8 30.9 C 259.9 30.7 260.0 30.7 260.2 30.7 C 260.4 30.6 260.5 30.6 260.6 30.6 C 260.8 30.6 260.9 30.6 261.1 30.5 C 261.3 30.4 261.4 30.3 261.5 30.3 C 261.7 30.3 261.8 30.4 262.0 30.4 C 262.2 30.4 262.3 30.3 262.4 29.9 C 262.6 29.5 262.7 29.0 262.9 28.5 C 263.1 28.0 263.1 27.5 263.3 27.5 C 263.5 27.5 263.6 27.5 263.8 27.5 C 263.9 27.6 264.0 27.6 264.2 27.6 C 264.4 27.7 264.5 27.8 264.7 27.9 C 264.8 28.0 264.9 28.2 265.1 28.2 C 265.3 28.2 265.4 28.2 265.6 28.2 C 265.7 28.2 265.8 28.3 266.0 28.3 C 266.2 28.3 266.3 28.1 266.5 28.0 C 266.6 27.8 266.7 27.7 266.9 27.6 C 267.1 27.5 267.2 27.4 267.3 27.3 C 267.5 27.3 267.6 27.3 267.8 27.2 C 268.0 27.2 268.1 26.9 268.2 26.9 C 268.4 26.9 268.5 27.0 268.7 27.1 C 268.9 27.1 269.0 27.1 269.1 27.1 C 269.3 27.1 269.4 27.0 269.6 27.0 C 269.8 27.0 269.8 27.0 270.0 27.0 C 270.2 27.1 270.3 27.2 270.5 27.3 C 270.6 27.4 270.7 27.4 270.9 27.4 C 271.1 27.4 271.2 27.4 271.4 27.4 C 271.5 27.4 271.6 27.0 271.8 27.0 C 272.0 27.0 272.1 27.1 272.3 27.1 C 272.4 27.1 272.5 27.1 272.7 27.1 C 272.9 27.1 273.0 27.1 273.2 27.1 C 273.3 27.2 273.4 27.1 273.6 27.2 C 273.8 27.2 273.9 27.4 274.0 27.4 C 274.2 27.4 274.3 27.3 274.5 27.1 C 274.7 26.9 274.8 26.4 274.9 26.4 C 275.1 26.4 275.2 26.5 275.4 26.6 C 275.6 26.6 275.7 26.6 275.8 26.7 C 276.0 26.7 276.1 27.1 276.3 27.1 C 276.5 27.1 276.5 27.0 276.7 27.0 C 276.9 27.0 277.0 27.1 277.2 27.1 C 277.4 27.1 277.4 27.1 277.6 26.8 C 277.8 26.6 277.9 26.5 278.1 26.1 C 278.2 25.7 278.5 24.9 278.5 24.9 M 321.8 23.1 C 321.8 23.1 322.1 22.1 322.3 22.0 C 322.5 21.9 322.6 21.9 322.7 21.9 C 322.9 21.9 323.0 22.0 323.2 22.1 C 323.4 22.3 323.5 22.4 323.6 22.5 C 323.8 22.5 323.9 22.5 324.1 22.5 C 324.3 22.5 324.3 22.5 324.5 22.6 C 324.7 22.6 324.8 22.6 325.0 22.6 C 325.1 22.6 325.2 22.6 325.4 22.5 C 325.6 22.5 325.7 21.9 325.9 21.2 C 326.0 20.6 326.1 19.9 326.3 19.4 C 326.5 18.8 326.6 18.6 326.8 18.6 C 326.9 18.6 327.0 19.0 327.2 19.0 C 327.4 19.0 327.5 18.2 327.6 17.9 C 327.8 17.6 327.9 17.5 328.1 17.4 C 328.3 17.3 328.4 17.4 328.5 17.2 C 328.7 17.1 328.8 16.7 329.0 16.7 C 329.2 16.7 329.3 17.1 329.4 17.2 C 329.6 17.3 329.7 17.3 329.9 17.4 C 330.1 17.5 330.2 17.5 330.3 17.6 C 330.5 17.7 330.6 17.8 330.8 17.8 C 331.0 17.8 331.0 17.4 331.2 17.3 C 331.4 17.2 331.5 17.1 331.7 17.0 C 331.8 16.9 331.9 16.8 332.1 16.8 C 332.3 16.8 332.4 17.0 332.6 17.0 C 332.7 17.0 332.8 16.7 333.0 16.7 C 333.2 16.7 333.3 16.8 333.5 16.8 C 333.6 16.9 333.7 16.9 333.9 17.1 C 334.1 17.3 334.2 17.7 334.3 17.9 C 334.5 18.1 334.6 18.2 334.8 18.2 C 335.0 18.2 335.1 18.1 335.2 18.1 C 335.4 18.1 335.5 18.3 335.7 18.3 C 335.9 18.3 336.0 18.3 336.1 18.1 C 336.3 17.9 336.4 17.5 336.6 17.5 C 336.8 17.5 336.9 17.5 337.0 17.5 C 337.2 17.5 337.3 17.4 337.5 17.3 C 337.7 17.1 337.7 16.9 337.9 16.9 C 338.1 16.9 338.2 16.9 338.4 16.9 C 338.5 16.9 338.6 17.1 338.8 17.1 C 339.0 17.1 339.1 17.0 339.3 17.0 C 339.4 17.0 339.5 17.2 339.7 17.2 C 339.9 17.2 340.0 16.9 340.2 16.6 C 340.3 16.3 340.4 15.8 340.6 15.6 C 340.8 15.3 340.9 15.1 341.1 15.1 C 341.2 15.1 341.3 16.0 341.5 16.3 C 341.7 16.7 341.8 16.8 341.9 16.8 C 342.1 16.8 342.2 16.6 342.4 16.5 C 342.6 16.5 342.8 16.5 342.8 16.5 M 386.2 14.6 C 386.2 14.6 386.4 14.3 386.6 14.2 C 386.8 14.1 386.9 14.0 387.1 13.9 C 387.2 13.8 387.3 13.9 387.5 13.8 C 387.7 13.7 387.8 13.5 388.0 13.3 C 388.1 13.0 388.2 12.7 388.4 12.4 C 388.6 12.2 388.7 12.2 388.8 12.0 C 389.0 11.9 389.1 11.7 389.3 11.7 C 389.5 11.7 389.6 12.1 389.7 12.1 C 389.9 12.1 390.0 11.4 390.2 11.4 C 390.4 11.4 390.5 11.5 390.6 11.5 C 390.8 11.5 390.9 11.5 391.1 11.6 C 391.3 11.7 391.3 11.8 391.5 11.8 C 391.7 11.8 391.8 11.7 392.0 11.7 C 392.2 11.7 392.2 12.9 392.4 12.9 C 392.6 12.9 392.7 12.6 392.9 12.5 C 393.0 12.3 393.1 12.3 393.3 12.3 C 393.5 12.3 393.6 12.3 393.8 12.4 C 393.9 12.4 394.0 12.5 394.2 12.5 C 394.4 12.5 394.5 12.1 394.7 12.0 C 394.8 11.9 394.9 12.0 395.1 11.9 C 395.3 11.8 395.4 11.6 395.5 11.6 C 395.7 11.6 395.8 11.6 396.0 11.7 C 396.2 11.8 396.3 11.8 396.4 12.0 C 396.6 12.1 396.7 12.2 396.9 12.4 C 397.1 12.6 397.2 12.9 397.3 12.9 C 397.5 12.9 397.6 12.6 397.8 12.6 C 398.0 12.6 398.0 12.6 398.2 12.7 C 398.4 12.8 398.5 13.0 398.7 13.0 C 398.9 13.0 398.9 12.9 399.1 12.7 C 399.3 12.6 399.4 12.4 399.6 12.4 C 399.7 12.4 399.8 12.5 400.0 12.5 C 400.2 12.5 400.3 12.2 400.5 12.2 C 400.6 12.2 400.7 12.2 400.9 12.2 C 401.1 12.2 401.2 12.2 401.4 12.2 C 401.5 12.3 401.6 12.8 401.8 12.8 C 402.0 12.8 402.1 12.7 402.2 12.7 C 402.4 12.7 402.5 12.8 402.7 13.0 C 402.9 13.2 403.0 13.7 403.1 13.7 C 403.3 13.7 403.4 13.6 403.6 13.6 C 403.8 13.6 403.9 14.2 404.0 14.6 C 404.2 15.0 404.3 15.3 404.5 15.6 C 404.7 15.9 404.8 16.0 404.9 16.0 C 405.1 16.0 405.2 15.6 405.4 15.4 C 405.6 15.2 405.6 15.1 405.8 14.9 C 406.0 14.8 406.1 14.5 406.3 14.5 C 406.4 14.5 406.5 14.8 406.7 14.9 C 406.9 15.1 407.2 15.3 407.2 15.3 M 450.5 16.0 C 450.5 16.0 450.8 16.1 450.9 16.1 C 451.1 16.1 451.2 15.3 451.4 14.9 C 451.6 14.5 451.7 14.3 451.8 14.1 C 452.0 13.8 452.1 13.5 452.3 13.5 C 452.5 13.5 452.5 13.6 452.7 13.6 C 452.9 13.6 453.0 13.6 453.2 13.5 C 453.4 13.5 453.4 13.4 453.6 13.4 C 453.8 13.4 453.9 13.5 454.1 13.6 C 454.2 13.8 454.3 14.0 454.5 14.1 C 454.7 14.2 454.8 14.2 455.0 14.2 C 455.1 14.2 455.2 14.2 455.4 14.1 C 455.6 14.1 455.7 13.8 455.9 13.6 C 456.0 13.4 456.1 13.2 456.3 13.1 C 456.5 12.9 456.6 13.0 456.7 12.9 C 456.9 12.9 457.0 12.7 457.2 12.7 C 457.4 12.7 457.5 12.9 457.6 13.1 C 457.8 13.3 457.9 13.6 458.1 13.6 C 458.3 13.6 458.4 13.6 458.5 13.6 C 458.7 13.6 458.8 13.3 459.0 13.2 C 459.2 13.1 459.2 13.2 459.4 13.1 C 459.6 13.0 459.7 12.8 459.9 12.7 C 460.1 12.5 460.1 12.6 460.3 12.5 C 460.5 12.4 460.6 12.2 460.8 12.2 C 460.9 12.2 461.0 12.3 461.2 12.3 C 461.4 12.4 461.5 12.4 461.7 12.5 C 461.8 12.6 461.9 12.7 462.1 12.8 C 462.3 12.8 462.4 12.8 462.6 12.8 C 462.7 12.8 462.8 12.6 463.0 12.6 C 463.2 12.6 463.3 12.6 463.4 12.6 C 463.6 12.6 463.7 13.1 463.9 13.1 C 464.1 13.1 464.2 13.0 464.3 13.0 C 464.5 13.0 464.6 13.5 464.8 13.5 C 465.0 13.5 465.1 13.2 465.2 13.1 C 465.4 13.1 465.5 13.1 465.7 13.1 C 465.9 13.1 465.9 13.1 466.1 13.2 C 466.3 13.2 466.4 13.3 466.6 13.4 C 466.8 13.4 466.8 13.5 467.0 13.5 C 467.2 13.5 467.3 13.4 467.5 13.3 C 467.6 13.3 467.7 13.3 467.9 13.2 C 468.1 13.1 468.2 13.2 468.4 13.0 C 468.5 12.9 468.6 12.6 468.8 12.4 C 469.0 12.2 469.1 12.2 469.3 12.1 C 469.4 11.9 469.5 11.8 469.7 11.8 C 469.9 11.8 470.0 11.9 470.1 12.0 C 470.3 12.1 470.4 12.4 470.6 12.4 C 470.8 12.4 470.9 12.3 471.0 12.2 C 471.2 12.1 471.5 11.8 471.5 11.8 M 514.8 5.9 C 514.8 5.9 515.1 5.6 515.3 5.6 C 515.4 5.6 515.5 5.7 515.7 5.7 C 515.9 5.7 516.0 5.7 516.2 5.6 C 516.3 5.6 516.4 5.6 516.6 5.5 C 516.8 5.5 516.9 5.3 517.1 5.2 C 517.2 5.1 517.3 5.1 517.5 5.1 C 517.7 5.1 517.8 5.1 517.9 5.2 C 518.1 5.2 518.2 5.3 518.4 5.3 C 518.6 5.3 518.7 5.3 518.8 5.3 C 519.0 5.3 519.1 5.8 519.3 6.0 C 519.5 6.1 519.6 6.0 519.7 6.1 C 519.9 6.2 520.0 6.3 520.2 6.3 C 520.4 6.3 520.4 5.9 520.6 5.9 C 520.8 5.9 520.9 6.0 521.1 6.0 C 521.3 6.0 521.3 6.0 521.5 6.0 C 521.7 5.9 521.8 6.0 522.0 5.9 C 522.1 5.9 522.2 5.8 522.4 5.8 C 522.6 5.8 522.7 5.8 522.9 5.8 C 523.0 5.9 523.1 5.8 523.3 5.9 C 523.5 5.9 523.6 6.1 523.8 6.2 C 523.9 6.3 524.0 6.5 524.2 6.5 C 524.4 6.5 524.5 6.5 524.6 6.4 C 524.8 6.4 524.9 6.3 525.1 6.3 C 525.3 6.3 525.4 6.4 525.5 6.4 C 525.7 6.4 525.8 6.3 526.0 6.2 C 526.2 6.2 526.3 6.2 526.4 6.1 C 526.6 6.0 526.7 5.9 526.9 5.8 C 527.1 5.7 527.1 5.5 527.3 5.5 C 527.5 5.5 527.6 5.7 527.8 5.7 C 528.0 5.7 528.0 5.6 528.2 5.5 C 528.4 5.4 528.5 5.2 528.7 5.2 C 528.8 5.2 528.9 5.2 529.1 5.2 C 529.3 5.2 529.4 5.2 529.6 5.2 C 529.7 5.2 529.8 5.2 530.0 5.0 C 530.2 4.9 530.3 4.8 530.5 4.7 C 530.6 4.5 530.7 4.3 530.9 4.3 C 531.1 4.3 531.2 4.3 531.3 4.3 C 531.5 4.3 531.6 4.1 531.8 4.1 C 532.0 4.1 532.1 4.1 532.2 4.1 C 532.4 4.1 532.5 4.0 532.7 4.0 C 532.9 3.9 533.0 3.8 533.1 3.8 C 533.3 3.8 533.4 3.9 533.6 4.0 C 533.8 4.1 533.8 4.3 534.0 4.3 C 534.2 4.3 534.3 4.2 534.5 4.1 C 534.7 3.9 534.7 3.5 534.9 3.5 C 535.1 3.5 535.2 3.7 535.4 3.7 C 535.6 3.7 536 3.3 536 3.3" stroke="#4572A7" stroke-width="1"  stroke-linejoin="round" stroke-linecap="round"></path></g><g class="highcharts-markers" visibility="visible"  transform="translate(24,331) scale(1 1)" clip-path="url(#highcharts-5)"></g></g><g class="highcharts-navigator" ><rect fill="rgb(128,179,236)" fill-opacity="0.3" style="cursor:ew-resize ;" x="496" y="331" width="64" height="40"></rect><path fill="none" stroke="#b2b1b6" stroke-width="1" d="M 10 331.5 L 495.5 331.5 495.5 385.5 L 559.5 385.5 L 559.5 331.5 574 331.5 M 496.5 331.5 L 559.5 331.5"></path></g><g class="highcharts-navigator-handle-right" style="cursor:ew-resize;"  transform="translate(560,343)"><rect x="-4.5" y="0.5" width="8" height="15" strokeWidth="1" fill="#ebe7e8" stroke="#b2b1b6" stroke-width="1"></rect><path fill="#ebe7e8" d="M -1.5 4 L -1.5 12 M 0.5 4 L 0.5 12" stroke="#b2b1b6" stroke-width="1"></path></g><text x="292" text-anchor="middle" class="highcharts-title"  style="color:#333333;font-size:16px;fill:#333333;width:520px;" y="22"><tspan>AAPL stock price by minute</tspan></text><text x="292" text-anchor="middle" class="highcharts-subtitle"  style="color:#555555;fill:#555555;width:520px;" y="43"><tspan>Using ordinal X axis</tspan></text><g class="highcharts-navigator-handle-left" style="cursor:ew-resize;"  transform="translate(496,343)"><rect x="-4.5" y="0.5" width="8" height="15" strokeWidth="1" fill="#ebe7e8" stroke="#b2b1b6" stroke-width="1"></rect><path fill="#ebe7e8" d="M -1.5 4 L -1.5 12 M 0.5 4 L 0.5 12" stroke="#b2b1b6" stroke-width="1"></path></g><g class="highcharts-axis-labels highcharts-xaxis-labels" ><text x="386.3" style="color:#606060;cursor:default;font-size:11px;fill:#606060;" text-anchor="middle" transform="translate(0,0)" y="304" opacity="1"><tspan>14. Oct</tspan></text><text x="550.8" style="color:#606060;cursor:default;font-size:11px;fill:#606060;" text-anchor="middle" transform="translate(0,0)" y="304" opacity="1">15:00</text></g><g class="highcharts-axis-labels highcharts-xaxis-labels" ><text x="134.2" style="color:#888;cursor:default;font-size:11px;fill:#888;" text-anchor="start" transform="translate(0,0)" y="367" opacity="1"><tspan>8. Oct</tspan></text><text x="327.1" style="color:#888;cursor:default;font-size:11px;fill:#888;" text-anchor="start" transform="translate(0,0)" y="367" opacity="1"><tspan>11. Oct</tspan></text><text x="520.1" style="color:#888;cursor:default;font-size:11px;fill:#888;" text-anchor="start" transform="translate(0,0)" y="367" opacity="1"><tspan>14. Oct</tspan></text></g><g class="highcharts-axis-labels highcharts-yaxis-labels" ><text x="574" style="color:#606060;cursor:default;font-size:11px;fill:#606060;width:183px;text-overflow:clip;" text-anchor="end" transform="translate(0,0)" y="283" opacity="1">405</text><text x="574" style="color:#606060;cursor:default;font-size:11px;fill:#606060;width:183px;text-overflow:clip;" text-anchor="end" transform="translate(0,0)" y="235" opacity="1">410</text><text x="574" style="color:#606060;cursor:default;font-size:11px;fill:#606060;width:183px;text-overflow:clip;" text-anchor="end" transform="translate(0,0)" y="187" opacity="1">415</text><text x="574" style="color:#606060;cursor:default;font-size:11px;fill:#606060;width:183px;text-overflow:clip;" text-anchor="end" transform="translate(0,0)" y="139" opacity="1">420</text><text x="0" style="color:#606060;cursor:default;font-size:11px;fill:#606060;width:183px;text-overflow:clip;" text-anchor="end" transform="translate(0,0)" y="-9999">425</text></g><g class="highcharts-axis-labels highcharts-yaxis-labels" ></g><g class="highcharts-tooltip"  style="cursor:default;padding:0;white-space:nowrap;" transform="translate(0,-9999)"><path fill="none" d="M 3 0 L 13 0 C 16 0 16 0 16 3 L 16 13 C 16 16 16 16 13 16 L 3 16 C 0 16 0 16 0 13 L 0 3 C 0 0 0 0 3 0"  stroke="black" stroke-opacity="0.0" stroke-width="5" transform="translate(1, 1)"></path><path fill="none" d="M 3 0 L 13 0 C 16 0 16 0 16 3 L 16 13 C 16 16 16 16 13 16 L 3 16 C 0 16 0 16 0 13 L 0 3 C 0 0 0 0 3 0"  stroke="black" stroke-opacity="0.0" stroke-width="3" transform="translate(1, 1)"></path><path fill="none" d="M 3 0 L 13 0 C 16 0 16 0 16 3 L 16 13 C 16 16 16 16 13 16 L 3 16 C 0 16 0 16 0 13 L 0 3 C 0 0 0 0 3 0"  stroke="black" stroke-opacity="0.1" stroke-width="1" transform="translate(1, 1)"></path><path fill="rgb(249, 249, 249)" fill-opacity=" .85" d="M 3 0 L 13 0 C 16 0 16 0 16 3 L 16 13 C 16 16 16 16 13 16 L 3 16 C 0 16 0 16 0 13 L 0 3 C 0 0 0 0 3 0"></path><text x="8"  style="font-size:12px;color:#333333;fill:#333333;" y="20"></text></g></svg>