<svg version="1.1" style="font-family:&quot;lucida grande&quot;, &quot;lucida sans unicode&quot;, arial, helvetica, sans-serif;font-size:12px;" xmlns="http://www.w3.org/2000/svg" width="584" height="400" viewBox="0 0 584 400"><desc>Created with Highstock 2.1.0</desc><defs><clipPath id="highcharts-1"><rect x="0" y="0" width="564" height="192"></rect></clipPath><clipPath id="highcharts-3"><rect x="-99" y="-93" width="663" height="400"></rect></clipPath><clipPath id="highcharts-4"><rect x="0" y="0" width="564" height="40"></rect></clipPath></defs><rect x="0" y="0" width="584" height="400" strokeWidth="0" fill="#FFFFFF" class=" highcharts-background"></rect><g class="highcharts-scrollbar" transform="translate(10,372)"><rect x="0" y="-0.5" fill="#eeeeee" stroke="#eeeeee" stroke-width="1" rx="0" ry="0" height="14" width="564"></rect><rect y="-0.5" height="14" fill="#bfc8d1" stroke="#bfc8d1" stroke-width="1" rx="0" ry="0" x="14.5" width="535"></rect><path fill="none" stroke="#666" stroke-width="1" visibility="visible" d="M 278.5 3.5 L 278.5 9.3 M 281.5 3.5 L 281.5 9.3 M 284.5 3.5 L 284.5 9.3"></path><g><rect x="-0.5" y="-0.5" width="14" height="14" strokeWidth="1" stroke="#bbb" stroke-width="1" fill="#ebe7e8"></rect><path fill="#666" d="M 8 4 L 8 10 5 7"></path></g><g transform="translate(550,0)"><rect x="-0.5" y="-0.5" width="14" height="14" strokeWidth="1" stroke="#bbb" stroke-width="1" fill="#ebe7e8"></rect><path fill="#666" d="M 6 4 L 6 10 9 7"></path></g></g><g class="highcharts-range-selector-buttons"><text x="10" y="73" style="color:#666;fill:#666;">Zoom</text><g class="highcharts-button"  states="[object Object]" style="cursor:pointer;text-align:center;" transform="translate(46,58)"><rect x="0" y="0" width="32" height="22" strokeWidth="0" fill="#f7f7f7" rx="0" ry="0"></rect><text x="9"  style="font-weight:normal;color:#444;fill:#444;" y="14">1h</text></g><g class="highcharts-button"  states="[object Object]" style="cursor:pointer;text-align:center;" transform="translate(83,58)"><rect x="0" y="0" width="32" height="22" strokeWidth="0" fill="#f7f7f7" rx="0" ry="0"></rect><text x="9"  style="font-weight:normal;color:#444;fill:#444;" y="14">1d</text></g><g class="highcharts-button"  states="[object Object]" style="cursor:pointer;text-align:center;" transform="translate(120,58)"><rect x="0" y="0" width="32" height="22" strokeWidth="0" fill="#f7f7f7" rx="0" ry="0"></rect><text x="7.5"  style="font-weight:normal;color:#444;fill:#444;" y="14">1m</text></g><g class="highcharts-button"  states="[object Object]" style="cursor:pointer;text-align:center;" transform="translate(157,58)"><rect x="0" y="0" width="32" height="22" strokeWidth="0" fill="#f7f7f7" rx="0" ry="0"></rect><text x="9.5"  style="font-weight:normal;color:#444;fill:#444;" y="14">1y</text></g><g class="highcharts-button"  states="[object Object]" style="cursor:pointer;text-align:center;" transform="translate(194,58)"><rect x="0" y="0" width="32" height="22" strokeWidth="0" fill="#e7f0f9" rx="0" ry="0"></rect><text x="10"  style="font-weight:bold;color:black;fill:black;" y="14">All</text></g></g><g class="highcharts-grid" ></g><g class="highcharts-grid" ><path fill="none" d="M 23.5 331 L 23.5 371" stroke="#EEE" stroke-width="1"  opacity="1"></path><path fill="none" d="M 256.5 331 L 256.5 371" stroke="#EEE" stroke-width="1"  opacity="1"></path><path fill="none" d="M 490.5 331 L 490.5 371" stroke="#EEE" stroke-width="1"  opacity="1"></path></g><g class="highcharts-grid" ><path fill="none" d="M 10 285.5 L 574 285.5" stroke="#D8D8D8" stroke-width="1"  opacity="1"></path><path fill="none" d="M 10 221.5 L 574 221.5" stroke="#D8D8D8" stroke-width="1"  opacity="1"></path><path fill="none" d="M 10 157.5 L 574 157.5" stroke="#D8D8D8" stroke-width="1"  opacity="1"></path><path fill="none" d="M 10 92.5 L 574 92.5" stroke="#D8D8D8" stroke-width="1"  opacity="1"></path></g><g class="highcharts-grid" ></g><g class="highcharts-axis" ><path fill="none" d="M 51.5 285 L 51.5 295" stroke="#C0D0E0" stroke-width="1" opacity="1"></path><path fill="none" d="M 133.5 285 L 133.5 295" stroke="#C0D0E0" stroke-width="1" opacity="1"></path><path fill="none" d="M 214.5 285 L 214.5 295" stroke="#C0D0E0" stroke-width="1" opacity="1"></path><path fill="none" d="M 295.5 285 L 295.5 295" stroke="#C0D0E0" stroke-width="1" opacity="1"></path><path fill="none" d="M 377.5 285 L 377.5 295" stroke="#C0D0E0" stroke-width="1" opacity="1"></path><path fill="none" d="M 458.5 285 L 458.5 295" stroke="#C0D0E0" stroke-width="1" opacity="1"></path><path fill="none" d="M 539.5 285 L 539.5 295" stroke="#C0D0E0" stroke-width="1" opacity="1"></path><path fill="none" d="M 10 285.5 L 574 285.5" stroke="#C0D0E0" stroke-width="1"  visibility="visible"></path></g><g class="highcharts-axis" ></g><g class="highcharts-axis" ></g><g class="highcharts-axis" ></g><g class="highcharts-series-group" ><g class="highcharts-series highcharts-tracker" visibility="visible"  transform="translate(10,93) scale(1 1)" style="" clip-path="url(#highcharts-1)"><path fill="white" d="M 0.5 191.5 L 0.5 191.5 L 2.5 191.5 L 2.5 191.5 Z M 1.5 191.5 L 1.5 190 M 1.5 191.5 L 1.5 191" stroke="black" stroke-width="1"></path><path fill="white" d="M 3.5 191.5 L 3.5 190.5 L 5.5 190.5 L 5.5 191.5 Z M 4.5 190.5 L 4.5 190.5 M 4.5 191.5 L 4.5 191" stroke="black" stroke-width="1"></path><path fill="white" d="M 6.5 190.5 L 6.5 190.5 L 8.5 190.5 L 8.5 190.5 Z M 7.5 190.5 L 7.5 190.5 M 7.5 190.5 L 7.5 190" stroke="black" stroke-width="1"></path><path fill="#7cb5ec" d="M 10.5 190.5 L 10.5 190.5 L 12.5 190.5 L 12.5 190.5 Z M 11.5 190.5 L 11.5 190.5 M 11.5 190.5 L 11.5 190" stroke="black" stroke-width="1"></path><path fill="#7cb5ec" d="M 13.5 190.5 L 13.5 190.5 L 15.5 190.5 L 15.5 190.5 Z M 14.5 190.5 L 14.5 189 M 14.5 190.5 L 14.5 190" stroke="black" stroke-width="1"></path><path fill="white" d="M 17.5 190.5 L 17.5 190.5 L 19.5 190.5 L 19.5 190.5 Z M 18.5 190.5 L 18.5 190.5 M 18.5 190.5 L 18.5 190" stroke="black" stroke-width="1"></path><path fill="white" d="M 20.5 190.5 L 20.5 189.5 L 22.5 189.5 L 22.5 190.5 Z M 21.5 189.5 L 21.5 189.5 M 21.5 190.5 L 21.5 190" stroke="black" stroke-width="1"></path><path fill="#7cb5ec" d="M 23.5 190.5 L 23.5 189.5 L 25.5 189.5 L 25.5 190.5 Z M 24.5 189.5 L 24.5 189.5 M 24.5 190.5 L 24.5 190" stroke="black" stroke-width="1"></path><path fill="white" d="M 27.5 189.5 L 27.5 189.5 L 29.5 189.5 L 29.5 189.5 Z M 28.5 189.5 L 28.5 189.5 M 28.5 189.5 L 28.5 190" stroke="black" stroke-width="1"></path><path fill="white" d="M 30.5 189.5 L 30.5 189.5 L 32.5 189.5 L 32.5 189.5 Z M 31.5 189.5 L 31.5 189.5 M 31.5 189.5 L 31.5 190" stroke="black" stroke-width="1"></path><path fill="#7cb5ec" d="M 34.5 189.5 L 34.5 189.5 L 36.5 189.5 L 36.5 189.5 Z M 35.5 189.5 L 35.5 189.5 M 35.5 189.5 L 35.5 189" stroke="black" stroke-width="1"></path><path fill="white" d="M 37.5 189.5 L 37.5 189.5 L 39.5 189.5 L 39.5 189.5 Z M 38.5 189.5 L 38.5 189.5 M 38.5 189.5 L 38.5 189" stroke="black" stroke-width="1"></path><path fill="#7cb5ec" d="M 40.5 189.5 L 40.5 189.5 L 42.5 189.5 L 42.5 189.5 Z M 41.5 189.5 L 41.5 188 M 41.5 189.5 L 41.5 189" stroke="black" stroke-width="1"></path><path fill="#7cb5ec" d="M 44.5 189.5 L 44.5 189.5 L 46.5 189.5 L 46.5 189.5 Z M 45.5 189.5 L 45.5 189.5 M 45.5 189.5 L 45.5 189" stroke="black" stroke-width="1"></path><path fill="white" d="M 47.5 189.5 L 47.5 189.5 L 49.5 189.5 L 49.5 189.5 Z M 48.5 189.5 L 48.5 189.5 M 48.5 189.5 L 48.5 189" stroke="black" stroke-width="1"></path><path fill="white" d="M 50.5 189.5 L 50.5 188.5 L 52.5 188.5 L 52.5 189.5 Z M 51.5 188.5 L 51.5 188.5 M 51.5 189.5 L 51.5 189" stroke="black" stroke-width="1"></path><path fill="#7cb5ec" d="M 54.5 188.5 L 54.5 188.5 L 56.5 188.5 L 56.5 188.5 Z M 55.5 188.5 L 55.5 188.5 M 55.5 188.5 L 55.5 189" stroke="black" stroke-width="1"></path><path fill="white" d="M 57.5 188.5 L 57.5 188.5 L 59.5 188.5 L 59.5 188.5 Z M 58.5 188.5 L 58.5 188.5 M 58.5 188.5 L 58.5 189" stroke="black" stroke-width="1"></path><path fill="white" d="M 60.5 188.5 L 60.5 188.5 L 62.5 188.5 L 62.5 188.5 Z M 61.5 188.5 L 61.5 187 M 61.5 188.5 L 61.5 188" stroke="black" stroke-width="1"></path><path fill="white" d="M 64.5 188.5 L 64.5 187.5 L 66.5 187.5 L 66.5 188.5 Z M 65.5 187.5 L 65.5 187.5 M 65.5 188.5 L 65.5 188" stroke="black" stroke-width="1"></path><path fill="#7cb5ec" d="M 67.5 187.5 L 67.5 187.5 L 69.5 187.5 L 69.5 187.5 Z M 68.5 187.5 L 68.5 186 M 68.5 187.5 L 68.5 187" stroke="black" stroke-width="1"></path><path fill="white" d="M 71.5 187.5 L 71.5 186.5 L 73.5 186.5 L 73.5 187.5 Z M 72.5 186.5 L 72.5 186.5 M 72.5 187.5 L 72.5 187" stroke="black" stroke-width="1"></path><path fill="white" d="M 74.5 186.5 L 74.5 184.5 L 76.5 184.5 L 76.5 186.5 Z M 75.5 184.5 L 75.5 184.5 M 75.5 186.5 L 75.5 186" stroke="black" stroke-width="1"></path><path fill="white" d="M 78.5 184.5 L 78.5 184.5 L 80.5 184.5 L 80.5 184.5 Z M 79.5 184.5 L 79.5 183 M 79.5 184.5 L 79.5 185" stroke="black" stroke-width="1"></path><path fill="#7cb5ec" d="M 81.5 184.5 L 81.5 184.5 L 83.5 184.5 L 83.5 184.5 Z M 82.5 184.5 L 82.5 182 M 82.5 184.5 L 82.5 185" stroke="black" stroke-width="1"></path><path fill="white" d="M 84.5 184.5 L 84.5 183.5 L 86.5 183.5 L 86.5 184.5 Z M 85.5 183.5 L 85.5 182 M 85.5 184.5 L 85.5 184" stroke="black" stroke-width="1"></path><path fill="white" d="M 88.5 183.5 L 88.5 181.5 L 90.5 181.5 L 90.5 183.5 Z M 89.5 181.5 L 89.5 180 M 89.5 183.5 L 89.5 183" stroke="black" stroke-width="1"></path><path fill="#7cb5ec" d="M 91.5 182.5 L 91.5 181.5 L 93.5 181.5 L 93.5 182.5 Z M 92.5 181.5 L 92.5 181.5 M 92.5 182.5 L 92.5 184" stroke="black" stroke-width="1"></path><path fill="#7cb5ec" d="M 94.5 185.5 L 94.5 182.5 L 96.5 182.5 L 96.5 185.5 Z M 95.5 182.5 L 95.5 182.5 M 95.5 185.5 L 95.5 185" stroke="black" stroke-width="1"></path><path fill="white" d="M 98.5 185.5 L 98.5 184.5 L 100.5 184.5 L 100.5 185.5 Z M 99.5 184.5 L 99.5 183 M 99.5 185.5 L 99.5 186" stroke="black" stroke-width="1"></path><path fill="#7cb5ec" d="M 101.5 184.5 L 101.5 184.5 L 103.5 184.5 L 103.5 184.5 Z M 102.5 184.5 L 102.5 182 M 102.5 184.5 L 102.5 184" stroke="black" stroke-width="1"></path><path fill="white" d="M 105.5 184.5 L 105.5 182.5 L 107.5 182.5 L 107.5 184.5 Z M 106.5 182.5 L 106.5 182.5 M 106.5 184.5 L 106.5 185" stroke="black" stroke-width="1"></path><path fill="#7cb5ec" d="M 108.5 188.5 L 108.5 182.5 L 110.5 182.5 L 110.5 188.5 Z M 109.5 182.5 L 109.5 182.5 M 109.5 188.5 L 109.5 189" stroke="black" stroke-width="1"></path><path fill="#7cb5ec" d="M 111.5 189.5 L 111.5 188.5 L 113.5 188.5 L 113.5 189.5 Z M 112.5 188.5 L 112.5 188.5 M 112.5 189.5 L 112.5 189" stroke="black" stroke-width="1"></path><path fill="#7cb5ec" d="M 115.5 189.5 L 115.5 189.5 L 117.5 189.5 L 117.5 189.5 Z M 116.5 189.5 L 116.5 188 M 116.5 189.5 L 116.5 189" stroke="black" stroke-width="1"></path><path fill="#7cb5ec" d="M 118.5 190.5 L 118.5 189.5 L 120.5 189.5 L 120.5 190.5 Z M 119.5 189.5 L 119.5 189.5 M 119.5 190.5 L 119.5 190" stroke="black" stroke-width="1"></path><path fill="white" d="M 122.5 190.5 L 122.5 189.5 L 124.5 189.5 L 124.5 190.5 Z M 123.5 189.5 L 123.5 188 M 123.5 190.5 L 123.5 190" stroke="black" stroke-width="1"></path><path fill="#7cb5ec" d="M 125.5 189.5 L 125.5 189.5 L 127.5 189.5 L 127.5 189.5 Z M 126.5 189.5 L 126.5 186 M 126.5 189.5 L 126.5 192" stroke="black" stroke-width="1"></path><path fill="white" d="M 128.5 189.5 L 128.5 188.5 L 130.5 188.5 L 130.5 189.5 Z M 129.5 188.5 L 129.5 188.5 M 129.5 189.5 L 129.5 189" stroke="black" stroke-width="1"></path><path fill="white" d="M 132.5 188.5 L 132.5 188.5 L 134.5 188.5 L 134.5 188.5 Z M 133.5 188.5 L 133.5 188.5 M 133.5 188.5 L 133.5 189" stroke="black" stroke-width="1"></path><path fill="#7cb5ec" d="M 135.5 189.5 L 135.5 188.5 L 137.5 188.5 L 137.5 189.5 Z M 136.5 188.5 L 136.5 188.5 M 136.5 189.5 L 136.5 189" stroke="black" stroke-width="1"></path><path fill="white" d="M 139.5 189.5 L 139.5 188.5 L 141.5 188.5 L 141.5 189.5 Z M 140.5 188.5 L 140.5 188.5 M 140.5 189.5 L 140.5 189" stroke="black" stroke-width="1"></path><path fill="#7cb5ec" d="M 142.5 189.5 L 142.5 188.5 L 144.5 188.5 L 144.5 189.5 Z M 143.5 188.5 L 143.5 188.5 M 143.5 189.5 L 143.5 189" stroke="black" stroke-width="1"></path><path fill="#7cb5ec" d="M 145.5 189.5 L 145.5 189.5 L 147.5 189.5 L 147.5 189.5 Z M 146.5 189.5 L 146.5 189.5 M 146.5 189.5 L 146.5 189" stroke="black" stroke-width="1"></path><path fill="#7cb5ec" d="M 149.5 190.5 L 149.5 189.5 L 151.5 189.5 L 151.5 190.5 Z M 150.5 189.5 L 150.5 189.5 M 150.5 190.5 L 150.5 190" stroke="black" stroke-width="1"></path><path fill="white" d="M 152.5 190.5 L 152.5 189.5 L 154.5 189.5 L 154.5 190.5 Z M 153.5 189.5 L 153.5 189.5 M 153.5 190.5 L 153.5 191" stroke="black" stroke-width="1"></path><path fill="white" d="M 156.5 189.5 L 156.5 189.5 L 158.5 189.5 L 158.5 189.5 Z M 157.5 189.5 L 157.5 189.5 M 157.5 189.5 L 157.5 189" stroke="black" stroke-width="1"></path><path fill="white" d="M 159.5 189.5 L 159.5 188.5 L 161.5 188.5 L 161.5 189.5 Z M 160.5 188.5 L 160.5 188.5 M 160.5 189.5 L 160.5 189" stroke="black" stroke-width="1"></path><path fill="white" d="M 162.5 188.5 L 162.5 188.5 L 164.5 188.5 L 164.5 188.5 Z M 163.5 188.5 L 163.5 188.5 M 163.5 188.5 L 163.5 189" stroke="black" stroke-width="1"></path><path fill="#7cb5ec" d="M 166.5 189.5 L 166.5 188.5 L 168.5 188.5 L 168.5 189.5 Z M 167.5 188.5 L 167.5 188.5 M 167.5 189.5 L 167.5 189" stroke="black" stroke-width="1"></path><path fill="white" d="M 169.5 189.5 L 169.5 188.5 L 171.5 188.5 L 171.5 189.5 Z M 170.5 188.5 L 170.5 188.5 M 170.5 189.5 L 170.5 189.5" stroke="black" stroke-width="1"></path><path fill="white" d="M 172.5 188.5 L 172.5 188.5 L 174.5 188.5 L 174.5 188.5 Z M 173.5 188.5 L 173.5 188.5 M 173.5 188.5 L 173.5 188" stroke="black" stroke-width="1"></path><path fill="#7cb5ec" d="M 176.5 188.5 L 176.5 188.5 L 178.5 188.5 L 178.5 188.5 Z M 177.5 188.5 L 177.5 188.5 M 177.5 188.5 L 177.5 188" stroke="black" stroke-width="1"></path><path fill="#7cb5ec" d="M 179.5 189.5 L 179.5 188.5 L 181.5 188.5 L 181.5 189.5 Z M 180.5 188.5 L 180.5 188.5 M 180.5 189.5 L 180.5 189" stroke="black" stroke-width="1"></path><path fill="#7cb5ec" d="M 183.5 190.5 L 183.5 189.5 L 185.5 189.5 L 185.5 190.5 Z M 184.5 189.5 L 184.5 189.5 M 184.5 190.5 L 184.5 190" stroke="black" stroke-width="1"></path><path fill="#7cb5ec" d="M 186.5 190.5 L 186.5 190.5 L 188.5 190.5 L 188.5 190.5 Z M 187.5 190.5 L 187.5 189 M 187.5 190.5 L 187.5 190" stroke="black" stroke-width="1"></path><path fill="#7cb5ec" d="M 189.5 190.5 L 189.5 190.5 L 191.5 190.5 L 191.5 190.5 Z M 190.5 190.5 L 190.5 190.5 M 190.5 190.5 L 190.5 190" stroke="black" stroke-width="1"></path><path fill="white" d="M 193.5 190.5 L 193.5 189.5 L 195.5 189.5 L 195.5 190.5 Z M 194.5 189.5 L 194.5 189.5 M 194.5 190.5 L 194.5 190" stroke="black" stroke-width="1"></path><path fill="#7cb5ec" d="M 196.5 190.5 L 196.5 189.5 L 198.5 189.5 L 198.5 190.5 Z M 197.5 189.5 L 197.5 189.5 M 197.5 190.5 L 197.5 190" stroke="black" stroke-width="1"></path><path fill="#7cb5ec" d="M 200.5 190.5 L 200.5 189.5 L 202.5 189.5 L 202.5 190.5 Z M 201.5 189.5 L 201.5 189.5 M 201.5 190.5 L 201.5 190" stroke="black" stroke-width="1"></path><path fill="white" d="M 203.5 190.5 L 203.5 190.5 L 205.5 190.5 L 205.5 190.5 Z M 204.5 190.5 L 204.5 190.5 M 204.5 190.5 L 204.5 190" stroke="black" stroke-width="1"></path><path fill="white" d="M 206.5 190.5 L 206.5 190.5 L 208.5 190.5 L 208.5 190.5 Z M 207.5 190.5 L 207.5 190.5 M 207.5 190.5 L 207.5 190" stroke="black" stroke-width="1"></path><path fill="#7cb5ec" d="M 210.5 190.5 L 210.5 190.5 L 212.5 190.5 L 212.5 190.5 Z M 211.5 190.5 L 211.5 190.5 M 211.5 190.5 L 211.5 190" stroke="black" stroke-width="1"></path><path fill="white" d="M 213.5 190.5 L 213.5 190.5 L 215.5 190.5 L 215.5 190.5 Z M 214.5 190.5 L 214.5 190.5 M 214.5 190.5 L 214.5 190" stroke="black" stroke-width="1"></path><path fill="white" d="M 216.5 190.5 L 216.5 189.5 L 218.5 189.5 L 218.5 190.5 Z M 217.5 189.5 L 217.5 189.5 M 217.5 190.5 L 217.5 190" stroke="black" stroke-width="1"></path><path fill="white" d="M 220.5 189.5 L 220.5 189.5 L 222.5 189.5 L 222.5 189.5 Z M 221.5 189.5 L 221.5 189.5 M 221.5 189.5 L 221.5 189" stroke="black" stroke-width="1"></path><path fill="white" d="M 223.5 189.5 L 223.5 189.5 L 225.5 189.5 L 225.5 189.5 Z M 224.5 189.5 L 224.5 188 M 224.5 189.5 L 224.5 189" stroke="black" stroke-width="1"></path><path fill="white" d="M 227.5 189.5 L 227.5 188.5 L 229.5 188.5 L 229.5 189.5 Z M 228.5 188.5 L 228.5 188.5 M 228.5 189.5 L 228.5 189" stroke="black" stroke-width="1"></path><path fill="#7cb5ec" d="M 230.5 189.5 L 230.5 188.5 L 232.5 188.5 L 232.5 189.5 Z M 231.5 188.5 L 231.5 188.5 M 231.5 189.5 L 231.5 189" stroke="black" stroke-width="1"></path><path fill="white" d="M 233.5 189.5 L 233.5 188.5 L 235.5 188.5 L 235.5 189.5 Z M 234.5 188.5 L 234.5 188.5 M 234.5 189.5 L 234.5 190" stroke="black" stroke-width="1"></path><path fill="#7cb5ec" d="M 237.5 189.5 L 237.5 188.5 L 239.5 188.5 L 239.5 189.5 Z M 238.5 188.5 L 238.5 188.5 M 238.5 189.5 L 238.5 189" stroke="black" stroke-width="1"></path><path fill="white" d="M 240.5 189.5 L 240.5 189.5 L 242.5 189.5 L 242.5 189.5 Z M 241.5 189.5 L 241.5 188 M 241.5 189.5 L 241.5 189" stroke="black" stroke-width="1"></path><path fill="white" d="M 244.5 189.5 L 244.5 188.5 L 246.5 188.5 L 246.5 189.5 Z M 245.5 188.5 L 245.5 188.5 M 245.5 189.5 L 245.5 189" stroke="black" stroke-width="1"></path><path fill="white" d="M 247.5 188.5 L 247.5 188.5 L 249.5 188.5 L 249.5 188.5 Z M 248.5 188.5 L 248.5 188.5 M 248.5 188.5 L 248.5 189" stroke="black" stroke-width="1"></path><path fill="white" d="M 250.5 188.5 L 250.5 188.5 L 252.5 188.5 L 252.5 188.5 Z M 251.5 188.5 L 251.5 187 M 251.5 188.5 L 251.5 188" stroke="black" stroke-width="1"></path><path fill="#7cb5ec" d="M 254.5 188.5 L 254.5 188.5 L 256.5 188.5 L 256.5 188.5 Z M 255.5 188.5 L 255.5 187 M 255.5 188.5 L 255.5 188" stroke="black" stroke-width="1"></path><path fill="white" d="M 257.5 188.5 L 257.5 188.5 L 259.5 188.5 L 259.5 188.5 Z M 258.5 188.5 L 258.5 187 M 258.5 188.5 L 258.5 188" stroke="black" stroke-width="1"></path><path fill="white" d="M 261.5 187.5 L 261.5 187.5 L 263.5 187.5 L 263.5 187.5 Z M 262.5 187.5 L 262.5 186 M 262.5 187.5 L 262.5 188" stroke="black" stroke-width="1"></path><path fill="white" d="M 264.5 187.5 L 264.5 187.5 L 266.5 187.5 L 266.5 187.5 Z M 265.5 187.5 L 265.5 187.5 M 265.5 187.5 L 265.5 191" stroke="black" stroke-width="1"></path><path fill="white" d="M 267.5 187.5 L 267.5 186.5 L 269.5 186.5 L 269.5 187.5 Z M 268.5 186.5 L 268.5 186.5 M 268.5 187.5 L 268.5 187" stroke="black" stroke-width="1"></path><path fill="white" d="M 271.5 186.5 L 271.5 186.5 L 273.5 186.5 L 273.5 186.5 Z M 272.5 186.5 L 272.5 186.5 M 272.5 186.5 L 272.5 190" stroke="black" stroke-width="1"></path><path fill="white" d="M 274.5 186.5 L 274.5 184.5 L 276.5 184.5 L 276.5 186.5 Z M 275.5 184.5 L 275.5 183 M 275.5 186.5 L 275.5 186" stroke="black" stroke-width="1"></path><path fill="white" d="M 278.5 184.5 L 278.5 181.5 L 280.5 181.5 L 280.5 184.5 Z M 279.5 181.5 L 279.5 181.5 M 279.5 184.5 L 279.5 184" stroke="black" stroke-width="1"></path><path fill="#7cb5ec" d="M 281.5 182.5 L 281.5 181.5 L 283.5 181.5 L 283.5 182.5 Z M 282.5 181.5 L 282.5 181.5 M 282.5 182.5 L 282.5 182" stroke="black" stroke-width="1"></path><path fill="white" d="M 284.5 182.5 L 284.5 180.5 L 286.5 180.5 L 286.5 182.5 Z M 285.5 180.5 L 285.5 180.5 M 285.5 182.5 L 285.5 182" stroke="black" stroke-width="1"></path><path fill="white" d="M 288.5 180.5 L 288.5 178.5 L 290.5 178.5 L 290.5 180.5 Z M 289.5 178.5 L 289.5 177 M 289.5 180.5 L 289.5 180" stroke="black" stroke-width="1"></path><path fill="#7cb5ec" d="M 291.5 179.5 L 291.5 178.5 L 293.5 178.5 L 293.5 179.5 Z M 292.5 178.5 L 292.5 178.5 M 292.5 179.5 L 292.5 180" stroke="black" stroke-width="1"></path><path fill="#7cb5ec" d="M 294.5 180.5 L 294.5 179.5 L 296.5 179.5 L 296.5 180.5 Z M 295.5 179.5 L 295.5 178 M 295.5 180.5 L 295.5 181" stroke="black" stroke-width="1"></path><path fill="white" d="M 298.5 180.5 L 298.5 179.5 L 300.5 179.5 L 300.5 180.5 Z M 299.5 179.5 L 299.5 179.5 M 299.5 180.5 L 299.5 181" stroke="black" stroke-width="1"></path><path fill="#7cb5ec" d="M 301.5 180.5 L 301.5 179.5 L 303.5 179.5 L 303.5 180.5 Z M 302.5 179.5 L 302.5 179.5 M 302.5 180.5 L 302.5 181" stroke="black" stroke-width="1"></path><path fill="white" d="M 305.5 180.5 L 305.5 178.5 L 307.5 178.5 L 307.5 180.5 Z M 306.5 178.5 L 306.5 178.5 M 306.5 180.5 L 306.5 180" stroke="black" stroke-width="1"></path><path fill="white" d="M 308.5 178.5 L 308.5 177.5 L 310.5 177.5 L 310.5 178.5 Z M 309.5 177.5 L 309.5 177.5 M 309.5 178.5 L 309.5 179" stroke="black" stroke-width="1"></path><path fill="white" d="M 311.5 177.5 L 311.5 175.5 L 313.5 175.5 L 313.5 177.5 Z M 312.5 175.5 L 312.5 175.5 M 312.5 177.5 L 312.5 177" stroke="black" stroke-width="1"></path><path fill="white" d="M 315.5 175.5 L 315.5 174.5 L 317.5 174.5 L 317.5 175.5 Z M 316.5 174.5 L 316.5 173 M 316.5 175.5 L 316.5 177" stroke="black" stroke-width="1"></path><path fill="white" d="M 318.5 174.5 L 318.5 170.5 L 320.5 170.5 L 320.5 174.5 Z M 319.5 170.5 L 319.5 169 M 319.5 174.5 L 319.5 174" stroke="black" stroke-width="1"></path><path fill="white" d="M 322.5 170.5 L 322.5 169.5 L 324.5 169.5 L 324.5 170.5 Z M 323.5 169.5 L 323.5 168 M 323.5 170.5 L 323.5 170.5" stroke="black" stroke-width="1"></path><path fill="white" d="M 325.5 169.5 L 325.5 168.5 L 327.5 168.5 L 327.5 169.5 Z M 326.5 168.5 L 326.5 164 M 326.5 169.5 L 326.5 169" stroke="black" stroke-width="1"></path><path fill="#7cb5ec" d="M 329.5 170.5 L 329.5 168.5 L 331.5 168.5 L 331.5 170.5 Z M 330.5 168.5 L 330.5 168.5 M 330.5 170.5 L 330.5 172" stroke="black" stroke-width="1"></path><path fill="#7cb5ec" d="M 332.5 172.5 L 332.5 170.5 L 334.5 170.5 L 334.5 172.5 Z M 333.5 170.5 L 333.5 170.5 M 333.5 172.5 L 333.5 174" stroke="black" stroke-width="1"></path><path fill="white" d="M 335.5 172.5 L 335.5 169.5 L 337.5 169.5 L 337.5 172.5 Z M 336.5 169.5 L 336.5 169.5 M 336.5 172.5 L 336.5 173" stroke="black" stroke-width="1"></path><path fill="#7cb5ec" d="M 338.5 173.5 L 338.5 169.5 L 340.5 169.5 L 340.5 173.5 Z M 339.5 169.5 L 339.5 168 M 339.5 173.5 L 339.5 173" stroke="black" stroke-width="1"></path><path fill="#7cb5ec" d="M 342.5 174.5 L 342.5 173.5 L 344.5 173.5 L 344.5 174.5 Z M 343.5 173.5 L 343.5 172 M 343.5 174.5 L 343.5 174" stroke="black" stroke-width="1"></path><path fill="white" d="M 345.5 174.5 L 345.5 170.5 L 347.5 170.5 L 347.5 174.5 Z M 346.5 170.5 L 346.5 170.5 M 346.5 174.5 L 346.5 176" stroke="black" stroke-width="1"></path><path fill="#7cb5ec" d="M 349.5 170.5 L 349.5 170.5 L 351.5 170.5 L 351.5 170.5 Z M 350.5 170.5 L 350.5 170.5 M 350.5 170.5 L 350.5 172" stroke="black" stroke-width="1"></path><path fill="white" d="M 352.5 170.5 L 352.5 167.5 L 354.5 167.5 L 354.5 170.5 Z M 353.5 167.5 L 353.5 167.5 M 353.5 170.5 L 353.5 170" stroke="black" stroke-width="1"></path><path fill="white" d="M 355.5 167.5 L 355.5 166.5 L 357.5 166.5 L 357.5 167.5 Z M 356.5 166.5 L 356.5 166.5 M 356.5 167.5 L 356.5 169" stroke="black" stroke-width="1"></path><path fill="white" d="M 359.5 166.5 L 359.5 163.5 L 361.5 163.5 L 361.5 166.5 Z M 360.5 163.5 L 360.5 162 M 360.5 166.5 L 360.5 167" stroke="black" stroke-width="1"></path><path fill="#7cb5ec" d="M 362.5 165.5 L 362.5 163.5 L 364.5 163.5 L 364.5 165.5 Z M 363.5 163.5 L 363.5 162 M 363.5 165.5 L 363.5 167" stroke="black" stroke-width="1"></path><path fill="#7cb5ec" d="M 366.5 165.5 L 366.5 164.5 L 368.5 164.5 L 368.5 165.5 Z M 367.5 164.5 L 367.5 160 M 367.5 165.5 L 367.5 166" stroke="black" stroke-width="1"></path><path fill="#7cb5ec" d="M 369.5 165.5 L 369.5 165.5 L 371.5 165.5 L 371.5 165.5 Z M 370.5 165.5 L 370.5 163 M 370.5 165.5 L 370.5 166" stroke="black" stroke-width="1"></path><path fill="white" d="M 372.5 165.5 L 372.5 162.5 L 374.5 162.5 L 374.5 165.5 Z M 373.5 162.5 L 373.5 161 M 373.5 165.5 L 373.5 165" stroke="black" stroke-width="1"></path><path fill="white" d="M 376.5 162.5 L 376.5 160.5 L 378.5 160.5 L 378.5 162.5 Z M 377.5 160.5 L 377.5 159 M 377.5 162.5 L 377.5 163" stroke="black" stroke-width="1"></path><path fill="white" d="M 379.5 160.5 L 379.5 153.5 L 381.5 153.5 L 381.5 160.5 Z M 380.5 153.5 L 380.5 153.5 M 380.5 160.5 L 380.5 160" stroke="black" stroke-width="1"></path><path fill="white" d="M 383.5 153.5 L 383.5 153.5 L 385.5 153.5 L 385.5 153.5 Z M 384.5 153.5 L 384.5 151 M 384.5 153.5 L 384.5 155" stroke="black" stroke-width="1"></path><path fill="white" d="M 386.5 153.5 L 386.5 149.5 L 388.5 149.5 L 388.5 153.5 Z M 387.5 149.5 L 387.5 143 M 387.5 153.5 L 387.5 154" stroke="black" stroke-width="1"></path><path fill="white" d="M 389.5 150.5 L 389.5 148.5 L 391.5 148.5 L 391.5 150.5 Z M 390.5 148.5 L 390.5 147 M 390.5 150.5 L 390.5 156" stroke="black" stroke-width="1"></path><path fill="white" d="M 393.5 148.5 L 393.5 143.5 L 395.5 143.5 L 395.5 148.5 Z M 394.5 143.5 L 394.5 142 M 394.5 148.5 L 394.5 150" stroke="black" stroke-width="1"></path><path fill="white" d="M 396.5 143.5 L 396.5 131.5 L 398.5 131.5 L 398.5 143.5 Z M 397.5 131.5 L 397.5 129 M 397.5 143.5 L 397.5 143" stroke="black" stroke-width="1"></path><path fill="#7cb5ec" d="M 400.5 134.5 L 400.5 131.5 L 402.5 131.5 L 402.5 134.5 Z M 401.5 131.5 L 401.5 130 M 401.5 134.5 L 401.5 144" stroke="black" stroke-width="1"></path><path fill="white" d="M 403.5 134.5 L 403.5 128.5 L 405.5 128.5 L 405.5 134.5 Z M 404.5 128.5 L 404.5 127 M 404.5 134.5 L 404.5 136" stroke="black" stroke-width="1"></path><path fill="#7cb5ec" d="M 406.5 149.5 L 406.5 128.5 L 408.5 128.5 L 408.5 149.5 Z M 407.5 128.5 L 407.5 128.5 M 407.5 149.5 L 407.5 152" stroke="black" stroke-width="1"></path><path fill="#7cb5ec" d="M 410.5 152.5 L 410.5 148.5 L 412.5 148.5 L 412.5 152.5 Z M 411.5 148.5 L 411.5 148.5 M 411.5 152.5 L 411.5 155" stroke="black" stroke-width="1"></path><path fill="white" d="M 413.5 152.5 L 413.5 146.5 L 415.5 146.5 L 415.5 152.5 Z M 414.5 146.5 L 414.5 145 M 414.5 152.5 L 414.5 154" stroke="black" stroke-width="1"></path><path fill="white" d="M 416.5 146.5 L 416.5 136.5 L 418.5 136.5 L 418.5 146.5 Z M 417.5 136.5 L 417.5 134 M 417.5 146.5 L 417.5 146" stroke="black" stroke-width="1"></path><path fill="white" d="M 420.5 136.5 L 420.5 132.5 L 422.5 132.5 L 422.5 136.5 Z M 421.5 132.5 L 421.5 130 M 421.5 136.5 L 421.5 137" stroke="black" stroke-width="1"></path><path fill="#7cb5ec" d="M 423.5 138.5 L 423.5 132.5 L 425.5 132.5 L 425.5 138.5 Z M 424.5 132.5 L 424.5 131 M 424.5 138.5 L 424.5 139" stroke="black" stroke-width="1"></path><path fill="#7cb5ec" d="M 427.5 141.5 L 427.5 139.5 L 429.5 139.5 L 429.5 141.5 Z M 428.5 139.5 L 428.5 134 M 428.5 141.5 L 428.5 145" stroke="black" stroke-width="1"></path><path fill="white" d="M 430.5 141.5 L 430.5 138.5 L 432.5 138.5 L 432.5 141.5 Z M 431.5 138.5 L 431.5 134 M 431.5 141.5 L 431.5 143" stroke="black" stroke-width="1"></path><path fill="#7cb5ec" d="M 434.5 156.5 L 434.5 137.5 L 436.5 137.5 L 436.5 156.5 Z M 435.5 137.5 L 435.5 136 M 435.5 156.5 L 435.5 160" stroke="black" stroke-width="1"></path><path fill="#7cb5ec" d="M 437.5 157.5 L 437.5 156.5 L 439.5 156.5 L 439.5 157.5 Z M 438.5 156.5 L 438.5 155 M 438.5 157.5 L 438.5 165" stroke="black" stroke-width="1"></path><path fill="#7cb5ec" d="M 440.5 162.5 L 440.5 157.5 L 442.5 157.5 L 442.5 162.5 Z M 441.5 157.5 L 441.5 156 M 441.5 162.5 L 441.5 167" stroke="black" stroke-width="1"></path><path fill="#7cb5ec" d="M 444.5 165.5 L 444.5 163.5 L 446.5 163.5 L 446.5 165.5 Z M 445.5 163.5 L 445.5 159 M 445.5 165.5 L 445.5 165" stroke="black" stroke-width="1"></path><path fill="white" d="M 447.5 164.5 L 447.5 163.5 L 449.5 163.5 L 449.5 164.5 Z M 448.5 163.5 L 448.5 161 M 448.5 164.5 L 448.5 168" stroke="black" stroke-width="1"></path><path fill="white" d="M 451.5 163.5 L 451.5 163.5 L 453.5 163.5 L 453.5 163.5 Z M 452.5 163.5 L 452.5 159 M 452.5 163.5 L 452.5 165" stroke="black" stroke-width="1"></path><path fill="white" d="M 454.5 164.5 L 454.5 159.5 L 456.5 159.5 L 456.5 164.5 Z M 455.5 159.5 L 455.5 157 M 455.5 164.5 L 455.5 166" stroke="black" stroke-width="1"></path><path fill="white" d="M 457.5 158.5 L 457.5 152.5 L 459.5 152.5 L 459.5 158.5 Z M 458.5 152.5 L 458.5 151 M 458.5 158.5 L 458.5 159" stroke="black" stroke-width="1"></path><path fill="white" d="M 460.5 152.5 L 460.5 149.5 L 462.5 149.5 L 462.5 152.5 Z M 461.5 149.5 L 461.5 148 M 461.5 152.5 L 461.5 154" stroke="black" stroke-width="1"></path><path fill="white" d="M 464.5 149.5 L 464.5 146.5 L 466.5 146.5 L 466.5 149.5 Z M 465.5 146.5 L 465.5 145 M 465.5 149.5 L 465.5 149" stroke="black" stroke-width="1"></path><path fill="white" d="M 467.5 146.5 L 467.5 140.5 L 469.5 140.5 L 469.5 146.5 Z M 468.5 140.5 L 468.5 139 M 468.5 146.5 L 468.5 149" stroke="black" stroke-width="1"></path><path fill="white" d="M 471.5 139.5 L 471.5 138.5 L 473.5 138.5 L 473.5 139.5 Z M 472.5 138.5 L 472.5 137 M 472.5 139.5 L 472.5 141" stroke="black" stroke-width="1"></path><path fill="white" d="M 474.5 138.5 L 474.5 133.5 L 476.5 133.5 L 476.5 138.5 Z M 475.5 133.5 L 475.5 132 M 475.5 138.5 L 475.5 140" stroke="black" stroke-width="1"></path><path fill="white" d="M 477.5 133.5 L 477.5 131.5 L 479.5 131.5 L 479.5 133.5 Z M 478.5 131.5 L 478.5 125 M 478.5 133.5 L 478.5 134" stroke="black" stroke-width="1"></path><path fill="white" d="M 481.5 131.5 L 481.5 128.5 L 483.5 128.5 L 483.5 131.5 Z M 482.5 128.5 L 482.5 125 M 482.5 131.5 L 482.5 133" stroke="black" stroke-width="1"></path><path fill="white" d="M 484.5 128.5 L 484.5 125.5 L 486.5 125.5 L 486.5 128.5 Z M 485.5 125.5 L 485.5 124 M 485.5 128.5 L 485.5 132" stroke="black" stroke-width="1"></path><path fill="#7cb5ec" d="M 488.5 131.5 L 488.5 124.5 L 490.5 124.5 L 490.5 131.5 Z M 489.5 124.5 L 489.5 123 M 489.5 131.5 L 489.5 131" stroke="black" stroke-width="1"></path><path fill="white" d="M 491.5 130.5 L 491.5 127.5 L 493.5 127.5 L 493.5 130.5 Z M 492.5 127.5 L 492.5 126 M 492.5 130.5 L 492.5 131" stroke="black" stroke-width="1"></path><path fill="white" d="M 494.5 126.5 L 494.5 117.5 L 496.5 117.5 L 496.5 126.5 Z M 495.5 117.5 L 495.5 116 M 495.5 126.5 L 495.5 127" stroke="black" stroke-width="1"></path><path fill="white" d="M 498.5 117.5 L 498.5 108.5 L 500.5 108.5 L 500.5 117.5 Z M 499.5 108.5 L 499.5 105 M 499.5 117.5 L 499.5 118" stroke="black" stroke-width="1"></path><path fill="#7cb5ec" d="M 501.5 110.5 L 501.5 108.5 L 503.5 108.5 L 503.5 110.5 Z M 502.5 108.5 L 502.5 106 M 502.5 110.5 L 502.5 120" stroke="black" stroke-width="1"></path><path fill="white" d="M 505.5 110.5 L 505.5 110.5 L 507.5 110.5 L 507.5 110.5 Z M 506.5 110.5 L 506.5 103 M 506.5 110.5 L 506.5 114" stroke="black" stroke-width="1"></path><path fill="white" d="M 508.5 111.5 L 508.5 110.5 L 510.5 110.5 L 510.5 111.5 Z M 509.5 110.5 L 509.5 107 M 509.5 111.5 L 509.5 115" stroke="black" stroke-width="1"></path><path fill="#7cb5ec" d="M 511.5 114.5 L 511.5 109.5 L 513.5 109.5 L 513.5 114.5 Z M 512.5 109.5 L 512.5 107 M 512.5 114.5 L 512.5 117" stroke="black" stroke-width="1"></path><path fill="white" d="M 515.5 113.5 L 515.5 101.5 L 517.5 101.5 L 517.5 113.5 Z M 516.5 101.5 L 516.5 98 M 516.5 113.5 L 516.5 114" stroke="black" stroke-width="1"></path><path fill="white" d="M 518.5 101.5 L 518.5 96.5 L 520.5 96.5 L 520.5 101.5 Z M 519.5 96.5 L 519.5 90 M 519.5 101.5 L 519.5 103" stroke="black" stroke-width="1"></path><path fill="white" d="M 522.5 95.5 L 522.5 93.5 L 524.5 93.5 L 524.5 95.5 Z M 523.5 93.5 L 523.5 89 M 523.5 95.5 L 523.5 97" stroke="black" stroke-width="1"></path><path fill="white" d="M 525.5 92.5 L 525.5 88.5 L 527.5 88.5 L 527.5 92.5 Z M 526.5 88.5 L 526.5 87 M 526.5 92.5 L 526.5 92.5" stroke="black" stroke-width="1"></path><path fill="white" d="M 528.5 88.5 L 528.5 83.5 L 530.5 83.5 L 530.5 88.5 Z M 529.5 83.5 L 529.5 78 M 529.5 88.5 L 529.5 89" stroke="black" stroke-width="1"></path><path fill="white" d="M 532.5 83.5 L 532.5 79.5 L 534.5 79.5 L 534.5 83.5 Z M 533.5 79.5 L 533.5 75 M 533.5 83.5 L 533.5 85" stroke="black" stroke-width="1"></path><path fill="#7cb5ec" d="M 535.5 80.5 L 535.5 78.5 L 537.5 78.5 L 537.5 80.5 Z M 536.5 78.5 L 536.5 76 M 536.5 80.5 L 536.5 88" stroke="black" stroke-width="1"></path><path fill="white" d="M 538.5 80.5 L 538.5 80.5 L 540.5 80.5 L 540.5 80.5 Z M 539.5 80.5 L 539.5 77 M 539.5 80.5 L 539.5 90" stroke="black" stroke-width="1"></path><path fill="#7cb5ec" d="M 542.5 80.5 L 542.5 79.5 L 544.5 79.5 L 544.5 80.5 Z M 543.5 79.5 L 543.5 79.5 M 543.5 80.5 L 543.5 87" stroke="black" stroke-width="1"></path><path fill="#7cb5ec" d="M 545.5 85.5 L 545.5 80.5 L 547.5 80.5 L 547.5 85.5 Z M 546.5 80.5 L 546.5 79 M 546.5 85.5 L 546.5 93" stroke="black" stroke-width="1"></path><path fill="white" d="M 549.5 85.5 L 549.5 67.5 L 551.5 67.5 L 551.5 85.5 Z M 550.5 67.5 L 550.5 62 M 550.5 85.5 L 550.5 85" stroke="black" stroke-width="1"></path><path fill="#7cb5ec" d="M 552.5 69.5 L 552.5 65.5 L 554.5 65.5 L 554.5 69.5 Z M 553.5 65.5 L 553.5 64 M 553.5 69.5 L 553.5 81" stroke="black" stroke-width="1"></path><path fill="#7cb5ec" d="M 555.5 70.5 L 555.5 69.5 L 557.5 69.5 L 557.5 70.5 Z M 556.5 69.5 L 556.5 57 M 556.5 70.5 L 556.5 75" stroke="black" stroke-width="1"></path><path fill="white" d="M 559.5 70.5 L 559.5 57.5 L 561.5 57.5 L 561.5 70.5 Z M 560.5 57.5 L 560.5 57.5 M 560.5 70.5 L 560.5 79" stroke="black" stroke-width="1"></path></g><g class="highcharts-markers" visibility="visible"  transform="translate(10,93) scale(1 1)" clip-path="none"></g><g class="highcharts-series" visibility="visible"  transform="translate(24,331) scale(1 1)" clip-path="url(#highcharts-4)"><path fill="rgb(69,114,167)" fill-opacity="0.0" d="M 0 36.6 C 0 36.6 1.9 36.6 3.3 36.5 C 4.4 36.5 5.0 36.4 6.2 36.4 C 7.6 36.4 8.2 36.3 9.5 36.3 C 10.8 36.3 11.4 36.3 12.7 36.3 C 14.0 36.3 14.7 36.3 16.0 36.3 C 17.3 36.3 17.9 36.3 19.2 36.3 C 20.5 36.3 21.2 36.2 22.5 36.2 C 23.8 36.2 24.5 36.2 25.8 36.2 C 27.1 36.2 27.7 36.1 29.0 36.1 C 30.3 36.1 31.0 36.1 32.3 36.1 C 33.6 36.1 34.2 36.2 35.5 36.2 C 36.8 36.2 37.5 36.0 38.8 36.0 C 40.1 36.0 40.8 36.0 42.1 36.0 C 43.3 36.0 43.9 36.2 45.1 36.2 C 46.4 36.2 47.1 36.2 48.4 36.1 C 49.7 36.1 50.3 35.9 51.6 35.9 C 52.9 35.9 53.6 36.0 54.9 36.0 C 56.2 36.0 56.8 36.0 58.1 35.9 C 59.4 35.9 60.1 35.8 61.4 35.7 C 62.7 35.6 63.4 35.5 64.7 35.5 C 66.0 35.5 66.6 35.6 67.9 35.6 C 69.2 35.6 69.9 35.4 71.2 35.2 C 72.4 35.1 73.1 34.9 74.4 34.8 C 75.7 34.7 76.3 34.7 77.7 34.7 C 79.0 34.7 79.6 34.7 81.0 34.7 C 82.2 34.7 82.8 34.5 84.1 34.4 C 85.4 34.3 86.0 34.0 87.4 34.0 C 88.6 34.0 89.3 34.1 90.5 34.3 C 91.9 34.5 92.5 35.1 93.8 35.1 C 95.1 35.1 95.8 34.7 97.0 34.7 C 98.4 34.7 99.0 34.8 100.3 34.8 C 101.7 34.8 102.3 34.3 103.6 34.3 C 104.9 34.3 105.6 35.5 106.8 35.8 C 108.2 36.1 108.8 36.0 110.1 36.1 C 111.4 36.2 112.1 36.1 113.3 36.2 C 114.6 36.2 115.3 36.3 116.6 36.3 C 117.9 36.3 118.6 36.0 119.9 36.0 C 121.1 36.0 121.7 36.1 122.9 36.1 C 124.2 36.1 124.9 36.0 126.2 36.0 C 127.5 35.9 128.1 35.8 129.4 35.8 C 130.7 35.8 131.4 36.1 132.7 36.1 C 134.0 36.1 134.6 35.9 135.9 35.9 C 137.2 35.9 137.9 36.1 139.2 36.1 C 140.5 36.1 141.2 36.1 142.5 36.1 C 143.8 36.1 144.4 36.2 145.7 36.2 C 147.0 36.2 147.7 36.2 149.0 36.2 C 150.3 36.1 150.9 36.0 152.2 36.0 C 153.5 36.0 154.2 36.0 155.5 36.0 C 156.8 35.9 157.5 35.9 158.8 35.9 C 160.0 35.9 160.6 36.0 161.8 36.0 C 163.1 36.0 163.7 35.9 165.1 35.9 C 166.3 35.9 167.0 35.9 168.3 35.9 C 169.6 35.9 170.2 35.9 171.6 35.9 C 172.8 36.0 173.5 36.1 174.8 36.2 C 176.1 36.2 176.7 36.2 178.1 36.3 C 179.4 36.3 180.0 36.3 181.4 36.3 C 182.6 36.3 183.3 36.3 184.5 36.3 C 185.9 36.3 186.5 36.2 187.8 36.2 C 189.1 36.2 189.8 36.2 191.0 36.2 C 192.4 36.2 193.0 36.3 194.3 36.3 C 195.7 36.3 196.3 36.3 197.6 36.3 C 198.8 36.3 199.4 36.3 200.6 36.3 C 201.9 36.3 202.6 36.3 203.9 36.3 C 205.2 36.3 205.8 36.3 207.1 36.3 C 208.4 36.3 209.1 36.2 210.4 36.1 C 211.7 36.1 212.3 36.1 213.6 36.1 C 214.9 36.1 215.6 36.0 216.9 36.0 C 218.2 36.0 218.9 35.9 220.2 35.9 C 221.5 35.9 222.1 36.0 223.4 36.0 C 224.7 36.0 225.4 35.9 226.7 35.9 C 228.0 35.9 228.6 36.0 229.9 36.0 C 231.2 36.0 231.9 36.0 233.2 36.0 C 234.5 36.0 235.2 36.0 236.5 36.0 C 237.7 35.9 238.4 35.9 239.6 35.9 C 240.9 35.9 241.6 35.8 242.9 35.8 C 244.2 35.8 244.8 35.8 246.1 35.8 C 247.4 35.8 248.1 35.8 249.4 35.7 C 250.7 35.7 251.3 35.5 252.6 35.5 C 253.9 35.5 254.6 35.6 255.9 35.6 C 257.2 35.6 257.9 35.5 259.2 35.4 C 260.5 35.4 261.1 35.4 262.4 35.3 C 263.7 35.1 264.3 34.9 265.7 34.7 C 266.9 34.4 267.6 34.1 268.9 34.1 C 270.2 34.1 270.8 34.2 272.2 34.2 C 273.5 34.2 274.1 33.9 275.5 33.6 C 276.7 33.4 277.3 33.1 278.4 33.1 C 279.8 33.1 280.4 33.2 281.7 33.4 C 283.0 33.5 283.7 33.8 284.9 33.8 C 286.3 33.8 286.9 33.6 288.2 33.6 C 289.5 33.6 290.2 33.8 291.4 33.8 C 292.8 33.8 293.4 33.5 294.7 33.3 C 296.1 33.1 296.7 33.1 298.0 32.9 C 299.3 32.8 299.9 32.6 301.2 32.4 C 302.5 32.2 303.2 32.3 304.5 32.1 C 305.8 31.8 306.4 31.5 307.7 31.2 C 309.0 30.9 309.7 30.9 311.0 30.8 C 312.3 30.7 313.0 30.6 314.3 30.6 C 315.5 30.6 316.1 30.9 317.3 31.1 C 318.6 31.3 319.3 31.6 320.6 31.6 C 321.9 31.6 322.5 30.9 323.8 30.9 C 325.1 30.9 325.8 31.7 327.1 31.9 C 328.4 32.0 329.0 32.0 330.3 32.0 C 331.6 32.0 332.3 31.2 333.6 31.2 C 334.9 31.1 335.6 31.2 336.9 31.1 C 338.2 31.1 338.8 30.6 340.1 30.3 C 341.4 30.1 342.1 30.3 343.4 30.0 C 344.7 29.8 345.3 29.1 346.6 29.1 C 347.9 29.1 348.6 29.6 349.9 29.6 C 351.2 29.6 351.9 29.6 353.2 29.6 C 354.4 29.7 355.0 29.7 356.2 29.7 C 357.5 29.7 358.1 29.2 359.5 28.9 C 360.7 28.7 361.4 28.9 362.7 28.5 C 364.0 28.0 364.6 26.8 366.0 26.7 C 367.2 26.5 367.9 26.7 369.1 26.5 C 370.5 26.4 371.1 26.0 372.4 25.8 C 373.8 25.5 374.4 25.5 375.7 25.2 C 377.0 24.8 377.7 24.8 378.9 24.0 C 380.3 23.1 380.9 20.9 382.2 20.9 C 383.5 20.9 384.2 21.5 385.4 21.5 C 386.8 21.5 387.4 20.0 388.7 20.0 C 390.1 20.0 390.7 24.4 392.0 25.4 C 393.3 26.3 393.9 26.3 395.1 26.3 C 396.4 26.3 397.1 25.6 398.4 24.7 C 399.7 23.9 400.3 22.8 401.6 22.1 C 402.9 21.4 403.6 21.0 404.9 21.0 C 406.2 21.0 406.8 22.4 408.1 22.9 C 409.4 23.4 410.1 23.5 411.4 23.5 C 412.7 23.5 413.4 22.4 414.7 22.4 C 416.0 22.4 416.6 26.8 417.9 27.3 C 419.2 27.7 419.9 27.3 421.2 27.7 C 422.5 28.1 423.1 28.8 424.4 29.2 C 425.7 29.6 426.4 29.6 427.7 29.6 C 429.0 29.6 429.7 29.3 431.0 29.3 C 432.2 29.3 432.8 29.5 434.0 29.5 C 435.3 29.5 436.0 28.7 437.3 28.0 C 438.6 27.4 439.2 26.8 440.5 26.3 C 441.8 25.7 442.5 25.7 443.8 25.4 C 445.1 25.1 445.7 25.3 447.0 24.8 C 448.3 24.3 448.9 23.3 450.3 23.0 C 451.6 22.6 452.2 23.0 453.6 22.6 C 454.8 22.3 455.5 21.6 456.8 21.3 C 458.1 20.9 458.7 21.1 460.1 20.9 C 461.3 20.6 462.0 20.3 463.3 19.9 C 464.6 19.5 465.2 19.0 466.6 19.0 C 467.9 19.0 468.5 20.6 469.9 20.6 C 471.0 20.6 471.6 20.2 472.8 19.5 C 474.2 18.7 474.8 18.0 476.1 17.0 C 477.4 16.1 478.1 14.7 479.3 14.7 C 480.7 14.7 481.3 15.0 482.6 15.2 C 483.9 15.4 484.5 15.6 485.8 15.6 C 487.1 15.6 487.8 15.0 489.1 15.0 C 490.4 15.0 491.1 16.1 492.4 16.1 C 493.7 16.1 494.3 13.7 495.6 12.8 C 496.9 11.8 497.6 11.7 498.9 11.2 C 500.2 10.8 500.8 10.8 502.1 10.4 C 503.4 10.1 504.1 10.0 505.4 9.5 C 506.7 9.0 507.4 8.7 508.7 8.2 C 509.9 7.7 510.5 6.9 511.7 6.9 C 513.0 6.9 513.7 7.3 515.0 7.3 C 516.3 7.3 516.9 7.1 518.2 7.1 C 519.5 7.1 520.2 7.1 521.5 7.4 C 522.8 7.7 523.4 8.5 524.7 8.5 C 526.0 8.5 526.7 3.3 528.0 3.3 C 529.3 3.3 530.0 4.0 531.3 4.3 C 532.6 4.6 534.5 4.8 534.5 4.8 L 534.5 40 L 0 40" ></path><path fill="none" d="M 0 36.6 C 0 36.6 1.9 36.6 3.3 36.5 C 4.4 36.5 5.0 36.4 6.2 36.4 C 7.6 36.4 8.2 36.3 9.5 36.3 C 10.8 36.3 11.4 36.3 12.7 36.3 C 14.0 36.3 14.7 36.3 16.0 36.3 C 17.3 36.3 17.9 36.3 19.2 36.3 C 20.5 36.3 21.2 36.2 22.5 36.2 C 23.8 36.2 24.5 36.2 25.8 36.2 C 27.1 36.2 27.7 36.1 29.0 36.1 C 30.3 36.1 31.0 36.1 32.3 36.1 C 33.6 36.1 34.2 36.2 35.5 36.2 C 36.8 36.2 37.5 36.0 38.8 36.0 C 40.1 36.0 40.8 36.0 42.1 36.0 C 43.3 36.0 43.9 36.2 45.1 36.2 C 46.4 36.2 47.1 36.2 48.4 36.1 C 49.7 36.1 50.3 35.9 51.6 35.9 C 52.9 35.9 53.6 36.0 54.9 36.0 C 56.2 36.0 56.8 36.0 58.1 35.9 C 59.4 35.9 60.1 35.8 61.4 35.7 C 62.7 35.6 63.4 35.5 64.7 35.5 C 66.0 35.5 66.6 35.6 67.9 35.6 C 69.2 35.6 69.9 35.4 71.2 35.2 C 72.4 35.1 73.1 34.9 74.4 34.8 C 75.7 34.7 76.3 34.7 77.7 34.7 C 79.0 34.7 79.6 34.7 81.0 34.7 C 82.2 34.7 82.8 34.5 84.1 34.4 C 85.4 34.3 86.0 34.0 87.4 34.0 C 88.6 34.0 89.3 34.1 90.5 34.3 C 91.9 34.5 92.5 35.1 93.8 35.1 C 95.1 35.1 95.8 34.7 97.0 34.7 C 98.4 34.7 99.0 34.8 100.3 34.8 C 101.7 34.8 102.3 34.3 103.6 34.3 C 104.9 34.3 105.6 35.5 106.8 35.8 C 108.2 36.1 108.8 36.0 110.1 36.1 C 111.4 36.2 112.1 36.1 113.3 36.2 C 114.6 36.2 115.3 36.3 116.6 36.3 C 117.9 36.3 118.6 36.0 119.9 36.0 C 121.1 36.0 121.7 36.1 122.9 36.1 C 124.2 36.1 124.9 36.0 126.2 36.0 C 127.5 35.9 128.1 35.8 129.4 35.8 C 130.7 35.8 131.4 36.1 132.7 36.1 C 134.0 36.1 134.6 35.9 135.9 35.9 C 137.2 35.9 137.9 36.1 139.2 36.1 C 140.5 36.1 141.2 36.1 142.5 36.1 C 143.8 36.1 144.4 36.2 145.7 36.2 C 147.0 36.2 147.7 36.2 149.0 36.2 C 150.3 36.1 150.9 36.0 152.2 36.0 C 153.5 36.0 154.2 36.0 155.5 36.0 C 156.8 35.9 157.5 35.9 158.8 35.9 C 160.0 35.9 160.6 36.0 161.8 36.0 C 163.1 36.0 163.7 35.9 165.1 35.9 C 166.3 35.9 167.0 35.9 168.3 35.9 C 169.6 35.9 170.2 35.9 171.6 35.9 C 172.8 36.0 173.5 36.1 174.8 36.2 C 176.1 36.2 176.7 36.2 178.1 36.3 C 179.4 36.3 180.0 36.3 181.4 36.3 C 182.6 36.3 183.3 36.3 184.5 36.3 C 185.9 36.3 186.5 36.2 187.8 36.2 C 189.1 36.2 189.8 36.2 191.0 36.2 C 192.4 36.2 193.0 36.3 194.3 36.3 C 195.7 36.3 196.3 36.3 197.6 36.3 C 198.8 36.3 199.4 36.3 200.6 36.3 C 201.9 36.3 202.6 36.3 203.9 36.3 C 205.2 36.3 205.8 36.3 207.1 36.3 C 208.4 36.3 209.1 36.2 210.4 36.1 C 211.7 36.1 212.3 36.1 213.6 36.1 C 214.9 36.1 215.6 36.0 216.9 36.0 C 218.2 36.0 218.9 35.9 220.2 35.9 C 221.5 35.9 222.1 36.0 223.4 36.0 C 224.7 36.0 225.4 35.9 226.7 35.9 C 228.0 35.9 228.6 36.0 229.9 36.0 C 231.2 36.0 231.9 36.0 233.2 36.0 C 234.5 36.0 235.2 36.0 236.5 36.0 C 237.7 35.9 238.4 35.9 239.6 35.9 C 240.9 35.9 241.6 35.8 242.9 35.8 C 244.2 35.8 244.8 35.8 246.1 35.8 C 247.4 35.8 248.1 35.8 249.4 35.7 C 250.7 35.7 251.3 35.5 252.6 35.5 C 253.9 35.5 254.6 35.6 255.9 35.6 C 257.2 35.6 257.9 35.5 259.2 35.4 C 260.5 35.4 261.1 35.4 262.4 35.3 C 263.7 35.1 264.3 34.9 265.7 34.7 C 266.9 34.4 267.6 34.1 268.9 34.1 C 270.2 34.1 270.8 34.2 272.2 34.2 C 273.5 34.2 274.1 33.9 275.5 33.6 C 276.7 33.4 277.3 33.1 278.4 33.1 C 279.8 33.1 280.4 33.2 281.7 33.4 C 283.0 33.5 283.7 33.8 284.9 33.8 C 286.3 33.8 286.9 33.6 288.2 33.6 C 289.5 33.6 290.2 33.8 291.4 33.8 C 292.8 33.8 293.4 33.5 294.7 33.3 C 296.1 33.1 296.7 33.1 298.0 32.9 C 299.3 32.8 299.9 32.6 301.2 32.4 C 302.5 32.2 303.2 32.3 304.5 32.1 C 305.8 31.8 306.4 31.5 307.7 31.2 C 309.0 30.9 309.7 30.9 311.0 30.8 C 312.3 30.7 313.0 30.6 314.3 30.6 C 315.5 30.6 316.1 30.9 317.3 31.1 C 318.6 31.3 319.3 31.6 320.6 31.6 C 321.9 31.6 322.5 30.9 323.8 30.9 C 325.1 30.9 325.8 31.7 327.1 31.9 C 328.4 32.0 329.0 32.0 330.3 32.0 C 331.6 32.0 332.3 31.2 333.6 31.2 C 334.9 31.1 335.6 31.2 336.9 31.1 C 338.2 31.1 338.8 30.6 340.1 30.3 C 341.4 30.1 342.1 30.3 343.4 30.0 C 344.7 29.8 345.3 29.1 346.6 29.1 C 347.9 29.1 348.6 29.6 349.9 29.6 C 351.2 29.6 351.9 29.6 353.2 29.6 C 354.4 29.7 355.0 29.7 356.2 29.7 C 357.5 29.7 358.1 29.2 359.5 28.9 C 360.7 28.7 361.4 28.9 362.7 28.5 C 364.0 28.0 364.6 26.8 366.0 26.7 C 367.2 26.5 367.9 26.7 369.1 26.5 C 370.5 26.4 371.1 26.0 372.4 25.8 C 373.8 25.5 374.4 25.5 375.7 25.2 C 377.0 24.8 377.7 24.8 378.9 24.0 C 380.3 23.1 380.9 20.9 382.2 20.9 C 383.5 20.9 384.2 21.5 385.4 21.5 C 386.8 21.5 387.4 20.0 388.7 20.0 C 390.1 20.0 390.7 24.4 392.0 25.4 C 393.3 26.3 393.9 26.3 395.1 26.3 C 396.4 26.3 397.1 25.6 398.4 24.7 C 399.7 23.9 400.3 22.8 401.6 22.1 C 402.9 21.4 403.6 21.0 404.9 21.0 C 406.2 21.0 406.8 22.4 408.1 22.9 C 409.4 23.4 410.1 23.5 411.4 23.5 C 412.7 23.5 413.4 22.4 414.7 22.4 C 416.0 22.4 416.6 26.8 417.9 27.3 C 419.2 27.7 419.9 27.3 421.2 27.7 C 422.5 28.1 423.1 28.8 424.4 29.2 C 425.7 29.6 426.4 29.6 427.7 29.6 C 429.0 29.6 429.7 29.3 431.0 29.3 C 432.2 29.3 432.8 29.5 434.0 29.5 C 435.3 29.5 436.0 28.7 437.3 28.0 C 438.6 27.4 439.2 26.8 440.5 26.3 C 441.8 25.7 442.5 25.7 443.8 25.4 C 445.1 25.1 445.7 25.3 447.0 24.8 C 448.3 24.3 448.9 23.3 450.3 23.0 C 451.6 22.6 452.2 23.0 453.6 22.6 C 454.8 22.3 455.5 21.6 456.8 21.3 C 458.1 20.9 458.7 21.1 460.1 20.9 C 461.3 20.6 462.0 20.3 463.3 19.9 C 464.6 19.5 465.2 19.0 466.6 19.0 C 467.9 19.0 468.5 20.6 469.9 20.6 C 471.0 20.6 471.6 20.2 472.8 19.5 C 474.2 18.7 474.8 18.0 476.1 17.0 C 477.4 16.1 478.1 14.7 479.3 14.7 C 480.7 14.7 481.3 15.0 482.6 15.2 C 483.9 15.4 484.5 15.6 485.8 15.6 C 487.1 15.6 487.8 15.0 489.1 15.0 C 490.4 15.0 491.1 16.1 492.4 16.1 C 493.7 16.1 494.3 13.7 495.6 12.8 C 496.9 11.8 497.6 11.7 498.9 11.2 C 500.2 10.8 500.8 10.8 502.1 10.4 C 503.4 10.1 504.1 10.0 505.4 9.5 C 506.7 9.0 507.4 8.7 508.7 8.2 C 509.9 7.7 510.5 6.9 511.7 6.9 C 513.0 6.9 513.7 7.3 515.0 7.3 C 516.3 7.3 516.9 7.1 518.2 7.1 C 519.5 7.1 520.2 7.1 521.5 7.4 C 522.8 7.7 523.4 8.5 524.7 8.5 C 526.0 8.5 526.7 3.3 528.0 3.3 C 529.3 3.3 530.0 4.0 531.3 4.3 C 532.6 4.6 534.5 4.8 534.5 4.8" stroke="#4572A7" stroke-width="1"  stroke-linejoin="round" stroke-linecap="round"></path></g><g class="highcharts-markers" visibility="visible"  transform="translate(24,331) scale(1 1)" clip-path="url(#highcharts-3)"></g></g><g class="highcharts-navigator" ><rect fill="rgb(128,179,236)" fill-opacity="0.3" style="cursor:ew-resize ;" x="24" y="331" width="536" height="40"></rect><path fill="none" stroke="#b2b1b6" stroke-width="1" d="M 10 331.5 L 23.5 331.5 23.5 385.5 L 559.5 385.5 L 559.5 331.5 574 331.5 M 24.5 331.5 L 559.5 331.5"></path></g><g class="highcharts-navigator-handle-right" style="cursor:ew-resize;"  transform="translate(560,343)"><rect x="-4.5" y="0.5" width="8" height="15" strokeWidth="1" fill="#ebe7e8" stroke="#b2b1b6" stroke-width="1"></rect><path fill="#ebe7e8" d="M -1.5 4 L -1.5 12 M 0.5 4 L 0.5 12" stroke="#b2b1b6" stroke-width="1"></path></g><text x="292" text-anchor="middle" class="highcharts-title"  style="color:#333333;font-size:16px;fill:#333333;width:520px;" y="22"><tspan>AAPL history by the minute from 1998 to 2011</tspan></text><text x="292" text-anchor="middle" class="highcharts-subtitle"  style="color:#555555;fill:#555555;width:520px;" y="43"><tspan>Displaying 1.7 million data points in Highcharts Stock by async server loading</tspan></text><g class="highcharts-navigator-handle-left" style="cursor:ew-resize;"  transform="translate(24,343)"><rect x="-4.5" y="0.5" width="8" height="15" strokeWidth="1" fill="#ebe7e8" stroke="#b2b1b6" stroke-width="1"></rect><path fill="#ebe7e8" d="M -1.5 4 L -1.5 12 M 0.5 4 L 0.5 12" stroke="#b2b1b6" stroke-width="1"></path></g><g class="highcharts-axis-labels highcharts-xaxis-labels" ><text x="52.3" style="color:#606060;cursor:default;font-size:11px;fill:#606060;" text-anchor="middle" transform="translate(0,0)" y="304" opacity="1">1999</text><text x="133.7" style="color:#606060;cursor:default;font-size:11px;fill:#606060;" text-anchor="middle" transform="translate(0,0)" y="304" opacity="1">2001</text><text x="215.0" style="color:#606060;cursor:default;font-size:11px;fill:#606060;" text-anchor="middle" transform="translate(0,0)" y="304" opacity="1">2003</text><text x="296.4" style="color:#606060;cursor:default;font-size:11px;fill:#606060;" text-anchor="middle" transform="translate(0,0)" y="304" opacity="1">2005</text><text x="377.6" style="color:#606060;cursor:default;font-size:11px;fill:#606060;" text-anchor="middle" transform="translate(0,0)" y="304" opacity="1">2007</text><text x="459.0" style="color:#606060;cursor:default;font-size:11px;fill:#606060;" text-anchor="middle" transform="translate(0,0)" y="304" opacity="1">2009</text><text x="540.3" style="color:#606060;cursor:default;font-size:11px;fill:#606060;" text-anchor="middle" transform="translate(0,0)" y="304" opacity="1">2011</text></g><g class="highcharts-axis-labels highcharts-xaxis-labels" ><text x="27" style="color:#888;cursor:default;font-size:11px;fill:#888;width:178px;text-overflow:clip;" text-anchor="start" transform="translate(0,0)" y="367" opacity="1">1998</text><text x="260.2" style="color:#888;cursor:default;font-size:11px;fill:#888;width:178px;text-overflow:clip;" text-anchor="start" transform="translate(0,0)" y="367" opacity="1">2004</text><text x="493.6" style="color:#888;cursor:default;font-size:11px;fill:#888;width:178px;text-overflow:clip;" text-anchor="start" transform="translate(0,0)" y="367" opacity="1">2010</text></g><g class="highcharts-axis-labels highcharts-yaxis-labels" ><text x="574" style="color:#606060;cursor:default;font-size:11px;fill:#606060;width:183px;text-overflow:clip;" text-anchor="end" transform="translate(0,0)" y="283" opacity="1">0</text><text x="574" style="color:#606060;cursor:default;font-size:11px;fill:#606060;width:183px;text-overflow:clip;" text-anchor="end" transform="translate(0,0)" y="219" opacity="1">200</text><text x="574" style="color:#606060;cursor:default;font-size:11px;fill:#606060;width:183px;text-overflow:clip;" text-anchor="end" transform="translate(0,0)" y="155" opacity="1">400</text><text x="0" style="color:#606060;cursor:default;font-size:11px;fill:#606060;width:183px;text-overflow:clip;" text-anchor="end" transform="translate(0,0)" y="-9999">600</text></g><g class="highcharts-axis-labels highcharts-yaxis-labels" ></g><g class="highcharts-tooltip"  style="cursor:default;padding:0;white-space:nowrap;" transform="translate(0,-9999)"><path fill="none" d="M 3 0 L 13 0 C 16 0 16 0 16 3 L 16 13 C 16 16 16 16 13 16 L 3 16 C 0 16 0 16 0 13 L 0 3 C 0 0 0 0 3 0"  stroke="black" stroke-opacity="0.0" stroke-width="5" transform="translate(1, 1)"></path><path fill="none" d="M 3 0 L 13 0 C 16 0 16 0 16 3 L 16 13 C 16 16 16 16 13 16 L 3 16 C 0 16 0 16 0 13 L 0 3 C 0 0 0 0 3 0"  stroke="black" stroke-opacity="0.0" stroke-width="3" transform="translate(1, 1)"></path><path fill="none" d="M 3 0 L 13 0 C 16 0 16 0 16 3 L 16 13 C 16 16 16 16 13 16 L 3 16 C 0 16 0 16 0 13 L 0 3 C 0 0 0 0 3 0"  stroke="black" stroke-opacity="0.1" stroke-width="1" transform="translate(1, 1)"></path><path fill="rgb(249, 249, 249)" fill-opacity=" .85" d="M 3 0 L 13 0 C 16 0 16 0 16 3 L 16 13 C 16 16 16 16 13 16 L 3 16 C 0 16 0 16 0 13 L 0 3 C 0 0 0 0 3 0"></path><text x="8"  style="font-size:12px;color:#333333;fill:#333333;" y="20"></text></g></svg>