<svg version="1.1" style="font-family:&quot;lucida grande&quot;, &quot;lucida sans unicode&quot;, arial, helvetica, sans-serif;font-size:12px;" xmlns="http://www.w3.org/2000/svg" width="584" height="400" viewBox="0 0 584 400"><desc>Created with Highstock 2.1.0</desc><defs><clipPath id="highcharts-1"><rect x="0" y="0" width="564" height="206"></rect></clipPath><clipPath id="highcharts-2"><rect x="-99" y="-79" width="663" height="400"></rect></clipPath><clipPath id="highcharts-3"><rect x="0" y="0" width="564" height="206"></rect></clipPath><clipPath id="highcharts-4"><rect x="-99" y="-79" width="663" height="400"></rect></clipPath><clipPath id="highcharts-5"><rect x="0" y="0" width="564" height="40"></rect></clipPath></defs><rect x="0" y="0" width="584" height="400" strokeWidth="0" fill="#FFFFFF" class=" highcharts-background"></rect><g class="highcharts-scrollbar" transform="translate(10,372)"><rect x="0" y="-0.5" fill="#eeeeee" stroke="#eeeeee" stroke-width="1" rx="0" ry="0" height="14" width="564"></rect><rect y="-0.5" height="14" fill="#bfc8d1" stroke="#bfc8d1" stroke-width="1" rx="0" ry="0" x="531.5" width="18"></rect><path fill="none" stroke="#666" stroke-width="1" visibility="visible" d="M 537 3.5 L 537 9.3 M 540 3.5 L 540 9.3 M 543 3.5 L 543 9.3"></path><g><rect x="-0.5" y="-0.5" width="14" height="14" strokeWidth="1" stroke="#bbb" stroke-width="1" fill="#ebe7e8"></rect><path fill="#666" d="M 8 4 L 8 10 5 7"></path></g><g transform="translate(550,0)"><rect x="-0.5" y="-0.5" width="14" height="14" strokeWidth="1" stroke="#bbb" stroke-width="1" fill="#ebe7e8"></rect><path fill="#666" d="M 6 4 L 6 10 9 7"></path></g></g><g class="highcharts-range-selector-buttons"><text x="10" y="59" style="color:#666;fill:#666;">Zoom</text><g class="highcharts-button"  states="[object Object]" style="cursor:pointer;text-align:center;" transform="translate(46,44)"><rect x="0" y="0" width="32" height="22" strokeWidth="0" fill="#f7f7f7" rx="0" ry="0"></rect><text x="7.5"  style="font-weight:normal;color:#444;fill:#444;" y="14">1m</text></g><g class="highcharts-button"  states="[object Object]" style="cursor:pointer;text-align:center;" transform="translate(83,44)"><rect x="0" y="0" width="32" height="22" strokeWidth="0" fill="#e7f0f9" rx="0" ry="0"></rect><text x="7.5"  style="font-weight:bold;color:black;fill:black;" y="14">3m</text></g><g class="highcharts-button"  states="[object Object]" style="cursor:pointer;text-align:center;" transform="translate(120,44)"><rect x="0" y="0" width="32" height="22" strokeWidth="0" fill="#f7f7f7" rx="0" ry="0"></rect><text x="7.5"  style="font-weight:normal;color:#444;fill:#444;" y="14">6m</text></g><g class="highcharts-button"  states="[object Object]" style="cursor:pointer;text-align:center;" transform="translate(157,44)"><rect x="0" y="0" width="32" height="22" strokeWidth="0" fill="#f7f7f7" rx="0" ry="0"></rect><text x="4"  style="font-weight:normal;color:#444;fill:#444;" y="14">YTD</text></g><g class="highcharts-button"  states="[object Object]" style="cursor:pointer;text-align:center;" transform="translate(194,44)"><rect x="0" y="0" width="32" height="22" strokeWidth="0" fill="#f7f7f7" rx="0" ry="0"></rect><text x="9.5"  style="font-weight:normal;color:#444;fill:#444;" y="14">1y</text></g><g class="highcharts-button"  states="[object Object]" style="cursor:pointer;text-align:center;" transform="translate(231,44)"><rect x="0" y="0" width="32" height="22" strokeWidth="0" fill="#f7f7f7" rx="0" ry="0"></rect><text x="10"  style="font-weight:normal;color:#444;fill:#444;" y="14">All</text></g></g><g class="highcharts-input-group" transform="translate(316,44)" visibility="visible"><g style="fill:#666;" transform="translate(0,0)"><text x="2"  style="font-size:12px;font-family:&quot;lucida grande&quot;, &quot;lucida sans unicode&quot;, arial, helvetica, sans-serif;color:#666;fill:#666;" y="14">From</text></g><g style="text-align:center;" transform="translate(36,0)"><rect x="0.5" y="0.5" width="94" height="21" strokeWidth="1" fill="none" stroke="silver" stroke-width="1"></rect><text x="13.5"  style="font-size:12px;font-family:&quot;lucida grande&quot;, &quot;lucida sans unicode&quot;, arial, helvetica, sans-serif;color:#444;fill:#444;" y="14"><tspan>Feb 9, 2013</tspan></text></g><g style="fill:#666;" transform="translate(140,0)"><text x="2"  style="font-size:12px;font-family:&quot;lucida grande&quot;, &quot;lucida sans unicode&quot;, arial, helvetica, sans-serif;color:#666;fill:#666;" y="14">To</text></g><g style="text-align:center;" transform="translate(164,0)"><rect x="0.5" y="0.5" width="94" height="21" strokeWidth="1" fill="none" stroke="silver" stroke-width="1"></rect><text x="9.5"  style="font-size:12px;font-family:&quot;lucida grande&quot;, &quot;lucida sans unicode&quot;, arial, helvetica, sans-serif;color:#444;fill:#444;" y="14"><tspan>May 10, 2013</tspan></text></g></g><g class="highcharts-grid" ></g><g class="highcharts-grid" ><path fill="none" d="M 148.5 331 L 148.5 371" stroke="#EEE" stroke-width="1"  opacity="1"></path><path fill="none" d="M 302.5 331 L 302.5 371" stroke="#EEE" stroke-width="1"  opacity="1"></path><path fill="none" d="M 455.5 331 L 455.5 371" stroke="#EEE" stroke-width="1"  opacity="1"></path></g><g class="highcharts-grid" ><path fill="none" d="M 10 285.5 L 574 285.5" stroke="#D8D8D8" stroke-width="1"  opacity="1"></path><path fill="none" d="M 10 244.5 L 574 244.5" stroke="#D8D8D8" stroke-width="1"  opacity="1"></path><path fill="none" d="M 10 203.5 L 574 203.5" stroke="#D8D8D8" stroke-width="1"  opacity="1"></path><path fill="none" d="M 10 161.5 L 574 161.5" stroke="#D8D8D8" stroke-width="1"  opacity="1"></path><path fill="none" d="M 10 120.5 L 574 120.5" stroke="#D8D8D8" stroke-width="1"  opacity="1"></path><path fill="none" d="M 10 78.5 L 574 78.5" stroke="#D8D8D8" stroke-width="1"  opacity="1"></path></g><g class="highcharts-grid" ></g><g class="highcharts-axis" ><path fill="none" d="M 65.5 285 L 65.5 295" stroke="#C0D0E0" stroke-width="1" opacity="1"></path><path fill="none" d="M 153.5 285 L 153.5 295" stroke="#C0D0E0" stroke-width="1" opacity="1"></path><path fill="none" d="M 241.5 285 L 241.5 295" stroke="#C0D0E0" stroke-width="1" opacity="1"></path><path fill="none" d="M 329.5 285 L 329.5 295" stroke="#C0D0E0" stroke-width="1" opacity="1"></path><path fill="none" d="M 416.5 285 L 416.5 295" stroke="#C0D0E0" stroke-width="1" opacity="1"></path><path fill="none" d="M 504.5 285 L 504.5 295" stroke="#C0D0E0" stroke-width="1" opacity="1"></path><path fill="none" d="M 10 285.5 L 574 285.5" stroke="#C0D0E0" stroke-width="1"  visibility="visible"></path></g><g class="highcharts-axis" ></g><g class="highcharts-axis" ></g><g class="highcharts-axis" ></g><g class="highcharts-series-group" ><g class="highcharts-series" visibility="visible"  transform="translate(10,79) scale(1 1)" clip-path="url(#highcharts-3)"><path fill="none" d="M -6.2 41.2 L 12.5 33.0 L 18.8 52.9 L 25.0 54.3 L 31.3 55.0 L 37.6 65.6 L 62.6 65.9 L 68.9 84.2 L 75.2 88.8 L 81.4 81.0 L 100.2 94.2 L 106.5 84.0 L 112.8 91.3 L 119.0 96.5 L 125.3 114.5 L 144.1 131.7 L 150.4 113.4 L 156.6 122.5 L 162.9 114.4 L 169.2 112.5 L 188 102.3 L 194.2 117.9 L 200.5 118.0 L 206.7 111.2 L 213.0 92.8 L 231.8 72.9 L 238.1 75.0 L 244.4 78.9 L 250.6 77.9 L 256.9 62.7 L 275.7 60.0 L 282 64.0 L 288.2 78.9 L 294.5 94.4 L 319.5 117.1 L 325.8 115.7 L 332.1 112.0 L 338.4 119.1 L 344.6 126.5 L 363.4 121.6 L 369.7 120.3 L 376 105.9 L 382.2 108.2 L 388.5 115.6 L 407.3 132.0 L 413.5 121.5 L 419.8 160.1 L 426.1 177.9 L 432.4 180.4 L 451.2 166.9 L 457.4 154.6 L 463.7 155.8 L 470 150.9 L 476.2 136.4 L 495.0 115.1 L 501.3 94.2 L 507.5 100.0 L 513.8 89.7 L 520.1 82.4 L 538.9 64.7 L 545.1 68.1 L 551.4 59.5 L 557.7 71.2 L 564 77.5" stroke="black" stroke-width="5"  stroke-linejoin="round" stroke-linecap="round"  stroke-opacity="0.0" transform="translate(1, 1)"></path><path fill="none" d="M -6.2 41.2 L 12.5 33.0 L 18.8 52.9 L 25.0 54.3 L 31.3 55.0 L 37.6 65.6 L 62.6 65.9 L 68.9 84.2 L 75.2 88.8 L 81.4 81.0 L 100.2 94.2 L 106.5 84.0 L 112.8 91.3 L 119.0 96.5 L 125.3 114.5 L 144.1 131.7 L 150.4 113.4 L 156.6 122.5 L 162.9 114.4 L 169.2 112.5 L 188 102.3 L 194.2 117.9 L 200.5 118.0 L 206.7 111.2 L 213.0 92.8 L 231.8 72.9 L 238.1 75.0 L 244.4 78.9 L 250.6 77.9 L 256.9 62.7 L 275.7 60.0 L 282 64.0 L 288.2 78.9 L 294.5 94.4 L 319.5 117.1 L 325.8 115.7 L 332.1 112.0 L 338.4 119.1 L 344.6 126.5 L 363.4 121.6 L 369.7 120.3 L 376 105.9 L 382.2 108.2 L 388.5 115.6 L 407.3 132.0 L 413.5 121.5 L 419.8 160.1 L 426.1 177.9 L 432.4 180.4 L 451.2 166.9 L 457.4 154.6 L 463.7 155.8 L 470 150.9 L 476.2 136.4 L 495.0 115.1 L 501.3 94.2 L 507.5 100.0 L 513.8 89.7 L 520.1 82.4 L 538.9 64.7 L 545.1 68.1 L 551.4 59.5 L 557.7 71.2 L 564 77.5" stroke="black" stroke-width="3"  stroke-linejoin="round" stroke-linecap="round"  stroke-opacity="0.0" transform="translate(1, 1)"></path><path fill="none" d="M -6.2 41.2 L 12.5 33.0 L 18.8 52.9 L 25.0 54.3 L 31.3 55.0 L 37.6 65.6 L 62.6 65.9 L 68.9 84.2 L 75.2 88.8 L 81.4 81.0 L 100.2 94.2 L 106.5 84.0 L 112.8 91.3 L 119.0 96.5 L 125.3 114.5 L 144.1 131.7 L 150.4 113.4 L 156.6 122.5 L 162.9 114.4 L 169.2 112.5 L 188 102.3 L 194.2 117.9 L 200.5 118.0 L 206.7 111.2 L 213.0 92.8 L 231.8 72.9 L 238.1 75.0 L 244.4 78.9 L 250.6 77.9 L 256.9 62.7 L 275.7 60.0 L 282 64.0 L 288.2 78.9 L 294.5 94.4 L 319.5 117.1 L 325.8 115.7 L 332.1 112.0 L 338.4 119.1 L 344.6 126.5 L 363.4 121.6 L 369.7 120.3 L 376 105.9 L 382.2 108.2 L 388.5 115.6 L 407.3 132.0 L 413.5 121.5 L 419.8 160.1 L 426.1 177.9 L 432.4 180.4 L 451.2 166.9 L 457.4 154.6 L 463.7 155.8 L 470 150.9 L 476.2 136.4 L 495.0 115.1 L 501.3 94.2 L 507.5 100.0 L 513.8 89.7 L 520.1 82.4 L 538.9 64.7 L 545.1 68.1 L 551.4 59.5 L 557.7 71.2 L 564 77.5" stroke="black" stroke-width="1"  stroke-linejoin="round" stroke-linecap="round"  stroke-opacity="0.1" transform="translate(1, 1)"></path><path fill="none" d="M -6.2 41.2 L 12.5 33.0 L 18.8 52.9 L 25.0 54.3 L 31.3 55.0 L 37.6 65.6 L 62.6 65.9 L 68.9 84.2 L 75.2 88.8 L 81.4 81.0 L 100.2 94.2 L 106.5 84.0 L 112.8 91.3 L 119.0 96.5 L 125.3 114.5 L 144.1 131.7 L 150.4 113.4 L 156.6 122.5 L 162.9 114.4 L 169.2 112.5 L 188 102.3 L 194.2 117.9 L 200.5 118.0 L 206.7 111.2 L 213.0 92.8 L 231.8 72.9 L 238.1 75.0 L 244.4 78.9 L 250.6 77.9 L 256.9 62.7 L 275.7 60.0 L 282 64.0 L 288.2 78.9 L 294.5 94.4 L 319.5 117.1 L 325.8 115.7 L 332.1 112.0 L 338.4 119.1 L 344.6 126.5 L 363.4 121.6 L 369.7 120.3 L 376 105.9 L 382.2 108.2 L 388.5 115.6 L 407.3 132.0 L 413.5 121.5 L 419.8 160.1 L 426.1 177.9 L 432.4 180.4 L 451.2 166.9 L 457.4 154.6 L 463.7 155.8 L 470 150.9 L 476.2 136.4 L 495.0 115.1 L 501.3 94.2 L 507.5 100.0 L 513.8 89.7 L 520.1 82.4 L 538.9 64.7 L 545.1 68.1 L 551.4 59.5 L 557.7 71.2 L 564 77.5" stroke="#7cb5ec" stroke-width="2"  stroke-linejoin="round" stroke-linecap="round"></path><path fill="none" d="M -16.2 41.2 L -6.2 41.2 L 12.5 33.0 L 18.8 52.9 L 25.0 54.3 L 31.3 55.0 L 37.6 65.6 L 62.6 65.9 L 68.9 84.2 L 75.2 88.8 L 81.4 81.0 L 100.2 94.2 L 106.5 84.0 L 112.8 91.3 L 119.0 96.5 L 125.3 114.5 L 144.1 131.7 L 150.4 113.4 L 156.6 122.5 L 162.9 114.4 L 169.2 112.5 L 188 102.3 L 194.2 117.9 L 200.5 118.0 L 206.7 111.2 L 213.0 92.8 L 231.8 72.9 L 238.1 75.0 L 244.4 78.9 L 250.6 77.9 L 256.9 62.7 L 275.7 60.0 L 282 64.0 L 288.2 78.9 L 294.5 94.4 L 319.5 117.1 L 325.8 115.7 L 332.1 112.0 L 338.4 119.1 L 344.6 126.5 L 363.4 121.6 L 369.7 120.3 L 376 105.9 L 382.2 108.2 L 388.5 115.6 L 407.3 132.0 L 413.5 121.5 L 419.8 160.1 L 426.1 177.9 L 432.4 180.4 L 451.2 166.9 L 457.4 154.6 L 463.7 155.8 L 470 150.9 L 476.2 136.4 L 495.0 115.1 L 501.3 94.2 L 507.5 100.0 L 513.8 89.7 L 520.1 82.4 L 538.9 64.7 L 545.1 68.1 L 551.4 59.5 L 557.7 71.2 L 564 77.5 L 574 77.5" stroke-linejoin="round" visibility="visible" stroke="rgb(192,192,192)" stroke-opacity="0.0" stroke-width="22"  class=" highcharts-tracker" style=""></path></g><g class="highcharts-markers highcharts-tracker" visibility="visible"  transform="translate(10,79) scale(1 1)" clip-path="url(#highcharts-2)" style=""><path fill="#7cb5ec" d="M 564 74.5 C 567.9 74.5 567.9 80.5 564 80.5 C 560.0 80.5 560.0 74.5 564 74.5 Z"></path><path fill="#7cb5ec" d="M 557 68.2 C 560.9 68.2 560.9 74.2 557 74.2 C 553.0 74.2 553.0 68.2 557 68.2 Z"></path><path fill="#7cb5ec" d="M 551 56.5 C 554.9 56.5 554.9 62.5 551 62.5 C 547.0 62.5 547.0 56.5 551 56.5 Z"></path><path fill="#7cb5ec" d="M 545 65.1 C 548.9 65.1 548.9 71.1 545 71.1 C 541.0 71.1 541.0 65.1 545 65.1 Z"></path><path fill="#7cb5ec" d="M 538 61.7 C 541.9 61.7 541.9 67.7 538 67.7 C 534.0 67.7 534.0 61.7 538 61.7 Z"></path><path fill="#7cb5ec" d="M 520 79.4 C 523.9 79.4 523.9 85.4 520 85.4 C 516.0 85.4 516.0 79.4 520 79.4 Z"></path><path fill="#7cb5ec" d="M 513 86.7 C 516.9 86.7 516.9 92.7 513 92.7 C 509.0 92.7 509.0 86.7 513 86.7 Z"></path><path fill="#7cb5ec" d="M 507 97.0 C 510.9 97.0 510.9 103.0 507 103.0 C 503.0 103.0 503.0 97.0 507 97.0 Z"></path><path fill="#7cb5ec" d="M 501 91.2 C 504.9 91.2 504.9 97.2 501 97.2 C 497.0 97.2 497.0 91.2 501 91.2 Z"></path><path fill="#7cb5ec" d="M 495 112.1 C 498.9 112.1 498.9 118.1 495 118.1 C 491.0 118.1 491.0 112.1 495 112.1 Z"></path><path fill="#7cb5ec" d="M 476 133.4 C 479.9 133.4 479.9 139.4 476 139.4 C 472.0 139.4 472.0 133.4 476 133.4 Z"></path><path fill="#7cb5ec" d="M 470 147.9 C 473.9 147.9 473.9 153.9 470 153.9 C 466.0 153.9 466.0 147.9 470 147.9 Z"></path><path fill="#7cb5ec" d="M 463 152.8 C 466.9 152.8 466.9 158.8 463 158.8 C 459.0 158.8 459.0 152.8 463 152.8 Z"></path><path fill="#7cb5ec" d="M 457 151.6 C 460.9 151.6 460.9 157.6 457 157.6 C 453.0 157.6 453.0 151.6 457 151.6 Z"></path><path fill="#7cb5ec" d="M 451 163.9 C 454.9 163.9 454.9 169.9 451 169.9 C 447.0 169.9 447.0 163.9 451 163.9 Z"></path><path fill="#7cb5ec" d="M 432 177.4 C 435.9 177.4 435.9 183.4 432 183.4 C 428.0 183.4 428.0 177.4 432 177.4 Z"></path><path fill="#7cb5ec" d="M 426 174.9 C 429.9 174.9 429.9 180.9 426 180.9 C 422.0 180.9 422.0 174.9 426 174.9 Z"></path><path fill="#7cb5ec" d="M 419 157.1 C 422.9 157.1 422.9 163.1 419 163.1 C 415.0 163.1 415.0 157.1 419 157.1 Z"></path><path fill="#7cb5ec" d="M 413 118.5 C 416.9 118.5 416.9 124.5 413 124.5 C 409.0 124.5 409.0 118.5 413 118.5 Z"></path><path fill="#7cb5ec" d="M 407 129.0 C 410.9 129.0 410.9 135.0 407 135.0 C 403.0 135.0 403.0 129.0 407 129.0 Z"></path><path fill="#7cb5ec" d="M 388 112.6 C 391.9 112.6 391.9 118.6 388 118.6 C 384.0 118.6 384.0 112.6 388 112.6 Z"></path><path fill="#7cb5ec" d="M 382 105.2 C 385.9 105.2 385.9 111.2 382 111.2 C 378.0 111.2 378.0 105.2 382 105.2 Z"></path><path fill="#7cb5ec" d="M 376 102.9 C 379.9 102.9 379.9 108.9 376 108.9 C 372.0 108.9 372.0 102.9 376 102.9 Z"></path><path fill="#7cb5ec" d="M 369 117.3 C 372.9 117.3 372.9 123.3 369 123.3 C 365.0 123.3 365.0 117.3 369 117.3 Z"></path><path fill="#7cb5ec" d="M 363 118.6 C 366.9 118.6 366.9 124.6 363 124.6 C 359.0 124.6 359.0 118.6 363 118.6 Z"></path><path fill="#7cb5ec" d="M 344 123.5 C 347.9 123.5 347.9 129.5 344 129.5 C 340.0 129.5 340.0 123.5 344 123.5 Z"></path><path fill="#7cb5ec" d="M 338 116.1 C 341.9 116.1 341.9 122.1 338 122.1 C 334.0 122.1 334.0 116.1 338 116.1 Z"></path><path fill="#7cb5ec" d="M 332 109.0 C 335.9 109.0 335.9 115.0 332 115.0 C 328.0 115.0 328.0 109.0 332 109.0 Z"></path><path fill="#7cb5ec" d="M 325 112.7 C 328.9 112.7 328.9 118.7 325 118.7 C 321.0 118.7 321.0 112.7 325 112.7 Z"></path><path fill="#7cb5ec" d="M 319 114.1 C 322.9 114.1 322.9 120.1 319 120.1 C 315.0 120.1 315.0 114.1 319 114.1 Z"></path><path fill="#7cb5ec" d="M 294 91.4 C 297.9 91.4 297.9 97.4 294 97.4 C 290.0 97.4 290.0 91.4 294 91.4 Z"></path><path fill="#7cb5ec" d="M 288 75.9 C 291.9 75.9 291.9 81.9 288 81.9 C 284.0 81.9 284.0 75.9 288 75.9 Z"></path><path fill="#7cb5ec" d="M 282 61.0 C 285.9 61.0 285.9 67.0 282 67.0 C 278.0 67.0 278.0 61.0 282 61.0 Z"></path><path fill="#7cb5ec" d="M 275 57.0 C 278.9 57.0 278.9 63.0 275 63.0 C 271.0 63.0 271.0 57.0 275 57.0 Z"></path><path fill="#7cb5ec" d="M 256 59.7 C 259.9 59.7 259.9 65.7 256 65.7 C 252.0 65.7 252.0 59.7 256 59.7 Z"></path><path fill="#7cb5ec" d="M 250 74.9 C 253.9 74.9 253.9 80.9 250 80.9 C 246.0 80.9 246.0 74.9 250 74.9 Z"></path><path fill="#7cb5ec" d="M 244 75.9 C 247.9 75.9 247.9 81.9 244 81.9 C 240.0 81.9 240.0 75.9 244 75.9 Z"></path><path fill="#7cb5ec" d="M 238 72.0 C 241.9 72.0 241.9 78.0 238 78.0 C 234.0 78.0 234.0 72.0 238 72.0 Z"></path><path fill="#7cb5ec" d="M 231 69.9 C 234.9 69.9 234.9 75.9 231 75.9 C 227.0 75.9 227.0 69.9 231 69.9 Z"></path><path fill="#7cb5ec" d="M 213 89.8 C 216.9 89.8 216.9 95.8 213 95.8 C 209.0 95.8 209.0 89.8 213 89.8 Z"></path><path fill="#7cb5ec" d="M 206 108.2 C 209.9 108.2 209.9 114.2 206 114.2 C 202.0 114.2 202.0 108.2 206 108.2 Z"></path><path fill="#7cb5ec" d="M 200 115.0 C 203.9 115.0 203.9 121.0 200 121.0 C 196.0 121.0 196.0 115.0 200 115.0 Z"></path><path fill="#7cb5ec" d="M 194 114.9 C 197.9 114.9 197.9 120.9 194 120.9 C 190.0 120.9 190.0 114.9 194 114.9 Z"></path><path fill="#7cb5ec" d="M 188 99.3 C 191.9 99.3 191.9 105.3 188 105.3 C 184.0 105.3 184.0 99.3 188 99.3 Z"></path><path fill="#7cb5ec" d="M 169 109.5 C 172.9 109.5 172.9 115.5 169 115.5 C 165.0 115.5 165.0 109.5 169 109.5 Z"></path><path fill="#7cb5ec" d="M 162 111.4 C 165.9 111.4 165.9 117.4 162 117.4 C 158.0 117.4 158.0 111.4 162 111.4 Z"></path><path fill="#7cb5ec" d="M 156 119.5 C 159.9 119.5 159.9 125.5 156 125.5 C 152.0 125.5 152.0 119.5 156 119.5 Z"></path><path fill="#7cb5ec" d="M 150 110.4 C 153.9 110.4 153.9 116.4 150 116.4 C 146.0 116.4 146.0 110.4 150 110.4 Z"></path><path fill="#7cb5ec" d="M 144 128.7 C 147.9 128.7 147.9 134.7 144 134.7 C 140.0 134.7 140.0 128.7 144 128.7 Z"></path><path fill="#7cb5ec" d="M 125 111.5 C 128.9 111.5 128.9 117.5 125 117.5 C 121.0 117.5 121.0 111.5 125 111.5 Z"></path><path fill="#7cb5ec" d="M 119 93.5 C 122.9 93.5 122.9 99.5 119 99.5 C 115.0 99.5 115.0 93.5 119 93.5 Z"></path><path fill="#7cb5ec" d="M 112 88.3 C 115.9 88.3 115.9 94.3 112 94.3 C 108.0 94.3 108.0 88.3 112 88.3 Z"></path><path fill="#7cb5ec" d="M 106 81.0 C 109.9 81.0 109.9 87.0 106 87.0 C 102.0 87.0 102.0 81.0 106 81.0 Z"></path><path fill="#7cb5ec" d="M 100 91.2 C 103.9 91.2 103.9 97.2 100 97.2 C 96.0 97.2 96.0 91.2 100 91.2 Z"></path><path fill="#7cb5ec" d="M 81 78.0 C 84.9 78.0 84.9 84.0 81 84.0 C 77.0 84.0 77.0 78.0 81 78.0 Z"></path><path fill="#7cb5ec" d="M 75 85.8 C 78.9 85.8 78.9 91.8 75 91.8 C 71.0 91.8 71.0 85.8 75 85.8 Z"></path><path fill="#7cb5ec" d="M 68 81.2 C 71.9 81.2 71.9 87.2 68 87.2 C 64.0 87.2 64.0 81.2 68 81.2 Z"></path><path fill="#7cb5ec" d="M 62 62.9 C 65.9 62.9 65.9 68.9 62 68.9 C 58.0 68.9 58.0 62.9 62 62.9 Z"></path><path fill="#7cb5ec" d="M 37 62.6 C 40.9 62.6 40.9 68.6 37 68.6 C 33.0 68.6 33.0 62.6 37 62.6 Z"></path><path fill="#7cb5ec" d="M 31 52.0 C 34.9 52.0 34.9 58.0 31 58.0 C 27.0 58.0 27.0 52.0 31 52.0 Z"></path><path fill="#7cb5ec" d="M 25 51.3 C 28.9 51.3 28.9 57.3 25 57.3 C 21.0 57.3 21.0 51.3 25 51.3 Z"></path><path fill="#7cb5ec" d="M 18 49.9 C 21.9 49.9 21.9 55.9 18 55.9 C 14.0 55.9 14.0 49.9 18 49.9 Z"></path><path fill="#7cb5ec" d="M 12 30.0 C 15.9 30.0 15.9 36.0 12 36.0 C 8.0 36.0 8.0 30.0 12 30.0 Z"></path></g><g class="highcharts-series" visibility="visible"  transform="translate(24,331) scale(1 1)" clip-path="url(#highcharts-5)"><path fill="rgb(69,114,167)" fill-opacity="0.0" d="M 0 36.0 C 0 36.0 1.2 36.0 2.1 36.1 C 2.7 36.1 3.0 36.2 3.6 36.2 C 4.1 36.2 4.4 36.3 5.0 36.3 C 5.6 36.3 5.9 36.4 6.5 36.4 C 7.1 36.4 7.4 36.4 8.0 36.4 C 8.5 36.4 8.8 36.4 9.4 36.4 C 10.0 36.4 10.3 36.4 10.9 36.5 C 11.5 36.5 11.8 36.6 12.4 36.6 C 13.0 36.6 13.3 36.6 13.8 36.5 C 14.4 36.4 14.7 36.2 15.3 36.1 C 15.9 36.0 16.2 35.8 16.8 35.8 C 17.4 35.8 17.7 36.0 18.3 36.0 C 18.8 36.0 19.1 36.0 19.7 35.9 C 20.3 35.9 20.6 35.9 21.2 35.9 C 21.8 35.9 22.1 35.9 22.7 35.9 C 23.3 35.9 23.5 35.7 24.1 35.7 C 24.7 35.6 25.0 35.6 25.6 35.6 C 26.2 35.6 26.5 35.6 27.1 35.5 C 27.7 35.5 28.0 35.4 28.5 35.4 C 29.1 35.4 29.4 35.5 30.0 35.5 C 30.6 35.5 30.9 35.5 31.5 35.5 C 32.1 35.5 32.4 35.5 33.0 35.4 C 33.5 35.3 33.8 35.2 34.4 35.2 C 35.0 35.2 35.3 35.3 35.9 35.3 C 36.5 35.3 36.8 35.2 37.4 35.1 C 38.0 35.1 38.2 35.1 38.8 35.0 C 39.4 34.9 39.7 34.8 40.3 34.8 C 40.9 34.7 41.2 34.7 41.8 34.7 C 42.4 34.7 42.7 34.7 43.2 34.8 C 43.8 34.8 44.1 34.8 44.7 34.8 C 45.3 34.9 45.6 35.0 46.2 35.0 C 46.8 35.1 47.1 35.1 47.7 35.1 C 48.2 35.1 48.5 35.1 49.1 35.0 C 49.7 34.9 50.0 34.6 50.6 34.6 C 51.2 34.6 51.5 34.6 52.1 34.6 C 52.7 34.6 53.0 34.9 53.5 34.9 C 54.1 35.0 54.4 35.0 55.0 35.0 C 55.6 35.0 55.9 35.0 56.5 35.0 C 57.1 35.0 57.4 35.0 57.9 35.0 C 58.5 35.0 58.8 34.8 59.4 34.8 C 60.0 34.8 60.3 34.9 60.9 34.9 C 61.5 34.9 61.8 34.9 62.4 34.8 C 62.9 34.8 63.2 34.8 63.8 34.8 C 64.4 34.7 64.7 34.6 65.3 34.6 C 65.9 34.5 66.2 34.5 66.8 34.5 C 67.4 34.5 67.7 34.5 68.2 34.5 C 68.8 34.5 69.1 34.6 69.7 34.6 C 70.3 34.6 70.6 34.7 71.2 34.7 C 71.8 34.7 72.1 34.5 72.7 34.4 C 73.2 34.3 73.5 34.3 74.1 34.2 C 74.7 34.1 75.0 34.0 75.6 33.9 C 76.2 33.8 76.5 33.8 77.1 33.8 C 77.7 33.7 77.9 33.7 78.5 33.6 C 79.1 33.5 79.4 33.4 80.0 33.3 C 80.6 33.2 80.9 33.0 81.5 33.0 C 82.1 33.0 82.4 33.2 82.9 33.2 C 83.5 33.2 83.8 33.0 84.4 33.0 C 85.0 33.0 85.3 33.1 85.9 33.1 C 86.5 33.1 86.8 32.9 87.4 32.8 C 87.9 32.6 88.2 32.6 88.8 32.5 C 89.4 32.4 89.7 32.2 90.3 32.2 C 90.9 32.1 91.2 32.1 91.8 32.1 C 92.4 32.1 92.6 32.3 93.2 32.4 C 93.8 32.5 94.1 32.5 94.7 32.6 C 95.3 32.7 95.6 33.1 96.2 33.1 C 96.8 33.1 97.1 32.8 97.6 32.7 C 98.2 32.6 98.5 32.6 99.1 32.5 C 99.7 32.4 100.0 32.3 100.6 32.3 C 101.2 32.3 101.5 32.3 102.1 32.3 C 102.6 32.3 102.9 32.3 103.5 32.1 C 104.1 31.9 104.4 31.7 105.0 31.5 C 105.6 31.3 105.9 31.4 106.5 31.2 C 107.1 31.1 107.3 30.9 107.9 30.8 C 108.5 30.7 108.8 30.7 109.4 30.6 C 110.0 30.4 110.3 30.1 110.9 29.9 C 111.5 29.8 111.8 29.7 112.3 29.7 C 112.9 29.7 113.2 29.8 113.8 30.0 C 114.4 30.3 114.7 30.9 115.3 30.9 C 115.9 30.9 116.2 30.9 116.8 30.7 C 117.3 30.5 117.6 30.3 118.2 30.2 C 118.8 30.0 119.1 29.9 119.7 29.8 C 120.3 29.7 120.6 29.5 121.2 29.5 C 121.8 29.5 122.1 29.8 122.6 29.8 C 123.2 29.8 123.5 29.1 124.1 29.1 C 124.7 29.1 125.0 29.2 125.6 29.5 C 126.2 29.7 126.5 30.0 127.0 30.3 C 127.6 30.6 127.9 30.4 128.5 30.8 C 129.1 31.2 129.4 31.8 130.0 32.1 C 130.6 32.5 130.9 32.4 131.5 32.5 C 132.0 32.7 132.3 32.9 132.9 32.9 C 133.5 32.9 133.8 32.8 134.4 32.8 C 135.0 32.8 135.3 33.1 135.9 33.1 C 136.5 33.1 136.8 33.0 137.3 33.0 C 137.9 33.0 138.2 33.0 138.8 33.0 C 139.4 33.0 139.7 33.0 140.3 32.9 C 140.9 32.8 141.2 32.8 141.8 32.6 C 142.3 32.5 142.6 32.3 143.2 32.1 C 143.8 31.9 144.1 31.8 144.7 31.7 C 145.3 31.6 145.6 31.6 146.2 31.5 C 146.8 31.5 147.0 31.5 147.6 31.5 C 148.2 31.4 148.5 31.1 149.1 30.8 C 149.7 30.6 150.0 30.5 150.6 30.3 C 151.2 30.1 151.5 30.0 152.0 29.9 C 152.6 29.7 152.9 29.7 153.5 29.7 C 154.1 29.7 154.4 30.0 155.0 30.0 C 155.6 30.0 155.9 29.7 156.5 29.7 C 157.0 29.7 157.3 29.7 157.9 29.8 C 158.5 29.8 158.8 30.2 159.4 30.2 C 160.0 30.2 160.3 30.2 160.9 30.2 C 161.5 30.2 161.7 30.4 162.3 30.5 C 162.9 30.6 163.2 30.6 163.8 30.6 C 164.4 30.6 164.7 30.3 165.3 30.3 C 165.9 30.3 166.2 30.4 166.7 30.6 C 167.3 30.7 167.6 30.8 168.2 31.0 C 168.8 31.1 169.1 31.3 169.7 31.3 C 170.3 31.3 170.6 31.2 171.2 31.0 C 171.7 30.8 172.0 30.2 172.6 30.2 C 173.2 30.2 173.5 30.3 174.1 30.3 C 174.7 30.4 175.0 30.3 175.6 30.5 C 176.2 30.6 176.4 30.7 177.0 30.9 C 177.6 31.1 177.9 31.2 178.5 31.5 C 179.1 31.8 179.4 32.1 180.0 32.3 C 180.6 32.6 180.9 32.4 181.4 32.7 C 182.0 33.0 182.3 33.6 182.9 34.0 C 183.5 34.3 183.8 34.6 184.4 34.6 C 185.0 34.6 185.3 34.1 185.9 34.1 C 186.4 34.1 186.7 34.4 187.3 34.4 C 187.9 34.4 188.2 34.1 188.8 34.1 C 189.4 34.0 189.7 34.0 190.3 34.0 C 190.9 34.0 191.2 34.4 191.7 34.5 C 192.3 34.7 192.6 35.0 193.2 35.0 C 193.8 35.0 194.1 34.6 194.7 34.6 C 195.3 34.6 195.6 34.6 196.1 34.6 C 196.7 34.6 197.0 34.3 197.6 34.3 C 198.2 34.3 198.5 34.5 199.1 34.6 C 199.7 34.8 200.0 35.0 200.6 35.0 C 201.1 35.0 201.4 35.0 202.0 34.9 C 202.6 34.8 202.9 34.6 203.5 34.6 C 204.1 34.6 204.4 34.9 205.0 35.0 C 205.6 35.0 205.9 35.0 206.4 35.0 C 207.0 35.0 207.3 34.8 207.9 34.6 C 208.5 34.5 208.8 34.6 209.4 34.5 C 210.0 34.4 210.3 34.3 210.9 34.3 C 211.4 34.3 211.7 34.5 212.3 34.6 C 212.9 34.7 213.2 34.7 213.8 34.8 C 214.4 34.8 214.7 34.8 215.3 34.8 C 215.9 34.8 216.1 34.8 216.7 34.7 C 217.3 34.5 217.6 34.4 218.2 34.2 C 218.8 34.0 219.1 33.9 219.7 33.8 C 220.3 33.7 220.6 33.8 221.1 33.7 C 221.7 33.6 222.0 33.4 222.6 33.3 C 223.2 33.2 223.5 33.2 224.1 33.2 C 224.7 33.1 225.0 33.1 225.6 33.0 C 226.1 33.0 226.4 33.0 227.0 32.9 C 227.6 32.8 227.9 32.6 228.5 32.6 C 229.1 32.6 229.4 33.0 230.0 33.0 C 230.6 33.0 230.8 33.0 231.4 32.9 C 232.0 32.8 232.3 32.6 232.9 32.5 C 233.5 32.3 233.8 32.1 234.4 32.1 C 235.0 32.1 235.3 32.1 235.8 32.1 C 236.4 32.2 236.7 32.3 237.3 32.3 C 237.9 32.3 238.2 32.3 238.8 32.3 C 239.4 32.2 239.7 32.1 240.3 32.1 C 240.8 32.1 241.1 32.3 241.7 32.3 C 242.3 32.3 242.6 32.0 243.2 31.8 C 243.8 31.6 244.1 31.5 244.7 31.3 C 245.3 31.2 245.5 31.2 246.1 31.1 C 246.7 31.0 247.0 30.9 247.6 30.8 C 248.2 30.8 248.5 30.8 249.1 30.8 C 249.7 30.8 250.0 30.9 250.5 30.9 C 251.1 30.9 251.4 30.7 252.0 30.7 C 252.6 30.7 252.9 30.8 253.5 30.8 C 254.1 30.8 254.4 30.6 255.0 30.5 C 255.5 30.4 255.8 30.2 256.4 30.1 C 257.0 30.0 257.3 29.9 257.9 29.9 C 258.5 29.9 258.8 29.9 259.4 29.9 C 260.0 29.8 260.3 29.7 260.8 29.6 C 261.4 29.6 261.7 29.6 262.3 29.6 C 262.9 29.5 263.2 29.0 263.8 29.0 C 264.4 29.0 264.7 29.2 265.3 29.3 C 265.8 29.4 266.1 29.5 266.7 29.5 C 267.3 29.5 267.6 29.0 268.2 28.9 C 268.8 28.9 269.1 28.9 269.7 28.9 C 270.2 28.9 270.5 28.9 271.1 28.9 C 271.7 28.9 272.0 29.1 272.6 29.2 C 273.2 29.3 273.5 29.4 274.1 29.4 C 274.7 29.4 275.0 29.4 275.5 29.3 C 276.1 29.3 276.4 29.0 277.0 28.9 C 277.6 28.7 277.9 28.6 278.5 28.5 C 279.1 28.4 279.4 28.4 280.0 28.4 C 280.5 28.4 280.8 28.6 281.4 28.6 C 282.0 28.7 282.3 28.6 282.9 28.7 C 283.5 28.7 283.8 28.9 284.4 29.0 C 285.0 29.1 285.2 29.3 285.8 29.3 C 286.4 29.3 286.7 29.3 287.3 29.2 C 287.9 29.2 288.2 28.9 288.8 28.9 C 289.4 28.9 289.7 29.0 290.2 29.0 C 290.8 29.0 291.1 28.7 291.7 28.5 C 292.3 28.2 292.6 27.8 293.2 27.8 C 293.8 27.8 294.1 27.8 294.7 27.8 C 295.2 27.8 295.5 27.7 296.1 27.6 C 296.7 27.5 297.0 27.4 297.6 27.3 C 298.2 27.1 298.5 27.1 299.1 27.0 C 299.7 26.9 299.9 26.9 300.5 26.7 C 301.1 26.5 301.4 26.3 302.0 26.1 C 302.6 25.9 302.9 25.7 303.5 25.7 C 304.1 25.7 304.4 26.4 304.9 26.4 C 305.5 26.4 305.8 26.1 306.4 26.1 C 307.0 26.1 307.3 26.6 307.9 26.6 C 308.5 26.6 308.8 26.6 309.4 26.5 C 309.9 26.4 310.2 26.0 310.8 26.0 C 311.4 26.0 311.7 26.5 312.3 26.5 C 312.9 26.5 313.2 25.9 313.8 25.7 C 314.4 25.5 314.6 25.4 315.2 25.4 C 315.8 25.4 316.1 26.3 316.7 26.3 C 317.3 26.3 317.6 26.3 318.2 26.3 C 318.8 26.3 319.1 26.4 319.6 26.4 C 320.2 26.4 320.5 26.3 321.1 26.3 C 321.7 26.2 322.0 26.1 322.6 26.0 C 323.2 25.9 323.5 25.9 324.1 25.9 C 324.6 25.9 324.9 26.1 325.5 26.3 C 326.1 26.4 326.4 26.3 327.0 26.5 C 327.6 26.6 327.9 26.9 328.5 26.9 C 329.1 26.9 329.4 26.7 329.9 26.5 C 330.5 26.3 330.8 26.1 331.4 25.9 C 332.0 25.7 332.3 25.6 332.9 25.4 C 333.5 25.1 333.8 24.6 334.4 24.6 C 334.9 24.6 335.2 24.6 335.8 24.6 C 336.4 24.6 336.7 24.6 337.3 24.5 C 337.9 24.4 338.2 24.0 338.8 23.8 C 339.3 23.6 339.6 23.3 340.2 23.3 C 340.8 23.3 341.1 23.6 341.7 23.6 C 342.3 23.6 342.6 23.4 343.2 23.3 C 343.8 23.2 344.1 23.1 344.6 23.1 C 345.2 23.1 345.5 23.7 346.1 23.7 C 346.7 23.7 347.0 23.4 347.6 23.2 C 348.2 23.1 348.5 23.2 349.1 23.1 C 349.6 23.0 349.9 22.9 350.5 22.9 C 351.1 22.8 351.4 22.9 352.0 22.8 C 352.6 22.8 352.9 22.7 353.5 22.7 C 354.1 22.7 354.3 22.7 354.9 22.7 C 355.5 22.6 355.8 22.4 356.4 22.2 C 357.0 22.0 357.3 21.6 357.9 21.6 C 358.5 21.6 358.8 22.1 359.3 22.1 C 359.9 22.1 360.2 21.9 360.8 21.8 C 361.4 21.7 361.7 21.8 362.3 21.7 C 362.9 21.5 363.2 21.2 363.8 21.1 C 364.3 20.9 364.6 20.9 365.2 20.9 C 365.8 20.9 366.1 21.7 366.7 21.7 C 367.3 21.7 367.6 21.1 368.2 21.1 C 368.8 21.1 369.0 21.1 369.6 21.2 C 370.2 21.3 370.5 21.9 371.1 21.9 C 371.7 21.9 372.0 21.8 372.6 21.7 C 373.2 21.6 373.5 21.4 374.0 21.4 C 374.6 21.4 374.9 21.8 375.5 21.9 C 376.1 22.1 376.4 22.3 377.0 22.3 C 377.6 22.3 377.9 22.0 378.5 21.8 C 379.0 21.6 379.3 21.3 379.9 21.3 C 380.5 21.3 380.8 21.4 381.4 21.5 C 382.0 21.5 382.3 21.5 382.9 21.5 C 383.5 21.6 383.7 21.9 384.3 22.0 C 384.9 22.1 385.2 22.1 385.8 22.1 C 386.4 22.1 386.7 21.6 387.3 21.6 C 387.9 21.6 388.2 22.1 388.7 22.3 C 389.3 22.5 389.6 22.5 390.2 22.6 C 390.8 22.6 391.1 22.7 391.7 22.7 C 392.3 22.7 392.6 22.4 393.2 22.1 C 393.7 21.7 394.0 21.3 394.6 21.1 C 395.2 20.9 395.5 21.1 396.1 20.9 C 396.7 20.8 397.0 20.0 397.6 19.6 C 398.2 19.2 398.5 19.0 399.0 19.0 C 399.6 19.0 399.9 19.2 400.5 19.5 C 401.1 19.8 401.4 20.4 402.0 20.4 C 402.6 20.4 402.9 20.1 403.5 20.1 C 404.0 20.1 404.3 20.2 404.9 20.2 C 405.5 20.2 405.8 19.6 406.4 19.6 C 407.0 19.6 407.3 19.7 407.9 19.7 C 408.4 19.7 408.7 19.6 409.3 19.3 C 409.9 19.0 410.2 18.3 410.8 18.3 C 411.4 18.3 411.7 18.7 412.3 19.1 C 412.9 19.4 413.2 20.1 413.7 20.1 C 414.3 20.1 414.6 18.6 415.2 18.5 C 415.8 18.5 416.1 18.5 416.7 18.5 C 417.3 18.5 417.6 18.6 418.2 18.6 C 418.7 18.7 419.0 18.7 419.6 18.7 C 420.2 18.8 420.5 18.9 421.1 19.1 C 421.7 19.3 422.0 19.5 422.6 19.7 C 423.2 20.0 423.4 20.4 424.0 20.4 C 424.6 20.4 424.9 19.9 425.5 19.7 C 426.1 19.5 426.4 19.2 427.0 19.2 C 427.6 19.2 427.9 19.6 428.4 19.6 C 429.0 19.6 429.3 19.2 429.9 19.0 C 430.5 18.8 430.8 18.7 431.4 18.5 C 432.0 18.3 432.3 18.1 432.9 17.9 C 433.4 17.7 433.7 17.7 434.3 17.6 C 434.9 17.5 435.2 17.6 435.8 17.4 C 436.4 17.3 436.7 17.2 437.3 16.8 C 437.9 16.5 438.1 16.3 438.7 15.9 C 439.3 15.4 439.6 15.2 440.2 14.7 C 440.8 14.2 441.1 13.9 441.7 13.5 C 442.3 13.1 442.6 13.1 443.1 12.8 C 443.7 12.4 444.0 11.6 444.6 11.6 C 445.2 11.6 445.5 11.7 446.1 11.7 C 446.7 11.7 447.0 10.4 447.6 9.7 C 448.1 9.0 448.4 8.8 449.0 8.4 C 449.6 8.1 449.9 8.2 450.5 8.0 C 451.1 7.7 451.4 7.1 452.0 7.1 C 452.6 7.1 452.9 7.1 453.4 7.2 C 454.0 7.4 454.3 8.8 454.9 8.9 C 455.5 8.9 455.8 8.9 456.4 8.9 C 457.0 9.0 457.3 9.3 457.8 9.5 C 458.4 9.7 458.7 9.7 459.3 10.1 C 459.9 10.4 460.2 11.4 460.8 11.4 C 461.4 11.4 461.7 10.6 462.3 10.4 C 462.8 10.1 463.1 9.9 463.7 9.9 C 464.3 9.9 464.6 10.0 465.2 10.0 C 465.8 10.0 466.1 10.0 466.7 9.8 C 467.3 9.7 467.6 9.3 468.1 9.3 C 468.7 9.3 469.0 9.8 469.6 9.8 C 470.2 9.8 470.5 8.6 471.1 8.4 C 471.7 8.1 472.0 8.2 472.6 8.1 C 473.1 8.1 473.4 8.1 474.0 8.1 C 474.6 8.1 474.9 9.1 475.5 9.1 C 476.1 9.1 476.4 8.4 477.0 8.1 C 477.5 7.7 477.8 7.7 478.4 7.4 C 479.0 7.1 479.3 7.1 479.9 6.6 C 480.5 6.2 480.8 5.6 481.4 5.2 C 482.0 4.8 482.3 5.0 482.8 4.8 C 483.4 4.7 483.7 4.6 484.3 4.6 C 484.9 4.6 485.2 4.7 485.8 4.7 C 486.4 4.7 486.7 3.3 487.3 3.3 C 487.8 3.3 488.1 4.2 488.7 4.6 C 489.3 5.0 489.6 4.8 490.2 5.3 C 490.8 5.7 491.1 6.7 491.7 6.7 C 492.3 6.7 492.5 6.7 493.1 6.7 C 493.7 6.7 494.0 7.2 494.6 7.7 C 495.2 8.1 495.5 8.4 496.1 9.0 C 496.7 9.5 497.0 9.9 497.5 10.4 C 498.1 11.0 498.4 11.8 499.0 11.8 C 499.6 11.8 499.9 10.8 500.5 10.3 C 501.1 9.7 501.4 9.2 502.0 9.2 C 502.5 9.2 502.8 10.1 503.4 10.7 C 504.0 11.3 504.3 11.8 504.9 12.1 C 505.5 12.4 505.8 12.2 506.4 12.4 C 507.0 12.5 507.2 12.9 507.8 12.9 C 508.4 12.9 508.7 11.7 509.3 11.7 C 509.9 11.7 510.2 12.1 510.8 12.5 C 511.4 12.9 511.7 13.2 512.2 13.6 C 512.8 14.1 513.1 14.3 513.7 14.8 C 514.3 15.2 514.6 15.9 515.2 15.9 C 515.8 15.9 516.1 15.8 516.7 15.7 C 517.2 15.5 517.5 15.2 518.1 15.2 C 518.7 15.2 519.0 15.8 519.6 16.1 C 520.2 16.4 520.5 16.4 521.1 16.6 C 521.7 16.9 522.0 17.3 522.5 17.3 C 523.1 17.3 523.4 17.3 524.0 17.0 C 524.6 16.7 524.9 15.9 525.5 15.9 C 526.1 15.9 526.4 15.9 526.9 15.9 C 527.5 16.0 527.8 17.3 528.4 17.3 C 529.0 17.3 529.3 17.2 529.9 17.2 C 530.5 17.2 530.8 18.4 531.4 18.4 C 531.9 18.4 532.2 18.4 532.8 18.4 C 533.4 18.3 533.7 17.1 534.3 16.6 C 535.0 16.1 536 15.7 536 15.7 L 536 40 L 0 40" ></path><path fill="none" d="M 0 36.0 C 0 36.0 1.2 36.0 2.1 36.1 C 2.7 36.1 3.0 36.2 3.6 36.2 C 4.1 36.2 4.4 36.3 5.0 36.3 C 5.6 36.3 5.9 36.4 6.5 36.4 C 7.1 36.4 7.4 36.4 8.0 36.4 C 8.5 36.4 8.8 36.4 9.4 36.4 C 10.0 36.4 10.3 36.4 10.9 36.5 C 11.5 36.5 11.8 36.6 12.4 36.6 C 13.0 36.6 13.3 36.6 13.8 36.5 C 14.4 36.4 14.7 36.2 15.3 36.1 C 15.9 36.0 16.2 35.8 16.8 35.8 C 17.4 35.8 17.7 36.0 18.3 36.0 C 18.8 36.0 19.1 36.0 19.7 35.9 C 20.3 35.9 20.6 35.9 21.2 35.9 C 21.8 35.9 22.1 35.9 22.7 35.9 C 23.3 35.9 23.5 35.7 24.1 35.7 C 24.7 35.6 25.0 35.6 25.6 35.6 C 26.2 35.6 26.5 35.6 27.1 35.5 C 27.7 35.5 28.0 35.4 28.5 35.4 C 29.1 35.4 29.4 35.5 30.0 35.5 C 30.6 35.5 30.9 35.5 31.5 35.5 C 32.1 35.5 32.4 35.5 33.0 35.4 C 33.5 35.3 33.8 35.2 34.4 35.2 C 35.0 35.2 35.3 35.3 35.9 35.3 C 36.5 35.3 36.8 35.2 37.4 35.1 C 38.0 35.1 38.2 35.1 38.8 35.0 C 39.4 34.9 39.7 34.8 40.3 34.8 C 40.9 34.7 41.2 34.7 41.8 34.7 C 42.4 34.7 42.7 34.7 43.2 34.8 C 43.8 34.8 44.1 34.8 44.7 34.8 C 45.3 34.9 45.6 35.0 46.2 35.0 C 46.8 35.1 47.1 35.1 47.7 35.1 C 48.2 35.1 48.5 35.1 49.1 35.0 C 49.7 34.9 50.0 34.6 50.6 34.6 C 51.2 34.6 51.5 34.6 52.1 34.6 C 52.7 34.6 53.0 34.9 53.5 34.9 C 54.1 35.0 54.4 35.0 55.0 35.0 C 55.6 35.0 55.9 35.0 56.5 35.0 C 57.1 35.0 57.4 35.0 57.9 35.0 C 58.5 35.0 58.8 34.8 59.4 34.8 C 60.0 34.8 60.3 34.9 60.9 34.9 C 61.5 34.9 61.8 34.9 62.4 34.8 C 62.9 34.8 63.2 34.8 63.8 34.8 C 64.4 34.7 64.7 34.6 65.3 34.6 C 65.9 34.5 66.2 34.5 66.8 34.5 C 67.4 34.5 67.7 34.5 68.2 34.5 C 68.8 34.5 69.1 34.6 69.7 34.6 C 70.3 34.6 70.6 34.7 71.2 34.7 C 71.8 34.7 72.1 34.5 72.7 34.4 C 73.2 34.3 73.5 34.3 74.1 34.2 C 74.7 34.1 75.0 34.0 75.6 33.9 C 76.2 33.8 76.5 33.8 77.1 33.8 C 77.7 33.7 77.9 33.7 78.5 33.6 C 79.1 33.5 79.4 33.4 80.0 33.3 C 80.6 33.2 80.9 33.0 81.5 33.0 C 82.1 33.0 82.4 33.2 82.9 33.2 C 83.5 33.2 83.8 33.0 84.4 33.0 C 85.0 33.0 85.3 33.1 85.9 33.1 C 86.5 33.1 86.8 32.9 87.4 32.8 C 87.9 32.6 88.2 32.6 88.8 32.5 C 89.4 32.4 89.7 32.2 90.3 32.2 C 90.9 32.1 91.2 32.1 91.8 32.1 C 92.4 32.1 92.6 32.3 93.2 32.4 C 93.8 32.5 94.1 32.5 94.7 32.6 C 95.3 32.7 95.6 33.1 96.2 33.1 C 96.8 33.1 97.1 32.8 97.6 32.7 C 98.2 32.6 98.5 32.6 99.1 32.5 C 99.7 32.4 100.0 32.3 100.6 32.3 C 101.2 32.3 101.5 32.3 102.1 32.3 C 102.6 32.3 102.9 32.3 103.5 32.1 C 104.1 31.9 104.4 31.7 105.0 31.5 C 105.6 31.3 105.9 31.4 106.5 31.2 C 107.1 31.1 107.3 30.9 107.9 30.8 C 108.5 30.7 108.8 30.7 109.4 30.6 C 110.0 30.4 110.3 30.1 110.9 29.9 C 111.5 29.8 111.8 29.7 112.3 29.7 C 112.9 29.7 113.2 29.8 113.8 30.0 C 114.4 30.3 114.7 30.9 115.3 30.9 C 115.9 30.9 116.2 30.9 116.8 30.7 C 117.3 30.5 117.6 30.3 118.2 30.2 C 118.8 30.0 119.1 29.9 119.7 29.8 C 120.3 29.7 120.6 29.5 121.2 29.5 C 121.8 29.5 122.1 29.8 122.6 29.8 C 123.2 29.8 123.5 29.1 124.1 29.1 C 124.7 29.1 125.0 29.2 125.6 29.5 C 126.2 29.7 126.5 30.0 127.0 30.3 C 127.6 30.6 127.9 30.4 128.5 30.8 C 129.1 31.2 129.4 31.8 130.0 32.1 C 130.6 32.5 130.9 32.4 131.5 32.5 C 132.0 32.7 132.3 32.9 132.9 32.9 C 133.5 32.9 133.8 32.8 134.4 32.8 C 135.0 32.8 135.3 33.1 135.9 33.1 C 136.5 33.1 136.8 33.0 137.3 33.0 C 137.9 33.0 138.2 33.0 138.8 33.0 C 139.4 33.0 139.7 33.0 140.3 32.9 C 140.9 32.8 141.2 32.8 141.8 32.6 C 142.3 32.5 142.6 32.3 143.2 32.1 C 143.8 31.9 144.1 31.8 144.7 31.7 C 145.3 31.6 145.6 31.6 146.2 31.5 C 146.8 31.5 147.0 31.5 147.6 31.5 C 148.2 31.4 148.5 31.1 149.1 30.8 C 149.7 30.6 150.0 30.5 150.6 30.3 C 151.2 30.1 151.5 30.0 152.0 29.9 C 152.6 29.7 152.9 29.7 153.5 29.7 C 154.1 29.7 154.4 30.0 155.0 30.0 C 155.6 30.0 155.9 29.7 156.5 29.7 C 157.0 29.7 157.3 29.7 157.9 29.8 C 158.5 29.8 158.8 30.2 159.4 30.2 C 160.0 30.2 160.3 30.2 160.9 30.2 C 161.5 30.2 161.7 30.4 162.3 30.5 C 162.9 30.6 163.2 30.6 163.8 30.6 C 164.4 30.6 164.7 30.3 165.3 30.3 C 165.9 30.3 166.2 30.4 166.7 30.6 C 167.3 30.7 167.6 30.8 168.2 31.0 C 168.8 31.1 169.1 31.3 169.7 31.3 C 170.3 31.3 170.6 31.2 171.2 31.0 C 171.7 30.8 172.0 30.2 172.6 30.2 C 173.2 30.2 173.5 30.3 174.1 30.3 C 174.7 30.4 175.0 30.3 175.6 30.5 C 176.2 30.6 176.4 30.7 177.0 30.9 C 177.6 31.1 177.9 31.2 178.5 31.5 C 179.1 31.8 179.4 32.1 180.0 32.3 C 180.6 32.6 180.9 32.4 181.4 32.7 C 182.0 33.0 182.3 33.6 182.9 34.0 C 183.5 34.3 183.8 34.6 184.4 34.6 C 185.0 34.6 185.3 34.1 185.9 34.1 C 186.4 34.1 186.7 34.4 187.3 34.4 C 187.9 34.4 188.2 34.1 188.8 34.1 C 189.4 34.0 189.7 34.0 190.3 34.0 C 190.9 34.0 191.2 34.4 191.7 34.5 C 192.3 34.7 192.6 35.0 193.2 35.0 C 193.8 35.0 194.1 34.6 194.7 34.6 C 195.3 34.6 195.6 34.6 196.1 34.6 C 196.7 34.6 197.0 34.3 197.6 34.3 C 198.2 34.3 198.5 34.5 199.1 34.6 C 199.7 34.8 200.0 35.0 200.6 35.0 C 201.1 35.0 201.4 35.0 202.0 34.9 C 202.6 34.8 202.9 34.6 203.5 34.6 C 204.1 34.6 204.4 34.9 205.0 35.0 C 205.6 35.0 205.9 35.0 206.4 35.0 C 207.0 35.0 207.3 34.8 207.9 34.6 C 208.5 34.5 208.8 34.6 209.4 34.5 C 210.0 34.4 210.3 34.3 210.9 34.3 C 211.4 34.3 211.7 34.5 212.3 34.6 C 212.9 34.7 213.2 34.7 213.8 34.8 C 214.4 34.8 214.7 34.8 215.3 34.8 C 215.9 34.8 216.1 34.8 216.7 34.7 C 217.3 34.5 217.6 34.4 218.2 34.2 C 218.8 34.0 219.1 33.9 219.7 33.8 C 220.3 33.7 220.6 33.8 221.1 33.7 C 221.7 33.6 222.0 33.4 222.6 33.3 C 223.2 33.2 223.5 33.2 224.1 33.2 C 224.7 33.1 225.0 33.1 225.6 33.0 C 226.1 33.0 226.4 33.0 227.0 32.9 C 227.6 32.8 227.9 32.6 228.5 32.6 C 229.1 32.6 229.4 33.0 230.0 33.0 C 230.6 33.0 230.8 33.0 231.4 32.9 C 232.0 32.8 232.3 32.6 232.9 32.5 C 233.5 32.3 233.8 32.1 234.4 32.1 C 235.0 32.1 235.3 32.1 235.8 32.1 C 236.4 32.2 236.7 32.3 237.3 32.3 C 237.9 32.3 238.2 32.3 238.8 32.3 C 239.4 32.2 239.7 32.1 240.3 32.1 C 240.8 32.1 241.1 32.3 241.7 32.3 C 242.3 32.3 242.6 32.0 243.2 31.8 C 243.8 31.6 244.1 31.5 244.7 31.3 C 245.3 31.2 245.5 31.2 246.1 31.1 C 246.7 31.0 247.0 30.9 247.6 30.8 C 248.2 30.8 248.5 30.8 249.1 30.8 C 249.7 30.8 250.0 30.9 250.5 30.9 C 251.1 30.9 251.4 30.7 252.0 30.7 C 252.6 30.7 252.9 30.8 253.5 30.8 C 254.1 30.8 254.4 30.6 255.0 30.5 C 255.5 30.4 255.8 30.2 256.4 30.1 C 257.0 30.0 257.3 29.9 257.9 29.9 C 258.5 29.9 258.8 29.9 259.4 29.9 C 260.0 29.8 260.3 29.7 260.8 29.6 C 261.4 29.6 261.7 29.6 262.3 29.6 C 262.9 29.5 263.2 29.0 263.8 29.0 C 264.4 29.0 264.7 29.2 265.3 29.3 C 265.8 29.4 266.1 29.5 266.7 29.5 C 267.3 29.5 267.6 29.0 268.2 28.9 C 268.8 28.9 269.1 28.9 269.7 28.9 C 270.2 28.9 270.5 28.9 271.1 28.9 C 271.7 28.9 272.0 29.1 272.6 29.2 C 273.2 29.3 273.5 29.4 274.1 29.4 C 274.7 29.4 275.0 29.4 275.5 29.3 C 276.1 29.3 276.4 29.0 277.0 28.9 C 277.6 28.7 277.9 28.6 278.5 28.5 C 279.1 28.4 279.4 28.4 280.0 28.4 C 280.5 28.4 280.8 28.6 281.4 28.6 C 282.0 28.7 282.3 28.6 282.9 28.7 C 283.5 28.7 283.8 28.9 284.4 29.0 C 285.0 29.1 285.2 29.3 285.8 29.3 C 286.4 29.3 286.7 29.3 287.3 29.2 C 287.9 29.2 288.2 28.9 288.8 28.9 C 289.4 28.9 289.7 29.0 290.2 29.0 C 290.8 29.0 291.1 28.7 291.7 28.5 C 292.3 28.2 292.6 27.8 293.2 27.8 C 293.8 27.8 294.1 27.8 294.7 27.8 C 295.2 27.8 295.5 27.7 296.1 27.6 C 296.7 27.5 297.0 27.4 297.6 27.3 C 298.2 27.1 298.5 27.1 299.1 27.0 C 299.7 26.9 299.9 26.9 300.5 26.7 C 301.1 26.5 301.4 26.3 302.0 26.1 C 302.6 25.9 302.9 25.7 303.5 25.7 C 304.1 25.7 304.4 26.4 304.9 26.4 C 305.5 26.4 305.8 26.1 306.4 26.1 C 307.0 26.1 307.3 26.6 307.9 26.6 C 308.5 26.6 308.8 26.6 309.4 26.5 C 309.9 26.4 310.2 26.0 310.8 26.0 C 311.4 26.0 311.7 26.5 312.3 26.5 C 312.9 26.5 313.2 25.9 313.8 25.7 C 314.4 25.5 314.6 25.4 315.2 25.4 C 315.8 25.4 316.1 26.3 316.7 26.3 C 317.3 26.3 317.6 26.3 318.2 26.3 C 318.8 26.3 319.1 26.4 319.6 26.4 C 320.2 26.4 320.5 26.3 321.1 26.3 C 321.7 26.2 322.0 26.1 322.6 26.0 C 323.2 25.9 323.5 25.9 324.1 25.9 C 324.6 25.9 324.9 26.1 325.5 26.3 C 326.1 26.4 326.4 26.3 327.0 26.5 C 327.6 26.6 327.9 26.9 328.5 26.9 C 329.1 26.9 329.4 26.7 329.9 26.5 C 330.5 26.3 330.8 26.1 331.4 25.9 C 332.0 25.7 332.3 25.6 332.9 25.4 C 333.5 25.1 333.8 24.6 334.4 24.6 C 334.9 24.6 335.2 24.6 335.8 24.6 C 336.4 24.6 336.7 24.6 337.3 24.5 C 337.9 24.4 338.2 24.0 338.8 23.8 C 339.3 23.6 339.6 23.3 340.2 23.3 C 340.8 23.3 341.1 23.6 341.7 23.6 C 342.3 23.6 342.6 23.4 343.2 23.3 C 343.8 23.2 344.1 23.1 344.6 23.1 C 345.2 23.1 345.5 23.7 346.1 23.7 C 346.7 23.7 347.0 23.4 347.6 23.2 C 348.2 23.1 348.5 23.2 349.1 23.1 C 349.6 23.0 349.9 22.9 350.5 22.9 C 351.1 22.8 351.4 22.9 352.0 22.8 C 352.6 22.8 352.9 22.7 353.5 22.7 C 354.1 22.7 354.3 22.7 354.9 22.7 C 355.5 22.6 355.8 22.4 356.4 22.2 C 357.0 22.0 357.3 21.6 357.9 21.6 C 358.5 21.6 358.8 22.1 359.3 22.1 C 359.9 22.1 360.2 21.9 360.8 21.8 C 361.4 21.7 361.7 21.8 362.3 21.7 C 362.9 21.5 363.2 21.2 363.8 21.1 C 364.3 20.9 364.6 20.9 365.2 20.9 C 365.8 20.9 366.1 21.7 366.7 21.7 C 367.3 21.7 367.6 21.1 368.2 21.1 C 368.8 21.1 369.0 21.1 369.6 21.2 C 370.2 21.3 370.5 21.9 371.1 21.9 C 371.7 21.9 372.0 21.8 372.6 21.7 C 373.2 21.6 373.5 21.4 374.0 21.4 C 374.6 21.4 374.9 21.8 375.5 21.9 C 376.1 22.1 376.4 22.3 377.0 22.3 C 377.6 22.3 377.9 22.0 378.5 21.8 C 379.0 21.6 379.3 21.3 379.9 21.3 C 380.5 21.3 380.8 21.4 381.4 21.5 C 382.0 21.5 382.3 21.5 382.9 21.5 C 383.5 21.6 383.7 21.9 384.3 22.0 C 384.9 22.1 385.2 22.1 385.8 22.1 C 386.4 22.1 386.7 21.6 387.3 21.6 C 387.9 21.6 388.2 22.1 388.7 22.3 C 389.3 22.5 389.6 22.5 390.2 22.6 C 390.8 22.6 391.1 22.7 391.7 22.7 C 392.3 22.7 392.6 22.4 393.2 22.1 C 393.7 21.7 394.0 21.3 394.6 21.1 C 395.2 20.9 395.5 21.1 396.1 20.9 C 396.7 20.8 397.0 20.0 397.6 19.6 C 398.2 19.2 398.5 19.0 399.0 19.0 C 399.6 19.0 399.9 19.2 400.5 19.5 C 401.1 19.8 401.4 20.4 402.0 20.4 C 402.6 20.4 402.9 20.1 403.5 20.1 C 404.0 20.1 404.3 20.2 404.9 20.2 C 405.5 20.2 405.8 19.6 406.4 19.6 C 407.0 19.6 407.3 19.7 407.9 19.7 C 408.4 19.7 408.7 19.6 409.3 19.3 C 409.9 19.0 410.2 18.3 410.8 18.3 C 411.4 18.3 411.7 18.7 412.3 19.1 C 412.9 19.4 413.2 20.1 413.7 20.1 C 414.3 20.1 414.6 18.6 415.2 18.5 C 415.8 18.5 416.1 18.5 416.7 18.5 C 417.3 18.5 417.6 18.6 418.2 18.6 C 418.7 18.7 419.0 18.7 419.6 18.7 C 420.2 18.8 420.5 18.9 421.1 19.1 C 421.7 19.3 422.0 19.5 422.6 19.7 C 423.2 20.0 423.4 20.4 424.0 20.4 C 424.6 20.4 424.9 19.9 425.5 19.7 C 426.1 19.5 426.4 19.2 427.0 19.2 C 427.6 19.2 427.9 19.6 428.4 19.6 C 429.0 19.6 429.3 19.2 429.9 19.0 C 430.5 18.8 430.8 18.7 431.4 18.5 C 432.0 18.3 432.3 18.1 432.9 17.9 C 433.4 17.7 433.7 17.7 434.3 17.6 C 434.9 17.5 435.2 17.6 435.8 17.4 C 436.4 17.3 436.7 17.2 437.3 16.8 C 437.9 16.5 438.1 16.3 438.7 15.9 C 439.3 15.4 439.6 15.2 440.2 14.7 C 440.8 14.2 441.1 13.9 441.7 13.5 C 442.3 13.1 442.6 13.1 443.1 12.8 C 443.7 12.4 444.0 11.6 444.6 11.6 C 445.2 11.6 445.5 11.7 446.1 11.7 C 446.7 11.7 447.0 10.4 447.6 9.7 C 448.1 9.0 448.4 8.8 449.0 8.4 C 449.6 8.1 449.9 8.2 450.5 8.0 C 451.1 7.7 451.4 7.1 452.0 7.1 C 452.6 7.1 452.9 7.1 453.4 7.2 C 454.0 7.4 454.3 8.8 454.9 8.9 C 455.5 8.9 455.8 8.9 456.4 8.9 C 457.0 9.0 457.3 9.3 457.8 9.5 C 458.4 9.7 458.7 9.7 459.3 10.1 C 459.9 10.4 460.2 11.4 460.8 11.4 C 461.4 11.4 461.7 10.6 462.3 10.4 C 462.8 10.1 463.1 9.9 463.7 9.9 C 464.3 9.9 464.6 10.0 465.2 10.0 C 465.8 10.0 466.1 10.0 466.7 9.8 C 467.3 9.7 467.6 9.3 468.1 9.3 C 468.7 9.3 469.0 9.8 469.6 9.8 C 470.2 9.8 470.5 8.6 471.1 8.4 C 471.7 8.1 472.0 8.2 472.6 8.1 C 473.1 8.1 473.4 8.1 474.0 8.1 C 474.6 8.1 474.9 9.1 475.5 9.1 C 476.1 9.1 476.4 8.4 477.0 8.1 C 477.5 7.7 477.8 7.7 478.4 7.4 C 479.0 7.1 479.3 7.1 479.9 6.6 C 480.5 6.2 480.8 5.6 481.4 5.2 C 482.0 4.8 482.3 5.0 482.8 4.8 C 483.4 4.7 483.7 4.6 484.3 4.6 C 484.9 4.6 485.2 4.7 485.8 4.7 C 486.4 4.7 486.7 3.3 487.3 3.3 C 487.8 3.3 488.1 4.2 488.7 4.6 C 489.3 5.0 489.6 4.8 490.2 5.3 C 490.8 5.7 491.1 6.7 491.7 6.7 C 492.3 6.7 492.5 6.7 493.1 6.7 C 493.7 6.7 494.0 7.2 494.6 7.7 C 495.2 8.1 495.5 8.4 496.1 9.0 C 496.7 9.5 497.0 9.9 497.5 10.4 C 498.1 11.0 498.4 11.8 499.0 11.8 C 499.6 11.8 499.9 10.8 500.5 10.3 C 501.1 9.7 501.4 9.2 502.0 9.2 C 502.5 9.2 502.8 10.1 503.4 10.7 C 504.0 11.3 504.3 11.8 504.9 12.1 C 505.5 12.4 505.8 12.2 506.4 12.4 C 507.0 12.5 507.2 12.9 507.8 12.9 C 508.4 12.9 508.7 11.7 509.3 11.7 C 509.9 11.7 510.2 12.1 510.8 12.5 C 511.4 12.9 511.7 13.2 512.2 13.6 C 512.8 14.1 513.1 14.3 513.7 14.8 C 514.3 15.2 514.6 15.9 515.2 15.9 C 515.8 15.9 516.1 15.8 516.7 15.7 C 517.2 15.5 517.5 15.2 518.1 15.2 C 518.7 15.2 519.0 15.8 519.6 16.1 C 520.2 16.4 520.5 16.4 521.1 16.6 C 521.7 16.9 522.0 17.3 522.5 17.3 C 523.1 17.3 523.4 17.3 524.0 17.0 C 524.6 16.7 524.9 15.9 525.5 15.9 C 526.1 15.9 526.4 15.9 526.9 15.9 C 527.5 16.0 527.8 17.3 528.4 17.3 C 529.0 17.3 529.3 17.2 529.9 17.2 C 530.5 17.2 530.8 18.4 531.4 18.4 C 531.9 18.4 532.2 18.4 532.8 18.4 C 533.4 18.3 533.7 17.1 534.3 16.6 C 535.0 16.1 536 15.7 536 15.7" stroke="#4572A7" stroke-width="1"  stroke-linejoin="round" stroke-linecap="round"></path></g><g class="highcharts-markers" visibility="visible"  transform="translate(24,331) scale(1 1)" clip-path="url(#highcharts-4)"></g></g><g class="highcharts-navigator" ><rect fill="rgb(128,179,236)" fill-opacity="0.3" style="cursor:ew-resize ;" x="541" y="331" width="19" height="40"></rect><path fill="none" stroke="#b2b1b6" stroke-width="1" d="M 10 331.5 L 540.5 331.5 540.5 385.5 L 559.5 385.5 L 559.5 331.5 574 331.5 M 541.5 331.5 L 559.5 331.5"></path></g><g class="highcharts-navigator-handle-right" style="cursor:ew-resize;"  transform="translate(560,343)"><rect x="-4.5" y="0.5" width="8" height="15" strokeWidth="1" fill="#ebe7e8" stroke="#b2b1b6" stroke-width="1"></rect><path fill="#ebe7e8" d="M -1.5 4 L -1.5 12 M 0.5 4 L 0.5 12" stroke="#b2b1b6" stroke-width="1"></path></g><text x="292" text-anchor="middle" class="highcharts-title"  style="color:#333333;font-size:16px;fill:#333333;width:520px;" y="22"><tspan>AAPL Stock Price</tspan></text><g class="highcharts-navigator-handle-left" style="cursor:ew-resize;"  transform="translate(541,343)"><rect x="-4.5" y="0.5" width="8" height="15" strokeWidth="1" fill="#ebe7e8" stroke="#b2b1b6" stroke-width="1"></rect><path fill="#ebe7e8" d="M -1.5 4 L -1.5 12 M 0.5 4 L 0.5 12" stroke="#b2b1b6" stroke-width="1"></path></g><g class="highcharts-axis-labels highcharts-xaxis-labels" ><text x="66.4" style="color:#606060;cursor:default;font-size:11px;fill:#606060;" text-anchor="middle" transform="translate(0,0)" y="304" opacity="1"><tspan>18. Feb</tspan></text><text x="154.1" style="color:#606060;cursor:default;font-size:11px;fill:#606060;" text-anchor="middle" transform="translate(0,0)" y="304" opacity="1"><tspan>4. Mar</tspan></text><text x="241.8" style="color:#606060;cursor:default;font-size:11px;fill:#606060;" text-anchor="middle" transform="translate(0,0)" y="304" opacity="1"><tspan>18. Mar</tspan></text><text x="329.5" style="color:#606060;cursor:default;font-size:11px;fill:#606060;" text-anchor="middle" transform="translate(0,0)" y="304" opacity="1"><tspan>1. Apr</tspan></text><text x="417.3" style="color:#606060;cursor:default;font-size:11px;fill:#606060;" text-anchor="middle" transform="translate(0,0)" y="304" opacity="1"><tspan>15. Apr</tspan></text><text x="505.0" style="color:#606060;cursor:default;font-size:11px;fill:#606060;" text-anchor="middle" transform="translate(0,0)" y="304" opacity="1"><tspan>29. Apr</tspan></text></g><g class="highcharts-axis-labels highcharts-xaxis-labels" ><text x="152.1" style="color:#888;cursor:default;font-size:11px;fill:#888;width:178px;text-overflow:clip;" text-anchor="start" transform="translate(0,0)" y="367" opacity="1">2008</text><text x="305.7" style="color:#888;cursor:default;font-size:11px;fill:#888;width:178px;text-overflow:clip;" text-anchor="start" transform="translate(0,0)" y="367" opacity="1">2010</text><text x="459.0" style="color:#888;cursor:default;font-size:11px;fill:#888;width:178px;text-overflow:clip;" text-anchor="start" transform="translate(0,0)" y="367" opacity="1">2012</text></g><g class="highcharts-axis-labels highcharts-yaxis-labels" ><text x="574" style="color:#606060;cursor:default;font-size:11px;fill:#606060;width:183px;text-overflow:clip;" text-anchor="end" transform="translate(0,0)" y="283" opacity="1">375</text><text x="574" style="color:#606060;cursor:default;font-size:11px;fill:#606060;width:183px;text-overflow:clip;" text-anchor="end" transform="translate(0,0)" y="242" opacity="1">400</text><text x="574" style="color:#606060;cursor:default;font-size:11px;fill:#606060;width:183px;text-overflow:clip;" text-anchor="end" transform="translate(0,0)" y="201" opacity="1">425</text><text x="574" style="color:#606060;cursor:default;font-size:11px;fill:#606060;width:183px;text-overflow:clip;" text-anchor="end" transform="translate(0,0)" y="159" opacity="1">450</text><text x="574" style="color:#606060;cursor:default;font-size:11px;fill:#606060;width:183px;text-overflow:clip;" text-anchor="end" transform="translate(0,0)" y="118" opacity="1">475</text><text x="0" style="color:#606060;cursor:default;font-size:11px;fill:#606060;width:183px;text-overflow:clip;" text-anchor="end" transform="translate(0,0)" y="-9999">500</text></g><g class="highcharts-axis-labels highcharts-yaxis-labels" ></g><g class="highcharts-tooltip"  style="cursor:default;padding:0;white-space:nowrap;" transform="translate(0,-9999)"><path fill="none" d="M 3 0 L 13 0 C 16 0 16 0 16 3 L 16 13 C 16 16 16 16 13 16 L 3 16 C 0 16 0 16 0 13 L 0 3 C 0 0 0 0 3 0"  stroke="black" stroke-opacity="0.0" stroke-width="5" transform="translate(1, 1)"></path><path fill="none" d="M 3 0 L 13 0 C 16 0 16 0 16 3 L 16 13 C 16 16 16 16 13 16 L 3 16 C 0 16 0 16 0 13 L 0 3 C 0 0 0 0 3 0"  stroke="black" stroke-opacity="0.0" stroke-width="3" transform="translate(1, 1)"></path><path fill="none" d="M 3 0 L 13 0 C 16 0 16 0 16 3 L 16 13 C 16 16 16 16 13 16 L 3 16 C 0 16 0 16 0 13 L 0 3 C 0 0 0 0 3 0"  stroke="black" stroke-opacity="0.1" stroke-width="1" transform="translate(1, 1)"></path><path fill="rgb(249, 249, 249)" fill-opacity=" .85" d="M 3 0 L 13 0 C 16 0 16 0 16 3 L 16 13 C 16 16 16 16 13 16 L 3 16 C 0 16 0 16 0 13 L 0 3 C 0 0 0 0 3 0"></path><text x="8"  style="font-size:12px;color:#333333;fill:#333333;" y="20"></text></g></svg>