<svg version="1.1" style="font-family:&quot;lucida grande&quot;, &quot;lucida sans unicode&quot;, arial, helvetica, sans-serif;font-size:12px;" xmlns="http://www.w3.org/2000/svg" width="584" height="400" viewBox="0 0 584 400"><desc>Created with Highstock 2.1.0</desc><defs><clipPath id="highcharts-1"><rect x="0" y="0" width="564" height="220"></rect></clipPath><clipPath id="highcharts-2"><rect x="-99" y="-79" width="663" height="400"></rect></clipPath><clipPath id="highcharts-3"><rect x="0" y="0" width="564" height="220"></rect></clipPath><clipPath id="highcharts-4"><rect x="-99" y="-79" width="663" height="400"></rect></clipPath><clipPath id="highcharts-5"><rect x="0" y="0" width="564" height="40"></rect></clipPath></defs><rect x="0" y="0" width="584" height="400" strokeWidth="0" fill="#FFFFFF" class=" highcharts-background"></rect><g class="highcharts-range-selector-buttons"><text x="10" y="59" style="color:#666;fill:#666;">Zoom</text><g class="highcharts-button"  states="[object Object]" style="cursor:pointer;text-align:center;" transform="translate(46,44)"><rect x="0" y="0" width="32" height="22" strokeWidth="0" fill="#f7f7f7" rx="0" ry="0"></rect><text x="7.5"  style="font-weight:normal;color:#444;fill:#444;" y="14">1m</text></g><g class="highcharts-button"  states="[object Object]" style="cursor:pointer;text-align:center;" transform="translate(83,44)"><rect x="0" y="0" width="32" height="22" strokeWidth="0" fill="#e7f0f9" rx="0" ry="0"></rect><text x="7.5"  style="font-weight:bold;color:black;fill:black;" y="14">3m</text></g><g class="highcharts-button"  states="[object Object]" style="cursor:pointer;text-align:center;" transform="translate(120,44)"><rect x="0" y="0" width="32" height="22" strokeWidth="0" fill="#f7f7f7" rx="0" ry="0"></rect><text x="7.5"  style="font-weight:normal;color:#444;fill:#444;" y="14">6m</text></g><g class="highcharts-button"  states="[object Object]" style="cursor:pointer;text-align:center;" transform="translate(157,44)"><rect x="0" y="0" width="32" height="22" strokeWidth="0" fill="#f7f7f7" rx="0" ry="0"></rect><text x="4"  style="font-weight:normal;color:#444;fill:#444;" y="14">YTD</text></g><g class="highcharts-button"  states="[object Object]" style="cursor:pointer;text-align:center;" transform="translate(194,44)"><rect x="0" y="0" width="32" height="22" strokeWidth="0" fill="#f7f7f7" rx="0" ry="0"></rect><text x="9.5"  style="font-weight:normal;color:#444;fill:#444;" y="14">1y</text></g><g class="highcharts-button"  states="[object Object]" style="cursor:pointer;text-align:center;" transform="translate(231,44)"><rect x="0" y="0" width="32" height="22" strokeWidth="0" fill="#f7f7f7" rx="0" ry="0"></rect><text x="10"  style="font-weight:normal;color:#444;fill:#444;" y="14">All</text></g></g><g class="highcharts-input-group" transform="translate(316,44)" visibility="visible"><g style="fill:#666;" transform="translate(0,0)"><text x="2"  style="font-size:12px;font-family:&quot;lucida grande&quot;, &quot;lucida sans unicode&quot;, arial, helvetica, sans-serif;color:#666;fill:#666;" y="14">From</text></g><g style="text-align:center;" transform="translate(36,0)"><rect x="0.5" y="0.5" width="94" height="21" strokeWidth="1" fill="none" stroke="silver" stroke-width="1"></rect><text x="13.5"  style="font-size:12px;font-family:&quot;lucida grande&quot;, &quot;lucida sans unicode&quot;, arial, helvetica, sans-serif;color:#444;fill:#444;" y="14"><tspan>Feb 9, 2013</tspan></text></g><g style="fill:#666;" transform="translate(140,0)"><text x="2"  style="font-size:12px;font-family:&quot;lucida grande&quot;, &quot;lucida sans unicode&quot;, arial, helvetica, sans-serif;color:#666;fill:#666;" y="14">To</text></g><g style="text-align:center;" transform="translate(164,0)"><rect x="0.5" y="0.5" width="94" height="21" strokeWidth="1" fill="none" stroke="silver" stroke-width="1"></rect><text x="9.5"  style="font-size:12px;font-family:&quot;lucida grande&quot;, &quot;lucida sans unicode&quot;, arial, helvetica, sans-serif;color:#444;fill:#444;" y="14"><tspan>May 10, 2013</tspan></text></g></g><g class="highcharts-grid" ></g><g class="highcharts-grid" ><path fill="none" d="M 141.5 345 L 141.5 385" stroke="#EEE" stroke-width="1"  opacity="1"></path><path fill="none" d="M 302.5 345 L 302.5 385" stroke="#EEE" stroke-width="1"  opacity="1"></path><path fill="none" d="M 464.5 345 L 464.5 385" stroke="#EEE" stroke-width="1"  opacity="1"></path></g><g class="highcharts-grid" ><path fill="none" d="M 10 299.5 L 574 299.5" stroke="#D8D8D8" stroke-width="1"  opacity="1"></path><path fill="none" d="M 10 255.5 L 574 255.5" stroke="#D8D8D8" stroke-width="1"  opacity="1"></path><path fill="none" d="M 10 211.5 L 574 211.5" stroke="#D8D8D8" stroke-width="1"  opacity="1"></path><path fill="none" d="M 10 167.5 L 574 167.5" stroke="#D8D8D8" stroke-width="1"  opacity="1"></path><path fill="none" d="M 10 123.5 L 574 123.5" stroke="#D8D8D8" stroke-width="1"  opacity="1"></path><path fill="none" d="M 10 78.5 L 574 78.5" stroke="#D8D8D8" stroke-width="1"  opacity="1"></path></g><g class="highcharts-grid" ></g><g class="highcharts-axis" ><path fill="none" d="M 65.5 299 L 65.5 309" stroke="#C0D0E0" stroke-width="1" opacity="1"></path><path fill="none" d="M 153.5 299 L 153.5 309" stroke="#C0D0E0" stroke-width="1" opacity="1"></path><path fill="none" d="M 241.5 299 L 241.5 309" stroke="#C0D0E0" stroke-width="1" opacity="1"></path><path fill="none" d="M 329.5 299 L 329.5 309" stroke="#C0D0E0" stroke-width="1" opacity="1"></path><path fill="none" d="M 416.5 299 L 416.5 309" stroke="#C0D0E0" stroke-width="1" opacity="1"></path><path fill="none" d="M 504.5 299 L 504.5 309" stroke="#C0D0E0" stroke-width="1" opacity="1"></path><path fill="none" d="M 10 299.5 L 574 299.5" stroke="#C0D0E0" stroke-width="1"  visibility="visible"></path></g><g class="highcharts-axis" ></g><g class="highcharts-axis" ></g><g class="highcharts-axis" ></g><g class="highcharts-series-group" ><g class="highcharts-series" visibility="visible"  transform="translate(10,79) scale(1 1)" clip-path="url(#highcharts-3)"><path fill="none" d="M -6.2 44.0 L 12.5 35.3 L 18.8 56.4 L 25.0 58.0 L 31.3 58.8 L 37.6 70.1 L 62.6 70.4 L 68.9 90.0 L 75.2 94.9 L 81.4 86.5 L 100.2 100.6 L 106.5 89.8 L 112.8 97.5 L 119.0 103.1 L 125.3 122.3 L 144.1 140.7 L 150.4 121.1 L 156.6 130.8 L 162.9 122.1 L 169.2 120.1 L 188 109.3 L 194.2 125.9 L 200.5 126.1 L 206.7 118.8 L 213.0 99.1 L 231.8 77.9 L 238.1 80.0 L 244.4 84.3 L 250.6 83.1 L 256.9 67.0 L 275.7 64.0 L 282 68.3 L 288.2 84.3 L 294.5 100.9 L 319.5 125.1 L 325.8 123.5 L 332.1 119.6 L 338.4 127.2 L 344.6 135.1 L 363.4 129.8 L 369.7 128.5 L 376 113.1 L 382.2 115.5 L 388.5 123.5 L 407.3 141.0 L 413.5 129.8 L 419.8 171.0 L 426.1 189.9 L 432.4 192.6 L 451.2 178.3 L 457.4 165.2 L 463.7 166.3 L 470 161.2 L 476.2 145.7 L 495.0 122.9 L 501.3 100.7 L 507.5 106.8 L 513.8 95.8 L 520.1 88.0 L 538.9 69.1 L 545.1 72.7 L 551.4 63.6 L 557.7 76.0 L 564 82.7" stroke="#7cb5ec" stroke-width="2"  stroke-linejoin="round" stroke-linecap="round"></path><path fill="none" d="M -16.2 44.0 L -6.2 44.0 L 12.5 35.3 L 18.8 56.4 L 25.0 58.0 L 31.3 58.8 L 37.6 70.1 L 62.6 70.4 L 68.9 90.0 L 75.2 94.9 L 81.4 86.5 L 100.2 100.6 L 106.5 89.8 L 112.8 97.5 L 119.0 103.1 L 125.3 122.3 L 144.1 140.7 L 150.4 121.1 L 156.6 130.8 L 162.9 122.1 L 169.2 120.1 L 188 109.3 L 194.2 125.9 L 200.5 126.1 L 206.7 118.8 L 213.0 99.1 L 231.8 77.9 L 238.1 80.0 L 244.4 84.3 L 250.6 83.1 L 256.9 67.0 L 275.7 64.0 L 282 68.3 L 288.2 84.3 L 294.5 100.9 L 319.5 125.1 L 325.8 123.5 L 332.1 119.6 L 338.4 127.2 L 344.6 135.1 L 363.4 129.8 L 369.7 128.5 L 376 113.1 L 382.2 115.5 L 388.5 123.5 L 407.3 141.0 L 413.5 129.8 L 419.8 171.0 L 426.1 189.9 L 432.4 192.6 L 451.2 178.3 L 457.4 165.2 L 463.7 166.3 L 470 161.2 L 476.2 145.7 L 495.0 122.9 L 501.3 100.7 L 507.5 106.8 L 513.8 95.8 L 520.1 88.0 L 538.9 69.1 L 545.1 72.7 L 551.4 63.6 L 557.7 76.0 L 564 82.7 L 574 82.7" stroke-linejoin="round" visibility="visible" stroke="rgb(192,192,192)" stroke-opacity="0.0" stroke-width="22"  class=" highcharts-tracker" style=""></path></g><g class="highcharts-markers highcharts-tracker" visibility="visible"  transform="translate(10,79) scale(1 1)" clip-path="url(#highcharts-2)" style=""></g><g class="highcharts-series" visibility="visible"  transform="translate(10,345) scale(1 1)" clip-path="url(#highcharts-5)"><path fill="rgb(69,114,167)" fill-opacity="0.0" d="M 0 36.0 C 0 36.0 1.3 36.0 2.2 36.1 C 2.8 36.1 3.1 36.2 3.7 36.2 C 4.4 36.2 4.7 36.3 5.3 36.3 C 5.9 36.3 6.2 36.4 6.8 36.4 C 7.5 36.4 7.8 36.4 8.4 36.4 C 9.0 36.4 9.3 36.4 9.9 36.4 C 10.5 36.4 10.9 36.4 11.5 36.5 C 12.1 36.5 12.4 36.6 13.0 36.6 C 13.6 36.6 13.9 36.6 14.6 36.5 C 15.2 36.4 15.5 36.2 16.1 36.1 C 16.7 36.0 17.0 35.8 17.7 35.8 C 18.3 35.8 18.6 36.0 19.2 36.0 C 19.8 36.0 20.1 36.0 20.8 35.9 C 21.4 35.9 21.7 35.9 22.3 35.9 C 22.9 35.9 23.2 35.9 23.9 35.9 C 24.5 35.9 24.8 35.7 25.4 35.7 C 26.0 35.6 26.3 35.6 26.9 35.6 C 27.6 35.6 27.9 35.6 28.5 35.5 C 29.1 35.5 29.4 35.4 30.0 35.4 C 30.7 35.4 31.0 35.5 31.6 35.5 C 32.2 35.5 32.5 35.5 33.1 35.5 C 33.8 35.5 34.1 35.5 34.7 35.4 C 35.3 35.3 35.6 35.2 36.2 35.2 C 36.8 35.2 37.2 35.3 37.8 35.3 C 38.4 35.3 38.7 35.2 39.3 35.1 C 39.9 35.1 40.2 35.1 40.9 35.0 C 41.5 34.9 41.8 34.8 42.4 34.8 C 43.0 34.7 43.3 34.7 44.0 34.7 C 44.6 34.7 44.9 34.7 45.5 34.8 C 46.1 34.8 46.4 34.8 47.1 34.8 C 47.7 34.9 48.0 35.0 48.6 35.0 C 49.2 35.1 49.5 35.1 50.1 35.1 C 50.8 35.1 51.1 35.1 51.7 35.0 C 52.3 34.9 52.6 34.6 53.2 34.6 C 53.9 34.6 54.2 34.6 54.8 34.6 C 55.4 34.6 55.7 34.9 56.3 34.9 C 57.0 35.0 57.3 35.0 57.9 35.0 C 58.5 35.0 58.8 35.0 59.4 35.0 C 60.1 35.0 60.4 35.0 61.0 35.0 C 61.6 35.0 61.9 34.8 62.5 34.8 C 63.1 34.8 63.5 34.9 64.1 34.9 C 64.7 34.9 65.0 34.9 65.6 34.8 C 66.2 34.8 66.5 34.8 67.2 34.8 C 67.8 34.7 68.1 34.6 68.7 34.6 C 69.3 34.5 69.6 34.5 70.3 34.5 C 70.9 34.5 71.2 34.5 71.8 34.5 C 72.4 34.5 72.7 34.6 73.4 34.6 C 74.0 34.6 74.3 34.7 74.9 34.7 C 75.5 34.7 75.8 34.5 76.4 34.4 C 77.1 34.3 77.4 34.3 78.0 34.2 C 78.6 34.1 78.9 34.0 79.5 33.9 C 80.2 33.8 80.5 33.8 81.1 33.8 C 81.7 33.7 82.0 33.7 82.6 33.6 C 83.3 33.5 83.6 33.4 84.2 33.3 C 84.8 33.2 85.1 33.0 85.7 33.0 C 86.4 33.0 86.7 33.2 87.3 33.2 C 87.9 33.2 88.2 33.0 88.8 33.0 C 89.4 33.0 89.8 33.1 90.4 33.1 C 91.0 33.1 91.3 32.9 91.9 32.8 C 92.5 32.6 92.8 32.6 93.5 32.5 C 94.1 32.4 94.4 32.2 95.0 32.2 C 95.6 32.1 95.9 32.1 96.6 32.1 C 97.2 32.1 97.5 32.3 98.1 32.4 C 98.7 32.5 99.0 32.5 99.7 32.6 C 100.3 32.7 100.6 33.1 101.2 33.1 C 101.8 33.1 102.1 32.8 102.7 32.7 C 103.4 32.6 103.7 32.6 104.3 32.5 C 104.9 32.4 105.2 32.3 105.8 32.3 C 106.5 32.3 106.8 32.3 107.4 32.3 C 108.0 32.3 108.3 32.3 108.9 32.1 C 109.6 31.9 109.9 31.7 110.5 31.5 C 111.1 31.3 111.4 31.4 112.0 31.2 C 112.6 31.1 113.0 30.9 113.6 30.8 C 114.2 30.7 114.5 30.7 115.1 30.6 C 115.7 30.4 116.1 30.1 116.7 29.9 C 117.3 29.8 117.6 29.7 118.2 29.7 C 118.8 29.7 119.1 29.8 119.8 30.0 C 120.4 30.3 120.7 30.9 121.3 30.9 C 121.9 30.9 122.2 30.9 122.9 30.7 C 123.5 30.5 123.8 30.3 124.4 30.2 C 125.0 30.0 125.3 29.9 126.0 29.8 C 126.6 29.7 126.9 29.5 127.5 29.5 C 128.1 29.5 128.4 29.8 129.0 29.8 C 129.7 29.8 130.0 29.1 130.6 29.1 C 131.2 29.1 131.5 29.2 132.1 29.5 C 132.8 29.7 133.1 30.0 133.7 30.3 C 134.3 30.6 134.6 30.4 135.2 30.8 C 135.9 31.2 136.2 31.8 136.8 32.1 C 137.4 32.5 137.7 32.4 138.3 32.5 C 138.9 32.7 139.3 32.9 139.9 32.9 C 140.5 32.9 140.8 32.8 141.4 32.8 C 142.0 32.8 142.4 33.1 143.0 33.1 C 143.6 33.1 143.9 33.0 144.5 33.0 C 145.1 33.0 145.4 33.0 146.1 33.0 C 146.7 33.0 147.0 33.0 147.6 32.9 C 148.2 32.8 148.5 32.8 149.2 32.6 C 149.8 32.5 150.1 32.3 150.7 32.1 C 151.3 31.9 151.6 31.8 152.3 31.7 C 152.9 31.6 153.2 31.6 153.8 31.5 C 154.4 31.5 154.7 31.5 155.3 31.5 C 156.0 31.4 156.3 31.1 156.9 30.8 C 157.5 30.6 157.8 30.5 158.4 30.3 C 159.1 30.1 159.4 30.0 160.0 29.9 C 160.6 29.7 160.9 29.7 161.5 29.7 C 162.2 29.7 162.5 30.0 163.1 30.0 C 163.7 30.0 164.0 29.7 164.6 29.7 C 165.2 29.7 165.6 29.7 166.2 29.8 C 166.8 29.8 167.1 30.2 167.7 30.2 C 168.3 30.2 168.7 30.2 169.3 30.2 C 169.9 30.2 170.2 30.4 170.8 30.5 C 171.4 30.6 171.7 30.6 172.4 30.6 C 173.0 30.6 173.3 30.3 173.9 30.3 C 174.5 30.3 174.8 30.4 175.5 30.6 C 176.1 30.7 176.4 30.8 177.0 31.0 C 177.6 31.1 177.9 31.3 178.6 31.3 C 179.2 31.3 179.5 31.2 180.1 31.0 C 180.7 30.8 181.0 30.2 181.6 30.2 C 182.3 30.2 182.6 30.3 183.2 30.3 C 183.8 30.4 184.1 30.3 184.7 30.5 C 185.4 30.6 185.7 30.7 186.3 30.9 C 186.9 31.1 187.2 31.2 187.8 31.5 C 188.5 31.8 188.8 32.1 189.4 32.3 C 190.0 32.6 190.3 32.4 190.9 32.7 C 191.5 33.0 191.9 33.6 192.5 34.0 C 193.1 34.3 193.4 34.6 194.0 34.6 C 194.6 34.6 195.0 34.1 195.6 34.1 C 196.2 34.1 196.5 34.4 197.1 34.4 C 197.7 34.4 198.0 34.1 198.7 34.1 C 199.3 34.0 199.6 34.0 200.2 34.0 C 200.8 34.0 201.1 34.4 201.8 34.5 C 202.4 34.7 202.7 35.0 203.3 35.0 C 203.9 35.0 204.2 34.6 204.9 34.6 C 205.5 34.6 205.8 34.6 206.4 34.6 C 207.0 34.6 207.3 34.3 207.9 34.3 C 208.6 34.3 208.9 34.5 209.5 34.6 C 210.1 34.8 210.4 35.0 211.0 35.0 C 211.7 35.0 212.0 35.0 212.6 34.9 C 213.2 34.8 213.5 34.6 214.1 34.6 C 214.8 34.6 215.1 34.9 215.7 35.0 C 216.3 35.0 216.6 35.0 217.2 35.0 C 217.8 35.0 218.2 34.8 218.8 34.6 C 219.4 34.5 219.7 34.6 220.3 34.5 C 220.9 34.4 221.3 34.3 221.9 34.3 C 222.5 34.3 222.8 34.5 223.4 34.6 C 224.0 34.7 224.3 34.7 225.0 34.8 C 225.6 34.8 225.9 34.8 226.5 34.8 C 227.1 34.8 227.4 34.8 228.1 34.7 C 228.7 34.5 229.0 34.4 229.6 34.2 C 230.2 34.0 230.5 33.9 231.2 33.8 C 231.8 33.7 232.1 33.8 232.7 33.7 C 233.3 33.6 233.6 33.4 234.2 33.3 C 234.9 33.2 235.2 33.2 235.8 33.2 C 236.4 33.1 236.7 33.1 237.3 33.0 C 238.0 33.0 238.3 33.0 238.9 32.9 C 239.5 32.8 239.8 32.6 240.4 32.6 C 241.1 32.6 241.4 33.0 242.0 33.0 C 242.6 33.0 242.9 33.0 243.5 32.9 C 244.1 32.8 244.5 32.6 245.1 32.5 C 245.7 32.3 246.0 32.1 246.6 32.1 C 247.2 32.1 247.5 32.1 248.2 32.1 C 248.8 32.2 249.1 32.3 249.7 32.3 C 250.3 32.3 250.6 32.3 251.3 32.3 C 251.9 32.2 252.2 32.1 252.8 32.1 C 253.4 32.1 253.7 32.3 254.4 32.3 C 255.0 32.3 255.3 32.0 255.9 31.8 C 256.5 31.6 256.8 31.5 257.5 31.3 C 258.1 31.2 258.4 31.2 259.0 31.1 C 259.6 31.0 259.9 30.9 260.5 30.8 C 261.2 30.8 261.5 30.8 262.1 30.8 C 262.7 30.8 263.0 30.9 263.6 30.9 C 264.3 30.9 264.6 30.7 265.2 30.7 C 265.8 30.7 266.1 30.8 266.7 30.8 C 267.4 30.8 267.7 30.6 268.3 30.5 C 268.9 30.4 269.2 30.2 269.8 30.1 C 270.4 30.0 270.8 29.9 271.4 29.9 C 272.0 29.9 272.3 29.9 272.9 29.9 C 273.5 29.8 273.8 29.7 274.5 29.6 C 275.1 29.6 275.4 29.6 276.0 29.6 C 276.6 29.5 276.9 29.0 277.6 29.0 C 278.2 29.0 278.5 29.2 279.1 29.3 C 279.7 29.4 280.0 29.5 280.7 29.5 C 281.3 29.5 281.6 29.0 282.2 28.9 C 282.8 28.9 283.1 28.9 283.8 28.9 C 284.4 28.9 284.7 28.9 285.3 28.9 C 285.9 28.9 286.2 29.1 286.8 29.2 C 287.5 29.3 287.8 29.4 288.4 29.4 C 289.0 29.4 289.3 29.4 289.9 29.3 C 290.6 29.3 290.9 29.0 291.5 28.9 C 292.1 28.7 292.4 28.6 293.0 28.5 C 293.7 28.4 294.0 28.4 294.6 28.4 C 295.2 28.4 295.5 28.6 296.1 28.6 C 296.7 28.7 297.1 28.6 297.7 28.7 C 298.3 28.7 298.6 28.9 299.2 29.0 C 299.8 29.1 300.1 29.3 300.8 29.3 C 301.4 29.3 301.7 29.3 302.3 29.2 C 302.9 29.2 303.2 28.9 303.9 28.9 C 304.5 28.9 304.8 29.0 305.4 29.0 C 306.0 29.0 306.3 28.7 307.0 28.5 C 307.6 28.2 307.9 27.8 308.5 27.8 C 309.1 27.8 309.4 27.8 310.0 27.8 C 310.7 27.8 311.0 27.7 311.6 27.6 C 312.2 27.5 312.5 27.4 313.1 27.3 C 313.8 27.1 314.1 27.1 314.7 27.0 C 315.3 26.9 315.6 26.9 316.2 26.7 C 316.9 26.5 317.2 26.3 317.8 26.1 C 318.4 25.9 318.7 25.7 319.3 25.7 C 320.0 25.7 320.3 26.4 320.9 26.4 C 321.5 26.4 321.8 26.1 322.4 26.1 C 323.0 26.1 323.4 26.6 324.0 26.6 C 324.6 26.6 324.9 26.6 325.5 26.5 C 326.1 26.4 326.4 26.0 327.1 26.0 C 327.7 26.0 328.0 26.5 328.6 26.5 C 329.2 26.5 329.5 25.9 330.2 25.7 C 330.8 25.5 331.1 25.4 331.7 25.4 C 332.3 25.4 332.6 26.3 333.3 26.3 C 333.9 26.3 334.2 26.3 334.8 26.3 C 335.4 26.3 335.7 26.4 336.3 26.4 C 337.0 26.4 337.3 26.3 337.9 26.3 C 338.5 26.2 338.8 26.1 339.4 26.0 C 340.1 25.9 340.4 25.9 341.0 25.9 C 341.6 25.9 341.9 26.1 342.5 26.3 C 343.2 26.4 343.5 26.3 344.1 26.5 C 344.7 26.6 345.0 26.9 345.6 26.9 C 346.2 26.9 346.6 26.7 347.2 26.5 C 347.8 26.3 348.1 26.1 348.7 25.9 C 349.3 25.7 349.7 25.6 350.3 25.4 C 350.9 25.1 351.2 24.6 351.8 24.6 C 352.4 24.6 352.7 24.6 353.4 24.6 C 354.0 24.6 354.3 24.6 354.9 24.5 C 355.5 24.4 355.8 24.0 356.5 23.8 C 357.1 23.6 357.4 23.3 358.0 23.3 C 358.6 23.3 358.9 23.6 359.6 23.6 C 360.2 23.6 360.5 23.4 361.1 23.3 C 361.7 23.2 362.0 23.1 362.6 23.1 C 363.3 23.1 363.6 23.7 364.2 23.7 C 364.8 23.7 365.1 23.4 365.7 23.2 C 366.4 23.1 366.7 23.2 367.3 23.1 C 367.9 23.0 368.2 22.9 368.8 22.9 C 369.5 22.8 369.8 22.9 370.4 22.8 C 371.0 22.8 371.3 22.7 371.9 22.7 C 372.5 22.7 372.9 22.7 373.5 22.7 C 374.1 22.6 374.4 22.4 375.0 22.2 C 375.6 22.0 376.0 21.6 376.6 21.6 C 377.2 21.6 377.5 22.1 378.1 22.1 C 378.7 22.1 379.0 21.9 379.7 21.8 C 380.3 21.7 380.6 21.8 381.2 21.7 C 381.8 21.5 382.1 21.2 382.8 21.1 C 383.4 20.9 383.7 20.9 384.3 20.9 C 384.9 20.9 385.2 21.7 385.9 21.7 C 386.5 21.7 386.8 21.1 387.4 21.1 C 388.0 21.1 388.3 21.1 388.9 21.2 C 389.6 21.3 389.9 21.9 390.5 21.9 C 391.1 21.9 391.4 21.8 392.0 21.7 C 392.7 21.6 393.0 21.4 393.6 21.4 C 394.2 21.4 394.5 21.8 395.1 21.9 C 395.8 22.1 396.1 22.3 396.7 22.3 C 397.3 22.3 397.6 22.0 398.2 21.8 C 398.8 21.6 399.2 21.3 399.8 21.3 C 400.4 21.3 400.7 21.4 401.3 21.5 C 401.9 21.5 402.3 21.5 402.9 21.5 C 403.5 21.6 403.8 21.9 404.4 22.0 C 405.0 22.1 405.3 22.1 406.0 22.1 C 406.6 22.1 406.9 21.6 407.5 21.6 C 408.1 21.6 408.4 22.1 409.1 22.3 C 409.7 22.5 410.0 22.5 410.6 22.6 C 411.2 22.6 411.5 22.7 412.2 22.7 C 412.8 22.7 413.1 22.4 413.7 22.1 C 414.3 21.7 414.6 21.3 415.2 21.1 C 415.9 20.9 416.2 21.1 416.8 20.9 C 417.4 20.8 417.7 20.0 418.3 19.6 C 419.0 19.2 419.3 19.0 419.9 19.0 C 420.5 19.0 420.8 19.2 421.4 19.5 C 422.1 19.8 422.4 20.4 423.0 20.4 C 423.6 20.4 423.9 20.1 424.5 20.1 C 425.1 20.1 425.5 20.2 426.1 20.2 C 426.7 20.2 427.0 19.6 427.6 19.6 C 428.2 19.6 428.6 19.7 429.2 19.7 C 429.8 19.7 430.1 19.6 430.7 19.3 C 431.3 19.0 431.6 18.3 432.3 18.3 C 432.9 18.3 433.2 18.7 433.8 19.1 C 434.4 19.4 434.7 20.1 435.4 20.1 C 436.0 20.1 436.3 18.6 436.9 18.5 C 437.5 18.5 437.8 18.5 438.5 18.5 C 439.1 18.5 439.4 18.6 440.0 18.6 C 440.6 18.7 440.9 18.7 441.5 18.7 C 442.2 18.8 442.5 18.9 443.1 19.1 C 443.7 19.3 444.0 19.5 444.6 19.7 C 445.3 20.0 445.6 20.4 446.2 20.4 C 446.8 20.4 447.1 19.9 447.7 19.7 C 448.4 19.5 448.7 19.2 449.3 19.2 C 449.9 19.2 450.2 19.6 450.8 19.6 C 451.4 19.6 451.8 19.2 452.4 19.0 C 453.0 18.8 453.3 18.7 453.9 18.5 C 454.5 18.3 454.9 18.1 455.5 17.9 C 456.1 17.7 456.4 17.7 457.0 17.6 C 457.6 17.5 457.9 17.6 458.6 17.4 C 459.2 17.3 459.5 17.2 460.1 16.8 C 460.7 16.5 461.0 16.3 461.7 15.9 C 462.3 15.4 462.6 15.2 463.2 14.7 C 463.8 14.2 464.1 13.9 464.8 13.5 C 465.4 13.1 465.7 13.1 466.3 12.8 C 466.9 12.4 467.2 11.6 467.8 11.6 C 468.5 11.6 468.8 11.7 469.4 11.7 C 470.0 11.7 470.3 10.4 470.9 9.7 C 471.6 9.0 471.9 8.8 472.5 8.4 C 473.1 8.1 473.4 8.2 474.0 8.0 C 474.7 7.7 475.0 7.1 475.6 7.1 C 476.2 7.1 476.5 7.1 477.1 7.2 C 477.7 7.4 478.1 8.8 478.7 8.9 C 479.3 8.9 479.6 8.9 480.2 8.9 C 480.8 9.0 481.2 9.3 481.8 9.5 C 482.4 9.7 482.7 9.7 483.3 10.1 C 483.9 10.4 484.2 11.4 484.9 11.4 C 485.5 11.4 485.8 10.6 486.4 10.4 C 487.0 10.1 487.3 9.9 488.0 9.9 C 488.6 9.9 488.9 10.0 489.5 10.0 C 490.1 10.0 490.4 10.0 491.1 9.8 C 491.7 9.7 492.0 9.3 492.6 9.3 C 493.2 9.3 493.5 9.8 494.1 9.8 C 494.8 9.8 495.1 8.6 495.7 8.4 C 496.3 8.1 496.6 8.2 497.2 8.1 C 497.9 8.1 498.2 8.1 498.8 8.1 C 499.4 8.1 499.7 9.1 500.3 9.1 C 501.0 9.1 501.3 8.4 501.9 8.1 C 502.5 7.7 502.8 7.7 503.4 7.4 C 504.0 7.1 504.4 7.1 505.0 6.6 C 505.6 6.2 505.9 5.6 506.5 5.2 C 507.1 4.8 507.4 5.0 508.1 4.8 C 508.7 4.7 509.0 4.6 509.6 4.6 C 510.2 4.6 510.5 4.7 511.2 4.7 C 511.8 4.7 512.1 3.3 512.7 3.3 C 513.3 3.3 513.6 4.2 514.3 4.6 C 514.9 5.0 515.2 4.8 515.8 5.3 C 516.4 5.7 516.7 6.7 517.4 6.7 C 518.0 6.7 518.3 6.7 518.9 6.7 C 519.5 6.7 519.8 7.2 520.4 7.7 C 521.1 8.1 521.4 8.4 522.0 9.0 C 522.6 9.5 522.9 9.9 523.5 10.4 C 524.2 11.0 524.5 11.8 525.1 11.8 C 525.7 11.8 526.0 10.8 526.6 10.3 C 527.3 9.7 527.6 9.2 528.2 9.2 C 528.8 9.2 529.1 10.1 529.7 10.7 C 530.3 11.3 530.7 11.8 531.3 12.1 C 531.9 12.4 532.2 12.2 532.8 12.4 C 533.4 12.5 533.7 12.9 534.4 12.9 C 535.0 12.9 535.3 11.7 535.9 11.7 C 536.5 11.7 536.8 12.1 537.5 12.5 C 538.1 12.9 538.4 13.2 539.0 13.6 C 539.6 14.1 539.9 14.3 540.6 14.8 C 541.2 15.2 541.5 15.9 542.1 15.9 C 542.7 15.9 543.0 15.8 543.6 15.7 C 544.3 15.5 544.6 15.2 545.2 15.2 C 545.8 15.2 546.1 15.8 546.7 16.1 C 547.4 16.4 547.7 16.4 548.3 16.6 C 548.9 16.9 549.2 17.3 549.8 17.3 C 550.5 17.3 550.8 17.3 551.4 17.0 C 552.0 16.7 552.3 15.9 552.9 15.9 C 553.6 15.9 553.9 15.9 554.5 15.9 C 555.1 16.0 555.4 17.3 556.0 17.3 C 556.6 17.3 557.0 17.2 557.6 17.2 C 558.2 17.2 558.5 18.4 559.1 18.4 C 559.7 18.4 560.0 18.4 560.7 18.4 C 561.3 18.3 561.6 17.1 562.2 16.6 C 562.9 16.1 564 15.7 564 15.7 L 564 40 L 0 40" ></path><path fill="none" d="M 0 36.0 C 0 36.0 1.3 36.0 2.2 36.1 C 2.8 36.1 3.1 36.2 3.7 36.2 C 4.4 36.2 4.7 36.3 5.3 36.3 C 5.9 36.3 6.2 36.4 6.8 36.4 C 7.5 36.4 7.8 36.4 8.4 36.4 C 9.0 36.4 9.3 36.4 9.9 36.4 C 10.5 36.4 10.9 36.4 11.5 36.5 C 12.1 36.5 12.4 36.6 13.0 36.6 C 13.6 36.6 13.9 36.6 14.6 36.5 C 15.2 36.4 15.5 36.2 16.1 36.1 C 16.7 36.0 17.0 35.8 17.7 35.8 C 18.3 35.8 18.6 36.0 19.2 36.0 C 19.8 36.0 20.1 36.0 20.8 35.9 C 21.4 35.9 21.7 35.9 22.3 35.9 C 22.9 35.9 23.2 35.9 23.9 35.9 C 24.5 35.9 24.8 35.7 25.4 35.7 C 26.0 35.6 26.3 35.6 26.9 35.6 C 27.6 35.6 27.9 35.6 28.5 35.5 C 29.1 35.5 29.4 35.4 30.0 35.4 C 30.7 35.4 31.0 35.5 31.6 35.5 C 32.2 35.5 32.5 35.5 33.1 35.5 C 33.8 35.5 34.1 35.5 34.7 35.4 C 35.3 35.3 35.6 35.2 36.2 35.2 C 36.8 35.2 37.2 35.3 37.8 35.3 C 38.4 35.3 38.7 35.2 39.3 35.1 C 39.9 35.1 40.2 35.1 40.9 35.0 C 41.5 34.9 41.8 34.8 42.4 34.8 C 43.0 34.7 43.3 34.7 44.0 34.7 C 44.6 34.7 44.9 34.7 45.5 34.8 C 46.1 34.8 46.4 34.8 47.1 34.8 C 47.7 34.9 48.0 35.0 48.6 35.0 C 49.2 35.1 49.5 35.1 50.1 35.1 C 50.8 35.1 51.1 35.1 51.7 35.0 C 52.3 34.9 52.6 34.6 53.2 34.6 C 53.9 34.6 54.2 34.6 54.8 34.6 C 55.4 34.6 55.7 34.9 56.3 34.9 C 57.0 35.0 57.3 35.0 57.9 35.0 C 58.5 35.0 58.8 35.0 59.4 35.0 C 60.1 35.0 60.4 35.0 61.0 35.0 C 61.6 35.0 61.9 34.8 62.5 34.8 C 63.1 34.8 63.5 34.9 64.1 34.9 C 64.7 34.9 65.0 34.9 65.6 34.8 C 66.2 34.8 66.5 34.8 67.2 34.8 C 67.8 34.7 68.1 34.6 68.7 34.6 C 69.3 34.5 69.6 34.5 70.3 34.5 C 70.9 34.5 71.2 34.5 71.8 34.5 C 72.4 34.5 72.7 34.6 73.4 34.6 C 74.0 34.6 74.3 34.7 74.9 34.7 C 75.5 34.7 75.8 34.5 76.4 34.4 C 77.1 34.3 77.4 34.3 78.0 34.2 C 78.6 34.1 78.9 34.0 79.5 33.9 C 80.2 33.8 80.5 33.8 81.1 33.8 C 81.7 33.7 82.0 33.7 82.6 33.6 C 83.3 33.5 83.6 33.4 84.2 33.3 C 84.8 33.2 85.1 33.0 85.7 33.0 C 86.4 33.0 86.7 33.2 87.3 33.2 C 87.9 33.2 88.2 33.0 88.8 33.0 C 89.4 33.0 89.8 33.1 90.4 33.1 C 91.0 33.1 91.3 32.9 91.9 32.8 C 92.5 32.6 92.8 32.6 93.5 32.5 C 94.1 32.4 94.4 32.2 95.0 32.2 C 95.6 32.1 95.9 32.1 96.6 32.1 C 97.2 32.1 97.5 32.3 98.1 32.4 C 98.7 32.5 99.0 32.5 99.7 32.6 C 100.3 32.7 100.6 33.1 101.2 33.1 C 101.8 33.1 102.1 32.8 102.7 32.7 C 103.4 32.6 103.7 32.6 104.3 32.5 C 104.9 32.4 105.2 32.3 105.8 32.3 C 106.5 32.3 106.8 32.3 107.4 32.3 C 108.0 32.3 108.3 32.3 108.9 32.1 C 109.6 31.9 109.9 31.7 110.5 31.5 C 111.1 31.3 111.4 31.4 112.0 31.2 C 112.6 31.1 113.0 30.9 113.6 30.8 C 114.2 30.7 114.5 30.7 115.1 30.6 C 115.7 30.4 116.1 30.1 116.7 29.9 C 117.3 29.8 117.6 29.7 118.2 29.7 C 118.8 29.7 119.1 29.8 119.8 30.0 C 120.4 30.3 120.7 30.9 121.3 30.9 C 121.9 30.9 122.2 30.9 122.9 30.7 C 123.5 30.5 123.8 30.3 124.4 30.2 C 125.0 30.0 125.3 29.9 126.0 29.8 C 126.6 29.7 126.9 29.5 127.5 29.5 C 128.1 29.5 128.4 29.8 129.0 29.8 C 129.7 29.8 130.0 29.1 130.6 29.1 C 131.2 29.1 131.5 29.2 132.1 29.5 C 132.8 29.7 133.1 30.0 133.7 30.3 C 134.3 30.6 134.6 30.4 135.2 30.8 C 135.9 31.2 136.2 31.8 136.8 32.1 C 137.4 32.5 137.7 32.4 138.3 32.5 C 138.9 32.7 139.3 32.9 139.9 32.9 C 140.5 32.9 140.8 32.8 141.4 32.8 C 142.0 32.8 142.4 33.1 143.0 33.1 C 143.6 33.1 143.9 33.0 144.5 33.0 C 145.1 33.0 145.4 33.0 146.1 33.0 C 146.7 33.0 147.0 33.0 147.6 32.9 C 148.2 32.8 148.5 32.8 149.2 32.6 C 149.8 32.5 150.1 32.3 150.7 32.1 C 151.3 31.9 151.6 31.8 152.3 31.7 C 152.9 31.6 153.2 31.6 153.8 31.5 C 154.4 31.5 154.7 31.5 155.3 31.5 C 156.0 31.4 156.3 31.1 156.9 30.8 C 157.5 30.6 157.8 30.5 158.4 30.3 C 159.1 30.1 159.4 30.0 160.0 29.9 C 160.6 29.7 160.9 29.7 161.5 29.7 C 162.2 29.7 162.5 30.0 163.1 30.0 C 163.7 30.0 164.0 29.7 164.6 29.7 C 165.2 29.7 165.6 29.7 166.2 29.8 C 166.8 29.8 167.1 30.2 167.7 30.2 C 168.3 30.2 168.7 30.2 169.3 30.2 C 169.9 30.2 170.2 30.4 170.8 30.5 C 171.4 30.6 171.7 30.6 172.4 30.6 C 173.0 30.6 173.3 30.3 173.9 30.3 C 174.5 30.3 174.8 30.4 175.5 30.6 C 176.1 30.7 176.4 30.8 177.0 31.0 C 177.6 31.1 177.9 31.3 178.6 31.3 C 179.2 31.3 179.5 31.2 180.1 31.0 C 180.7 30.8 181.0 30.2 181.6 30.2 C 182.3 30.2 182.6 30.3 183.2 30.3 C 183.8 30.4 184.1 30.3 184.7 30.5 C 185.4 30.6 185.7 30.7 186.3 30.9 C 186.9 31.1 187.2 31.2 187.8 31.5 C 188.5 31.8 188.8 32.1 189.4 32.3 C 190.0 32.6 190.3 32.4 190.9 32.7 C 191.5 33.0 191.9 33.6 192.5 34.0 C 193.1 34.3 193.4 34.6 194.0 34.6 C 194.6 34.6 195.0 34.1 195.6 34.1 C 196.2 34.1 196.5 34.4 197.1 34.4 C 197.7 34.4 198.0 34.1 198.7 34.1 C 199.3 34.0 199.6 34.0 200.2 34.0 C 200.8 34.0 201.1 34.4 201.8 34.5 C 202.4 34.7 202.7 35.0 203.3 35.0 C 203.9 35.0 204.2 34.6 204.9 34.6 C 205.5 34.6 205.8 34.6 206.4 34.6 C 207.0 34.6 207.3 34.3 207.9 34.3 C 208.6 34.3 208.9 34.5 209.5 34.6 C 210.1 34.8 210.4 35.0 211.0 35.0 C 211.7 35.0 212.0 35.0 212.6 34.9 C 213.2 34.8 213.5 34.6 214.1 34.6 C 214.8 34.6 215.1 34.9 215.7 35.0 C 216.3 35.0 216.6 35.0 217.2 35.0 C 217.8 35.0 218.2 34.8 218.8 34.6 C 219.4 34.5 219.7 34.6 220.3 34.5 C 220.9 34.4 221.3 34.3 221.9 34.3 C 222.5 34.3 222.8 34.5 223.4 34.6 C 224.0 34.7 224.3 34.7 225.0 34.8 C 225.6 34.8 225.9 34.8 226.5 34.8 C 227.1 34.8 227.4 34.8 228.1 34.7 C 228.7 34.5 229.0 34.4 229.6 34.2 C 230.2 34.0 230.5 33.9 231.2 33.8 C 231.8 33.7 232.1 33.8 232.7 33.7 C 233.3 33.6 233.6 33.4 234.2 33.3 C 234.9 33.2 235.2 33.2 235.8 33.2 C 236.4 33.1 236.7 33.1 237.3 33.0 C 238.0 33.0 238.3 33.0 238.9 32.9 C 239.5 32.8 239.8 32.6 240.4 32.6 C 241.1 32.6 241.4 33.0 242.0 33.0 C 242.6 33.0 242.9 33.0 243.5 32.9 C 244.1 32.8 244.5 32.6 245.1 32.5 C 245.7 32.3 246.0 32.1 246.6 32.1 C 247.2 32.1 247.5 32.1 248.2 32.1 C 248.8 32.2 249.1 32.3 249.7 32.3 C 250.3 32.3 250.6 32.3 251.3 32.3 C 251.9 32.2 252.2 32.1 252.8 32.1 C 253.4 32.1 253.7 32.3 254.4 32.3 C 255.0 32.3 255.3 32.0 255.9 31.8 C 256.5 31.6 256.8 31.5 257.5 31.3 C 258.1 31.2 258.4 31.2 259.0 31.1 C 259.6 31.0 259.9 30.9 260.5 30.8 C 261.2 30.8 261.5 30.8 262.1 30.8 C 262.7 30.8 263.0 30.9 263.6 30.9 C 264.3 30.9 264.6 30.7 265.2 30.7 C 265.8 30.7 266.1 30.8 266.7 30.8 C 267.4 30.8 267.7 30.6 268.3 30.5 C 268.9 30.4 269.2 30.2 269.8 30.1 C 270.4 30.0 270.8 29.9 271.4 29.9 C 272.0 29.9 272.3 29.9 272.9 29.9 C 273.5 29.8 273.8 29.7 274.5 29.6 C 275.1 29.6 275.4 29.6 276.0 29.6 C 276.6 29.5 276.9 29.0 277.6 29.0 C 278.2 29.0 278.5 29.2 279.1 29.3 C 279.7 29.4 280.0 29.5 280.7 29.5 C 281.3 29.5 281.6 29.0 282.2 28.9 C 282.8 28.9 283.1 28.9 283.8 28.9 C 284.4 28.9 284.7 28.9 285.3 28.9 C 285.9 28.9 286.2 29.1 286.8 29.2 C 287.5 29.3 287.8 29.4 288.4 29.4 C 289.0 29.4 289.3 29.4 289.9 29.3 C 290.6 29.3 290.9 29.0 291.5 28.9 C 292.1 28.7 292.4 28.6 293.0 28.5 C 293.7 28.4 294.0 28.4 294.6 28.4 C 295.2 28.4 295.5 28.6 296.1 28.6 C 296.7 28.7 297.1 28.6 297.7 28.7 C 298.3 28.7 298.6 28.9 299.2 29.0 C 299.8 29.1 300.1 29.3 300.8 29.3 C 301.4 29.3 301.7 29.3 302.3 29.2 C 302.9 29.2 303.2 28.9 303.9 28.9 C 304.5 28.9 304.8 29.0 305.4 29.0 C 306.0 29.0 306.3 28.7 307.0 28.5 C 307.6 28.2 307.9 27.8 308.5 27.8 C 309.1 27.8 309.4 27.8 310.0 27.8 C 310.7 27.8 311.0 27.7 311.6 27.6 C 312.2 27.5 312.5 27.4 313.1 27.3 C 313.8 27.1 314.1 27.1 314.7 27.0 C 315.3 26.9 315.6 26.9 316.2 26.7 C 316.9 26.5 317.2 26.3 317.8 26.1 C 318.4 25.9 318.7 25.7 319.3 25.7 C 320.0 25.7 320.3 26.4 320.9 26.4 C 321.5 26.4 321.8 26.1 322.4 26.1 C 323.0 26.1 323.4 26.6 324.0 26.6 C 324.6 26.6 324.9 26.6 325.5 26.5 C 326.1 26.4 326.4 26.0 327.1 26.0 C 327.7 26.0 328.0 26.5 328.6 26.5 C 329.2 26.5 329.5 25.9 330.2 25.7 C 330.8 25.5 331.1 25.4 331.7 25.4 C 332.3 25.4 332.6 26.3 333.3 26.3 C 333.9 26.3 334.2 26.3 334.8 26.3 C 335.4 26.3 335.7 26.4 336.3 26.4 C 337.0 26.4 337.3 26.3 337.9 26.3 C 338.5 26.2 338.8 26.1 339.4 26.0 C 340.1 25.9 340.4 25.9 341.0 25.9 C 341.6 25.9 341.9 26.1 342.5 26.3 C 343.2 26.4 343.5 26.3 344.1 26.5 C 344.7 26.6 345.0 26.9 345.6 26.9 C 346.2 26.9 346.6 26.7 347.2 26.5 C 347.8 26.3 348.1 26.1 348.7 25.9 C 349.3 25.7 349.7 25.6 350.3 25.4 C 350.9 25.1 351.2 24.6 351.8 24.6 C 352.4 24.6 352.7 24.6 353.4 24.6 C 354.0 24.6 354.3 24.6 354.9 24.5 C 355.5 24.4 355.8 24.0 356.5 23.8 C 357.1 23.6 357.4 23.3 358.0 23.3 C 358.6 23.3 358.9 23.6 359.6 23.6 C 360.2 23.6 360.5 23.4 361.1 23.3 C 361.7 23.2 362.0 23.1 362.6 23.1 C 363.3 23.1 363.6 23.7 364.2 23.7 C 364.8 23.7 365.1 23.4 365.7 23.2 C 366.4 23.1 366.7 23.2 367.3 23.1 C 367.9 23.0 368.2 22.9 368.8 22.9 C 369.5 22.8 369.8 22.9 370.4 22.8 C 371.0 22.8 371.3 22.7 371.9 22.7 C 372.5 22.7 372.9 22.7 373.5 22.7 C 374.1 22.6 374.4 22.4 375.0 22.2 C 375.6 22.0 376.0 21.6 376.6 21.6 C 377.2 21.6 377.5 22.1 378.1 22.1 C 378.7 22.1 379.0 21.9 379.7 21.8 C 380.3 21.7 380.6 21.8 381.2 21.7 C 381.8 21.5 382.1 21.2 382.8 21.1 C 383.4 20.9 383.7 20.9 384.3 20.9 C 384.9 20.9 385.2 21.7 385.9 21.7 C 386.5 21.7 386.8 21.1 387.4 21.1 C 388.0 21.1 388.3 21.1 388.9 21.2 C 389.6 21.3 389.9 21.9 390.5 21.9 C 391.1 21.9 391.4 21.8 392.0 21.7 C 392.7 21.6 393.0 21.4 393.6 21.4 C 394.2 21.4 394.5 21.8 395.1 21.9 C 395.8 22.1 396.1 22.3 396.7 22.3 C 397.3 22.3 397.6 22.0 398.2 21.8 C 398.8 21.6 399.2 21.3 399.8 21.3 C 400.4 21.3 400.7 21.4 401.3 21.5 C 401.9 21.5 402.3 21.5 402.9 21.5 C 403.5 21.6 403.8 21.9 404.4 22.0 C 405.0 22.1 405.3 22.1 406.0 22.1 C 406.6 22.1 406.9 21.6 407.5 21.6 C 408.1 21.6 408.4 22.1 409.1 22.3 C 409.7 22.5 410.0 22.5 410.6 22.6 C 411.2 22.6 411.5 22.7 412.2 22.7 C 412.8 22.7 413.1 22.4 413.7 22.1 C 414.3 21.7 414.6 21.3 415.2 21.1 C 415.9 20.9 416.2 21.1 416.8 20.9 C 417.4 20.8 417.7 20.0 418.3 19.6 C 419.0 19.2 419.3 19.0 419.9 19.0 C 420.5 19.0 420.8 19.2 421.4 19.5 C 422.1 19.8 422.4 20.4 423.0 20.4 C 423.6 20.4 423.9 20.1 424.5 20.1 C 425.1 20.1 425.5 20.2 426.1 20.2 C 426.7 20.2 427.0 19.6 427.6 19.6 C 428.2 19.6 428.6 19.7 429.2 19.7 C 429.8 19.7 430.1 19.6 430.7 19.3 C 431.3 19.0 431.6 18.3 432.3 18.3 C 432.9 18.3 433.2 18.7 433.8 19.1 C 434.4 19.4 434.7 20.1 435.4 20.1 C 436.0 20.1 436.3 18.6 436.9 18.5 C 437.5 18.5 437.8 18.5 438.5 18.5 C 439.1 18.5 439.4 18.6 440.0 18.6 C 440.6 18.7 440.9 18.7 441.5 18.7 C 442.2 18.8 442.5 18.9 443.1 19.1 C 443.7 19.3 444.0 19.5 444.6 19.7 C 445.3 20.0 445.6 20.4 446.2 20.4 C 446.8 20.4 447.1 19.9 447.7 19.7 C 448.4 19.5 448.7 19.2 449.3 19.2 C 449.9 19.2 450.2 19.6 450.8 19.6 C 451.4 19.6 451.8 19.2 452.4 19.0 C 453.0 18.8 453.3 18.7 453.9 18.5 C 454.5 18.3 454.9 18.1 455.5 17.9 C 456.1 17.7 456.4 17.7 457.0 17.6 C 457.6 17.5 457.9 17.6 458.6 17.4 C 459.2 17.3 459.5 17.2 460.1 16.8 C 460.7 16.5 461.0 16.3 461.7 15.9 C 462.3 15.4 462.6 15.2 463.2 14.7 C 463.8 14.2 464.1 13.9 464.8 13.5 C 465.4 13.1 465.7 13.1 466.3 12.8 C 466.9 12.4 467.2 11.6 467.8 11.6 C 468.5 11.6 468.8 11.7 469.4 11.7 C 470.0 11.7 470.3 10.4 470.9 9.7 C 471.6 9.0 471.9 8.8 472.5 8.4 C 473.1 8.1 473.4 8.2 474.0 8.0 C 474.7 7.7 475.0 7.1 475.6 7.1 C 476.2 7.1 476.5 7.1 477.1 7.2 C 477.7 7.4 478.1 8.8 478.7 8.9 C 479.3 8.9 479.6 8.9 480.2 8.9 C 480.8 9.0 481.2 9.3 481.8 9.5 C 482.4 9.7 482.7 9.7 483.3 10.1 C 483.9 10.4 484.2 11.4 484.9 11.4 C 485.5 11.4 485.8 10.6 486.4 10.4 C 487.0 10.1 487.3 9.9 488.0 9.9 C 488.6 9.9 488.9 10.0 489.5 10.0 C 490.1 10.0 490.4 10.0 491.1 9.8 C 491.7 9.7 492.0 9.3 492.6 9.3 C 493.2 9.3 493.5 9.8 494.1 9.8 C 494.8 9.8 495.1 8.6 495.7 8.4 C 496.3 8.1 496.6 8.2 497.2 8.1 C 497.9 8.1 498.2 8.1 498.8 8.1 C 499.4 8.1 499.7 9.1 500.3 9.1 C 501.0 9.1 501.3 8.4 501.9 8.1 C 502.5 7.7 502.8 7.7 503.4 7.4 C 504.0 7.1 504.4 7.1 505.0 6.6 C 505.6 6.2 505.9 5.6 506.5 5.2 C 507.1 4.8 507.4 5.0 508.1 4.8 C 508.7 4.7 509.0 4.6 509.6 4.6 C 510.2 4.6 510.5 4.7 511.2 4.7 C 511.8 4.7 512.1 3.3 512.7 3.3 C 513.3 3.3 513.6 4.2 514.3 4.6 C 514.9 5.0 515.2 4.8 515.8 5.3 C 516.4 5.7 516.7 6.7 517.4 6.7 C 518.0 6.7 518.3 6.7 518.9 6.7 C 519.5 6.7 519.8 7.2 520.4 7.7 C 521.1 8.1 521.4 8.4 522.0 9.0 C 522.6 9.5 522.9 9.9 523.5 10.4 C 524.2 11.0 524.5 11.8 525.1 11.8 C 525.7 11.8 526.0 10.8 526.6 10.3 C 527.3 9.7 527.6 9.2 528.2 9.2 C 528.8 9.2 529.1 10.1 529.7 10.7 C 530.3 11.3 530.7 11.8 531.3 12.1 C 531.9 12.4 532.2 12.2 532.8 12.4 C 533.4 12.5 533.7 12.9 534.4 12.9 C 535.0 12.9 535.3 11.7 535.9 11.7 C 536.5 11.7 536.8 12.1 537.5 12.5 C 538.1 12.9 538.4 13.2 539.0 13.6 C 539.6 14.1 539.9 14.3 540.6 14.8 C 541.2 15.2 541.5 15.9 542.1 15.9 C 542.7 15.9 543.0 15.8 543.6 15.7 C 544.3 15.5 544.6 15.2 545.2 15.2 C 545.8 15.2 546.1 15.8 546.7 16.1 C 547.4 16.4 547.7 16.4 548.3 16.6 C 548.9 16.9 549.2 17.3 549.8 17.3 C 550.5 17.3 550.8 17.3 551.4 17.0 C 552.0 16.7 552.3 15.9 552.9 15.9 C 553.6 15.9 553.9 15.9 554.5 15.9 C 555.1 16.0 555.4 17.3 556.0 17.3 C 556.6 17.3 557.0 17.2 557.6 17.2 C 558.2 17.2 558.5 18.4 559.1 18.4 C 559.7 18.4 560.0 18.4 560.7 18.4 C 561.3 18.3 561.6 17.1 562.2 16.6 C 562.9 16.1 564 15.7 564 15.7" stroke="#4572A7" stroke-width="1"  stroke-linejoin="round" stroke-linecap="round"></path></g><g class="highcharts-markers" visibility="visible"  transform="translate(10,345) scale(1 1)" clip-path="url(#highcharts-4)"></g></g><g class="highcharts-navigator" ><rect fill="rgb(128,179,236)" fill-opacity="0.3" style="cursor:ew-resize ;" x="554" y="345" width="20" height="40"></rect><path fill="none" stroke="#b2b1b6" stroke-width="1" d="M 10 345.5 L 553.5 345.5 553.5 385.5 L 573.5 385.5 L 573.5 345.5 574 345.5 M 554.5 345.5 L 573.5 345.5"></path></g><g class="highcharts-navigator-handle-right" style="cursor:ew-resize;"  transform="translate(574,357)"><rect x="-4.5" y="0.5" width="8" height="15" strokeWidth="1" fill="#ebe7e8" stroke="#b2b1b6" stroke-width="1"></rect><path fill="#ebe7e8" d="M -1.5 4 L -1.5 12 M 0.5 4 L 0.5 12" stroke="#b2b1b6" stroke-width="1"></path></g><text x="292" text-anchor="middle" class="highcharts-title"  style="color:#333333;font-size:16px;fill:#333333;width:520px;" y="22"><tspan>AAPL Stock Price</tspan></text><g class="highcharts-navigator-handle-left" style="cursor:ew-resize;"  transform="translate(554,357)"><rect x="-4.5" y="0.5" width="8" height="15" strokeWidth="1" fill="#ebe7e8" stroke="#b2b1b6" stroke-width="1"></rect><path fill="#ebe7e8" d="M -1.5 4 L -1.5 12 M 0.5 4 L 0.5 12" stroke="#b2b1b6" stroke-width="1"></path></g><g class="highcharts-axis-labels highcharts-xaxis-labels" ><text x="66.4" style="color:#606060;cursor:default;font-size:11px;fill:#606060;" text-anchor="middle" transform="translate(0,0)" y="318" opacity="1"><tspan>18. Feb</tspan></text><text x="154.1" style="color:#606060;cursor:default;font-size:11px;fill:#606060;" text-anchor="middle" transform="translate(0,0)" y="318" opacity="1"><tspan>4. Mar</tspan></text><text x="241.8" style="color:#606060;cursor:default;font-size:11px;fill:#606060;" text-anchor="middle" transform="translate(0,0)" y="318" opacity="1"><tspan>18. Mar</tspan></text><text x="329.5" style="color:#606060;cursor:default;font-size:11px;fill:#606060;" text-anchor="middle" transform="translate(0,0)" y="318" opacity="1"><tspan>1. Apr</tspan></text><text x="417.3" style="color:#606060;cursor:default;font-size:11px;fill:#606060;" text-anchor="middle" transform="translate(0,0)" y="318" opacity="1"><tspan>15. Apr</tspan></text><text x="505.0" style="color:#606060;cursor:default;font-size:11px;fill:#606060;" text-anchor="middle" transform="translate(0,0)" y="318" opacity="1"><tspan>29. Apr</tspan></text></g><g class="highcharts-axis-labels highcharts-xaxis-labels" ><text x="144.7" style="color:#888;cursor:default;font-size:11px;fill:#888;width:178px;text-overflow:clip;" text-anchor="start" transform="translate(0,0)" y="381" opacity="1">2008</text><text x="306.2" style="color:#888;cursor:default;font-size:11px;fill:#888;width:178px;text-overflow:clip;" text-anchor="start" transform="translate(0,0)" y="381" opacity="1">2010</text><text x="467.6" style="color:#888;cursor:default;font-size:11px;fill:#888;width:178px;text-overflow:clip;" text-anchor="start" transform="translate(0,0)" y="381" opacity="1">2012</text></g><g class="highcharts-axis-labels highcharts-yaxis-labels" ><text x="574" style="color:#606060;cursor:default;font-size:11px;fill:#606060;width:183px;text-overflow:clip;" text-anchor="end" transform="translate(0,0)" y="297" opacity="1">375</text><text x="574" style="color:#606060;cursor:default;font-size:11px;fill:#606060;width:183px;text-overflow:clip;" text-anchor="end" transform="translate(0,0)" y="253" opacity="1">400</text><text x="574" style="color:#606060;cursor:default;font-size:11px;fill:#606060;width:183px;text-overflow:clip;" text-anchor="end" transform="translate(0,0)" y="209" opacity="1">425</text><text x="574" style="color:#606060;cursor:default;font-size:11px;fill:#606060;width:183px;text-overflow:clip;" text-anchor="end" transform="translate(0,0)" y="165" opacity="1">450</text><text x="574" style="color:#606060;cursor:default;font-size:11px;fill:#606060;width:183px;text-overflow:clip;" text-anchor="end" transform="translate(0,0)" y="121" opacity="1">475</text><text x="0" style="color:#606060;cursor:default;font-size:11px;fill:#606060;width:183px;text-overflow:clip;" text-anchor="end" transform="translate(0,0)" y="-9999">500</text></g><g class="highcharts-axis-labels highcharts-yaxis-labels" ></g><g class="highcharts-tooltip"  style="cursor:default;padding:0;white-space:nowrap;" transform="translate(0,-9999)"><path fill="none" d="M 3 0 L 13 0 C 16 0 16 0 16 3 L 16 13 C 16 16 16 16 13 16 L 3 16 C 0 16 0 16 0 13 L 0 3 C 0 0 0 0 3 0"  stroke="black" stroke-opacity="0.0" stroke-width="5" transform="translate(1, 1)"></path><path fill="none" d="M 3 0 L 13 0 C 16 0 16 0 16 3 L 16 13 C 16 16 16 16 13 16 L 3 16 C 0 16 0 16 0 13 L 0 3 C 0 0 0 0 3 0"  stroke="black" stroke-opacity="0.0" stroke-width="3" transform="translate(1, 1)"></path><path fill="none" d="M 3 0 L 13 0 C 16 0 16 0 16 3 L 16 13 C 16 16 16 16 13 16 L 3 16 C 0 16 0 16 0 13 L 0 3 C 0 0 0 0 3 0"  stroke="black" stroke-opacity="0.1" stroke-width="1" transform="translate(1, 1)"></path><path fill="rgb(249, 249, 249)" fill-opacity=" .85" d="M 3 0 L 13 0 C 16 0 16 0 16 3 L 16 13 C 16 16 16 16 13 16 L 3 16 C 0 16 0 16 0 13 L 0 3 C 0 0 0 0 3 0"></path><text x="8"  style="font-size:12px;color:#333333;fill:#333333;" y="20"></text></g></svg>